<svg width="32" height="32" viewBox="0 0 32 32" fill="none" xmlns="http://www.w3.org/2000/svg">
<path d="M16.0003 32C7.18311 32 0 24.817 0 16C0 7.18298 7.18311 0 16.0003 0C24.8175 0 32.0006 7.18298 32.0006 16C32.0006 24.817 24.8175 32 16.0003 32ZM16.0003 1.53192C8.03419 1.53192 1.53194 8.03404 1.53194 16C1.53194 23.966 8.03419 30.4681 16.0003 30.4681C23.9664 30.4681 30.4686 23.966 30.4686 16C30.4686 8.03404 23.9664 1.53192 16.0003 1.53192Z" fill="#9BE7C4"/>
<path d="M15.9999 24.1364C15.5914 24.1364 15.251 23.7959 15.251 23.3874V8.64701C15.251 8.2385 15.5914 7.89807 15.9999 7.89807C16.4084 7.89807 16.7489 8.2385 16.7489 8.64701V23.3874C16.7489 23.7959 16.4084 24.1364 15.9999 24.1364Z" fill="#9BE7C4"/>
<path d="M23.3531 16.7489H8.64641C8.23789 16.7489 7.89746 16.4085 7.89746 16C7.89746 15.5915 8.23789 15.251 8.64641 15.251H23.3871C23.7956 15.251 24.136 15.5915 24.136 16C24.136 16.4085 23.7956 16.7489 23.3531 16.7489Z" fill="#9BE7C4"/>
</svg>
