<svg width="26" height="33" viewBox="0 0 26 33" fill="none" xmlns="http://www.w3.org/2000/svg">
<path d="M13 33C12.8934 33 12.7869 32.9649 12.6803 32.9298C12.1475 32.684 0 27.2074 0 20.116V3.61596C0 3.40532 0.106557 3.15957 0.319672 3.01915C0.461749 2.91383 4.29781 0 13 0C21.7022 0 25.5383 2.91383 25.6803 3.01915C25.8579 3.15957 26 3.40532 26 3.65106V20.1511C26 27.2426 13.8525 32.7192 13.3197 32.9298C13.2131 32.9649 13.1066 33 13 33ZM1.59836 4.07234V20.1511C1.59836 25.6628 11.1175 30.4372 13 31.35C14.8825 30.4372 24.4016 25.6628 24.4016 20.1511V4.07234C23.3716 3.44043 19.7486 1.57979 13 1.57979C6.25137 1.57979 2.5929 3.44043 1.59836 4.07234Z" fill="#FF4141"/>
<path d="M12.0218 18.6399V8.3999H13.9818V18.6399H12.0218ZM11.8418 22.9999V20.5599H14.1618V22.9999H11.8418Z" fill="#FF4141"/>
</svg>
