<svg width="51" height="56" viewBox="0 0 51 56" fill="none" xmlns="http://www.w3.org/2000/svg">
<g clip-path="url(#clip0)">
<path d="M46.3536 26.075C46.6107 26.1625 46.9536 26.1625 47.2965 26.1625C49.2679 26.1625 50.8965 24.5 50.8965 22.4875C50.8965 21.525 50.5536 20.5625 49.8679 19.95C49.7822 19.8625 49.7822 19.8625 49.6965 19.775C50.2965 17.5875 50.125 15.575 49.2679 14C47.2965 10.5875 42.2393 9.45 35.2107 10.85C32.8965 4.025 29.3822 0 25.525 0C21.6679 0 18.1536 3.9375 15.8393 10.85C8.81074 9.45 3.7536 10.5875 1.78217 14C0.92503 15.575 0.753602 17.5 1.3536 19.6C-0.189255 20.825 -0.446398 23.1 0.753602 24.7625C1.69646 25.9875 3.23932 26.425 4.61074 25.9875C5.03932 26.6875 5.5536 27.3 6.1536 28C1.43932 33.5125 -0.103541 38.5 1.78217 42C3.1536 44.45 6.1536 45.7625 10.3536 45.7625C12.1536 45.7625 14.0393 45.5 15.7536 45.15C18.0679 52.0625 21.5822 56 25.4393 56C27.1536 56 28.9536 55.125 30.4965 53.55C32.2965 54.3375 34.4393 53.55 35.2107 51.7125C35.8107 50.3125 35.4679 48.7375 34.4393 47.6875C34.3536 47.6 34.3536 47.6 34.2679 47.5125C34.6107 46.8125 34.8679 46.025 35.125 45.15C36.925 45.5 38.725 45.7625 40.525 45.7625C44.725 45.7625 47.725 44.45 49.0965 42C51.0679 38.5875 49.4393 33.5125 44.725 28C45.4107 27.3875 45.925 26.6875 46.3536 26.075ZM48.6679 23.975C47.8965 24.7625 46.6965 24.7625 45.925 23.975C45.1536 23.1875 45.1536 21.9625 45.925 21.175C46.6965 20.3875 47.8965 20.3875 48.6679 21.175C49.4393 21.875 49.4393 23.1875 48.6679 23.975ZM47.8107 14.875C48.4107 16.0125 48.5822 17.4125 48.1536 18.9875C46.2679 18.4625 44.2965 19.6875 43.7822 21.6125C43.4393 22.8375 43.8679 24.15 44.725 25.1125C44.8107 25.2 44.8107 25.2 44.8965 25.2875C44.5536 25.8125 44.125 26.25 43.6965 26.775C41.725 24.675 39.5822 22.75 37.2679 21C36.925 18.1125 36.4107 15.225 35.6393 12.425C41.725 11.2875 46.2679 12.1625 47.8107 14.875ZM34.0965 43.1375C31.8679 42.6125 29.6393 41.825 27.4965 40.95C28.8679 40.25 30.2393 39.55 31.6107 38.7625C32.9822 37.975 34.2679 37.1 35.5536 36.225C35.2107 38.5875 34.6965 40.8625 34.0965 43.1375ZM16.8679 43.1375C16.1822 40.8625 15.7536 38.5875 15.4107 36.225C16.6965 37.1 17.9822 37.975 19.3536 38.7625C20.725 39.55 22.0965 40.3375 23.4679 40.95C21.325 41.825 19.1822 42.6125 16.8679 43.1375ZM16.8679 12.775C19.0965 13.3 21.325 14.0875 23.4679 14.9625C22.0965 15.6625 20.725 16.3625 19.3536 17.15C17.9822 17.9375 16.6965 18.8125 15.4107 19.6875C15.7536 17.4125 16.2679 15.05 16.8679 12.775ZM13.4393 32.725C11.6393 31.325 9.83932 29.6625 8.29646 28C9.92503 26.25 11.6393 24.675 13.4393 23.275C13.3536 24.85 13.2679 26.425 13.2679 28C13.2679 29.575 13.3536 31.15 13.4393 32.725ZM20.2107 37.3625C18.4965 36.3125 16.7822 35.2625 15.2393 34.0375C15.0679 32.025 14.9822 30.0125 14.9822 28C14.9822 25.9875 15.0679 23.8875 15.2393 21.9625C16.7822 20.825 18.4965 19.6875 20.2107 18.6375C21.925 17.5875 23.725 16.7125 25.525 15.8375C27.325 16.625 29.0393 17.5875 30.8393 18.6375C32.5536 19.6875 34.2679 20.7375 35.8107 21.9625C35.9822 23.975 36.0679 25.9875 36.0679 28C36.0679 30.0125 35.9822 32.1125 35.8107 34.0375C34.2679 35.175 32.5536 36.3125 30.8393 37.3625C29.125 38.4125 27.325 39.2875 25.525 40.1625C23.725 39.2875 21.925 38.325 20.2107 37.3625ZM34.0965 12.775C34.7822 15.05 35.2107 17.325 35.5536 19.6875C34.2679 18.8125 32.9822 17.9375 31.6107 17.15C30.2393 16.3625 28.8679 15.575 27.4965 14.9625C29.6393 14.0875 31.8679 13.3875 34.0965 12.775ZM37.525 23.275C39.325 24.675 41.125 26.3375 42.6679 28C41.0393 29.75 39.325 31.325 37.525 32.725C37.6107 31.15 37.6965 29.575 37.6965 28C37.6965 26.425 37.6107 24.85 37.525 23.275ZM25.525 1.6625C28.6107 1.6625 31.6107 5.25 33.5822 11.2C30.8393 11.9 28.0965 12.8625 25.525 14C22.9536 12.8625 20.2107 11.9 17.4679 11.2C19.4393 5.25 22.4393 1.6625 25.525 1.6625ZM2.12503 23.975C1.3536 23.1875 1.3536 21.9625 2.12503 21.175C2.89646 20.3875 4.09646 20.3875 4.86789 21.175C5.63932 21.9625 5.63932 23.1875 4.86789 23.975C4.52503 24.325 4.01074 24.5875 3.49646 24.5875C2.98217 24.5 2.46789 24.325 2.12503 23.975ZM6.06789 19.95C5.21074 19.075 4.01074 18.725 2.81074 18.9875C2.46789 17.325 2.5536 15.925 3.1536 14.875C4.69646 12.1625 9.1536 11.2875 15.325 12.5125C14.5536 15.3125 13.9536 18.2 13.6965 21.0875C11.3822 22.8375 9.23932 24.675 7.26789 26.775C6.83932 26.25 6.41074 25.725 5.98217 25.2L6.06789 25.1125C7.43932 23.7125 7.43932 21.35 6.06789 19.95ZM3.1536 41.125C1.61074 38.4125 3.1536 34.0375 7.18217 29.225C9.1536 31.325 11.2965 33.25 13.6107 35C13.9536 37.8875 14.4679 40.775 15.2393 43.575C9.23932 44.7125 4.69646 43.8375 3.1536 41.125ZM33.325 51.625C32.5536 52.4125 31.3536 52.4125 30.5822 51.625C29.8107 50.8375 29.8107 49.6125 30.5822 48.825C31.3536 48.0375 32.5536 48.0375 33.325 48.825C33.6679 49.175 33.925 49.7 33.925 50.225C33.925 50.6625 33.6679 51.1875 33.325 51.625ZM31.9536 46.55C29.9822 46.55 28.3536 48.2125 28.3536 50.225C28.3536 51.1 28.6107 51.8875 29.2107 52.5875C28.0107 53.725 26.725 54.3375 25.525 54.3375C22.4393 54.3375 19.4393 50.75 17.4679 44.8C20.2107 44.1 22.9536 43.1375 25.525 42C28.0965 43.1375 30.8393 44.1 33.5822 44.8C33.325 45.5 33.1536 46.1125 32.8965 46.725C32.5536 46.55 32.2965 46.55 31.9536 46.55ZM47.8107 41.125C46.2679 43.8375 41.8107 44.7125 35.6393 43.4875C36.4107 40.6875 37.0107 37.8 37.2679 34.9125C39.5822 33.1625 41.725 31.2375 43.6965 29.1375C47.8107 34.0375 49.3536 38.4125 47.8107 41.125Z" fill="white" stroke="white" stroke-width="0.0988853" stroke-miterlimit="10"/>
<path d="M25.4863 34.9998C25.1593 34.9998 24.8867 34.7272 24.8867 34.4002V22.5996C24.8867 22.2725 25.1593 22 25.4863 22C25.8133 22 26.0859 22.2725 26.0859 22.5996V34.4002C26.0859 34.7272 25.8133 34.9998 25.4863 34.9998Z" fill="white"/>
<path d="M31.3732 29.0856H19.5996C19.2725 29.0856 19 28.8131 19 28.486C19 28.159 19.2725 27.8865 19.5996 27.8865H31.4004C31.7275 27.8865 32 28.159 32 28.486C32 28.8131 31.7275 29.0856 31.3732 29.0856Z" fill="white"/>
</g>
<defs>
<clipPath id="clip0">
<rect width="51" height="56" fill="white"/>
</clipPath>
</defs>
</svg>
