<svg width="32" height="32" viewBox="0 0 32 32" fill="none" xmlns="http://www.w3.org/2000/svg">
<circle cx="16" cy="16" r="16" fill="white"/>
<path d="M19.9219 16.1796C19.9219 15.4944 20.4701 14.9463 21.1553 14.9463C21.8406 14.9463 22.3888 15.4944 22.3888 16.1796C22.3888 16.8648 21.8406 17.4129 21.1553 17.4129C20.4701 17.4129 19.9219 16.842 19.9219 16.1796Z" fill="url(#paint0_linear)"/>
<path d="M27.3686 19.1716C27.3229 19.5598 27.2772 19.9481 27.163 20.3135C26.8204 21.6154 26.0666 22.803 24.8332 23.4654C23.1429 24.3333 21.1328 24.0135 19.4425 23.3512C18.0491 24.3333 18.0492 24.3333 18.0492 24.3333C17.7294 24.5388 17.3182 24.1962 17.5009 23.8536C17.1126 23.9222 16.9984 23.5567 17.1126 23.2598C16.7929 23.511 16.5187 23.0543 16.7015 22.7802C16.8157 22.5975 16.9984 22.3919 17.1355 22.232C15.1711 21.1129 13.3894 19.7425 11.5849 18.395C12.6128 19.0345 16.7243 21.1357 17.7294 21.5697C18.7801 22.0265 19.8308 22.4833 20.9272 22.7345C21.8409 22.9401 23.0058 23.0543 23.851 22.5289C24.6276 22.0722 24.9245 21.1357 25.0387 20.2907C25.3128 18.4635 24.6733 16.408 23.7139 14.8549C22.7089 13.2333 21.0643 11.7716 19.1912 11.2919C18.506 11.1092 17.8207 11.1092 17.1812 11.2234C15.6964 11.4747 14.3488 12.3882 13.3209 13.5302C11.8362 15.1747 10.8083 17.2074 9.87178 19.2172C9.23221 20.5648 8.34138 23.8536 6.23993 22.5518C5.30342 21.958 4.70953 20.9302 4.29838 19.9253C3.84154 18.8518 3.52176 17.4129 3.8187 16.2481C4.45827 13.8043 7.88454 15.974 9.04948 16.7506C8.98095 16.7277 6.23993 15.4716 5.23489 16.4537C4.77806 16.9104 4.8009 17.7327 4.86943 18.3265C5.00648 19.3999 5.53184 20.9987 6.53688 21.5925C7.83886 22.3462 8.50127 19.9938 8.8439 19.1716C9.41495 17.7783 9.96315 16.3851 10.6027 15.0148C11.3108 13.5074 12.156 12.0228 13.3209 10.8123C13.0696 10.5154 12.7042 10.15 12.6813 9.7617C12.6356 9.32775 13.0696 8.84812 13.5265 9.07652C13.0011 8.48269 13.7092 7.59196 14.3945 7.93455C14.0747 7.43208 14.5772 6.79257 15.1026 6.81541C15.3995 6.81541 15.6964 7.06665 15.9249 7.22652C16.5187 7.61479 17.1126 8.0259 17.7294 8.41418C23.417 7.52344 27.8711 13.987 27.3686 19.1716Z" fill="url(#paint1_linear)"/>
<path d="M27.1631 20.3136C26.8204 21.6155 26.0667 22.8031 24.8332 23.4655C23.1429 24.3334 21.1328 24.0136 19.4425 23.3513C18.0492 24.3334 18.0492 24.3334 18.0492 24.3334C17.7294 24.5389 17.3183 24.1963 17.501 23.8537C17.1127 23.9223 16.9985 23.5568 17.1127 23.2599C16.7929 23.5111 16.5188 23.0544 16.7015 22.7803C16.8157 22.5976 16.9985 22.392 17.1355 22.2321C15.1711 21.113 13.3895 19.7426 11.585 18.3951C12.6128 19.0346 16.7244 21.1358 17.7294 21.5698C18.7801 22.0266 19.8309 22.4834 20.9273 22.7346C21.8409 22.9402 23.0059 23.0544 23.851 22.5291C24.6276 22.0723 24.9246 21.1358 25.0388 20.2908C25.3129 18.4636 24.6733 16.4081 23.714 14.855C22.7089 13.2334 21.0643 11.7717 19.1913 11.292C18.506 11.1093 17.8208 11.1093 17.1812 11.2235C19.7395 10.447 24.6733 11.4748 26.4093 15.426C27.2316 17.3673 27.3915 18.9204 27.1631 20.3136Z" fill="url(#paint2_linear)"/>
<defs>
<linearGradient id="paint0_linear" x1="19.9219" y1="16.1796" x2="22.3888" y2="16.1796" gradientUnits="userSpaceOnUse">
<stop stop-color="#030332"/>
<stop offset="1" stop-color="#171753"/>
</linearGradient>
<linearGradient id="paint1_linear" x1="3.70361" y1="15.6051" x2="27.4073" y2="15.6051" gradientUnits="userSpaceOnUse">
<stop stop-color="#030332"/>
<stop offset="1" stop-color="#171753"/>
</linearGradient>
<linearGradient id="paint2_linear" x1="11.585" y1="17.6892" x2="27.2578" y2="17.6892" gradientUnits="userSpaceOnUse">
<stop stop-color="#030332"/>
<stop offset="1" stop-color="#171753"/>
</linearGradient>
</defs>
</svg>
