<svg width="32" height="28" viewBox="0 0 32 28" fill="none" xmlns="http://www.w3.org/2000/svg">
<g clip-path="url(#clip0)">
<path d="M15.2721 20.1872L15.2721 0.782994C15.2721 0.374483 15.6126 0.0340576 16.0211 0.0340576C16.4296 0.0340576 16.77 0.374483 16.77 0.782994L16.77 20.1872C16.77 20.5958 16.4296 20.9362 16.0211 20.9362C15.6126 20.9362 15.2721 20.5958 15.2721 20.1872Z" fill="#9BE7C4"/>
<path d="M6.99978 11.9149C6.99978 11.7107 7.06787 11.5404 7.23808 11.3702C7.54446 11.0638 8.02106 11.0638 8.32744 11.3702L16.0551 19.0979L23.7487 11.3702C24.0551 11.0638 24.5317 11.0638 24.8381 11.3702C25.1445 11.6766 25.1445 12.1532 24.8381 12.4596L16.5657 20.7319C16.2594 21.0383 15.7828 21.0383 15.4764 20.7319L7.23808 12.4596C7.06787 12.3234 6.99978 12.1192 6.99978 11.9149Z" fill="#9BE7C4"/>
<path d="M-0.000275338 26.5532L-0.000274691 11.7447C-0.000274673 11.3362 0.340151 10.9957 0.748661 10.9957C1.15717 10.9957 1.4976 11.3362 1.4976 11.7447L1.4976 25.7702L30.4338 25.7702L30.4338 11.7447C30.4338 11.3362 30.7742 10.9957 31.1827 10.9957C31.5912 10.9957 31.9316 11.3362 31.9316 11.7447L31.9316 26.5532C31.9316 26.9617 31.5912 27.3021 31.1827 27.3021L0.714618 27.3021C0.34015 27.3021 -0.000275356 26.9617 -0.000275338 26.5532Z" fill="#9BE7C4"/>
</g>
<defs>
<clipPath id="clip0">
<rect width="27.3021" height="32" fill="white" transform="translate(32) rotate(90)"/>
</clipPath>
</defs>
</svg>
