<svg width="77" height="73" viewBox="0 0 77 73" fill="none" xmlns="http://www.w3.org/2000/svg">
<path d="M60.7244 73C56.8624 73 53.1984 71.6194 50.2276 69.0555L35.9677 55.5453C35.3736 54.9537 35.0765 54.1647 35.1755 53.2772C35.2745 52.4883 35.7697 51.798 36.4629 51.4036C39.0375 50.023 41.8103 50.3188 44.5831 52.2911L47.2568 54.2634L40.622 34.0475C40.2259 32.8641 40.4239 31.5821 41.0181 30.596C41.6122 29.5113 42.7015 28.821 43.9889 28.6237C45.9694 28.3279 47.95 29.6099 48.6432 31.5821L51.3169 39.6685C52.0101 38.8796 52.9013 38.3865 53.8916 38.2879C55.377 38.0907 56.8624 38.6824 57.8526 39.9643C58.5458 39.0768 59.4371 38.4851 60.6254 38.2879C62.1108 38.0907 63.5962 38.6824 64.5865 39.9643C65.2797 39.0768 66.2699 38.4851 67.3592 38.2879C69.3398 37.9921 71.3203 39.274 72.0135 41.2463L75.5784 52.0939C77.1629 57.0245 76.4697 62.3497 73.6969 66.2943C71.0232 70.0416 67.1612 72.3097 62.6059 72.8028C61.8137 73 61.3186 73 60.7244 73ZM39.8298 52.4883C39.0375 52.4883 38.2453 52.6855 37.4531 53.08C37.2551 53.2772 37.156 53.4744 37.156 53.5731C37.156 53.6717 37.156 53.8689 37.3541 54.1647L51.5149 67.5762C54.3867 70.1402 58.2487 71.4222 62.2098 70.9291C66.1709 70.5347 69.5378 68.4638 71.9144 65.2095C74.3901 61.758 74.9843 57.1232 73.5979 52.7841L70.0329 41.9366C69.6368 40.8519 68.6466 40.1616 67.5573 40.2602C66.8641 40.3588 66.3689 40.7532 65.9728 41.2463C65.6758 41.838 65.5767 42.4297 65.7748 43.0214L67.7553 48.9382C67.9534 49.4313 67.6563 50.023 67.1612 50.2202C66.666 50.4174 66.0719 50.1216 65.8738 49.6285L63.2991 41.9366C62.903 40.8519 61.9127 40.0629 60.8234 40.2602C60.1303 40.3588 59.6351 40.7532 59.239 41.2463C58.9419 41.838 58.8429 42.4297 59.041 43.0214L61.0215 49.0368C61.2196 49.5299 60.9225 50.1216 60.4273 50.3188C59.9322 50.516 59.338 50.2202 59.14 49.7271L56.5653 41.9366C56.1692 40.8519 55.1789 40.1616 54.0896 40.2602C53.3964 40.3588 52.9013 40.7532 52.5052 41.2463C52.2081 41.838 52.1091 42.4297 52.3071 43.0214L54.2877 49.0368C54.4857 49.5299 54.1887 50.1216 53.6935 50.3188C53.1984 50.516 52.6042 50.2202 52.4062 49.7271L46.6626 32.2724C46.2665 31.1877 45.2762 30.4974 44.1869 30.596C43.4938 30.6946 42.9986 31.0891 42.6025 31.5821C42.3054 32.1738 42.2064 32.7655 42.4045 33.3572L50.0295 56.5315C50.1286 56.9259 50.0295 57.419 49.6334 57.6162C49.2373 57.9121 48.8412 57.8135 48.4451 57.6162L43.4938 53.8689C42.2064 52.9814 41.0181 52.4883 39.8298 52.4883Z" fill="white"/>
<path d="M25.2155 20.0967C28.3774 24.3038 34.4763 25.0692 38.6851 21.9061C42.8939 18.743 43.9905 12.5698 40.8287 8.3626C37.6668 4.15545 31.5678 3.39005 27.2233 6.65518C22.8787 9.92031 22.1524 16.021 25.2155 20.0967ZM38.7922 9.89313C41.0648 12.917 40.4614 17.4852 37.203 19.934C33.9446 22.3829 29.6234 21.7215 27.252 18.5661C24.8806 15.4108 25.6816 11.1056 28.8042 8.75876C31.9269 6.41195 36.5196 6.86924 38.7922 9.89313Z" fill="white"/>
<path d="M7.56595 33.3604L10.5302 37.3046C10.9254 37.8305 11.728 38.0503 12.4068 37.5401C13.0856 37.0299 13.0608 36.4314 12.5667 35.7741L10.3929 32.8816L26.9564 20.4333C27.6353 19.9232 27.7461 19.2226 27.2521 18.5653C26.7581 17.9079 26.0543 17.8196 25.3755 18.3298L7.72584 31.5944C7.28158 32.134 7.17071 32.8345 7.56595 33.3604Z" fill="white"/>
<path d="M14.3509 28.2591L17.3151 32.2033C17.7104 32.7292 18.5129 32.949 19.1917 32.4388C19.8706 31.9286 19.8457 31.3301 19.3516 30.6728L16.3874 26.7286C15.9921 26.2027 15.1896 25.9829 14.5107 26.493C13.8319 27.0032 13.9556 27.7332 14.3509 28.2591Z" fill="white"/>
<path d="M55.9898 18.1965C54.9982 18.1965 54.1758 17.3815 54.1758 16.3986V15.7993C54.1758 14.8165 54.9982 14.0014 55.9898 14.0014C56.9815 14.0014 57.8039 14.8165 57.8039 15.7993V16.3986C57.8039 17.4054 56.9815 18.1965 55.9898 18.1965Z" fill="white"/>
<path d="M55.9898 28.0727C54.9982 28.0727 54.1758 27.2576 54.1758 26.2748V25.6755C54.1758 24.6926 54.9982 23.8776 55.9898 23.8776C56.9815 23.8776 57.8039 24.6926 57.8039 25.6755V26.2748C57.8039 27.2576 56.9815 28.0727 55.9898 28.0727Z" fill="white"/>
<path d="M51.2977 22.823H50.693C49.7013 22.823 48.8789 22.0079 48.8789 21.0251C48.8789 20.0423 49.7013 19.2272 50.693 19.2272H51.2977C52.2893 19.2272 53.1117 20.0423 53.1117 21.0251C53.1117 22.0319 52.3135 22.823 51.2977 22.823Z" fill="white"/>
<path d="M61.2634 22.823H60.6588C59.6671 22.823 58.8447 22.0079 58.8447 21.0251C58.8447 20.0423 59.6671 19.2272 60.6588 19.2272H61.2634C62.2551 19.2272 63.0775 20.0423 63.0775 21.0251C63.0775 22.0319 62.2551 22.823 61.2634 22.823Z" fill="white"/>
<path d="M26.8302 39.6376C25.8385 39.6376 25.0161 38.8225 25.0161 37.8397V37.2404C25.0161 36.2575 25.8385 35.4425 26.8302 35.4425C27.8218 35.4425 28.6442 36.2575 28.6442 37.2404V37.8397C28.6442 38.8465 27.8218 39.6376 26.8302 39.6376Z" fill="white"/>
<path d="M26.8302 49.5137C25.8385 49.5137 25.0161 48.6987 25.0161 47.7158V47.1165C25.0161 46.1337 25.8385 45.3187 26.8302 45.3187C27.8218 45.3187 28.6442 46.1337 28.6442 47.1165V47.7158C28.6442 48.6987 27.8218 49.5137 26.8302 49.5137Z" fill="white"/>
<path d="M22.138 44.264H21.5333C20.5416 44.264 19.7192 43.449 19.7192 42.4662C19.7192 41.4833 20.5416 40.6683 21.5333 40.6683H22.138C23.1297 40.6683 23.952 41.4833 23.952 42.4662C23.952 43.473 23.1539 44.264 22.138 44.264Z" fill="white"/>
<path d="M32.1038 44.264H31.4991C30.5074 44.264 29.6851 43.449 29.6851 42.4662C29.6851 41.4833 30.5074 40.6683 31.4991 40.6683H32.1038C33.0955 40.6683 33.9178 41.4833 33.9178 42.4662C33.9178 43.473 33.0955 44.264 32.1038 44.264Z" fill="white"/>
</svg>
