<svg width="32" height="45" viewBox="0 0 32 45" fill="none" xmlns="http://www.w3.org/2000/svg">
<path d="M15.9995 33.1755C17.2247 33.1755 18.2178 32.1682 18.2178 30.9255C18.2178 29.6829 17.2247 28.6755 15.9995 28.6755C14.7744 28.6755 13.7812 29.6829 13.7812 30.9255C13.7812 32.1682 14.7744 33.1755 15.9995 33.1755Z" fill="white"/>
<path d="M30.9616 45H1.03835C0.471976 45 0 44.5213 0 43.9468V21.4468C0 20.8723 0.471976 20.3936 1.03835 20.3936H30.9616C31.528 20.3936 32 20.8723 32 21.4468V43.9468C32 44.5213 31.528 45 30.9616 45ZM2.12389 42.8457H29.9233V22.5H2.12389V42.8457Z" fill="white"/>
<path d="M26.0052 21.1117C25.4389 21.1117 24.9669 20.633 24.9669 20.0585V11.2021C24.9669 6.17553 20.9551 2.10638 15.9993 2.10638C11.0436 2.10638 7.03177 6.17553 7.03177 11.2021V20.0106C7.03177 20.5851 6.5598 21.0638 5.99343 21.0638C5.42705 21.0638 4.95508 20.5851 4.95508 20.0106V11.2021C4.95508 5.0266 9.91083 0 15.9993 0C22.0878 0 27.0908 5.0266 27.0908 11.2021V20.0106C27.0908 20.633 26.5716 21.1117 26.0052 21.1117Z" fill="white"/>
<path d="M16.0003 38.7288C15.4339 38.7288 14.9619 38.25 14.9619 37.6756V31.6436C14.9619 31.0692 15.4339 30.5905 16.0003 30.5905C16.5666 30.5905 17.0386 31.0692 17.0386 31.6436V37.6756C17.0386 38.25 16.5666 38.7288 16.0003 38.7288Z" fill="white"/>
</svg>
