<svg width="13" height="19" viewBox="0 0 13 19" fill="none" xmlns="http://www.w3.org/2000/svg">
<path d="M4.51028 13.12V8.944H6.74228C7.59028 8.944 8.22228 8.72 8.63828 8.272C9.05428 7.808 9.26228 7.248 9.26228 6.592C9.26228 5.904 9.05428 5.344 8.63828 4.912C8.23828 4.48 7.67828 4.264 6.95828 4.264C6.19028 4.264 5.59828 4.496 5.18228 4.96C4.76628 5.424 4.55828 5.984 4.55828 6.64H0.886281C0.886281 5.584 1.12628 4.632 1.60628 3.784C2.08628 2.92 2.78228 2.232 3.69428 1.72C4.62228 1.208 5.74228 0.951999 7.05428 0.951999C8.27028 0.951999 9.31828 1.184 10.1983 1.648C11.0783 2.096 11.7583 2.72 12.2383 3.52C12.7183 4.32 12.9583 5.24 12.9583 6.28V6.568C12.9583 7.88 12.5583 8.984 11.7583 9.88C10.9583 10.776 9.82228 11.36 8.35028 11.632L8.32628 13.12H4.51028ZM4.22228 19V15.136H8.59028V19H4.22228Z" fill="#49CE8B"/>
</svg>
