<svg width="15" height="15" viewBox="0 0 15 15" fill="none" xmlns="http://www.w3.org/2000/svg">
<path d="M7.94864 10.8731L5.4972 13.2738C4.70307 14.0515 3.39102 14.0515 2.56237 13.2738L1.5956 12.3271C0.801467 11.5494 0.801467 10.2645 1.5956 9.45302L5.2555 5.86891C6.04964 5.09122 7.36168 5.09122 8.19034 5.86891L9.1571 6.81565C9.32974 6.98471 9.46785 7.18759 9.57143 7.39046" stroke="#5ED9D1" stroke-miterlimit="10" stroke-linejoin="round"/>
<path d="M6.90843 3.97221L9.35988 1.58097C10.154 0.806343 11.466 0.806343 12.2947 1.58097L13.2615 2.524C14.0556 3.29862 14.0556 4.57844 13.2615 5.38675L9.60157 8.99046C8.80744 9.76509 7.4954 9.76509 6.66674 8.99046L5.69997 8.04743C5.52734 7.87903 5.38923 7.67696 5.28564 7.47488" stroke="#5ED9D1" stroke-miterlimit="10" stroke-linejoin="round"/>
</svg>
