<svg width="32" height="28" viewBox="0 0 32 28" fill="none" xmlns="http://www.w3.org/2000/svg">
<path d="M15.383 20.1872L15.383 0.782933C15.383 0.374422 15.7234 0.0339965 16.1319 0.0339965C16.5404 0.0339966 16.8809 0.374422 16.8809 0.782933L16.8809 20.1872C16.8809 20.5957 16.5404 20.9361 16.1319 20.9361C15.7234 20.9361 15.383 20.5957 15.383 20.1872Z" fill="#9BE7C4"/>
<path d="M7.11063 9.02125C7.11063 8.81699 7.17871 8.64678 7.34892 8.47657L15.5872 0.238271C15.8936 -0.0681123 16.3702 -0.0681122 16.6766 0.238271L24.9489 8.51061C25.2553 8.81699 25.2553 9.29359 24.9489 9.59997C24.6425 9.90635 24.1659 9.90635 23.8596 9.59997L16.1319 1.83827L8.40424 9.56593C8.09786 9.87231 7.62126 9.87231 7.31488 9.56593C7.17871 9.39572 7.11063 9.2255 7.11063 9.02125Z" fill="#9BE7C4"/>
<path d="M-0.000275338 26.5532L-0.000274691 11.7447C-0.000274673 11.3362 0.340151 10.9957 0.748661 10.9957C1.15717 10.9957 1.4976 11.3362 1.4976 11.7447L1.4976 25.7702L30.4338 25.7702L30.4338 11.7447C30.4338 11.3362 30.7742 10.9957 31.1827 10.9957C31.5912 10.9957 31.9316 11.3362 31.9316 11.7447L31.9316 26.5532C31.9316 26.9617 31.5912 27.3021 31.1827 27.3021L0.714618 27.3021C0.34015 27.3021 -0.000275356 26.9617 -0.000275338 26.5532Z" fill="#9BE7C4"/>
</svg>
