<svg width="14" height="18" viewBox="0 0 14 18" fill="none" xmlns="http://www.w3.org/2000/svg">
<path d="M7 17.7692C6.94262 17.7692 6.88525 17.7503 6.82787 17.7314C6.54098 17.5991 0 14.6502 0 10.8317V1.94705C0 1.83363 0.057377 1.70131 0.172131 1.6257C0.248634 1.56899 2.31421 0 7 0C11.6858 0 13.7514 1.56899 13.8279 1.6257C13.9235 1.70131 14 1.83363 14 1.96596V10.8506C14 14.6691 7.45902 17.618 7.17213 17.7314C7.11475 17.7503 7.05738 17.7692 7 17.7692ZM0.860656 2.1928V10.8506C0.860656 13.8184 5.98634 16.3893 7 16.8808C8.01366 16.3893 13.1393 13.8184 13.1393 10.8506V2.1928C12.5847 1.85254 10.6339 0.850655 7 0.850655C3.36612 0.850655 1.39617 1.85254 0.860656 2.1928Z" fill="#FFA54B"/>
<path d="M6.47339 10.2318V5.00623H7.52875V10.2318H6.47339ZM6.37646 12.4567V11.2116H7.62568V12.4567H6.37646Z" fill="#FFA54B"/>
</svg>
