<svg width="35" height="35" viewBox="0 0 35 35" fill="none" xmlns="http://www.w3.org/2000/svg">
<path d="M10.7131 9.40906C10.6421 9.33882 10.5577 9.2831 10.4648 9.24509C10.3719 9.20707 10.2724 9.1875 10.1719 9.1875C10.0713 9.1875 9.97176 9.20707 9.87888 9.24509C9.786 9.2831 9.70162 9.33882 9.63056 9.40906L1.97435 16.9701C1.90323 17.0403 1.84681 17.1236 1.80831 17.2153C1.76981 17.3071 1.75 17.4054 1.75 17.5047C1.75 17.6039 1.76981 17.7023 1.80831 17.794C1.84681 17.8857 1.90323 17.969 1.97435 18.0392L9.63056 25.6003C9.77496 25.738 9.96836 25.8142 10.1691 25.8125C10.3698 25.8107 10.5619 25.7312 10.7038 25.591C10.8458 25.4509 10.9263 25.2612 10.928 25.063C10.9298 24.8647 10.8526 24.6737 10.7131 24.5311L3.59831 17.5047L10.7131 10.4782C10.7843 10.408 10.8407 10.3247 10.8792 10.233C10.9177 10.1412 10.9375 10.0429 10.9375 9.94363C10.9375 9.84434 10.9177 9.74602 10.8792 9.6543C10.8407 9.56257 10.7843 9.47924 10.7131 9.40906Z" fill="#171753"/>
<path d="M25.737 9.39987C25.5993 9.26206 25.4149 9.1858 25.2236 9.18753C25.0322 9.18925 24.8491 9.26881 24.7138 9.40908C24.5785 9.54935 24.5017 9.73909 24.5 9.93745C24.4984 10.1358 24.5719 10.3269 24.7049 10.4696L31.4879 17.5L24.7049 24.5304C24.5719 24.6731 24.4984 24.8642 24.5 25.0625C24.5017 25.2609 24.5785 25.4507 24.7138 25.5909C24.8491 25.7312 25.0322 25.8107 25.2236 25.8125C25.4149 25.8142 25.5993 25.7379 25.737 25.6001L33.0361 18.0349C33.1039 17.9646 33.1577 17.8813 33.1944 17.7895C33.2311 17.6977 33.25 17.5993 33.25 17.5C33.25 17.4007 33.2311 17.3023 33.1944 17.2105C33.1577 17.1187 33.1039 17.0354 33.0361 16.9651L25.737 9.39987Z" fill="#171753"/>
<path d="M19.9834 7.46013C19.8859 7.43601 19.7846 7.43111 19.6852 7.44572C19.5858 7.46033 19.4903 7.49415 19.4041 7.54527C19.3179 7.59638 19.2427 7.66379 19.1829 7.74363C19.1231 7.82346 19.0797 7.91418 19.0553 8.01058L14.4643 26.1697C14.4376 26.2669 14.4308 26.3684 14.4442 26.4682C14.4576 26.568 14.4911 26.6642 14.5426 26.751C14.5941 26.8379 14.6626 26.9137 14.7441 26.9741C14.8256 27.0344 14.9185 27.0781 15.0173 27.1025C15.1161 27.1269 15.2188 27.1315 15.3195 27.1161C15.4201 27.1008 15.5166 27.0657 15.6034 27.0129C15.6901 26.9602 15.7654 26.8909 15.8247 26.809C15.884 26.7272 15.9262 26.6344 15.9488 26.5362L20.5398 8.3771C20.5888 8.18255 20.5578 7.97671 20.4535 7.80478C20.3492 7.63285 20.1801 7.50889 19.9834 7.46013Z" fill="#171753"/>
</svg>
