<svg width="19" height="31" viewBox="0 0 19 31" fill="none" xmlns="http://www.w3.org/2000/svg">
<path fill-rule="evenodd" clip-rule="evenodd" d="M7.11751 2.45076C8.6445 0.923771 10.7155 0.065918 12.875 0.065918H17.25C17.7199 0.065918 18.1007 0.446787 18.1007 0.916612V6.74995C18.1007 7.21977 17.7199 7.60064 17.25 7.60064H12.875C12.7139 7.60064 12.5593 7.66466 12.4454 7.77861C12.3314 7.89257 12.2674 8.04712 12.2674 8.20828V11.7326H17.25C17.7199 11.7326 18.1007 12.1135 18.1007 12.5833V18.4166C18.1007 18.8864 17.7199 19.2673 17.25 19.2673H12.2674V30.0833C12.2674 30.5531 11.8865 30.934 11.4167 30.934H5.58336C5.11353 30.934 4.73267 30.5531 4.73267 30.0833V19.2673H1.20836C0.738535 19.2673 0.357666 18.8864 0.357666 18.4166V12.5833C0.357666 12.1135 0.738535 11.7326 1.20836 11.7326H4.73267V8.20828C4.73267 6.04879 5.59052 3.97775 7.11751 2.45076ZM12.875 1.76731C11.1668 1.76731 9.52849 2.44591 8.32057 3.65382C7.11265 4.86174 6.43405 6.50003 6.43405 8.20828V12.5833C6.43405 13.0531 6.05318 13.434 5.58336 13.434H2.05905V17.5659H5.58336C6.05318 17.5659 6.43405 17.9468 6.43405 18.4166V29.2326H10.566V18.4166C10.566 17.9468 10.9469 17.5659 11.4167 17.5659H16.3993V13.434H11.4167C10.9469 13.434 10.566 13.0531 10.566 12.5833V8.20828C10.566 7.59589 10.8093 7.00858 11.2423 6.57555C11.6753 6.14252 12.2626 5.89925 12.875 5.89925H16.3993V1.76731H12.875Z" fill="#373765"/>
</svg>
