<svg width="35" height="35" viewBox="0 0 35 35" fill="none" xmlns="http://www.w3.org/2000/svg">
<path fill-rule="evenodd" clip-rule="evenodd" d="M23.3334 12.5173C21.2383 12.5173 19.2291 13.3496 17.7477 14.831C16.2663 16.3124 15.4341 18.3216 15.4341 20.4166V31.6051H19.566V20.4166C19.566 19.4174 19.9629 18.4592 20.6694 17.7527C21.376 17.0462 22.3342 16.6493 23.3334 16.6493C24.3325 16.6493 25.2908 17.0462 25.9973 17.7527C26.7038 18.4592 27.1007 19.4174 27.1007 20.4166V31.6051H31.2327L31.2327 20.4166C31.2327 18.3216 30.4004 16.3124 28.919 14.831C27.4376 13.3496 25.4284 12.5173 23.3334 12.5173ZM16.5446 13.6279C18.3451 11.8274 20.7871 10.8159 23.3334 10.8159C25.8796 10.8159 28.3216 11.8274 30.1221 13.6279C31.9226 15.4284 32.9341 17.8703 32.9341 20.4166L32.9341 32.4557C32.9341 32.9256 32.5532 33.3064 32.0834 33.3064H26.25C25.7802 33.3064 25.3993 32.9256 25.3993 32.4557V20.4166C25.3993 19.8687 25.1817 19.3432 24.7942 18.9558C24.4068 18.5683 23.8813 18.3506 23.3334 18.3506C22.7854 18.3506 22.2599 18.5683 21.8725 18.9558C21.4851 19.3432 21.2674 19.8687 21.2674 20.4166V32.4557C21.2674 32.9256 20.8865 33.3064 20.4167 33.3064H14.5834C14.1135 33.3064 13.7327 32.9256 13.7327 32.4557V20.4166C13.7327 17.8704 14.7442 15.4284 16.5446 13.6279Z" fill="#373765"/>
<path fill-rule="evenodd" clip-rule="evenodd" d="M2.06592 13.1251C2.06592 12.6553 2.44679 12.2744 2.91661 12.2744H8.74994C9.21976 12.2744 9.60063 12.6553 9.60063 13.1251V32.4559C9.60063 32.9257 9.21976 33.3066 8.74994 33.3066H2.91661C2.44679 33.3066 2.06592 32.9257 2.06592 32.4559V13.1251ZM3.76731 13.9758V31.6052H7.89924V13.9758H3.76731Z" fill="#373765"/>
<path fill-rule="evenodd" clip-rule="evenodd" d="M5.83328 3.76731C4.69227 3.76731 3.76731 4.69227 3.76731 5.83328C3.76731 6.97428 4.69227 7.89924 5.83328 7.89924C6.97428 7.89924 7.89924 6.97428 7.89924 5.83328C7.89924 4.69227 6.97428 3.76731 5.83328 3.76731ZM2.06592 5.83328C2.06592 3.75262 3.75262 2.06592 5.83328 2.06592C7.91393 2.06592 9.60063 3.75262 9.60063 5.83328C9.60063 7.91393 7.91393 9.60063 5.83328 9.60063C3.75262 9.60063 2.06592 7.91393 2.06592 5.83328Z" fill="#373765"/>
</svg>
