<svg width="35" height="35" viewBox="0 0 35 35" fill="none" xmlns="http://www.w3.org/2000/svg">
<path fill-rule="evenodd" clip-rule="evenodd" d="M5.8334 6.68405C4.69906 6.68405 3.76743 7.61569 3.76743 8.75003V26.25C3.76743 27.3844 4.69906 28.316 5.8334 28.316H29.1667C30.3011 28.316 31.2327 27.3844 31.2327 26.25V8.75003C31.2327 7.61569 30.3011 6.68405 29.1667 6.68405H5.8334ZM2.06604 8.75003C2.06604 6.67603 3.75941 4.98267 5.8334 4.98267H29.1667C31.2407 4.98267 32.9341 6.67603 32.9341 8.75003V26.25C32.9341 28.324 31.2407 30.0174 29.1667 30.0174H5.8334C3.75941 30.0174 2.06604 28.324 2.06604 26.25V8.75003Z" fill="#373765"/>
<path fill-rule="evenodd" clip-rule="evenodd" d="M2.21977 8.2621C2.4892 7.8772 3.01963 7.78359 3.40453 8.05302L17.5 17.9199L31.5955 8.05302C31.9804 7.78359 32.5108 7.8772 32.7803 8.2621C33.0497 8.64699 32.9561 9.17743 32.5712 9.44685L17.9879 19.6552C17.6949 19.8602 17.3051 19.8602 17.0122 19.6552L2.42884 9.44685C2.04395 9.17743 1.95034 8.64699 2.21977 8.2621Z" fill="#373765"/>
</svg>
