<svg width="32" height="28" viewBox="0 0 32 28" fill="none" xmlns="http://www.w3.org/2000/svg">
<path d="M18.2857 27.9814C18.1836 27.9814 18.0814 27.9471 17.9792 27.9128C17.7068 27.81 17.5025 27.5015 17.5025 27.193V20.6459C13.0418 20.5774 5.55041 20.9201 1.02155 22.7369C0.817239 22.8397 0.544826 22.8397 0.340516 22.6683C0.136206 22.5312 0 22.2913 0 22.017C0 14.2703 6.29955 7.9289 14.0293 7.9289H17.5366V1.14192C17.5366 0.833422 17.7068 0.559201 18.0133 0.42209C18.2857 0.319257 18.6262 0.353535 18.8305 0.593478L31.7701 13.619C32.0766 13.9275 32.0766 14.4074 31.7701 14.7159L18.8305 27.7414C18.6943 27.8785 18.49 27.9814 18.2857 27.9814ZM17.2642 19.1034C17.6387 19.1034 17.9792 19.1034 18.3198 19.1034C18.7284 19.1034 19.0689 19.4462 19.0689 19.8575V25.3077L30.1697 14.1332L19.0689 2.99292V8.68301C19.0689 9.09435 18.7284 9.43712 18.3198 9.43712H14.0293C7.49135 9.4714 2.14525 14.5102 1.56637 20.9202C6.23144 19.4119 12.9737 19.1034 17.2642 19.1034Z" fill="#171753"/>
</svg>
