<svg width="35" height="29" viewBox="0 0 35 29" fill="none" xmlns="http://www.w3.org/2000/svg">
<path fill-rule="evenodd" clip-rule="evenodd" d="M34.1334 0.909068C34.4249 1.10235 34.5683 1.45432 34.4951 1.79627C34.053 3.85909 32.9399 5.75489 31.55 7.25427C31.5615 7.32842 31.5695 7.39941 31.5756 7.46549C31.5973 7.7049 31.5973 7.95651 31.5973 8.16326V8.18053C31.5973 16.8636 27.4279 23.1771 21.4848 26.3403C15.5625 29.4925 7.96451 29.4715 1.16677 25.695C0.822373 25.5037 0.654412 25.1009 0.760842 24.7216C0.867272 24.3422 1.22024 24.0856 1.61391 24.1013C4.57007 24.2196 7.42711 23.5308 10.017 22.1139C7.38932 20.6982 5.58681 18.9514 4.39313 17.0667C2.99816 14.8641 2.46699 12.5246 2.37072 10.4067C2.27462 8.29245 2.61066 6.38159 2.9666 5.00529C3.14508 4.31516 3.32997 3.75409 3.47154 3.36248C3.54238 3.16655 3.60253 3.01263 3.64582 2.90578C3.66747 2.85233 3.68491 2.81062 3.6974 2.78127L3.71231 2.74658L3.71679 2.73632L3.71826 2.73299L3.7188 2.73177C3.71901 2.73129 3.7192 2.73086 4.49658 3.07636L3.7192 2.73086C3.84277 2.45282 4.10543 2.26195 4.40804 2.23029C4.71065 2.19862 5.00714 2.33099 5.18559 2.57742C7.92756 6.36395 12.1367 8.65969 16.7709 8.78853V8.21202C16.6134 6.00933 17.6405 4.0294 19.24 2.58988C19.2469 2.58363 19.254 2.5775 19.2611 2.57149C22.249 0.0553797 26.5792 0.253726 29.3835 2.84792C30.699 2.43174 31.928 1.79432 33.1754 0.921112C33.4619 0.720561 33.842 0.715783 34.1334 0.909068ZM4.78727 4.80728C4.73021 4.99883 4.67169 5.20742 4.61379 5.43129C4.28614 6.69822 3.98416 8.43319 4.07035 10.3294C4.15637 12.2219 4.6278 14.2574 5.83049 16.1564C7.02976 18.0499 8.98852 19.8594 12.1337 21.2573C12.4172 21.3833 12.6096 21.6535 12.6359 21.9626C12.6622 22.2716 12.5182 22.5705 12.2601 22.7425C10.034 24.2266 7.58142 25.1983 5.00739 25.6024C10.4702 27.6465 16.1487 27.2531 20.6854 24.8384C26.0444 21.9861 29.8959 16.2683 29.8959 8.18053C29.8959 7.95294 29.8952 7.77445 29.8812 7.61953C29.8744 7.5454 29.8656 7.48981 29.8561 7.44896C29.8471 7.40978 29.8398 7.39419 29.8398 7.39418L29.8399 7.3943C29.6761 7.0668 29.7403 6.67125 29.9992 6.41233C30.8239 5.58762 31.5404 4.62126 32.0661 3.57762C31.2009 4.01846 30.3091 4.36912 29.3662 4.62625C29.0633 4.70886 28.7395 4.6179 28.524 4.38964C26.349 2.08671 22.7838 1.83891 20.3677 3.86393C19.0653 5.04067 18.3489 6.54402 18.4698 8.11528C18.4714 8.13699 18.4723 8.15876 18.4723 8.18053V9.63886C18.4723 10.0995 18.1056 10.4764 17.6452 10.4892C12.6362 10.6284 8.00897 8.50143 4.78727 4.80728Z" fill="#373765"/>
</svg>
