<svg width="23" height="17" viewBox="0 0 23 17" fill="none" xmlns="http://www.w3.org/2000/svg">
<g clip-path="url(#clip0)">
<path d="M1.68945 0.25L9.68098 8.9375C10.1358 9.4375 10.7855 9.6875 11.5002 9.6875C12.2149 9.6875 12.8646 9.375 13.3194 8.9375L21.116 0.375C21.181 0.3125 21.2459 0.25 21.3109 0.1875C21.051 0.0625 20.6612 0 20.2714 0H2.729C2.33917 0 2.01431 0.0625 1.68945 0.25C1.68945 0.1875 1.68945 0.25 1.68945 0.25Z" fill="#F5F5F5"/>
<path d="M22.5452 1.25C22.4802 1.3125 22.4802 1.4375 22.4153 1.5L14.5537 10.0625C13.774 10.9375 12.6695 11.375 11.5 11.375C10.3305 11.375 9.22599 10.875 8.44633 10.0625L0.454802 1.3125C0.454802 1.3125 0.454802 1.25 0.389831 1.25C0.129944 1.6875 0 2.125 0 2.625V14.4375C0 15.875 1.23446 17.0625 2.72881 17.0625H20.2712C21.7655 17.0625 23 15.875 23 14.4375V2.625C23 2.125 22.8051 1.625 22.5452 1.25Z" fill="#F5F5F5"/>
</g>
<defs>
<clipPath id="clip0">
<rect width="23" height="17" fill="white"/>
</clipPath>
</defs>
</svg>
