<svg width="16" height="16" viewBox="0 0 16 16" fill="none" xmlns="http://www.w3.org/2000/svg">
<path d="M10.56 14.8334H5.43998C4.92772 14.826 4.43715 14.6255 4.06634 14.272C3.69554 13.9185 3.47184 13.4381 3.43998 12.9267L2.83331 3.70008C2.8302 3.63319 2.84038 3.56634 2.86327 3.5034C2.88615 3.44046 2.92129 3.38269 2.96664 3.33342C3.01337 3.28235 3.06994 3.24126 3.13295 3.21262C3.19596 3.18398 3.26411 3.16837 3.33331 3.16675H12.6666C12.7352 3.1666 12.8031 3.18055 12.866 3.20773C12.929 3.23492 12.9856 3.27476 13.0325 3.32478C13.0794 3.3748 13.1155 3.43393 13.1386 3.49849C13.1617 3.56305 13.1712 3.63167 13.1666 3.70008L12.5866 12.9267C12.5544 13.4426 12.327 13.9269 11.9505 14.281C11.5741 14.6352 11.0769 14.8327 10.56 14.8334ZM3.89331 4.16675L4.40664 12.8667C4.4236 13.1291 4.53992 13.3751 4.7319 13.5547C4.92388 13.7343 5.17709 13.834 5.43998 13.8334H10.56C10.8224 13.8324 11.0747 13.7322 11.2664 13.5529C11.458 13.3736 11.5748 13.1285 11.5933 12.8667L12.1333 4.20008L3.89331 4.16675Z" fill="#FF4141"/>
<path d="M14 4.16675H2C1.86739 4.16675 1.74021 4.11407 1.64645 4.0203C1.55268 3.92653 1.5 3.79936 1.5 3.66675C1.5 3.53414 1.55268 3.40696 1.64645 3.31319C1.74021 3.21943 1.86739 3.16675 2 3.16675H14C14.1326 3.16675 14.2598 3.21943 14.3536 3.31319C14.4473 3.40696 14.5 3.53414 14.5 3.66675C14.5 3.79936 14.4473 3.92653 14.3536 4.0203C14.2598 4.11407 14.1326 4.16675 14 4.16675Z" fill="#FF4141"/>
<path d="M10 4.16675H6C5.86793 4.16502 5.74175 4.11179 5.64836 4.01839C5.55496 3.925 5.50173 3.79882 5.5 3.66675V2.46675C5.50845 2.12463 5.64813 1.79886 5.89012 1.55687C6.13211 1.31488 6.45788 1.1752 6.8 1.16675H9.2C9.54781 1.17545 9.87845 1.31975 10.1213 1.56886C10.3642 1.81798 10.5001 2.15216 10.5 2.50008V3.66675C10.4983 3.79882 10.445 3.925 10.3516 4.01839C10.2582 4.11179 10.1321 4.16502 10 4.16675ZM6.5 3.16675H9.5V2.50008C9.5 2.42052 9.46839 2.34421 9.41213 2.28795C9.35587 2.23169 9.27957 2.20008 9.2 2.20008H6.8C6.72043 2.20008 6.64413 2.23169 6.58787 2.28795C6.53161 2.34421 6.5 2.42052 6.5 2.50008V3.16675Z" fill="#FF4141"/>
<path d="M10 12.1666C9.86793 12.1648 9.74175 12.1116 9.64836 12.0182C9.55496 11.9248 9.50173 11.7986 9.5 11.6666V6.33325C9.5 6.20064 9.55268 6.07347 9.64645 5.9797C9.74022 5.88593 9.86739 5.83325 10 5.83325C10.1326 5.83325 10.2598 5.88593 10.3536 5.9797C10.4473 6.07347 10.5 6.20064 10.5 6.33325V11.6666C10.4983 11.7986 10.445 11.9248 10.3516 12.0182C10.2582 12.1116 10.1321 12.1648 10 12.1666Z" fill="#FF4141"/>
<path d="M6 12.1666C5.86793 12.1648 5.74175 12.1116 5.64836 12.0182C5.55496 11.9248 5.50173 11.7986 5.5 11.6666V6.33325C5.5 6.20064 5.55268 6.07347 5.64645 5.9797C5.74022 5.88593 5.86739 5.83325 6 5.83325C6.13261 5.83325 6.25978 5.88593 6.35355 5.9797C6.44732 6.07347 6.5 6.20064 6.5 6.33325V11.6666C6.49827 11.7986 6.44504 11.9248 6.35164 12.0182C6.25825 12.1116 6.13207 12.1648 6 12.1666Z" fill="#FF4141"/>
<path d="M8 12.1666C7.86793 12.1648 7.74175 12.1116 7.64836 12.0182C7.55496 11.9248 7.50173 11.7986 7.5 11.6666V6.33325C7.5 6.20064 7.55268 6.07347 7.64645 5.9797C7.74022 5.88593 7.86739 5.83325 8 5.83325C8.13261 5.83325 8.25978 5.88593 8.35355 5.9797C8.44732 6.07347 8.5 6.20064 8.5 6.33325V11.6666C8.49827 11.7986 8.44504 11.9248 8.35164 12.0182C8.25825 12.1116 8.13207 12.1648 8 12.1666Z" fill="#FF4141"/>
</svg>
