<svg width="22" height="20" viewBox="0 0 22 20" fill="none" xmlns="http://www.w3.org/2000/svg">
<path d="M11.1589 9.71868C12.5062 11.8061 15.3524 12.3717 17.4406 11.0238C19.5289 9.67592 20.2529 6.80591 18.9056 4.71847C17.5582 2.63103 14.712 2.06546 12.5564 3.45683C10.4008 4.84819 9.85359 7.69647 11.1589 9.71868ZM17.8951 5.37067C18.8635 6.87102 18.4257 9.00179 16.809 10.0453C15.1923 11.0888 13.1798 10.6321 12.1693 9.06648C11.1588 7.5009 11.6808 5.50059 13.2301 4.50055C14.7794 3.5005 16.9267 3.87032 17.8951 5.37067Z" fill="#171753"/>
<path d="M2.40196 15.3707L3.66512 17.3277C3.83354 17.5886 4.20405 17.7191 4.54086 17.5017C4.87767 17.2843 4.88608 17.0016 4.67556 16.6755L3.74924 15.2404L11.9675 9.93579C12.3043 9.71839 12.3801 9.39225 12.1695 9.06609C11.959 8.73992 11.6306 8.67467 11.2938 8.89207L2.53666 14.5445C2.30931 14.7836 2.23354 15.1098 2.40196 15.3707Z" fill="#171753"/>
<path d="M5.76847 13.1968L7.03162 15.1538C7.20005 15.4147 7.57055 15.5452 7.90737 15.3278C8.24418 15.1104 8.25259 14.8277 8.04206 14.5016L6.77891 12.5446C6.61049 12.2837 6.23998 12.1532 5.90316 12.3706C5.56635 12.588 5.60005 12.9359 5.76847 13.1968Z" fill="#171753"/>
</svg>
