<svg width="16" height="16" viewBox="0 0 16 16" fill="none" xmlns="http://www.w3.org/2000/svg">
<g clip-path="url(#clip0)">
<path d="M12.8192 11.3172C12.2088 11.3172 11.6585 11.5542 11.2409 11.9357L5.51798 8.59838C5.56215 8.41766 5.59027 8.22892 5.59027 8.03614C5.59027 7.84337 5.56215 7.65463 5.51798 7.47391L11.1806 4.16867C11.6103 4.57029 12.1847 4.81928 12.8192 4.81928C14.1485 4.81928 15.2288 3.73897 15.2288 2.40964C15.2288 1.08031 14.1485 0 12.8192 0C11.4899 0 10.4096 1.08031 10.4096 2.40964C10.4096 2.60241 10.4377 2.79115 10.4818 2.97187L4.81919 6.27707C4.38948 5.87545 3.81516 5.62647 3.18063 5.62647C1.8513 5.62647 0.770996 6.70678 0.770996 8.03611C0.770996 9.36544 1.8513 10.4457 3.18063 10.4457C3.81516 10.4457 4.38948 10.1968 4.81919 9.79514L10.5421 13.1325C10.5019 13.3012 10.4778 13.4779 10.4778 13.6586C10.4778 14.9518 11.526 16 12.8192 16C14.1124 16 15.1606 14.9518 15.1606 13.6586C15.1606 12.3654 14.1124 11.3172 12.8192 11.3172Z" fill="#171753"/>
</g>
<defs>
<clipPath id="clip0">
<rect width="16" height="16" fill="white"/>
</clipPath>
</defs>
</svg>
