<svg width="18" height="18" viewBox="0 0 18 18" fill="none" xmlns="http://www.w3.org/2000/svg">
<path d="M15.7499 1.5H11.2499C11.051 1.5 10.8603 1.57902 10.7196 1.71967C10.579 1.86032 10.4999 2.05109 10.4999 2.25C10.4999 2.44891 10.579 2.63968 10.7196 2.78033C10.8603 2.92098 11.051 3 11.2499 3H13.9394L7.71969 9.21975C7.64806 9.28894 7.59092 9.37169 7.55161 9.4632C7.51231 9.5547 7.49162 9.65312 7.49075 9.7527C7.48989 9.85228 7.50886 9.95104 7.54657 10.0432C7.58428 10.1354 7.63997 10.2191 7.71039 10.2895C7.78081 10.36 7.86455 10.4157 7.95672 10.4534C8.0489 10.4911 8.14766 10.5101 8.24724 10.5092C8.34682 10.5083 8.44524 10.4876 8.53674 10.4483C8.62825 10.409 8.711 10.3519 8.78019 10.2803L14.9999 4.0605V6.75C14.9999 6.94891 15.079 7.13968 15.2196 7.28033C15.3603 7.42098 15.551 7.5 15.7499 7.5C15.9489 7.5 16.1396 7.42098 16.2803 7.28033C16.4209 7.13968 16.4999 6.94891 16.4999 6.75V2.25C16.4999 2.05109 16.4209 1.86032 16.2803 1.71967C16.1396 1.57902 15.9489 1.5 15.7499 1.5Z" fill="#171753"/>
<path d="M14.25 7.941C14.0511 7.941 13.8603 8.02002 13.7197 8.16067C13.579 8.30132 13.5 8.49209 13.5 8.691V14.0633C13.4998 14.3116 13.401 14.5498 13.2254 14.7254C13.0498 14.901 12.8116 14.9998 12.5633 15H3.93675C3.68837 14.9998 3.45022 14.901 3.27459 14.7254C3.09896 14.5498 3.0002 14.3116 3 14.0633V5.43675C3.0002 5.18837 3.09896 4.95022 3.27459 4.77459C3.45022 4.59896 3.68837 4.5002 3.93675 4.5H8.60325C8.80216 4.5 8.99293 4.42098 9.13358 4.28033C9.27423 4.13968 9.35325 3.94891 9.35325 3.75C9.35325 3.55109 9.27423 3.36032 9.13358 3.21967C8.99293 3.07902 8.80216 3 8.60325 3H3.93675C3.29073 3.00079 2.67139 3.25778 2.21458 3.71458C1.75778 4.17139 1.50079 4.79073 1.5 5.43675V14.0618C1.5004 14.708 1.7572 15.3278 2.21406 15.7849C2.67091 16.242 3.29047 16.4992 3.93675 16.5H12.5618C13.208 16.4996 13.8278 16.2428 14.2849 15.7859C14.742 15.3291 14.9992 14.7095 15 14.0633V8.691C15 8.49209 14.921 8.30132 14.7803 8.16067C14.6397 8.02002 14.4489 7.941 14.25 7.941Z" fill="#171753"/>
</svg>
