<svg width="23" height="23" viewBox="0 0 23 23" fill="none" xmlns="http://www.w3.org/2000/svg">
<g clip-path="url(#clip0)">
<path d="M4.91057 11.7305C3.66117 12.4495 2.03236 12.011 1.3136 10.762C0.594836 9.5131 1.03398 7.88444 2.28338 7.16542C3.53277 6.44639 5.16159 6.88494 5.88035 8.13388C6.59911 9.38282 6.15996 11.0115 4.91057 11.7305ZM2.77907 8.02675C2.00359 8.47304 1.72912 9.49095 2.17525 10.2662C2.62137 11.0414 3.63939 11.3155 4.41487 10.8692C5.19036 10.4229 5.46482 9.40496 5.0187 8.62976C4.57257 7.85456 3.55456 7.58046 2.77907 8.02675Z" fill="#171753"/>
<path d="M15.3481 18.1075C14.0987 18.8265 12.4699 18.3879 11.7511 17.139C11.0323 15.89 11.4715 14.2614 12.7209 13.5424C13.9703 12.8233 15.5991 13.2619 16.3178 14.5108C17.0366 15.7598 16.5975 17.3884 15.3481 18.1075ZM13.2166 14.4037C12.4411 14.85 12.1666 15.8679 12.6127 16.6431C13.0589 17.4183 14.0769 17.6924 14.8524 17.2461C15.6279 16.7998 15.9023 15.7819 15.4562 15.0067C15.0101 14.2315 13.9921 13.9574 13.2166 14.4037Z" fill="#171753"/>
<path d="M15.0785 5.87991C13.8291 6.59894 12.2003 6.16039 11.4816 4.91145C10.7628 3.66251 11.202 2.03385 12.4513 1.31483C13.7007 0.595806 15.3296 1.03436 16.0483 2.28329C16.7671 3.53223 16.3279 5.16089 15.0785 5.87991ZM12.947 2.17617C12.1716 2.62246 11.8971 3.64037 12.3432 4.41557C12.7893 5.19077 13.8074 5.46487 14.5828 5.01858C15.3583 4.57229 15.6328 3.55438 15.1867 2.77917C14.7405 2.00397 13.7225 1.72988 12.947 2.17617Z" fill="#171753"/>
<path d="M12.4368 15.1399C12.2644 15.2391 12.0856 15.2273 11.9251 15.1477L5.18093 11.0027C4.92776 10.8618 4.86522 10.5538 5.00627 10.3006C5.14733 10.0474 5.4554 9.9848 5.66549 10.1506L12.4775 14.3138C12.7307 14.4548 12.7932 14.7628 12.6522 15.016C12.6091 15.0408 12.5229 15.0903 12.4368 15.1399Z" fill="#171753"/>
<path d="M12.1584 5.09353L5.69605 8.81262C5.43756 8.96138 5.16609 8.88829 5.01738 8.62989C4.86867 8.37149 4.94186 8.10004 5.20036 7.95128L11.6627 4.2322C11.9212 4.08343 12.1927 4.15652 12.3414 4.41492C12.4901 4.67333 12.3739 4.96956 12.1584 5.09353Z" fill="#171753"/>
</g>
<defs>
<clipPath id="clip0">
<rect width="17" height="16" fill="white" transform="translate(0 8.47949) rotate(-29.9203)"/>
</clipPath>
</defs>
</svg>
