<svg width="25" height="25" viewBox="0 0 25 25" fill="none" xmlns="http://www.w3.org/2000/svg">
<path fill-rule="evenodd" clip-rule="evenodd" d="M12.0395 4.49689C7.80993 4.49689 4.3839 7.90922 4.3839 12.1219C4.3839 16.3346 7.80993 19.7469 12.0395 19.7469C16.2691 19.7469 19.6951 16.3346 19.6951 12.1219C19.6951 7.90922 16.2691 4.49689 12.0395 4.49689ZM3.37988 12.1219C3.37988 7.35693 7.25543 3.49689 12.0395 3.49689C16.8236 3.49689 20.6992 7.35693 20.6992 12.1219C20.6992 16.8868 16.8236 20.7469 12.0395 20.7469C7.25543 20.7469 3.37988 16.8868 3.37988 12.1219Z" fill="white"/>
<path fill-rule="evenodd" clip-rule="evenodd" d="M7.43848 12.2312C7.43848 11.8446 7.75314 11.5312 8.14129 11.5312H15.9224C16.3106 11.5312 16.6252 11.8446 16.6252 12.2312C16.6252 12.6178 16.3106 12.9312 15.9224 12.9312H8.14129C7.75314 12.9312 7.43848 12.6178 7.43848 12.2312Z" fill="white"/>
<path fill-rule="evenodd" clip-rule="evenodd" d="M12.048 7.63997C12.4362 7.63997 12.7508 7.95337 12.7508 8.33997V16.09C12.7508 16.4766 12.4362 16.79 12.048 16.79C11.6599 16.79 11.3452 16.4766 11.3452 16.09V8.33997C11.3452 7.95337 11.6599 7.63997 12.048 7.63997Z" fill="white"/>
</svg>
