<svg viewBox="0 0 25 25" fill="none" xmlns="http://www.w3.org/2000/svg">
<path d="M12.5002 25C5.6118 25 0 19.3883 0 12.5C0 5.6117 5.6118 0 12.5002 0C19.3886 0 25.0004 5.6117 25.0004 12.5C25.0004 19.3883 19.3886 25 12.5002 25ZM12.5002 1.19681C6.27671 1.19681 1.19683 6.2766 1.19683 12.5C1.19683 18.7234 6.27671 23.8032 12.5002 23.8032C18.7237 23.8032 23.8036 18.7234 23.8036 12.5C23.8036 6.2766 18.7237 1.19681 12.5002 1.19681Z" fill="white"/>
<path d="M12.5001 18.8565C12.1809 18.8565 11.915 18.5905 11.915 18.2713V6.75539C11.915 6.43624 12.1809 6.17029 12.5001 6.17029C12.8192 6.17029 13.0852 6.43624 13.0852 6.75539V18.2713C13.0852 18.5905 12.8192 18.8565 12.5001 18.8565Z" fill="white"/>
<path d="M18.245 13.085H6.7554C6.43625 13.085 6.17029 12.819 6.17029 12.4999C6.17029 12.1808 6.43625 11.9148 6.7554 11.9148H18.2716C18.5907 11.9148 18.8567 12.1808 18.8567 12.4999C18.8567 12.819 18.5907 13.085 18.245 13.085Z" fill="white"/>
</svg>
