<svg width="36" height="49" viewBox="0 0 36 49" fill="none" xmlns="http://www.w3.org/2000/svg">
<g clip-path="url(#clip0_1621_12759)">
<path d="M7.02 10.6883C7.02 4.8052 11.6998 0.100098 17.55 0.100098C23.4002 0.100098 28.08 4.8052 28.08 10.6883C28.08 16.5705 23.4002 21.2766 17.55 21.2766C11.6998 21.2766 7.02 16.3743 7.02 10.6883Z" fill="white"/>
<path d="M8.35467 57.9336C9.11075 58.6722 9.87907 59.3907 10.6552 60.1013H13.9957C11.4324 57.4695 9.02501 54.6573 7.27457 51.4539C5.71008 48.5991 4.82039 45.2624 5.34485 42.1117C5.55865 40.7499 6.03189 39.3768 6.86925 38.1304C9.11743 34.7085 13.1628 32.4276 17.0868 31.5398C20.8416 30.6959 25.3769 30.8416 28.8266 32.6607C30.4311 33.4767 32.0903 34.7231 32.4644 36.5971C32.9276 38.6561 31.8954 40.9124 30.8554 42.6004C29.5982 44.6235 27.9636 46.4124 26.329 48.2012C24.7712 49.9139 17.7482 56.6961 15.7662 58.3124C19.4263 55.8152 23.112 53.3706 26.4971 50.4934C26.9403 50.1168 27.3679 49.7222 27.7776 49.3086L30.2084 46.8618C31.1794 45.8845 32.0624 44.8174 32.8051 43.654C34.3963 41.1612 35.4297 38.2705 35.0088 35.2779C34.5411 32.3457 32.696 30.0088 30.3398 28.4172C29.6907 27.9341 28.9491 27.5732 28.2075 27.2111C18.2293 22.6022 2.28381 27.0396 0.131394 39.0596C-0.486604 44.4161 1.13578 49.7985 4.63332 53.8839C6.01519 55.5036 7.37256 56.9696 8.35467 57.9336Z" fill="white"/>
</g>
<defs>
<clipPath id="clip0_1621_12759">
<rect width="35.1" height="60" fill="white" transform="translate(0 0.100098)"/>
</clipPath>
</defs>
</svg>
