<svg viewBox="0 0 35 35" fill="none" xmlns="http://www.w3.org/2000/svg">
<path d="M17.5 35C7.85638 35 0 27.1436 0 17.5C0 7.85638 7.85638 0 17.5 0C27.1436 0 35 7.85638 35 17.5C35 27.1436 27.1436 35 17.5 35ZM17.5 1.67553C8.78723 1.67553 1.67553 8.78724 1.67553 17.5C1.67553 26.2128 8.78723 33.3245 17.5 33.3245C26.2128 33.3245 33.3245 26.2128 33.3245 17.5C33.3245 8.78724 26.2128 1.67553 17.5 1.67553Z" fill="#373765"/>
<g clip-path="url(#clip0_1484_7143)">
<path d="M9.70249 16.7672L24.7333 16.7672C25.0498 16.7672 25.3135 17.0369 25.3135 17.3606C25.3135 17.6843 25.0498 17.9541 24.7333 17.9541L9.70249 17.9541C9.38605 17.9541 9.12235 17.6843 9.12235 17.3606C9.12235 17.0369 9.38605 16.7672 9.70249 16.7672Z" fill="#373765"/>
<path d="M16.1104 10.2122C16.2686 10.2122 16.4004 10.2661 16.5323 10.401C16.7696 10.6438 16.7696 11.0214 16.5323 11.2642L10.5463 17.3876L16.5323 23.484C16.7696 23.7268 16.7696 24.1044 16.5323 24.3472C16.295 24.59 15.9258 24.59 15.6884 24.3472L9.28056 17.7922C9.04323 17.5494 9.04323 17.1718 9.28056 16.929L15.6884 10.374C15.7939 10.2661 15.9521 10.2122 16.1104 10.2122Z" fill="#373765"/>
</g>
<defs>
<clipPath id="clip0_1484_7143">
<rect width="16.2175" height="14.2969" fill="white" transform="translate(25.3398 24.509) rotate(-180)"/>
</clipPath>
</defs>
</svg>
