<svg width="36" height="36" viewBox="0 0 36 36" fill="none" xmlns="http://www.w3.org/2000/svg">
<path fill-rule="evenodd" clip-rule="evenodd" d="M18.11 6.30541C11.652 6.26933 6.35557 11.4276 6.31954 17.8762L6.31952 17.879C6.24741 24.3324 11.4391 29.6309 17.89 29.667L17.8928 29.667C24.3461 29.7391 29.6445 24.5473 29.6805 18.0962L29.6805 18.0934C29.7526 11.6399 24.561 6.34145 18.11 6.30541ZM5.30707 17.8691C5.34703 10.8524 11.1086 5.25378 18.1157 5.29293C25.1299 5.33212 30.7706 11.0915 30.693 18.1034C30.6529 25.1171 24.894 30.7571 17.8828 30.6794C10.8693 30.6394 5.22949 24.8804 5.30707 17.8691Z" fill="#ECFFFE"/>
<path fill-rule="evenodd" clip-rule="evenodd" d="M18 5.67383C18.2796 5.67383 18.5063 5.89637 18.5063 6.17089V30.1036C18.5063 30.3781 18.2796 30.6006 18 30.6006C17.7204 30.6006 17.4938 30.3781 17.4938 30.1036V6.17089C17.4938 5.89637 17.7204 5.67383 18 5.67383Z" fill="#ECFFFE"/>
<path fill-rule="evenodd" clip-rule="evenodd" d="M5.30627 17.9999C5.30627 17.7203 5.52331 17.4937 5.79104 17.4937H30.209C30.4767 17.4937 30.6938 17.7203 30.6938 17.9999C30.6938 18.2795 30.4767 18.5062 30.209 18.5062H5.79104C5.52331 18.5062 5.30627 18.2795 5.30627 17.9999Z" fill="#ECFFFE"/>
<path fill-rule="evenodd" clip-rule="evenodd" d="M12.8623 9.59465C11.4941 11.7092 10.6313 14.6609 10.6313 17.9467C10.6313 21.2326 11.4941 24.1843 12.8623 26.2988C14.2354 28.421 16.0658 29.6343 18 29.6343C19.9342 29.6343 21.7646 28.421 23.1378 26.2988C24.506 24.1843 25.3688 21.2326 25.3688 17.9467C25.3688 14.6609 24.506 11.7092 23.1378 9.59466C21.7646 7.47251 19.9342 6.25923 18 6.25923C16.0658 6.25923 14.2354 7.47251 12.8623 9.59465ZM12.0008 9.08677C13.4779 6.80396 15.5849 5.29272 18 5.29272C20.4151 5.29272 22.5221 6.80396 23.9992 9.08676C25.4812 11.3771 26.3813 14.5108 26.3813 17.9467C26.3813 21.3826 25.4812 24.5163 23.9992 26.8067C22.5221 29.0895 20.4151 30.6008 18 30.6008C15.5849 30.6008 13.4779 29.0895 12.0008 26.8067C10.5189 24.5163 9.61877 21.3826 9.61877 17.9467C9.61877 14.5108 10.5189 11.3771 12.0008 9.08677Z" fill="#ECFFFE"/>
</svg>
