<svg viewBox="0 0 24 24" fill="none" xmlns="http://www.w3.org/2000/svg">
<path fill-rule="evenodd" clip-rule="evenodd" d="M12.0727 4.36585C7.85027 4.34226 4.38977 7.71441 4.36623 11.9272L4.36621 11.93C4.31908 16.1477 7.71226 19.6101 11.9276 19.6336L11.9304 19.6337C16.1481 19.6808 19.6105 16.2876 19.634 12.0723L19.634 12.0695C19.6812 7.85183 16.288 4.3894 12.0727 4.36585ZM3.36626 11.9202C3.39369 7.14626 7.31364 3.33924 12.0782 3.36586C16.8499 3.39252 20.6865 7.31008 20.634 12.0793C20.6066 16.8502 16.6893 20.6861 11.9206 20.6336C7.14966 20.6062 3.31373 16.6889 3.36626 11.9202Z" fill="#49CE8B"/>
<path fill-rule="evenodd" clip-rule="evenodd" d="M15.7439 9.37916C16.0179 9.65189 16.0189 10.0951 15.7462 10.3691L11.6708 14.4636L11.2299 14.0248L11.6708 14.4636C11.1947 14.942 10.4484 14.9458 9.96795 14.4752L8.27373 12.902C7.99044 12.6389 7.97404 12.196 8.2371 11.9127C8.50016 11.6294 8.94307 11.613 9.22637 11.8761L10.8086 13.3453L14.7539 9.38148C15.0266 9.10747 15.4699 9.10643 15.7439 9.37916Z" fill="#49CE8B"/>
</svg>
