<svg width="16" height="16" viewBox="0 0 16 16" fill="none" xmlns="http://www.w3.org/2000/svg">
<path fill-rule="evenodd" clip-rule="evenodd" d="M10.59 6.1581C10.8249 6.39186 10.8258 6.77176 10.592 7.00662L7.87507 9.7363L7.46678 9.32992L7.87507 9.7363C7.50637 10.1067 6.92592 10.1101 6.55335 9.74648L5.42513 8.69884C5.1823 8.47336 5.16824 8.09372 5.39373 7.85089C5.61921 7.60807 5.99885 7.59401 6.24167 7.81949L7.20213 8.71135L9.74148 6.16008C9.97524 5.92522 10.3551 5.92433 10.59 6.1581Z" fill="#171753"/>
<path fill-rule="evenodd" clip-rule="evenodd" d="M7.99982 3.1834C5.33865 3.1834 3.18315 5.3389 3.18315 8.00007C3.18315 10.6612 5.33865 12.8167 7.99982 12.8167C10.661 12.8167 12.8165 10.6612 12.8165 8.00007C12.8165 5.3389 10.661 3.1834 7.99982 3.1834ZM1.98315 8.00007C1.98315 4.67615 4.67591 1.9834 7.99982 1.9834C11.3237 1.9834 14.0165 4.67615 14.0165 8.00007C14.0165 11.324 11.3237 14.0167 7.99982 14.0167C4.67591 14.0167 1.98315 11.324 1.98315 8.00007Z" fill="#353570"/>
</svg>
