<svg viewBox="0 0 24 25" fill="none" xmlns="http://www.w3.org/2000/svg">
<path fill-rule="evenodd" clip-rule="evenodd" d="M12 4.4248C7.78733 4.4248 4.375 7.83714 4.375 12.0498C4.375 16.2625 7.78733 19.6748 12 19.6748C16.2127 19.6748 19.625 16.2625 19.625 12.0498C19.625 7.83714 16.2127 4.4248 12 4.4248ZM3.375 12.0498C3.375 7.28485 7.23504 3.4248 12 3.4248C16.765 3.4248 20.625 7.28485 20.625 12.0498C20.625 16.8148 16.765 20.6748 12 20.6748C7.23504 20.6748 3.375 16.8148 3.375 12.0498Z" fill="#FF4141"/>
<path fill-rule="evenodd" clip-rule="evenodd" d="M8.75483 8.80463C9.0282 8.53127 9.47141 8.53127 9.74478 8.80463L15.2448 14.3046C15.5181 14.578 15.5181 15.0212 15.2448 15.2946C14.9714 15.568 14.5282 15.568 14.2548 15.2946L8.75483 9.79458C8.48146 9.52122 8.48146 9.078 8.75483 8.80463Z" fill="#FF4141"/>
<path fill-rule="evenodd" clip-rule="evenodd" d="M15.2448 8.80463C15.5181 9.078 15.5181 9.52122 15.2448 9.79458L9.74478 15.2946C9.47141 15.568 9.0282 15.568 8.75483 15.2946C8.48146 15.0212 8.48146 14.578 8.75483 14.3046L14.2548 8.80463C14.5282 8.53127 14.9714 8.53127 15.2448 8.80463Z" fill="#FF4141"/>
</svg>
