<svg width="155" height="230" viewBox="0 0 155 230" fill="none" xmlns="http://www.w3.org/2000/svg">
<g opacity="0.6" clip-path="url(#clip0_2714_14864)">
<path opacity="0.3" d="M41 115.23C41 51.5989 92.29 -2.34284e-06 155.54 -5.232e-06C155.77 -5.2425e-06 156 -5.25301e-06 156 -5.25301e-06L156 57.1521C155.77 57.1521 155.54 57.1521 155.54 57.1521C123.8 57.1522 98.04 83.0673 98.04 114.998C98.04 146.93 123.8 172.845 155.54 172.845C155.77 172.845 156 172.845 156 172.845L156 229.997C155.77 229.997 155.54 229.997 155.54 229.997C92.29 230.46 41 178.861 41 115.23Z" fill="#5ED9D1"/>
<path d="M14.6224 77.3545C14.6224 78.4603 13.731 79.3567 12.6314 79.3567C11.5318 79.3567 10.6404 78.4603 10.6404 77.3545C10.6404 76.2487 11.5318 75.3523 12.6314 75.3523C13.731 75.3523 14.6224 76.2487 14.6224 77.3545Z" fill="#5ED9D1"/>
<path d="M12.6314 97.6851C13.7034 97.6851 14.6224 96.761 14.6224 95.6829C14.6224 94.6048 13.7034 93.6807 12.6314 93.6807C11.5593 93.6807 10.6404 94.6048 10.6404 95.6829C10.6404 96.761 11.5593 97.6851 12.6314 97.6851Z" fill="#5ED9D1"/>
<path d="M12.6314 116.013C13.7034 116.013 14.6224 115.089 14.6224 114.011C14.6224 112.933 13.7034 112.009 12.6314 112.009C11.5593 112.009 10.6404 112.933 10.6404 114.011C10.6404 115.089 11.5593 116.013 12.6314 116.013Z" fill="#5ED9D1"/>
<path d="M14.6224 132.493C14.6224 133.599 13.731 134.495 12.6314 134.495C11.5318 134.495 10.6404 133.599 10.6404 132.493C10.6404 131.387 11.5318 130.491 12.6314 130.491C13.731 130.491 14.6224 131.387 14.6224 132.493Z" fill="#5ED9D1"/>
<path d="M12.6314 152.821C13.7034 152.821 14.6224 151.897 14.6224 150.819C14.6224 149.741 13.7034 148.817 12.6314 148.817C11.5593 148.817 10.6404 149.741 10.6404 150.819C10.6404 151.897 11.5593 152.821 12.6314 152.821Z" fill="#5ED9D1"/>
<path d="M33.7664 77.3545C33.7664 78.4603 32.875 79.3567 31.7754 79.3567C30.6758 79.3567 29.7844 78.4603 29.7844 77.3545C29.7844 76.2487 30.6758 75.3523 31.7754 75.3523C32.875 75.3523 33.7664 76.2487 33.7664 77.3545Z" fill="#5ED9D1"/>
<path d="M31.7754 97.6851C32.8475 97.6851 33.7664 96.761 33.7664 95.6829C33.7664 94.6048 32.8475 93.6807 31.7754 93.6807C30.7033 93.6807 29.7844 94.6048 29.7844 95.6829C29.9376 96.761 30.7033 97.6851 31.7754 97.6851Z" fill="#5ED9D1"/>
<path d="M31.7754 116.013C32.8475 116.013 33.7664 115.089 33.7664 114.011C33.7664 112.933 32.8475 112.009 31.7754 112.009C30.7033 112.009 29.7844 112.933 29.7844 114.011C29.9376 115.089 30.7033 116.013 31.7754 116.013Z" fill="#5ED9D1"/>
<path d="M33.7664 132.493C33.7664 133.599 32.875 134.495 31.7754 134.495C30.6758 134.495 29.7844 133.599 29.7844 132.493C29.7844 131.387 30.6758 130.491 31.7754 130.491C32.875 130.491 33.7664 131.387 33.7664 132.493Z" fill="#5ED9D1"/>
<path d="M31.7754 152.821C32.8475 152.821 33.7664 151.897 33.7664 150.819C33.7664 149.741 32.8475 148.817 31.7754 148.817C30.7033 148.817 29.7844 149.741 29.7844 150.819C29.9376 151.897 30.7033 152.821 31.7754 152.821Z" fill="#5ED9D1"/>
<path d="M51.0728 79.2029C52.1449 79.2029 53.0638 78.2788 53.0638 77.2007C53.0638 76.1226 52.1449 75.1985 51.0728 75.1985C50.0007 75.1985 49.0818 76.1226 49.0818 77.2007C49.0818 78.4328 50.0007 79.2029 51.0728 79.2029Z" fill="#5ED9D1"/>
<path d="M51.0728 97.6849C52.1448 97.6849 53.0638 96.7608 53.0638 95.6826C53.0638 94.6045 52.1448 93.6804 51.0728 93.6804C50.0007 93.6804 49.0818 94.6045 49.0818 95.6826C49.0818 96.7608 50.0007 97.6849 51.0728 97.6849Z" fill="#5ED9D1"/>
<path d="M51.0728 116.013C52.1448 116.013 53.0638 115.089 53.0638 114.011C53.0638 112.933 52.1448 112.009 51.0728 112.009C50.0007 112.009 49.0818 112.933 49.0818 114.011C49.0818 115.089 50.0007 116.013 51.0728 116.013Z" fill="#5ED9D1"/>
<path d="M51.0728 134.342C52.1449 134.342 53.0638 133.418 53.0638 132.34C53.0638 131.261 52.1449 130.337 51.0728 130.337C50.0007 130.337 49.0818 131.261 49.0818 132.34C49.0818 133.418 50.0007 134.342 51.0728 134.342Z" fill="#5ED9D1"/>
<path d="M51.0728 152.824C52.1448 152.824 53.0638 151.9 53.0638 150.822C53.0638 149.743 52.1448 148.819 51.0728 148.819C50.0007 148.819 49.0818 149.743 49.0818 150.822C49.0818 151.9 50.0007 152.824 51.0728 152.824Z" fill="#5ED9D1"/>
<path d="M72.3611 77.3543C72.3611 78.4601 71.4697 79.3565 70.3701 79.3565C69.2705 79.3565 68.3792 78.4601 68.3792 77.3543C68.3792 76.2485 69.2705 75.3521 70.3701 75.3521C71.4697 75.3521 72.3611 76.2485 72.3611 77.3543Z" fill="#5ED9D1"/>
<path d="M70.3701 97.6848C71.4422 97.6848 72.3611 96.7607 72.3611 95.6826C72.3611 94.6045 71.4422 93.6804 70.3701 93.6804C69.2981 93.6804 68.3792 94.6045 68.3792 95.6826C68.3792 96.7607 69.2981 97.6848 70.3701 97.6848Z" fill="#5ED9D1"/>
<path d="M70.3701 116.013C71.4422 116.013 72.3611 115.089 72.3611 114.011C72.3611 112.933 71.4422 112.009 70.3701 112.009C69.2981 112.009 68.3792 112.933 68.3792 114.011C68.3792 115.089 69.2981 116.013 70.3701 116.013Z" fill="#5ED9D1"/>
<path d="M72.3611 132.493C72.3611 133.599 71.4697 134.495 70.3701 134.495C69.2705 134.495 68.3792 133.599 68.3792 132.493C68.3792 131.387 69.2705 130.491 70.3701 130.491C71.4697 130.491 72.3611 131.387 72.3611 132.493Z" fill="#5ED9D1"/>
<path d="M70.3701 152.821C71.4422 152.821 72.3611 151.897 72.3611 150.819C72.3611 149.741 71.4422 148.817 70.3701 148.817C69.2981 148.817 68.3792 149.741 68.3792 150.819C68.3792 151.897 69.2981 152.821 70.3701 152.821Z" fill="#5ED9D1"/>
</g>
<defs>
<clipPath id="clip0_2714_14864">
<rect width="230" height="156" fill="white" transform="matrix(4.37114e-08 1 1 -4.37114e-08 0 0)"/>
</clipPath>
</defs>
</svg>
