<svg width="156" height="230" viewBox="0 0 156 230" fill="none" xmlns="http://www.w3.org/2000/svg">
<g opacity="0.6" clip-path="url(#clip0_2714_14830)">
<path opacity="0.3" d="M115 115.23C115 51.5989 63.71 -2.34284e-06 0.459991 -5.232e-06C0.229996 -5.2425e-06 -1.52588e-05 -5.25301e-06 -1.52588e-05 -5.25301e-06L-1.7642e-05 57.1521C0.229978 57.1521 0.459989 57.1521 0.459989 57.1521C32.2 57.1521 57.96 83.0673 57.96 114.998C57.96 146.93 32.2 172.845 0.459984 172.845C0.229989 172.845 -2.24663e-05 172.845 -2.24663e-05 172.845L-2.48495e-05 229.997C0.229971 229.997 0.459982 229.997 0.459982 229.997C63.71 230.46 115 178.861 115 115.23Z" fill="#5ED9D1"/>
<path d="M141.378 77.3545C141.378 78.4603 142.269 79.3567 143.369 79.3567C144.468 79.3567 145.36 78.4603 145.36 77.3545C145.36 76.2487 144.468 75.3523 143.369 75.3523C142.269 75.3523 141.378 76.2487 141.378 77.3545Z" fill="#5ED9D1"/>
<path d="M143.369 97.6851C142.297 97.6851 141.378 96.761 141.378 95.6829C141.378 94.6048 142.297 93.6807 143.369 93.6807C144.441 93.6807 145.36 94.6048 145.36 95.6829C145.36 96.761 144.441 97.6851 143.369 97.6851Z" fill="#5ED9D1"/>
<path d="M143.369 116.013C142.297 116.013 141.378 115.089 141.378 114.011C141.378 112.933 142.297 112.009 143.369 112.009C144.441 112.009 145.36 112.933 145.36 114.011C145.36 115.089 144.441 116.013 143.369 116.013Z" fill="#5ED9D1"/>
<path d="M141.378 132.493C141.378 133.599 142.269 134.495 143.369 134.495C144.468 134.495 145.36 133.599 145.36 132.493C145.36 131.387 144.468 130.491 143.369 130.491C142.269 130.491 141.378 131.387 141.378 132.493Z" fill="#5ED9D1"/>
<path d="M143.369 152.821C142.297 152.821 141.378 151.897 141.378 150.819C141.378 149.741 142.297 148.817 143.369 148.817C144.441 148.817 145.36 149.741 145.36 150.819C145.36 151.897 144.441 152.821 143.369 152.821Z" fill="#5ED9D1"/>
<path d="M122.234 77.3545C122.234 78.4603 123.125 79.3567 124.225 79.3567C125.324 79.3567 126.216 78.4603 126.216 77.3545C126.216 76.2487 125.324 75.3523 124.225 75.3523C123.125 75.3523 122.234 76.2487 122.234 77.3545Z" fill="#5ED9D1"/>
<path d="M124.225 97.6851C123.153 97.6851 122.234 96.761 122.234 95.6829C122.234 94.6048 123.153 93.6807 124.225 93.6807C125.297 93.6807 126.216 94.6048 126.216 95.6829C126.062 96.761 125.297 97.6851 124.225 97.6851Z" fill="#5ED9D1"/>
<path d="M124.225 116.013C123.153 116.013 122.234 115.089 122.234 114.011C122.234 112.933 123.153 112.009 124.225 112.009C125.297 112.009 126.216 112.933 126.216 114.011C126.062 115.089 125.297 116.013 124.225 116.013Z" fill="#5ED9D1"/>
<path d="M122.234 132.493C122.234 133.599 123.125 134.495 124.225 134.495C125.324 134.495 126.216 133.599 126.216 132.493C126.216 131.387 125.324 130.491 124.225 130.491C123.125 130.491 122.234 131.387 122.234 132.493Z" fill="#5ED9D1"/>
<path d="M124.225 152.821C123.153 152.821 122.234 151.897 122.234 150.819C122.234 149.741 123.153 148.817 124.225 148.817C125.297 148.817 126.216 149.741 126.216 150.819C126.062 151.897 125.297 152.821 124.225 152.821Z" fill="#5ED9D1"/>
<path d="M104.927 79.2029C103.855 79.2029 102.936 78.2788 102.936 77.2007C102.936 76.1226 103.855 75.1985 104.927 75.1985C105.999 75.1985 106.918 76.1226 106.918 77.2007C106.918 78.4328 105.999 79.2029 104.927 79.2029Z" fill="#5ED9D1"/>
<path d="M104.927 97.6849C103.855 97.6849 102.936 96.7608 102.936 95.6826C102.936 94.6045 103.855 93.6804 104.927 93.6804C105.999 93.6804 106.918 94.6045 106.918 95.6826C106.918 96.7608 105.999 97.6849 104.927 97.6849Z" fill="#5ED9D1"/>
<path d="M104.927 116.013C103.855 116.013 102.936 115.089 102.936 114.011C102.936 112.933 103.855 112.009 104.927 112.009C105.999 112.009 106.918 112.933 106.918 114.011C106.918 115.089 105.999 116.013 104.927 116.013Z" fill="#5ED9D1"/>
<path d="M104.927 134.342C103.855 134.342 102.936 133.418 102.936 132.34C102.936 131.261 103.855 130.337 104.927 130.337C105.999 130.337 106.918 131.261 106.918 132.34C106.918 133.418 105.999 134.342 104.927 134.342Z" fill="#5ED9D1"/>
<path d="M104.927 152.824C103.855 152.824 102.936 151.9 102.936 150.822C102.936 149.743 103.855 148.819 104.927 148.819C105.999 148.819 106.918 149.743 106.918 150.822C106.918 151.9 105.999 152.824 104.927 152.824Z" fill="#5ED9D1"/>
<path d="M83.6389 77.3543C83.6389 78.4601 84.5303 79.3565 85.6299 79.3565C86.7295 79.3565 87.6208 78.4601 87.6208 77.3543C87.6208 76.2485 86.7295 75.3521 85.6299 75.3521C84.5303 75.3521 83.6389 76.2485 83.6389 77.3543Z" fill="#5ED9D1"/>
<path d="M85.6299 97.6848C84.5578 97.6848 83.6389 96.7607 83.6389 95.6826C83.6389 94.6045 84.5578 93.6804 85.6299 93.6804C86.7019 93.6804 87.6208 94.6045 87.6208 95.6826C87.6208 96.7607 86.7019 97.6848 85.6299 97.6848Z" fill="#5ED9D1"/>
<path d="M85.6299 116.013C84.5578 116.013 83.6389 115.089 83.6389 114.011C83.6389 112.933 84.5578 112.009 85.6299 112.009C86.7019 112.009 87.6208 112.933 87.6208 114.011C87.6208 115.089 86.7019 116.013 85.6299 116.013Z" fill="#5ED9D1"/>
<path d="M83.6389 132.493C83.6389 133.599 84.5303 134.495 85.6299 134.495C86.7295 134.495 87.6208 133.599 87.6208 132.493C87.6208 131.387 86.7295 130.491 85.6299 130.491C84.5303 130.491 83.6389 131.387 83.6389 132.493Z" fill="#5ED9D1"/>
<path d="M85.6299 152.821C84.5578 152.821 83.6389 151.897 83.6389 150.819C83.6389 149.741 84.5578 148.817 85.6299 148.817C86.7019 148.817 87.6208 149.741 87.6208 150.819C87.6208 151.897 86.7019 152.821 85.6299 152.821Z" fill="#5ED9D1"/>
</g>
<defs>
<clipPath id="clip0_2714_14830">
<rect width="230" height="156" fill="white" transform="translate(156) rotate(90)"/>
</clipPath>
</defs>
</svg>
