<svg width="16" height="16" viewBox="0 0 16 16" fill="none" xmlns="http://www.w3.org/2000/svg">
<path fill-rule="evenodd" clip-rule="evenodd" d="M3.47796 5.72218C3.23221 5.72218 3.04463 5.90976 3.04463 6.15551V12.4888C3.04463 12.7346 3.23221 12.9222 3.47796 12.9222H9.8113C10.0519 12.9222 10.2446 12.7232 10.2446 12.4888V6.15551C10.2446 5.90976 10.057 5.72218 9.8113 5.72218H3.47796ZM2.24463 6.15551C2.24463 5.46793 2.79038 4.92218 3.47796 4.92218H9.8113C10.4989 4.92218 11.0446 5.46793 11.0446 6.15551V12.4888C11.0446 13.1545 10.5041 13.7222 9.8113 13.7222H3.47796C2.79038 13.7222 2.24463 13.1764 2.24463 12.4888V6.15551Z" fill="#171753"/>
<path fill-rule="evenodd" clip-rule="evenodd" d="M5.98529 3.21452C5.73953 3.21452 5.55195 3.4021 5.55195 3.64785C5.55195 3.86877 5.37287 4.04785 5.15195 4.04785C4.93104 4.04785 4.75195 3.86877 4.75195 3.64785C4.75195 2.96027 5.29771 2.41452 5.98529 2.41452H12.3186C13.0062 2.41452 13.552 2.96027 13.552 3.64785V9.98119C13.552 10.6688 13.0062 11.2145 12.3186 11.2145C12.0977 11.2145 11.9186 11.0354 11.9186 10.8145C11.9186 10.5936 12.0977 10.4145 12.3186 10.4145C12.5644 10.4145 12.752 10.2269 12.752 9.98119V3.64785C12.752 3.4021 12.5644 3.21452 12.3186 3.21452H5.98529Z" fill="#171753"/>
</svg>
