<svg width="13" height="13" viewBox="0 0 13 13" fill="none" xmlns="http://www.w3.org/2000/svg">
<path fill-rule="evenodd" clip-rule="evenodd" d="M1.77344 3.43791C1.37171 3.43791 1.05971 3.74992 1.05971 4.15165V11.5823C1.05971 11.984 1.37171 12.296 1.77344 12.296H9.20411C9.60241 12.296 9.91784 11.9679 9.91784 11.5823V4.15165C9.91784 3.74992 9.60584 3.43791 9.20411 3.43791H1.77344ZM0.531738 4.15165C0.531738 3.45833 1.08012 2.90994 1.77344 2.90994H9.20411C9.89742 2.90994 10.4458 3.45833 10.4458 4.15165V11.5823C10.4458 12.2526 9.90085 12.824 9.20411 12.824H1.77344C1.08012 12.824 0.531738 12.2756 0.531738 11.5823V4.15165Z" fill="#5ED9D1"/>
<path fill-rule="evenodd" clip-rule="evenodd" d="M3.93335 1.27772C3.53163 1.27772 3.21962 1.58973 3.21962 1.99146C3.21962 2.13725 3.10143 2.25544 2.95563 2.25544C2.80984 2.25544 2.69165 2.13725 2.69165 1.99146C2.69165 1.29814 3.24004 0.749756 3.93335 0.749756H11.364C12.0573 0.749756 12.6057 1.29814 12.6057 1.99146V9.42212C12.6057 10.1154 12.0573 10.6638 11.364 10.6638C11.2182 10.6638 11.1 10.5456 11.1 10.3998C11.1 10.2541 11.2182 10.1359 11.364 10.1359C11.7657 10.1359 12.0778 9.82385 12.0778 9.42212V1.99146C12.0778 1.58973 11.7657 1.27772 11.364 1.27772H3.93335Z" fill="#5ED9D1"/>
</svg>
