<svg viewBox="0 0 36 36" fill="none" xmlns="http://www.w3.org/2000/svg">
<path fill-rule="evenodd" clip-rule="evenodd" d="M8.66605 12.5623C8.81776 12.3152 9.14106 12.2379 9.38815 12.3896L18.2637 17.839C18.5108 17.9908 18.5881 18.3141 18.4364 18.5611C18.2847 18.8082 17.9614 18.8856 17.7143 18.7338L8.83876 13.2844C8.59166 13.1327 8.51434 12.8094 8.66605 12.5623Z" fill="white"/>
<path fill-rule="evenodd" clip-rule="evenodd" d="M27.2464 12.6246C27.4015 12.8696 27.3285 13.1939 27.0835 13.3489L18.6843 18.6633V19.4824C18.6843 19.7723 18.4492 20.0074 18.1593 20.0074C17.8693 20.0074 17.6343 19.7723 17.6343 19.4824V18.0852L26.5221 12.4616C26.7671 12.3066 27.0914 12.3795 27.2464 12.6246Z" fill="white"/>
<path fill-rule="evenodd" clip-rule="evenodd" d="M18.0001 7.65007C17.9964 7.65007 17.9947 7.65104 17.9947 7.65104L17.9841 7.65812L9.52052 12.7635C9.49253 12.7837 9.47971 12.8006 9.47394 12.8106C9.46897 12.8191 9.4626 12.8333 9.4626 12.863V23.4376C9.4626 23.4672 9.46897 23.4814 9.47394 23.49C9.47948 23.4996 9.49153 23.5155 9.51729 23.5346L17.8605 28.339L17.8754 28.3491C17.8754 28.3491 17.8771 28.3501 17.8809 28.3501C17.8845 28.3501 17.8862 28.3491 17.8863 28.3491L17.9051 28.3365L26.4856 23.5927C26.5095 23.5745 26.5209 23.5593 26.5263 23.5501C26.5312 23.5415 26.5376 23.5273 26.5376 23.4976V12.863C26.5376 12.8333 26.5312 12.8191 26.5263 12.8106C26.5205 12.8006 26.5077 12.7837 26.4797 12.7635L18.0161 7.65812L18.0055 7.65104C18.0055 7.65104 18.0038 7.65007 18.0001 7.65007ZM18.5785 6.77113C18.2283 6.54305 17.7719 6.54305 17.4217 6.77113L8.95357 11.8793L8.94293 11.8864C8.64279 12.0881 8.4126 12.4208 8.4126 12.863V23.4376C8.4126 23.8797 8.64279 24.2125 8.94293 24.4141L8.958 24.4242L17.3077 29.2324C17.654 29.455 18.1023 29.4559 18.4495 29.2353L27.0384 24.4869L27.0573 24.4742C27.3574 24.2725 27.5876 23.9398 27.5876 23.4976V12.863C27.5876 12.4208 27.3574 12.0881 27.0573 11.8864L27.0466 11.8793L18.5785 6.77113Z" fill="white"/>
<path fill-rule="evenodd" clip-rule="evenodd" d="M17.9005 26.8962C18.1904 26.8962 18.4255 27.1313 18.4255 27.4212V28.9324H17.3755V27.4212C17.3755 27.1313 17.6105 26.8962 17.9005 26.8962Z" fill="white"/>
<path fill-rule="evenodd" clip-rule="evenodd" d="M15.5141 21.4301C15.012 21.1402 14.37 21.3122 14.0802 21.8143C13.7903 22.3164 13.9623 22.9584 14.4644 23.2482L16.8191 24.6077C17.3211 24.8976 17.9631 24.7256 18.253 24.2235C18.5429 23.7214 18.3708 23.0794 17.8688 22.7895L17.8542 22.7811L18.3792 21.8718L18.3938 21.8802C19.3981 22.46 19.7421 23.7442 19.1623 24.7485C18.5825 25.7528 17.2983 26.0969 16.2941 25.517L13.9394 24.1576C12.9351 23.5777 12.591 22.2936 13.1708 21.2893C13.7507 20.285 15.0348 19.9409 16.0391 20.5207L17.0708 21.1164C17.3219 21.2614 17.408 21.5825 17.263 21.8336C17.118 22.0847 16.7969 22.1707 16.5458 22.0257L15.5141 21.4301Z" fill="white"/>
<path fill-rule="evenodd" clip-rule="evenodd" d="M17.1557 24.7471C16.577 23.743 16.9213 22.4598 17.9251 21.8802L20.2797 20.5208C21.284 19.941 22.5682 20.2851 23.148 21.2893C23.7278 22.2936 23.3837 23.5778 22.3794 24.1576L20.2196 25.4046C19.9685 25.5496 19.6474 25.4635 19.5024 25.2124C19.3575 24.9613 19.4435 24.6402 19.6946 24.4953L21.8544 23.2483C22.3565 22.9584 22.5285 22.3164 22.2387 21.8143C21.9488 21.3123 21.3068 21.1402 20.8047 21.4301L18.4501 22.7896C17.948 23.0794 17.776 23.7214 18.0658 24.2235L17.6112 24.486L18.0674 24.2262L18.273 24.5873C18.4164 24.8393 18.3285 25.1598 18.0765 25.3033C17.8246 25.4468 17.504 25.3588 17.3605 25.1068L17.1557 24.7471Z" fill="white"/>
</svg>
