<svg viewBox="0 0 54 40" fill="none" xmlns="http://www.w3.org/2000/svg">
<path d="M36.9016 21.3078C36.9016 19.7489 38.1489 18.5017 39.7081 18.5017C41.2672 18.5017 42.5145 19.7489 42.5145 21.3078C42.5145 22.8668 41.2672 24.114 39.7081 24.114C38.1489 24.114 36.9016 22.8148 36.9016 21.3078Z" fill="#373765"/>
<path d="M53.8437 28.1146C53.7398 28.998 53.6358 29.8815 53.376 30.7129C52.5964 33.6749 50.8814 36.3771 48.075 37.8841C44.2291 39.8588 39.6557 39.1313 35.8099 37.6243C32.6396 39.8588 32.6396 39.8588 32.6396 39.8588C31.912 40.3265 30.9766 39.547 31.3923 38.7675C30.5088 38.9234 30.249 38.092 30.5088 37.4164C29.7812 37.988 29.1576 36.9487 29.5734 36.3252C29.8332 35.9094 30.249 35.4417 30.5608 35.078C26.0913 32.5317 22.0376 29.4138 17.9319 26.3478C20.2706 27.8028 29.6253 32.5836 31.912 33.571C34.3027 34.6103 36.6934 35.6496 39.188 36.2212C41.2668 36.6889 43.9173 36.9487 45.8402 35.7535C47.6072 34.7142 48.2828 32.5836 48.5427 30.6609C49.1663 26.5037 47.7112 21.8268 45.5284 18.2932C43.2417 14.6036 39.4998 11.2778 35.2382 10.1866C33.6791 9.77084 32.1199 9.77084 30.6648 10.0307C27.2867 10.6023 24.2204 12.6809 21.8817 15.2792C18.5036 19.0207 16.1649 23.6456 14.0341 28.2186C12.5789 31.2845 10.5521 38.7675 5.77076 35.8055C3.63996 34.4544 2.28872 32.116 1.35324 29.8295C0.313828 27.3871 -0.413764 24.1133 0.261856 21.4631C1.71704 15.9028 9.51265 20.8395 12.1632 22.6063C12.0072 22.5543 5.77076 19.6962 3.48404 21.9307C2.44463 22.9701 2.4966 24.8408 2.65251 26.1919C2.96434 28.6343 4.15966 32.2719 6.44638 33.623C9.40871 35.3378 10.9159 29.9854 11.6954 28.1146C12.9947 24.9447 14.242 21.7749 15.6972 18.6569C17.3083 15.2272 19.2312 11.8495 21.8817 9.0953C21.31 8.41975 20.4785 7.5883 20.4265 6.70489C20.3226 5.71755 21.31 4.62627 22.3494 5.14593C21.1541 3.79483 22.7652 1.76818 24.3243 2.54766C23.5967 1.40442 24.7401 -0.050612 25.9354 0.0013534C26.611 0.0013534 27.2866 0.57297 27.8064 0.936728C29.1576 1.82014 30.5088 2.75552 31.912 3.63893C44.8528 1.61228 54.9871 16.3185 53.8437 28.1146Z" fill="#373765"/>
</svg>
