<svg viewBox="0 0 25 25" fill="none" xmlns="http://www.w3.org/2000/svg">
<circle cx="12.5" cy="12.5" r="12.5" fill="url(#paint0_linear_1608_10135)"/>
<path d="M15.5643 12.6112C15.5643 12.0759 15.9926 11.6477 16.5279 11.6477C17.0633 11.6477 17.4915 12.0759 17.4915 12.6112C17.4915 13.1465 17.0633 13.5748 16.5279 13.5748C15.9926 13.5748 15.5643 13.1287 15.5643 12.6112Z" fill="white"/>
<path d="M21.3818 14.9489C21.3461 15.2522 21.3104 15.5555 21.2212 15.841C20.9535 16.8581 20.3646 17.786 19.401 18.3034C18.0804 18.9815 16.51 18.7317 15.1895 18.2142C14.1009 18.9815 14.1009 18.9815 14.1009 18.9815C13.8511 19.142 13.5299 18.8744 13.6727 18.6067C13.3693 18.6603 13.2801 18.3748 13.3693 18.1428C13.1195 18.3391 12.9053 17.9822 13.0481 17.7681C13.1373 17.6254 13.2801 17.4648 13.3871 17.3399C11.8525 16.4655 10.4605 15.395 9.05076 14.3422C9.85379 14.8418 13.0659 16.4834 13.8511 16.8224C14.672 17.1793 15.4929 17.5361 16.3494 17.7324C17.0632 17.893 17.9733 17.9822 18.6336 17.5718C19.2404 17.215 19.4723 16.4834 19.5616 15.8232C19.7757 14.3957 19.276 12.7898 18.5265 11.5765C17.7414 10.3096 16.4565 9.16763 14.9932 8.79292C14.4578 8.65017 13.9225 8.65017 13.4228 8.73939C12.2629 8.93567 11.21 9.6494 10.407 10.5416C9.24706 11.8263 8.44403 13.4143 7.71238 14.9846C7.21271 16.0373 6.51675 18.6067 4.87499 17.5897C4.14334 17.1258 3.67937 16.3228 3.35816 15.5377C3.00125 14.6991 2.75142 13.5749 2.98341 12.6649C3.48307 10.7557 6.15985 12.4508 7.06995 13.0575C7.01641 13.0396 4.87499 12.0582 4.08981 12.8255C3.7329 13.1824 3.75075 13.8247 3.80428 14.2887C3.91136 15.1273 4.32179 16.3763 5.10698 16.8403C6.12416 17.4291 6.64167 15.5912 6.90934 14.9489C7.35547 13.8604 7.78376 12.772 8.28342 11.7014C8.83662 10.5237 9.49689 9.36391 10.407 8.41821C10.2107 8.18625 9.92518 7.90076 9.90733 7.59742C9.87164 7.2584 10.2107 6.88369 10.5676 7.06212C10.1572 6.59819 10.7104 5.9023 11.2457 6.16995C10.9959 5.7774 11.3885 5.27779 11.7989 5.29563C12.0309 5.29563 12.2629 5.49191 12.4413 5.61681C12.9053 5.92015 13.3693 6.24133 13.8511 6.54466C18.2946 5.84877 21.7744 10.8984 21.3818 14.9489Z" fill="white"/>
<defs>
<linearGradient id="paint0_linear_1608_10135" x1="-9.31322e-08" y1="12.5" x2="25" y2="12.5" gradientUnits="userSpaceOnUse">
<stop stop-color="#030332"/>
<stop offset="1" stop-color="#171753"/>
</linearGradient>
</defs>
</svg>
