<svg viewBox="0 0 26 21" fill="none" xmlns="http://www.w3.org/2000/svg">
<path fill-rule="evenodd" clip-rule="evenodd" d="M10.3429 2.77783C10.5923 2.77786 10.8229 2.91734 10.9489 3.14429L16.2457 12.6858L18.2315 9.10986C18.3575 8.88296 18.5881 8.74353 18.8374 8.74349C19.0867 8.74345 19.3173 8.88282 19.4434 9.10967L25.3383 19.718C25.4656 19.9471 25.4669 20.2305 25.3418 20.4609C25.2166 20.6913 24.9841 20.8334 24.7324 20.8334H1.13698C0.88528 20.8334 0.652824 20.6913 0.527667 20.461C0.40251 20.2306 0.403793 19.9472 0.53103 19.7181L9.73688 3.14414C9.86292 2.91722 10.0936 2.7778 10.3429 2.77783ZM2.36238 19.3518H23.5067L18.8377 10.9495L16.8516 14.526C16.7256 14.753 16.4949 14.8924 16.2456 14.8924C15.9962 14.8924 15.7656 14.7529 15.6396 14.5259L10.3427 4.98431L2.36238 19.3518Z" fill="white"/>
<path fill-rule="evenodd" clip-rule="evenodd" d="M19.1847 1.53009C18.0926 1.53009 17.2257 2.40985 17.2257 3.47222C17.2257 4.5346 18.0926 5.41435 19.1847 5.41435C20.2769 5.41435 21.1438 4.5346 21.1438 3.47222C21.1438 2.40985 20.2769 1.53009 19.1847 1.53009ZM15.7125 3.47222C15.7125 1.54434 17.2773 0 19.1847 0C21.0922 0 22.657 1.54434 22.657 3.47222C22.657 5.40011 21.0922 6.94444 19.1847 6.94444C17.2773 6.94444 15.7125 5.40011 15.7125 3.47222Z" fill="white"/>
</svg>
