<svg viewBox="0 0 36 36" fill="none" xmlns="http://www.w3.org/2000/svg">
<path d="M18.6102 7.75209L20.1207 10.8447C20.1975 10.9993 20.3511 11.1024 20.5047 11.1282L23.8841 11.6179C24.2937 11.6694 24.4729 12.2106 24.1657 12.4941L21.708 14.8909C21.58 15.0198 21.5287 15.1744 21.5543 15.3548L22.1432 18.7567C22.22 19.169 21.7848 19.5041 21.4007 19.2979L18.3798 17.7C18.2262 17.6227 18.047 17.6227 17.8934 17.7L14.8724 19.2979C14.4884 19.5041 14.0531 19.169 14.1299 18.7567L14.7188 15.3548C14.7444 15.2002 14.6932 15.0198 14.5652 14.8909L12.1074 12.4941C11.8002 12.1848 11.9794 11.6694 12.3891 11.6179L15.7684 11.1282C15.9476 11.1024 16.0756 10.9993 16.1525 10.8447L17.6629 7.75209C17.8934 7.36551 18.431 7.36551 18.6102 7.75209Z" stroke="white" stroke-width="1.0125" stroke-miterlimit="10" stroke-linecap="round" stroke-linejoin="round"/>
<path d="M12.4473 22.3349V30.9855C12.4473 31.5551 13.0572 31.9168 13.557 31.6436L17.5294 29.4722C17.7536 29.3497 18.0247 29.3497 18.2489 29.4722L22.2213 31.6436C22.7211 31.9168 23.331 31.5551 23.331 30.9855V22.3349" stroke="white" stroke-width="1.0125"/>
<path d="M28.2665 13.659C28.2665 19.2671 23.7301 23.8116 18.1364 23.8116C12.5427 23.8116 8.00625 19.2671 8.00625 13.659C8.00625 8.0508 12.5427 3.50631 18.1364 3.50631C23.7301 3.50631 28.2665 8.0508 28.2665 13.659Z" stroke="white" stroke-width="1.0125"/>
</svg>
