<svg width="97" height="156" viewBox="0 0 97 156" fill="none" xmlns="http://www.w3.org/2000/svg">
<g clip-path="url(#clip0_7030_3870)">
<mask id="mask0_7030_3870" style="mask-type:luminance" maskUnits="userSpaceOnUse" x="0" y="0" width="97" height="156">
<path d="M97 156H0L0 0H97L97 156Z" fill="white"/>
</mask>
<g mask="url(#mask0_7030_3870)">
<g opacity="0.6">
<path opacity="0.3" d="M-20.412 115.044C-85.507 115.044 -138.294 63.7345 -138.294 0.460189C-138.294 0.230102 -138.294 0 -138.294 0L-79.826 5.111e-06C-79.826 0.230092 -79.826 0.460195 -79.826 0.460195C-79.826 32.2124 -53.315 57.9823 -20.648 57.9823C12.0176 57.9823 38.5293 32.2124 38.5293 0.460205C38.5293 0.230118 38.5293 1.5458e-05 38.5293 1.5458e-05L96.9968 2.057e-05C96.9968 0.230107 96.9968 0.46021 96.9968 0.46021C97.4703 63.7345 44.6837 115.044 -20.412 115.044Z" fill="#373765"/>
<path d="M18.0448 143.368C18.0448 142.296 17.0995 141.377 15.9966 141.377C14.8937 141.377 13.9483 142.296 13.9483 143.368C13.9483 144.44 14.8937 145.359 15.9966 145.359C17.0995 145.359 18.0448 144.44 18.0448 143.368Z" fill="#8585BC"/>
<path d="M18.0449 124.224C18.0449 123.152 17.0995 122.233 15.9966 122.233C14.8937 122.233 13.9483 123.152 13.9483 124.224C13.9483 125.296 14.8937 126.215 15.9966 126.215C17.0995 126.062 18.0449 125.296 18.0449 124.224Z" fill="#8585BC"/>
<path d="M18.0473 104.927C18.0473 103.855 17.1019 102.936 15.999 102.936C14.8961 102.936 13.9507 103.855 13.9507 104.927C13.9507 105.999 14.8961 106.918 15.999 106.918C17.1019 106.918 18.0473 105.999 18.0473 104.927Z" fill="#8585BC"/>
<path d="M18.045 85.6297C18.045 84.5576 17.0996 83.6387 15.9967 83.6387C14.8938 83.6387 13.9484 84.5576 13.9484 85.6297C13.9484 86.7018 14.8938 87.6207 15.9967 87.6207C17.0996 87.6207 18.045 86.7018 18.045 85.6297Z" fill="#8585BC"/>
</g>
</g>
</g>
<defs>
<clipPath id="clip0_7030_3870">
<rect width="97" height="156" fill="white" transform="matrix(-1 0 0 1 97 0)"/>
</clipPath>
</defs>
</svg>
