<svg viewBox="0 0 19 25" fill="none" xmlns="http://www.w3.org/2000/svg">
<path d="M9.01593 18.4309C9.70629 18.4309 10.2659 17.8713 10.2659 17.1809C10.2659 16.4906 9.70629 15.9309 9.01593 15.9309C8.32557 15.9309 7.76593 16.4906 7.76593 17.1809C7.76593 17.8713 8.32557 18.4309 9.01593 18.4309Z" fill="white"/>
<path d="M17.4468 24.9999H0.585106C0.265958 24.9999 0 24.734 0 24.4148V11.9148C0 11.5957 0.265958 11.3297 0.585106 11.3297H17.4468C17.766 11.3297 18.0319 11.5957 18.0319 11.9148V24.4148C18.0319 24.734 17.766 24.9999 17.4468 24.9999ZM1.19681 23.8031H16.8617V12.4999H1.19681V23.8031Z" fill="white"/>
<path d="M14.6543 11.7287C14.3351 11.7287 14.0692 11.4628 14.0692 11.1436V6.2234C14.0692 3.43085 11.8085 1.17021 9.01598 1.17021C6.22342 1.17021 3.96278 3.43085 3.96278 6.2234V11.117C3.96278 11.4362 3.69683 11.7021 3.37768 11.7021C3.05853 11.7021 2.79257 11.4362 2.79257 11.117V6.2234C2.79257 2.79255 5.58513 0 9.01598 0C12.4468 0 15.266 2.79255 15.266 6.2234V11.117C15.266 11.4628 14.9734 11.7287 14.6543 11.7287Z" fill="white"/>
<path d="M9.01595 21.516C8.6968 21.516 8.43085 21.2501 8.43085 20.9309V17.5799C8.43085 17.2607 8.6968 16.9948 9.01595 16.9948C9.3351 16.9948 9.60106 17.2607 9.60106 17.5799V20.9309C9.60106 21.2501 9.3351 21.516 9.01595 21.516Z" fill="white"/>
</svg>
