<svg width="177" height="156" viewBox="0 0 177 156" fill="none" xmlns="http://www.w3.org/2000/svg">
<g opacity="0.6" clip-path="url(#clip0_1608_9964)">
<path opacity="0.3" d="M117.412 115.045C182.507 115.045 235.294 63.7349 235.294 0.460587C235.294 0.230499 235.294 0.000396729 235.294 0.000396729L176.826 0.00040184C176.826 0.230489 176.826 0.460592 176.826 0.460592C176.826 32.2128 150.315 57.9827 117.649 57.9827C84.9824 57.9827 58.4708 32.2128 58.4708 0.460602C58.4708 0.230515 58.4708 0.000412187 58.4708 0.000412187L0.00316377 0.000417298C0.00316379 0.230505 0.00316381 0.460607 0.00316381 0.460607C-0.47025 63.735 52.3163 115.045 117.412 115.045Z" fill="#373765"/>
<path d="M156.159 141.377C155.028 141.377 154.111 142.269 154.111 143.368C154.111 144.468 155.028 145.359 156.159 145.359C157.29 145.359 158.207 144.468 158.207 143.368C158.207 142.269 157.29 141.377 156.159 141.377Z" fill="#8585BC"/>
<path d="M135.361 143.368C135.361 142.296 136.306 141.377 137.409 141.377C138.512 141.377 139.457 142.296 139.457 143.368C139.457 144.44 138.512 145.359 137.409 145.359C136.306 145.359 135.361 144.44 135.361 143.368Z" fill="#8585BC"/>
<path d="M116.61 143.368C116.61 142.296 117.556 141.377 118.659 141.377C119.761 141.377 120.707 142.296 120.707 143.368C120.707 144.44 119.761 145.359 118.659 145.359C117.556 145.359 116.61 144.44 116.61 143.368Z" fill="#8585BC"/>
<path d="M99.7512 141.377C98.62 141.377 97.7029 142.269 97.7029 143.368C97.7029 144.468 98.62 145.359 99.7512 145.359C100.882 145.359 101.8 144.468 101.8 143.368C101.8 142.269 100.882 141.377 99.7512 141.377Z" fill="#8585BC"/>
<path d="M78.9551 143.368C78.9551 142.296 79.9005 141.377 81.0034 141.377C82.1063 141.377 83.0516 142.296 83.0516 143.368C83.0516 144.44 82.1063 145.359 81.0034 145.359C79.9005 145.359 78.9551 144.44 78.9551 143.368Z" fill="#8585BC"/>
<path d="M156.159 122.233C155.028 122.233 154.111 123.125 154.111 124.224C154.111 125.324 155.028 126.215 156.159 126.215C157.29 126.215 158.207 125.324 158.207 124.224C158.207 123.125 157.29 122.233 156.159 122.233Z" fill="#8585BC"/>
<path d="M135.361 124.224C135.361 123.152 136.306 122.233 137.409 122.233C138.512 122.233 139.457 123.152 139.457 124.224C139.457 125.296 138.512 126.215 137.409 126.215C136.306 126.062 135.361 125.296 135.361 124.224Z" fill="#8585BC"/>
<path d="M116.61 124.224C116.61 123.152 117.556 122.233 118.659 122.233C119.761 122.233 120.707 123.152 120.707 124.224C120.707 125.296 119.761 126.215 118.659 126.215C117.556 126.062 116.61 125.296 116.61 124.224Z" fill="#8585BC"/>
<path d="M99.7512 122.233C98.62 122.233 97.7029 123.125 97.7029 124.224C97.7029 125.324 98.62 126.215 99.7512 126.215C100.882 126.215 101.8 125.324 101.8 124.224C101.8 123.125 100.882 122.233 99.7512 122.233Z" fill="#8585BC"/>
<path d="M78.9551 124.224C78.9551 123.152 79.9005 122.233 81.0034 122.233C82.1063 122.233 83.0517 123.152 83.0517 124.224C83.0517 125.296 82.1063 126.215 81.0034 126.215C79.9005 126.062 78.9551 125.296 78.9551 124.224Z" fill="#8585BC"/>
<path d="M154.268 104.927C154.268 103.855 155.213 102.936 156.316 102.936C157.419 102.936 158.364 103.855 158.364 104.927C158.364 105.999 157.419 106.918 156.316 106.918C155.056 106.918 154.268 105.999 154.268 104.927Z" fill="#8585BC"/>
<path d="M135.361 104.927C135.361 103.855 136.306 102.936 137.409 102.936C138.512 102.936 139.457 103.855 139.457 104.927C139.457 105.999 138.512 106.918 137.409 106.918C136.306 106.918 135.361 105.999 135.361 104.927Z" fill="#8585BC"/>
<path d="M116.61 104.927C116.61 103.855 117.556 102.936 118.659 102.936C119.762 102.936 120.707 103.855 120.707 104.927C120.707 105.999 119.762 106.918 118.659 106.918C117.556 106.918 116.61 105.999 116.61 104.927Z" fill="#8585BC"/>
<path d="M97.86 104.927C97.86 103.855 98.8054 102.936 99.9083 102.936C101.011 102.936 101.957 103.855 101.957 104.927C101.957 105.999 101.011 106.918 99.9083 106.918C98.8054 106.918 97.86 105.999 97.86 104.927Z" fill="#8585BC"/>
<path d="M78.9527 104.927C78.9527 103.855 79.8981 102.936 81.001 102.936C82.1039 102.936 83.0493 103.855 83.0493 104.927C83.0493 105.999 82.1039 106.918 81.001 106.918C79.8981 106.918 78.9527 105.999 78.9527 104.927Z" fill="#8585BC"/>
<path d="M156.159 83.6386C155.028 83.6386 154.111 84.53 154.111 85.6296C154.111 86.7292 155.028 87.6206 156.159 87.6206C157.29 87.6206 158.207 86.7292 158.207 85.6296C158.207 84.53 157.29 83.6386 156.159 83.6386Z" fill="#8585BC"/>
<path d="M135.361 85.6296C135.361 84.5575 136.306 83.6386 137.409 83.6386C138.512 83.6386 139.457 84.5575 139.457 85.6296C139.457 86.7017 138.512 87.6206 137.409 87.6206C136.306 87.6206 135.361 86.7017 135.361 85.6296Z" fill="#8585BC"/>
<path d="M116.61 85.6296C116.61 84.5575 117.556 83.6386 118.659 83.6386C119.761 83.6386 120.707 84.5575 120.707 85.6296C120.707 86.7017 119.761 87.6206 118.659 87.6206C117.556 87.6206 116.61 86.7017 116.61 85.6296Z" fill="#8585BC"/>
<path d="M99.7512 83.6386C98.62 83.6386 97.7029 84.53 97.7029 85.6296C97.7029 86.7292 98.62 87.6206 99.7512 87.6206C100.882 87.6206 101.8 86.7292 101.8 85.6296C101.8 84.53 100.882 83.6386 99.7512 83.6386Z" fill="#8585BC"/>
<path d="M78.955 85.6296C78.955 84.5575 79.9003 83.6386 81.0033 83.6386C82.1062 83.6386 83.0515 84.5575 83.0515 85.6296C83.0515 86.7017 82.1062 87.6206 81.0033 87.6206C79.9003 87.6206 78.955 86.7017 78.955 85.6296Z" fill="#8585BC"/>
</g>
<defs>
<clipPath id="clip0_1608_9964">
<rect width="285" height="156" fill="white" transform="translate(285 156) rotate(180)"/>
</clipPath>
</defs>
</svg>
