<svg viewBox="0 0 23 20" fill="none" xmlns="http://www.w3.org/2000/svg">
<path d="M10.5947 14.788L10.5947 0.573531C10.5947 0.274279 10.8393 0.0249023 11.133 0.0249023C11.4266 0.0249023 11.6713 0.274279 11.6713 0.573531L11.6713 14.788C11.6713 15.0872 11.4266 15.3366 11.133 15.3366C10.8393 15.3366 10.5947 15.0872 10.5947 14.788Z" fill="#373765"/>
<path d="M4.64894 8.72822C4.64894 8.57859 4.69787 8.45391 4.82021 8.32922C5.04043 8.10478 5.38298 8.10478 5.60319 8.32922L11.1574 13.9901L16.6872 8.32922C16.9075 8.10478 17.25 8.10478 17.4702 8.32922C17.6904 8.55366 17.6904 8.90278 17.4702 9.12722L11.5245 15.1871C11.3043 15.4115 10.9617 15.4115 10.7415 15.1871L4.82021 9.12722C4.69787 9.02747 4.64894 8.87785 4.64894 8.72822Z" fill="#373765"/>
<path d="M-1.39317e-05 19.4514L-1.34575e-05 8.60356C-1.34445e-05 8.30431 0.244667 8.05493 0.538284 8.05493C0.831901 8.05493 1.07658 8.30431 1.07658 8.60356L1.07658 18.8779L21.8745 18.8779L21.8745 8.60356C21.8745 8.30431 22.1191 8.05493 22.4128 8.05493C22.7064 8.05493 22.951 8.30431 22.951 8.60356L22.951 19.4514C22.951 19.7507 22.7064 20.0001 22.4128 20.0001L0.513815 20.0001C0.244667 20.0001 -1.39448e-05 19.7507 -1.39317e-05 19.4514Z" fill="#373765"/>
</svg>
