<svg width="17" height="20" viewBox="0 0 17 20" fill="none" xmlns="http://www.w3.org/2000/svg">
<g clip-path="url(#clip0_2675_14387)">
<path d="M12.1774 4.25318C12.0903 4.25318 12.0061 4.22255 11.9395 4.16669C11.8729 4.11083 11.8282 4.03333 11.8133 3.94782C11.6694 3.09849 11.2443 2.32176 10.6058 1.74177C9.96732 1.16179 9.15233 0.812017 8.29109 0.748371C7.35772 0.693479 6.43777 0.99057 5.71379 1.58069C4.98981 2.17081 4.51471 3.01084 4.38276 3.93407C4.36844 4.03145 4.31595 4.11917 4.23682 4.17798C4.1577 4.23678 4.0584 4.26185 3.96076 4.24768C3.91238 4.24129 3.86576 4.22534 3.82364 4.20075C3.78152 4.17617 3.74474 4.14344 3.71546 4.1045C3.68617 4.06556 3.66498 4.02118 3.65311 3.97397C3.64123 3.92675 3.63893 3.87765 3.64633 3.82953C3.80488 2.72187 4.37487 1.71404 5.24333 1.00578C6.11178 0.297534 7.21531 -0.059442 8.33522 0.00559725C9.36251 0.0783846 10.3356 0.49286 11.0987 1.18267C11.8618 1.87248 12.3708 2.79772 12.5442 3.81027C12.5533 3.85836 12.5528 3.90778 12.5425 3.95566C12.5323 4.00353 12.5126 4.04888 12.4846 4.08908C12.4567 4.12929 12.4209 4.16354 12.3795 4.18982C12.3381 4.21611 12.2919 4.23391 12.2435 4.24218L12.1774 4.25318Z" fill="#DB1B1B"/>
<path d="M11.2809 20.0001H4.89298C4.46623 20 4.05419 19.8446 3.73423 19.5629C3.41427 19.2813 3.20842 18.8928 3.15533 18.4705L1.64661 6.41821C1.64697 6.26142 1.67829 6.10623 1.73878 5.96151C1.79928 5.8168 1.88775 5.68538 1.99916 5.57477C2.11058 5.46415 2.24274 5.37651 2.38811 5.31684C2.53348 5.25717 2.68921 5.22665 2.84641 5.22701H13.3275C13.4863 5.22409 13.6441 5.25272 13.7917 5.31124C13.9393 5.36976 14.0738 5.457 14.1872 5.56787C14.3007 5.67873 14.3909 5.81102 14.4526 5.95701C14.5143 6.103 14.5462 6.25978 14.5466 6.41821V6.46497C14.5466 6.55301 13.4268 15.2435 13.0323 18.4677C12.979 18.8927 12.7713 19.2834 12.4485 19.5658C12.1257 19.8482 11.7103 20.0027 11.2809 20.0001ZM2.41062 6.39895L3.91382 18.3769C3.94351 18.6201 4.06151 18.8439 4.2455 19.0062C4.42949 19.1684 4.66671 19.2577 4.91228 19.2573H11.2919C11.5373 19.2571 11.7742 19.1676 11.9581 19.0055C12.142 18.8434 12.2601 18.6198 12.2904 18.3769C12.6738 15.2435 13.7329 6.93815 13.8019 6.39895C13.7962 6.28267 13.7457 6.17308 13.6608 6.0931C13.576 6.01312 13.4635 5.96894 13.3468 5.96979H2.86572C2.7492 5.96962 2.63705 6.01403 2.55239 6.09387C2.46772 6.17371 2.41698 6.28291 2.41062 6.39895Z" fill="#DB1B1B"/>
<path d="M5.75077 16.3769C5.65202 16.3769 5.55731 16.3378 5.48748 16.2682C5.41765 16.1985 5.37842 16.104 5.37842 16.0056V9.12797C5.37914 9.0297 5.4186 8.93565 5.48827 8.86616C5.55795 8.79667 5.65224 8.75731 5.75077 8.75659C5.84953 8.75659 5.94423 8.79571 6.01406 8.86536C6.08389 8.93501 6.12312 9.02948 6.12312 9.12797V16.0056C6.12349 16.0544 6.11411 16.1029 6.09553 16.1481C6.07695 16.1933 6.04953 16.2344 6.01488 16.269C5.98023 16.3035 5.93904 16.3309 5.8937 16.3494C5.84836 16.368 5.79977 16.3773 5.75077 16.3769Z" fill="#DB1B1B"/>
<path d="M10.4397 16.4236C10.341 16.4236 10.2463 16.3845 10.1764 16.3148C10.1066 16.2452 10.0674 16.1507 10.0674 16.0522V9.17462C10.0674 9.07613 10.1066 8.98166 10.1764 8.91201C10.2463 8.84236 10.341 8.80323 10.4397 8.80323C10.4887 8.80287 10.5373 8.81223 10.5827 8.83076C10.628 8.8493 10.6692 8.87664 10.7038 8.9112C10.7385 8.94576 10.7659 8.98684 10.7845 9.03207C10.8031 9.07729 10.8125 9.12575 10.8121 9.17462V16.0522C10.8125 16.1011 10.8031 16.1495 10.7845 16.1948C10.7659 16.24 10.7385 16.2811 10.7038 16.3156C10.6692 16.3502 10.628 16.3775 10.5827 16.3961C10.5373 16.4146 10.4887 16.424 10.4397 16.4236Z" fill="#DB1B1B"/>
<path d="M8.09525 16.4236C7.9965 16.4236 7.90179 16.3845 7.83196 16.3148C7.76213 16.2452 7.7229 16.1507 7.7229 16.0522V9.17463C7.7229 9.07613 7.76213 8.98166 7.83196 8.91202C7.90179 8.84237 7.9965 8.80324 8.09525 8.80324C8.14517 8.80137 8.19495 8.80963 8.24158 8.82749C8.28821 8.84535 8.33072 8.87246 8.36656 8.90717C8.40239 8.94188 8.4308 8.98348 8.45006 9.02945C8.46933 9.07542 8.47905 9.12481 8.47864 9.17463V16.0522C8.47905 16.102 8.46933 16.1514 8.45006 16.1974C8.4308 16.2433 8.40239 16.2849 8.36656 16.3197C8.33072 16.3544 8.28821 16.3815 8.24158 16.3993C8.19495 16.4172 8.14517 16.4255 8.09525 16.4236Z" fill="#DB1B1B"/>
<path d="M15.8181 5.96985H0.372355C0.273601 5.96985 0.178892 5.93072 0.109063 5.86107C0.0392328 5.79142 0 5.69695 0 5.59846C0 5.49996 0.0392328 5.40549 0.109063 5.33584C0.178892 5.2662 0.273601 5.22706 0.372355 5.22706H15.8181C15.868 5.2252 15.9178 5.23345 15.9644 5.25132C16.0111 5.26918 16.0536 5.29629 16.0894 5.331C16.1253 5.36571 16.1537 5.40731 16.1729 5.45328C16.1922 5.49925 16.2019 5.54863 16.2015 5.59846C16.2019 5.64828 16.1922 5.69766 16.1729 5.74363C16.1537 5.7896 16.1253 5.8312 16.0894 5.86591C16.0536 5.90062 16.0111 5.92773 15.9644 5.94559C15.9178 5.96346 15.868 5.97171 15.8181 5.96985Z" fill="#DB1B1B"/>
</g>
<defs>
<clipPath id="clip0_2675_14387">
<rect width="16.1905" height="20" fill="white"/>
</clipPath>
</defs>
</svg>
