<svg width="18" height="20" viewBox="0 0 18 20" fill="none" xmlns="http://www.w3.org/2000/svg">
<path d="M3.91922 4.34318C6.68743 1.83915 10.8302 1.80086 13.6367 4.08665L11.4122 4.17088C11.125 4.18237 10.9029 4.41975 10.9144 4.70691C10.9259 4.98641 11.1556 5.20466 11.4313 5.20466C11.439 5.20466 11.4428 5.20466 11.4504 5.20466L14.8657 5.07831C15.1452 5.06682 15.3635 4.84092 15.3635 4.56142V4.52313C15.3635 4.51547 15.3635 4.51165 15.3635 4.50399V4.50016L15.2371 1.12317C15.2256 0.83601 14.9844 0.61394 14.7011 0.625426C14.4139 0.636913 14.1919 0.874297 14.2033 1.16146L14.2837 3.27878C12.8939 2.14163 11.1824 1.48307 9.35227 1.39118C7.08563 1.27632 4.90704 2.05356 3.22621 3.57742C0.913618 5.67177 -0.0665518 8.85732 0.668576 11.8897C0.726007 12.1271 0.936591 12.2841 1.17015 12.2841C1.21226 12.2841 1.25055 12.2803 1.29267 12.2688C1.56834 12.1999 1.74064 11.9203 1.67172 11.6447C1.02848 8.97984 1.88613 6.181 3.91922 4.34318Z" fill="#373765"/>
<path d="M17.3315 8.1108C17.2626 7.83513 16.9831 7.66283 16.7074 7.73175C16.4318 7.80067 16.2595 8.08017 16.3284 8.35584C16.9754 11.0207 16.114 13.8195 14.0809 15.6573C12.6527 16.9476 10.8609 17.5832 9.07666 17.5832C7.37285 17.5832 5.67287 17.0051 4.30216 15.8641L6.55349 15.6612C6.83682 15.6344 7.0474 15.3855 7.0206 15.0983C6.9938 14.8112 6.74493 14.6044 6.45777 14.6312L3.05398 14.9375C2.77065 14.9643 2.56006 15.2132 2.58686 15.5004L2.89317 18.9041C2.91614 19.1722 3.14204 19.3751 3.40622 19.3751C3.42154 19.3751 3.43685 19.3751 3.45217 19.3713C3.7355 19.3445 3.94608 19.0956 3.91928 18.8084L3.7355 16.737C5.12535 17.8627 6.82916 18.5174 8.64783 18.6093C8.79333 18.617 8.93882 18.6208 9.08049 18.6208C11.1901 18.6208 13.1964 17.8474 14.7739 16.4231C17.0865 14.3287 18.0667 11.147 17.3315 8.1108Z" fill="#373765"/>
</svg>

