<svg width="97" height="156" viewBox="0 0 97 156" fill="none" xmlns="http://www.w3.org/2000/svg">
<g opacity="0.6" clip-path="url(#clip0_6877_4435)">
<path opacity="0.3" d="M117.412 115.044C182.507 115.044 235.294 63.7347 235.294 0.460342C235.294 0.230255 235.294 0.000152588 235.294 0.000152588L176.826 0.000157699C176.826 0.230245 176.826 0.460348 176.826 0.460348C176.826 32.2126 150.315 57.9825 117.648 57.9825C84.9824 57.9825 58.4707 32.2126 58.4707 0.460358C58.4707 0.230271 58.4707 0.000168046 58.4707 0.000168046L0.00313325 0.000173158C0.00313327 0.23026 0.00313329 0.460363 0.00313329 0.460363C-0.47028 63.7347 52.3163 115.044 117.412 115.044Z" fill="#373765"/>
<path d="M78.9552 143.368C78.9552 142.296 79.9005 141.377 81.0034 141.377C82.1063 141.377 83.0517 142.296 83.0517 143.368C83.0517 144.44 82.1063 145.359 81.0034 145.359C79.9005 145.359 78.9552 144.44 78.9552 143.368Z" fill="#8585BC"/>
<path d="M78.9551 124.224C78.9551 123.152 79.9005 122.233 81.0034 122.233C82.1063 122.233 83.0517 123.152 83.0517 124.224C83.0517 125.296 82.1063 126.215 81.0034 126.215C79.9005 126.062 78.9551 125.296 78.9551 124.224Z" fill="#8585BC"/>
<path d="M78.9527 104.927C78.9527 103.855 79.8981 102.936 81.001 102.936C82.1039 102.936 83.0493 103.855 83.0493 104.927C83.0493 105.999 82.1039 106.918 81.001 106.918C79.8981 106.918 78.9527 105.999 78.9527 104.927Z" fill="#8585BC"/>
<path d="M78.955 85.6296C78.955 84.5575 79.9004 83.6386 81.0033 83.6386C82.1062 83.6386 83.0516 84.5575 83.0516 85.6296C83.0516 86.7017 82.1062 87.6206 81.0033 87.6206C79.9004 87.6206 78.955 86.7017 78.955 85.6296Z" fill="#8585BC"/>
</g>
<defs>
<clipPath id="clip0_6877_4435">
<rect width="97" height="156" fill="white" transform="translate(97 156) rotate(180)"/>
</clipPath>
</defs>
</svg>
