<svg width="97" height="156" viewBox="0 0 97 156" fill="none" xmlns="http://www.w3.org/2000/svg">
<g opacity="0.6" clip-path="url(#clip0_1611_10618)">
<path opacity="0.3" d="M117.412 115.045C182.507 115.045 235.294 63.7349 235.294 0.460587C235.294 0.230499 235.294 0.000396729 235.294 0.000396729L176.826 0.00040184C176.826 0.230489 176.826 0.460592 176.826 0.460592C176.826 32.2128 150.315 57.9827 117.648 57.9827C84.9824 57.9827 58.4707 32.2128 58.4707 0.460602C58.4707 0.230515 58.4707 0.000412187 58.4707 0.000412187L0.00313325 0.000417298C0.00313327 0.230505 0.00313329 0.460607 0.00313329 0.460607C-0.47028 63.735 52.3163 115.045 117.412 115.045Z" fill="#373765"/>
<path d="M78.9552 143.368C78.9552 142.296 79.9005 141.377 81.0034 141.377C82.1063 141.377 83.0517 142.296 83.0517 143.368C83.0517 144.44 82.1063 145.359 81.0034 145.359C79.9005 145.359 78.9552 144.44 78.9552 143.368Z" fill="#8585BC"/>
<path d="M78.9552 124.224C78.9552 123.152 79.9005 122.233 81.0034 122.233C82.1063 122.233 83.0517 123.152 83.0517 124.224C83.0517 125.296 82.1063 126.215 81.0034 126.215C79.9005 126.062 78.9552 125.296 78.9552 124.224Z" fill="#8585BC"/>
<path d="M78.9527 104.927C78.9527 103.855 79.8981 102.936 81.001 102.936C82.104 102.936 83.0493 103.855 83.0493 104.927C83.0493 105.999 82.104 106.918 81.001 106.918C79.8981 106.918 78.9527 105.999 78.9527 104.927Z" fill="#8585BC"/>
<path d="M78.955 85.6296C78.955 84.5575 79.9004 83.6386 81.0033 83.6386C82.1062 83.6386 83.0516 84.5575 83.0516 85.6296C83.0516 86.7017 82.1062 87.6206 81.0033 87.6206C79.9004 87.6206 78.955 86.7017 78.955 85.6296Z" fill="#8585BC"/>
</g>
<defs>
<clipPath id="clip0_1611_10618">
<rect width="285" height="156" fill="white" transform="translate(285 156) rotate(180)"/>
</clipPath>
</defs>
</svg>
