<svg width="142" height="156" viewBox="0 0 142 156" fill="none" xmlns="http://www.w3.org/2000/svg">
<g opacity="0.6" clip-path="url(#clip0_1611_10645)">
<path opacity="0.3" d="M-25.5882 115.045C39.5073 115.045 92.2938 63.7349 92.2938 0.460585C92.2938 0.230496 92.2938 0.000397011 92.2938 0.000397011L33.8262 0.000402123C33.8262 0.230491 33.8262 0.46059 33.8262 0.46059C33.8262 32.2128 7.3146 57.9827 -25.3515 57.9827C-58.0176 57.9827 -84.5292 32.2128 -84.5292 0.4606C-84.5292 0.230512 -84.5292 0.00041247 -84.5292 0.00041247L-142.997 0.000417581C-142.997 0.230506 -142.997 0.460605 -142.997 0.460605C-143.47 63.735 -90.6837 115.045 -25.5882 115.045Z" fill="#373765"/>
<path d="M13.159 141.377C12.0278 141.377 11.1107 142.269 11.1107 143.368C11.1107 144.468 12.0278 145.359 13.159 145.359C14.2903 145.359 15.2073 144.468 15.2073 143.368C15.2073 142.269 14.2903 141.377 13.159 141.377Z" fill="#8585BC"/>
<path d="M13.159 122.233C12.0278 122.233 11.1107 123.125 11.1107 124.224C11.1107 125.324 12.0278 126.215 13.159 126.215C14.2903 126.215 15.2073 125.324 15.2073 124.224C15.2073 123.125 14.2903 122.233 13.159 122.233Z" fill="#8585BC"/>
<path d="M11.2679 104.927C11.2679 103.855 12.2133 102.936 13.3162 102.936C14.4191 102.936 15.3645 103.855 15.3645 104.927C15.3645 105.999 14.4191 106.918 13.3162 106.918C12.0557 106.918 11.2679 105.999 11.2679 104.927Z" fill="#8585BC"/>
<path d="M13.159 83.6386C12.0278 83.6386 11.1107 84.53 11.1107 85.6296C11.1107 86.7292 12.0278 87.6206 13.159 87.6206C14.2903 87.6206 15.2073 86.7292 15.2073 85.6296C15.2073 84.53 14.2903 83.6386 13.159 83.6386Z" fill="#8585BC"/>
</g>
<defs>
<clipPath id="clip0_1611_10645">
<rect width="285" height="156" fill="white" transform="translate(142 156) rotate(180)"/>
</clipPath>
</defs>
</svg>
