<svg viewBox="0 0 23 20" fill="none" xmlns="http://www.w3.org/2000/svg">
<path d="M11.6896 0.592131L11.6896 14.8066C11.6896 15.1058 11.445 15.3552 11.1513 15.3552C10.8577 15.3552 10.613 15.1058 10.613 14.8066L10.613 0.592131C10.613 0.292879 10.8577 0.0435022 11.1513 0.0435022C11.445 0.0435022 11.6896 0.292879 11.6896 0.592131Z" fill="#373765"/>
<path d="M17.6354 6.65191C17.6354 6.80153 17.5864 6.92622 17.4641 7.05091C17.2439 7.27535 16.9013 7.27535 16.6811 7.05091L11.1269 1.39006L5.59706 7.05091C5.37685 7.27535 5.0343 7.27535 4.81409 7.05091C4.59387 6.82647 4.59387 6.47734 4.81409 6.2529L10.7598 0.193053C10.98 -0.0313855 11.3226 -0.0313855 11.5428 0.193053L17.4641 6.2529C17.5864 6.35266 17.6354 6.50228 17.6354 6.65191Z" fill="#373765"/>
<path d="M-1.39317e-05 19.4514L-1.34575e-05 8.60356C-1.34445e-05 8.30431 0.244667 8.05493 0.538284 8.05493C0.831901 8.05493 1.07658 8.30431 1.07658 8.60356L1.07658 18.8779L21.8745 18.8779L21.8745 8.60356C21.8745 8.30431 22.1191 8.05493 22.4128 8.05493C22.7064 8.05493 22.951 8.30431 22.951 8.60356L22.951 19.4514C22.951 19.7507 22.7064 20.0001 22.4128 20.0001L0.513815 20.0001C0.244667 20.0001 -1.39448e-05 19.7507 -1.39317e-05 19.4514Z" fill="#373765"/>
</svg>
