<svg viewBox="0 0 33 32" fill="none" xmlns="http://www.w3.org/2000/svg">
<path d="M17.1492 22.1153C13.1448 22.489 9.77269 19.2618 10.1591 15.3552C10.4401 12.4677 12.8638 10.1577 15.8495 9.85201C19.8539 9.47834 23.226 12.7055 22.8396 16.6121C22.5235 19.4996 20.1349 21.8096 17.1492 22.1153ZM17.1492 11.1089C13.8473 10.7013 11.0372 13.4189 11.4587 16.6461C11.7398 18.8202 13.5663 20.6206 15.8495 20.8924C19.1865 21.3 21.9966 18.5824 21.5751 15.3552C21.259 13.1471 19.4324 11.3807 17.1492 11.1089Z" fill="#373765"/>
<path d="M19.6789 32.0005H13.321C13.0049 32.0005 12.7239 31.7627 12.6888 31.457L12.197 27.5844C10.7568 27.1088 9.45715 26.3614 8.29798 25.4103L4.5746 26.9389C4.29359 27.0748 3.94233 26.9389 3.76669 26.6672L0.570207 21.3338C0.429702 21.0621 0.499955 20.7224 0.745838 20.5185L3.97745 18.1746C3.83695 17.4612 3.76669 16.7478 3.76669 16.0005C3.76669 15.2531 3.83695 14.5398 3.97745 13.8264L0.745838 11.4824C0.499955 11.3126 0.429702 10.9389 0.570207 10.6672L3.76669 5.33382C3.94233 5.06206 4.25846 4.96015 4.5746 5.06206L8.29798 6.59072C9.45715 5.63955 10.7568 4.92618 12.197 4.41662L12.6888 0.544013C12.7239 0.23828 13.0049 0.000488281 13.321 0.000488281H19.6789C19.995 0.000488281 20.276 0.23828 20.3112 0.544013L20.8029 4.41662C22.2431 4.89221 23.5428 5.63955 24.7019 6.59072L28.4253 5.06206C28.7063 4.92618 29.0576 5.06206 29.2332 5.33382L32.4297 10.6672C32.6053 10.9389 32.5351 11.2786 32.2541 11.4824L29.0225 13.8264C29.163 14.5398 29.2332 15.2531 29.2332 16.0005C29.2332 16.7478 29.163 17.4612 29.0225 18.1746L32.2541 20.5185C32.5 20.6884 32.5702 21.0621 32.4297 21.3338L29.2332 26.6672C29.0576 26.9389 28.7415 27.0408 28.4253 26.9389L24.7019 25.4103C23.5428 26.3614 22.208 27.0748 20.8029 27.5844L20.3112 31.457C20.276 31.7627 19.995 32.0005 19.6789 32.0005ZM13.8831 30.7436H19.1169L19.6086 27.0069C19.6438 26.7691 19.8194 26.5652 20.0653 26.4973C21.5757 26.0217 22.9807 25.2744 24.175 24.2213C24.3507 24.0514 24.6317 24.0175 24.8424 24.1194L28.4253 25.5801L31.0598 21.1979L27.9687 18.9559C27.7579 18.82 27.6877 18.5483 27.7228 18.3105C27.8984 17.5631 27.9687 16.7818 27.9687 16.0005C27.9687 15.2192 27.8984 14.4379 27.7228 13.6905C27.6525 13.4527 27.7579 13.2149 27.9687 13.0451L31.0598 10.803L28.4253 6.42087L24.8424 7.88159C24.5966 7.9835 24.3507 7.91556 24.175 7.77968C22.9807 6.7266 21.5757 5.97926 20.0653 5.50367C19.8194 5.43573 19.6438 5.23191 19.6086 4.99412L19.1169 1.22342H13.8831L13.3913 4.96015C13.3562 5.19794 13.1805 5.40176 12.9346 5.4697C11.4242 5.94529 10.0192 6.69263 8.82487 7.74571C8.64924 7.91556 8.36823 7.94953 8.15747 7.84762L4.5746 6.3869L1.97526 10.803L5.06637 13.0451C5.27712 13.181 5.34738 13.4527 5.31225 13.6905C5.13662 14.4379 5.06637 15.1852 5.06637 15.9665C5.06637 16.7478 5.13662 17.5292 5.31225 18.2425C5.3825 18.4803 5.27712 18.7181 5.06637 18.888L1.97526 21.13L4.60972 25.5122L8.15747 24.1194C8.40336 24.0175 8.64924 24.0854 8.82487 24.2213C10.0192 25.2744 11.4242 26.0217 12.9346 26.4973C13.1805 26.5652 13.3562 26.7691 13.3913 27.0069L13.8831 30.7436Z" fill="#373765"/>
</svg>
