<svg width="48" height="48" viewBox="0 0 48 48" fill="none" xmlns="http://www.w3.org/2000/svg">
<path fill-rule="evenodd" clip-rule="evenodd" d="M20.4634 8.97595C20.4634 7.43682 21.6988 6.20135 23.2379 6.20135H24.8515C26.3906 6.20135 27.6261 7.43682 27.6261 8.97595V9.09118C27.6261 9.68026 27.9758 10.2015 28.5305 10.3864L28.5395 10.3894L28.5483 10.3927C29.1946 10.6276 29.7986 10.8686 30.4086 11.1736C30.9328 11.4357 31.5319 11.3326 31.9633 10.9013L32.0786 10.7861C32.0785 10.7861 32.0786 10.786 32.0786 10.7861C33.1587 9.70597 34.9274 9.70594 36.0075 10.7861L37.16 11.9386C38.2402 13.0188 38.2402 14.7874 37.16 15.8675L37.0448 15.9828C36.6167 16.4109 36.512 17.0042 36.7667 17.5256C37.0218 17.9882 37.2308 18.5203 37.4132 18.9845L37.422 19.0069C37.4641 19.114 37.5049 19.2177 37.5455 19.3193L37.5531 19.3384L37.5596 19.358C37.7445 19.9126 38.2658 20.2624 38.8549 20.2624H39.0278C40.5669 20.2624 41.8023 21.4978 41.8023 23.0369V24.6505C41.8023 26.1896 40.5669 27.4251 39.0278 27.4251H38.8549C38.2689 27.4251 37.7501 27.7711 37.5626 28.3206C37.3778 28.9342 37.1331 29.544 36.8301 30.15C36.568 30.6742 36.6711 31.2734 37.1024 31.7047L37.2177 31.82C37.2177 31.82 37.2177 31.82 37.2177 31.82C38.2978 32.9001 38.2978 34.6687 37.2177 35.7489L36.0651 36.9014C34.985 37.9815 33.2164 37.9816 32.1362 36.9015C32.1362 36.9015 32.1363 36.9015 32.1362 36.9015L32.0668 36.8321L32.0556 36.8197C31.7011 36.4298 31.0649 36.301 30.5239 36.5715C29.9139 36.8765 29.3098 37.1174 28.6636 37.3524L28.6547 37.3557L28.6457 37.3587C28.0911 37.5436 27.7413 38.0648 27.7413 38.6539V38.8268C27.7413 40.3659 26.5059 41.6014 24.9668 41.6014H23.3532C21.8141 41.6014 20.5786 40.3659 20.5786 38.8268V38.7691C20.5786 38.1801 20.2289 37.6588 19.6742 37.4739L19.6652 37.4709L19.6373 37.4608C19.0165 37.235 18.3508 36.993 17.7384 36.6868C17.2142 36.4247 16.6151 36.5277 16.1838 36.959L16.1262 37.0166C15.0461 38.0967 13.2773 38.0968 12.1972 37.0167L11.0447 35.8641C9.96451 34.784 9.96451 33.0153 11.0447 31.9352L11.0564 31.9234L11.0688 31.9122C11.4586 31.5578 11.5874 30.9215 11.3169 30.3805C11.0107 29.7681 10.7687 29.1025 10.543 28.4817L10.5328 28.4538L10.5298 28.4448C10.3449 27.8901 9.82362 27.5404 9.23455 27.5404H9.17692C7.63777 27.5404 6.40234 26.3049 6.40234 24.7658V23.1522C6.40234 21.6131 7.63778 20.3776 9.17692 20.3776C9.76033 20.3776 10.2772 20.0346 10.4667 19.4892C10.6588 18.7943 10.9688 18.1184 11.2593 17.5375C11.5214 17.0132 11.4184 16.4141 10.987 15.9828L10.9294 15.9251C9.84926 14.845 9.84926 13.0764 10.9294 11.9962L12.0819 10.8437C13.1621 9.76353 14.9307 9.76353 16.0109 10.8437L16.0684 10.9012C16.4998 11.3326 17.099 11.4357 17.6232 11.1736L17.6348 11.1678L17.6466 11.1624C18.2995 10.8656 18.8929 10.6283 19.5411 10.3927L19.55 10.3894L19.559 10.3864C20.1136 10.2015 20.4634 9.68026 20.4634 9.09118V8.97595ZM23.2379 7.60135C22.472 7.60135 21.8634 8.21 21.8634 8.97595V9.09118C21.8634 10.2278 21.1796 11.3172 20.0113 11.7114C19.3986 11.9343 18.8446 12.156 18.2368 12.432C17.1505 12.9685 15.9119 12.7245 15.0786 11.8913C15.0786 11.8913 15.0786 11.8913 15.0786 11.8913L15.021 11.8337C14.4876 11.3003 13.6053 11.3002 13.0719 11.8336L11.9194 12.9862C11.3859 13.5196 11.3859 14.4018 11.9194 14.9352L11.977 14.9928C11.977 14.9928 11.977 14.9929 11.977 14.9928C12.8134 15.8293 13.0561 17.0743 12.5115 18.1636C12.2287 18.7292 11.9658 19.3133 11.8116 19.8788L11.8065 19.8975L11.8003 19.9159C11.4089 21.0901 10.3167 21.7776 9.17692 21.7776C8.41097 21.7776 7.80234 22.3863 7.80234 23.1522V24.7658C7.80234 25.5317 8.41099 26.1404 9.17692 26.1404H9.23455C10.3712 26.1404 11.4606 26.8242 11.8547 27.9925C12.0869 28.6309 12.3033 29.2229 12.5691 29.7544C13.1024 30.821 12.8908 32.1354 12.025 32.9348C11.5012 33.4692 11.5044 34.344 12.0346 34.8742L13.1871 36.0267C13.7205 36.5601 14.6027 36.5601 15.1361 36.0268L15.1937 35.9692C16.0302 35.1327 17.2752 34.8899 18.3645 35.4346C18.8961 35.7004 19.4882 35.9168 20.1265 36.149C21.2948 36.5431 21.9786 37.6325 21.9786 38.7691V38.8268C21.9786 39.5927 22.5872 40.2014 23.3532 40.2014H24.9668C25.7327 40.2014 26.3413 39.5927 26.3413 38.8268V38.6539C26.3413 37.5173 27.0251 36.4279 28.1933 36.0338C28.8115 35.8088 29.3576 35.5894 29.8978 35.3193C30.9649 34.7858 32.28 34.9979 33.0793 35.8647L33.1261 35.9114C33.6595 36.4448 34.5418 36.4449 35.0752 35.9115L36.2277 34.7589C36.7611 34.2255 36.7611 33.3433 36.2277 32.8099L36.1125 32.6947C36.1124 32.6946 36.1125 32.6947 36.1125 32.6947C35.276 31.8582 35.0333 30.6132 35.5779 29.5239C35.8494 28.9811 36.0645 28.4421 36.2251 27.907L36.2281 27.8968L36.2315 27.8868C36.6229 26.7126 37.7152 26.0251 38.8549 26.0251H39.0278C39.7937 26.0251 40.4023 25.4165 40.4023 24.6505V23.0369C40.4023 22.271 39.7937 21.6624 39.0278 21.6624H38.8549C37.7219 21.6624 36.6358 20.9829 36.2385 19.8214C36.1984 19.721 36.1585 19.6194 36.1191 19.5191C35.9245 19.024 35.7438 18.5672 35.5345 18.1905L35.5271 18.1772L35.5203 18.1636C34.9757 17.0742 35.2184 15.8293 36.0548 14.9928L36.1701 14.8776C36.7035 14.3442 36.7035 13.462 36.1701 12.9286L35.0175 11.776C34.4841 11.2426 33.6019 11.2426 33.0685 11.776L32.9533 11.8912C32.9532 11.8913 32.9533 11.8912 32.9533 11.8912C32.1168 12.7276 30.8718 12.9704 29.7825 12.4258C29.2424 12.1557 28.6963 11.9363 28.0781 11.7114C26.9099 11.3172 26.2261 10.2278 26.2261 9.09118V8.97595C26.2261 8.21 25.6174 7.60135 24.8515 7.60135H23.2379ZM16.0017 24.1152C16.0017 19.5865 19.673 15.9152 24.2017 15.9152C28.7304 15.9152 32.4017 19.5865 32.4017 24.1152C32.4017 28.644 28.7304 32.3152 24.2017 32.3152C19.673 32.3152 16.0017 28.644 16.0017 24.1152ZM24.2017 17.3152C20.4462 17.3152 17.4017 20.3597 17.4017 24.1152C17.4017 27.8708 20.4462 30.9152 24.2017 30.9152C27.9572 30.9152 31.0017 27.8708 31.0017 24.1152C31.0017 20.3597 27.9572 17.3152 24.2017 17.3152Z" fill="#353570"/>
</svg>
