<svg viewBox="0 0 21 20" fill="none" xmlns="http://www.w3.org/2000/svg">
<path d="M7.20898 6.98928L10.5423 1.39783L13.209 6.98928L19.8757 7.68821L15.209 12.5807L15.8757 18.8711L10.5423 16.0754L5.20898 18.8711L5.87565 12.5807L1.20898 7.68821L7.20898 6.98928Z" fill="#FFA54B"/>
<path d="M20.5065 7.56176C20.4134 7.21971 20.1341 7.02425 19.8081 6.92652L13.9413 6.04696L11.3338 0.476427C11.0544 -0.158809 10.0766 -0.158809 9.79724 0.476427L7.18976 6.04696L1.88166 6.82879L1.27636 6.92652C0.95042 6.97539 0.671046 7.21971 0.577922 7.56176C0.484797 7.90381 0.577922 8.24586 0.810733 8.49018L1.88166 9.5652L5.04789 12.8391L4.95477 13.5232L4.58227 15.7221L4.02353 18.9471C4.02353 19.0937 4.02353 19.1915 4.02353 19.2892C4.07009 19.4847 4.20978 19.6801 4.34946 19.8267C4.62884 20.0222 4.95477 20.071 5.23414 19.8756L6.30508 19.2892L10.4957 16.9926L14.6863 19.2892L15.7572 19.8756C15.8969 19.9244 16.0366 19.9733 16.1763 19.9733C16.3625 19.9733 16.5488 19.9244 16.6884 19.7778C16.8747 19.6313 16.9678 19.4847 17.0144 19.2403C17.0144 19.1426 17.0609 18.996 17.0144 18.8983L16.4556 15.6244L16.1297 13.5232L16.0366 12.8391L20.2737 8.49018C20.5065 8.24586 20.5997 7.90381 20.5065 7.56176ZM14.5 11.8618C14.3138 12.0573 14.2207 12.3505 14.2672 12.6436L14.4069 13.4743L14.7794 15.6732L15.0588 17.4812L11.7994 15.6732L10.9147 15.1846C10.775 15.1357 10.6354 15.0869 10.4957 15.0869C10.356 15.0869 10.2163 15.1357 10.0766 15.1846L9.19193 15.6732L5.93258 17.4812L6.21195 15.6732L6.58445 13.4743L6.72413 12.6436C6.7707 12.3505 6.67757 12.0573 6.49132 11.8618L3.13884 8.44131L7.7485 7.75722C8.02788 7.70835 8.26069 7.51289 8.40037 7.26857L10.4491 2.87078L12.4978 7.26857C12.6375 7.51289 12.8703 7.70835 13.1497 7.75722L17.7594 8.44131L14.5 11.8618Z" fill="#FFA54B"/>
</svg>
