<svg viewBox="0 0 25 25" fill="none" xmlns="http://www.w3.org/2000/svg">
<path fill-rule="evenodd" clip-rule="evenodd" d="M12.4753 4.87512C8.2581 4.85156 4.80185 8.21963 4.77834 12.4274L4.77832 12.4302C4.73125 16.6427 8.12025 20.101 12.3304 20.1245L12.3332 20.1245C16.5456 20.1716 20.0038 16.7825 20.0273 12.5722L20.0273 12.5694C20.0744 8.35687 16.6854 4.89864 12.4753 4.87512ZM3.77836 12.4204C3.80577 7.65151 7.72144 3.84855 12.4809 3.87514C17.2473 3.90177 21.0798 7.81515 21.0273 12.5792C20.9999 17.3451 17.0869 21.1769 12.3234 21.1245C7.55762 21.0971 3.7259 17.184 3.77836 12.4204Z" fill="#FFA54B"/>
<path d="M12.4194 13.75C11.7123 13.75 11.1567 13.1945 11.1567 12.5126V12.4874C11.1567 11.8055 11.7123 11.25 12.3941 11.25H12.4194C13.1012 11.25 13.6568 11.8055 13.6568 12.4874V12.5126C13.6568 13.1945 13.1012 13.75 12.4194 13.75Z" fill="#FFA54B"/>
<path d="M17.1894 13.75C16.4823 13.75 15.9268 13.1945 15.9268 12.5126V12.4874C15.9268 11.8055 16.4823 11.25 17.1641 11.25H17.1894C17.8712 11.25 18.4268 11.8055 18.4268 12.4874V12.5126C18.4268 13.1945 17.8712 13.75 17.1894 13.75Z" fill="#FFA54B"/>
<path d="M7.64959 13.75C6.94252 13.75 6.38696 13.1945 6.38696 12.5126V12.4874C6.38696 11.8055 6.94253 11.25 7.62435 11.25H7.64959C8.33141 11.25 8.88698 11.8055 8.88698 12.4874V12.5126C8.88698 13.1945 8.33141 13.75 7.64959 13.75Z" fill="#FFA54B"/>
</svg>
 