<svg width="35" height="35" viewBox="0 0 35 35" fill="none" xmlns="http://www.w3.org/2000/svg">
<path d="M17.5071 35H17.3583C12.717 34.9812 8.27325 33.1195 5.00465 29.8243C1.73605 26.5291 -0.0186413 22.1413 0.000149359 17.5C0.01894 12.8587 1.80971 8.34416 5.10488 5.07556C8.40006 1.80696 12.8587 -0.018769 17.5 2.15506e-05H17.6417C22.283 0.0178728 26.7271 1.87874 29.9964 5.17324C33.2656 8.46775 35.0179 12.8587 35 17.5C34.9821 22.1413 33.1957 26.6527 29.9012 29.922C26.6066 33.1913 22.1484 35.0179 17.5071 35Z" fill="#FFC78F"/>
<g clip-path="url(#clip0_1484_7143)">
<path d="M17.5073 35H17.3585C12.7172 34.9812 8.27344 33.1195 5.00484 29.8243C1.73624 26.5291 -0.0894478 22.0705 -0.0706572 17.4292C-0.0518665 12.7879 1.8099 8.34416 5.10507 5.07556C8.40025 1.80696 12.8589 -0.018769 17.5002 2.15506e-05H17.6419C22.2832 0.0178728 26.7273 1.87874 29.9966 5.17324C33.2658 8.46775 35.0924 12.926 35.0746 17.5673C35.0567 22.2086 33.1959 26.6527 29.9013 29.922C26.6068 33.1913 22.1486 35.0179 17.5073 35V35ZM17.5073 1.77128C13.3358 1.75437 9.32833 3.39528 6.36666 6.33304C3.40499 9.27079 1.73169 13.2647 1.71478 17.4363C1.69787 21.6078 3.33879 25.6152 6.27654 28.5769C9.2143 31.5385 13.2082 33.2119 17.3798 33.2288H17.5143C21.6858 33.2448 25.6929 31.6029 28.6539 28.6645C31.6149 25.7261 33.2873 21.7318 33.3033 17.5602C33.3193 13.3887 31.6775 9.38172 28.739 6.42071C25.8006 3.45971 21.8063 1.78725 17.6348 1.77128H17.5073Z" fill="#4E4E8D"/>
<path d="M17.5073 35H17.3585C12.7172 34.9812 8.27344 33.1195 5.00484 29.8243C1.73624 26.5291 -0.0894478 22.0705 -0.0706572 17.4292C-0.0518665 12.7879 1.8099 8.34416 5.10507 5.07556C8.40025 1.80696 12.8589 -0.018769 17.5002 2.15506e-05H17.6419C22.2832 0.0178728 26.7273 1.87874 29.9966 5.17324C33.2658 8.46775 35.0924 12.926 35.0746 17.5673C35.0567 22.2086 33.1959 26.6527 29.9013 29.922C26.6068 33.1913 22.1486 35.0179 17.5073 35V35ZM17.5073 1.77128C13.3358 1.75437 9.32833 3.39528 6.36666 6.33304C3.40499 9.27079 1.73169 13.2647 1.71478 17.4363C1.69787 21.6078 3.33879 25.6152 6.27654 28.5769C9.2143 31.5385 13.2082 33.2119 17.3798 33.2288H17.5143C21.6858 33.2448 25.6929 31.6029 28.6539 28.6645C31.6149 25.7261 33.2873 21.7318 33.3033 17.5602C33.3193 13.3887 31.6775 9.38172 28.739 6.42071C25.8006 3.45971 21.8063 1.78725 17.6348 1.77128H17.5073Z" fill="black" fill-opacity="0.2"/>
<path d="M17.6204 22.665C17.3385 22.665 17.0682 22.553 16.8689 22.3537C16.6696 22.1544 16.5576 21.8841 16.5576 21.6022V9.80567C16.5576 9.52381 16.6696 9.25349 16.8689 9.05419C17.0682 8.85488 17.3385 8.74292 17.6204 8.74292C17.9022 8.74292 18.1726 8.85488 18.3719 9.05419C18.5712 9.25349 18.6831 9.52381 18.6831 9.80567V21.6022C18.6831 21.8841 18.5712 22.1544 18.3719 22.3537C18.1726 22.553 17.9022 22.665 17.6204 22.665Z" fill="#4E4E8D"/>
<path d="M17.6204 22.665C17.3385 22.665 17.0682 22.553 16.8689 22.3537C16.6696 22.1544 16.5576 21.8841 16.5576 21.6022V9.80567C16.5576 9.52381 16.6696 9.25349 16.8689 9.05419C17.0682 8.85488 17.3385 8.74292 17.6204 8.74292C17.9022 8.74292 18.1726 8.85488 18.3719 9.05419C18.5712 9.25349 18.6831 9.52381 18.6831 9.80567V21.6022C18.6831 21.8841 18.5712 22.1544 18.3719 22.3537C18.1726 22.553 17.9022 22.665 17.6204 22.665Z" fill="black" fill-opacity="0.2"/>
<path d="M17.6204 26.3421C18.0391 26.3421 18.3785 26.0566 18.3785 25.7044C18.3785 25.3523 18.0391 25.0668 17.6204 25.0668C17.2017 25.0668 16.8623 25.3523 16.8623 25.7044C16.8623 26.0566 17.2017 26.3421 17.6204 26.3421Z" fill="#4E4E8D"/>
<path d="M17.6204 26.3421C18.0391 26.3421 18.3785 26.0566 18.3785 25.7044C18.3785 25.3523 18.0391 25.0668 17.6204 25.0668C17.2017 25.0668 16.8623 25.3523 16.8623 25.7044C16.8623 26.0566 17.2017 26.3421 17.6204 26.3421Z" fill="black" fill-opacity="0.2"/>
<path d="M17.6206 27.2277C17.3234 27.2056 17.0392 27.0973 16.8028 26.916C16.5663 26.7346 16.3879 26.4882 16.2895 26.207C16.1911 25.9257 16.1769 25.6219 16.2487 25.3327C16.3205 25.0435 16.4752 24.7816 16.6937 24.579C16.9123 24.3765 17.1852 24.2422 17.479 24.1925C17.7728 24.1429 18.0747 24.1801 18.3477 24.2996C18.6207 24.4191 18.8528 24.6157 19.0156 24.8652C19.1785 25.1148 19.2649 25.4064 19.2644 25.7044C19.2478 26.1242 19.0654 26.5202 18.7573 26.8057C18.4492 27.0913 18.0404 27.243 17.6206 27.2277ZM17.6206 25.4564C17.5811 25.4841 17.5493 25.5214 17.5282 25.5648C17.5072 25.6082 17.4975 25.6562 17.5002 25.7044C17.5161 25.7261 17.5373 25.7432 17.5618 25.7543C17.5863 25.7653 17.6131 25.7699 17.6399 25.7675C17.6666 25.765 17.6923 25.7557 17.7144 25.7404C17.7365 25.7252 17.7543 25.7045 17.7661 25.6803C17.7778 25.6562 17.7831 25.6293 17.7815 25.6025C17.7798 25.5757 17.7712 25.5498 17.7566 25.5273C17.7419 25.5048 17.7217 25.4864 17.6979 25.474C17.6741 25.4616 17.6474 25.4555 17.6206 25.4564Z" fill="#4E4E8D"/>
<path d="M17.6206 27.2277C17.3234 27.2056 17.0392 27.0973 16.8028 26.916C16.5663 26.7346 16.3879 26.4882 16.2895 26.207C16.1911 25.9257 16.1769 25.6219 16.2487 25.3327C16.3205 25.0435 16.4752 24.7816 16.6937 24.579C16.9123 24.3765 17.1852 24.2422 17.479 24.1925C17.7728 24.1429 18.0747 24.1801 18.3477 24.2996C18.6207 24.4191 18.8528 24.6157 19.0156 24.8652C19.1785 25.1148 19.2649 25.4064 19.2644 25.7044C19.2478 26.1242 19.0654 26.5202 18.7573 26.8057C18.4492 27.0913 18.0404 27.243 17.6206 27.2277ZM17.6206 25.4564C17.5811 25.4841 17.5493 25.5214 17.5282 25.5648C17.5072 25.6082 17.4975 25.6562 17.5002 25.7044C17.5161 25.7261 17.5373 25.7432 17.5618 25.7543C17.5863 25.7653 17.6131 25.7699 17.6399 25.7675C17.6666 25.765 17.6923 25.7557 17.7144 25.7404C17.7365 25.7252 17.7543 25.7045 17.7661 25.6803C17.7778 25.6562 17.7831 25.6293 17.7815 25.6025C17.7798 25.5757 17.7712 25.5498 17.7566 25.5273C17.7419 25.5048 17.7217 25.4864 17.6979 25.474C17.6741 25.4616 17.6474 25.4555 17.6206 25.4564Z" fill="black" fill-opacity="0.2"/>
</g>
<defs>
<clipPath id="clip0_1484_7143">
<rect width="35" height="35" fill="white"/>
</clipPath>
</defs>
</svg>
