<svg  viewBox="0 0 25 26" fill="none" xmlns="http://www.w3.org/2000/svg">
<g clip-path="url(#clip0_1505_7882)">
<path d="M18.0798 25.5435C17.7057 25.5435 17.3317 25.4195 17.0823 25.1095L11.9701 19.3436H2.61845C1.18454 19.4056 0 18.2276 0 16.7397V2.66595C0 1.17798 1.18454 0 2.6808 0H22.3192C23.8155 0 25 1.17798 25 2.66595V16.7397C25 18.2276 23.8155 19.4056 22.3192 19.4056H19.5137V24.1795C19.5137 24.7375 19.1397 25.2335 18.6409 25.4815C18.4539 25.5435 18.2668 25.5435 18.0798 25.5435ZM2.6808 1.23997C1.87032 1.23997 1.24688 1.85996 1.24688 2.66595V16.7397C1.24688 17.5456 1.87032 18.1656 2.6808 18.1656H12.2818C12.4688 18.1656 12.6559 18.2276 12.7805 18.3516L18.0175 24.3035C18.0798 24.3655 18.1421 24.3035 18.2045 24.3035C18.2668 24.3035 18.3292 24.2415 18.3292 24.1175V18.7236C18.3292 18.3516 18.5786 18.1036 18.9526 18.1036H22.3815C23.192 18.1036 23.8155 17.4836 23.8155 16.6777V2.66595C23.7531 1.85996 23.0673 1.23997 22.3192 1.23997H2.6808Z" fill="#4E4E8D"/>
<path d="M18.0798 25.5435C17.7057 25.5435 17.3317 25.4195 17.0823 25.1095L11.9701 19.3436H2.61845C1.18454 19.4056 0 18.2276 0 16.7397V2.66595C0 1.17798 1.18454 0 2.6808 0H22.3192C23.8155 0 25 1.17798 25 2.66595V16.7397C25 18.2276 23.8155 19.4056 22.3192 19.4056H19.5137V24.1795C19.5137 24.7375 19.1397 25.2335 18.6409 25.4815C18.4539 25.5435 18.2668 25.5435 18.0798 25.5435ZM2.6808 1.23997C1.87032 1.23997 1.24688 1.85996 1.24688 2.66595V16.7397C1.24688 17.5456 1.87032 18.1656 2.6808 18.1656H12.2818C12.4688 18.1656 12.6559 18.2276 12.7805 18.3516L18.0175 24.3035C18.0798 24.3655 18.1421 24.3035 18.2045 24.3035C18.2668 24.3035 18.3292 24.2415 18.3292 24.1175V18.7236C18.3292 18.3516 18.5786 18.1036 18.9526 18.1036H22.3815C23.192 18.1036 23.8155 17.4836 23.8155 16.6777V2.66595C23.7531 1.85996 23.0673 1.23997 22.3192 1.23997H2.6808Z" fill="black" fill-opacity="0.2"/>
<path d="M12.4688 15.8717C12.2194 15.8717 12.0324 15.7477 11.8453 15.6237C11.6583 15.4997 11.5959 15.2517 11.5959 15.0037C11.5959 14.7557 11.7206 14.5697 11.8453 14.3837C12.0324 14.1977 12.3441 14.0737 12.6558 14.1357C12.7181 14.1357 12.7805 14.1357 12.8428 14.1977C12.9052 14.1977 12.9675 14.2597 12.9675 14.2597C12.9675 14.2597 13.0922 14.3217 13.0922 14.3837C13.1546 14.4457 13.1546 14.4457 13.2169 14.5077C13.2169 14.5697 13.2792 14.5697 13.2792 14.6317C13.2792 14.6937 13.3416 14.7557 13.3416 14.8177C13.3416 14.8797 13.3416 14.9417 13.3416 15.0037C13.3416 15.2517 13.2792 15.4377 13.0922 15.6237C12.9675 15.8097 12.7181 15.8717 12.4688 15.8717Z" fill="#4E4E8D"/>
<path d="M12.4688 15.8717C12.2194 15.8717 12.0324 15.7477 11.8453 15.6237C11.6583 15.4997 11.5959 15.2517 11.5959 15.0037C11.5959 14.7557 11.7206 14.5697 11.8453 14.3837C12.0324 14.1977 12.3441 14.0737 12.6558 14.1357C12.7181 14.1357 12.7805 14.1357 12.8428 14.1977C12.9052 14.1977 12.9675 14.2597 12.9675 14.2597C12.9675 14.2597 13.0922 14.3217 13.0922 14.3837C13.1546 14.4457 13.1546 14.4457 13.2169 14.5077C13.2169 14.5697 13.2792 14.5697 13.2792 14.6317C13.2792 14.6937 13.3416 14.7557 13.3416 14.8177C13.3416 14.8797 13.3416 14.9417 13.3416 15.0037C13.3416 15.2517 13.2792 15.4377 13.0922 15.6237C12.9675 15.8097 12.7181 15.8717 12.4688 15.8717Z" fill="black" fill-opacity="0.2"/>
<path d="M12.4689 13.2057C12.0948 13.2057 11.8455 12.9577 11.8455 12.5858V4.02993C11.8455 3.65794 12.0948 3.40994 12.4689 3.40994C12.843 3.40994 13.0923 3.65794 13.0923 4.02993V12.5238C13.0923 12.8957 12.843 13.2057 12.4689 13.2057Z" fill="#4E4E8D"/>
<path d="M12.4689 13.2057C12.0948 13.2057 11.8455 12.9577 11.8455 12.5858V4.02993C11.8455 3.65794 12.0948 3.40994 12.4689 3.40994C12.843 3.40994 13.0923 3.65794 13.0923 4.02993V12.5238C13.0923 12.8957 12.843 13.2057 12.4689 13.2057Z" fill="black" fill-opacity="0.2"/>
</g>
<defs>
<clipPath id="clip0_1505_7882">
<rect width="25" height="25.5435" fill="white"/>
</clipPath>
</defs>
</svg>
