<svg width="40" height="41" viewBox="0 0 40 41" fill="none" xmlns="http://www.w3.org/2000/svg">
<path fill-rule="evenodd" clip-rule="evenodd" d="M10.7067 11.8409C9.85884 11.8409 9.19492 12.504 9.19492 13.3648V24.4462C9.19492 25.307 9.85884 25.97 10.7067 25.97H14.7286L24.9956 26.0534C24.9964 26.0534 24.9971 26.0534 24.9979 26.0534C25.6488 26.0538 26.2959 26.257 26.7928 26.7523L30.3875 30.1188C30.3877 30.119 30.388 30.1192 30.3882 30.1194C30.4711 30.1959 30.5748 30.209 30.6806 30.1606C30.7922 30.1096 30.8561 30.0118 30.8561 29.9036V13.3648C30.8561 12.504 30.1922 11.8409 29.3444 11.8409H10.7067ZM8.07666 13.3648C8.07666 11.8926 9.2351 10.7227 10.7067 10.7227H29.3444C30.816 10.7227 31.9744 11.8926 31.9744 13.3648V29.9036C31.9744 31.0671 30.5468 31.7926 29.6266 30.9382L29.6249 30.9366L26.0143 27.5554L26.0073 27.5483C25.7602 27.2998 25.4175 27.1716 24.9956 27.1716H24.9911L14.7241 27.0883H10.7067C9.2351 27.0883 8.07666 25.9184 8.07666 24.4462V13.3648Z" fill="#353570"/>
<path fill-rule="evenodd" clip-rule="evenodd" d="M20.0254 23.5826C20.3342 23.5826 20.5846 23.3323 20.5846 23.0235V18.0534C20.5846 17.7446 20.3342 17.4943 20.0254 17.4943C19.7166 17.4943 19.4663 17.7446 19.4663 18.0534V23.0235C19.4663 23.3323 19.7166 23.5826 20.0254 23.5826Z" fill="#353570"/>
<path d="M20.0256 14.2017C20.4259 14.2017 20.7504 14.5262 20.7504 14.9265C20.7504 15.3268 20.4259 15.6513 20.0256 15.6513C19.6253 15.6513 19.3008 15.3268 19.3008 14.9265C19.3008 14.5262 19.6253 14.2017 20.0256 14.2017Z" fill="#353570"/>
</svg>
