<svg width="13" height="12" viewBox="0 0 13 12" fill="none" xmlns="http://www.w3.org/2000/svg">
<path fill-rule="evenodd" clip-rule="evenodd" d="M6.5073 0.916639C3.64032 0.884606 1.30038 3.19112 1.26832 6.06034C1.23628 8.92845 3.54369 11.2833 6.41077 11.2993L6.41203 11.2993C9.28014 11.3314 11.635 9.02396 11.651 6.15687L11.651 6.15561C11.683 3.2875 9.37564 0.932667 6.50855 0.91665L6.5073 0.916639ZM6.5117 0.46666C3.39426 0.432169 0.853159 2.94004 0.818352 6.05531C0.783532 9.17166 3.29027 11.7315 6.40756 11.7493C9.52366 11.7838 12.0832 9.27719 12.101 6.16008C12.1355 3.04396 9.62883 0.484417 6.5117 0.46666Z" fill="#171753"/>
<path fill-rule="evenodd" clip-rule="evenodd" d="M8.68172 4.66537C8.77021 4.75262 8.77121 4.89508 8.68396 4.98356L6.07153 7.63295C5.8523 7.85529 5.51213 7.85646 5.29162 7.63646L4.20321 6.61627C4.11255 6.53129 4.10794 6.3889 4.19292 6.29824C4.2779 6.20758 4.42029 6.20297 4.51095 6.28795L5.60222 7.31082C5.60437 7.31283 5.60649 7.3149 5.60856 7.317C5.65272 7.36178 5.70695 7.36178 5.75111 7.317L8.36353 4.66761C8.45078 4.57913 8.59324 4.57812 8.68172 4.66537Z" fill="#171753"/>
</svg>
