<svg viewBox="0 0 17 17" fill="none" xmlns="http://www.w3.org/2000/svg">
<path fill-rule="evenodd" clip-rule="evenodd" d="M3.94364 5.76988C3.66107 5.76988 3.44364 5.98731 3.44364 6.26988V12.6032C3.44364 12.8858 3.66107 13.1032 3.94364 13.1032H10.277C10.5552 13.1032 10.777 12.8735 10.777 12.6032V6.26988C10.777 5.98731 10.5595 5.76988 10.277 5.76988H3.94364ZM2.77698 6.26988C2.77698 5.61912 3.29288 5.10321 3.94364 5.10321H10.277C10.9277 5.10321 11.4436 5.61912 11.4436 6.26988V12.6032C11.4436 13.233 10.9321 13.7699 10.277 13.7699H3.94364C3.29288 13.7699 2.77698 13.254 2.77698 12.6032V6.26988Z" fill="#171753"/>
<path fill-rule="evenodd" clip-rule="evenodd" d="M6.45133 3.26225C6.16876 3.26225 5.95133 3.47968 5.95133 3.76225C5.95133 3.94634 5.8021 4.09558 5.618 4.09558C5.43391 4.09558 5.28467 3.94634 5.28467 3.76225C5.28467 3.11149 5.80057 2.59558 6.45133 2.59558H12.7847C13.4354 2.59558 13.9513 3.11149 13.9513 3.76225V10.0956C13.9513 10.7463 13.4354 11.2622 12.7847 11.2622C12.6006 11.2622 12.4513 11.113 12.4513 10.9289C12.4513 10.7448 12.6006 10.5956 12.7847 10.5956C13.0672 10.5956 13.2847 10.3782 13.2847 10.0956V3.76225C13.2847 3.47968 13.0672 3.26225 12.7847 3.26225H6.45133Z" fill="#171753"/>
</svg>
