<svg viewBox="0 0 23 23" fill="none" xmlns="http://www.w3.org/2000/svg">
<path d="M8.07792 11.6211C6.08305 10.3472 4.98688 8.55197 4.98659 6.16268C4.98659 4.40484 5.66421 2.91132 6.93483 1.69969C9.49937 -0.743721 13.6005 -0.529498 15.9244 2.18285C17.18 3.64844 17.6495 5.36568 17.3294 7.26778C17.0093 9.16987 15.9595 10.6009 14.2968 11.628C14.91 11.8091 15.5076 12.0394 16.0839 12.3164C16.1472 12.3476 16.2022 12.3935 16.244 12.4504C16.2858 12.5073 16.3133 12.5735 16.3242 12.6433C16.335 12.713 16.3289 12.7844 16.3063 12.8513C16.2837 12.9182 16.2453 12.9787 16.1944 13.0276C16.1226 13.0963 16.0517 13.1655 15.9817 13.2349C15.7016 13.5128 15.7033 13.5145 15.3464 13.3501C10.9338 11.3058 5.61815 12.8105 2.9281 16.86C2.03043 18.2018 1.47082 19.741 1.29709 21.3461C1.26226 21.6559 1.21677 21.9645 1.18194 22.2747C1.17043 22.3818 1.12869 22.4077 0.989367 22.3898C0.740049 22.3593 0.488036 22.3576 0.238341 22.3849C0.0443238 22.4068 -0.00317501 22.3875 -0.00115999 22.247C0.0227324 20.7109 0.328441 19.2341 0.967777 17.837C2.24703 15.0404 4.31885 13.0748 7.18325 11.9404C7.42793 11.8433 7.68211 11.7696 7.93168 11.6827C7.98033 11.666 8.03733 11.6671 8.07792 11.6211ZM11.1943 1.24879C10.5388 1.25025 9.8901 1.38114 9.28531 1.63393C8.68053 1.88672 8.13158 2.25645 7.66996 2.72191C7.20834 3.18737 6.84312 3.7394 6.59526 4.34635C6.34739 4.9533 6.22175 5.60323 6.22554 6.25885C6.23561 8.97696 8.48034 11.2013 11.2081 11.1964C13.9514 11.1915 16.1855 8.95047 16.176 6.21509C16.1665 3.46704 13.9304 1.23669 11.1943 1.24879Z" fill="#4E4E8D"/>
<path d="M8.07792 11.6211C6.08305 10.3472 4.98688 8.55197 4.98659 6.16268C4.98659 4.40484 5.66421 2.91132 6.93483 1.69969C9.49937 -0.743721 13.6005 -0.529498 15.9244 2.18285C17.18 3.64844 17.6495 5.36568 17.3294 7.26778C17.0093 9.16987 15.9595 10.6009 14.2968 11.628C14.91 11.8091 15.5076 12.0394 16.0839 12.3164C16.1472 12.3476 16.2022 12.3935 16.244 12.4504C16.2858 12.5073 16.3133 12.5735 16.3242 12.6433C16.335 12.713 16.3289 12.7844 16.3063 12.8513C16.2837 12.9182 16.2453 12.9787 16.1944 13.0276C16.1226 13.0963 16.0517 13.1655 15.9817 13.2349C15.7016 13.5128 15.7033 13.5145 15.3464 13.3501C10.9338 11.3058 5.61815 12.8105 2.9281 16.86C2.03043 18.2018 1.47082 19.741 1.29709 21.3461C1.26226 21.6559 1.21677 21.9645 1.18194 22.2747C1.17043 22.3818 1.12869 22.4077 0.989367 22.3898C0.740049 22.3593 0.488036 22.3576 0.238341 22.3849C0.0443238 22.4068 -0.00317501 22.3875 -0.00115999 22.247C0.0227324 20.7109 0.328441 19.2341 0.967777 17.837C2.24703 15.0404 4.31885 13.0748 7.18325 11.9404C7.42793 11.8433 7.68211 11.7696 7.93168 11.6827C7.98033 11.666 8.03733 11.6671 8.07792 11.6211ZM11.1943 1.24879C10.5388 1.25025 9.8901 1.38114 9.28531 1.63393C8.68053 1.88672 8.13158 2.25645 7.66996 2.72191C7.20834 3.18737 6.84312 3.7394 6.59526 4.34635C6.34739 4.9533 6.22175 5.60323 6.22554 6.25885C6.23561 8.97696 8.48034 11.2013 11.2081 11.1964C13.9514 11.1915 16.1855 8.95047 16.176 6.21509C16.1665 3.46704 13.9304 1.23669 11.1943 1.24879Z" fill="black" fill-opacity="0.2"/>
<path d="M11.2217 22.3187C11.3368 21.8658 11.4436 21.433 11.5527 21.0005C11.7191 20.3403 11.8875 19.6806 12.0516 19.0198C12.0711 18.9362 12.1141 18.8598 12.1756 18.7998C14.5745 16.4004 16.9719 14.0009 19.3678 11.6015C19.6845 11.2847 20.0011 10.9729 20.3129 10.6536C20.3837 10.581 20.4243 10.583 20.4951 10.6536C21.3097 11.474 22.1271 12.2915 22.9473 13.1059C23.0504 13.2079 22.9802 13.2464 22.92 13.3075C20.5768 15.652 18.2337 17.9968 15.8908 20.3417C15.5279 20.7047 15.1653 21.068 14.8029 21.4316C14.7473 21.4907 14.6757 21.5325 14.5968 21.5519C13.5166 21.8174 12.4366 22.0838 11.357 22.3512C11.3095 22.3633 11.2231 22.4287 11.2217 22.3187ZM12.9396 20.5954C12.9177 20.6904 12.9776 20.6697 13.0289 20.657C13.3406 20.5802 13.6518 20.5007 13.9644 20.4267C14.0388 20.4093 14.1066 20.3706 14.1593 20.3153C15.1651 19.3067 16.1716 18.2989 17.1789 17.2919C18.5081 15.9619 19.8377 14.6325 21.1678 13.3037C21.2614 13.2102 21.2542 13.1629 21.1358 13.0616C20.922 12.879 20.7228 12.6799 20.54 12.4661C20.4392 12.3484 20.396 12.3317 20.3031 12.4258C19.8258 12.9116 19.3422 13.3913 18.8609 13.8733L13.2977 19.4411C13.2571 19.4814 13.2114 19.5174 13.1961 19.5773C13.1109 19.9168 13.0254 20.2562 12.9396 20.5954V20.5954Z" fill="#4E4E8D"/>
<path d="M11.2217 22.3187C11.3368 21.8658 11.4436 21.433 11.5527 21.0005C11.7191 20.3403 11.8875 19.6806 12.0516 19.0198C12.0711 18.9362 12.1141 18.8598 12.1756 18.7998C14.5745 16.4004 16.9719 14.0009 19.3678 11.6015C19.6845 11.2847 20.0011 10.9729 20.3129 10.6536C20.3837 10.581 20.4243 10.583 20.4951 10.6536C21.3097 11.474 22.1271 12.2915 22.9473 13.1059C23.0504 13.2079 22.9802 13.2464 22.92 13.3075C20.5768 15.652 18.2337 17.9968 15.8908 20.3417C15.5279 20.7047 15.1653 21.068 14.8029 21.4316C14.7473 21.4907 14.6757 21.5325 14.5968 21.5519C13.5166 21.8174 12.4366 22.0838 11.357 22.3512C11.3095 22.3633 11.2231 22.4287 11.2217 22.3187ZM12.9396 20.5954C12.9177 20.6904 12.9776 20.6697 13.0289 20.657C13.3406 20.5802 13.6518 20.5007 13.9644 20.4267C14.0388 20.4093 14.1066 20.3706 14.1593 20.3153C15.1651 19.3067 16.1716 18.2989 17.1789 17.2919C18.5081 15.9619 19.8377 14.6325 21.1678 13.3037C21.2614 13.2102 21.2542 13.1629 21.1358 13.0616C20.922 12.879 20.7228 12.6799 20.54 12.4661C20.4392 12.3484 20.396 12.3317 20.3031 12.4258C19.8258 12.9116 19.3422 13.3913 18.8609 13.8733L13.2977 19.4411C13.2571 19.4814 13.2114 19.5174 13.1961 19.5773C13.1109 19.9168 13.0254 20.2562 12.9396 20.5954V20.5954Z" fill="black" fill-opacity="0.2"/>
<path d="M21.7778 22.3896C21.6293 22.3896 21.4802 22.3821 21.3319 22.3919C21.2168 22.3994 21.1745 22.3631 21.1655 22.2442C21.1304 21.7613 21.108 21.2767 21.0294 20.7979C20.874 19.84 20.5758 18.9109 20.1448 18.0415C20.093 17.9367 20.1013 17.8779 20.1865 17.797C20.4338 17.5632 20.6721 17.3196 20.9099 17.0772C20.979 17.006 21.0144 16.9908 21.0703 17.0944C21.9302 18.7069 22.3743 20.4268 22.4025 22.2543C22.4039 22.3611 22.3769 22.3982 22.2672 22.3936C22.1045 22.3853 21.941 22.3916 21.7778 22.3916V22.3896Z" fill="#4E4E8D"/>
<path d="M21.7778 22.3896C21.6293 22.3896 21.4802 22.3821 21.3319 22.3919C21.2168 22.3994 21.1745 22.3631 21.1655 22.2442C21.1304 21.7613 21.108 21.2767 21.0294 20.7979C20.874 19.84 20.5758 18.9109 20.1448 18.0415C20.093 17.9367 20.1013 17.8779 20.1865 17.797C20.4338 17.5632 20.6721 17.3196 20.9099 17.0772C20.979 17.006 21.0144 16.9908 21.0703 17.0944C21.9302 18.7069 22.3743 20.4268 22.4025 22.2543C22.4039 22.3611 22.3769 22.3982 22.2672 22.3936C22.1045 22.3853 21.941 22.3916 21.7778 22.3916V22.3896Z" fill="black" fill-opacity="0.2"/>
</svg>
