<svg viewBox="0 0 17 17" fill="none" xmlns="http://www.w3.org/2000/svg">
<path fill-rule="evenodd" clip-rule="evenodd" d="M12.557 3.18448C12.3213 2.9467 11.9348 2.9467 11.6991 3.18448L11.6978 3.1858L4.26451 10.6003L3.82462 11.9184L5.2082 11.4707L12.557 4.05807C12.7944 3.81869 12.7944 3.42385 12.557 3.18448ZM11.2263 2.71441C11.7229 2.21427 12.5342 2.2145 13.0305 2.71511C13.5254 3.21436 13.5254 4.02818 13.0305 4.52743L5.56757 12.0551L3.71595 12.6542L3.7053 12.6569C3.32283 12.7533 2.9914 12.4085 3.0839 12.0353L3.08707 12.0224L3.68205 10.2397L11.2256 2.71511C11.2259 2.71488 11.2261 2.71464 11.2263 2.71441Z" fill="#171753"/>
<path fill-rule="evenodd" clip-rule="evenodd" d="M4.45766 10.3675C4.39667 10.1976 4.21075 10.1066 4.03856 10.164C3.86391 10.2223 3.76953 10.411 3.82774 10.5857L4.14397 10.4803C3.82774 10.5857 3.82782 10.5859 3.82789 10.5861L3.82804 10.5866L3.82836 10.5875L3.82904 10.5895L3.83064 10.5941L3.8348 10.6053C3.83802 10.6137 3.84217 10.6239 3.8474 10.636C3.85786 10.66 3.87263 10.6911 3.89301 10.7284C3.9338 10.8032 3.99677 10.9028 4.09201 11.0218C4.28262 11.2601 4.60075 11.5743 5.12574 11.9243C5.27891 12.0264 5.48587 11.985 5.58799 11.8318C5.6901 11.6787 5.64871 11.4717 5.49554 11.3696C5.02052 11.0529 4.75532 10.7838 4.61259 10.6054C4.54117 10.5161 4.49998 10.449 4.47827 10.4092C4.4674 10.3893 4.46134 10.376 4.45878 10.3702C4.45828 10.369 4.45791 10.3681 4.45766 10.3675Z" fill="#171753"/>
<path fill-rule="evenodd" clip-rule="evenodd" d="M10.5586 3.43328C10.6424 3.26932 10.8431 3.20428 11.0071 3.288L10.8555 3.58487C11.0071 3.288 11.007 3.28795 11.0071 3.288L11.008 3.28846L11.0091 3.28906L11.0123 3.2907L11.0218 3.29576C11.0296 3.29991 11.0401 3.30566 11.0531 3.31303C11.0791 3.32777 11.1153 3.34902 11.1596 3.37705C11.2483 3.43307 11.3702 3.51649 11.5098 3.62953C11.7884 3.85515 12.1414 4.20199 12.4395 4.6882C12.5357 4.84515 12.4865 5.05038 12.3295 5.14659C12.1726 5.24281 11.9673 5.19357 11.8711 5.03661C11.6214 4.62932 11.3246 4.3374 11.0902 4.14762C10.9733 4.05296 10.873 3.98453 10.8035 3.94062C10.7688 3.91869 10.7419 3.90296 10.7247 3.8932C10.7161 3.88832 10.7099 3.88495 10.7063 3.88304L10.703 3.88129C10.7028 3.88119 10.7029 3.88122 10.703 3.88129L10.7037 3.88165C10.5399 3.79787 10.4749 3.59717 10.5586 3.43328Z" fill="#171753"/>
<path fill-rule="evenodd" clip-rule="evenodd" d="M3.06836 13.5338C3.06836 13.3497 3.2176 13.2004 3.40169 13.2004H13.4017C13.5858 13.2004 13.735 13.3497 13.735 13.5338C13.735 13.7179 13.5858 13.8671 13.4017 13.8671H3.40169C3.2176 13.8671 3.06836 13.7179 3.06836 13.5338Z" fill="#171753"/>
</svg>
