<svg viewBox="0 0 25 22" fill="none" xmlns="http://www.w3.org/2000/svg">
<path d="M24.4682 1.39154H0.531982V21.0564H24.4682V1.39154Z" stroke="#4E4E8D" stroke-linecap="round" stroke-linejoin="round"/>
<path d="M24.4682 1.39154H0.531982V21.0564H24.4682V1.39154Z" stroke="black" stroke-opacity="0.2" stroke-linecap="round" stroke-linejoin="round"/>
<path d="M16.4308 10.579L14.6861 13.5576L10.7127 6.77188L4.51587 17.3489H12.468H16.9042H20.3989L16.4308 10.579Z" stroke="#4E4E8D" stroke-linecap="round" stroke-linejoin="round"/>
<path d="M16.4308 10.579L14.6861 13.5576L10.7127 6.77188L4.51587 17.3489H12.468H16.9042H20.3989L16.4308 10.579Z" stroke="black" stroke-opacity="0.2" stroke-linecap="round" stroke-linejoin="round"/>
<path d="M16.4893 8.44471C17.4264 8.44471 18.1861 7.69576 18.1861 6.77188C18.1861 5.84801 17.4264 5.09906 16.4893 5.09906C15.5522 5.09906 14.7925 5.84801 14.7925 6.77188C14.7925 7.69576 15.5522 8.44471 16.4893 8.44471Z" stroke="#4E4E8D" stroke-linecap="round" stroke-linejoin="round"/>
<path d="M16.4893 8.44471C17.4264 8.44471 18.1861 7.69576 18.1861 6.77188C18.1861 5.84801 17.4264 5.09906 16.4893 5.09906C15.5522 5.09906 14.7925 5.84801 14.7925 6.77188C14.7925 7.69576 15.5522 8.44471 16.4893 8.44471Z" stroke="black" stroke-opacity="0.2" stroke-linecap="round" stroke-linejoin="round"/>
</svg>
