<svg width="40" height="41" viewBox="0 0 40 41" fill="none" xmlns="http://www.w3.org/2000/svg">
<path fill-rule="evenodd" clip-rule="evenodd" d="M10.6983 11.8782C9.86548 11.8782 9.21344 12.5292 9.21344 13.3751V24.4104C9.21344 25.2563 9.86548 25.9073 10.6983 25.9073H11.3062L24.9277 25.9902C24.9282 25.9902 24.9288 25.9902 24.9294 25.9902C25.582 25.9906 26.2321 26.1942 26.7317 26.6921L30.3111 30.0442C30.3109 30.044 30.3113 30.0444 30.3111 30.0442C30.3869 30.1141 30.4816 30.1274 30.5804 30.0822C30.6851 30.0343 30.7431 29.9437 30.7431 29.845V13.3751C30.7431 12.5292 30.0911 11.8782 29.2583 11.8782H10.6983ZM8.05859 13.3751C8.05859 11.8978 9.22133 10.7234 10.6983 10.7234H29.2583C30.7353 10.7234 31.898 11.8978 31.898 13.3751V29.845C31.898 31.0205 30.4558 31.7543 29.5254 30.8905L29.5236 30.8888L25.9277 27.5214L25.9205 27.5141C25.6791 27.2713 25.3435 27.1451 24.9277 27.1451L24.9241 27.1451L11.3027 27.0621H10.6983C9.22133 27.0621 8.05859 25.8877 8.05859 24.4104V13.3751Z" fill="#353570"/>
<path d="M19.1167 22.62C19.1167 23.0186 19.4399 23.3418 19.8385 23.3418C20.2371 23.3418 20.5603 23.0186 20.5603 22.62C20.5603 22.2213 20.2371 21.8982 19.8385 21.8982C19.4399 21.8982 19.1167 22.2213 19.1167 22.62Z" fill="#353570"/>
<path d="M22.5177 15.5281C22.3103 15.1545 21.9785 14.8224 21.5637 14.6148C21.1489 14.3657 20.6927 14.2827 20.112 14.2827C19.4899 14.2827 18.9507 14.4073 18.5359 14.6563C18.1212 14.9054 17.7894 15.2375 17.582 15.6526C17.4565 15.9039 17.3613 16.1551 17.3058 16.4248C17.2434 16.7277 17.5009 16.981 17.8101 16.981C18.1193 16.981 18.3618 16.7251 18.4504 16.4289C18.4843 16.3157 18.5275 16.2091 18.5774 16.1093C18.7018 15.8602 18.9092 15.6526 19.1996 15.4866C19.4484 15.3205 19.7802 15.279 20.112 15.279C20.4438 15.279 20.6927 15.362 20.9416 15.4866C21.1904 15.6111 21.3563 15.7772 21.5222 16.0262C21.6467 16.2753 21.7296 16.5659 21.7296 16.8565C21.7296 17.3131 21.6052 17.6867 21.3149 17.9773C21.0245 18.2679 20.6098 18.434 20.0291 18.434C19.571 18.434 19.1996 18.8054 19.1996 19.2635V20.095C19.1996 20.4157 19.4595 20.6756 19.7802 20.6756C20.1009 20.6756 20.3609 20.4157 20.3609 20.095V20.003C20.3609 19.6551 20.6289 19.3751 20.9675 19.2951C21.1674 19.2479 21.3504 19.1842 21.5222 19.0982C21.937 18.8906 22.2688 18.5585 22.4762 18.1849C22.6836 17.8113 22.808 17.3961 22.808 16.9395V16.815C22.8495 16.3168 22.7665 15.9017 22.5177 15.5281Z" fill="#353570"/>
</svg>
