<svg viewBox="0 0 25 26" fill="none" xmlns="http://www.w3.org/2000/svg">
<path d="M6.85786 25.5435C6.67082 25.5435 6.48379 25.4815 6.29676 25.4195C5.73566 25.1715 5.42394 24.6755 5.42394 24.1175V19.3436H2.6808C1.18454 19.4056 0 18.2276 0 16.7397V2.66595C0 1.17798 1.18454 0 2.6808 0H22.3192C23.8155 0 25 1.17798 25 2.66595V16.7397C25 18.2276 23.8155 19.4056 22.3192 19.4056H12.9676L7.91771 25.1095C7.60599 25.4195 7.23192 25.5435 6.85786 25.5435ZM2.6808 1.23997C1.87032 1.23997 1.24688 1.85996 1.24688 2.66595V16.7397C1.24688 17.5456 1.87032 18.1656 2.6808 18.1656H6.10973C6.48379 18.1656 6.73317 18.4136 6.73317 18.7856V24.1795C6.73317 24.2415 6.79551 24.3035 6.85786 24.3655C6.9202 24.3655 6.98254 24.3655 7.04489 24.3035L12.2818 18.4136C12.4065 18.2896 12.5935 18.2276 12.7805 18.2276H22.3815C23.192 18.2276 23.8155 17.6076 23.8155 16.8017V2.66595C23.7531 1.85996 23.0673 1.23997 22.3192 1.23997H2.6808Z" fill="#4E4E8D"/>
<path d="M6.85786 25.5435C6.67082 25.5435 6.48379 25.4815 6.29676 25.4195C5.73566 25.1715 5.42394 24.6755 5.42394 24.1175V19.3436H2.6808C1.18454 19.4056 0 18.2276 0 16.7397V2.66595C0 1.17798 1.18454 0 2.6808 0H22.3192C23.8155 0 25 1.17798 25 2.66595V16.7397C25 18.2276 23.8155 19.4056 22.3192 19.4056H12.9676L7.91771 25.1095C7.60599 25.4195 7.23192 25.5435 6.85786 25.5435ZM2.6808 1.23997C1.87032 1.23997 1.24688 1.85996 1.24688 2.66595V16.7397C1.24688 17.5456 1.87032 18.1656 2.6808 18.1656H6.10973C6.48379 18.1656 6.73317 18.4136 6.73317 18.7856V24.1795C6.73317 24.2415 6.79551 24.3035 6.85786 24.3655C6.9202 24.3655 6.98254 24.3655 7.04489 24.3035L12.2818 18.4136C12.4065 18.2896 12.5935 18.2276 12.7805 18.2276H22.3815C23.192 18.2276 23.8155 17.6076 23.8155 16.8017V2.66595C23.7531 1.85996 23.0673 1.23997 22.3192 1.23997H2.6808Z" fill="black" fill-opacity="0.2"/>
<path d="M12.4687 13.2057C12.0947 13.2057 11.8453 12.9577 11.8453 12.5857V12.2137C11.8453 10.7258 12.7181 9.85779 13.4662 9.11381C14.2144 8.36982 14.7131 7.81184 14.7131 6.94385C14.7131 5.70388 13.7156 4.7739 12.5311 4.7739C11.3465 4.7739 10.349 5.76588 10.349 6.94385C10.349 7.31585 10.0997 7.56384 9.72559 7.56384C9.35153 7.56384 9.10215 7.31585 9.10215 6.94385C9.03981 4.9599 10.5984 3.40993 12.4687 3.40993C14.3391 3.40993 15.8977 4.9599 15.8977 6.81986C15.8977 8.30783 15.0248 9.11381 14.3391 9.85779C13.5909 10.6638 13.0922 11.1598 13.0922 12.0897V12.4617C13.0922 12.8957 12.8428 13.2057 12.4687 13.2057Z" fill="#4E4E8D"/>
<path d="M12.4687 13.2057C12.0947 13.2057 11.8453 12.9577 11.8453 12.5857V12.2137C11.8453 10.7258 12.7181 9.85779 13.4662 9.11381C14.2144 8.36982 14.7131 7.81184 14.7131 6.94385C14.7131 5.70388 13.7156 4.7739 12.5311 4.7739C11.3465 4.7739 10.349 5.76588 10.349 6.94385C10.349 7.31585 10.0997 7.56384 9.72559 7.56384C9.35153 7.56384 9.10215 7.31585 9.10215 6.94385C9.03981 4.9599 10.5984 3.40993 12.4687 3.40993C14.3391 3.40993 15.8977 4.9599 15.8977 6.81986C15.8977 8.30783 15.0248 9.11381 14.3391 9.85779C13.5909 10.6638 13.0922 11.1598 13.0922 12.0897V12.4617C13.0922 12.8957 12.8428 13.2057 12.4687 13.2057Z" fill="black" fill-opacity="0.2"/>
<path d="M12.4688 15.9337C12.4064 15.9337 12.3441 15.9337 12.2817 15.9337C12.2194 15.9337 12.157 15.9337 12.0947 15.8717C12.0324 15.8717 11.97 15.8097 11.97 15.8097C11.97 15.8097 11.9077 15.7477 11.8453 15.6857C11.6583 15.4997 11.5959 15.3137 11.5959 15.0657C11.5959 15.0037 11.5959 14.9417 11.5959 14.8797C11.5959 14.8177 11.5959 14.7557 11.6583 14.6937C11.6583 14.6317 11.7206 14.5697 11.7206 14.5697C11.7206 14.5077 11.783 14.5077 11.8453 14.4457C11.9077 14.3837 11.9077 14.3837 11.97 14.3217C12.0324 14.2597 12.0947 14.2597 12.0947 14.2597C12.157 14.2597 12.2194 14.1977 12.2817 14.1977C12.5311 14.1357 12.8428 14.2597 13.0922 14.4457C13.1546 14.5077 13.1546 14.5077 13.2169 14.5697C13.2169 14.6317 13.2792 14.6937 13.2792 14.6937C13.2792 14.7557 13.3416 14.8177 13.3416 14.8797C13.3416 14.9417 13.3416 15.0037 13.3416 15.0657C13.3416 15.3137 13.2169 15.4997 13.0922 15.6857C12.9675 15.8097 12.7181 15.9337 12.4688 15.9337Z" fill="#4E4E8D"/>
<path d="M12.4688 15.9337C12.4064 15.9337 12.3441 15.9337 12.2817 15.9337C12.2194 15.9337 12.157 15.9337 12.0947 15.8717C12.0324 15.8717 11.97 15.8097 11.97 15.8097C11.97 15.8097 11.9077 15.7477 11.8453 15.6857C11.6583 15.4997 11.5959 15.3137 11.5959 15.0657C11.5959 15.0037 11.5959 14.9417 11.5959 14.8797C11.5959 14.8177 11.5959 14.7557 11.6583 14.6937C11.6583 14.6317 11.7206 14.5697 11.7206 14.5697C11.7206 14.5077 11.783 14.5077 11.8453 14.4457C11.9077 14.3837 11.9077 14.3837 11.97 14.3217C12.0324 14.2597 12.0947 14.2597 12.0947 14.2597C12.157 14.2597 12.2194 14.1977 12.2817 14.1977C12.5311 14.1357 12.8428 14.2597 13.0922 14.4457C13.1546 14.5077 13.1546 14.5077 13.2169 14.5697C13.2169 14.6317 13.2792 14.6937 13.2792 14.6937C13.2792 14.7557 13.3416 14.8177 13.3416 14.8797C13.3416 14.9417 13.3416 15.0037 13.3416 15.0657C13.3416 15.3137 13.2169 15.4997 13.0922 15.6857C12.9675 15.8097 12.7181 15.9337 12.4688 15.9337Z" fill="black" fill-opacity="0.2"/>
</svg>
