<svg viewBox="0 0 20 24" fill="none" xmlns="http://www.w3.org/2000/svg">
<path d="M11.5764 22.4516C11.5764 23.3088 10.8904 24 10.0398 24C9.18917 24 8.50317 23.3088 8.50317 22.4516C8.50317 21.5945 9.18917 20.9032 10.0398 20.9032C10.8904 20.9032 11.5764 21.5945 11.5764 22.4516Z" fill="#373765"/>
<path d="M19.3967 21.7603H0.627821C0.353421 21.7603 0.106467 21.5668 0.0241471 21.2903C-0.0581727 21.0138 0.079027 20.7373 0.298546 20.5991C1.14918 20.1014 1.80774 16.258 1.9175 12.9954C1.9175 8.1843 5.45726 4.25803 9.79277 4.25803H10.2044C14.5399 4.25803 18.0796 8.1843 18.0796 13.023C18.1894 16.2857 18.8479 20.1014 19.6986 20.6267C19.9455 20.765 20.0553 21.0415 19.973 21.318C19.9181 21.5668 19.6986 21.7603 19.3967 21.7603ZM1.86262 20.5161H18.1619C17.0918 18.3318 16.8997 14.0461 16.8723 13.0507C16.8723 13.0507 16.8723 13.0507 16.8723 13.023C16.8723 8.87554 13.8813 5.50227 10.2318 5.50227H9.8202C6.14325 5.50227 3.17974 8.87554 3.17974 13.023C3.12486 14.0461 2.93278 18.3041 1.86262 20.5161Z" fill="#373765"/>
<path d="M10.0124 5.50231C9.68309 5.50231 9.40869 5.22581 9.40869 4.89402V0.608296C9.40869 0.276498 9.68309 0 10.0124 0C10.3417 0 10.6161 0.276498 10.6161 0.608296V4.86637C10.6435 5.22581 10.3691 5.50231 10.0124 5.50231Z" fill="#373765"/>
</svg>
