<svg viewBox="0 0 18 17" fill="none" xmlns="http://www.w3.org/2000/svg">
<path d="M16.3834 15.8781H7.7854C7.60211 15.8781 7.45215 15.5881 7.45215 15.2337V11.432C7.45215 11.0776 7.60211 10.7876 7.7854 10.7876H16.3834C16.5667 10.7876 16.7167 11.0776 16.7167 11.432V15.2337C16.7167 15.5881 16.5667 15.8781 16.3834 15.8781Z" stroke="#171753" stroke-miterlimit="10"/>
<path d="M6.1472 8.07088C7.83807 9.76175 7.39697 12.9229 7.39697 12.9229C7.39697 12.9229 4.23578 13.364 2.58166 11.6732C1.22161 10.3131 1.25837 7.99736 1.29513 7.15192C1.29513 6.96813 1.44216 6.8211 1.62595 6.8211C2.47139 6.74759 4.78715 6.71083 6.1472 8.07088Z" stroke="#171753" stroke-miterlimit="10"/>
<path d="M4.89746 4.90957C4.89746 7.29885 7.43377 9.21027 7.43377 9.21027C7.43377 9.21027 9.97008 7.29885 9.97008 4.90957C9.97008 2.99815 8.31596 1.34404 7.69108 0.792667C7.54404 0.682392 7.36025 0.682392 7.21322 0.792667C6.55158 1.3808 4.89746 2.99815 4.89746 4.90957Z" stroke="#171753" stroke-miterlimit="10"/>
<path d="M7.47023 11.3055C7.54375 10.9746 7.83781 10.7173 8.20539 10.7173H11.3666C11.6974 10.5335 12.0282 10.313 12.3223 10.0557C13.6824 8.69564 13.6456 6.37988 13.6088 5.53444C13.6088 5.35065 13.4618 5.20362 13.278 5.20362C12.6531 5.16686 11.1828 5.1301 9.89627 5.71823C9.52869 7.55614 7.87457 8.98971 7.50699 9.28377C7.3232 10.3498 7.47023 11.3055 7.47023 11.3055Z" stroke="#171753" stroke-miterlimit="10"/>
<path d="M9.91553 13.3329H14.2534" stroke="#171753" stroke-linecap="round"/>
</svg>
