<svg viewBox="0 0 20 28" fill="none" xmlns="http://www.w3.org/2000/svg">
<path d="M9.99996 20.4425C10.7657 20.4425 11.3864 19.8218 11.3864 19.056C11.3864 18.2903 10.7657 17.6696 9.99996 17.6696C9.23425 17.6696 8.61353 18.2903 8.61353 19.056C8.61353 19.8218 9.23425 20.4425 9.99996 20.4425Z" fill="#4E4E8D"/>
<path d="M9.99996 20.4425C10.7657 20.4425 11.3864 19.8218 11.3864 19.056C11.3864 18.2903 10.7657 17.6696 9.99996 17.6696C9.23425 17.6696 8.61353 18.2903 8.61353 19.056C8.61353 19.8218 9.23425 20.4425 9.99996 20.4425Z" fill="black" fill-opacity="0.2"/>
<path d="M19.351 27.7286H0.648968C0.294985 27.7286 0 27.4336 0 27.0796V13.2153C0 12.8613 0.294985 12.5663 0.648968 12.5663H19.351C19.705 12.5663 20 12.8613 20 13.2153V27.0796C20 27.4336 19.705 27.7286 19.351 27.7286ZM1.32743 26.4012H18.7021V13.8643H1.32743V26.4012Z" fill="#4E4E8D"/>
<path d="M19.351 27.7286H0.648968C0.294985 27.7286 0 27.4336 0 27.0796V13.2153C0 12.8613 0.294985 12.5663 0.648968 12.5663H19.351C19.705 12.5663 20 12.8613 20 13.2153V27.0796C20 27.4336 19.705 27.7286 19.351 27.7286ZM1.32743 26.4012H18.7021V13.8643H1.32743V26.4012Z" fill="black" fill-opacity="0.2"/>
<path d="M16.2538 13.0088C15.8998 13.0088 15.6048 12.7139 15.6048 12.3599V6.90265C15.6048 3.80531 13.0974 1.29794 10.0001 1.29794C6.90272 1.29794 4.39535 3.80531 4.39535 6.90265V12.3304C4.39535 12.6844 4.10036 12.9794 3.74638 12.9794C3.3924 12.9794 3.09741 12.6844 3.09741 12.3304V6.90265C3.09741 3.09734 6.19476 0 10.0001 0C13.8054 0 16.9322 3.09734 16.9322 6.90265V12.3304C16.9322 12.7139 16.6077 13.0088 16.2538 13.0088Z" fill="#4E4E8D"/>
<path d="M16.2538 13.0088C15.8998 13.0088 15.6048 12.7139 15.6048 12.3599V6.90265C15.6048 3.80531 13.0974 1.29794 10.0001 1.29794C6.90272 1.29794 4.39535 3.80531 4.39535 6.90265V12.3304C4.39535 12.6844 4.10036 12.9794 3.74638 12.9794C3.3924 12.9794 3.09741 12.6844 3.09741 12.3304V6.90265C3.09741 3.09734 6.19476 0 10.0001 0C13.8054 0 16.9322 3.09734 16.9322 6.90265V12.3304C16.9322 12.7139 16.6077 13.0088 16.2538 13.0088Z" fill="black" fill-opacity="0.2"/>
<path d="M10 23.8643C9.64606 23.8643 9.35107 23.5693 9.35107 23.2153V19.4985C9.35107 19.1445 9.64606 18.8495 10 18.8495C10.354 18.8495 10.649 19.1445 10.649 19.4985V23.2153C10.649 23.5693 10.354 23.8643 10 23.8643Z" fill="#4E4E8D"/>
<path d="M10 23.8643C9.64606 23.8643 9.35107 23.5693 9.35107 23.2153V19.4985C9.35107 19.1445 9.64606 18.8495 10 18.8495C10.354 18.8495 10.649 19.1445 10.649 19.4985V23.2153C10.649 23.5693 10.354 23.8643 10 23.8643Z" fill="black" fill-opacity="0.2"/>
</svg>
