<svg width="40" height="41" viewBox="0 0 40 41" fill="none" xmlns="http://www.w3.org/2000/svg">
<path fill-rule="evenodd" clip-rule="evenodd" d="M20.0373 21.9686C19.2368 21.9686 18.5733 22.6305 18.5733 23.4534C18.5733 24.2764 19.2368 24.9382 20.0373 24.9382H20.0789C20.8794 24.9382 21.5429 24.2764 21.5429 23.4534C21.5429 22.6305 20.8794 21.9686 20.0789 21.9686H20.0373ZM17.4185 23.4534C17.4185 22.0037 18.588 20.8138 20.0373 20.8138H20.0789C21.5282 20.8138 22.6978 22.0037 22.6978 23.4534C22.6978 24.9031 21.5282 26.0931 20.0789 26.0931H20.0373C18.588 26.0931 17.4185 24.9031 17.4185 23.4534Z" fill="#353570"/>
<path fill-rule="evenodd" clip-rule="evenodd" d="M13.2182 12.9559C13.2182 9.1249 16.4184 6.0136 20.2979 6.19399L20.2995 6.19407C23.9659 6.37508 26.7465 9.49154 26.7465 13.1209V16.5019H28.2313C29.7049 16.5019 30.8709 17.6674 30.8709 19.141V31.5113C30.8709 32.9849 29.7049 34.1504 28.2313 34.1504H11.7334C10.2598 34.1504 9.09375 32.9849 9.09375 31.5113V19.141C9.09375 17.6674 10.2598 16.5019 11.7334 16.5019C12.5695 16.5019 13.2182 15.8531 13.2182 15.0176V12.9559ZM25.5916 16.5019H16.0641C15.7452 16.5019 15.4867 16.7604 15.4867 17.0793C15.4867 17.3982 15.7452 17.6568 16.0641 17.6568H28.2313C29.0673 17.6568 29.7161 18.3055 29.7161 19.141V31.5113C29.7161 32.3468 29.0673 32.9956 28.2313 32.9956H11.7334C10.8973 32.9956 10.2486 32.3468 10.2486 31.5113V19.141C10.2486 18.3055 10.8973 17.6568 11.7334 17.6568C13.207 17.6568 14.3731 16.4912 14.3731 15.0176V12.9559C14.3731 9.7774 17.0291 7.19856 20.2434 7.34756C23.2582 7.49684 25.5916 10.0705 25.5916 13.1209V16.5019Z" fill="#353570"/>
<path fill-rule="evenodd" clip-rule="evenodd" d="M20.0252 25.0381C20.3441 25.0381 20.6026 25.2967 20.6026 25.6156V29.4747C20.6026 29.7936 20.3441 30.0522 20.0252 30.0522C19.7063 30.0522 19.4478 29.7936 19.4478 29.4747V25.6156C19.4478 25.2967 19.7063 25.0381 20.0252 25.0381Z" fill="#353570"/>
</svg>
