<svg viewBox="0 0 14 18" fill="none" xmlns="http://www.w3.org/2000/svg">
<path d="M11.7501 7.04989C12.1751 6.94989 12.6001 6.99989 12.9501 7.12489C13.1001 7.19989 13.2751 7.07489 13.2751 6.89989C13.2751 6.34989 13.2751 5.34989 13.2751 4.79989C13.2751 4.59989 13.1001 4.42489 12.9001 4.42489H10.6751C10.4751 4.42489 10.3751 4.22489 10.4501 4.04989C10.6501 3.67489 10.7251 3.24989 10.6751 2.79989C10.5501 1.89989 9.80014 1.14989 8.87514 1.04989C7.65014 0.924887 6.60014 1.87489 6.60014 3.07489C6.60014 3.42489 6.70014 3.74989 6.85014 4.04989C6.95014 4.22489 6.82514 4.42489 6.62514 4.42489H4.40014C4.20014 4.42489 4.02514 4.59989 4.02514 4.79989V7.04989C4.02514 7.22489 3.82514 7.34989 3.67514 7.27489C3.32514 7.09989 2.90014 7.02489 2.45014 7.07489C1.55014 7.19989 0.850141 7.94989 0.750141 8.84989C0.600141 10.0749 1.57514 11.1249 2.77514 11.1249C3.10014 11.1249 3.42514 11.0499 3.67514 10.8999C3.85014 10.8249 4.02514 10.9249 4.02514 11.1249V13.2499C4.02514 13.4499 4.20014 13.6249 4.40014 13.6249H6.50014C6.67514 13.6249 6.80014 13.7999 6.72514 13.9749C6.57514 14.3499 6.52514 14.7499 6.62514 15.1999C6.80014 15.9749 7.42514 16.5999 8.22514 16.7499C9.52514 16.9999 10.6751 15.9999 10.6751 14.7499C10.6751 14.4749 10.6251 14.2249 10.5251 13.9749C10.4501 13.7999 10.5751 13.6249 10.7501 13.6249H12.8501C13.0501 13.6249 13.2251 13.4499 13.2251 13.2499V11.1499C13.2251 10.9749 13.0501 10.8499 12.8751 10.9249C12.6501 11.0249 12.4001 11.0499 12.1501 11.0499C10.9001 11.0499 9.90014 9.89989 10.1501 8.59989C10.3501 7.84989 10.9751 7.22489 11.7501 7.04989Z" stroke="#171753" stroke-miterlimit="10"/>
</svg>
