<svg  viewBox="0 0 15 14" fill="none" xmlns="http://www.w3.org/2000/svg">
<path fill-rule="evenodd" clip-rule="evenodd" d="M1.96101 0.77875C1.76044 0.77875 1.60466 0.934966 1.60466 1.13611V4.85652C1.60466 5.05766 1.76044 5.21388 1.96101 5.21388H5.6709C5.86976 5.21388 6.02724 5.04959 6.02724 4.85652V1.13611C6.02724 0.934966 5.87147 0.77875 5.6709 0.77875H1.96101ZM1.34106 1.13611C1.34106 0.788972 1.61486 0.514404 1.96101 0.514404H5.6709C6.01705 0.514404 6.29084 0.788972 6.29084 1.13611V4.85652C6.29084 5.19214 6.01876 5.47822 5.6709 5.47822H1.96101C1.61486 5.47822 1.34106 5.20365 1.34106 4.85652V1.13611Z" fill="#171753" stroke="#171753" stroke-width="0.7" stroke-miterlimit="10" stroke-linecap="round"/>
<path fill-rule="evenodd" clip-rule="evenodd" d="M1.96101 8.74262C1.76044 8.74262 1.60466 8.89883 1.60466 9.09997V12.8204C1.60466 13.0215 1.76044 13.1777 1.96101 13.1777H5.6709C5.86976 13.1777 6.02724 13.0135 6.02724 12.8204V9.09997C6.02724 8.89883 5.87147 8.74262 5.6709 8.74262H1.96101ZM1.34106 9.09997C1.34106 8.75284 1.61486 8.47827 1.96101 8.47827H5.6709C6.01705 8.47827 6.29084 8.75284 6.29084 9.09997V12.8204C6.29084 13.156 6.01876 13.4421 5.6709 13.4421H1.96101C1.61486 13.4421 1.34106 13.1675 1.34106 12.8204V9.09997Z" fill="#171753" stroke="#171753" stroke-width="0.7" stroke-miterlimit="10" stroke-linecap="round"/>
<path fill-rule="evenodd" clip-rule="evenodd" d="M9.90241 0.77875C9.70184 0.77875 9.54607 0.934966 9.54607 1.13611V4.85652C9.54607 5.05766 9.70184 5.21388 9.90241 5.21388H13.6123C13.8112 5.21388 13.9686 5.04959 13.9686 4.85652V1.13611C13.9686 0.934966 13.8129 0.77875 13.6123 0.77875H9.90241ZM9.28247 1.13611C9.28247 0.788972 9.55626 0.514404 9.90241 0.514404H13.6123C13.9585 0.514404 14.2322 0.788972 14.2322 1.13611V4.85652C14.2322 5.19214 13.9602 5.47822 13.6123 5.47822H9.90241C9.55626 5.47822 9.28247 5.20365 9.28247 4.85652V1.13611Z" fill="#171753" stroke="#171753" stroke-width="0.7" stroke-miterlimit="10" stroke-linecap="round"/>
<path fill-rule="evenodd" clip-rule="evenodd" d="M9.90241 8.74262C9.70184 8.74262 9.54607 8.89883 9.54607 9.09997V12.8204C9.54607 13.0215 9.70184 13.1777 9.90241 13.1777H13.6123C13.8112 13.1777 13.9686 13.0135 13.9686 12.8204V9.09997C13.9686 8.89883 13.8129 8.74262 13.6123 8.74262H9.90241ZM9.28247 9.09997C9.28247 8.75284 9.55626 8.47827 9.90241 8.47827H13.6123C13.9585 8.47827 14.2322 8.75284 14.2322 9.09997V12.8204C14.2322 13.156 13.9602 13.4421 13.6123 13.4421H9.90241C9.55626 13.4421 9.28247 13.1675 9.28247 12.8204V9.09997Z" fill="#171753" stroke="#171753" stroke-width="0.7" stroke-miterlimit="10" stroke-linecap="round"/>
</svg>
