<svg width="40" height="41" viewBox="0 0 40 41" fill="none" xmlns="http://www.w3.org/2000/svg">
<path fill-rule="evenodd" clip-rule="evenodd" d="M25.8154 17.6425C24.9795 17.6425 24.3306 18.2913 24.3306 19.1273V21.6019C24.3306 22.4379 24.9795 23.0868 25.8154 23.0868H31.5897C32.4256 23.0868 33.0745 22.4379 33.0745 21.6019V19.1273C33.0745 18.2913 32.4256 17.6425 31.5897 17.6425H25.8154ZM23.1758 19.1273C23.1758 17.6535 24.3417 16.4876 25.8154 16.4876H31.5897C33.0634 16.4876 34.2293 17.6535 34.2293 19.1273V21.6019C34.2293 23.0757 33.0634 24.2416 31.5897 24.2416H25.8154C24.3417 24.2416 23.1758 23.0757 23.1758 21.6019V19.1273Z" fill="#353570"/>
<path fill-rule="evenodd" clip-rule="evenodd" d="M6.19434 12.7075C6.19434 11.2338 7.36024 10.0679 8.83399 10.0679H27.3941C28.8678 10.0679 30.0337 11.2338 30.0337 12.7075V14.5635C30.0337 14.8824 29.7752 15.141 29.4563 15.141C29.1374 15.141 28.8789 14.8824 28.8789 14.5635V12.7075C28.8789 11.8716 28.23 11.2227 27.3941 11.2227H8.83399C7.99805 11.2227 7.34919 11.8716 7.34919 12.7075V27.968C7.34919 28.804 7.99805 29.4529 8.83399 29.4529H27.3941C28.23 29.4529 28.8789 28.804 28.8789 27.968V26.112C28.8789 25.7931 29.1374 25.5346 29.4563 25.5346C29.7752 25.5346 30.0337 25.7931 30.0337 26.112V27.968C30.0337 29.4418 28.8678 30.6077 27.3941 30.6077H8.83399C7.36024 30.6077 6.19434 29.4418 6.19434 27.968V12.7075Z" fill="#353570"/>
<path fill-rule="evenodd" clip-rule="evenodd" d="M31.0449 10.6453C31.0449 10.3264 31.3034 10.0679 31.6223 10.0679C33.0961 10.0679 34.262 11.2338 34.262 12.7075V27.968C34.262 29.4418 33.0961 30.6077 31.6223 30.6077C31.3034 30.6077 31.0449 30.3492 31.0449 30.0303C31.0449 29.7114 31.3034 29.4529 31.6223 29.4529C32.4583 29.4529 33.1072 28.804 33.1072 27.968V12.7075C33.1072 11.8716 32.4583 11.2227 31.6223 11.2227C31.3034 11.2227 31.0449 10.9642 31.0449 10.6453Z" fill="#353570"/>
<path d="M29.4564 22.0627C30.3676 22.0627 31.1062 21.3241 31.1062 20.4129C31.1062 19.5018 30.3676 18.7631 29.4564 18.7631C28.5453 18.7631 27.8066 19.5018 27.8066 20.4129C27.8066 21.3241 28.5453 22.0627 29.4564 22.0627Z" fill="#353570"/>
</svg>
