<svg viewBox="0 0 25 25" fill="none" xmlns="http://www.w3.org/2000/svg">
<path d="M21.4031 0.255096H0.62251C0.573837 0.255092 0.525648 0.264748 0.480743 0.283528C0.435839 0.302307 0.39511 0.329839 0.360931 0.364493C0.326752 0.399146 0.299805 0.44022 0.281647 0.48538C0.263489 0.530539 0.254486 0.578867 0.255162 0.627535V24.3724C0.255153 24.4703 0.293693 24.5643 0.362441 24.634C0.431189 24.7037 0.524617 24.7435 0.62251 24.7449H21.4031C22.289 24.7435 23.1383 24.391 23.7647 23.7646C24.3911 23.1382 24.7436 22.289 24.745 21.4031V3.59182C24.7423 2.70681 24.3891 1.85888 23.7629 1.23356C23.1366 0.608237 22.2881 0.256441 21.4031 0.255096V0.255096ZM18.4337 24H0.994965V0.994898H18.4337C19.1221 0.996247 19.7818 1.27027 20.2686 1.757C20.7553 2.24373 21.0293 2.90348 21.0307 3.59182V9.15816H17.4592C16.5962 9.1919 15.7797 9.55845 15.181 10.181C14.5824 10.8035 14.248 11.6337 14.248 12.4974C14.248 13.3611 14.5824 14.1913 15.181 14.8138C15.7797 15.4364 16.5962 15.803 17.4592 15.8367H21.0307V21.4031C21.0307 21.7441 20.9635 22.0818 20.833 22.3968C20.7025 22.7119 20.5112 22.9982 20.2701 23.2393C20.0289 23.4805 19.7426 23.6718 19.4275 23.8023C19.1125 23.9328 18.7748 24 18.4337 24ZM24.0001 21.4031C24.0001 21.7441 23.9329 22.0818 23.8024 22.3968C23.6719 22.7119 23.4806 22.9982 23.2394 23.2393C22.9983 23.4805 22.712 23.6718 22.3969 23.8023C22.0819 23.9328 21.7442 24 21.4031 24H20.5307C20.9189 23.6876 21.2323 23.2921 21.4477 22.8427C21.6631 22.3933 21.7752 21.9014 21.7756 21.4031V15.8367H24.0001V21.4031ZM24.0001 15.0969H17.4439C16.7552 15.0969 16.0946 14.8233 15.6076 14.3363C15.1206 13.8493 14.847 13.1887 14.847 12.5C14.847 11.8112 15.1206 11.1507 15.6076 10.6637C16.0946 10.1767 16.7552 9.90304 17.4439 9.90304H24.0001V15.0969ZM24.0001 9.15816H21.7756V3.59182C21.7744 3.09359 21.6621 2.60189 21.4467 2.1526C21.2314 1.70332 20.9184 1.30781 20.5307 0.994898H21.4031C22.0915 0.996247 22.7512 1.27027 23.2379 1.757C23.7247 2.24373 23.9987 2.90348 24.0001 3.59182V9.15816Z" fill="#4E4E8D"/>
<path d="M21.4031 0.255096H0.62251C0.573837 0.255092 0.525648 0.264748 0.480743 0.283528C0.435839 0.302307 0.39511 0.329839 0.360931 0.364493C0.326752 0.399146 0.299805 0.44022 0.281647 0.48538C0.263489 0.530539 0.254486 0.578867 0.255162 0.627535V24.3724C0.255153 24.4703 0.293693 24.5643 0.362441 24.634C0.431189 24.7037 0.524617 24.7435 0.62251 24.7449H21.4031C22.289 24.7435 23.1383 24.391 23.7647 23.7646C24.3911 23.1382 24.7436 22.289 24.745 21.4031V3.59182C24.7423 2.70681 24.3891 1.85888 23.7629 1.23356C23.1366 0.608237 22.2881 0.256441 21.4031 0.255096V0.255096ZM18.4337 24H0.994965V0.994898H18.4337C19.1221 0.996247 19.7818 1.27027 20.2686 1.757C20.7553 2.24373 21.0293 2.90348 21.0307 3.59182V9.15816H17.4592C16.5962 9.1919 15.7797 9.55845 15.181 10.181C14.5824 10.8035 14.248 11.6337 14.248 12.4974C14.248 13.3611 14.5824 14.1913 15.181 14.8138C15.7797 15.4364 16.5962 15.803 17.4592 15.8367H21.0307V21.4031C21.0307 21.7441 20.9635 22.0818 20.833 22.3968C20.7025 22.7119 20.5112 22.9982 20.2701 23.2393C20.0289 23.4805 19.7426 23.6718 19.4275 23.8023C19.1125 23.9328 18.7748 24 18.4337 24ZM24.0001 21.4031C24.0001 21.7441 23.9329 22.0818 23.8024 22.3968C23.6719 22.7119 23.4806 22.9982 23.2394 23.2393C22.9983 23.4805 22.712 23.6718 22.3969 23.8023C22.0819 23.9328 21.7442 24 21.4031 24H20.5307C20.9189 23.6876 21.2323 23.2921 21.4477 22.8427C21.6631 22.3933 21.7752 21.9014 21.7756 21.4031V15.8367H24.0001V21.4031ZM24.0001 15.0969H17.4439C16.7552 15.0969 16.0946 14.8233 15.6076 14.3363C15.1206 13.8493 14.847 13.1887 14.847 12.5C14.847 11.8112 15.1206 11.1507 15.6076 10.6637C16.0946 10.1767 16.7552 9.90304 17.4439 9.90304H24.0001V15.0969ZM24.0001 9.15816H21.7756V3.59182C21.7744 3.09359 21.6621 2.60189 21.4467 2.1526C21.2314 1.70332 20.9184 1.30781 20.5307 0.994898H21.4031C22.0915 0.996247 22.7512 1.27027 23.2379 1.757C23.7247 2.24373 23.9987 2.90348 24.0001 3.59182V9.15816Z" fill="black" fill-opacity="0.2"/>
<path fill-rule="evenodd" clip-rule="evenodd" d="M0.62251 3.05186e-05C0.622518 3.05186e-05 0.622501 3.05186e-05 0.62251 3.05186e-05H21.4031C22.3556 0.00147803 23.2691 0.380086 23.9431 1.05307C24.6171 1.72606 24.9971 2.63861 25 3.59108L25 3.59186L25 21.4031C24.9986 22.3565 24.6192 23.2708 23.945 23.945C23.2709 24.6192 22.3569 24.9986 21.4035 25H0.61899C0.45402 24.9978 0.296608 24.9306 0.180792 24.8132C0.0649544 24.6957 1.99614e-05 24.5374 3.54252e-05 24.3725V0.62911C-0.000837114 0.547328 0.0144164 0.466152 0.044937 0.390247C0.0757184 0.313693 0.121393 0.244085 0.179282 0.185393C0.237168 0.126703 0.306169 0.0800491 0.382294 0.0482134C0.458412 0.0163809 0.540085 2.58354e-05 0.62251 3.05186e-05ZM21.4029 0.510235H0.622485C0.607572 0.510233 0.592826 0.513191 0.579143 0.518914C0.565459 0.524637 0.553001 0.533048 0.54253 0.543665C0.53206 0.55428 0.523842 0.56682 0.518308 0.580584C0.512762 0.594377 0.510008 0.609152 0.510215 0.624028L0.510264 0.627571L0.510239 24.3725C0.510237 24.4033 0.522382 24.4329 0.54404 24.4549C0.565431 24.4766 0.59438 24.4891 0.624748 24.4898H21.4027C22.2211 24.4886 23.0056 24.1629 23.5843 23.5842C24.1629 23.0056 24.4886 22.2211 24.4898 21.4027L24.4898 3.59263C24.4898 3.59243 24.4898 3.59222 24.4898 3.59202C24.4872 2.77468 24.161 1.99163 23.5826 1.41412C23.0041 0.836503 22.2204 0.511526 21.4029 0.510235ZM0.739838 0.739833H18.4337C19.1895 0.741314 19.9145 1.0422 20.4489 1.57665C20.9834 2.1111 21.2843 2.83554 21.2857 3.59136V9.4133H17.4643C16.6689 9.44565 15.9167 9.78401 15.3649 10.3579C14.8119 10.9329 14.503 11.6997 14.503 12.4975C14.503 13.2952 14.8119 14.062 15.3649 14.6371C15.9167 15.2109 16.6689 15.5493 17.4643 15.5816H21.2857V21.4031C21.2857 21.7776 21.212 22.1485 21.0687 22.4945C20.9253 22.8405 20.7153 23.1549 20.4504 23.4198C20.1856 23.6846 19.8712 23.8947 19.5251 24.038C19.1791 24.1813 18.8082 24.2551 18.4337 24.2551H0.739838V0.739833ZM1.25004 1.25004V23.7449H18.4337C18.7412 23.7449 19.0458 23.6843 19.3299 23.5667C19.614 23.449 19.8722 23.2765 20.0896 23.059C20.3071 22.8415 20.4796 22.5834 20.5973 22.2993C20.715 22.0151 20.7755 21.7106 20.7755 21.4031V16.0919H17.4542L17.4493 16.0917C16.5203 16.0553 15.6415 15.6608 14.9971 14.9907C14.3528 14.3206 13.9928 13.4271 13.9928 12.4975C13.9928 11.5678 14.3528 10.6743 14.9971 10.0042C15.6415 9.33414 16.5203 8.93961 17.4493 8.90329L17.4542 8.9031H20.7755V3.59236C20.7743 2.9715 20.5272 2.37643 20.0881 1.93742C19.6492 1.49847 19.0542 1.25132 18.4335 1.25004H1.25004ZM19.8084 0.739833H21.4031C22.1589 0.741314 22.8839 1.0422 23.4183 1.57665C23.9528 2.1111 24.2537 2.83554 24.2551 3.59136V9.4133H21.5204V3.59243C21.5194 3.13217 21.4156 2.67795 21.2167 2.26291C21.0177 1.84788 20.7286 1.48252 20.3704 1.19345L19.8084 0.739833ZM21.159 1.25004C21.3651 1.48951 21.5393 1.75577 21.6767 2.04237C21.9085 2.52589 22.0294 3.05507 22.0306 3.59128V8.9031H23.7449V3.59236C23.7437 2.9715 23.4965 2.37643 23.0575 1.93742C22.6186 1.49847 22.0236 1.25132 21.4028 1.25004H21.159ZM17.4439 10.1582C16.8228 10.1582 16.2272 10.4049 15.788 10.8441C15.3488 11.2833 15.1021 11.8789 15.1021 12.5C15.1021 13.1211 15.3488 13.7168 15.788 14.156C16.2272 14.5951 16.8228 14.8418 17.4439 14.8418H23.7449V10.1582H17.4439ZM15.4272 10.4833C15.9621 9.94847 16.6875 9.64797 17.4439 9.64797H24.2551V15.3521H17.4439C16.6875 15.3521 15.9621 15.0516 15.4272 14.5167C14.8923 13.9819 14.5919 13.2564 14.5919 12.5C14.5919 11.7436 14.8923 11.0182 15.4272 10.4833ZM21.5204 15.5816H24.2551V21.4031C24.2551 21.7776 24.1814 22.1485 24.038 22.4945C23.8947 22.8405 23.6846 23.1549 23.4198 23.4198C23.155 23.6846 22.8406 23.8947 22.4945 24.038C22.1485 24.1813 21.7776 24.2551 21.4031 24.2551H19.8067L20.3707 23.8013C20.7293 23.5127 21.0187 23.1475 21.2177 22.7325C21.4166 22.3175 21.5201 21.8631 21.5204 21.4029V15.5816ZM22.0306 16.0919V21.4031C22.0302 21.9396 21.9096 22.4693 21.6777 22.9531C21.5404 23.2395 21.3661 23.5057 21.1599 23.7449H21.4031C21.7106 23.7449 22.0152 23.6843 22.2993 23.5667C22.5834 23.449 22.8416 23.2765 23.059 23.059C23.2765 22.8415 23.449 22.5834 23.5667 22.2993C23.6844 22.0151 23.7449 21.7106 23.7449 21.4031V16.0919H22.0306Z" fill="#4E4E8D"/>
<path fill-rule="evenodd" clip-rule="evenodd" d="M0.62251 3.05186e-05C0.622518 3.05186e-05 0.622501 3.05186e-05 0.62251 3.05186e-05H21.4031C22.3556 0.00147803 23.2691 0.380086 23.9431 1.05307C24.6171 1.72606 24.9971 2.63861 25 3.59108L25 3.59186L25 21.4031C24.9986 22.3565 24.6192 23.2708 23.945 23.945C23.2709 24.6192 22.3569 24.9986 21.4035 25H0.61899C0.45402 24.9978 0.296608 24.9306 0.180792 24.8132C0.0649544 24.6957 1.99614e-05 24.5374 3.54252e-05 24.3725V0.62911C-0.000837114 0.547328 0.0144164 0.466152 0.044937 0.390247C0.0757184 0.313693 0.121393 0.244085 0.179282 0.185393C0.237168 0.126703 0.306169 0.0800491 0.382294 0.0482134C0.458412 0.0163809 0.540085 2.58354e-05 0.62251 3.05186e-05ZM21.4029 0.510235H0.622485C0.607572 0.510233 0.592826 0.513191 0.579143 0.518914C0.565459 0.524637 0.553001 0.533048 0.54253 0.543665C0.53206 0.55428 0.523842 0.56682 0.518308 0.580584C0.512762 0.594377 0.510008 0.609152 0.510215 0.624028L0.510264 0.627571L0.510239 24.3725C0.510237 24.4033 0.522382 24.4329 0.54404 24.4549C0.565431 24.4766 0.59438 24.4891 0.624748 24.4898H21.4027C22.2211 24.4886 23.0056 24.1629 23.5843 23.5842C24.1629 23.0056 24.4886 22.2211 24.4898 21.4027L24.4898 3.59263C24.4898 3.59243 24.4898 3.59222 24.4898 3.59202C24.4872 2.77468 24.161 1.99163 23.5826 1.41412C23.0041 0.836503 22.2204 0.511526 21.4029 0.510235ZM0.739838 0.739833H18.4337C19.1895 0.741314 19.9145 1.0422 20.4489 1.57665C20.9834 2.1111 21.2843 2.83554 21.2857 3.59136V9.4133H17.4643C16.6689 9.44565 15.9167 9.78401 15.3649 10.3579C14.8119 10.9329 14.503 11.6997 14.503 12.4975C14.503 13.2952 14.8119 14.062 15.3649 14.6371C15.9167 15.2109 16.6689 15.5493 17.4643 15.5816H21.2857V21.4031C21.2857 21.7776 21.212 22.1485 21.0687 22.4945C20.9253 22.8405 20.7153 23.1549 20.4504 23.4198C20.1856 23.6846 19.8712 23.8947 19.5251 24.038C19.1791 24.1813 18.8082 24.2551 18.4337 24.2551H0.739838V0.739833ZM1.25004 1.25004V23.7449H18.4337C18.7412 23.7449 19.0458 23.6843 19.3299 23.5667C19.614 23.449 19.8722 23.2765 20.0896 23.059C20.3071 22.8415 20.4796 22.5834 20.5973 22.2993C20.715 22.0151 20.7755 21.7106 20.7755 21.4031V16.0919H17.4542L17.4493 16.0917C16.5203 16.0553 15.6415 15.6608 14.9971 14.9907C14.3528 14.3206 13.9928 13.4271 13.9928 12.4975C13.9928 11.5678 14.3528 10.6743 14.9971 10.0042C15.6415 9.33414 16.5203 8.93961 17.4493 8.90329L17.4542 8.9031H20.7755V3.59236C20.7743 2.9715 20.5272 2.37643 20.0881 1.93742C19.6492 1.49847 19.0542 1.25132 18.4335 1.25004H1.25004ZM19.8084 0.739833H21.4031C22.1589 0.741314 22.8839 1.0422 23.4183 1.57665C23.9528 2.1111 24.2537 2.83554 24.2551 3.59136V9.4133H21.5204V3.59243C21.5194 3.13217 21.4156 2.67795 21.2167 2.26291C21.0177 1.84788 20.7286 1.48252 20.3704 1.19345L19.8084 0.739833ZM21.159 1.25004C21.3651 1.48951 21.5393 1.75577 21.6767 2.04237C21.9085 2.52589 22.0294 3.05507 22.0306 3.59128V8.9031H23.7449V3.59236C23.7437 2.9715 23.4965 2.37643 23.0575 1.93742C22.6186 1.49847 22.0236 1.25132 21.4028 1.25004H21.159ZM17.4439 10.1582C16.8228 10.1582 16.2272 10.4049 15.788 10.8441C15.3488 11.2833 15.1021 11.8789 15.1021 12.5C15.1021 13.1211 15.3488 13.7168 15.788 14.156C16.2272 14.5951 16.8228 14.8418 17.4439 14.8418H23.7449V10.1582H17.4439ZM15.4272 10.4833C15.9621 9.94847 16.6875 9.64797 17.4439 9.64797H24.2551V15.3521H17.4439C16.6875 15.3521 15.9621 15.0516 15.4272 14.5167C14.8923 13.9819 14.5919 13.2564 14.5919 12.5C14.5919 11.7436 14.8923 11.0182 15.4272 10.4833ZM21.5204 15.5816H24.2551V21.4031C24.2551 21.7776 24.1814 22.1485 24.038 22.4945C23.8947 22.8405 23.6846 23.1549 23.4198 23.4198C23.155 23.6846 22.8406 23.8947 22.4945 24.038C22.1485 24.1813 21.7776 24.2551 21.4031 24.2551H19.8067L20.3707 23.8013C20.7293 23.5127 21.0187 23.1475 21.2177 22.7325C21.4166 22.3175 21.5201 21.8631 21.5204 21.4029V15.5816ZM22.0306 16.0919V21.4031C22.0302 21.9396 21.9096 22.4693 21.6777 22.9531C21.5404 23.2395 21.3661 23.5057 21.1599 23.7449H21.4031C21.7106 23.7449 22.0152 23.6843 22.2993 23.5667C22.5834 23.449 22.8416 23.2765 23.059 23.059C23.2765 22.8415 23.449 22.5834 23.5667 22.2993C23.6844 22.0151 23.7449 21.7106 23.7449 21.4031V16.0919H22.0306Z" fill="black" fill-opacity="0.2"/>
</svg>
