<svg width="26" height="26" viewBox="0 0 26 26" fill="none" xmlns="http://www.w3.org/2000/svg">
<circle cx="13" cy="13" r="12.5" transform="rotate(-180 13 13)" stroke="white"/>
<path d="M5.20005 13.1408C5.20005 12.7483 5.5271 12.4213 5.91955 12.4213L20.0806 12.4213C20.473 12.4213 20.8 12.7483 20.8 13.1408C20.8 13.5332 20.473 13.8603 20.0806 13.8603L5.91955 13.8603C5.5271 13.8603 5.20005 13.5332 5.20005 13.1408Z" fill="white"/>
<path d="M12.297 20.205L12.297 6.07644C12.297 5.68398 12.624 5.35693 13.0165 5.35693C13.4089 5.35693 13.736 5.68398 13.736 6.07644L13.736 20.2377C13.736 20.6302 13.4089 20.9572 13.0165 20.9572C12.624 20.9572 12.297 20.6302 12.297 20.205Z" fill="white"/>
</svg>
