<svg viewBox="0 0 118 87" fill="none" xmlns="http://www.w3.org/2000/svg">
<path d="M80.576 46.3445C80.576 42.9538 83.2889 40.2412 86.68 40.2412C90.0711 40.2412 92.784 42.9538 92.784 46.3445C92.784 49.7353 90.0711 52.4479 86.68 52.4479C83.2889 52.4479 80.576 49.6223 80.576 46.3445Z" fill="#373765"/>
<path d="M117.425 61.1493C117.199 63.0707 116.973 64.9922 116.408 66.8006C114.712 73.243 110.982 79.1202 104.878 82.398C96.5134 86.6929 86.5662 85.1105 78.2015 81.8328C71.3063 86.6929 71.3063 86.6929 71.3063 86.6929C69.7238 87.7101 67.6891 86.0147 68.5934 84.3194C66.6718 84.6584 66.1066 82.85 66.6718 81.3807C65.0893 82.624 63.7328 80.3635 64.6371 79.0072C65.2023 78.103 66.1066 77.0858 66.7848 76.2946C57.0637 70.7564 48.2469 63.9749 39.317 57.3065C44.4036 60.4712 64.7502 70.8694 69.7238 73.0169C74.9235 75.2774 80.1231 77.5379 85.5489 78.7812C90.0703 79.7984 95.8352 80.3635 100.018 77.7639C103.861 75.5034 105.33 70.8694 105.895 66.6875C107.252 57.6455 104.087 47.4733 99.3393 39.7876C94.3657 31.7629 86.2271 24.5293 76.9581 22.1558C73.567 21.2516 70.1759 21.2516 67.0109 21.8167C59.6635 23.06 52.9944 27.581 47.9077 33.2322C40.5604 41.37 35.4737 51.4292 30.8392 61.3754C27.6742 68.0438 23.2658 84.3194 12.8665 77.877C8.23197 74.9383 5.29302 69.8522 3.25837 64.8791C0.997639 59.567 -0.584873 52.4464 0.8846 46.6822C4.04962 34.5885 21.0051 45.3259 26.7699 49.1687C26.4308 49.0557 12.8665 42.8393 7.89286 47.6994C5.63213 49.9599 5.74517 54.0288 6.08428 56.9674C6.7625 62.2796 9.36233 70.1913 14.3359 73.1299C20.779 76.8597 24.0571 65.2182 25.7526 61.1493C28.5785 54.2548 31.2914 47.3603 34.4564 40.5788C37.9605 33.1192 42.1429 25.7726 47.9077 19.7823C46.6643 18.3129 44.8558 16.5046 44.7427 14.5831C44.5167 12.4357 46.6643 10.0621 48.9251 11.1924C46.3252 8.25375 49.8294 3.84579 53.2205 5.54116C51.6379 3.05461 54.1247 -0.110081 56.7246 0.00294365C58.1941 0.00294365 59.6635 1.24621 60.7939 2.03738C63.7328 3.9588 66.6718 5.99325 69.7238 7.91467C97.8698 3.50671 119.912 35.4927 117.425 61.1493Z" fill="#373765"/>
</svg>
