<svg viewBox="0 0 43 32" fill="none" xmlns="http://www.w3.org/2000/svg">
<path d="M29.4858 16.8199C29.4858 15.5994 30.4623 14.623 31.6829 14.623C32.9035 14.623 33.88 15.5994 33.88 16.8199C33.88 18.0404 32.9035 19.0168 31.6829 19.0168C30.4623 19.0168 29.4858 17.9997 29.4858 16.8199Z" fill="white"/>
<path d="M42.7503 22.1493C42.6689 22.841 42.5876 23.5326 42.3841 24.1835C41.7738 26.5024 40.4312 28.6179 38.2341 29.7977C35.2232 31.3437 31.6428 30.7741 28.6319 29.5943C26.15 31.3437 26.15 31.3437 26.15 31.3437C25.5804 31.7098 24.8481 31.0996 25.1735 30.4893C24.4819 30.6114 24.2784 29.9604 24.4819 29.4316C23.9123 29.8791 23.424 29.0654 23.7495 28.5772C23.9529 28.2518 24.2784 27.8856 24.5226 27.6008C21.0235 25.6074 17.8499 23.1664 14.6356 20.7661C16.4665 21.9053 23.7902 25.6481 25.5804 26.421C27.452 27.2347 29.3236 28.0483 31.2766 28.4959C32.9041 28.862 34.9791 29.0654 36.4845 28.1297C37.8679 27.3161 38.3968 25.6481 38.6002 24.1428C39.0885 20.8882 37.9493 17.2267 36.2404 14.4603C34.4502 11.5718 31.5207 8.96813 28.1844 8.11379C26.9638 7.78833 25.7432 7.78833 24.6039 7.99175C21.9593 8.43926 19.5587 10.0666 17.7278 12.1007C15.0832 15.0299 13.2523 18.6506 11.5841 22.2307C10.4449 24.631 8.85807 30.4893 5.11487 28.1704C3.4467 27.1126 2.38884 25.2819 1.65648 23.4919C0.842736 21.5798 0.273118 19.0168 0.802048 16.942C1.94128 12.5889 8.04433 16.4538 10.1194 17.837C9.9973 17.7963 5.11487 15.5587 3.32464 17.3081C2.5109 18.1218 2.55159 19.5863 2.67365 20.6441C2.91777 22.5562 3.85357 25.404 5.6438 26.4617C7.96296 27.8043 9.14288 23.6139 9.75318 22.1493C10.7704 19.6677 11.7468 17.1861 12.8861 14.7451C14.1474 12.06 15.6528 9.41564 17.7278 7.25946C17.2803 6.73058 16.6293 6.07966 16.5886 5.38805C16.5072 4.61508 17.2803 3.76074 18.094 4.16757C17.1582 3.10982 18.4195 1.52319 19.6401 2.13343C19.0705 1.23841 19.9656 0.0992928 20.9014 0.139976C21.4303 0.139976 21.9593 0.587484 22.3661 0.872263C23.424 1.56387 24.4819 2.29616 25.5804 2.98777C35.7115 1.40114 43.6454 12.9144 42.7503 22.1493Z" fill="white"/>
<path d="M42.3843 24.1836C41.774 26.5025 40.4313 28.618 38.2342 29.7978C35.2234 31.3438 31.6429 30.7742 28.6321 29.5944C26.1502 31.3438 26.1502 31.3438 26.1502 31.3438C25.5805 31.7099 24.8482 31.0997 25.1737 30.4894C24.482 30.6115 24.2786 29.9606 24.482 29.4317C23.9124 29.8792 23.4241 29.0655 23.7496 28.5773C23.9531 28.2519 24.2786 27.8857 24.5227 27.6009C21.0236 25.6075 17.85 23.1665 14.6357 20.7662C16.4667 21.9054 23.7903 25.6482 25.5805 26.4212C27.4521 27.2348 29.3237 28.0485 31.2767 28.496C32.9042 28.8621 34.9792 29.0655 36.4846 28.1298C37.868 27.3162 38.3969 25.6482 38.6004 24.1429C39.0886 20.8883 37.9494 17.2268 36.2405 14.4604C34.4503 11.5719 31.5208 8.96824 28.1845 8.1139C26.9639 7.78844 25.7433 7.78844 24.6041 7.99185C29.161 6.60864 37.9494 8.43936 41.0416 15.4775C42.5063 18.9355 42.7911 21.7019 42.3843 24.1836Z" fill="white"/>
</svg>
