<svg viewBox="0 0 20 20" fill="none" xmlns="http://www.w3.org/2000/svg">
<circle cx="10" cy="10" r="10" fill="white"/>
<path d="M12.4517 10.0889C12.4517 9.66071 12.7943 9.31812 13.2226 9.31812C13.6509 9.31812 13.9935 9.66071 13.9935 10.0889C13.9935 10.5172 13.6509 10.8598 13.2226 10.8598C12.7943 10.8598 12.4517 10.5029 12.4517 10.0889Z" fill="#171753"/>
<path d="M17.1056 11.959C17.077 12.2017 17.0485 12.4444 16.9771 12.6728C16.7629 13.4864 16.2918 14.2287 15.5209 14.6427C14.4645 15.1851 13.2082 14.9853 12.1517 14.5713C11.2809 15.1851 11.2809 15.1851 11.2809 15.1851C11.081 15.3136 10.8241 15.0995 10.9383 14.8853C10.6956 14.9282 10.6242 14.6998 10.6956 14.5142C10.4957 14.6712 10.3244 14.3857 10.4386 14.2144C10.51 14.1002 10.6242 13.9718 10.7099 13.8718C9.48211 13.1724 8.36857 12.3159 7.24076 11.4737C7.88318 11.8734 10.4529 13.1867 11.081 13.4579C11.7377 13.7434 12.3944 14.0289 13.0797 14.1859C13.6507 14.3144 14.3788 14.3857 14.907 14.0574C15.3924 13.7719 15.578 13.1867 15.6494 12.6585C15.8207 11.5165 15.421 10.2318 14.8214 9.26113C14.1932 8.24763 13.1654 7.33406 11.9947 7.03429C11.5664 6.92009 11.1381 6.92009 10.7384 6.99146C9.81046 7.14848 8.96817 7.71947 8.32574 8.4332C7.39779 9.46098 6.75537 10.7314 6.17005 11.9876C5.77032 12.8298 5.21355 14.8853 3.90014 14.0717C3.31482 13.7006 2.94364 13.0582 2.68667 12.4301C2.40115 11.7592 2.20128 10.8599 2.38687 10.1319C2.7866 8.6045 4.92802 9.96059 5.65611 10.4459C5.61328 10.4317 3.90014 9.64655 3.27199 10.2604C2.98647 10.5459 3.00075 11.0597 3.04357 11.4309C3.12923 12.1018 3.45758 13.101 4.08573 13.4722C4.89947 13.9432 5.31348 12.4729 5.52762 11.959C5.88452 11.0883 6.22715 10.2175 6.62688 9.36106C7.06944 8.41893 7.59766 7.49108 8.32574 6.73452C8.16871 6.54895 7.94029 6.32056 7.92601 6.07789C7.89746 5.80667 8.16871 5.5069 8.45423 5.64965C8.12588 5.27851 8.56844 4.72179 8.99672 4.93591C8.79685 4.62187 9.11093 4.22218 9.43928 4.23646C9.62487 4.23646 9.81046 4.39348 9.95322 4.4934C10.3244 4.73607 10.6956 4.99301 11.081 5.23568C14.6358 4.67897 17.4196 8.7187 17.1056 11.959Z" fill="#171753"/>
</svg>
