<svg viewBox="0 0 24 24" fill="none" xmlns="http://www.w3.org/2000/svg">
<ellipse cx="12.2131" cy="12" rx="11.7869" ry="12" fill="#FFA54B"/>
<path d="M15.459 12.1543C15.459 11.5834 15.9077 11.1267 16.4685 11.1267C17.0293 11.1267 17.478 11.5834 17.478 12.1543C17.478 12.7252 17.0293 13.1819 16.4685 13.1819C15.9077 13.1819 15.459 12.7062 15.459 12.1543Z" fill="url(#paint0_linear_121_428)"/>
<path d="M21.5535 14.6475C21.5162 14.971 21.4788 15.2945 21.3853 15.599C21.1049 16.6837 20.488 17.6732 19.4785 18.2251C18.0952 18.9482 16.4501 18.6818 15.0668 18.13C13.9264 18.9482 13.9264 18.9482 13.9264 18.9482C13.6647 19.1195 13.3282 18.8341 13.4778 18.5486C13.16 18.6057 13.0665 18.3012 13.16 18.0538C12.8983 18.2632 12.674 17.8826 12.8235 17.6542C12.917 17.502 13.0665 17.3307 13.1787 17.1975C11.571 16.265 10.1129 15.1232 8.63608 14.0005C9.4773 14.5333 12.8422 16.2841 13.6647 16.6456C14.5246 17.0262 15.3846 17.4068 16.2819 17.6161C17.0296 17.7874 17.983 17.8826 18.6747 17.4449C19.3103 17.0643 19.5533 16.284 19.6468 15.5799C19.8711 14.0576 19.3477 12.3449 18.5625 11.0508C17.74 9.6997 16.394 8.48179 14.8611 8.08216C14.3003 7.92992 13.7395 7.92992 13.2161 8.02507C12.001 8.2344 10.898 8.9956 10.0568 9.94709C8.84171 11.3172 8.00049 13.0109 7.23404 14.6855C6.71061 15.8083 5.98155 18.5486 4.26171 17.4639C3.49527 16.9691 3.00922 16.1128 2.67274 15.2755C2.29886 14.3811 2.03714 13.1822 2.28016 12.2117C2.80359 10.1755 5.60767 11.9833 6.56106 12.6303C6.50498 12.6113 4.26171 11.5646 3.43918 12.3829C3.06531 12.7635 3.084 13.4486 3.14008 13.9434C3.25225 14.8378 3.6822 16.1699 4.50473 16.6646C5.57028 17.2926 6.11241 15.3326 6.39281 14.6475C6.86016 13.4867 7.30881 12.3258 7.83224 11.184C8.41175 9.92806 9.10343 8.69112 10.0568 7.68253C9.85118 7.43515 9.55208 7.13067 9.53338 6.80716C9.496 6.44559 9.85118 6.04596 10.2251 6.23626C9.7951 5.74149 10.3746 4.99932 10.9354 5.28477C10.6737 4.86611 11.085 4.33327 11.5149 4.3523C11.758 4.3523 12.001 4.56163 12.1879 4.69484C12.674 5.01835 13.16 5.36089 13.6647 5.6844C18.3195 4.94223 21.9648 10.3277 21.5535 14.6475Z" fill="url(#paint1_linear_121_428)"/>
<defs>
<linearGradient id="paint0_linear_121_428" x1="15.459" y1="12.1543" x2="17.478" y2="12.1543" gradientUnits="userSpaceOnUse">
<stop stop-color="#030332"/>
<stop offset="1" stop-color="#171753"/>
</linearGradient>
<linearGradient id="paint1_linear_121_428" x1="2.18597" y1="11.6759" x2="21.5852" y2="11.6759" gradientUnits="userSpaceOnUse">
<stop stop-color="#030332"/>
<stop offset="1" stop-color="#171753"/>
</linearGradient>
</defs>
</svg>
