<svg viewBox="0 0 20 20" fill="none" xmlns="http://www.w3.org/2000/svg">
<circle cx="10" cy="10" r="10" fill="url(#paint0_linear_92_3745)"/>
<path d="M12.4514 10.0889C12.4514 9.66071 12.794 9.31812 13.2223 9.31812C13.6506 9.31812 13.9932 9.66071 13.9932 10.0889C13.9932 10.5172 13.6506 10.8598 13.2223 10.8598C12.794 10.8598 12.4514 10.5029 12.4514 10.0889Z" fill="white"/>
<path d="M17.1054 11.959C17.0769 12.2017 17.0483 12.4444 16.977 12.6728C16.7628 13.4864 16.2917 14.2287 15.5208 14.6427C14.4644 15.1851 13.2081 14.9853 12.1516 14.5713C11.2808 15.1851 11.2808 15.1851 11.2808 15.1851C11.0809 15.3136 10.8239 15.0995 10.9382 14.8853C10.6955 14.9282 10.6241 14.6998 10.6955 14.5142C10.4956 14.6712 10.3243 14.3857 10.4385 14.2144C10.5099 14.1002 10.6241 13.9718 10.7097 13.8718C9.48199 13.1724 8.36845 12.3159 7.24063 11.4737C7.88306 11.8734 10.4528 13.1867 11.0809 13.4579C11.7376 13.7434 12.3943 14.0289 13.0796 14.1859C13.6506 14.3144 14.3787 14.3857 14.9069 14.0574C15.3923 13.7719 15.5779 13.1867 15.6493 12.6585C15.8206 11.5165 15.4209 10.2318 14.8213 9.26113C14.1931 8.24763 13.1652 7.33406 11.9946 7.03429C11.5663 6.92009 11.138 6.92009 10.7383 6.99146C9.81034 7.14848 8.96805 7.71947 8.32562 8.4332C7.39767 9.46098 6.75525 10.7314 6.16992 11.9876C5.77019 12.8298 5.21342 14.8853 3.90002 14.0717C3.3147 13.7006 2.94352 13.0582 2.68655 12.4301C2.40103 11.7592 2.20116 10.8599 2.38675 10.1319C2.78648 8.6045 4.9279 9.96059 5.65598 10.4459C5.61316 10.4317 3.90002 9.64655 3.27187 10.2604C2.98635 10.5459 3.00062 11.0597 3.04345 11.4309C3.12911 12.1018 3.45746 13.101 4.08561 13.4722C4.89935 13.9432 5.31336 12.4729 5.5275 11.959C5.8844 11.0883 6.22703 10.2175 6.62676 9.36106C7.06932 8.41893 7.59754 7.49108 8.32562 6.73452C8.16858 6.54895 7.94017 6.32056 7.92589 6.07789C7.89734 5.80667 8.16858 5.5069 8.45411 5.64965C8.12575 5.27851 8.56832 4.72179 8.9966 4.93591C8.79673 4.62187 9.11081 4.22218 9.43916 4.23646C9.62475 4.23646 9.81034 4.39348 9.9531 4.4934C10.3243 4.73607 10.6955 4.99301 11.0809 5.23568C14.6357 4.67897 17.4195 8.7187 17.1054 11.959Z" fill="white"/>
<defs>
<linearGradient id="paint0_linear_92_3745" x1="-7.45058e-08" y1="10" x2="20" y2="10" gradientUnits="userSpaceOnUse">
<stop stop-color="#030332"/>
<stop offset="1" stop-color="#171753"/>
</linearGradient>
</defs>
</svg>
