<svg width="35" height="35" viewBox="0 0 35 35" fill="none" xmlns="http://www.w3.org/2000/svg">
<circle cx="17.5" cy="17.5" r="17.5" fill="url(#paint0_linear_2738_14738)"/>
<path d="M21.79 17.6557C21.79 16.9063 22.3896 16.3068 23.1391 16.3068C23.8886 16.3068 24.4882 16.9063 24.4882 17.6557C24.4882 18.4051 23.8886 19.0047 23.1391 19.0047C22.3896 19.0047 21.79 18.3802 21.79 17.6557Z" fill="white"/>
<path d="M29.9344 20.9283C29.8844 21.353 29.8344 21.7777 29.7095 22.1774C29.3348 23.6013 28.5103 24.9003 27.1612 25.6247C25.3125 26.574 23.1139 26.2242 21.2652 25.4998C19.7412 26.574 19.7412 26.574 19.7412 26.574C19.3914 26.7988 18.9417 26.4241 19.1416 26.0494C18.7169 26.1243 18.592 25.7246 18.7169 25.3999C18.3671 25.6747 18.0673 25.175 18.2672 24.8753C18.3921 24.6754 18.592 24.4506 18.7419 24.2757C16.5933 23.0517 14.6446 21.5528 12.671 20.079C13.7952 20.7784 18.2922 23.0767 19.3914 23.5513C20.5407 24.0509 21.6899 24.5505 22.8891 24.8253C23.8884 25.0501 25.1626 25.175 26.087 24.6005C26.9364 24.1009 27.2612 23.0767 27.3861 22.1524C27.6859 20.1539 26.9863 17.9057 25.9371 16.207C24.8378 14.4334 23.039 12.8346 20.9904 12.31C20.2409 12.1102 19.4914 12.1102 18.7919 12.2351C17.1679 12.5098 15.6939 13.5091 14.5697 14.7581C12.9458 16.5567 11.8215 18.78 10.7972 20.9783C10.0977 22.4521 9.12334 26.0494 6.82488 24.6255C5.80057 23.976 5.15101 22.8518 4.70131 21.7527C4.20164 20.5786 3.85188 19.0048 4.17666 17.7308C4.87619 15.0579 8.62368 17.431 9.89782 18.2804C9.82287 18.2554 6.82488 16.8815 5.72562 17.9556C5.22596 18.4552 5.25094 19.3545 5.32589 20.004C5.47579 21.1781 6.0504 22.9268 7.14966 23.5763C8.57371 24.4006 9.29822 21.8276 9.67297 20.9283C10.2976 19.4045 10.8971 17.8807 11.5967 16.3819C12.3712 14.7331 13.2955 13.1094 14.5697 11.7854C14.2949 11.4607 13.8951 11.061 13.8702 10.6363C13.8202 10.1617 14.2949 9.63708 14.7945 9.88688C14.2199 9.23739 14.9944 8.26314 15.7439 8.63785C15.3941 8.08828 15.9438 7.38882 16.5184 7.4138C16.8432 7.4138 17.1679 7.68858 17.4178 7.86345C18.0673 8.28812 18.7169 8.73777 19.3914 9.16244C25.6123 8.1882 30.484 15.2577 29.9344 20.9283Z" fill="white"/>
<defs>
<linearGradient id="paint0_linear_2738_14738" x1="-1.30385e-07" y1="17.5" x2="35" y2="17.5" gradientUnits="userSpaceOnUse">
<stop stop-color="#030332"/>
<stop offset="1" stop-color="#171753"/>
</linearGradient>
</defs>
</svg>
