<svg width="600" height="223" viewBox="0 0 600 223" fill="none" xmlns="http://www.w3.org/2000/svg">
<path fill-rule="evenodd" clip-rule="evenodd" d="M600 208.685C576.053 218.729 549.324 204.337 530.681 195.691C512.064 187.046 497.438 188.366 482.039 208.608C466.667 228.824 449.466 228.358 428.454 203.379C407.442 178.4 405.047 175.061 374.945 176.976C344.844 178.892 334.338 165.457 328.132 148.166C321.926 130.875 305.214 120.806 273.671 134.24C242.153 147.674 230.694 117.907 235.458 101.107C240.221 84.3077 223.046 71.8052 209.656 81.9004C196.292 91.9956 179.555 102.557 154.242 75.6621C128.93 48.7675 105.523 35.7991 76.8637 51.6667C48.204 67.5083 27.1919 48.3016 25.7499 29.0949C24.3595 9.86226 11.948 4.95691e-05 -2.52724e-05 5.05762e-05L600 0L600 208.685Z" fill="#0B0B3F"/>
</svg>
