<svg viewBox="0 0 48 49" fill="none" xmlns="http://www.w3.org/2000/svg">
<path fill-rule="evenodd" clip-rule="evenodd" d="M14.8514 8.61674C13.84 8.61674 13.0514 9.40469 13.0514 10.4245V13.3334C13.0514 13.72 12.738 14.0334 12.3514 14.0334C11.9648 14.0334 11.6514 13.72 11.6514 13.3334V10.4245C11.6514 8.63557 13.0627 7.21674 14.8514 7.21674H33.8514C35.64 7.21674 37.0514 8.63557 37.0514 10.4245V37.909C37.0514 39.6979 35.64 41.1167 33.8514 41.1167H14.8514C13.0627 41.1167 11.6514 39.6979 11.6514 37.909V35.4013C11.6514 35.0147 11.9648 34.7013 12.3514 34.7013C12.738 34.7013 13.0514 35.0147 13.0514 35.4013V37.909C13.0514 38.9288 13.84 39.7167 14.8514 39.7167H33.8514C34.8627 39.7167 35.6514 38.9288 35.6514 37.909V10.4245C35.6514 9.40469 34.8627 8.61674 33.8514 8.61674H14.8514Z" fill="#ECFFFE"/>
<path fill-rule="evenodd" clip-rule="evenodd" d="M12.3514 15.6519C12.738 15.6519 13.0514 15.9653 13.0514 16.3519V32.3519C13.0514 32.7385 12.738 33.0519 12.3514 33.0519C11.9648 33.0519 11.6514 32.7385 11.6514 32.3519V16.3519C11.6514 15.9653 11.9648 15.6519 12.3514 15.6519Z" fill="#ECFFFE"/>
<path fill-rule="evenodd" clip-rule="evenodd" d="M10.0449 16.3519C10.0449 15.9653 10.3583 15.6519 10.7449 15.6519H13.7449C14.1315 15.6519 14.4449 15.9653 14.4449 16.3519C14.4449 16.7385 14.1315 17.0519 13.7449 17.0519H10.7449C10.3583 17.0519 10.0449 16.7385 10.0449 16.3519Z" fill="#ECFFFE"/>
<path fill-rule="evenodd" clip-rule="evenodd" d="M10.0449 24.3854C10.0449 23.9988 10.3583 23.6854 10.7449 23.6854H13.7449C14.1315 23.6854 14.4449 23.9988 14.4449 24.3854C14.4449 24.772 14.1315 25.0854 13.7449 25.0854H10.7449C10.3583 25.0854 10.0449 24.772 10.0449 24.3854Z" fill="#ECFFFE"/>
<path fill-rule="evenodd" clip-rule="evenodd" d="M10.0449 32.4189C10.0449 32.0323 10.3583 31.7189 10.7449 31.7189H13.7449C14.1315 31.7189 14.4449 32.0323 14.4449 32.4189C14.4449 32.8055 14.1315 33.1189 13.7449 33.1189H10.7449C10.3583 33.1189 10.0449 32.8055 10.0449 32.4189Z" fill="#ECFFFE"/>
<path d="M24.2137 30.9063C23.2338 30.9063 22.3266 30.7432 21.4919 30.4169C20.6663 30.0997 19.9496 29.642 19.3417 29.0438C18.7338 28.4546 18.2621 27.7522 17.9264 26.9365C17.5907 26.1117 17.4229 25.2009 17.4229 24.2039C17.4229 23.2432 17.5862 22.3504 17.9128 21.5256C18.2394 20.7009 18.7021 19.9803 19.3009 19.364C19.9087 18.7477 20.6345 18.2673 21.4783 17.9229C22.322 17.5785 23.2565 17.4063 24.2817 17.4063C25.1799 17.4063 26.0282 17.5377 26.8266 17.8006C27.625 18.0543 28.3326 18.435 28.9496 18.9426C29.5665 19.4411 30.0473 20.0619 30.3921 20.8051C30.7459 21.5392 30.9229 22.3912 30.9229 23.361C30.9229 24.1586 30.8004 24.8701 30.5554 25.4954C30.3105 26.1208 29.9702 26.6148 29.5347 26.9773C29.1083 27.3398 28.6093 27.5211 28.0378 27.5211C27.6114 27.5211 27.2439 27.4305 26.9355 27.2492C26.627 27.0679 26.3866 26.8187 26.2142 26.5015C26.0509 26.1752 25.9692 25.8036 25.9692 25.3867V24.7369C25.9692 24.6303 26.0557 24.5438 26.1624 24.5438C26.2723 24.5438 26.3604 24.6354 26.3514 24.7449C26.3055 25.2995 26.1691 25.7672 25.942 26.148C25.697 26.574 25.375 26.8912 24.9758 27.0997C24.5857 27.3081 24.1592 27.4124 23.6965 27.4124C23.1431 27.4124 22.6441 27.2764 22.1996 27.0045C21.7641 26.7235 21.4193 26.3474 21.1653 25.8761C20.9113 25.4048 20.7842 24.8701 20.7842 24.2719V24.0543C20.7842 23.4562 20.9158 22.9259 21.1789 22.4637C21.442 22.0015 21.7958 21.6389 22.2404 21.3761C22.694 21.1133 23.1975 20.9818 23.751 20.9818C24.25 20.9818 24.6991 21.0906 25.0983 21.3081C25.4974 21.5256 25.8195 21.8383 26.0645 22.2462C26.2818 22.5951 26.4161 23.0102 26.4674 23.4917C26.4819 23.6275 26.3722 23.7417 26.2357 23.7417C26.1036 23.7417 25.9964 23.6345 25.9964 23.5024V21.7029C25.9964 21.4098 26.2341 21.1722 26.5272 21.1722C26.8203 21.1722 27.0579 21.4098 27.0579 21.7029V25.3595C27.0579 25.6133 27.0988 25.8217 27.1804 25.9849C27.2711 26.148 27.3891 26.2704 27.5342 26.3519C27.6794 26.4244 27.8382 26.4607 28.0106 26.4607C28.319 26.4607 28.6048 26.3383 28.8679 26.0936C29.131 25.8398 29.3442 25.4864 29.5075 25.0332C29.6708 24.58 29.7525 24.0408 29.7525 23.4154C29.7525 22.5906 29.6073 21.8701 29.317 21.2537C29.0358 20.6374 28.6411 20.1253 28.133 19.7175C27.625 19.3096 27.0398 19.006 26.3775 18.8066C25.7243 18.5982 25.0302 18.4939 24.2953 18.4939C23.4244 18.4939 22.635 18.6389 21.9274 18.929C21.2288 19.219 20.63 19.6269 20.131 20.1525C19.632 20.6692 19.251 21.2764 18.9879 21.9743C18.7248 22.6631 18.5932 23.4108 18.5932 24.2175C18.5932 25.3232 18.8291 26.2976 19.3009 27.1404C19.7726 27.9743 20.4304 28.6223 21.2742 29.0846C22.127 29.5559 23.1068 29.7915 24.2137 29.7915C24.504 29.7915 24.7853 29.7734 25.0574 29.7371C25.094 29.7335 25.1305 29.7295 25.1668 29.7252C25.5157 29.6837 25.8467 29.9415 25.8467 30.2928C25.8467 30.5476 25.669 30.7698 25.417 30.8073C25.299 30.8249 25.1791 30.8398 25.0574 30.8519C24.7853 30.8882 24.504 30.9063 24.2137 30.9063ZM23.9279 26.3791C24.2817 26.3791 24.6083 26.2975 24.9077 26.1344C25.2162 25.9713 25.4612 25.7311 25.6426 25.4139C25.8241 25.0966 25.9148 24.7114 25.9148 24.2583V23.9048C25.9148 23.4788 25.8195 23.1299 25.629 22.858C25.4385 22.577 25.1935 22.3685 24.8941 22.2326C24.5947 22.0876 24.2726 22.0151 23.9279 22.0151C23.5378 22.0151 23.193 22.1057 22.8936 22.287C22.6033 22.4592 22.3765 22.7084 22.2132 23.0347C22.0589 23.3519 21.9818 23.7281 21.9818 24.1631C21.9818 24.5982 22.0635 24.9833 22.2268 25.3187C22.3901 25.654 22.6169 25.9169 22.9072 26.1072C23.1975 26.2885 23.5378 26.3791 23.9279 26.3791Z" fill="#ECFFFE"/>
</svg>
