<svg  viewBox="0 0 12 6" fill="none" xmlns="http://www.w3.org/2000/svg">
<path d="M11.8467 0.848222C11.9462 0.753825 12.0012 0.627394 12 0.496161C11.9987 0.364929 11.9413 0.239394 11.8401 0.146596C11.7388 0.0537969 11.6019 0.00115928 11.4587 1.8897e-05C11.3155 -0.00112148 11.1776 0.0493272 11.0746 0.140499L6 4.7917L0.925424 0.140499C0.822434 0.0493267 0.684496 -0.00112195 0.54132 1.84198e-05C0.398143 0.00115879 0.261183 0.0537964 0.159939 0.146595C0.0586939 0.239394 0.00126551 0.364928 2.09591e-05 0.496161C-0.00122359 0.627393 0.0538168 0.753824 0.153287 0.848222L5.61393 5.85333C5.66461 5.89983 5.7248 5.93671 5.79104 5.96188C5.85729 5.98704 5.92829 6 6 6C6.07171 6 6.14271 5.98704 6.20896 5.96188C6.2752 5.93671 6.33539 5.89983 6.38607 5.85333L11.8467 0.848222Z" fill="white"/>
</svg>
