<svg viewBox="0 0 6 12" fill="none" xmlns="http://www.w3.org/2000/svg">
<path d="M0.848222 0.153287C0.753825 0.0538167 0.627394 -0.00122352 0.496161 2.06427e-05C0.364929 0.00126481 0.239394 0.0586932 0.146596 0.159938C0.0537969 0.261183 0.00115929 0.398143 1.89206e-05 0.541319C-0.00112145 0.684495 0.0493272 0.822434 0.140499 0.925423L4.7917 6L0.140499 11.0746C0.0493272 11.1776 -0.00112145 11.3155 1.89206e-05 11.4587C0.00115929 11.6019 0.0537969 11.7388 0.146596 11.8401C0.239394 11.9413 0.364929 11.9987 0.496161 12C0.627394 12.0012 0.753825 11.9462 0.848222 11.8467L5.85333 6.38607C5.89983 6.33539 5.93671 6.2752 5.96188 6.20896C5.98704 6.14271 6 6.07171 6 6C6 5.92829 5.98704 5.85729 5.96188 5.79104C5.93671 5.7248 5.89983 5.66461 5.85333 5.61393L0.848222 0.153287Z" fill="white"/>
</svg>
