<svg viewBox="0 0 15 27" fill="none" xmlns="http://www.w3.org/2000/svg">
<path d="M0.658964 26.2455C0.772661 26.3579 0.907674 26.447 1.05628 26.5078C1.20488 26.5687 1.36417 26.6 1.52503 26.6C1.6859 26.6 1.84519 26.5687 1.99379 26.5078C2.1424 26.447 2.27741 26.3579 2.39111 26.2455L14.641 14.1478C14.7548 14.0355 14.8451 13.9022 14.9067 13.7555C14.9683 13.6087 15 13.4514 15 13.2925C15 13.1337 14.9683 12.9764 14.9067 12.8296C14.8451 12.6828 14.7548 12.5495 14.641 12.4372L2.39111 0.339571C2.16007 0.119202 1.85063 -0.00273514 1.52944 2.09808e-05C1.20825 0.0027771 0.901009 0.130005 0.673885 0.354305C0.446761 0.578606 0.317931 0.88203 0.315141 1.19923C0.312349 1.51642 0.435822 1.82202 0.658964 2.05018L12.0427 13.2925L0.658964 24.5349C0.545165 24.6471 0.454889 24.7805 0.393296 24.9272C0.331702 25.074 0.3 25.2313 0.3 25.3902C0.3 25.549 0.331702 25.7063 0.393296 25.8531C0.454889 25.9999 0.545165 26.1332 0.658964 26.2455Z" fill="#FFC78F"/>
</svg>
