<svg viewBox="0 0 15 27" fill="none" xmlns="http://www.w3.org/2000/svg">
<path d="M14.341 0.354502C14.2273 0.242117 14.0923 0.152964 13.9437 0.0921362C13.7951 0.0313083 13.6358 0 13.475 0C13.3141 0 13.1548 0.0313083 13.0062 0.0921362C12.8576 0.152964 12.7226 0.242117 12.6089 0.354502L0.358964 12.4521C0.245165 12.5644 0.15489 12.6978 0.093296 12.8445C0.0317025 12.9913 0 13.1486 0 13.3075C0 13.4663 0.0317025 13.6236 0.093296 13.7704C0.15489 13.9171 0.245165 14.0505 0.358964 14.1628L12.6089 26.2604C12.8399 26.4808 13.1494 26.6027 13.4706 26.6C13.7917 26.5972 14.099 26.47 14.3261 26.2457C14.5532 26.0214 14.6821 25.7179 14.6849 25.4007C14.6877 25.0836 14.5642 24.778 14.341 24.5498L2.9573 13.3075L14.341 2.06511C14.4548 1.95283 14.5451 1.81949 14.6067 1.67273C14.6683 1.52598 14.7 1.36867 14.7 1.20981C14.7 1.05094 14.6683 0.893636 14.6067 0.746878C14.5451 0.60012 14.4548 0.466785 14.341 0.354502Z" fill="#FFC78F"/>
</svg>
