<svg viewBox="0 0 28 28" fill="none" xmlns="http://www.w3.org/2000/svg">
<g clip-path="url(#clip0_519_5637)">
<path d="M7.76316 13.4138L19.7878 13.4138C20.041 13.4138 20.252 13.6296 20.252 13.8885C20.252 14.1475 20.041 14.3633 19.7878 14.3633L7.76316 14.3633C7.51001 14.3633 7.29905 14.1475 7.29905 13.8885C7.29905 13.6296 7.51001 13.4138 7.76316 13.4138Z" fill="#171753"/>
<path d="M12.8884 8.16958C13.015 8.16958 13.1205 8.21275 13.226 8.32065C13.4158 8.51487 13.4158 8.81699 13.226 9.01121L8.43718 13.9099L13.2259 18.7871C13.4158 18.9813 13.4158 19.2834 13.2259 19.4776C13.0361 19.6718 12.7407 19.6718 12.5509 19.4776L7.42457 14.2336C7.23471 14.0394 7.23471 13.7373 7.42457 13.5431L12.5509 8.29907C12.6353 8.21274 12.7618 8.16958 12.8884 8.16958Z" fill="#171753"/>
</g>
<path d="M14 28C6.28511 28 0 21.7149 0 14C0 6.28511 6.28511 0 14 0C21.7149 0 28 6.28511 28 14C28 21.7149 21.7149 28 14 28ZM14 1.34043C7.02979 1.34043 1.34043 7.02979 1.34043 14C1.34043 20.9702 7.02979 26.6596 14 26.6596C20.9702 26.6596 26.6596 20.9702 26.6596 14C26.6596 7.02979 20.9702 1.34043 14 1.34043Z" fill="#171753"/>
<defs>
<clipPath id="clip0_519_5637">
<rect width="12.974" height="11.4375" fill="white" transform="translate(20.272 19.6072) rotate(-180)"/>
</clipPath>
</defs>
</svg>
