<svg viewBox="0 0 36 36" fill="none" xmlns="http://www.w3.org/2000/svg">
<g clip-path="url(#clip0_396_8451)">
<path d="M9.98107 17.2461L25.4414 17.2461C25.7669 17.2461 26.0381 17.5236 26.0381 17.8565C26.0381 18.1895 25.7669 18.4669 25.4414 18.4669L9.98107 18.4669C9.65559 18.4669 9.38435 18.1895 9.38435 17.8565C9.38435 17.5236 9.65559 17.2461 9.98107 17.2461Z" fill="white"/>
<path d="M16.5704 10.5038C16.7332 10.5038 16.8688 10.5592 17.0044 10.698C17.2485 10.9477 17.2485 11.3361 17.0044 11.5859L10.8474 17.8842L17.0044 24.1548C17.2485 24.4045 17.2485 24.793 17.0044 25.0427C16.7603 25.2924 16.3806 25.2924 16.1365 25.0427L9.5455 18.3004C9.30139 18.0507 9.30139 17.6622 9.5455 17.4125L16.1365 10.6702C16.245 10.5592 16.4077 10.5038 16.5704 10.5038Z" fill="white"/>
</g>
<path d="M18 36C8.08085 36 0 27.9192 0 18C0 8.08088 8.08085 3.05176e-05 18 3.05176e-05C27.9191 3.05176e-05 36 8.08088 36 18C36 27.9192 27.9191 36 18 36ZM18 1.72344C9.0383 1.72344 1.7234 9.03833 1.7234 18C1.7234 26.9617 9.0383 34.2766 18 34.2766C26.9617 34.2766 34.2766 26.9617 34.2766 18C34.2766 9.03833 26.9617 1.72344 18 1.72344Z" fill="white"/>
<defs>
<clipPath id="clip0_396_8451">
<rect width="16.6809" height="14.7054" fill="white" transform="translate(26.064 25.2092) rotate(-180)"/>
</clipPath>
</defs>
</svg>
