<svg viewBox="0 0 15 20" fill="none" xmlns="http://www.w3.org/2000/svg">
<path d="M7.71094 0C7.80486 0.0307893 7.90159 0.057925 7.99269 0.0939328C8.59984 0.328766 8.98677 0.94403 8.99992 1.69811C9.00509 1.9846 9.0079 2.27215 8.99992 2.5576C8.99523 2.69798 9.03842 2.75695 9.1591 2.80496C10.909 3.50076 12.0451 4.84018 12.5673 6.82322C12.7081 7.35186 12.7448 7.89511 12.748 8.44462C12.7537 9.40744 12.7063 10.3723 12.7729 11.3336C12.8776 12.8324 13.4439 14.0911 14.4263 15.1212C14.5028 15.2016 14.585 15.2778 14.6611 15.3586C14.9898 15.7239 15.0964 16.262 14.9123 16.7264C14.7174 17.2196 14.3671 17.4915 13.8825 17.4956C12.6818 17.5061 11.4807 17.5019 10.28 17.4956C10.1447 17.4956 10.0921 17.5311 10.0644 17.6866C9.82449 19.0257 8.73273 20.0021 7.49306 19.9995C6.26419 19.9963 5.17901 19.0189 4.93906 17.6871C4.91136 17.5306 4.8597 17.4951 4.724 17.4956C3.53441 17.5019 2.34483 17.5028 1.15525 17.4982C0.326453 17.4951 -0.218721 16.6111 0.0869709 15.7761C0.167093 15.5735 0.289032 15.3947 0.442907 15.2543C1.35756 14.3808 1.96935 13.1801 2.17281 11.8591C2.22881 11.4933 2.25584 11.1228 2.25358 10.7517C2.25639 9.88598 2.24513 9.02022 2.26015 8.15447C2.30147 5.76543 3.7501 3.58095 5.79133 2.82635C5.95286 2.76634 6.00874 2.68963 6.00217 2.50124C5.9858 2.16977 5.98988 1.83744 6.01438 1.50659C6.08106 0.752511 6.54077 0.201958 7.20897 0.0365303C7.23646 0.0274653 7.2633 0.0161256 7.28927 0.00260863L7.71094 0ZM7.5048 16.6701V16.6601C8.25424 16.6601 9.00367 16.6601 9.75311 16.6601C11.0942 16.6622 12.4352 16.6657 13.7759 16.6706C13.9708 16.6706 14.1375 16.6231 14.2192 16.4003C14.2882 16.2124 14.2403 16.0543 14.0563 15.8716C12.6715 14.4945 11.993 12.7703 11.9991 10.7079C11.9991 9.94025 11.9991 9.17208 11.9991 8.40444C12.0011 8.14396 11.9854 7.88368 11.9521 7.62583C11.5539 4.65127 8.96987 2.75225 6.34026 3.5032C4.42817 4.05062 3.02696 6.02374 3.00161 8.21813C2.99081 9.15747 3.01287 10.0931 2.99268 11.0299C2.96122 12.4999 2.52828 13.8171 1.71075 14.9761C1.46643 15.3169 1.19382 15.6314 0.896513 15.9155C0.76738 16.0412 0.711971 16.1983 0.775832 16.3883C0.839694 16.5782 0.972114 16.6539 1.14351 16.6648C1.20174 16.6685 1.26043 16.6648 1.31913 16.6648L7.5048 16.6701ZM5.67723 17.4998C5.67754 17.5302 5.67958 17.5605 5.68333 17.5906C5.87398 18.4872 6.61872 19.1426 7.47569 19.1676C8.28945 19.1922 9.06566 18.5539 9.29669 17.6814C9.33472 17.5374 9.32346 17.4951 9.17507 17.4962C8.11008 17.5035 7.04462 17.4998 5.97916 17.4998H5.67723ZM8.24673 2.05297C8.24673 1.90007 8.24673 1.78317 8.24673 1.66627C8.23452 1.19139 7.91521 0.831311 7.50433 0.831311C7.09345 0.831311 6.76663 1.18826 6.75301 1.65949C6.74738 1.90633 6.75724 2.15369 6.74926 2.40052C6.7455 2.52524 6.78354 2.55708 6.89013 2.5409C7.18609 2.50103 7.48454 2.48898 7.78232 2.50489C7.93117 2.51011 8.12182 2.61761 8.21667 2.50907C8.31153 2.40052 8.23592 2.18708 8.24579 2.05558L8.24673 2.05297Z" fill="#F5F5F5"/>
</svg>
