<svg viewBox="0 0 20 19" fill="none" xmlns="http://www.w3.org/2000/svg">
<path d="M14.0815 16.1403H3.85324C3.67829 16.1403 3.5332 16.0097 3.5332 15.8521V4.71651C3.5332 4.55891 3.67829 4.42822 3.85324 4.42822H14.0815C14.2565 4.42822 14.4016 4.55891 14.4016 4.71651V15.8521C14.4016 16.0097 14.2565 16.1403 14.0815 16.1403ZM4.17327 15.5638H13.7615V5.0048H4.17327V15.5638Z" fill="#F5F5F5"/>
<path d="M14.0812 16.1403C13.9745 16.1403 13.8721 16.0941 13.8124 16.0096C13.7142 15.875 13.7569 15.6982 13.9062 15.6098L16.2148 14.253V11.5815C16.2148 11.4239 16.3598 11.2932 16.5348 11.2932C16.7098 11.2932 16.8548 11.4239 16.8548 11.5815V14.4106C16.8548 14.5066 16.7994 14.5989 16.7098 14.6527L14.2562 16.0941C14.2007 16.1249 14.1409 16.1403 14.0812 16.1403Z" fill="#F5F5F5"/>
<path d="M16.5352 9.13668C16.3603 9.13668 16.2152 9.00599 16.2152 8.8484V3.56315H10.9709C10.796 3.56315 10.6509 3.43246 10.6509 3.27486C10.6509 3.11726 10.796 2.98657 10.9709 2.98657H16.5352C16.7102 2.98657 16.8553 3.11726 16.8553 3.27486V8.85224C16.8553 9.00984 16.7102 9.13668 16.5352 9.13668Z" fill="#F5F5F5"/>
<path d="M3.85317 5.00506C3.74649 5.00506 3.64408 4.95894 3.58434 4.87438C3.4862 4.73984 3.52887 4.56303 3.67822 4.47462L6.13181 3.03319C6.18302 3.00244 6.24276 2.98706 6.30677 2.98706H8.11603C8.29098 2.98706 8.43606 3.11775 8.43606 3.27535C8.43606 3.43294 8.29098 3.56363 8.11603 3.56363H6.40064L4.02812 4.95894C3.97265 4.98969 3.91291 5.00506 3.85317 5.00506Z" fill="#F5F5F5"/>
<path d="M14.0812 5.00471C13.9788 5.00471 13.8764 4.95858 13.8124 4.87402C13.7142 4.73949 13.7569 4.56267 13.9062 4.47426L16.3726 3.02514C16.522 2.93674 16.7183 2.97517 16.8164 3.10971C16.9146 3.24424 16.8719 3.42106 16.7225 3.50946L14.2561 4.95858C14.2007 4.98933 14.1409 5.00471 14.0812 5.00471Z" fill="#F5F5F5"/>
<path d="M2.19334 10.7395C2.47378 10.7395 2.70112 10.5347 2.70112 10.2821C2.70112 10.0295 2.47378 9.82471 2.19334 9.82471C1.91289 9.82471 1.68555 10.0295 1.68555 10.2821C1.68555 10.5347 1.91289 10.7395 2.19334 10.7395Z" fill="#F5F5F5"/>
<path d="M0.999578 10.3871C1.06402 10.1413 0.895016 9.89493 0.622089 9.83688C0.349161 9.77882 0.0756667 9.93107 0.0112208 10.1769C-0.0532251 10.4228 0.115782 10.6691 0.38871 10.7272C0.661637 10.7852 0.935132 10.633 0.999578 10.3871Z" fill="#F5F5F5"/>
<path d="M19.4922 10.7398C19.7726 10.7398 20 10.535 20 10.2824C20 10.0297 19.7726 9.82495 19.4922 9.82495C19.2117 9.82495 18.9844 10.0297 18.9844 10.2824C18.9844 10.535 19.2117 10.7398 19.4922 10.7398Z" fill="#F5F5F5"/>
<path d="M18.1648 10.6052C18.3631 10.4265 18.3631 10.1369 18.1648 9.9583C17.9665 9.77967 17.645 9.77967 17.4467 9.9583C17.2484 10.1369 17.2484 10.4265 17.4467 10.6052C17.645 10.7838 17.9665 10.7838 18.1648 10.6052Z" fill="#F5F5F5"/>
<path d="M16.1169 10.7398C16.3974 10.7398 16.6247 10.535 16.6247 10.2824C16.6247 10.0297 16.3974 9.82495 16.1169 9.82495C15.8365 9.82495 15.6091 10.0297 15.6091 10.2824C15.6091 10.535 15.8365 10.7398 16.1169 10.7398Z" fill="#F5F5F5"/>
<path d="M9.58859 0.914829C9.86903 0.914829 10.0964 0.710038 10.0964 0.457414C10.0964 0.204791 9.86903 0 9.58859 0C9.30815 0 9.08081 0.204791 9.08081 0.457414C9.08081 0.710038 9.30815 0.914829 9.58859 0.914829Z" fill="#F5F5F5"/>
<path d="M10.0823 2.08197C10.1468 1.83611 9.97778 1.58975 9.70485 1.5317C9.43193 1.47364 9.15843 1.62589 9.09398 1.87174C9.02954 2.11759 9.19855 2.36396 9.47147 2.42201C9.7444 2.48006 10.0179 2.32782 10.0823 2.08197Z" fill="#F5F5F5"/>
<path d="M9.58859 3.95536C9.86903 3.95536 10.0964 3.75056 10.0964 3.49794C10.0964 3.24532 9.86903 3.04053 9.58859 3.04053C9.30815 3.04053 9.08081 3.24532 9.08081 3.49794C9.08081 3.75056 9.30815 3.95536 9.58859 3.95536Z" fill="#F5F5F5"/>
<path d="M9.58859 17.4817C9.86904 17.4817 10.0964 17.2769 10.0964 17.0243C10.0964 16.7717 9.86904 16.5669 9.58859 16.5669C9.30815 16.5669 9.08081 16.7717 9.08081 17.0243C9.08081 17.2769 9.30815 17.4817 9.58859 17.4817Z" fill="#F5F5F5"/>
<path d="M10.0811 18.6498C10.1456 18.404 9.97656 18.1576 9.70363 18.0996C9.4307 18.0415 9.15721 18.1938 9.09276 18.4396C9.02832 18.6855 9.19732 18.9318 9.47025 18.9899C9.74318 19.0479 10.0167 18.8957 10.0811 18.6498Z" fill="#F5F5F5"/>
<path d="M9.24262 13.4803C9.025 13.4803 8.80737 13.4265 8.61109 13.3189L6.64394 12.2196C6.28977 12.0197 6.07642 11.6776 6.07642 11.3047V9.00612C6.07642 8.62943 6.28977 8.28733 6.64394 8.09129L8.61109 6.99196C8.99939 6.77286 9.48158 6.77286 9.87415 6.99196L11.8413 8.09129C12.1955 8.29117 12.4088 8.63327 12.4088 9.00612V11.3047C12.4088 11.6814 12.1955 12.0235 11.8413 12.2196L9.87415 13.3189C9.67787 13.4265 9.46024 13.4803 9.24262 13.4803ZM9.24262 7.35712C9.13168 7.35712 9.02073 7.38403 8.92259 7.44169L6.95544 8.53718C6.77622 8.63712 6.66955 8.81009 6.66955 9.00228V11.3009C6.66955 11.4931 6.77622 11.666 6.95544 11.766L8.92259 12.8653C9.11887 12.9768 9.36637 12.9768 9.56265 12.8653L11.5298 11.766C11.709 11.666 11.8157 11.4931 11.8157 11.3009V9.00228C11.8157 8.81009 11.709 8.63712 11.5298 8.53718L9.56265 7.43784C9.46451 7.38403 9.35357 7.35712 9.24262 7.35712Z" fill="#F5F5F5"/>
<path d="M9.24282 11.6237C8.33819 11.6237 7.60425 10.9625 7.60425 10.1477C7.60425 9.33277 8.33819 8.67163 9.24282 8.67163C10.1474 8.67163 10.8814 9.33277 10.8814 10.1477C10.8814 10.9625 10.1474 11.6237 9.24282 11.6237ZM9.24282 9.20208C8.66249 9.20208 8.19311 9.6249 8.19311 10.1477C8.19311 10.6704 8.66249 11.0932 9.24282 11.0932C9.82315 11.0932 10.2925 10.6704 10.2925 10.1477C10.2925 9.6249 9.82315 9.20208 9.24282 9.20208Z" fill="#F5F5F5"/>
</svg>
