<svg viewBox="0 0 26 25" fill="none" xmlns="http://www.w3.org/2000/svg">
<path d="M12.8535 25C5.96522 25 0.353516 19.3883 0.353516 12.5C0.353516 5.6117 5.96522 0 12.8535 0C19.7418 0 25.3535 5.6117 25.3535 12.5C25.3535 19.3883 19.7418 25 12.8535 25ZM12.8535 1.19681C6.60352 1.19681 1.55032 6.25 1.55032 12.5C1.55032 18.75 6.60352 23.8032 12.8535 23.8032C19.0769 23.8032 24.1567 18.7234 24.1567 12.5C24.1567 6.2766 19.0769 1.19681 12.8535 1.19681Z" fill="#171753"/>
<path d="M11.2576 17.2606C11.0715 17.2606 10.8587 17.1808 10.7257 17.0479L6.92254 13.2181C6.62999 12.9255 6.62999 12.4468 6.92254 12.1542C7.21509 11.8617 7.69382 11.8617 7.98637 12.1542L11.2576 15.4787L17.7204 9.01594C18.013 8.72339 18.4917 8.72339 18.7842 9.01594C19.0768 9.30849 19.0768 9.78722 18.7842 10.0798L11.7896 17.0479C11.6566 17.1808 11.4704 17.2606 11.2576 17.2606Z" fill="#171753"/>
</svg>
