<svg viewBox="0 0 34 41" fill="none" xmlns="http://www.w3.org/2000/svg">
<path d="M9.67425 6.64293C9.39384 6.64293 9.11342 6.42864 8.97322 6.14293L7.29074 0.928641C7.15054 0.571498 7.36085 0.142927 7.71136 6.95661e-05C8.06188 -0.142788 8.4825 0.0714981 8.6227 0.428641L10.3052 5.71435C10.4454 6.0715 10.2351 6.50007 9.88456 6.64293C9.81446 6.64293 9.74435 6.64293 9.67425 6.64293Z" fill="white"/>
<path d="M14.3712 6.85727C14.231 6.85727 14.1608 6.85727 14.0206 6.78584C13.6701 6.64298 13.5299 6.14298 13.7402 5.85727L16.1237 1.07155C16.2639 0.714411 16.6846 0.571554 17.0351 0.714411C17.3856 0.857268 17.5258 1.35727 17.3155 1.64298L14.932 6.4287C14.8619 6.71441 14.5815 6.85727 14.3712 6.85727Z" fill="white"/>
<path d="M16.7546 10.5715C16.4742 10.5715 16.1938 10.3572 16.0536 10.0715C15.9134 9.71436 16.1237 9.28578 16.4742 9.14293L21.3814 7.50007C21.7319 7.35721 22.1525 7.5715 22.2927 7.92864C22.4329 8.28578 22.2226 8.71435 21.8721 8.85721L16.9649 10.5001C16.8948 10.5715 16.8247 10.5715 16.7546 10.5715Z" fill="white"/>
<path d="M0.700911 16.1429C0.420499 16.1429 0.140086 15.9286 -0.000119932 15.6429C-0.140326 15.2858 0.0699832 14.8572 0.420499 14.7144L5.60813 13.0001C5.95864 12.8572 6.37926 13.0715 6.51947 13.4286C6.65967 13.7858 6.44936 14.2144 6.09885 14.3572L0.91122 16.0715C0.841117 16.1429 0.771014 16.1429 0.700911 16.1429Z" fill="white"/>
<path d="M6.23934 9.71438C6.09913 9.71438 6.02903 9.71438 5.88882 9.64295L1.05171 7.14295C0.701195 7.00009 0.560989 6.57152 0.771298 6.21438C0.911505 5.85723 1.33212 5.71438 1.68264 5.85723L6.51975 8.35723C6.87027 8.50009 7.01047 9.00009 6.80016 9.2858C6.73006 9.57152 6.44965 9.71438 6.23934 9.71438Z" fill="white"/>
<path d="M22.9938 41.0002C20.2598 41.0002 17.666 40.0002 15.5629 38.1431L5.46806 28.3573C5.04744 27.9288 4.83713 27.3573 4.90724 26.7145C4.97734 26.1431 5.32785 25.6431 5.81858 25.3573C7.64126 24.3573 9.60414 24.5716 11.567 26.0002L13.4598 27.4288L8.76291 12.7859C8.48249 11.9288 8.6227 11.0002 9.04332 10.2859C9.46394 9.5002 10.2351 9.0002 11.1464 8.85735C12.5485 8.64306 13.9505 9.57163 14.4413 11.0002L16.334 16.8573C16.8248 16.2859 17.4557 15.9288 18.1567 15.8573C19.2083 15.7145 20.2598 16.1431 20.9608 17.0716C21.4516 16.4288 22.0825 16.0002 22.9237 15.8573C23.9753 15.7145 25.0268 16.1431 25.7279 17.0716C26.2186 16.4288 26.9196 16.0002 27.6907 15.8573C29.0928 15.6431 30.4949 16.5716 30.9856 18.0002L33.5093 25.8573C34.631 29.4288 34.1402 33.2859 32.1773 36.1431C30.2846 38.8573 27.5505 40.5002 24.3258 40.8573C23.765 41.0002 23.4145 41.0002 22.9938 41.0002ZM8.20208 26.1431C7.64126 26.1431 7.08043 26.2859 6.51961 26.5716C6.3794 26.7145 6.3093 26.8573 6.3093 26.9288C6.3093 27.0002 6.3093 27.1431 6.4495 27.3573L16.4742 37.0716C18.5072 38.9288 21.2413 39.8573 24.0454 39.5002C26.8495 39.2145 29.233 37.7145 30.9155 35.3573C32.6681 32.8573 33.0887 29.5002 32.1072 26.3573L29.5835 18.5002C29.3031 17.7145 28.6021 17.2145 27.831 17.2859C27.3402 17.3573 26.9897 17.6431 26.7093 18.0002C26.499 18.4288 26.4289 18.8573 26.5691 19.2859L27.9712 23.5716C28.1114 23.9288 27.9011 24.3573 27.5505 24.5002C27.2 24.6431 26.7794 24.4288 26.6392 24.0716L24.8165 18.5002C24.5361 17.7145 23.8351 17.1431 23.0639 17.2859C22.5732 17.3573 22.2227 17.6431 21.9423 18.0002C21.732 18.4288 21.6619 18.8573 21.8021 19.2859L23.2041 23.6431C23.3444 24.0002 23.134 24.4288 22.7835 24.5716C22.433 24.7145 22.0124 24.5002 21.8722 24.1431L20.0495 18.5002C19.7691 17.7145 19.0681 17.2145 18.2969 17.2859C17.8062 17.3573 17.4557 17.6431 17.1753 18.0002C16.965 18.4288 16.8949 18.8573 17.0351 19.2859L18.4371 23.6431C18.5773 24.0002 18.367 24.4288 18.0165 24.5716C17.666 24.7145 17.2454 24.5002 17.1052 24.1431L13.0392 11.5002C12.7588 10.7145 12.0578 10.2145 11.2866 10.2859C10.7959 10.3573 10.4454 10.6431 10.165 11.0002C9.95466 11.4288 9.88456 11.8573 10.0248 12.2859L15.4227 29.0716C15.4928 29.3573 15.4227 29.7145 15.1423 29.8573C14.8619 30.0716 14.5815 30.0002 14.3011 29.8573L10.7959 27.1431C9.88456 26.5002 9.04332 26.1431 8.20208 26.1431Z" fill="white"/>
</svg>
