<svg viewBox="0 0 28 28" fill="none" xmlns="http://www.w3.org/2000/svg">
<path d="M14.0002 28C6.28522 28 0 21.7149 0 14C0 6.28511 6.28522 0 14.0002 0C21.7153 0 28.0005 6.28511 28.0005 14C28.0005 21.7149 21.7153 28 14.0002 28ZM14.0002 1.34043C7.02991 1.34043 1.34045 7.02979 1.34045 14C1.34045 20.9702 7.02991 26.6596 14.0002 26.6596C20.9706 26.6596 26.66 20.9702 26.66 14C26.66 7.02979 20.9706 1.34043 14.0002 1.34043Z" fill="#171753"/>
<path d="M8.98106 19.0283C8.7283 18.7755 8.7283 18.3543 8.98106 18.1015L18.1013 8.98121C18.3541 8.72845 18.7753 8.72846 19.0281 8.98122C19.2809 9.23398 19.2809 9.65524 19.0281 9.908L9.90784 19.0283C9.65509 19.281 9.23382 19.281 8.98106 19.0283Z" fill="#171753"/>
<path d="M18.1015 19.0071L9.00208 9.90774C8.74931 9.65498 8.74931 9.23372 9.00207 8.98096C9.25482 8.72821 9.67609 8.72821 9.92885 8.98097L19.0493 18.1014C19.3021 18.3542 19.3021 18.7755 19.0494 19.0282C18.7966 19.281 18.3753 19.281 18.1015 19.0071Z" fill="#171753"/>
</svg>
