<svg viewBox="0 0 36 36" fill="none" xmlns="http://www.w3.org/2000/svg">
<path d="M18 36C8.08085 36 0 27.9192 0 18C0 8.08085 8.08085 0 18 0C27.9191 0 36 8.08085 36 18C36 27.9192 27.9191 36 18 36ZM18 1.7234C9.0383 1.7234 1.7234 9.0383 1.7234 18C1.7234 26.9617 9.0383 34.2766 18 34.2766C26.9617 34.2766 34.2766 26.9617 34.2766 18C34.2766 9.0383 26.9617 1.7234 18 1.7234Z" fill="white"/>
<path d="M11.5477 24.4646C11.2227 24.1396 11.2227 23.598 11.5477 23.273L23.2734 11.5471C23.5983 11.2221 24.1399 11.2221 24.4649 11.5471C24.7899 11.8721 24.7899 12.4137 24.4649 12.7386L12.7392 24.4646C12.4143 24.7895 11.8727 24.7895 11.5477 24.4646Z" fill="white"/>
<path d="M23.2735 24.4374L11.5747 12.7383C11.2497 12.4133 11.2497 11.8717 11.5746 11.5468C11.8996 11.2218 12.4412 11.2218 12.7662 11.5468L24.4921 23.2729C24.8171 23.5979 24.8171 24.1395 24.4921 24.4645C24.1672 24.7894 23.6255 24.7894 23.2735 24.4374Z" fill="white"/>
</svg>
