<svg viewBox="0 0 31 26" fill="none" xmlns="http://www.w3.org/2000/svg">
<g clip-path="url(#clip0_230_1252)">
<path d="M30.421 0.395752H6.86842C6.55263 0.395752 6.28947 0.655449 6.28947 0.967084V3.48614H3.73684C3.42105 3.48614 3.15789 3.74584 3.15789 4.05747V6.57653H0.578947C0.263158 6.57653 0 6.83623 0 7.14786V24.4177C0 24.7293 0.263158 24.989 0.578947 24.989H24.1316C24.4474 24.989 24.7105 24.7293 24.7105 24.4177V21.8986H27.2631C27.5789 21.8986 27.8421 21.6389 27.8421 21.3273V18.8082H30.3947C30.7105 18.8082 30.9737 18.5485 30.9737 18.2369V0.967084C31 0.655449 30.7368 0.395752 30.421 0.395752ZM23.5526 23.8464H1.18421V7.74517H23.5526V23.8464ZM26.6842 20.756H24.7368V7.17383C24.7368 6.8622 24.4737 6.6025 24.1579 6.6025H4.31579V4.65478H26.6842V20.756ZM29.8158 17.6656H27.8684V4.08344C27.8684 3.77181 27.6053 3.51211 27.2895 3.51211H7.44737V1.56439H29.8158V17.6656Z" fill="white"/>
<path d="M17.9999 14.4973C17.9472 14.3155 17.7894 14.2117 17.6051 14.1597L14.2894 13.6923L12.8157 10.7317C12.6578 10.3941 12.1051 10.3941 11.9472 10.7317L10.4736 13.6923L7.47356 14.1078L7.13146 14.1597C6.94725 14.1857 6.78935 14.3155 6.73672 14.4973C6.68409 14.6791 6.73672 14.8609 6.8683 14.9907L7.47356 15.5621L9.26304 17.302L9.21041 17.6656L8.99988 18.8343L8.68409 20.5482C8.68409 20.6262 8.68409 20.6781 8.68409 20.73C8.71041 20.8339 8.78935 20.9378 8.8683 21.0157C9.0262 21.1196 9.21041 21.1456 9.3683 21.0417L9.97356 20.73L12.342 19.5095L14.7104 20.73L15.3157 21.0417C15.3946 21.0676 15.4736 21.0936 15.5525 21.0936C15.6578 21.0936 15.763 21.0676 15.842 20.9897C15.9472 20.9118 15.9999 20.8339 16.0262 20.7041C16.0262 20.6521 16.0525 20.5742 16.0262 20.5223L15.7104 18.7823L15.5262 17.6656L15.4736 17.302L17.8683 14.9907C17.9999 14.8609 18.0525 14.6791 17.9999 14.4973ZM14.6051 16.7826C14.4999 16.8865 14.4472 17.0423 14.4736 17.1982L14.5525 17.6396L14.763 18.8083L14.9209 19.7692L13.0788 18.8083L12.5788 18.5486C12.4999 18.5226 12.4209 18.4966 12.342 18.4966C12.263 18.4966 12.1841 18.5226 12.1051 18.5486L11.6051 18.8083L9.76304 19.7692L9.92093 18.8083L10.1315 17.6396L10.2104 17.1982C10.2367 17.0423 10.1841 16.8865 10.0788 16.7826L8.18409 14.9648L10.7894 14.6012C10.9472 14.5752 11.0788 14.4714 11.1578 14.3415L12.3157 12.0042L13.4736 14.3415C13.5525 14.4714 13.6841 14.5752 13.842 14.6012L16.4472 14.9648L14.6051 16.7826Z" fill="white"/>
</g>
<defs>
<clipPath id="clip0_230_1252">
<rect width="31" height="24.6192" fill="white" transform="translate(0 0.395752)"/>
</clipPath>
</defs>
</svg>
