<svg viewBox="0 0 19 19" fill="none" xmlns="http://www.w3.org/2000/svg">
<path d="M17.0854 0H6.29923C5.79204 0.00192486 5.30616 0.204261 4.94752 0.562904C4.58888 0.921548 4.38654 1.40742 4.38461 1.91462V4.38461H1.91462C1.40742 4.38654 0.921548 4.58888 0.562904 4.94752C0.204261 5.30616 0.00192486 5.79204 0 6.29923V17.0854C0.00192486 17.5926 0.204261 18.0785 0.562904 18.4371C0.921548 18.7957 1.40742 18.9981 1.91462 19H12.7008C13.208 18.9981 13.6938 18.7957 14.0525 18.4371C14.4111 18.0785 14.6135 17.5926 14.6154 17.0854V14.6154H17.0854C17.5926 14.6135 18.0785 14.4111 18.4371 14.0525C18.7957 13.6938 18.9981 13.208 19 12.7008V1.91462C18.9981 1.40742 18.7957 0.921548 18.4371 0.562904C18.0785 0.204261 17.5926 0.00192486 17.0854 0ZM13.1538 17.0854C13.1538 17.2055 13.1061 17.3208 13.0211 17.4058C12.9362 17.4907 12.8209 17.5385 12.7008 17.5385H1.91462C1.79445 17.5385 1.67921 17.4907 1.59424 17.4058C1.50927 17.3208 1.46154 17.2055 1.46154 17.0854V6.29923C1.46154 6.17907 1.50927 6.06383 1.59424 5.97886C1.67921 5.89389 1.79445 5.84615 1.91462 5.84615H12.7008C12.8209 5.84615 12.9362 5.89389 13.0211 5.97886C13.1061 6.06383 13.1538 6.17907 13.1538 6.29923V17.0854ZM17.5385 12.7008C17.5385 12.8209 17.4907 12.9362 17.4058 13.0211C17.3208 13.1061 17.2055 13.1538 17.0854 13.1538H14.6154V6.29923C14.6135 5.79204 14.4111 5.30616 14.0525 4.94752C13.6938 4.58888 13.208 4.38654 12.7008 4.38461H5.84615V1.91462C5.84615 1.79445 5.89389 1.67921 5.97886 1.59424C6.06383 1.50927 6.17907 1.46154 6.29923 1.46154H17.0854C17.2055 1.46154 17.3208 1.50927 17.4058 1.59424C17.4907 1.67921 17.5385 1.79445 17.5385 1.91462V12.7008Z" fill="#171753"/>
</svg>
