<svg width="20" height="21" viewBox="0 0 20 21" fill="none" xmlns="http://www.w3.org/2000/svg">
<path fill-rule="evenodd" clip-rule="evenodd" d="M2.05679 4.70266C1.39135 4.70266 0.87454 5.21948 0.87454 5.88491V18.1932C0.87454 18.8587 1.39135 19.3755 2.05679 19.3755H14.3651C15.0249 19.3755 15.5474 18.832 15.5474 18.1932V5.88491C15.5474 5.21948 15.0306 4.70266 14.3651 4.70266H2.05679ZM0 5.88491C0 4.73649 0.908359 3.82812 2.05679 3.82812H14.3651C15.5135 3.82812 16.4219 4.73649 16.4219 5.88491V18.1932C16.4219 19.3036 15.5192 20.25 14.3651 20.25H2.05679C0.908359 20.25 0 19.3417 0 18.1932V5.88491Z" fill="white"/>
<path fill-rule="evenodd" clip-rule="evenodd" d="M5.63455 1.12454C4.96911 1.12454 4.4523 1.64135 4.4523 2.30679C4.4523 2.54828 4.25653 2.74406 4.01503 2.74406C3.77353 2.74406 3.57776 2.54828 3.57776 2.30679C3.57776 1.15836 4.48612 0.25 5.63455 0.25H17.9429C19.0913 0.25 19.9997 1.15836 19.9997 2.30679V14.6151C19.9997 15.7635 19.0913 16.6719 17.9429 16.6719C17.7014 16.6719 17.5056 16.4761 17.5056 16.2346C17.5056 15.9931 17.7014 15.7974 17.9429 15.7974C18.6083 15.7974 19.1251 15.2806 19.1251 14.6151V2.30679C19.1251 1.64135 18.6083 1.12454 17.9429 1.12454H5.63455Z" fill="white"/>
</svg>
