<svg viewBox="0 0 29 28" fill="none" xmlns="http://www.w3.org/2000/svg">
<path d="M14.5003 27.864C6.90774 27.864 0.72229 21.7661 0.72229 14.281C0.72229 6.79591 6.90774 0.697998 14.5003 0.697998C22.0929 0.697998 28.2783 6.79591 28.2783 14.281C28.2783 21.7661 22.0929 27.864 14.5003 27.864ZM14.5003 1.9985C7.64062 1.9985 2.04146 7.51841 2.04146 14.281C2.04146 21.0436 7.64062 26.5635 14.5003 26.5635C21.36 26.5635 26.9592 21.0436 26.9592 14.281C26.9592 7.51841 21.36 1.9985 14.5003 1.9985Z" fill="white"/>
<path d="M14.5003 21.1881C14.1485 21.1881 13.8553 20.8991 13.8553 20.5523V8.03863C13.8553 7.69183 14.1485 7.40283 14.5003 7.40283C14.8521 7.40283 15.1452 7.69183 15.1452 8.03863V20.5523C15.1452 20.8991 14.8521 21.1881 14.5003 21.1881Z" fill="white"/>
<path d="M20.8323 14.9166H8.16824C7.81646 14.9166 7.52332 14.6276 7.52332 14.2808C7.52332 13.934 7.81646 13.645 8.16824 13.645H20.8616C21.2134 13.645 21.5065 13.934 21.5065 14.2808C21.5065 14.6276 21.2134 14.9166 20.8323 14.9166Z" fill="white"/>
</svg>
