<svg viewBox="0 0 6 7" fill="none" xmlns="http://www.w3.org/2000/svg">
<path d="M0.28108 6.20746C0.144564 6.07094 0.144563 5.84341 0.281076 5.7069L5.20694 0.781036C5.34345 0.644523 5.57098 0.644525 5.70749 0.781041C5.84401 0.917557 5.84401 1.14508 5.7075 1.28159L0.781635 6.20746C0.645121 6.34397 0.417595 6.34397 0.28108 6.20746Z" fill="white"/>
<path d="M5.20709 6.19617L0.292516 1.28159C0.156 1.14507 0.155998 0.91755 0.292511 0.781036C0.429025 0.644523 0.656549 0.644525 0.793065 0.781041L5.71902 5.707C5.85554 5.84351 5.85554 6.07104 5.71902 6.20755C5.58251 6.34406 5.35499 6.34406 5.20709 6.19617Z" fill="white"/>
</svg>
