<svg viewBox="0 0 10 10" fill="none" xmlns="http://www.w3.org/2000/svg">
<path d="M0.472681 9.12059C0.245359 8.90713 0.245358 8.55135 0.472676 8.33789L8.67505 0.635457C8.90237 0.421995 9.28123 0.421999 9.50855 0.635465C9.73587 0.848931 9.73588 1.2047 9.50856 1.41817L1.30619 9.1206C1.07887 9.33406 0.700002 9.33406 0.472681 9.12059Z" fill="#FFC78F"/>
<path d="M8.67504 9.10279L0.491464 1.41801C0.264142 1.20454 0.264138 0.848766 0.491456 0.635304C0.718773 0.421842 1.09764 0.421846 1.32496 0.635312L9.52747 8.33788C9.75479 8.55135 9.7548 8.90712 9.52748 9.12059C9.30017 9.33405 8.9213 9.33404 8.67504 9.10279Z" fill="#FFC78F"/>
</svg>
