<svg viewBox="0 0 7 7" fill="none" xmlns="http://www.w3.org/2000/svg">
<path d="M0.781079 6.20746C0.644563 6.07094 0.644563 5.84341 0.781076 5.7069L5.70694 0.781036C5.84345 0.644523 6.07098 0.644525 6.20749 0.781041C6.34401 0.917557 6.34401 1.14508 6.2075 1.28159L1.28163 6.20746C1.14512 6.34397 0.917595 6.34397 0.781079 6.20746Z" fill="#171753"/>
<path d="M5.70709 6.19617L0.792516 1.28159C0.656 1.14507 0.655998 0.91755 0.792511 0.781036C0.929025 0.644523 1.15655 0.644525 1.29306 0.781041L6.21902 5.707C6.35554 5.84351 6.35554 6.07104 6.21902 6.20755C6.08251 6.34406 5.85499 6.34406 5.70709 6.19617Z" fill="#171753"/>
</svg>
