<svg viewBox="0 0 40 40" fill="none" xmlns="http://www.w3.org/2000/svg">
<ellipse cx="20.0001" cy="19.9999" rx="17.3914" ry="17.3913" fill="#9BE7C4"/>
<path d="M33.8676 23.3641C33.814 23.825 33.7604 24.2859 33.6263 24.7197C33.2241 26.2651 32.3392 27.6749 30.8912 28.4612C28.907 29.4915 26.5473 29.1119 24.5631 28.3256C22.9274 29.4915 22.9274 29.4915 22.9274 29.4915C22.552 29.7355 22.0693 29.3288 22.2838 28.9221C21.828 29.0034 21.6939 28.5696 21.828 28.2172C21.4526 28.5154 21.1308 27.9732 21.3453 27.6478C21.4794 27.4309 21.6939 27.1869 21.8548 26.9971C19.5488 25.6686 17.4573 24.0419 15.3389 22.4422C16.5456 23.2014 21.3722 25.6957 22.552 26.2109C23.7854 26.7531 25.0189 27.2954 26.306 27.5936C27.3786 27.8376 28.7461 27.9732 29.7382 27.3496C30.6499 26.8073 30.9985 25.6957 31.1326 24.6926C31.4543 22.5236 30.7035 20.0835 29.5773 18.2398C28.3975 16.3148 26.4669 14.5796 24.2681 14.0103C23.4637 13.7934 22.6592 13.7934 21.9084 13.929C20.1655 14.2272 18.5835 15.3117 17.3768 16.6673C15.6339 18.6194 14.4273 21.0324 13.3279 23.4183C12.5771 25.0179 11.5313 28.9221 9.0644 27.3767C7.96501 26.6718 7.26784 25.4517 6.78518 24.2588C6.24889 22.9845 5.87349 21.2764 6.22208 19.8937C6.97288 16.9927 10.995 19.5683 12.3626 20.4901C12.2821 20.463 9.06439 18.9719 7.88457 20.1377C7.34828 20.6799 7.37509 21.656 7.45554 22.3609C7.61642 23.6352 8.23315 25.533 9.41298 26.238C10.9414 27.1327 11.719 24.3401 12.1212 23.3641C12.7916 21.7102 13.4351 20.0563 14.1859 18.4296C15.0172 16.6402 16.0093 14.8779 17.3768 13.4409C17.0819 13.0885 16.6528 12.6547 16.626 12.1938C16.5724 11.6786 17.0819 11.1093 17.6182 11.3804C17.0014 10.6755 17.8327 9.61808 18.6371 10.0248C18.2617 9.4283 18.8516 8.66915 19.4683 8.69626C19.8169 8.69626 20.1655 8.9945 20.4337 9.18428C21.1308 9.64519 21.828 10.1332 22.552 10.5941C29.2287 9.53675 34.4575 17.2095 33.8676 23.3641Z" fill="url(#paint0_linear_121_410)"/>
<circle cx="20" cy="20" r="19.5" stroke="white"/>
<defs>
<linearGradient id="paint0_linear_121_410" x1="6.08697" y1="19.1303" x2="33.9131" y2="19.1303" gradientUnits="userSpaceOnUse">
<stop stop-color="#030332"/>
<stop offset="1" stop-color="#171753"/>
</linearGradient>
</defs>
</svg>
