<svg  viewBox="0 0 24 24" fill="none" xmlns="http://www.w3.org/2000/svg">
<path fill-rule="evenodd" clip-rule="evenodd" d="M12.0591 19.5837C16.2718 19.5837 19.6841 16.1714 19.6841 11.9587C19.6841 7.74607 16.2718 4.33374 12.0591 4.33374C7.84641 4.33374 4.43408 7.74607 4.43408 11.9587C4.43408 16.1714 7.84641 19.5837 12.0591 19.5837ZM20.6841 11.9587C20.6841 16.7237 16.824 20.5837 12.0591 20.5837C7.29413 20.5837 3.43408 16.7237 3.43408 11.9587C3.43408 7.19378 7.29413 3.33374 12.0591 3.33374C16.824 3.33374 20.6841 7.19379 20.6841 11.9587Z" fill="#171753"/>
<path fill-rule="evenodd" clip-rule="evenodd" d="M16.0386 13.3445C15.7674 13.62 15.3242 13.6235 15.0487 13.3523L12.0397 10.3902L9.03082 13.3523C8.75532 13.6235 8.31212 13.62 8.0409 13.3445C7.76969 13.069 7.77317 12.6258 8.04867 12.3546L11.2012 9.25124C11.6722 8.78754 12.4073 8.78754 12.8783 9.25124L16.0308 12.3546C16.3063 12.6258 16.3098 13.069 16.0386 13.3445Z" fill="#171753"/>
</svg>
