<svg viewBox="0 0 18 21" fill="none" xmlns="http://www.w3.org/2000/svg">
<path d="M0.481481 17.3103C0.350168 17.3103 0.24074 17.2671 0.131313 17.1807C0.043771 17.0726 0 16.9645 0 16.8349L0.0218855 11.8212C0.0218855 11.6915 0.0656565 11.5618 0.175084 11.4754L11.6431 0.129665C11.8182 -0.0432218 12.1464 -0.0432218 12.3434 0.129665L17.3552 5.07856C17.4427 5.165 17.5084 5.29467 17.5084 5.42433C17.5084 5.554 17.4646 5.68366 17.3552 5.77011L5.86531 17.051C5.77777 17.1374 5.64646 17.1807 5.53703 17.2023L0.481481 17.3103C0.503366 17.3103 0.503366 17.3103 0.481481 17.3103ZM1.00673 12.0157L0.984847 16.3378L5.31817 16.2298L16.3047 5.42433L11.9932 1.16699L1.00673 12.0157Z" fill="#237B75"/>
<path d="M17.005 20.2927H0.481481C0.218855 20.2927 0 20.0766 0 19.8172C0 19.5579 0.218855 19.3418 0.481481 19.3418H16.9831C17.2458 19.3418 17.4646 19.5579 17.4646 19.8172C17.4865 20.0766 17.2676 20.2927 17.005 20.2927Z" fill="#237B75"/>
</svg>
