<svg viewBox="0 0 13 13" fill="none" xmlns="http://www.w3.org/2000/svg">
<path d="M1.05622 11.4789C0.995654 11.4787 0.935723 11.4668 0.879867 11.444C0.824012 11.4211 0.773328 11.3877 0.730728 11.3457C0.670821 11.287 0.628868 11.2132 0.609587 11.1326C0.590305 11.0519 0.59446 10.9676 0.621584 10.8891L1.29985 8.90478L10.1055 0.391063C10.2323 0.267098 10.3828 0.168747 10.5485 0.101643C10.7142 0.0345387 10.8919 0 11.0713 0C11.2507 0 11.4283 0.0345387 11.594 0.101643C11.7598 0.168747 11.9103 0.267098 12.037 0.391063C12.1643 0.514799 12.2653 0.661853 12.3342 0.823789C12.4031 0.985725 12.4386 1.15935 12.4386 1.3347C12.4386 1.51006 12.4031 1.68368 12.3342 1.84562C12.2653 2.00756 12.1643 2.15461 12.037 2.27835L3.31903 10.7883L1.18875 11.4541C1.14592 11.4682 1.10134 11.4765 1.05622 11.4789ZM1.75981 9.18255L1.16341 10.9271L3.04617 10.3393L11.6648 1.91878C11.8221 1.76472 11.9104 1.55605 11.9104 1.33851C11.9104 1.12097 11.8221 0.912305 11.6648 0.758245C11.5069 0.604659 11.2932 0.518414 11.0703 0.518414C10.8474 0.518414 10.6337 0.604659 10.4758 0.758245L1.75981 9.18255Z" fill="#171753"/>
<path d="M3.08942 10.7274C3.03724 10.7279 2.98619 10.7126 2.94325 10.6836C1.7329 9.89791 1.49902 9.28721 1.47563 9.22062C1.46462 9.18864 1.46017 9.15486 1.46253 9.1212C1.4649 9.08754 1.47403 9.05467 1.48942 9.02445C1.5048 8.99424 1.52613 8.96729 1.55219 8.94512C1.57825 8.92296 1.60853 8.90603 1.6413 8.89529C1.70671 8.87398 1.77807 8.87859 1.84004 8.90812C1.902 8.93765 1.94962 8.98975 1.97263 9.0532C1.97263 9.07222 2.19287 9.57829 3.2356 10.2575C3.26443 10.2761 3.28918 10.3001 3.30844 10.3281C3.3277 10.3561 3.34107 10.3876 3.34777 10.4207C3.35448 10.4538 3.35439 10.4878 3.34752 10.5209C3.34064 10.5539 3.32711 10.5853 3.30771 10.6133C3.28384 10.6484 3.25141 10.6773 3.21331 10.6972C3.17521 10.7171 3.13264 10.7275 3.08942 10.7274V10.7274Z" fill="#171753"/>
<path d="M11.1095 3.08876C11.0634 3.08803 11.0183 3.07531 10.9789 3.0519C10.9395 3.02849 10.9072 2.99524 10.8854 2.95558C10.5309 2.36607 10.0285 1.87436 9.42556 1.5268C9.36354 1.4955 9.31668 1.44158 9.29515 1.37675C9.27361 1.31192 9.27916 1.24141 9.31057 1.18054C9.34263 1.1205 9.39753 1.07511 9.46348 1.05412C9.52944 1.03314 9.60119 1.03823 9.66334 1.0683C10.3573 1.45777 10.9345 2.01796 11.3376 2.69304C11.3732 2.75157 11.3836 2.82153 11.3664 2.88753C11.3492 2.95353 11.3059 3.01018 11.2459 3.045C11.2055 3.07156 11.1583 3.0867 11.1095 3.08876V3.08876Z" fill="#171753"/>
<path d="M12.7369 12.6299H0.263127C0.228501 12.6302 0.194171 12.6237 0.162131 12.6109C0.13009 12.598 0.10098 12.5791 0.076495 12.5552C0.0520103 12.5313 0.0326387 12.5029 0.0195077 12.4716C0.00637661 12.4404 -0.00025205 12.4069 7.32799e-06 12.3731C-0.00025205 12.3393 0.00637661 12.3057 0.0195077 12.2745C0.0326387 12.2432 0.0520103 12.2148 0.076495 12.1909C0.10098 12.167 0.13009 12.1481 0.162131 12.1353C0.194171 12.1224 0.228501 12.116 0.263127 12.1162H12.7369C12.7715 12.116 12.8058 12.1224 12.8379 12.1353C12.8699 12.1481 12.899 12.167 12.9235 12.1909C12.948 12.2148 12.9674 12.2432 12.9805 12.2745C12.9936 12.3057 13.0003 12.3393 13 12.3731C13.0003 12.4069 12.9936 12.4404 12.9805 12.4716C12.9674 12.5029 12.948 12.5313 12.9235 12.5552C12.899 12.5791 12.8699 12.598 12.8379 12.6109C12.8058 12.6237 12.7715 12.6302 12.7369 12.6299Z" fill="#171753"/>
</svg>
