<svg viewBox="0 0 23 22" fill="none" xmlns="http://www.w3.org/2000/svg">
<path d="M2.63118 19.4949C2.53155 19.4946 2.43296 19.4751 2.34108 19.4375C2.24919 19.3999 2.16582 19.345 2.09574 19.2759C1.99719 19.1794 1.92818 19.0579 1.89646 18.9253C1.86474 18.7926 1.87157 18.6539 1.91619 18.5248L3.03196 15.2605L17.5176 1.25513C17.7261 1.0512 17.9737 0.88941 18.2463 0.779022C18.5189 0.668634 18.8111 0.611816 19.1063 0.611816C19.4014 0.611816 19.6936 0.668634 19.9663 0.779022C20.2389 0.88941 20.4865 1.0512 20.695 1.25513C20.9044 1.45868 21.0705 1.70059 21.1839 1.96698C21.2972 2.23337 21.3556 2.51899 21.3556 2.80745C21.3556 3.09591 21.2972 3.38153 21.1839 3.64792C21.0705 3.91431 20.9044 4.15623 20.695 4.35978L6.35358 18.3589L2.8492 19.4543C2.77874 19.4774 2.7054 19.491 2.63118 19.4949ZM3.78862 15.7174L2.80752 18.5873L5.90472 17.6203L20.0826 3.76827C20.3414 3.51483 20.4867 3.17157 20.4867 2.81371C20.4867 2.45585 20.3414 2.11259 20.0826 1.85916C19.8229 1.6065 19.4713 1.46463 19.1047 1.46463C18.7381 1.46463 18.3864 1.6065 18.1268 1.85916L3.78862 15.7174Z" fill="white"/>
<path d="M5.97552 18.2585C5.88969 18.2593 5.80571 18.2341 5.73506 18.1865C3.744 16.894 3.35926 15.8893 3.32078 15.7798C3.30267 15.7272 3.29534 15.6716 3.29923 15.6163C3.30312 15.5609 3.31816 15.5068 3.34346 15.4571C3.36877 15.4074 3.40386 15.3631 3.44673 15.3266C3.4896 15.2902 3.53941 15.2623 3.59331 15.2446C3.70091 15.2096 3.81831 15.2172 3.92024 15.2657C4.02218 15.3143 4.10051 15.4 4.13837 15.5044C4.13837 15.5357 4.50067 16.3682 6.21599 17.4855C6.26341 17.5161 6.30414 17.5556 6.33582 17.6017C6.36749 17.6477 6.38949 17.6995 6.40052 17.7539C6.41156 17.8084 6.41141 17.8644 6.4001 17.9188C6.38879 17.9732 6.36653 18.0248 6.33462 18.0707C6.29535 18.1286 6.24199 18.176 6.17932 18.2088C6.11665 18.2416 6.04662 18.2587 5.97552 18.2585Z" fill="white"/>
<path d="M19.1689 5.6932C19.0931 5.69201 19.0189 5.67107 18.9541 5.63256C18.8893 5.59405 18.8361 5.53936 18.8002 5.47412C18.2171 4.50435 17.3907 3.69547 16.3988 3.12373C16.2967 3.07224 16.2196 2.98354 16.1842 2.87688C16.1488 2.77023 16.1579 2.65425 16.2096 2.55412C16.2623 2.45534 16.3526 2.38067 16.4611 2.34615C16.5696 2.31163 16.6877 2.32 16.7899 2.36947C17.9314 3.01016 18.881 3.93169 19.544 5.04222C19.6027 5.13851 19.6198 5.2536 19.5915 5.36217C19.5632 5.47075 19.492 5.56393 19.3934 5.62122C19.3268 5.66491 19.2491 5.68982 19.1689 5.6932Z" fill="white"/>
<path d="M21.8461 21.3882H1.32635C1.26939 21.3887 1.21291 21.378 1.1602 21.3569C1.1075 21.3358 1.05961 21.3047 1.01933 21.2654C0.979052 21.2261 0.947185 21.1794 0.925584 21.1279C0.903983 21.0765 0.893079 21.0213 0.893506 20.9657C0.893079 20.9101 0.903983 20.855 0.925584 20.8036C0.947185 20.7521 0.979052 20.7054 1.01933 20.6661C1.05961 20.6267 1.1075 20.5956 1.1602 20.5745C1.21291 20.5535 1.26939 20.5428 1.32635 20.5432H21.8461C21.903 20.5428 21.9595 20.5535 22.0122 20.5745C22.0649 20.5956 22.1128 20.6267 22.1531 20.6661C22.1934 20.7054 22.2252 20.7521 22.2468 20.8036C22.2684 20.855 22.2793 20.9101 22.2789 20.9657C22.2793 21.0213 22.2684 21.0765 22.2468 21.1279C22.2252 21.1794 22.1934 21.2261 22.1531 21.2654C22.1128 21.3047 22.0649 21.3358 22.0122 21.3569C21.9595 21.378 21.903 21.3887 21.8461 21.3882Z" fill="white"/>
</svg>
