<svg width="97" height="96" viewBox="0 0 97 96" fill="none" xmlns="http://www.w3.org/2000/svg">
<g opacity="0.5">
<path fill-rule="evenodd" clip-rule="evenodd" d="M18.3611 24.0999C16.3929 24.0999 14.85 25.6401 14.85 27.6433V68.3565C14.85 70.3597 16.3929 71.8999 18.3611 71.8999H78.6389C80.5099 71.8999 82.15 70.2618 82.15 68.3565V27.6433C82.15 25.6401 80.6071 24.0999 78.6389 24.0999H18.3611ZM12.15 27.6433C12.15 24.1659 14.8849 21.3999 18.3611 21.3999H78.6389C82.1151 21.3999 84.85 24.1659 84.85 27.6433V68.3565C84.85 71.7361 82.0179 74.5999 78.6389 74.5999H18.3611C14.8849 74.5999 12.15 71.8339 12.15 68.3565V27.6433Z" fill="#4D3D8D"/>
<path d="M20.6092 30.4241C21.3003 30.4241 21.8605 29.8644 21.8605 29.1741C21.8605 28.4837 21.3003 27.9241 20.6092 27.9241C19.918 27.9241 19.3578 28.4837 19.3578 29.1741C19.3578 29.8644 19.918 30.4241 20.6092 30.4241Z" fill="#4D3D8D"/>
<path fill-rule="evenodd" clip-rule="evenodd" d="M20.6092 29.274C20.6623 29.274 20.7078 29.2306 20.7078 29.174C20.7078 29.1173 20.6623 29.074 20.6092 29.074C20.5561 29.074 20.5106 29.1173 20.5106 29.174C20.5106 29.2306 20.5561 29.274 20.6092 29.274ZM18.0078 29.174C18.0078 27.7366 19.1739 26.574 20.6092 26.574C22.0445 26.574 23.2106 27.7366 23.2106 29.174C23.2106 30.6113 22.0445 31.774 20.6092 31.774C19.1739 31.774 18.0078 30.6113 18.0078 29.174Z" fill="#4D3D8D"/>
<path d="M29.3958 30.4241C30.0869 30.4241 30.6472 29.8644 30.6472 29.1741C30.6472 28.4837 30.0869 27.9241 29.3958 27.9241C28.7047 27.9241 28.1444 28.4837 28.1444 29.1741C28.1444 29.8644 28.7047 30.4241 29.3958 30.4241Z" fill="#4D3D8D"/>
<path fill-rule="evenodd" clip-rule="evenodd" d="M29.3958 29.274C29.4489 29.274 29.4944 29.2306 29.4944 29.174C29.4944 29.1173 29.4489 29.074 29.3958 29.074C29.3427 29.074 29.2972 29.1173 29.2972 29.174C29.2972 29.2306 29.3427 29.274 29.3958 29.274ZM26.7944 29.174C26.7944 27.7366 27.9605 26.574 29.3958 26.574C30.8311 26.574 31.9972 27.7366 31.9972 29.174C31.9972 30.6113 30.8311 31.774 29.3958 31.774C27.9605 31.774 26.7944 30.6113 26.7944 29.174Z" fill="#4D3D8D"/>
<path d="M38.1824 30.4241C38.8735 30.4241 39.4338 29.8644 39.4338 29.1741C39.4338 28.4837 38.8735 27.9241 38.1824 27.9241C37.4913 27.9241 36.931 28.4837 36.931 29.1741C36.931 29.8644 37.4913 30.4241 38.1824 30.4241Z" fill="#4D3D8D"/>
<path fill-rule="evenodd" clip-rule="evenodd" d="M38.1824 29.274C38.2355 29.274 38.2811 29.2306 38.2811 29.174C38.2811 29.1173 38.2355 29.074 38.1824 29.074C38.1294 29.074 38.0838 29.1173 38.0838 29.174C38.0838 29.2306 38.1294 29.274 38.1824 29.274ZM35.5811 29.174C35.5811 27.7366 36.7471 26.574 38.1824 26.574C39.6177 26.574 40.7838 27.7366 40.7838 29.174C40.7838 30.6113 39.6177 31.774 38.1824 31.774C36.7471 31.774 35.5811 30.6113 35.5811 29.174Z" fill="#4D3D8D"/>
<path fill-rule="evenodd" clip-rule="evenodd" d="M13.1263 35.6229C13.1263 34.8774 13.7308 34.2729 14.4763 34.2729H82.5319C83.2775 34.2729 83.8819 34.8774 83.8819 35.6229C83.8819 36.3685 83.2775 36.9729 82.5319 36.9729H14.4763C13.7308 36.9729 13.1263 36.3685 13.1263 35.6229Z" fill="#4D3D8D"/>
<path fill-rule="evenodd" clip-rule="evenodd" d="M36.0532 46.0826C35.0272 43.4136 37.689 41.0554 40.2065 41.8459L40.2187 41.8497L53.8899 46.4285C55.6091 46.9481 56.0007 49.0933 54.8372 50.2623L52.5147 52.5958L61.1823 61.2078C62.1031 62.1329 62.1031 63.5819 61.1823 64.507L58.7038 66.9974C57.7795 67.9261 56.3264 67.9261 55.4021 66.9974L46.8412 58.3959L44.4831 60.7651L44.4362 60.8045C43.2811 61.7716 41.1391 61.5993 40.5951 59.7729L36.0532 46.0826ZM38.7017 44.5843C38.5406 44.7462 38.5019 44.9344 38.5778 45.1249L38.5924 45.1616L42.9952 58.4327L45.1904 56.2271C46.1147 55.2984 47.5678 55.2984 48.4921 56.2271L57.0529 64.8286L59.0134 62.8589L50.3458 54.2468C49.425 53.3217 49.425 51.8727 50.3458 50.9476L52.4797 48.8036L39.3884 44.419C39.1129 44.3361 38.8653 44.42 38.7017 44.5843Z" fill="#4D3D8D"/>
</g>
</svg>
