<svg width="115" height="23" viewBox="0 0 115 23" fill="none" xmlns="http://www.w3.org/2000/svg">
<rect width="115" height="23" rx="11.5" fill="#D6D6D6"/>
<g clip-path="url(#clip0_4297_22081)">
<path d="M20.8774 17.7908H11.1605C10.9943 17.7908 10.8564 17.6669 10.8564 17.5176V6.96818C10.8564 6.81888 10.9943 6.69507 11.1605 6.69507H20.8774C21.0436 6.69507 21.1814 6.81888 21.1814 6.96818V17.5176C21.1814 17.6669 21.0436 17.7908 20.8774 17.7908ZM11.4645 17.2445H20.5733V7.2413H11.4645V17.2445Z" fill="#4E4E8D"/>
<path d="M20.8774 17.7908H11.1605C10.9943 17.7908 10.8564 17.6669 10.8564 17.5176V6.96818C10.8564 6.81888 10.9943 6.69507 11.1605 6.69507H20.8774C21.0436 6.69507 21.1814 6.81888 21.1814 6.96818V17.5176C21.1814 17.6669 21.0436 17.7908 20.8774 17.7908ZM11.4645 17.2445H20.5733V7.2413H11.4645V17.2445Z" fill="black" fill-opacity="0.2"/>
<path d="M20.8774 17.7907C20.776 17.7907 20.6787 17.747 20.622 17.6669C20.5287 17.5394 20.5693 17.3719 20.7112 17.2882L22.9043 16.0027V13.4718C22.9043 13.3225 23.0421 13.1987 23.2083 13.1987C23.3745 13.1987 23.5123 13.3225 23.5123 13.4718V16.152C23.5123 16.243 23.4596 16.3304 23.3745 16.3814L21.0436 17.747C20.9909 17.7761 20.9341 17.7907 20.8774 17.7907Z" fill="#4E4E8D"/>
<path d="M20.8774 17.7907C20.776 17.7907 20.6787 17.747 20.622 17.6669C20.5287 17.5394 20.5693 17.3719 20.7112 17.2882L22.9043 16.0027V13.4718C22.9043 13.3225 23.0421 13.1987 23.2083 13.1987C23.3745 13.1987 23.5123 13.3225 23.5123 13.4718V16.152C23.5123 16.243 23.4596 16.3304 23.3745 16.3814L21.0436 17.747C20.9909 17.7761 20.9341 17.7907 20.8774 17.7907Z" fill="black" fill-opacity="0.2"/>
<path d="M23.2083 11.1558C23.0421 11.1558 22.9043 11.032 22.9043 10.8827V5.87557H17.9222C17.756 5.87557 17.6182 5.75176 17.6182 5.60246C17.6182 5.45316 17.756 5.32935 17.9222 5.32935H23.2083C23.3745 5.32935 23.5123 5.45316 23.5123 5.60246V10.8863C23.5123 11.0356 23.3745 11.1558 23.2083 11.1558Z" fill="#4E4E8D"/>
<path d="M23.2083 11.1558C23.0421 11.1558 22.9043 11.032 22.9043 10.8827V5.87557H17.9222C17.756 5.87557 17.6182 5.75176 17.6182 5.60246C17.6182 5.45316 17.756 5.32935 17.9222 5.32935H23.2083C23.3745 5.32935 23.5123 5.45316 23.5123 5.60246V10.8863C23.5123 11.0356 23.3745 11.1558 23.2083 11.1558Z" fill="black" fill-opacity="0.2"/>
<path d="M11.1606 7.24163C11.0592 7.24163 10.9619 7.19793 10.9052 7.11782C10.8119 6.99036 10.8525 6.82285 10.9944 6.7391L13.3253 5.37353C13.3739 5.3444 13.4307 5.32983 13.4915 5.32983H15.2103C15.3765 5.32983 15.5143 5.45365 15.5143 5.60295C15.5143 5.75225 15.3765 5.87606 15.2103 5.87606H13.5807L11.3268 7.19793C11.2741 7.22706 11.2173 7.24163 11.1606 7.24163Z" fill="#4E4E8D"/>
<path d="M11.1606 7.24163C11.0592 7.24163 10.9619 7.19793 10.9052 7.11782C10.8119 6.99036 10.8525 6.82285 10.9944 6.7391L13.3253 5.37353C13.3739 5.3444 13.4307 5.32983 13.4915 5.32983H15.2103C15.3765 5.32983 15.5143 5.45365 15.5143 5.60295C15.5143 5.75225 15.3765 5.87606 15.2103 5.87606H13.5807L11.3268 7.19793C11.2741 7.22706 11.2173 7.24163 11.1606 7.24163Z" fill="black" fill-opacity="0.2"/>
<path d="M20.8774 7.24128C20.7801 7.24128 20.6828 7.19758 20.622 7.11747C20.5287 6.99001 20.5693 6.8225 20.7112 6.73875L23.0542 5.3659C23.1961 5.28215 23.3826 5.31856 23.4758 5.44601C23.5691 5.57347 23.5285 5.74098 23.3866 5.82473L21.0436 7.19758C20.9909 7.22671 20.9341 7.24128 20.8774 7.24128Z" fill="#4E4E8D"/>
<path d="M20.8774 7.24128C20.7801 7.24128 20.6828 7.19758 20.622 7.11747C20.5287 6.99001 20.5693 6.8225 20.7112 6.73875L23.0542 5.3659C23.1961 5.28215 23.3826 5.31856 23.4758 5.44601C23.5691 5.57347 23.5285 5.74098 23.3866 5.82473L21.0436 7.19758C20.9909 7.22671 20.9341 7.24128 20.8774 7.24128Z" fill="black" fill-opacity="0.2"/>
<path d="M9.58396 12.6741C9.85038 12.6741 10.0664 12.48 10.0664 12.2407C10.0664 12.0014 9.85038 11.8074 9.58396 11.8074C9.31754 11.8074 9.10156 12.0014 9.10156 12.2407C9.10156 12.48 9.31754 12.6741 9.58396 12.6741Z" fill="#4E4E8D"/>
<path d="M9.58396 12.6741C9.85038 12.6741 10.0664 12.48 10.0664 12.2407C10.0664 12.0014 9.85038 11.8074 9.58396 11.8074C9.31754 11.8074 9.10156 12.0014 9.10156 12.2407C9.10156 12.48 9.31754 12.6741 9.58396 12.6741Z" fill="black" fill-opacity="0.2"/>
<path d="M8.4497 12.3404C8.51092 12.1075 8.35036 11.8741 8.09108 11.8191C7.8318 11.7641 7.57198 11.9084 7.51076 12.1413C7.44953 12.3742 7.61009 12.6076 7.86937 12.6626C8.12865 12.7176 8.38847 12.5733 8.4497 12.3404Z" fill="#4E4E8D"/>
<path d="M8.4497 12.3404C8.51092 12.1075 8.35036 11.8741 8.09108 11.8191C7.8318 11.7641 7.57198 11.9084 7.51076 12.1413C7.44953 12.3742 7.61009 12.6076 7.86937 12.6626C8.12865 12.7176 8.38847 12.5733 8.4497 12.3404Z" fill="black" fill-opacity="0.2"/>
<path d="M26.018 12.6743C26.2845 12.6743 26.5004 12.4803 26.5004 12.241C26.5004 12.0016 26.2845 11.8076 26.018 11.8076C25.7516 11.8076 25.5356 12.0016 25.5356 12.241C25.5356 12.4803 25.7516 12.6743 26.018 12.6743Z" fill="#4E4E8D"/>
<path d="M26.018 12.6743C26.2845 12.6743 26.5004 12.4803 26.5004 12.241C26.5004 12.0016 26.2845 11.8076 26.018 11.8076C25.7516 11.8076 25.5356 12.0016 25.5356 12.241C25.5356 12.4803 25.7516 12.6743 26.018 12.6743Z" fill="black" fill-opacity="0.2"/>
<path d="M24.7562 12.5468C24.9444 12.3778 24.9444 12.1037 24.7562 11.9346C24.568 11.7655 24.2629 11.7655 24.0747 11.9346C23.8865 12.1037 23.8865 12.3778 24.0747 12.5468C24.2629 12.7159 24.568 12.7159 24.7562 12.5468Z" fill="#4E4E8D"/>
<path d="M24.7562 12.5468C24.9444 12.3778 24.9444 12.1037 24.7562 11.9346C24.568 11.7655 24.2629 11.7655 24.0747 11.9346C23.8865 12.1037 23.8865 12.3778 24.0747 12.5468C24.2629 12.7159 24.568 12.7159 24.7562 12.5468Z" fill="black" fill-opacity="0.2"/>
<path d="M22.8115 12.6743C23.0779 12.6743 23.2939 12.4803 23.2939 12.241C23.2939 12.0016 23.0779 11.8076 22.8115 11.8076C22.5451 11.8076 22.3291 12.0016 22.3291 12.241C22.3291 12.4803 22.5451 12.6743 22.8115 12.6743Z" fill="#4E4E8D"/>
<path d="M22.8115 12.6743C23.0779 12.6743 23.2939 12.4803 23.2939 12.241C23.2939 12.0016 23.0779 11.8076 22.8115 11.8076C22.5451 11.8076 22.3291 12.0016 22.3291 12.241C22.3291 12.4803 22.5451 12.6743 22.8115 12.6743Z" fill="black" fill-opacity="0.2"/>
<path d="M16.6089 3.36668C16.8753 3.36668 17.0913 3.17267 17.0913 2.93334C17.0913 2.69401 16.8753 2.5 16.6089 2.5C16.3424 2.5 16.1265 2.69401 16.1265 2.93334C16.1265 3.17267 16.3424 3.36668 16.6089 3.36668Z" fill="#4E4E8D"/>
<path d="M16.6089 3.36668C16.8753 3.36668 17.0913 3.17267 17.0913 2.93334C17.0913 2.69401 16.8753 2.5 16.6089 2.5C16.3424 2.5 16.1265 2.69401 16.1265 2.93334C16.1265 3.17267 16.3424 3.36668 16.6089 3.36668Z" fill="black" fill-opacity="0.2"/>
<path d="M17.0781 4.4725C17.1393 4.23959 16.9788 4.00619 16.7195 3.9512C16.4602 3.8962 16.2004 4.04043 16.1392 4.27334C16.078 4.50625 16.2385 4.73965 16.4978 4.79465C16.7571 4.84965 17.0169 4.70542 17.0781 4.4725Z" fill="#4E4E8D"/>
<path d="M17.0781 4.4725C17.1393 4.23959 16.9788 4.00619 16.7195 3.9512C16.4602 3.8962 16.2004 4.04043 16.1392 4.27334C16.078 4.50625 16.2385 4.73965 16.4978 4.79465C16.7571 4.84965 17.0169 4.70542 17.0781 4.4725Z" fill="black" fill-opacity="0.2"/>
<path d="M16.6089 6.24705C16.8753 6.24705 17.0913 6.05304 17.0913 5.81371C17.0913 5.57438 16.8753 5.38037 16.6089 5.38037C16.3424 5.38037 16.1265 5.57438 16.1265 5.81371C16.1265 6.05304 16.3424 6.24705 16.6089 6.24705Z" fill="#4E4E8D"/>
<path d="M16.6089 6.24705C16.8753 6.24705 17.0913 6.05304 17.0913 5.81371C17.0913 5.57438 16.8753 5.38037 16.6089 5.38037C16.3424 5.38037 16.1265 5.57438 16.1265 5.81371C16.1265 6.05304 16.3424 6.24705 16.6089 6.24705Z" fill="black" fill-opacity="0.2"/>
<path d="M16.6093 19.0617C16.8758 19.0617 17.0917 18.8677 17.0917 18.6284C17.0917 18.3891 16.8758 18.1951 16.6093 18.1951C16.3429 18.1951 16.127 18.3891 16.127 18.6284C16.127 18.8677 16.3429 19.0617 16.6093 19.0617Z" fill="#4E4E8D"/>
<path d="M16.6093 19.0617C16.8758 19.0617 17.0917 18.8677 17.0917 18.6284C17.0917 18.3891 16.8758 18.1951 16.6093 18.1951C16.3429 18.1951 16.127 18.3891 16.127 18.6284C16.127 18.8677 16.3429 19.0617 16.6093 19.0617Z" fill="black" fill-opacity="0.2"/>
<path d="M17.0771 20.1686C17.1384 19.9356 16.9778 19.7022 16.7185 19.6472C16.4592 19.5922 16.1994 19.7365 16.1382 19.9694C16.077 20.2023 16.2375 20.4357 16.4968 20.4907C16.7561 20.5457 17.0159 20.4015 17.0771 20.1686Z" fill="#4E4E8D"/>
<path d="M17.0771 20.1686C17.1384 19.9356 16.9778 19.7022 16.7185 19.6472C16.4592 19.5922 16.1994 19.7365 16.1382 19.9694C16.077 20.2023 16.2375 20.4357 16.4968 20.4907C16.7561 20.5457 17.0159 20.4015 17.0771 20.1686Z" fill="black" fill-opacity="0.2"/>
<path d="M16.2804 15.2708C16.0736 15.2708 15.8669 15.2198 15.6804 15.1179L13.8116 14.0764C13.4751 13.887 13.2725 13.5629 13.2725 13.2097V11.0321C13.2725 10.6752 13.4751 10.3511 13.8116 10.1654L15.6804 9.12394C16.0493 8.91637 16.5074 8.91637 16.8803 9.12394L18.7491 10.1654C19.0856 10.3548 19.2882 10.6789 19.2882 11.0321V13.2097C19.2882 13.5666 19.0856 13.8907 18.7491 14.0764L16.8803 15.1179C16.6938 15.2198 16.4871 15.2708 16.2804 15.2708ZM16.2804 9.46988C16.175 9.46988 16.0696 9.49537 15.9763 9.54999L14.1075 10.5878C13.9373 10.6825 13.8359 10.8464 13.8359 11.0284V13.2061C13.8359 13.3881 13.9373 13.552 14.1075 13.6467L15.9763 14.6882C16.1628 14.7938 16.3979 14.7938 16.5844 14.6882L18.4532 13.6467C18.6234 13.552 18.7248 13.3881 18.7248 13.2061V11.0284C18.7248 10.8464 18.6234 10.6825 18.4532 10.5878L16.5844 9.54635C16.4912 9.49537 16.3858 9.46988 16.2804 9.46988Z" fill="#4E4E8D"/>
<path d="M16.2804 15.2708C16.0736 15.2708 15.8669 15.2198 15.6804 15.1179L13.8116 14.0764C13.4751 13.887 13.2725 13.5629 13.2725 13.2097V11.0321C13.2725 10.6752 13.4751 10.3511 13.8116 10.1654L15.6804 9.12394C16.0493 8.91637 16.5074 8.91637 16.8803 9.12394L18.7491 10.1654C19.0856 10.3548 19.2882 10.6789 19.2882 11.0321V13.2097C19.2882 13.5666 19.0856 13.8907 18.7491 14.0764L16.8803 15.1179C16.6938 15.2198 16.4871 15.2708 16.2804 15.2708ZM16.2804 9.46988C16.175 9.46988 16.0696 9.49537 15.9763 9.54999L14.1075 10.5878C13.9373 10.6825 13.8359 10.8464 13.8359 11.0284V13.2061C13.8359 13.3881 13.9373 13.552 14.1075 13.6467L15.9763 14.6882C16.1628 14.7938 16.3979 14.7938 16.5844 14.6882L18.4532 13.6467C18.6234 13.552 18.7248 13.3881 18.7248 13.2061V11.0284C18.7248 10.8464 18.6234 10.6825 18.4532 10.5878L16.5844 9.54635C16.4912 9.49537 16.3858 9.46988 16.2804 9.46988Z" fill="black" fill-opacity="0.2"/>
<path d="M16.2803 13.512C15.4209 13.512 14.7236 12.8857 14.7236 12.1137C14.7236 11.3417 15.4209 10.7153 16.2803 10.7153C17.1397 10.7153 17.8369 11.3417 17.8369 12.1137C17.8369 12.8857 17.1397 13.512 16.2803 13.512ZM16.2803 11.2179C15.729 11.2179 15.2831 11.6184 15.2831 12.1137C15.2831 12.6089 15.729 13.0095 16.2803 13.0095C16.8316 13.0095 17.2775 12.6089 17.2775 12.1137C17.2775 11.6184 16.8316 11.2179 16.2803 11.2179Z" fill="#4E4E8D"/>
<path d="M16.2803 13.512C15.4209 13.512 14.7236 12.8857 14.7236 12.1137C14.7236 11.3417 15.4209 10.7153 16.2803 10.7153C17.1397 10.7153 17.8369 11.3417 17.8369 12.1137C17.8369 12.8857 17.1397 13.512 16.2803 13.512ZM16.2803 11.2179C15.729 11.2179 15.2831 11.6184 15.2831 12.1137C15.2831 12.6089 15.729 13.0095 16.2803 13.0095C16.8316 13.0095 17.2775 12.6089 17.2775 12.1137C17.2775 11.6184 16.8316 11.2179 16.2803 11.2179Z" fill="black" fill-opacity="0.2"/>
</g>
<path d="M36.24 14.68C35.8 14.68 35.4067 14.5833 35.06 14.39C34.72 14.1967 34.45 13.9167 34.25 13.55C34.05 13.1767 33.94 12.73 33.92 12.21H34.18V14.5H33.42V7.2H34.38V10.75L34.04 11.48C34.0667 10.9 34.1833 10.4267 34.39 10.06C34.5967 9.69333 34.8667 9.42333 35.2 9.25C35.54 9.07 35.9133 8.98 36.32 8.98C36.7 8.98 37.0467 9.05333 37.36 9.2C37.6733 9.34 37.9433 9.53667 38.17 9.79C38.3967 10.0367 38.57 10.3267 38.69 10.66C38.81 10.9867 38.87 11.34 38.87 11.72V11.9C38.87 12.28 38.8067 12.6367 38.68 12.97C38.56 13.3033 38.3833 13.6 38.15 13.86C37.9167 14.1133 37.6367 14.3133 37.31 14.46C36.99 14.6067 36.6333 14.68 36.24 14.68ZM36.13 13.84C36.49 13.84 36.8033 13.7533 37.07 13.58C37.3367 13.4067 37.5433 13.17 37.69 12.87C37.8367 12.5633 37.91 12.21 37.91 11.81C37.91 11.41 37.8333 11.06 37.68 10.76C37.5333 10.46 37.3267 10.23 37.06 10.07C36.7933 9.90333 36.4833 9.82 36.13 9.82C35.81 9.82 35.5133 9.89333 35.24 10.04C34.9667 10.18 34.7467 10.3867 34.58 10.66C34.42 10.9267 34.34 11.25 34.34 11.63V12.09C34.34 12.4567 34.4233 12.77 34.59 13.03C34.7567 13.29 34.9767 13.49 35.25 13.63C35.5233 13.77 35.8167 13.84 36.13 13.84ZM40.4745 14.5V7.2H41.4345V14.5H40.4745ZM39.7345 7.96V7.2H41.4345V7.96H39.7345ZM45.8359 14.68C45.3692 14.68 44.9592 14.6 44.6059 14.44C44.2525 14.28 43.9525 14.07 43.7059 13.81C43.4659 13.5433 43.2825 13.2467 43.1559 12.92C43.0359 12.5933 42.9759 12.26 42.9759 11.92V11.74C42.9759 11.4 43.0392 11.0667 43.1659 10.74C43.2925 10.4067 43.4792 10.11 43.7259 9.85C43.9725 9.58333 44.2725 9.37333 44.6259 9.22C44.9792 9.06 45.3825 8.98 45.8359 8.98C46.2892 8.98 46.6925 9.06 47.0459 9.22C47.3992 9.37333 47.6992 9.58333 47.9459 9.85C48.1925 10.11 48.3792 10.4067 48.5059 10.74C48.6325 11.0667 48.6959 11.4 48.6959 11.74V11.92C48.6959 12.26 48.6325 12.5933 48.5059 12.92C48.3859 13.2467 48.2025 13.5433 47.9559 13.81C47.7159 14.07 47.4192 14.28 47.0659 14.44C46.7125 14.6 46.3025 14.68 45.8359 14.68ZM45.8359 13.82C46.2359 13.82 46.5759 13.7333 46.8559 13.56C47.1425 13.38 47.3592 13.14 47.5059 12.84C47.6592 12.54 47.7359 12.2033 47.7359 11.83C47.7359 11.45 47.6592 11.11 47.5059 10.81C47.3525 10.51 47.1325 10.2733 46.8459 10.1C46.5659 9.92667 46.2292 9.84 45.8359 9.84C45.4492 9.84 45.1125 9.92667 44.8259 10.1C44.5392 10.2733 44.3192 10.51 44.1659 10.81C44.0125 11.11 43.9359 11.45 43.9359 11.83C43.9359 12.2033 44.0092 12.54 44.1559 12.84C44.3092 13.14 44.5259 13.38 44.8059 13.56C45.0925 13.7333 45.4359 13.82 45.8359 13.82ZM52.5237 14.68C52.0637 14.68 51.6637 14.6 51.3237 14.44C50.9903 14.28 50.7137 14.0667 50.4937 13.8C50.2737 13.5267 50.107 13.2267 49.9937 12.9C49.887 12.5733 49.8337 12.2467 49.8337 11.92V11.74C49.8337 11.4 49.887 11.0667 49.9937 10.74C50.107 10.4133 50.2737 10.12 50.4937 9.86C50.7203 9.59333 51.0003 9.38 51.3337 9.22C51.667 9.06 52.057 8.98 52.5037 8.98C52.9503 8.98 53.3503 9.06333 53.7037 9.23C54.0637 9.39667 54.3503 9.63333 54.5637 9.94C54.7837 10.24 54.907 10.5967 54.9337 11.01H54.0137C53.967 10.6767 53.8137 10.4 53.5537 10.18C53.2937 9.95333 52.9437 9.84 52.5037 9.84C52.1237 9.84 51.807 9.92667 51.5537 10.1C51.3003 10.2733 51.1103 10.51 50.9837 10.81C50.857 11.11 50.7937 11.45 50.7937 11.83C50.7937 12.1967 50.857 12.5333 50.9837 12.84C51.1103 13.14 51.3003 13.38 51.5537 13.56C51.8137 13.7333 52.137 13.82 52.5237 13.82C52.8237 13.82 53.0837 13.7667 53.3037 13.66C53.5237 13.5533 53.7003 13.41 53.8337 13.23C53.967 13.05 54.047 12.8467 54.0737 12.62H54.9937C54.9737 13.04 54.8503 13.4033 54.6237 13.71C54.4037 14.0167 54.1103 14.2567 53.7437 14.43C53.3837 14.5967 52.977 14.68 52.5237 14.68ZM60.0781 14.5L58.0681 12.01H57.1881L59.6381 9.16H60.6481L58.4281 11.73L58.4981 11.22L61.1881 14.5H60.0781ZM56.3981 14.5V7.2H57.3581V14.5H56.3981ZM66.8759 14.68C66.4093 14.68 66.0059 14.6 65.6659 14.44C65.3259 14.28 65.0493 14.07 64.8359 13.81C64.6226 13.5433 64.4626 13.2467 64.3559 12.92C64.2559 12.5933 64.2059 12.26 64.2059 11.92V11.74C64.2059 11.3933 64.2559 11.0567 64.3559 10.73C64.4626 10.4033 64.6226 10.11 64.8359 9.85C65.0493 9.58333 65.3193 9.37333 65.6459 9.22C65.9793 9.06 66.3693 8.98 66.8159 8.98C67.3959 8.98 67.8726 9.10667 68.2459 9.36C68.6259 9.60667 68.9059 9.92667 69.0859 10.32C69.2726 10.7133 69.3659 11.1333 69.3659 11.58V12.01H64.6259V11.29H68.6659L68.4459 11.68C68.4459 11.3 68.3859 10.9733 68.2659 10.7C68.1459 10.42 67.9659 10.2033 67.7259 10.05C67.4859 9.89667 67.1826 9.82 66.8159 9.82C66.4359 9.82 66.1193 9.90667 65.8659 10.08C65.6193 10.2533 65.4326 10.49 65.3059 10.79C65.1859 11.09 65.1259 11.4367 65.1259 11.83C65.1259 12.21 65.1859 12.5533 65.3059 12.86C65.4326 13.16 65.6259 13.4 65.8859 13.58C66.1459 13.7533 66.4759 13.84 66.8759 13.84C67.2959 13.84 67.6359 13.7467 67.8959 13.56C68.1626 13.3733 68.3226 13.1567 68.3759 12.91H69.2759C69.2026 13.2767 69.0559 13.5933 68.8359 13.86C68.6159 14.1267 68.3393 14.33 68.0059 14.47C67.6726 14.61 67.2959 14.68 66.8759 14.68ZM70.1695 14.5L72.0795 11.69L72.0495 11.89L70.2595 9.16H71.3195L72.6095 11.17H72.7495L73.9695 9.16H74.9595L73.2695 11.82L73.2995 11.64L75.2995 14.5H74.2395L72.7395 12.33H72.5995L71.1595 14.5H70.1695ZM76.5052 16.5V9.16H77.2652V11.47L77.0852 11.45C77.1185 10.8767 77.2385 10.41 77.4452 10.05C77.6585 9.68333 77.9352 9.41333 78.2752 9.24C78.6152 9.06667 78.9852 8.98 79.3852 8.98C79.7718 8.98 80.1218 9.05333 80.4352 9.2C80.7552 9.34667 81.0285 9.54667 81.2552 9.8C81.4818 10.0533 81.6552 10.3467 81.7752 10.68C81.8952 11.0133 81.9552 11.3667 81.9552 11.74V11.92C81.9552 12.2933 81.8918 12.6467 81.7652 12.98C81.6385 13.3133 81.4585 13.6067 81.2252 13.86C80.9985 14.1133 80.7252 14.3133 80.4052 14.46C80.0918 14.6067 79.7452 14.68 79.3652 14.68C78.9852 14.68 78.6218 14.5967 78.2752 14.43C77.9285 14.2633 77.6418 13.9933 77.4152 13.62C77.1885 13.2467 77.0585 12.7567 77.0252 12.15L77.4652 12.95V16.5H76.5052ZM79.2152 13.84C79.5752 13.84 79.8885 13.7567 80.1552 13.59C80.4218 13.4167 80.6285 13.18 80.7752 12.88C80.9218 12.5733 80.9952 12.2233 80.9952 11.83C80.9952 11.43 80.9218 11.08 80.7752 10.78C80.6285 10.48 80.4218 10.2467 80.1552 10.08C79.8885 9.90667 79.5752 9.82 79.2152 9.82C78.8952 9.82 78.5985 9.89333 78.3252 10.04C78.0518 10.18 77.8318 10.3867 77.6652 10.66C77.5052 10.9267 77.4252 11.25 77.4252 11.63V12.09C77.4252 12.4567 77.5085 12.77 77.6752 13.03C77.8418 13.29 78.0618 13.49 78.3352 13.63C78.6085 13.77 78.9018 13.84 79.2152 13.84ZM83.5597 14.5V7.2H84.5197V14.5H83.5597ZM82.8197 7.96V7.2H84.5197V7.96H82.8197ZM88.921 14.68C88.4543 14.68 88.0443 14.6 87.691 14.44C87.3377 14.28 87.0377 14.07 86.791 13.81C86.551 13.5433 86.3677 13.2467 86.241 12.92C86.121 12.5933 86.061 12.26 86.061 11.92V11.74C86.061 11.4 86.1243 11.0667 86.251 10.74C86.3777 10.4067 86.5643 10.11 86.811 9.85C87.0577 9.58333 87.3577 9.37333 87.711 9.22C88.0643 9.06 88.4677 8.98 88.921 8.98C89.3743 8.98 89.7777 9.06 90.131 9.22C90.4843 9.37333 90.7843 9.58333 91.031 9.85C91.2777 10.11 91.4643 10.4067 91.591 10.74C91.7177 11.0667 91.781 11.4 91.781 11.74V11.92C91.781 12.26 91.7177 12.5933 91.591 12.92C91.471 13.2467 91.2877 13.5433 91.041 13.81C90.801 14.07 90.5043 14.28 90.151 14.44C89.7977 14.6 89.3877 14.68 88.921 14.68ZM88.921 13.82C89.321 13.82 89.661 13.7333 89.941 13.56C90.2277 13.38 90.4443 13.14 90.591 12.84C90.7443 12.54 90.821 12.2033 90.821 11.83C90.821 11.45 90.7443 11.11 90.591 10.81C90.4377 10.51 90.2177 10.2733 89.931 10.1C89.651 9.92667 89.3143 9.84 88.921 9.84C88.5343 9.84 88.1977 9.92667 87.911 10.1C87.6243 10.2733 87.4043 10.51 87.251 10.81C87.0977 11.11 87.021 11.45 87.021 11.83C87.021 12.2033 87.0943 12.54 87.241 12.84C87.3943 13.14 87.611 13.38 87.891 13.56C88.1777 13.7333 88.521 13.82 88.921 13.82ZM93.3188 14.5V9.16H94.0788V11.36H94.0388C94.0388 10.58 94.2088 10.01 94.5488 9.65C94.8955 9.28333 95.4122 9.1 96.0988 9.1H96.2788V9.96H95.9388C95.4055 9.96 94.9955 10.1033 94.7088 10.39C94.4222 10.67 94.2788 11.0767 94.2788 11.61V14.5H93.3188ZM99.7318 14.68C99.2651 14.68 98.8618 14.6 98.5218 14.44C98.1818 14.28 97.9051 14.07 97.6918 13.81C97.4785 13.5433 97.3185 13.2467 97.2118 12.92C97.1118 12.5933 97.0618 12.26 97.0618 11.92V11.74C97.0618 11.3933 97.1118 11.0567 97.2118 10.73C97.3185 10.4033 97.4785 10.11 97.6918 9.85C97.9051 9.58333 98.1751 9.37333 98.5018 9.22C98.8351 9.06 99.2251 8.98 99.6718 8.98C100.252 8.98 100.728 9.10667 101.102 9.36C101.482 9.60667 101.762 9.92667 101.942 10.32C102.128 10.7133 102.222 11.1333 102.222 11.58V12.01H97.4818V11.29H101.522L101.302 11.68C101.302 11.3 101.242 10.9733 101.122 10.7C101.002 10.42 100.822 10.2033 100.582 10.05C100.342 9.89667 100.038 9.82 99.6718 9.82C99.2918 9.82 98.9751 9.90667 98.7218 10.08C98.4751 10.2533 98.2885 10.49 98.1618 10.79C98.0418 11.09 97.9818 11.4367 97.9818 11.83C97.9818 12.21 98.0418 12.5533 98.1618 12.86C98.2885 13.16 98.4818 13.4 98.7418 13.58C99.0018 13.7533 99.3318 13.84 99.7318 13.84C100.152 13.84 100.492 13.7467 100.752 13.56C101.018 13.3733 101.178 13.1567 101.232 12.91H102.132C102.058 13.2767 101.912 13.5933 101.692 13.86C101.472 14.1267 101.195 14.33 100.862 14.47C100.528 14.61 100.152 14.68 99.7318 14.68ZM103.685 14.5V9.16H104.445V11.36H104.405C104.405 10.58 104.575 10.01 104.915 9.65C105.262 9.28333 105.778 9.1 106.465 9.1H106.645V9.96H106.305C105.772 9.96 105.362 10.1033 105.075 10.39C104.788 10.67 104.645 11.0767 104.645 11.61V14.5H103.685Z" fill="#4E4E8D"/>
<path d="M36.24 14.68C35.8 14.68 35.4067 14.5833 35.06 14.39C34.72 14.1967 34.45 13.9167 34.25 13.55C34.05 13.1767 33.94 12.73 33.92 12.21H34.18V14.5H33.42V7.2H34.38V10.75L34.04 11.48C34.0667 10.9 34.1833 10.4267 34.39 10.06C34.5967 9.69333 34.8667 9.42333 35.2 9.25C35.54 9.07 35.9133 8.98 36.32 8.98C36.7 8.98 37.0467 9.05333 37.36 9.2C37.6733 9.34 37.9433 9.53667 38.17 9.79C38.3967 10.0367 38.57 10.3267 38.69 10.66C38.81 10.9867 38.87 11.34 38.87 11.72V11.9C38.87 12.28 38.8067 12.6367 38.68 12.97C38.56 13.3033 38.3833 13.6 38.15 13.86C37.9167 14.1133 37.6367 14.3133 37.31 14.46C36.99 14.6067 36.6333 14.68 36.24 14.68ZM36.13 13.84C36.49 13.84 36.8033 13.7533 37.07 13.58C37.3367 13.4067 37.5433 13.17 37.69 12.87C37.8367 12.5633 37.91 12.21 37.91 11.81C37.91 11.41 37.8333 11.06 37.68 10.76C37.5333 10.46 37.3267 10.23 37.06 10.07C36.7933 9.90333 36.4833 9.82 36.13 9.82C35.81 9.82 35.5133 9.89333 35.24 10.04C34.9667 10.18 34.7467 10.3867 34.58 10.66C34.42 10.9267 34.34 11.25 34.34 11.63V12.09C34.34 12.4567 34.4233 12.77 34.59 13.03C34.7567 13.29 34.9767 13.49 35.25 13.63C35.5233 13.77 35.8167 13.84 36.13 13.84ZM40.4745 14.5V7.2H41.4345V14.5H40.4745ZM39.7345 7.96V7.2H41.4345V7.96H39.7345ZM45.8359 14.68C45.3692 14.68 44.9592 14.6 44.6059 14.44C44.2525 14.28 43.9525 14.07 43.7059 13.81C43.4659 13.5433 43.2825 13.2467 43.1559 12.92C43.0359 12.5933 42.9759 12.26 42.9759 11.92V11.74C42.9759 11.4 43.0392 11.0667 43.1659 10.74C43.2925 10.4067 43.4792 10.11 43.7259 9.85C43.9725 9.58333 44.2725 9.37333 44.6259 9.22C44.9792 9.06 45.3825 8.98 45.8359 8.98C46.2892 8.98 46.6925 9.06 47.0459 9.22C47.3992 9.37333 47.6992 9.58333 47.9459 9.85C48.1925 10.11 48.3792 10.4067 48.5059 10.74C48.6325 11.0667 48.6959 11.4 48.6959 11.74V11.92C48.6959 12.26 48.6325 12.5933 48.5059 12.92C48.3859 13.2467 48.2025 13.5433 47.9559 13.81C47.7159 14.07 47.4192 14.28 47.0659 14.44C46.7125 14.6 46.3025 14.68 45.8359 14.68ZM45.8359 13.82C46.2359 13.82 46.5759 13.7333 46.8559 13.56C47.1425 13.38 47.3592 13.14 47.5059 12.84C47.6592 12.54 47.7359 12.2033 47.7359 11.83C47.7359 11.45 47.6592 11.11 47.5059 10.81C47.3525 10.51 47.1325 10.2733 46.8459 10.1C46.5659 9.92667 46.2292 9.84 45.8359 9.84C45.4492 9.84 45.1125 9.92667 44.8259 10.1C44.5392 10.2733 44.3192 10.51 44.1659 10.81C44.0125 11.11 43.9359 11.45 43.9359 11.83C43.9359 12.2033 44.0092 12.54 44.1559 12.84C44.3092 13.14 44.5259 13.38 44.8059 13.56C45.0925 13.7333 45.4359 13.82 45.8359 13.82ZM52.5237 14.68C52.0637 14.68 51.6637 14.6 51.3237 14.44C50.9903 14.28 50.7137 14.0667 50.4937 13.8C50.2737 13.5267 50.107 13.2267 49.9937 12.9C49.887 12.5733 49.8337 12.2467 49.8337 11.92V11.74C49.8337 11.4 49.887 11.0667 49.9937 10.74C50.107 10.4133 50.2737 10.12 50.4937 9.86C50.7203 9.59333 51.0003 9.38 51.3337 9.22C51.667 9.06 52.057 8.98 52.5037 8.98C52.9503 8.98 53.3503 9.06333 53.7037 9.23C54.0637 9.39667 54.3503 9.63333 54.5637 9.94C54.7837 10.24 54.907 10.5967 54.9337 11.01H54.0137C53.967 10.6767 53.8137 10.4 53.5537 10.18C53.2937 9.95333 52.9437 9.84 52.5037 9.84C52.1237 9.84 51.807 9.92667 51.5537 10.1C51.3003 10.2733 51.1103 10.51 50.9837 10.81C50.857 11.11 50.7937 11.45 50.7937 11.83C50.7937 12.1967 50.857 12.5333 50.9837 12.84C51.1103 13.14 51.3003 13.38 51.5537 13.56C51.8137 13.7333 52.137 13.82 52.5237 13.82C52.8237 13.82 53.0837 13.7667 53.3037 13.66C53.5237 13.5533 53.7003 13.41 53.8337 13.23C53.967 13.05 54.047 12.8467 54.0737 12.62H54.9937C54.9737 13.04 54.8503 13.4033 54.6237 13.71C54.4037 14.0167 54.1103 14.2567 53.7437 14.43C53.3837 14.5967 52.977 14.68 52.5237 14.68ZM60.0781 14.5L58.0681 12.01H57.1881L59.6381 9.16H60.6481L58.4281 11.73L58.4981 11.22L61.1881 14.5H60.0781ZM56.3981 14.5V7.2H57.3581V14.5H56.3981ZM66.8759 14.68C66.4093 14.68 66.0059 14.6 65.6659 14.44C65.3259 14.28 65.0493 14.07 64.8359 13.81C64.6226 13.5433 64.4626 13.2467 64.3559 12.92C64.2559 12.5933 64.2059 12.26 64.2059 11.92V11.74C64.2059 11.3933 64.2559 11.0567 64.3559 10.73C64.4626 10.4033 64.6226 10.11 64.8359 9.85C65.0493 9.58333 65.3193 9.37333 65.6459 9.22C65.9793 9.06 66.3693 8.98 66.8159 8.98C67.3959 8.98 67.8726 9.10667 68.2459 9.36C68.6259 9.60667 68.9059 9.92667 69.0859 10.32C69.2726 10.7133 69.3659 11.1333 69.3659 11.58V12.01H64.6259V11.29H68.6659L68.4459 11.68C68.4459 11.3 68.3859 10.9733 68.2659 10.7C68.1459 10.42 67.9659 10.2033 67.7259 10.05C67.4859 9.89667 67.1826 9.82 66.8159 9.82C66.4359 9.82 66.1193 9.90667 65.8659 10.08C65.6193 10.2533 65.4326 10.49 65.3059 10.79C65.1859 11.09 65.1259 11.4367 65.1259 11.83C65.1259 12.21 65.1859 12.5533 65.3059 12.86C65.4326 13.16 65.6259 13.4 65.8859 13.58C66.1459 13.7533 66.4759 13.84 66.8759 13.84C67.2959 13.84 67.6359 13.7467 67.8959 13.56C68.1626 13.3733 68.3226 13.1567 68.3759 12.91H69.2759C69.2026 13.2767 69.0559 13.5933 68.8359 13.86C68.6159 14.1267 68.3393 14.33 68.0059 14.47C67.6726 14.61 67.2959 14.68 66.8759 14.68ZM70.1695 14.5L72.0795 11.69L72.0495 11.89L70.2595 9.16H71.3195L72.6095 11.17H72.7495L73.9695 9.16H74.9595L73.2695 11.82L73.2995 11.64L75.2995 14.5H74.2395L72.7395 12.33H72.5995L71.1595 14.5H70.1695ZM76.5052 16.5V9.16H77.2652V11.47L77.0852 11.45C77.1185 10.8767 77.2385 10.41 77.4452 10.05C77.6585 9.68333 77.9352 9.41333 78.2752 9.24C78.6152 9.06667 78.9852 8.98 79.3852 8.98C79.7718 8.98 80.1218 9.05333 80.4352 9.2C80.7552 9.34667 81.0285 9.54667 81.2552 9.8C81.4818 10.0533 81.6552 10.3467 81.7752 10.68C81.8952 11.0133 81.9552 11.3667 81.9552 11.74V11.92C81.9552 12.2933 81.8918 12.6467 81.7652 12.98C81.6385 13.3133 81.4585 13.6067 81.2252 13.86C80.9985 14.1133 80.7252 14.3133 80.4052 14.46C80.0918 14.6067 79.7452 14.68 79.3652 14.68C78.9852 14.68 78.6218 14.5967 78.2752 14.43C77.9285 14.2633 77.6418 13.9933 77.4152 13.62C77.1885 13.2467 77.0585 12.7567 77.0252 12.15L77.4652 12.95V16.5H76.5052ZM79.2152 13.84C79.5752 13.84 79.8885 13.7567 80.1552 13.59C80.4218 13.4167 80.6285 13.18 80.7752 12.88C80.9218 12.5733 80.9952 12.2233 80.9952 11.83C80.9952 11.43 80.9218 11.08 80.7752 10.78C80.6285 10.48 80.4218 10.2467 80.1552 10.08C79.8885 9.90667 79.5752 9.82 79.2152 9.82C78.8952 9.82 78.5985 9.89333 78.3252 10.04C78.0518 10.18 77.8318 10.3867 77.6652 10.66C77.5052 10.9267 77.4252 11.25 77.4252 11.63V12.09C77.4252 12.4567 77.5085 12.77 77.6752 13.03C77.8418 13.29 78.0618 13.49 78.3352 13.63C78.6085 13.77 78.9018 13.84 79.2152 13.84ZM83.5597 14.5V7.2H84.5197V14.5H83.5597ZM82.8197 7.96V7.2H84.5197V7.96H82.8197ZM88.921 14.68C88.4543 14.68 88.0443 14.6 87.691 14.44C87.3377 14.28 87.0377 14.07 86.791 13.81C86.551 13.5433 86.3677 13.2467 86.241 12.92C86.121 12.5933 86.061 12.26 86.061 11.92V11.74C86.061 11.4 86.1243 11.0667 86.251 10.74C86.3777 10.4067 86.5643 10.11 86.811 9.85C87.0577 9.58333 87.3577 9.37333 87.711 9.22C88.0643 9.06 88.4677 8.98 88.921 8.98C89.3743 8.98 89.7777 9.06 90.131 9.22C90.4843 9.37333 90.7843 9.58333 91.031 9.85C91.2777 10.11 91.4643 10.4067 91.591 10.74C91.7177 11.0667 91.781 11.4 91.781 11.74V11.92C91.781 12.26 91.7177 12.5933 91.591 12.92C91.471 13.2467 91.2877 13.5433 91.041 13.81C90.801 14.07 90.5043 14.28 90.151 14.44C89.7977 14.6 89.3877 14.68 88.921 14.68ZM88.921 13.82C89.321 13.82 89.661 13.7333 89.941 13.56C90.2277 13.38 90.4443 13.14 90.591 12.84C90.7443 12.54 90.821 12.2033 90.821 11.83C90.821 11.45 90.7443 11.11 90.591 10.81C90.4377 10.51 90.2177 10.2733 89.931 10.1C89.651 9.92667 89.3143 9.84 88.921 9.84C88.5343 9.84 88.1977 9.92667 87.911 10.1C87.6243 10.2733 87.4043 10.51 87.251 10.81C87.0977 11.11 87.021 11.45 87.021 11.83C87.021 12.2033 87.0943 12.54 87.241 12.84C87.3943 13.14 87.611 13.38 87.891 13.56C88.1777 13.7333 88.521 13.82 88.921 13.82ZM93.3188 14.5V9.16H94.0788V11.36H94.0388C94.0388 10.58 94.2088 10.01 94.5488 9.65C94.8955 9.28333 95.4122 9.1 96.0988 9.1H96.2788V9.96H95.9388C95.4055 9.96 94.9955 10.1033 94.7088 10.39C94.4222 10.67 94.2788 11.0767 94.2788 11.61V14.5H93.3188ZM99.7318 14.68C99.2651 14.68 98.8618 14.6 98.5218 14.44C98.1818 14.28 97.9051 14.07 97.6918 13.81C97.4785 13.5433 97.3185 13.2467 97.2118 12.92C97.1118 12.5933 97.0618 12.26 97.0618 11.92V11.74C97.0618 11.3933 97.1118 11.0567 97.2118 10.73C97.3185 10.4033 97.4785 10.11 97.6918 9.85C97.9051 9.58333 98.1751 9.37333 98.5018 9.22C98.8351 9.06 99.2251 8.98 99.6718 8.98C100.252 8.98 100.728 9.10667 101.102 9.36C101.482 9.60667 101.762 9.92667 101.942 10.32C102.128 10.7133 102.222 11.1333 102.222 11.58V12.01H97.4818V11.29H101.522L101.302 11.68C101.302 11.3 101.242 10.9733 101.122 10.7C101.002 10.42 100.822 10.2033 100.582 10.05C100.342 9.89667 100.038 9.82 99.6718 9.82C99.2918 9.82 98.9751 9.90667 98.7218 10.08C98.4751 10.2533 98.2885 10.49 98.1618 10.79C98.0418 11.09 97.9818 11.4367 97.9818 11.83C97.9818 12.21 98.0418 12.5533 98.1618 12.86C98.2885 13.16 98.4818 13.4 98.7418 13.58C99.0018 13.7533 99.3318 13.84 99.7318 13.84C100.152 13.84 100.492 13.7467 100.752 13.56C101.018 13.3733 101.178 13.1567 101.232 12.91H102.132C102.058 13.2767 101.912 13.5933 101.692 13.86C101.472 14.1267 101.195 14.33 100.862 14.47C100.528 14.61 100.152 14.68 99.7318 14.68ZM103.685 14.5V9.16H104.445V11.36H104.405C104.405 10.58 104.575 10.01 104.915 9.65C105.262 9.28333 105.778 9.1 106.465 9.1H106.645V9.96H106.305C105.772 9.96 105.362 10.1033 105.075 10.39C104.788 10.67 104.645 11.0767 104.645 11.61V14.5H103.685Z" fill="black" fill-opacity="0.2"/>
<defs>
<clipPath id="clip0_4297_22081">
<rect width="19" height="18" fill="white" transform="translate(7.5 2.5)"/>
</clipPath>
</defs>
</svg>
