<svg width="187" height="24" viewBox="0 0 187 24" fill="none" xmlns="http://www.w3.org/2000/svg">
<rect y="0.5" width="187" height="23" rx="11.5" fill="#D6D6D6"/>
<g clip-path="url(#clip0_4224_23320)">
<path d="M21.8774 18.2908H12.1605C11.9943 18.2908 11.8564 18.1669 11.8564 18.0176V7.46818C11.8564 7.31888 11.9943 7.19507 12.1605 7.19507H21.8774C22.0436 7.19507 22.1814 7.31888 22.1814 7.46818V18.0176C22.1814 18.1669 22.0436 18.2908 21.8774 18.2908ZM12.4645 17.7445H21.5733V7.7413H12.4645V17.7445Z" fill="#4E4E8D"/>
<path d="M21.8774 18.2908H12.1605C11.9943 18.2908 11.8564 18.1669 11.8564 18.0176V7.46818C11.8564 7.31888 11.9943 7.19507 12.1605 7.19507H21.8774C22.0436 7.19507 22.1814 7.31888 22.1814 7.46818V18.0176C22.1814 18.1669 22.0436 18.2908 21.8774 18.2908ZM12.4645 17.7445H21.5733V7.7413H12.4645V17.7445Z" fill="black" fill-opacity="0.2"/>
<path d="M21.8774 18.2907C21.776 18.2907 21.6787 18.247 21.622 18.1669C21.5287 18.0394 21.5693 17.8719 21.7112 17.7882L23.9043 16.5027V13.9718C23.9043 13.8225 24.0421 13.6987 24.2083 13.6987C24.3745 13.6987 24.5123 13.8225 24.5123 13.9718V16.652C24.5123 16.743 24.4596 16.8304 24.3745 16.8814L22.0436 18.247C21.9909 18.2761 21.9341 18.2907 21.8774 18.2907Z" fill="#4E4E8D"/>
<path d="M21.8774 18.2907C21.776 18.2907 21.6787 18.247 21.622 18.1669C21.5287 18.0394 21.5693 17.8719 21.7112 17.7882L23.9043 16.5027V13.9718C23.9043 13.8225 24.0421 13.6987 24.2083 13.6987C24.3745 13.6987 24.5123 13.8225 24.5123 13.9718V16.652C24.5123 16.743 24.4596 16.8304 24.3745 16.8814L22.0436 18.247C21.9909 18.2761 21.9341 18.2907 21.8774 18.2907Z" fill="black" fill-opacity="0.2"/>
<path d="M24.2083 11.6558C24.0421 11.6558 23.9043 11.532 23.9043 11.3827V6.37557H18.9222C18.756 6.37557 18.6182 6.25176 18.6182 6.10246C18.6182 5.95316 18.756 5.82935 18.9222 5.82935H24.2083C24.3745 5.82935 24.5123 5.95316 24.5123 6.10246V11.3863C24.5123 11.5356 24.3745 11.6558 24.2083 11.6558Z" fill="#4E4E8D"/>
<path d="M24.2083 11.6558C24.0421 11.6558 23.9043 11.532 23.9043 11.3827V6.37557H18.9222C18.756 6.37557 18.6182 6.25176 18.6182 6.10246C18.6182 5.95316 18.756 5.82935 18.9222 5.82935H24.2083C24.3745 5.82935 24.5123 5.95316 24.5123 6.10246V11.3863C24.5123 11.5356 24.3745 11.6558 24.2083 11.6558Z" fill="black" fill-opacity="0.2"/>
<path d="M12.1606 7.74163C12.0592 7.74163 11.9619 7.69793 11.9052 7.61782C11.8119 7.49036 11.8525 7.32285 11.9944 7.2391L14.3253 5.87353C14.3739 5.8444 14.4307 5.82983 14.4915 5.82983H16.2103C16.3765 5.82983 16.5143 5.95365 16.5143 6.10295C16.5143 6.25225 16.3765 6.37606 16.2103 6.37606H14.5807L12.3268 7.69793C12.2741 7.72706 12.2173 7.74163 12.1606 7.74163Z" fill="#4E4E8D"/>
<path d="M12.1606 7.74163C12.0592 7.74163 11.9619 7.69793 11.9052 7.61782C11.8119 7.49036 11.8525 7.32285 11.9944 7.2391L14.3253 5.87353C14.3739 5.8444 14.4307 5.82983 14.4915 5.82983H16.2103C16.3765 5.82983 16.5143 5.95365 16.5143 6.10295C16.5143 6.25225 16.3765 6.37606 16.2103 6.37606H14.5807L12.3268 7.69793C12.2741 7.72706 12.2173 7.74163 12.1606 7.74163Z" fill="black" fill-opacity="0.2"/>
<path d="M21.8774 7.74128C21.7801 7.74128 21.6828 7.69758 21.622 7.61747C21.5287 7.49001 21.5693 7.3225 21.7112 7.23875L24.0542 5.8659C24.1961 5.78215 24.3826 5.81856 24.4758 5.94601C24.5691 6.07347 24.5285 6.24098 24.3866 6.32473L22.0436 7.69758C21.9909 7.72671 21.9341 7.74128 21.8774 7.74128Z" fill="#4E4E8D"/>
<path d="M21.8774 7.74128C21.7801 7.74128 21.6828 7.69758 21.622 7.61747C21.5287 7.49001 21.5693 7.3225 21.7112 7.23875L24.0542 5.8659C24.1961 5.78215 24.3826 5.81856 24.4758 5.94601C24.5691 6.07347 24.5285 6.24098 24.3866 6.32473L22.0436 7.69758C21.9909 7.72671 21.9341 7.74128 21.8774 7.74128Z" fill="black" fill-opacity="0.2"/>
<path d="M10.584 13.1741C10.8504 13.1741 11.0664 12.98 11.0664 12.7407C11.0664 12.5014 10.8504 12.3074 10.584 12.3074C10.3175 12.3074 10.1016 12.5014 10.1016 12.7407C10.1016 12.98 10.3175 13.1741 10.584 13.1741Z" fill="#4E4E8D"/>
<path d="M10.584 13.1741C10.8504 13.1741 11.0664 12.98 11.0664 12.7407C11.0664 12.5014 10.8504 12.3074 10.584 12.3074C10.3175 12.3074 10.1016 12.5014 10.1016 12.7407C10.1016 12.98 10.3175 13.1741 10.584 13.1741Z" fill="black" fill-opacity="0.2"/>
<path d="M9.4497 12.8404C9.51092 12.6075 9.35036 12.3741 9.09108 12.3191C8.8318 12.2641 8.57198 12.4084 8.51076 12.6413C8.44953 12.8742 8.61009 13.1076 8.86937 13.1626C9.12865 13.2176 9.38847 13.0733 9.4497 12.8404Z" fill="#4E4E8D"/>
<path d="M9.4497 12.8404C9.51092 12.6075 9.35036 12.3741 9.09108 12.3191C8.8318 12.2641 8.57198 12.4084 8.51076 12.6413C8.44953 12.8742 8.61009 13.1076 8.86937 13.1626C9.12865 13.2176 9.38847 13.0733 9.4497 12.8404Z" fill="black" fill-opacity="0.2"/>
<path d="M27.018 13.1743C27.2845 13.1743 27.5004 12.9803 27.5004 12.741C27.5004 12.5016 27.2845 12.3076 27.018 12.3076C26.7516 12.3076 26.5356 12.5016 26.5356 12.741C26.5356 12.9803 26.7516 13.1743 27.018 13.1743Z" fill="#4E4E8D"/>
<path d="M27.018 13.1743C27.2845 13.1743 27.5004 12.9803 27.5004 12.741C27.5004 12.5016 27.2845 12.3076 27.018 12.3076C26.7516 12.3076 26.5356 12.5016 26.5356 12.741C26.5356 12.9803 26.7516 13.1743 27.018 13.1743Z" fill="black" fill-opacity="0.2"/>
<path d="M25.7562 13.0468C25.9444 12.8778 25.9444 12.6037 25.7562 12.4346C25.568 12.2655 25.2629 12.2655 25.0747 12.4346C24.8865 12.6037 24.8865 12.8778 25.0747 13.0468C25.2629 13.2159 25.568 13.2159 25.7562 13.0468Z" fill="#4E4E8D"/>
<path d="M25.7562 13.0468C25.9444 12.8778 25.9444 12.6037 25.7562 12.4346C25.568 12.2655 25.2629 12.2655 25.0747 12.4346C24.8865 12.6037 24.8865 12.8778 25.0747 13.0468C25.2629 13.2159 25.568 13.2159 25.7562 13.0468Z" fill="black" fill-opacity="0.2"/>
<path d="M23.8115 13.1743C24.0779 13.1743 24.2939 12.9803 24.2939 12.741C24.2939 12.5016 24.0779 12.3076 23.8115 12.3076C23.5451 12.3076 23.3291 12.5016 23.3291 12.741C23.3291 12.9803 23.5451 13.1743 23.8115 13.1743Z" fill="#4E4E8D"/>
<path d="M23.8115 13.1743C24.0779 13.1743 24.2939 12.9803 24.2939 12.741C24.2939 12.5016 24.0779 12.3076 23.8115 12.3076C23.5451 12.3076 23.3291 12.5016 23.3291 12.741C23.3291 12.9803 23.5451 13.1743 23.8115 13.1743Z" fill="black" fill-opacity="0.2"/>
<path d="M17.6089 3.86668C17.8753 3.86668 18.0913 3.67267 18.0913 3.43334C18.0913 3.19401 17.8753 3 17.6089 3C17.3424 3 17.1265 3.19401 17.1265 3.43334C17.1265 3.67267 17.3424 3.86668 17.6089 3.86668Z" fill="#4E4E8D"/>
<path d="M17.6089 3.86668C17.8753 3.86668 18.0913 3.67267 18.0913 3.43334C18.0913 3.19401 17.8753 3 17.6089 3C17.3424 3 17.1265 3.19401 17.1265 3.43334C17.1265 3.67267 17.3424 3.86668 17.6089 3.86668Z" fill="black" fill-opacity="0.2"/>
<path d="M18.0781 4.9725C18.1393 4.73959 17.9788 4.50619 17.7195 4.4512C17.4602 4.3962 17.2004 4.54043 17.1392 4.77334C17.078 5.00625 17.2385 5.23965 17.4978 5.29465C17.7571 5.34965 18.0169 5.20542 18.0781 4.9725Z" fill="#4E4E8D"/>
<path d="M18.0781 4.9725C18.1393 4.73959 17.9788 4.50619 17.7195 4.4512C17.4602 4.3962 17.2004 4.54043 17.1392 4.77334C17.078 5.00625 17.2385 5.23965 17.4978 5.29465C17.7571 5.34965 18.0169 5.20542 18.0781 4.9725Z" fill="black" fill-opacity="0.2"/>
<path d="M17.6089 6.74705C17.8753 6.74705 18.0913 6.55304 18.0913 6.31371C18.0913 6.07438 17.8753 5.88037 17.6089 5.88037C17.3424 5.88037 17.1265 6.07438 17.1265 6.31371C17.1265 6.55304 17.3424 6.74705 17.6089 6.74705Z" fill="#4E4E8D"/>
<path d="M17.6089 6.74705C17.8753 6.74705 18.0913 6.55304 18.0913 6.31371C18.0913 6.07438 17.8753 5.88037 17.6089 5.88037C17.3424 5.88037 17.1265 6.07438 17.1265 6.31371C17.1265 6.55304 17.3424 6.74705 17.6089 6.74705Z" fill="black" fill-opacity="0.2"/>
<path d="M17.6093 19.5617C17.8758 19.5617 18.0917 19.3677 18.0917 19.1284C18.0917 18.8891 17.8758 18.6951 17.6093 18.6951C17.3429 18.6951 17.127 18.8891 17.127 19.1284C17.127 19.3677 17.3429 19.5617 17.6093 19.5617Z" fill="#4E4E8D"/>
<path d="M17.6093 19.5617C17.8758 19.5617 18.0917 19.3677 18.0917 19.1284C18.0917 18.8891 17.8758 18.6951 17.6093 18.6951C17.3429 18.6951 17.127 18.8891 17.127 19.1284C17.127 19.3677 17.3429 19.5617 17.6093 19.5617Z" fill="black" fill-opacity="0.2"/>
<path d="M18.0771 20.6686C18.1384 20.4356 17.9778 20.2022 17.7185 20.1472C17.4592 20.0922 17.1994 20.2365 17.1382 20.4694C17.077 20.7023 17.2375 20.9357 17.4968 20.9907C17.7561 21.0457 18.0159 20.9015 18.0771 20.6686Z" fill="#4E4E8D"/>
<path d="M18.0771 20.6686C18.1384 20.4356 17.9778 20.2022 17.7185 20.1472C17.4592 20.0922 17.1994 20.2365 17.1382 20.4694C17.077 20.7023 17.2375 20.9357 17.4968 20.9907C17.7561 21.0457 18.0159 20.9015 18.0771 20.6686Z" fill="black" fill-opacity="0.2"/>
<path d="M17.2804 15.7708C17.0736 15.7708 16.8669 15.7198 16.6804 15.6179L14.8116 14.5764C14.4751 14.387 14.2725 14.0629 14.2725 13.7097V11.5321C14.2725 11.1752 14.4751 10.8511 14.8116 10.6654L16.6804 9.62394C17.0493 9.41637 17.5074 9.41637 17.8803 9.62394L19.7491 10.6654C20.0856 10.8548 20.2882 11.1789 20.2882 11.5321V13.7097C20.2882 14.0666 20.0856 14.3907 19.7491 14.5764L17.8803 15.6179C17.6938 15.7198 17.4871 15.7708 17.2804 15.7708ZM17.2804 9.96988C17.175 9.96988 17.0696 9.99537 16.9763 10.05L15.1075 11.0878C14.9373 11.1825 14.8359 11.3464 14.8359 11.5284V13.7061C14.8359 13.8881 14.9373 14.052 15.1075 14.1467L16.9763 15.1882C17.1628 15.2938 17.3979 15.2938 17.5844 15.1882L19.4532 14.1467C19.6234 14.052 19.7248 13.8881 19.7248 13.7061V11.5284C19.7248 11.3464 19.6234 11.1825 19.4532 11.0878L17.5844 10.0464C17.4912 9.99537 17.3858 9.96988 17.2804 9.96988Z" fill="#4E4E8D"/>
<path d="M17.2804 15.7708C17.0736 15.7708 16.8669 15.7198 16.6804 15.6179L14.8116 14.5764C14.4751 14.387 14.2725 14.0629 14.2725 13.7097V11.5321C14.2725 11.1752 14.4751 10.8511 14.8116 10.6654L16.6804 9.62394C17.0493 9.41637 17.5074 9.41637 17.8803 9.62394L19.7491 10.6654C20.0856 10.8548 20.2882 11.1789 20.2882 11.5321V13.7097C20.2882 14.0666 20.0856 14.3907 19.7491 14.5764L17.8803 15.6179C17.6938 15.7198 17.4871 15.7708 17.2804 15.7708ZM17.2804 9.96988C17.175 9.96988 17.0696 9.99537 16.9763 10.05L15.1075 11.0878C14.9373 11.1825 14.8359 11.3464 14.8359 11.5284V13.7061C14.8359 13.8881 14.9373 14.052 15.1075 14.1467L16.9763 15.1882C17.1628 15.2938 17.3979 15.2938 17.5844 15.1882L19.4532 14.1467C19.6234 14.052 19.7248 13.8881 19.7248 13.7061V11.5284C19.7248 11.3464 19.6234 11.1825 19.4532 11.0878L17.5844 10.0464C17.4912 9.99537 17.3858 9.96988 17.2804 9.96988Z" fill="black" fill-opacity="0.2"/>
<path d="M17.2803 14.012C16.4209 14.012 15.7236 13.3857 15.7236 12.6137C15.7236 11.8417 16.4209 11.2153 17.2803 11.2153C18.1397 11.2153 18.8369 11.8417 18.8369 12.6137C18.8369 13.3857 18.1397 14.012 17.2803 14.012ZM17.2803 11.7179C16.729 11.7179 16.2831 12.1184 16.2831 12.6137C16.2831 13.1089 16.729 13.5095 17.2803 13.5095C17.8316 13.5095 18.2775 13.1089 18.2775 12.6137C18.2775 12.1184 17.8316 11.7179 17.2803 11.7179Z" fill="#4E4E8D"/>
<path d="M17.2803 14.012C16.4209 14.012 15.7236 13.3857 15.7236 12.6137C15.7236 11.8417 16.4209 11.2153 17.2803 11.2153C18.1397 11.2153 18.8369 11.8417 18.8369 12.6137C18.8369 13.3857 18.1397 14.012 17.2803 14.012ZM17.2803 11.7179C16.729 11.7179 16.2831 12.1184 16.2831 12.6137C16.2831 13.1089 16.729 13.5095 17.2803 13.5095C17.8316 13.5095 18.2775 13.1089 18.2775 12.6137C18.2775 12.1184 17.8316 11.7179 17.2803 11.7179Z" fill="black" fill-opacity="0.2"/>
</g>
<path d="M37.24 15.18C36.8 15.18 36.4067 15.0833 36.06 14.89C35.72 14.6967 35.45 14.4167 35.25 14.05C35.05 13.6767 34.94 13.23 34.92 12.71H35.18V15H34.42V7.7H35.38V11.25L35.04 11.98C35.0667 11.4 35.1833 10.9267 35.39 10.56C35.5967 10.1933 35.8667 9.92333 36.2 9.75C36.54 9.57 36.9133 9.48 37.32 9.48C37.7 9.48 38.0467 9.55333 38.36 9.7C38.6733 9.84 38.9433 10.0367 39.17 10.29C39.3967 10.5367 39.57 10.8267 39.69 11.16C39.81 11.4867 39.87 11.84 39.87 12.22V12.4C39.87 12.78 39.8067 13.1367 39.68 13.47C39.56 13.8033 39.3833 14.1 39.15 14.36C38.9167 14.6133 38.6367 14.8133 38.31 14.96C37.99 15.1067 37.6333 15.18 37.24 15.18ZM37.13 14.34C37.49 14.34 37.8033 14.2533 38.07 14.08C38.3367 13.9067 38.5433 13.67 38.69 13.37C38.8367 13.0633 38.91 12.71 38.91 12.31C38.91 11.91 38.8333 11.56 38.68 11.26C38.5333 10.96 38.3267 10.73 38.06 10.57C37.7933 10.4033 37.4833 10.32 37.13 10.32C36.81 10.32 36.5133 10.3933 36.24 10.54C35.9667 10.68 35.7467 10.8867 35.58 11.16C35.42 11.4267 35.34 11.75 35.34 12.13V12.59C35.34 12.9567 35.4233 13.27 35.59 13.53C35.7567 13.79 35.9767 13.99 36.25 14.13C36.5233 14.27 36.8167 14.34 37.13 14.34ZM41.4745 15V7.7H42.4345V15H41.4745ZM40.7345 8.46V7.7H42.4345V8.46H40.7345ZM46.8359 15.18C46.3692 15.18 45.9592 15.1 45.6059 14.94C45.2525 14.78 44.9525 14.57 44.7059 14.31C44.4659 14.0433 44.2825 13.7467 44.1559 13.42C44.0359 13.0933 43.9759 12.76 43.9759 12.42V12.24C43.9759 11.9 44.0392 11.5667 44.1659 11.24C44.2925 10.9067 44.4792 10.61 44.7259 10.35C44.9725 10.0833 45.2725 9.87333 45.6259 9.72C45.9792 9.56 46.3825 9.48 46.8359 9.48C47.2892 9.48 47.6925 9.56 48.0459 9.72C48.3992 9.87333 48.6992 10.0833 48.9459 10.35C49.1925 10.61 49.3792 10.9067 49.5059 11.24C49.6325 11.5667 49.6959 11.9 49.6959 12.24V12.42C49.6959 12.76 49.6325 13.0933 49.5059 13.42C49.3859 13.7467 49.2025 14.0433 48.9559 14.31C48.7159 14.57 48.4192 14.78 48.0659 14.94C47.7125 15.1 47.3025 15.18 46.8359 15.18ZM46.8359 14.32C47.2359 14.32 47.5759 14.2333 47.8559 14.06C48.1425 13.88 48.3592 13.64 48.5059 13.34C48.6592 13.04 48.7359 12.7033 48.7359 12.33C48.7359 11.95 48.6592 11.61 48.5059 11.31C48.3525 11.01 48.1325 10.7733 47.8459 10.6C47.5659 10.4267 47.2292 10.34 46.8359 10.34C46.4492 10.34 46.1125 10.4267 45.8259 10.6C45.5392 10.7733 45.3192 11.01 45.1659 11.31C45.0125 11.61 44.9359 11.95 44.9359 12.33C44.9359 12.7033 45.0092 13.04 45.1559 13.34C45.3092 13.64 45.5259 13.88 45.8059 14.06C46.0925 14.2333 46.4359 14.32 46.8359 14.32ZM53.5237 15.18C53.0637 15.18 52.6637 15.1 52.3237 14.94C51.9903 14.78 51.7137 14.5667 51.4937 14.3C51.2737 14.0267 51.107 13.7267 50.9937 13.4C50.887 13.0733 50.8337 12.7467 50.8337 12.42V12.24C50.8337 11.9 50.887 11.5667 50.9937 11.24C51.107 10.9133 51.2737 10.62 51.4937 10.36C51.7203 10.0933 52.0003 9.88 52.3337 9.72C52.667 9.56 53.057 9.48 53.5037 9.48C53.9503 9.48 54.3503 9.56333 54.7037 9.73C55.0637 9.89667 55.3503 10.1333 55.5637 10.44C55.7837 10.74 55.907 11.0967 55.9337 11.51H55.0137C54.967 11.1767 54.8137 10.9 54.5537 10.68C54.2937 10.4533 53.9437 10.34 53.5037 10.34C53.1237 10.34 52.807 10.4267 52.5537 10.6C52.3003 10.7733 52.1103 11.01 51.9837 11.31C51.857 11.61 51.7937 11.95 51.7937 12.33C51.7937 12.6967 51.857 13.0333 51.9837 13.34C52.1103 13.64 52.3003 13.88 52.5537 14.06C52.8137 14.2333 53.137 14.32 53.5237 14.32C53.8237 14.32 54.0837 14.2667 54.3037 14.16C54.5237 14.0533 54.7003 13.91 54.8337 13.73C54.967 13.55 55.047 13.3467 55.0737 13.12H55.9937C55.9737 13.54 55.8503 13.9033 55.6237 14.21C55.4037 14.5167 55.1103 14.7567 54.7437 14.93C54.3837 15.0967 53.977 15.18 53.5237 15.18ZM61.0781 15L59.0681 12.51H58.1881L60.6381 9.66H61.6481L59.4281 12.23L59.4981 11.72L62.1881 15H61.0781ZM57.3981 15V7.7H58.3581V15H57.3981ZM67.8759 15.18C67.4093 15.18 67.0059 15.1 66.6659 14.94C66.3259 14.78 66.0493 14.57 65.8359 14.31C65.6226 14.0433 65.4626 13.7467 65.3559 13.42C65.2559 13.0933 65.2059 12.76 65.2059 12.42V12.24C65.2059 11.8933 65.2559 11.5567 65.3559 11.23C65.4626 10.9033 65.6226 10.61 65.8359 10.35C66.0493 10.0833 66.3193 9.87333 66.6459 9.72C66.9793 9.56 67.3693 9.48 67.8159 9.48C68.3959 9.48 68.8726 9.60667 69.2459 9.86C69.6259 10.1067 69.9059 10.4267 70.0859 10.82C70.2726 11.2133 70.3659 11.6333 70.3659 12.08V12.51H65.6259V11.79H69.6659L69.4459 12.18C69.4459 11.8 69.3859 11.4733 69.2659 11.2C69.1459 10.92 68.9659 10.7033 68.7259 10.55C68.4859 10.3967 68.1826 10.32 67.8159 10.32C67.4359 10.32 67.1193 10.4067 66.8659 10.58C66.6193 10.7533 66.4326 10.99 66.3059 11.29C66.1859 11.59 66.1259 11.9367 66.1259 12.33C66.1259 12.71 66.1859 13.0533 66.3059 13.36C66.4326 13.66 66.6259 13.9 66.8859 14.08C67.1459 14.2533 67.4759 14.34 67.8759 14.34C68.2959 14.34 68.6359 14.2467 68.8959 14.06C69.1626 13.8733 69.3226 13.6567 69.3759 13.41H70.2759C70.2026 13.7767 70.0559 14.0933 69.8359 14.36C69.6159 14.6267 69.3393 14.83 69.0059 14.97C68.6726 15.11 68.2959 15.18 67.8759 15.18ZM71.1695 15L73.0795 12.19L73.0495 12.39L71.2595 9.66H72.3195L73.6095 11.67H73.7495L74.9695 9.66H75.9595L74.2695 12.32L74.2995 12.14L76.2995 15H75.2395L73.7395 12.83H73.5995L72.1595 15H71.1695ZM77.5052 17V9.66H78.2652V11.97L78.0852 11.95C78.1185 11.3767 78.2385 10.91 78.4452 10.55C78.6585 10.1833 78.9352 9.91333 79.2752 9.74C79.6152 9.56667 79.9852 9.48 80.3852 9.48C80.7718 9.48 81.1218 9.55333 81.4352 9.7C81.7552 9.84667 82.0285 10.0467 82.2552 10.3C82.4818 10.5533 82.6552 10.8467 82.7752 11.18C82.8952 11.5133 82.9552 11.8667 82.9552 12.24V12.42C82.9552 12.7933 82.8918 13.1467 82.7652 13.48C82.6385 13.8133 82.4585 14.1067 82.2252 14.36C81.9985 14.6133 81.7252 14.8133 81.4052 14.96C81.0918 15.1067 80.7452 15.18 80.3652 15.18C79.9852 15.18 79.6218 15.0967 79.2752 14.93C78.9285 14.7633 78.6418 14.4933 78.4152 14.12C78.1885 13.7467 78.0585 13.2567 78.0252 12.65L78.4652 13.45V17H77.5052ZM80.2152 14.34C80.5752 14.34 80.8885 14.2567 81.1552 14.09C81.4218 13.9167 81.6285 13.68 81.7752 13.38C81.9218 13.0733 81.9952 12.7233 81.9952 12.33C81.9952 11.93 81.9218 11.58 81.7752 11.28C81.6285 10.98 81.4218 10.7467 81.1552 10.58C80.8885 10.4067 80.5752 10.32 80.2152 10.32C79.8952 10.32 79.5985 10.3933 79.3252 10.54C79.0518 10.68 78.8318 10.8867 78.6652 11.16C78.5052 11.4267 78.4252 11.75 78.4252 12.13V12.59C78.4252 12.9567 78.5085 13.27 78.6752 13.53C78.8418 13.79 79.0618 13.99 79.3352 14.13C79.6085 14.27 79.9018 14.34 80.2152 14.34ZM84.5597 15V7.7H85.5197V15H84.5597ZM83.8197 8.46V7.7H85.5197V8.46H83.8197ZM89.921 15.18C89.4543 15.18 89.0443 15.1 88.691 14.94C88.3377 14.78 88.0377 14.57 87.791 14.31C87.551 14.0433 87.3677 13.7467 87.241 13.42C87.121 13.0933 87.061 12.76 87.061 12.42V12.24C87.061 11.9 87.1243 11.5667 87.251 11.24C87.3777 10.9067 87.5643 10.61 87.811 10.35C88.0577 10.0833 88.3577 9.87333 88.711 9.72C89.0643 9.56 89.4677 9.48 89.921 9.48C90.3743 9.48 90.7777 9.56 91.131 9.72C91.4843 9.87333 91.7843 10.0833 92.031 10.35C92.2777 10.61 92.4643 10.9067 92.591 11.24C92.7177 11.5667 92.781 11.9 92.781 12.24V12.42C92.781 12.76 92.7177 13.0933 92.591 13.42C92.471 13.7467 92.2877 14.0433 92.041 14.31C91.801 14.57 91.5043 14.78 91.151 14.94C90.7977 15.1 90.3877 15.18 89.921 15.18ZM89.921 14.32C90.321 14.32 90.661 14.2333 90.941 14.06C91.2277 13.88 91.4443 13.64 91.591 13.34C91.7443 13.04 91.821 12.7033 91.821 12.33C91.821 11.95 91.7443 11.61 91.591 11.31C91.4377 11.01 91.2177 10.7733 90.931 10.6C90.651 10.4267 90.3143 10.34 89.921 10.34C89.5343 10.34 89.1977 10.4267 88.911 10.6C88.6243 10.7733 88.4043 11.01 88.251 11.31C88.0977 11.61 88.021 11.95 88.021 12.33C88.021 12.7033 88.0943 13.04 88.241 13.34C88.3943 13.64 88.611 13.88 88.891 14.06C89.1777 14.2333 89.521 14.32 89.921 14.32ZM94.3188 15V9.66H95.0788V11.86H95.0388C95.0388 11.08 95.2088 10.51 95.5488 10.15C95.8955 9.78333 96.4122 9.6 97.0988 9.6H97.2788V10.46H96.9388C96.4055 10.46 95.9955 10.6033 95.7088 10.89C95.4222 11.17 95.2788 11.5767 95.2788 12.11V15H94.3188ZM100.732 15.18C100.265 15.18 99.8618 15.1 99.5218 14.94C99.1818 14.78 98.9051 14.57 98.6918 14.31C98.4785 14.0433 98.3185 13.7467 98.2118 13.42C98.1118 13.0933 98.0618 12.76 98.0618 12.42V12.24C98.0618 11.8933 98.1118 11.5567 98.2118 11.23C98.3185 10.9033 98.4785 10.61 98.6918 10.35C98.9051 10.0833 99.1751 9.87333 99.5018 9.72C99.8351 9.56 100.225 9.48 100.672 9.48C101.252 9.48 101.728 9.60667 102.102 9.86C102.482 10.1067 102.762 10.4267 102.942 10.82C103.128 11.2133 103.222 11.6333 103.222 12.08V12.51H98.4818V11.79H102.522L102.302 12.18C102.302 11.8 102.242 11.4733 102.122 11.2C102.002 10.92 101.822 10.7033 101.582 10.55C101.342 10.3967 101.038 10.32 100.672 10.32C100.292 10.32 99.9751 10.4067 99.7218 10.58C99.4751 10.7533 99.2885 10.99 99.1618 11.29C99.0418 11.59 98.9818 11.9367 98.9818 12.33C98.9818 12.71 99.0418 13.0533 99.1618 13.36C99.2885 13.66 99.4818 13.9 99.7418 14.08C100.002 14.2533 100.332 14.34 100.732 14.34C101.152 14.34 101.492 14.2467 101.752 14.06C102.018 13.8733 102.178 13.6567 102.232 13.41H103.132C103.058 13.7767 102.912 14.0933 102.692 14.36C102.472 14.6267 102.195 14.83 101.862 14.97C101.528 15.11 101.152 15.18 100.732 15.18ZM104.685 15V9.66H105.445V11.86H105.405C105.405 11.08 105.575 10.51 105.915 10.15C106.262 9.78333 106.778 9.6 107.465 9.6H107.645V10.46H107.305C106.772 10.46 106.362 10.6033 106.075 10.89C105.788 11.17 105.645 11.5767 105.645 12.11V15H104.685ZM113.552 15.18C113.092 15.18 112.692 15.1 112.352 14.94C112.018 14.78 111.742 14.5667 111.522 14.3C111.302 14.0267 111.135 13.7267 111.022 13.4C110.915 13.0733 110.862 12.7467 110.862 12.42V12.24C110.862 11.9 110.915 11.5667 111.022 11.24C111.135 10.9133 111.302 10.62 111.522 10.36C111.748 10.0933 112.028 9.88 112.362 9.72C112.695 9.56 113.085 9.48 113.532 9.48C113.978 9.48 114.378 9.56333 114.732 9.73C115.092 9.89667 115.378 10.1333 115.592 10.44C115.812 10.74 115.935 11.0967 115.962 11.51H115.042C114.995 11.1767 114.842 10.9 114.582 10.68C114.322 10.4533 113.972 10.34 113.532 10.34C113.152 10.34 112.835 10.4267 112.582 10.6C112.328 10.7733 112.138 11.01 112.012 11.31C111.885 11.61 111.822 11.95 111.822 12.33C111.822 12.6967 111.885 13.0333 112.012 13.34C112.138 13.64 112.328 13.88 112.582 14.06C112.842 14.2333 113.165 14.32 113.552 14.32C113.852 14.32 114.112 14.2667 114.332 14.16C114.552 14.0533 114.728 13.91 114.862 13.73C114.995 13.55 115.075 13.3467 115.102 13.12H116.022C116.002 13.54 115.878 13.9033 115.652 14.21C115.432 14.5167 115.138 14.7567 114.772 14.93C114.412 15.0967 114.005 15.18 113.552 15.18ZM119.886 15.18C119.42 15.18 119.01 15.1 118.656 14.94C118.303 14.78 118.003 14.57 117.756 14.31C117.516 14.0433 117.333 13.7467 117.206 13.42C117.086 13.0933 117.026 12.76 117.026 12.42V12.24C117.026 11.9 117.09 11.5667 117.216 11.24C117.343 10.9067 117.53 10.61 117.776 10.35C118.023 10.0833 118.323 9.87333 118.676 9.72C119.03 9.56 119.433 9.48 119.886 9.48C120.34 9.48 120.743 9.56 121.096 9.72C121.45 9.87333 121.75 10.0833 121.996 10.35C122.243 10.61 122.43 10.9067 122.556 11.24C122.683 11.5667 122.746 11.9 122.746 12.24V12.42C122.746 12.76 122.683 13.0933 122.556 13.42C122.436 13.7467 122.253 14.0433 122.006 14.31C121.766 14.57 121.47 14.78 121.116 14.94C120.763 15.1 120.353 15.18 119.886 15.18ZM119.886 14.32C120.286 14.32 120.626 14.2333 120.906 14.06C121.193 13.88 121.41 13.64 121.556 13.34C121.71 13.04 121.786 12.7033 121.786 12.33C121.786 11.95 121.71 11.61 121.556 11.31C121.403 11.01 121.183 10.7733 120.896 10.6C120.616 10.4267 120.28 10.34 119.886 10.34C119.5 10.34 119.163 10.4267 118.876 10.6C118.59 10.7733 118.37 11.01 118.216 11.31C118.063 11.61 117.986 11.95 117.986 12.33C117.986 12.7033 118.06 13.04 118.206 13.34C118.36 13.64 118.576 13.88 118.856 14.06C119.143 14.2333 119.486 14.32 119.886 14.32ZM124.284 15V9.66H125.044V11.95H124.924C124.924 11.43 124.991 10.99 125.124 10.63C125.264 10.2633 125.471 9.98333 125.744 9.79C126.017 9.59667 126.364 9.5 126.784 9.5H126.824C127.244 9.5 127.591 9.59667 127.864 9.79C128.144 9.98333 128.351 10.2633 128.484 10.63C128.617 10.99 128.684 11.43 128.684 11.95H128.404C128.404 11.43 128.474 10.99 128.614 10.63C128.754 10.2633 128.961 9.98333 129.234 9.79C129.514 9.59667 129.864 9.5 130.284 9.5H130.324C130.744 9.5 131.094 9.59667 131.374 9.79C131.654 9.98333 131.861 10.2633 131.994 10.63C132.134 10.99 132.204 11.43 132.204 11.95V15H131.244V11.74C131.244 11.3067 131.137 10.9733 130.924 10.74C130.711 10.5 130.414 10.38 130.034 10.38C129.641 10.38 129.324 10.5067 129.084 10.76C128.844 11.0067 128.724 11.3533 128.724 11.8V15H127.764V11.74C127.764 11.3067 127.657 10.9733 127.444 10.74C127.231 10.5 126.934 10.38 126.554 10.38C126.161 10.38 125.844 10.5067 125.604 10.76C125.364 11.0067 125.244 11.3533 125.244 11.8V15H124.284ZM134.322 15V9.66H135.282V15H134.322ZM133.502 10.42V9.66H135.282V10.42H133.502ZM134.592 8.8C134.378 8.8 134.218 8.74333 134.112 8.63C134.012 8.51667 133.962 8.37333 133.962 8.2C133.962 8.02667 134.012 7.88333 134.112 7.77C134.218 7.65667 134.378 7.6 134.592 7.6C134.805 7.6 134.962 7.65667 135.062 7.77C135.168 7.88333 135.222 8.02667 135.222 8.2C135.222 8.37333 135.168 8.51667 135.062 8.63C134.962 8.74333 134.805 8.8 134.592 8.8ZM137.238 15V9.66H137.998V11.95H137.878C137.878 11.4233 137.948 10.98 138.088 10.62C138.235 10.2533 138.455 9.97667 138.748 9.79C139.041 9.59667 139.411 9.5 139.858 9.5H139.898C140.571 9.5 141.068 9.71 141.388 10.13C141.715 10.55 141.878 11.1567 141.878 11.95V15H140.918V11.75C140.918 11.3367 140.801 11.0067 140.568 10.76C140.335 10.5067 140.015 10.38 139.608 10.38C139.188 10.38 138.848 10.51 138.588 10.77C138.328 11.03 138.198 11.3767 138.198 11.81V15H137.238ZM145.754 17.08C145.508 17.08 145.258 17.07 145.004 17.05C144.758 17.03 144.521 17.0033 144.294 16.97V16.16C144.534 16.1933 144.784 16.22 145.044 16.24C145.311 16.2667 145.561 16.28 145.794 16.28C146.281 16.28 146.668 16.2133 146.954 16.08C147.248 15.9533 147.458 15.75 147.584 15.47C147.718 15.1967 147.784 14.8433 147.784 14.41V13.39L148.104 12.63C148.084 13.17 147.971 13.62 147.764 13.98C147.558 14.3333 147.288 14.6 146.954 14.78C146.628 14.9533 146.264 15.04 145.864 15.04C145.491 15.04 145.148 14.97 144.834 14.83C144.528 14.6833 144.261 14.4833 144.034 14.23C143.814 13.9767 143.641 13.6867 143.514 13.36C143.394 13.0267 143.334 12.6767 143.334 12.31V12.13C143.334 11.7567 143.398 11.41 143.524 11.09C143.651 10.7633 143.828 10.48 144.054 10.24C144.281 10 144.551 9.81333 144.864 9.68C145.184 9.54667 145.534 9.48 145.914 9.48C146.361 9.48 146.754 9.57667 147.094 9.77C147.434 9.95667 147.701 10.2333 147.894 10.6C148.094 10.96 148.204 11.4033 148.224 11.93L147.944 11.94V9.66H148.704V14.37C148.704 15.01 148.604 15.5267 148.404 15.92C148.211 16.32 147.898 16.6133 147.464 16.8C147.038 16.9867 146.468 17.08 145.754 17.08ZM146.044 14.16C146.364 14.16 146.654 14.09 146.914 13.95C147.181 13.81 147.391 13.61 147.544 13.35C147.704 13.0833 147.784 12.7667 147.784 12.4V11.94C147.784 11.58 147.701 11.2767 147.534 11.03C147.374 10.7833 147.164 10.5967 146.904 10.47C146.644 10.3433 146.361 10.28 146.054 10.28C145.708 10.28 145.401 10.36 145.134 10.52C144.868 10.68 144.661 10.9067 144.514 11.2C144.368 11.4867 144.294 11.8267 144.294 12.22C144.294 12.6133 144.368 12.9567 144.514 13.25C144.668 13.5433 144.874 13.77 145.134 13.93C145.401 14.0833 145.704 14.16 146.044 14.16ZM154.708 15.16C154.008 15.16 153.465 15.01 153.078 14.71C152.698 14.41 152.501 14 152.488 13.48H153.388C153.401 13.6867 153.505 13.8833 153.698 14.07C153.898 14.25 154.235 14.34 154.708 14.34C155.135 14.34 155.461 14.2567 155.688 14.09C155.915 13.9167 156.028 13.7067 156.028 13.46C156.028 13.24 155.945 13.07 155.778 12.95C155.611 12.8233 155.341 12.74 154.968 12.7L154.388 12.64C153.881 12.5867 153.468 12.4367 153.148 12.19C152.828 11.9367 152.668 11.5833 152.668 11.13C152.668 10.79 152.755 10.5 152.928 10.26C153.101 10.0133 153.341 9.82667 153.648 9.7C153.955 9.56667 154.308 9.5 154.708 9.5C155.308 9.5 155.795 9.63333 156.168 9.9C156.541 10.1667 156.735 10.5633 156.748 11.09H155.848C155.841 10.8767 155.741 10.6967 155.548 10.55C155.361 10.3967 155.081 10.32 154.708 10.32C154.335 10.32 154.051 10.3967 153.858 10.55C153.665 10.7033 153.568 10.8967 153.568 11.13C153.568 11.33 153.635 11.49 153.768 11.61C153.908 11.73 154.135 11.8067 154.448 11.84L155.028 11.9C155.601 11.96 156.061 12.12 156.408 12.38C156.755 12.6333 156.928 12.9933 156.928 13.46C156.928 13.7933 156.831 14.09 156.638 14.35C156.451 14.6033 156.191 14.8033 155.858 14.95C155.525 15.09 155.141 15.16 154.708 15.16ZM160.879 15.18C160.413 15.18 160.003 15.1 159.649 14.94C159.296 14.78 158.996 14.57 158.749 14.31C158.509 14.0433 158.326 13.7467 158.199 13.42C158.079 13.0933 158.019 12.76 158.019 12.42V12.24C158.019 11.9 158.083 11.5667 158.209 11.24C158.336 10.9067 158.523 10.61 158.769 10.35C159.016 10.0833 159.316 9.87333 159.669 9.72C160.023 9.56 160.426 9.48 160.879 9.48C161.333 9.48 161.736 9.56 162.089 9.72C162.443 9.87333 162.743 10.0833 162.989 10.35C163.236 10.61 163.423 10.9067 163.549 11.24C163.676 11.5667 163.739 11.9 163.739 12.24V12.42C163.739 12.76 163.676 13.0933 163.549 13.42C163.429 13.7467 163.246 14.0433 162.999 14.31C162.759 14.57 162.463 14.78 162.109 14.94C161.756 15.1 161.346 15.18 160.879 15.18ZM160.879 14.32C161.279 14.32 161.619 14.2333 161.899 14.06C162.186 13.88 162.403 13.64 162.549 13.34C162.703 13.04 162.779 12.7033 162.779 12.33C162.779 11.95 162.703 11.61 162.549 11.31C162.396 11.01 162.176 10.7733 161.889 10.6C161.609 10.4267 161.273 10.34 160.879 10.34C160.493 10.34 160.156 10.4267 159.869 10.6C159.583 10.7733 159.363 11.01 159.209 11.31C159.056 11.61 158.979 11.95 158.979 12.33C158.979 12.7033 159.053 13.04 159.199 13.34C159.353 13.64 159.569 13.88 159.849 14.06C160.136 14.2333 160.479 14.32 160.879 14.32ZM167.737 15.18C167.27 15.18 166.86 15.1 166.507 14.94C166.154 14.78 165.854 14.57 165.607 14.31C165.367 14.0433 165.184 13.7467 165.057 13.42C164.937 13.0933 164.877 12.76 164.877 12.42V12.24C164.877 11.9 164.94 11.5667 165.067 11.24C165.194 10.9067 165.38 10.61 165.627 10.35C165.874 10.0833 166.174 9.87333 166.527 9.72C166.88 9.56 167.284 9.48 167.737 9.48C168.19 9.48 168.594 9.56 168.947 9.72C169.3 9.87333 169.6 10.0833 169.847 10.35C170.094 10.61 170.28 10.9067 170.407 11.24C170.534 11.5667 170.597 11.9 170.597 12.24V12.42C170.597 12.76 170.534 13.0933 170.407 13.42C170.287 13.7467 170.104 14.0433 169.857 14.31C169.617 14.57 169.32 14.78 168.967 14.94C168.614 15.1 168.204 15.18 167.737 15.18ZM167.737 14.32C168.137 14.32 168.477 14.2333 168.757 14.06C169.044 13.88 169.26 13.64 169.407 13.34C169.56 13.04 169.637 12.7033 169.637 12.33C169.637 11.95 169.56 11.61 169.407 11.31C169.254 11.01 169.034 10.7733 168.747 10.6C168.467 10.4267 168.13 10.34 167.737 10.34C167.35 10.34 167.014 10.4267 166.727 10.6C166.44 10.7733 166.22 11.01 166.067 11.31C165.914 11.61 165.837 11.95 165.837 12.33C165.837 12.7033 165.91 13.04 166.057 13.34C166.21 13.64 166.427 13.88 166.707 14.06C166.994 14.2333 167.337 14.32 167.737 14.32ZM172.135 15V9.66H172.895V11.95H172.775C172.775 11.4233 172.845 10.98 172.985 10.62C173.132 10.2533 173.352 9.97667 173.645 9.79C173.938 9.59667 174.308 9.5 174.755 9.5H174.795C175.468 9.5 175.965 9.71 176.285 10.13C176.612 10.55 176.775 11.1567 176.775 11.95V15H175.815V11.75C175.815 11.3367 175.698 11.0067 175.465 10.76C175.232 10.5067 174.912 10.38 174.505 10.38C174.085 10.38 173.745 10.51 173.485 10.77C173.225 11.03 173.095 11.3767 173.095 11.81V15H172.135Z" fill="#4E4E8D"/>
<path d="M37.24 15.18C36.8 15.18 36.4067 15.0833 36.06 14.89C35.72 14.6967 35.45 14.4167 35.25 14.05C35.05 13.6767 34.94 13.23 34.92 12.71H35.18V15H34.42V7.7H35.38V11.25L35.04 11.98C35.0667 11.4 35.1833 10.9267 35.39 10.56C35.5967 10.1933 35.8667 9.92333 36.2 9.75C36.54 9.57 36.9133 9.48 37.32 9.48C37.7 9.48 38.0467 9.55333 38.36 9.7C38.6733 9.84 38.9433 10.0367 39.17 10.29C39.3967 10.5367 39.57 10.8267 39.69 11.16C39.81 11.4867 39.87 11.84 39.87 12.22V12.4C39.87 12.78 39.8067 13.1367 39.68 13.47C39.56 13.8033 39.3833 14.1 39.15 14.36C38.9167 14.6133 38.6367 14.8133 38.31 14.96C37.99 15.1067 37.6333 15.18 37.24 15.18ZM37.13 14.34C37.49 14.34 37.8033 14.2533 38.07 14.08C38.3367 13.9067 38.5433 13.67 38.69 13.37C38.8367 13.0633 38.91 12.71 38.91 12.31C38.91 11.91 38.8333 11.56 38.68 11.26C38.5333 10.96 38.3267 10.73 38.06 10.57C37.7933 10.4033 37.4833 10.32 37.13 10.32C36.81 10.32 36.5133 10.3933 36.24 10.54C35.9667 10.68 35.7467 10.8867 35.58 11.16C35.42 11.4267 35.34 11.75 35.34 12.13V12.59C35.34 12.9567 35.4233 13.27 35.59 13.53C35.7567 13.79 35.9767 13.99 36.25 14.13C36.5233 14.27 36.8167 14.34 37.13 14.34ZM41.4745 15V7.7H42.4345V15H41.4745ZM40.7345 8.46V7.7H42.4345V8.46H40.7345ZM46.8359 15.18C46.3692 15.18 45.9592 15.1 45.6059 14.94C45.2525 14.78 44.9525 14.57 44.7059 14.31C44.4659 14.0433 44.2825 13.7467 44.1559 13.42C44.0359 13.0933 43.9759 12.76 43.9759 12.42V12.24C43.9759 11.9 44.0392 11.5667 44.1659 11.24C44.2925 10.9067 44.4792 10.61 44.7259 10.35C44.9725 10.0833 45.2725 9.87333 45.6259 9.72C45.9792 9.56 46.3825 9.48 46.8359 9.48C47.2892 9.48 47.6925 9.56 48.0459 9.72C48.3992 9.87333 48.6992 10.0833 48.9459 10.35C49.1925 10.61 49.3792 10.9067 49.5059 11.24C49.6325 11.5667 49.6959 11.9 49.6959 12.24V12.42C49.6959 12.76 49.6325 13.0933 49.5059 13.42C49.3859 13.7467 49.2025 14.0433 48.9559 14.31C48.7159 14.57 48.4192 14.78 48.0659 14.94C47.7125 15.1 47.3025 15.18 46.8359 15.18ZM46.8359 14.32C47.2359 14.32 47.5759 14.2333 47.8559 14.06C48.1425 13.88 48.3592 13.64 48.5059 13.34C48.6592 13.04 48.7359 12.7033 48.7359 12.33C48.7359 11.95 48.6592 11.61 48.5059 11.31C48.3525 11.01 48.1325 10.7733 47.8459 10.6C47.5659 10.4267 47.2292 10.34 46.8359 10.34C46.4492 10.34 46.1125 10.4267 45.8259 10.6C45.5392 10.7733 45.3192 11.01 45.1659 11.31C45.0125 11.61 44.9359 11.95 44.9359 12.33C44.9359 12.7033 45.0092 13.04 45.1559 13.34C45.3092 13.64 45.5259 13.88 45.8059 14.06C46.0925 14.2333 46.4359 14.32 46.8359 14.32ZM53.5237 15.18C53.0637 15.18 52.6637 15.1 52.3237 14.94C51.9903 14.78 51.7137 14.5667 51.4937 14.3C51.2737 14.0267 51.107 13.7267 50.9937 13.4C50.887 13.0733 50.8337 12.7467 50.8337 12.42V12.24C50.8337 11.9 50.887 11.5667 50.9937 11.24C51.107 10.9133 51.2737 10.62 51.4937 10.36C51.7203 10.0933 52.0003 9.88 52.3337 9.72C52.667 9.56 53.057 9.48 53.5037 9.48C53.9503 9.48 54.3503 9.56333 54.7037 9.73C55.0637 9.89667 55.3503 10.1333 55.5637 10.44C55.7837 10.74 55.907 11.0967 55.9337 11.51H55.0137C54.967 11.1767 54.8137 10.9 54.5537 10.68C54.2937 10.4533 53.9437 10.34 53.5037 10.34C53.1237 10.34 52.807 10.4267 52.5537 10.6C52.3003 10.7733 52.1103 11.01 51.9837 11.31C51.857 11.61 51.7937 11.95 51.7937 12.33C51.7937 12.6967 51.857 13.0333 51.9837 13.34C52.1103 13.64 52.3003 13.88 52.5537 14.06C52.8137 14.2333 53.137 14.32 53.5237 14.32C53.8237 14.32 54.0837 14.2667 54.3037 14.16C54.5237 14.0533 54.7003 13.91 54.8337 13.73C54.967 13.55 55.047 13.3467 55.0737 13.12H55.9937C55.9737 13.54 55.8503 13.9033 55.6237 14.21C55.4037 14.5167 55.1103 14.7567 54.7437 14.93C54.3837 15.0967 53.977 15.18 53.5237 15.18ZM61.0781 15L59.0681 12.51H58.1881L60.6381 9.66H61.6481L59.4281 12.23L59.4981 11.72L62.1881 15H61.0781ZM57.3981 15V7.7H58.3581V15H57.3981ZM67.8759 15.18C67.4093 15.18 67.0059 15.1 66.6659 14.94C66.3259 14.78 66.0493 14.57 65.8359 14.31C65.6226 14.0433 65.4626 13.7467 65.3559 13.42C65.2559 13.0933 65.2059 12.76 65.2059 12.42V12.24C65.2059 11.8933 65.2559 11.5567 65.3559 11.23C65.4626 10.9033 65.6226 10.61 65.8359 10.35C66.0493 10.0833 66.3193 9.87333 66.6459 9.72C66.9793 9.56 67.3693 9.48 67.8159 9.48C68.3959 9.48 68.8726 9.60667 69.2459 9.86C69.6259 10.1067 69.9059 10.4267 70.0859 10.82C70.2726 11.2133 70.3659 11.6333 70.3659 12.08V12.51H65.6259V11.79H69.6659L69.4459 12.18C69.4459 11.8 69.3859 11.4733 69.2659 11.2C69.1459 10.92 68.9659 10.7033 68.7259 10.55C68.4859 10.3967 68.1826 10.32 67.8159 10.32C67.4359 10.32 67.1193 10.4067 66.8659 10.58C66.6193 10.7533 66.4326 10.99 66.3059 11.29C66.1859 11.59 66.1259 11.9367 66.1259 12.33C66.1259 12.71 66.1859 13.0533 66.3059 13.36C66.4326 13.66 66.6259 13.9 66.8859 14.08C67.1459 14.2533 67.4759 14.34 67.8759 14.34C68.2959 14.34 68.6359 14.2467 68.8959 14.06C69.1626 13.8733 69.3226 13.6567 69.3759 13.41H70.2759C70.2026 13.7767 70.0559 14.0933 69.8359 14.36C69.6159 14.6267 69.3393 14.83 69.0059 14.97C68.6726 15.11 68.2959 15.18 67.8759 15.18ZM71.1695 15L73.0795 12.19L73.0495 12.39L71.2595 9.66H72.3195L73.6095 11.67H73.7495L74.9695 9.66H75.9595L74.2695 12.32L74.2995 12.14L76.2995 15H75.2395L73.7395 12.83H73.5995L72.1595 15H71.1695ZM77.5052 17V9.66H78.2652V11.97L78.0852 11.95C78.1185 11.3767 78.2385 10.91 78.4452 10.55C78.6585 10.1833 78.9352 9.91333 79.2752 9.74C79.6152 9.56667 79.9852 9.48 80.3852 9.48C80.7718 9.48 81.1218 9.55333 81.4352 9.7C81.7552 9.84667 82.0285 10.0467 82.2552 10.3C82.4818 10.5533 82.6552 10.8467 82.7752 11.18C82.8952 11.5133 82.9552 11.8667 82.9552 12.24V12.42C82.9552 12.7933 82.8918 13.1467 82.7652 13.48C82.6385 13.8133 82.4585 14.1067 82.2252 14.36C81.9985 14.6133 81.7252 14.8133 81.4052 14.96C81.0918 15.1067 80.7452 15.18 80.3652 15.18C79.9852 15.18 79.6218 15.0967 79.2752 14.93C78.9285 14.7633 78.6418 14.4933 78.4152 14.12C78.1885 13.7467 78.0585 13.2567 78.0252 12.65L78.4652 13.45V17H77.5052ZM80.2152 14.34C80.5752 14.34 80.8885 14.2567 81.1552 14.09C81.4218 13.9167 81.6285 13.68 81.7752 13.38C81.9218 13.0733 81.9952 12.7233 81.9952 12.33C81.9952 11.93 81.9218 11.58 81.7752 11.28C81.6285 10.98 81.4218 10.7467 81.1552 10.58C80.8885 10.4067 80.5752 10.32 80.2152 10.32C79.8952 10.32 79.5985 10.3933 79.3252 10.54C79.0518 10.68 78.8318 10.8867 78.6652 11.16C78.5052 11.4267 78.4252 11.75 78.4252 12.13V12.59C78.4252 12.9567 78.5085 13.27 78.6752 13.53C78.8418 13.79 79.0618 13.99 79.3352 14.13C79.6085 14.27 79.9018 14.34 80.2152 14.34ZM84.5597 15V7.7H85.5197V15H84.5597ZM83.8197 8.46V7.7H85.5197V8.46H83.8197ZM89.921 15.18C89.4543 15.18 89.0443 15.1 88.691 14.94C88.3377 14.78 88.0377 14.57 87.791 14.31C87.551 14.0433 87.3677 13.7467 87.241 13.42C87.121 13.0933 87.061 12.76 87.061 12.42V12.24C87.061 11.9 87.1243 11.5667 87.251 11.24C87.3777 10.9067 87.5643 10.61 87.811 10.35C88.0577 10.0833 88.3577 9.87333 88.711 9.72C89.0643 9.56 89.4677 9.48 89.921 9.48C90.3743 9.48 90.7777 9.56 91.131 9.72C91.4843 9.87333 91.7843 10.0833 92.031 10.35C92.2777 10.61 92.4643 10.9067 92.591 11.24C92.7177 11.5667 92.781 11.9 92.781 12.24V12.42C92.781 12.76 92.7177 13.0933 92.591 13.42C92.471 13.7467 92.2877 14.0433 92.041 14.31C91.801 14.57 91.5043 14.78 91.151 14.94C90.7977 15.1 90.3877 15.18 89.921 15.18ZM89.921 14.32C90.321 14.32 90.661 14.2333 90.941 14.06C91.2277 13.88 91.4443 13.64 91.591 13.34C91.7443 13.04 91.821 12.7033 91.821 12.33C91.821 11.95 91.7443 11.61 91.591 11.31C91.4377 11.01 91.2177 10.7733 90.931 10.6C90.651 10.4267 90.3143 10.34 89.921 10.34C89.5343 10.34 89.1977 10.4267 88.911 10.6C88.6243 10.7733 88.4043 11.01 88.251 11.31C88.0977 11.61 88.021 11.95 88.021 12.33C88.021 12.7033 88.0943 13.04 88.241 13.34C88.3943 13.64 88.611 13.88 88.891 14.06C89.1777 14.2333 89.521 14.32 89.921 14.32ZM94.3188 15V9.66H95.0788V11.86H95.0388C95.0388 11.08 95.2088 10.51 95.5488 10.15C95.8955 9.78333 96.4122 9.6 97.0988 9.6H97.2788V10.46H96.9388C96.4055 10.46 95.9955 10.6033 95.7088 10.89C95.4222 11.17 95.2788 11.5767 95.2788 12.11V15H94.3188ZM100.732 15.18C100.265 15.18 99.8618 15.1 99.5218 14.94C99.1818 14.78 98.9051 14.57 98.6918 14.31C98.4785 14.0433 98.3185 13.7467 98.2118 13.42C98.1118 13.0933 98.0618 12.76 98.0618 12.42V12.24C98.0618 11.8933 98.1118 11.5567 98.2118 11.23C98.3185 10.9033 98.4785 10.61 98.6918 10.35C98.9051 10.0833 99.1751 9.87333 99.5018 9.72C99.8351 9.56 100.225 9.48 100.672 9.48C101.252 9.48 101.728 9.60667 102.102 9.86C102.482 10.1067 102.762 10.4267 102.942 10.82C103.128 11.2133 103.222 11.6333 103.222 12.08V12.51H98.4818V11.79H102.522L102.302 12.18C102.302 11.8 102.242 11.4733 102.122 11.2C102.002 10.92 101.822 10.7033 101.582 10.55C101.342 10.3967 101.038 10.32 100.672 10.32C100.292 10.32 99.9751 10.4067 99.7218 10.58C99.4751 10.7533 99.2885 10.99 99.1618 11.29C99.0418 11.59 98.9818 11.9367 98.9818 12.33C98.9818 12.71 99.0418 13.0533 99.1618 13.36C99.2885 13.66 99.4818 13.9 99.7418 14.08C100.002 14.2533 100.332 14.34 100.732 14.34C101.152 14.34 101.492 14.2467 101.752 14.06C102.018 13.8733 102.178 13.6567 102.232 13.41H103.132C103.058 13.7767 102.912 14.0933 102.692 14.36C102.472 14.6267 102.195 14.83 101.862 14.97C101.528 15.11 101.152 15.18 100.732 15.18ZM104.685 15V9.66H105.445V11.86H105.405C105.405 11.08 105.575 10.51 105.915 10.15C106.262 9.78333 106.778 9.6 107.465 9.6H107.645V10.46H107.305C106.772 10.46 106.362 10.6033 106.075 10.89C105.788 11.17 105.645 11.5767 105.645 12.11V15H104.685ZM113.552 15.18C113.092 15.18 112.692 15.1 112.352 14.94C112.018 14.78 111.742 14.5667 111.522 14.3C111.302 14.0267 111.135 13.7267 111.022 13.4C110.915 13.0733 110.862 12.7467 110.862 12.42V12.24C110.862 11.9 110.915 11.5667 111.022 11.24C111.135 10.9133 111.302 10.62 111.522 10.36C111.748 10.0933 112.028 9.88 112.362 9.72C112.695 9.56 113.085 9.48 113.532 9.48C113.978 9.48 114.378 9.56333 114.732 9.73C115.092 9.89667 115.378 10.1333 115.592 10.44C115.812 10.74 115.935 11.0967 115.962 11.51H115.042C114.995 11.1767 114.842 10.9 114.582 10.68C114.322 10.4533 113.972 10.34 113.532 10.34C113.152 10.34 112.835 10.4267 112.582 10.6C112.328 10.7733 112.138 11.01 112.012 11.31C111.885 11.61 111.822 11.95 111.822 12.33C111.822 12.6967 111.885 13.0333 112.012 13.34C112.138 13.64 112.328 13.88 112.582 14.06C112.842 14.2333 113.165 14.32 113.552 14.32C113.852 14.32 114.112 14.2667 114.332 14.16C114.552 14.0533 114.728 13.91 114.862 13.73C114.995 13.55 115.075 13.3467 115.102 13.12H116.022C116.002 13.54 115.878 13.9033 115.652 14.21C115.432 14.5167 115.138 14.7567 114.772 14.93C114.412 15.0967 114.005 15.18 113.552 15.18ZM119.886 15.18C119.42 15.18 119.01 15.1 118.656 14.94C118.303 14.78 118.003 14.57 117.756 14.31C117.516 14.0433 117.333 13.7467 117.206 13.42C117.086 13.0933 117.026 12.76 117.026 12.42V12.24C117.026 11.9 117.09 11.5667 117.216 11.24C117.343 10.9067 117.53 10.61 117.776 10.35C118.023 10.0833 118.323 9.87333 118.676 9.72C119.03 9.56 119.433 9.48 119.886 9.48C120.34 9.48 120.743 9.56 121.096 9.72C121.45 9.87333 121.75 10.0833 121.996 10.35C122.243 10.61 122.43 10.9067 122.556 11.24C122.683 11.5667 122.746 11.9 122.746 12.24V12.42C122.746 12.76 122.683 13.0933 122.556 13.42C122.436 13.7467 122.253 14.0433 122.006 14.31C121.766 14.57 121.47 14.78 121.116 14.94C120.763 15.1 120.353 15.18 119.886 15.18ZM119.886 14.32C120.286 14.32 120.626 14.2333 120.906 14.06C121.193 13.88 121.41 13.64 121.556 13.34C121.71 13.04 121.786 12.7033 121.786 12.33C121.786 11.95 121.71 11.61 121.556 11.31C121.403 11.01 121.183 10.7733 120.896 10.6C120.616 10.4267 120.28 10.34 119.886 10.34C119.5 10.34 119.163 10.4267 118.876 10.6C118.59 10.7733 118.37 11.01 118.216 11.31C118.063 11.61 117.986 11.95 117.986 12.33C117.986 12.7033 118.06 13.04 118.206 13.34C118.36 13.64 118.576 13.88 118.856 14.06C119.143 14.2333 119.486 14.32 119.886 14.32ZM124.284 15V9.66H125.044V11.95H124.924C124.924 11.43 124.991 10.99 125.124 10.63C125.264 10.2633 125.471 9.98333 125.744 9.79C126.017 9.59667 126.364 9.5 126.784 9.5H126.824C127.244 9.5 127.591 9.59667 127.864 9.79C128.144 9.98333 128.351 10.2633 128.484 10.63C128.617 10.99 128.684 11.43 128.684 11.95H128.404C128.404 11.43 128.474 10.99 128.614 10.63C128.754 10.2633 128.961 9.98333 129.234 9.79C129.514 9.59667 129.864 9.5 130.284 9.5H130.324C130.744 9.5 131.094 9.59667 131.374 9.79C131.654 9.98333 131.861 10.2633 131.994 10.63C132.134 10.99 132.204 11.43 132.204 11.95V15H131.244V11.74C131.244 11.3067 131.137 10.9733 130.924 10.74C130.711 10.5 130.414 10.38 130.034 10.38C129.641 10.38 129.324 10.5067 129.084 10.76C128.844 11.0067 128.724 11.3533 128.724 11.8V15H127.764V11.74C127.764 11.3067 127.657 10.9733 127.444 10.74C127.231 10.5 126.934 10.38 126.554 10.38C126.161 10.38 125.844 10.5067 125.604 10.76C125.364 11.0067 125.244 11.3533 125.244 11.8V15H124.284ZM134.322 15V9.66H135.282V15H134.322ZM133.502 10.42V9.66H135.282V10.42H133.502ZM134.592 8.8C134.378 8.8 134.218 8.74333 134.112 8.63C134.012 8.51667 133.962 8.37333 133.962 8.2C133.962 8.02667 134.012 7.88333 134.112 7.77C134.218 7.65667 134.378 7.6 134.592 7.6C134.805 7.6 134.962 7.65667 135.062 7.77C135.168 7.88333 135.222 8.02667 135.222 8.2C135.222 8.37333 135.168 8.51667 135.062 8.63C134.962 8.74333 134.805 8.8 134.592 8.8ZM137.238 15V9.66H137.998V11.95H137.878C137.878 11.4233 137.948 10.98 138.088 10.62C138.235 10.2533 138.455 9.97667 138.748 9.79C139.041 9.59667 139.411 9.5 139.858 9.5H139.898C140.571 9.5 141.068 9.71 141.388 10.13C141.715 10.55 141.878 11.1567 141.878 11.95V15H140.918V11.75C140.918 11.3367 140.801 11.0067 140.568 10.76C140.335 10.5067 140.015 10.38 139.608 10.38C139.188 10.38 138.848 10.51 138.588 10.77C138.328 11.03 138.198 11.3767 138.198 11.81V15H137.238ZM145.754 17.08C145.508 17.08 145.258 17.07 145.004 17.05C144.758 17.03 144.521 17.0033 144.294 16.97V16.16C144.534 16.1933 144.784 16.22 145.044 16.24C145.311 16.2667 145.561 16.28 145.794 16.28C146.281 16.28 146.668 16.2133 146.954 16.08C147.248 15.9533 147.458 15.75 147.584 15.47C147.718 15.1967 147.784 14.8433 147.784 14.41V13.39L148.104 12.63C148.084 13.17 147.971 13.62 147.764 13.98C147.558 14.3333 147.288 14.6 146.954 14.78C146.628 14.9533 146.264 15.04 145.864 15.04C145.491 15.04 145.148 14.97 144.834 14.83C144.528 14.6833 144.261 14.4833 144.034 14.23C143.814 13.9767 143.641 13.6867 143.514 13.36C143.394 13.0267 143.334 12.6767 143.334 12.31V12.13C143.334 11.7567 143.398 11.41 143.524 11.09C143.651 10.7633 143.828 10.48 144.054 10.24C144.281 10 144.551 9.81333 144.864 9.68C145.184 9.54667 145.534 9.48 145.914 9.48C146.361 9.48 146.754 9.57667 147.094 9.77C147.434 9.95667 147.701 10.2333 147.894 10.6C148.094 10.96 148.204 11.4033 148.224 11.93L147.944 11.94V9.66H148.704V14.37C148.704 15.01 148.604 15.5267 148.404 15.92C148.211 16.32 147.898 16.6133 147.464 16.8C147.038 16.9867 146.468 17.08 145.754 17.08ZM146.044 14.16C146.364 14.16 146.654 14.09 146.914 13.95C147.181 13.81 147.391 13.61 147.544 13.35C147.704 13.0833 147.784 12.7667 147.784 12.4V11.94C147.784 11.58 147.701 11.2767 147.534 11.03C147.374 10.7833 147.164 10.5967 146.904 10.47C146.644 10.3433 146.361 10.28 146.054 10.28C145.708 10.28 145.401 10.36 145.134 10.52C144.868 10.68 144.661 10.9067 144.514 11.2C144.368 11.4867 144.294 11.8267 144.294 12.22C144.294 12.6133 144.368 12.9567 144.514 13.25C144.668 13.5433 144.874 13.77 145.134 13.93C145.401 14.0833 145.704 14.16 146.044 14.16ZM154.708 15.16C154.008 15.16 153.465 15.01 153.078 14.71C152.698 14.41 152.501 14 152.488 13.48H153.388C153.401 13.6867 153.505 13.8833 153.698 14.07C153.898 14.25 154.235 14.34 154.708 14.34C155.135 14.34 155.461 14.2567 155.688 14.09C155.915 13.9167 156.028 13.7067 156.028 13.46C156.028 13.24 155.945 13.07 155.778 12.95C155.611 12.8233 155.341 12.74 154.968 12.7L154.388 12.64C153.881 12.5867 153.468 12.4367 153.148 12.19C152.828 11.9367 152.668 11.5833 152.668 11.13C152.668 10.79 152.755 10.5 152.928 10.26C153.101 10.0133 153.341 9.82667 153.648 9.7C153.955 9.56667 154.308 9.5 154.708 9.5C155.308 9.5 155.795 9.63333 156.168 9.9C156.541 10.1667 156.735 10.5633 156.748 11.09H155.848C155.841 10.8767 155.741 10.6967 155.548 10.55C155.361 10.3967 155.081 10.32 154.708 10.32C154.335 10.32 154.051 10.3967 153.858 10.55C153.665 10.7033 153.568 10.8967 153.568 11.13C153.568 11.33 153.635 11.49 153.768 11.61C153.908 11.73 154.135 11.8067 154.448 11.84L155.028 11.9C155.601 11.96 156.061 12.12 156.408 12.38C156.755 12.6333 156.928 12.9933 156.928 13.46C156.928 13.7933 156.831 14.09 156.638 14.35C156.451 14.6033 156.191 14.8033 155.858 14.95C155.525 15.09 155.141 15.16 154.708 15.16ZM160.879 15.18C160.413 15.18 160.003 15.1 159.649 14.94C159.296 14.78 158.996 14.57 158.749 14.31C158.509 14.0433 158.326 13.7467 158.199 13.42C158.079 13.0933 158.019 12.76 158.019 12.42V12.24C158.019 11.9 158.083 11.5667 158.209 11.24C158.336 10.9067 158.523 10.61 158.769 10.35C159.016 10.0833 159.316 9.87333 159.669 9.72C160.023 9.56 160.426 9.48 160.879 9.48C161.333 9.48 161.736 9.56 162.089 9.72C162.443 9.87333 162.743 10.0833 162.989 10.35C163.236 10.61 163.423 10.9067 163.549 11.24C163.676 11.5667 163.739 11.9 163.739 12.24V12.42C163.739 12.76 163.676 13.0933 163.549 13.42C163.429 13.7467 163.246 14.0433 162.999 14.31C162.759 14.57 162.463 14.78 162.109 14.94C161.756 15.1 161.346 15.18 160.879 15.18ZM160.879 14.32C161.279 14.32 161.619 14.2333 161.899 14.06C162.186 13.88 162.403 13.64 162.549 13.34C162.703 13.04 162.779 12.7033 162.779 12.33C162.779 11.95 162.703 11.61 162.549 11.31C162.396 11.01 162.176 10.7733 161.889 10.6C161.609 10.4267 161.273 10.34 160.879 10.34C160.493 10.34 160.156 10.4267 159.869 10.6C159.583 10.7733 159.363 11.01 159.209 11.31C159.056 11.61 158.979 11.95 158.979 12.33C158.979 12.7033 159.053 13.04 159.199 13.34C159.353 13.64 159.569 13.88 159.849 14.06C160.136 14.2333 160.479 14.32 160.879 14.32ZM167.737 15.18C167.27 15.18 166.86 15.1 166.507 14.94C166.154 14.78 165.854 14.57 165.607 14.31C165.367 14.0433 165.184 13.7467 165.057 13.42C164.937 13.0933 164.877 12.76 164.877 12.42V12.24C164.877 11.9 164.94 11.5667 165.067 11.24C165.194 10.9067 165.38 10.61 165.627 10.35C165.874 10.0833 166.174 9.87333 166.527 9.72C166.88 9.56 167.284 9.48 167.737 9.48C168.19 9.48 168.594 9.56 168.947 9.72C169.3 9.87333 169.6 10.0833 169.847 10.35C170.094 10.61 170.28 10.9067 170.407 11.24C170.534 11.5667 170.597 11.9 170.597 12.24V12.42C170.597 12.76 170.534 13.0933 170.407 13.42C170.287 13.7467 170.104 14.0433 169.857 14.31C169.617 14.57 169.32 14.78 168.967 14.94C168.614 15.1 168.204 15.18 167.737 15.18ZM167.737 14.32C168.137 14.32 168.477 14.2333 168.757 14.06C169.044 13.88 169.26 13.64 169.407 13.34C169.56 13.04 169.637 12.7033 169.637 12.33C169.637 11.95 169.56 11.61 169.407 11.31C169.254 11.01 169.034 10.7733 168.747 10.6C168.467 10.4267 168.13 10.34 167.737 10.34C167.35 10.34 167.014 10.4267 166.727 10.6C166.44 10.7733 166.22 11.01 166.067 11.31C165.914 11.61 165.837 11.95 165.837 12.33C165.837 12.7033 165.91 13.04 166.057 13.34C166.21 13.64 166.427 13.88 166.707 14.06C166.994 14.2333 167.337 14.32 167.737 14.32ZM172.135 15V9.66H172.895V11.95H172.775C172.775 11.4233 172.845 10.98 172.985 10.62C173.132 10.2533 173.352 9.97667 173.645 9.79C173.938 9.59667 174.308 9.5 174.755 9.5H174.795C175.468 9.5 175.965 9.71 176.285 10.13C176.612 10.55 176.775 11.1567 176.775 11.95V15H175.815V11.75C175.815 11.3367 175.698 11.0067 175.465 10.76C175.232 10.5067 174.912 10.38 174.505 10.38C174.085 10.38 173.745 10.51 173.485 10.77C173.225 11.03 173.095 11.3767 173.095 11.81V15H172.135Z" fill="black" fill-opacity="0.2"/>
<defs>
<clipPath id="clip0_4224_23320">
<rect width="19" height="18" fill="white" transform="translate(8.5 3)"/>
</clipPath>
</defs>
</svg>
