<svg viewBox="0 0 29 22" fill="none" xmlns="http://www.w3.org/2000/svg">
<path d="M14.4999 18.7225C6.63288 18.7225 0.431815 11.5541 0.154156 11.2214C-0.0618019 10.9795 -0.0618019 10.6165 0.154156 10.3443C0.400964 10.0418 6.63288 2.84326 14.4999 2.84326C22.3669 2.84326 28.568 10.0116 28.8456 10.3443C29.0616 10.5863 29.0616 10.9492 28.8456 11.2214C28.568 11.5239 22.3361 18.7225 14.4999 18.7225ZM1.60416 10.798C3.08501 12.3103 8.36054 17.3614 14.4999 17.3614C20.6393 17.3614 25.9148 12.3103 27.3648 10.798C25.9148 9.25544 20.6393 4.23458 14.4999 4.23458C8.36054 4.23458 3.08501 9.25544 1.60416 10.798Z" fill="#171753"/>
<path d="M14.4997 17.9663C10.4582 17.9663 7.18799 14.7602 7.18799 10.7979C7.18799 6.8357 10.4582 3.59937 14.4997 3.59937C18.5412 3.59937 21.8114 6.8357 21.8114 10.7677C21.8114 14.6997 18.5412 17.9663 14.4997 17.9663ZM14.4997 4.96044C11.2295 4.96044 8.54544 7.56161 8.54544 10.7979C8.54544 14.004 11.1986 16.6354 14.4997 16.6354C17.7699 16.6354 20.4539 14.0343 20.4539 10.7979C20.4231 7.59186 17.7699 4.96044 14.4997 4.96044Z" fill="#171753"/>
<path d="M4.16475 21.5958C3.97965 21.5958 3.82539 21.5353 3.67114 21.384C3.39348 21.1118 3.39348 20.6884 3.67114 20.4162L24.3105 0.21173C24.5882 -0.0604855 25.0201 -0.0604855 25.2977 0.21173C25.5754 0.483945 25.5754 0.907391 25.2977 1.17961L4.65837 21.384C4.53497 21.505 4.34986 21.5958 4.16475 21.5958Z" fill="#171753"/>
</svg>
