<svg viewBox="0 0 29 18" fill="none" xmlns="http://www.w3.org/2000/svg">
<path d="M14.4994 17.6338C6.63239 17.6338 0.431327 10.0846 0.153667 9.73427C-0.0622901 9.47944 -0.0622901 9.09721 0.153667 8.81053C0.431327 8.492 6.63239 0.942871 14.4994 0.942871C22.3664 0.942871 28.5675 8.492 28.8452 8.84238C29.0611 9.09721 29.0611 9.47944 28.8452 9.76612C28.5675 10.0528 22.3356 17.6338 14.4994 17.6338ZM1.60367 9.28833C3.08452 10.881 8.36005 16.2004 14.4994 16.2004C20.6388 16.2004 25.9143 10.881 27.3643 9.28833C25.9143 7.66383 20.6388 2.37625 14.4994 2.37625C8.36005 2.37625 3.08452 7.66383 1.60367 9.28833Z" fill="#373765"/>
<path d="M14.4997 16.8374C10.4582 16.8374 7.18799 13.461 7.18799 9.28826C7.18799 5.11553 10.4582 1.70728 14.4997 1.70728C18.5412 1.70728 21.8114 5.11553 21.8114 9.25641C21.8114 13.3973 18.5412 16.8374 14.4997 16.8374ZM14.4997 3.14066C11.2295 3.14066 8.54544 5.88 8.54544 9.28826C8.54544 12.6647 11.1986 15.4359 14.4997 15.4359C17.7699 15.4359 20.454 12.6965 20.454 9.28826C20.4231 5.91186 17.7699 3.14066 14.4997 3.14066Z" fill="#373765"/>
<path d="M14.5001 10.69C14.315 10.69 14.1299 10.6581 13.9756 10.5944C13.8214 10.4988 13.6363 10.4033 13.5437 10.2759C13.4203 10.1485 13.2969 9.9892 13.2352 9.79808C13.1427 9.63881 13.1118 9.4477 13.1118 9.25658C13.1118 8.87435 13.2352 8.52396 13.5129 8.26914C13.6363 8.14173 13.7905 8.04617 13.9448 7.95061C14.4384 7.75949 15.0554 7.85505 15.4256 8.26914C15.5491 8.39655 15.6725 8.55582 15.7342 8.71508C15.8267 8.87435 15.8576 9.09732 15.8576 9.25658C15.8576 9.63881 15.7033 9.9892 15.4565 10.2759C15.2097 10.5625 14.8395 10.69 14.5001 10.69Z" fill="#373765"/>
</svg>
