<svg width="25" height="25" viewBox="0 0 25 25" fill="none" xmlns="http://www.w3.org/2000/svg">
<path d="M13.4459 7.06538L14.9114 10.0545C14.9859 10.2039 15.135 10.3036 15.284 10.3285L18.5629 10.8018C18.9603 10.8516 19.1342 11.3747 18.8361 11.6487L16.4515 13.9652C16.3273 14.0897 16.2776 14.2392 16.3024 14.4136L16.8738 17.7016C16.9483 18.1001 16.526 18.4239 16.1534 18.2247L13.2223 16.6803C13.0733 16.6056 12.8994 16.6056 12.7504 16.6803L9.81923 18.2247C9.44663 18.4239 9.02436 18.1001 9.09888 17.7016L9.6702 14.4136C9.69504 14.2641 9.64536 14.0897 9.52116 13.9652L7.13652 11.6487C6.83844 11.3497 7.01233 10.8516 7.40977 10.8018L10.6886 10.3285C10.8625 10.3036 10.9867 10.2039 11.0612 10.0545L12.5268 7.06538C12.7255 6.69175 13.272 6.69175 13.4459 7.06538Z" fill="#4E4E8D"/>
<path d="M13.4459 7.06538L14.9114 10.0545C14.9859 10.2039 15.135 10.3036 15.284 10.3285L18.5629 10.8018C18.9603 10.8516 19.1342 11.3747 18.8361 11.6487L16.4515 13.9652C16.3273 14.0897 16.2776 14.2392 16.3024 14.4136L16.8738 17.7016C16.9483 18.1001 16.526 18.4239 16.1534 18.2247L13.2223 16.6803C13.0733 16.6056 12.8994 16.6056 12.7504 16.6803L9.81923 18.2247C9.44663 18.4239 9.02436 18.1001 9.09888 17.7016L9.6702 14.4136C9.69504 14.2641 9.64536 14.0897 9.52116 13.9652L7.13652 11.6487C6.83844 11.3497 7.01233 10.8516 7.40977 10.8018L10.6886 10.3285C10.8625 10.3036 10.9867 10.2039 11.0612 10.0545L12.5268 7.06538C12.7255 6.69175 13.272 6.69175 13.4459 7.06538Z" fill="black" fill-opacity="0.2"/>
<path fill-rule="evenodd" clip-rule="evenodd" d="M12.9702 7.29692L11.5088 10.2777C11.3677 10.5606 11.1105 10.7731 10.7599 10.8234M7.49044 11.2954L7.4893 11.2943C7.48805 11.2929 7.48723 11.2919 7.48673 11.2912C7.4868 11.2909 7.48671 11.2901 7.48688 11.2896C7.48718 11.2887 7.48743 11.2883 7.48745 11.2883C7.48747 11.2883 7.4871 11.2889 7.48596 11.2901L7.48148 11.2937C7.48168 11.2936 7.48129 11.2938 7.48148 11.2937C7.48022 11.2945 7.47827 11.2956 7.47678 11.2963C7.47418 11.2975 7.47241 11.2979 7.47204 11.2979C7.47195 11.2979 7.47195 11.298 7.47204 11.2979L7.47814 11.2971L7.13661 11.6487L7.49044 11.2954C7.49054 11.2955 7.49035 11.2953 7.49044 11.2954ZM7.49044 11.2954L7.4893 11.2943L7.48673 11.2912C7.48669 11.2914 7.48675 11.2911 7.48673 11.2912L7.48596 11.2901C7.48569 11.2903 7.48491 11.2911 7.48456 11.2914C7.48367 11.2922 7.48264 11.2929 7.48148 11.2937L7.47814 11.2971L7.49044 11.2954ZM12.9702 7.29692C12.9717 7.29465 12.9729 7.29337 12.9735 7.29267C12.9746 7.2916 12.9758 7.2906 12.9776 7.28961C12.9816 7.28733 12.9882 7.28523 12.9957 7.28523C12.9961 7.28523 12.9965 7.28523 12.9968 7.28524L14.4626 10.2747L14.464 10.2777C14.615 10.5805 14.9063 10.7723 15.2017 10.8217L18.4824 11.2954L16.1032 13.6066L16.0975 13.6122C15.8623 13.8481 15.7606 14.1545 15.8075 14.4842L15.8099 14.4992L16.3798 17.7788L13.4555 16.238L13.4465 16.2334C13.1564 16.088 12.8164 16.088 12.5263 16.2334L9.59305 17.7788M9.5886 17.7857C9.58983 17.7866 9.59043 17.7862 9.5886 17.7857C9.58771 17.7838 9.5869 17.7845 9.5886 17.7857ZM13.8968 6.84922C13.5297 6.07111 12.4583 6.12961 12.0854 6.83067L12.0779 6.84534L10.6134 9.83237C10.613 9.83308 10.6127 9.83375 10.6123 9.83439L7.34233 10.3064C6.52124 10.4135 6.20306 11.4207 6.78256 12.0018L9.1682 14.3194C9.17103 14.3225 9.17366 14.3269 9.17532 14.3321C9.17582 14.3337 9.17612 14.335 9.17629 14.336L8.60681 17.6134C8.46013 18.4136 9.30498 19.0653 10.0536 18.6665C10.0541 18.6662 10.0546 18.6659 10.0551 18.6656L12.9764 17.1265C12.9802 17.1249 12.9835 17.1243 12.9864 17.1243C12.9893 17.1243 12.9927 17.1249 12.9965 17.1265L15.9177 18.6656C15.9182 18.6659 15.9187 18.6662 15.9192 18.6664C16.6678 19.0653 17.5127 18.4137 17.366 17.6135L16.7969 14.3382C16.7965 14.334 16.7963 14.3309 16.7963 14.3288C16.7978 14.3269 16.8001 14.324 16.8038 14.3202L19.1805 12.0114C19.7897 11.4427 19.4344 10.4116 18.6306 10.3064L15.3674 9.83539C15.3675 9.83541 15.3674 9.83537 15.3674 9.83539C15.3656 9.83464 15.3632 9.83336 15.361 9.83176C15.3595 9.83066 15.3585 9.82977 15.3579 9.82919L13.8968 6.84922Z" fill="#4E4E8D"/>
<path fill-rule="evenodd" clip-rule="evenodd" d="M12.9702 7.29692L11.5088 10.2777C11.3677 10.5606 11.1105 10.7731 10.7599 10.8234M7.49044 11.2954L7.4893 11.2943C7.48805 11.2929 7.48723 11.2919 7.48673 11.2912C7.4868 11.2909 7.48671 11.2901 7.48688 11.2896C7.48718 11.2887 7.48743 11.2883 7.48745 11.2883C7.48747 11.2883 7.4871 11.2889 7.48596 11.2901L7.48148 11.2937C7.48168 11.2936 7.48129 11.2938 7.48148 11.2937C7.48022 11.2945 7.47827 11.2956 7.47678 11.2963C7.47418 11.2975 7.47241 11.2979 7.47204 11.2979C7.47195 11.2979 7.47195 11.298 7.47204 11.2979L7.47814 11.2971L7.13661 11.6487L7.49044 11.2954C7.49054 11.2955 7.49035 11.2953 7.49044 11.2954ZM7.49044 11.2954L7.4893 11.2943L7.48673 11.2912C7.48669 11.2914 7.48675 11.2911 7.48673 11.2912L7.48596 11.2901C7.48569 11.2903 7.48491 11.2911 7.48456 11.2914C7.48367 11.2922 7.48264 11.2929 7.48148 11.2937L7.47814 11.2971L7.49044 11.2954ZM12.9702 7.29692C12.9717 7.29465 12.9729 7.29337 12.9735 7.29267C12.9746 7.2916 12.9758 7.2906 12.9776 7.28961C12.9816 7.28733 12.9882 7.28523 12.9957 7.28523C12.9961 7.28523 12.9965 7.28523 12.9968 7.28524L14.4626 10.2747L14.464 10.2777C14.615 10.5805 14.9063 10.7723 15.2017 10.8217L18.4824 11.2954L16.1032 13.6066L16.0975 13.6122C15.8623 13.8481 15.7606 14.1545 15.8075 14.4842L15.8099 14.4992L16.3798 17.7788L13.4555 16.238L13.4465 16.2334C13.1564 16.088 12.8164 16.088 12.5263 16.2334L9.59305 17.7788M9.5886 17.7857C9.58983 17.7866 9.59043 17.7862 9.5886 17.7857C9.58771 17.7838 9.5869 17.7845 9.5886 17.7857ZM13.8968 6.84922C13.5297 6.07111 12.4583 6.12961 12.0854 6.83067L12.0779 6.84534L10.6134 9.83237C10.613 9.83308 10.6127 9.83375 10.6123 9.83439L7.34233 10.3064C6.52124 10.4135 6.20306 11.4207 6.78256 12.0018L9.1682 14.3194C9.17103 14.3225 9.17366 14.3269 9.17532 14.3321C9.17582 14.3337 9.17612 14.335 9.17629 14.336L8.60681 17.6134C8.46013 18.4136 9.30498 19.0653 10.0536 18.6665C10.0541 18.6662 10.0546 18.6659 10.0551 18.6656L12.9764 17.1265C12.9802 17.1249 12.9835 17.1243 12.9864 17.1243C12.9893 17.1243 12.9927 17.1249 12.9965 17.1265L15.9177 18.6656C15.9182 18.6659 15.9187 18.6662 15.9192 18.6664C16.6678 19.0653 17.5127 18.4137 17.366 17.6135L16.7969 14.3382C16.7965 14.334 16.7963 14.3309 16.7963 14.3288C16.7978 14.3269 16.8001 14.324 16.8038 14.3202L19.1805 12.0114C19.7897 11.4427 19.4344 10.4116 18.6306 10.3064L15.3674 9.83539C15.3675 9.83541 15.3674 9.83537 15.3674 9.83539C15.3656 9.83464 15.3632 9.83336 15.361 9.83176C15.3595 9.83066 15.3585 9.82977 15.3579 9.82919L13.8968 6.84922Z" fill="black" fill-opacity="0.2"/>
</svg>
