<svg width="25" height="25" viewBox="0 0 25 25" fill="none" xmlns="http://www.w3.org/2000/svg">
<path fill-rule="evenodd" clip-rule="evenodd" d="M12.8187 7.52098L11.3207 10.5762C11.1981 10.8221 10.9783 11.0027 10.6773 11.0458L7.31166 11.5316L7.30525 11.5325C7.19407 11.5464 7.11755 11.7016 7.2255 11.812L9.67109 14.1877L9.675 14.1916C9.88164 14.3988 9.96819 14.6901 9.92444 14.9533L9.92403 14.9558L9.3375 18.3312L9.33672 18.3356C9.31255 18.4648 9.45135 18.568 9.57226 18.5034L9.57415 18.5023L12.5832 16.9169L12.5894 16.9137C12.8401 16.788 13.1337 16.788 13.3845 16.9137L13.3907 16.9169L16.3997 18.5023L16.4016 18.5034C16.5225 18.568 16.6613 18.4648 16.6371 18.3356L16.6363 18.3312L16.0498 14.9558C16.0492 14.9523 16.0487 14.9489 16.0482 14.9454C16.0073 14.6587 16.0944 14.3966 16.2989 14.1916L16.3028 14.1877L18.7508 11.8096C18.7531 11.8074 18.7554 11.8052 18.7577 11.803C18.7952 11.7685 18.8126 11.7128 18.7903 11.6446C18.7677 11.5754 18.7189 11.5388 18.6686 11.5325L18.6622 11.5316L15.2962 11.0457C15.2936 11.0454 15.2911 11.045 15.2886 11.0446C15.0341 11.002 14.7826 10.8359 14.6531 10.5761L14.6521 10.5741L13.1476 7.50554L13.1445 7.4992C13.117 7.44008 13.0682 7.41181 13.006 7.41181C12.9437 7.41181 12.8698 7.4427 12.8187 7.52098ZM13.7711 7.20331C13.4527 6.5258 12.5629 6.59845 12.2179 7.17512C12.2129 7.18338 12.2083 7.19184 12.2041 7.20049L10.7002 10.2678C10.6699 10.3281 10.6347 10.3519 10.579 10.3599L7.2155 10.8454C6.51381 10.9361 6.2353 11.8003 6.73632 12.3027L6.74023 12.3066L9.18579 14.6823C9.23271 14.7304 9.24787 14.7956 9.24102 14.8389C9.24097 14.8391 9.24093 14.8394 9.24088 14.8397L8.65513 18.2107C8.52854 18.8982 9.25494 19.4579 9.89801 19.115C9.89836 19.1148 9.89871 19.1146 9.89905 19.1144L12.9023 17.532C12.9563 17.5059 13.0176 17.5059 13.0715 17.532L16.0748 19.1144C16.0751 19.1146 16.0754 19.1147 16.0757 19.1149C16.7188 19.4579 17.4453 18.8982 17.3187 18.2106L16.7336 14.8433C16.7247 14.7752 16.7397 14.7315 16.7879 14.6825L19.2306 12.3095C19.7524 11.824 19.4482 10.9348 18.7584 10.8454L15.4001 10.3606C15.3496 10.3512 15.2969 10.3136 15.2736 10.2676C15.2735 10.2674 15.2734 10.2672 15.2732 10.2669L13.7711 7.20331Z" fill="#4E4E8D"/>
<path fill-rule="evenodd" clip-rule="evenodd" d="M12.8187 7.52098L11.3207 10.5762C11.1981 10.8221 10.9783 11.0027 10.6773 11.0458L7.31166 11.5316L7.30525 11.5325C7.19407 11.5464 7.11755 11.7016 7.2255 11.812L9.67109 14.1877L9.675 14.1916C9.88164 14.3988 9.96819 14.6901 9.92444 14.9533L9.92403 14.9558L9.3375 18.3312L9.33672 18.3356C9.31255 18.4648 9.45135 18.568 9.57226 18.5034L9.57415 18.5023L12.5832 16.9169L12.5894 16.9137C12.8401 16.788 13.1337 16.788 13.3845 16.9137L13.3907 16.9169L16.3997 18.5023L16.4016 18.5034C16.5225 18.568 16.6613 18.4648 16.6371 18.3356L16.6363 18.3312L16.0498 14.9558C16.0492 14.9523 16.0487 14.9489 16.0482 14.9454C16.0073 14.6587 16.0944 14.3966 16.2989 14.1916L16.3028 14.1877L18.7508 11.8096C18.7531 11.8074 18.7554 11.8052 18.7577 11.803C18.7952 11.7685 18.8126 11.7128 18.7903 11.6446C18.7677 11.5754 18.7189 11.5388 18.6686 11.5325L18.6622 11.5316L15.2962 11.0457C15.2936 11.0454 15.2911 11.045 15.2886 11.0446C15.0341 11.002 14.7826 10.8359 14.6531 10.5761L14.6521 10.5741L13.1476 7.50554L13.1445 7.4992C13.117 7.44008 13.0682 7.41181 13.006 7.41181C12.9437 7.41181 12.8698 7.4427 12.8187 7.52098ZM13.7711 7.20331C13.4527 6.5258 12.5629 6.59845 12.2179 7.17512C12.2129 7.18338 12.2083 7.19184 12.2041 7.20049L10.7002 10.2678C10.6699 10.3281 10.6347 10.3519 10.579 10.3599L7.2155 10.8454C6.51381 10.9361 6.2353 11.8003 6.73632 12.3027L6.74023 12.3066L9.18579 14.6823C9.23271 14.7304 9.24787 14.7956 9.24102 14.8389C9.24097 14.8391 9.24093 14.8394 9.24088 14.8397L8.65513 18.2107C8.52854 18.8982 9.25494 19.4579 9.89801 19.115C9.89836 19.1148 9.89871 19.1146 9.89905 19.1144L12.9023 17.532C12.9563 17.5059 13.0176 17.5059 13.0715 17.532L16.0748 19.1144C16.0751 19.1146 16.0754 19.1147 16.0757 19.1149C16.7188 19.4579 17.4453 18.8982 17.3187 18.2106L16.7336 14.8433C16.7247 14.7752 16.7397 14.7315 16.7879 14.6825L19.2306 12.3095C19.7524 11.824 19.4482 10.9348 18.7584 10.8454L15.4001 10.3606C15.3496 10.3512 15.2969 10.3136 15.2736 10.2676C15.2735 10.2674 15.2734 10.2672 15.2732 10.2669L13.7711 7.20331Z" fill="black" fill-opacity="0.2"/>
<path fill-rule="evenodd" clip-rule="evenodd" d="M12.8187 7.52098L11.3207 10.5762C11.1981 10.8221 10.9783 11.0027 10.6773 11.0458L7.31166 11.5316L7.30525 11.5325C7.19407 11.5464 7.11755 11.7016 7.2255 11.812L9.67109 14.1877L9.675 14.1916C9.88164 14.3988 9.96819 14.6901 9.92444 14.9533L9.92403 14.9558L9.3375 18.3312L9.33672 18.3356C9.31255 18.4648 9.45135 18.568 9.57226 18.5034L9.57415 18.5023L12.5832 16.9169L12.5894 16.9137C12.8401 16.788 13.1337 16.788 13.3845 16.9137L13.3907 16.9169L16.3997 18.5023L16.4016 18.5034C16.5225 18.568 16.6613 18.4648 16.6371 18.3356L16.6363 18.3312L16.0498 14.9558C16.0492 14.9523 16.0487 14.9489 16.0482 14.9454C16.0073 14.6587 16.0944 14.3966 16.2989 14.1916L16.3028 14.1877L18.7508 11.8096C18.7531 11.8074 18.7554 11.8052 18.7577 11.803C18.7952 11.7685 18.8126 11.7128 18.7903 11.6446C18.7677 11.5754 18.7189 11.5388 18.6686 11.5325L18.6622 11.5316L15.2962 11.0457C15.2936 11.0454 15.2911 11.045 15.2886 11.0446C15.0341 11.002 14.7826 10.8359 14.6531 10.5761L14.6521 10.5741L13.1476 7.50554L13.1445 7.4992C13.117 7.44008 13.0682 7.41181 13.006 7.41181C12.9437 7.41181 12.8698 7.4427 12.8187 7.52098ZM13.7711 7.20331C13.4527 6.5258 12.5629 6.59845 12.2179 7.17512C12.2129 7.18338 12.2083 7.19184 12.2041 7.20049L10.7002 10.2678C10.6699 10.3281 10.6347 10.3519 10.579 10.3599L7.2155 10.8454C6.51381 10.9361 6.2353 11.8003 6.73632 12.3027L6.74023 12.3066L9.18579 14.6823C9.23271 14.7304 9.24787 14.7956 9.24102 14.8389C9.24097 14.8391 9.24093 14.8394 9.24088 14.8397L8.65513 18.2107C8.52854 18.8982 9.25494 19.4579 9.89801 19.115C9.89836 19.1148 9.89871 19.1146 9.89905 19.1144L12.9023 17.532C12.9563 17.5059 13.0176 17.5059 13.0715 17.532L16.0748 19.1144C16.0751 19.1146 16.0754 19.1147 16.0757 19.1149C16.7188 19.4579 17.4453 18.8982 17.3187 18.2106L16.7336 14.8433C16.7247 14.7752 16.7397 14.7315 16.7879 14.6825L19.2306 12.3095C19.7524 11.824 19.4482 10.9348 18.7584 10.8454L15.4001 10.3606C15.3496 10.3512 15.2969 10.3136 15.2736 10.2676C15.2735 10.2674 15.2734 10.2672 15.2732 10.2669L13.7711 7.20331Z" stroke="#4E4E8D" stroke-width="0.3" stroke-miterlimit="10" stroke-linecap="round" stroke-linejoin="round"/>
<path fill-rule="evenodd" clip-rule="evenodd" d="M12.8187 7.52098L11.3207 10.5762C11.1981 10.8221 10.9783 11.0027 10.6773 11.0458L7.31166 11.5316L7.30525 11.5325C7.19407 11.5464 7.11755 11.7016 7.2255 11.812L9.67109 14.1877L9.675 14.1916C9.88164 14.3988 9.96819 14.6901 9.92444 14.9533L9.92403 14.9558L9.3375 18.3312L9.33672 18.3356C9.31255 18.4648 9.45135 18.568 9.57226 18.5034L9.57415 18.5023L12.5832 16.9169L12.5894 16.9137C12.8401 16.788 13.1337 16.788 13.3845 16.9137L13.3907 16.9169L16.3997 18.5023L16.4016 18.5034C16.5225 18.568 16.6613 18.4648 16.6371 18.3356L16.6363 18.3312L16.0498 14.9558C16.0492 14.9523 16.0487 14.9489 16.0482 14.9454C16.0073 14.6587 16.0944 14.3966 16.2989 14.1916L16.3028 14.1877L18.7508 11.8096C18.7531 11.8074 18.7554 11.8052 18.7577 11.803C18.7952 11.7685 18.8126 11.7128 18.7903 11.6446C18.7677 11.5754 18.7189 11.5388 18.6686 11.5325L18.6622 11.5316L15.2962 11.0457C15.2936 11.0454 15.2911 11.045 15.2886 11.0446C15.0341 11.002 14.7826 10.8359 14.6531 10.5761L14.6521 10.5741L13.1476 7.50554L13.1445 7.4992C13.117 7.44008 13.0682 7.41181 13.006 7.41181C12.9437 7.41181 12.8698 7.4427 12.8187 7.52098ZM13.7711 7.20331C13.4527 6.5258 12.5629 6.59845 12.2179 7.17512C12.2129 7.18338 12.2083 7.19184 12.2041 7.20049L10.7002 10.2678C10.6699 10.3281 10.6347 10.3519 10.579 10.3599L7.2155 10.8454C6.51381 10.9361 6.2353 11.8003 6.73632 12.3027L6.74023 12.3066L9.18579 14.6823C9.23271 14.7304 9.24787 14.7956 9.24102 14.8389C9.24097 14.8391 9.24093 14.8394 9.24088 14.8397L8.65513 18.2107C8.52854 18.8982 9.25494 19.4579 9.89801 19.115C9.89836 19.1148 9.89871 19.1146 9.89905 19.1144L12.9023 17.532C12.9563 17.5059 13.0176 17.5059 13.0715 17.532L16.0748 19.1144C16.0751 19.1146 16.0754 19.1147 16.0757 19.1149C16.7188 19.4579 17.4453 18.8982 17.3187 18.2106L16.7336 14.8433C16.7247 14.7752 16.7397 14.7315 16.7879 14.6825L19.2306 12.3095C19.7524 11.824 19.4482 10.9348 18.7584 10.8454L15.4001 10.3606C15.3496 10.3512 15.2969 10.3136 15.2736 10.2676C15.2735 10.2674 15.2734 10.2672 15.2732 10.2669L13.7711 7.20331Z" stroke="black" stroke-opacity="0.2" stroke-width="0.3" stroke-miterlimit="10" stroke-linecap="round" stroke-linejoin="round"/>
</svg>
