<svg viewBox="0 0 21 21" fill="none" xmlns="http://www.w3.org/2000/svg">
<path d="M3.5 19.25H0.4375C0.196875 19.25 0 19.0531 0 18.8125C0 18.5719 0.196875 18.375 0.4375 18.375H3.5C3.74062 18.375 3.9375 18.5719 3.9375 18.8125C3.9375 19.0531 3.74062 19.25 3.5 19.25Z" fill="white"/>
<path d="M20.5625 19.25H7C6.75937 19.25 6.5625 19.0531 6.5625 18.8125C6.5625 18.5719 6.75937 18.375 7 18.375H20.5625C20.8031 18.375 21 18.5719 21 18.8125C21 19.0531 20.8031 19.25 20.5625 19.25Z" fill="white"/>
<path d="M5.25 21C4.04687 21 3.0625 20.0156 3.0625 18.8125C3.0625 17.6094 4.04687 16.625 5.25 16.625C6.45312 16.625 7.4375 17.6094 7.4375 18.8125C7.4375 20.0156 6.45312 21 5.25 21ZM5.25 17.5C4.52812 17.5 3.9375 18.0906 3.9375 18.8125C3.9375 19.5344 4.52812 20.125 5.25 20.125C5.97187 20.125 6.5625 19.5344 6.5625 18.8125C6.5625 18.0906 5.97187 17.5 5.25 17.5Z" fill="white"/>
<path d="M14 10.9375H0.4375C0.196875 10.9375 0 10.7406 0 10.5C0 10.2594 0.196875 10.0625 0.4375 10.0625H14C14.2406 10.0625 14.4375 10.2594 14.4375 10.5C14.4375 10.7406 14.2406 10.9375 14 10.9375Z" fill="white"/>
<path d="M20.5625 10.9375H17.5C17.2594 10.9375 17.0625 10.7406 17.0625 10.5C17.0625 10.2594 17.2594 10.0625 17.5 10.0625H20.5625C20.8031 10.0625 21 10.2594 21 10.5C21 10.7406 20.8031 10.9375 20.5625 10.9375Z" fill="white"/>
<path d="M15.75 12.6875C14.5469 12.6875 13.5625 11.7031 13.5625 10.5C13.5625 9.29688 14.5469 8.3125 15.75 8.3125C16.9531 8.3125 17.9375 9.29688 17.9375 10.5C17.9375 11.7031 16.9531 12.6875 15.75 12.6875ZM15.75 9.1875C15.0281 9.1875 14.4375 9.77813 14.4375 10.5C14.4375 11.2219 15.0281 11.8125 15.75 11.8125C16.4719 11.8125 17.0625 11.2219 17.0625 10.5C17.0625 9.77813 16.4719 9.1875 15.75 9.1875Z" fill="white"/>
<path d="M7.875 2.625H0.4375C0.196875 2.625 0 2.42813 0 2.1875C0 1.94688 0.196875 1.75 0.4375 1.75H7.875C8.11563 1.75 8.3125 1.94688 8.3125 2.1875C8.3125 2.42813 8.11563 2.625 7.875 2.625Z" fill="white"/>
<path d="M20.5625 2.625H11.375C11.1344 2.625 10.9375 2.42813 10.9375 2.1875C10.9375 1.94688 11.1344 1.75 11.375 1.75H20.5625C20.8031 1.75 21 1.94688 21 2.1875C21 2.42813 20.8031 2.625 20.5625 2.625Z" fill="white"/>
<path d="M9.625 4.375C8.42188 4.375 7.4375 3.39062 7.4375 2.1875C7.4375 0.984375 8.42188 0 9.625 0C10.8281 0 11.8125 0.984375 11.8125 2.1875C11.8125 3.39062 10.8281 4.375 9.625 4.375ZM9.625 0.875C8.90313 0.875 8.3125 1.46563 8.3125 2.1875C8.3125 2.90937 8.90313 3.5 9.625 3.5C10.3469 3.5 10.9375 2.90937 10.9375 2.1875C10.9375 1.46563 10.3469 0.875 9.625 0.875Z" fill="white"/>
</svg>
