<svg viewBox="0 0 1117 471" fill="none" xmlns="http://www.w3.org/2000/svg">
<path d="M63.0619 455.087L53.9574 455.087L53.9574 446L48.1046 446L48.1046 455.087L39 455.087L39 460.94L48.1046 460.94L48.1046 470.044L53.9574 470.044L53.9574 460.94L63.0619 460.94L63.0619 455.087Z" fill="white"/>
<path d="M1016.69 365.306L1011.4 360.016L1016.68 354.736L1013.28 351.336L1008 356.615L1002.71 351.325L999.313 354.726L1004.6 360.016L999.313 365.306L1002.71 368.707L1008 363.417L1013.29 368.707L1016.69 365.306Z" fill="white"/>
<path d="M233.85 269.16C233.85 268.919 233.922 268.683 234.056 268.482C234.19 268.282 234.38 268.125 234.603 268.033C234.826 267.941 235.071 267.916 235.308 267.963C235.545 268.011 235.762 268.127 235.933 268.297C236.103 268.468 236.22 268.685 236.267 268.922C236.314 269.159 236.289 269.404 236.197 269.627C236.105 269.85 235.948 270.04 235.748 270.174C235.547 270.308 235.311 270.38 235.07 270.38C234.746 270.38 234.436 270.251 234.207 270.023C233.979 269.794 233.85 269.484 233.85 269.16Z" fill="white"/>
<path d="M-1.20527e-05 49.21C-1.20316e-05 48.9687 0.0715601 48.7328 0.205615 48.5322C0.339671 48.3316 0.530236 48.1752 0.753162 48.0829C0.976088 47.9905 1.2214 47.9664 1.45806 48.0134C1.69471 48.0605 1.91207 48.1767 2.08269 48.3473C2.25331 48.5179 2.36948 48.7353 2.41655 48.972C2.46363 49.2086 2.43949 49.4539 2.34716 49.6768C2.25482 49.8998 2.09844 50.0903 1.89781 50.2244C1.69719 50.3584 1.46131 50.43 1.22002 50.43C1.05981 50.43 0.901179 50.3984 0.753162 50.3371C0.605144 50.2758 0.470636 50.1859 0.357349 50.0727C0.244061 49.9594 0.154194 49.8249 0.0928834 49.6768C0.0315727 49.5288 -1.20667e-05 49.3702 -1.20527e-05 49.21Z" fill="white"/>
<path d="M433.16 418.55C433.16 418.309 433.232 418.073 433.366 417.872C433.5 417.672 433.69 417.515 433.913 417.423C434.136 417.331 434.381 417.306 434.618 417.353C434.855 417.401 435.072 417.517 435.243 417.687C435.413 417.858 435.529 418.075 435.577 418.312C435.624 418.549 435.599 418.794 435.507 419.017C435.415 419.24 435.258 419.43 435.058 419.564C434.857 419.698 434.621 419.77 434.38 419.77C434.056 419.77 433.746 419.641 433.517 419.413C433.289 419.184 433.16 418.874 433.16 418.55Z" fill="white"/>
<path d="M283.8 431.05C283.798 430.808 283.868 430.571 284.001 430.37C284.134 430.168 284.323 430.01 284.546 429.916C284.769 429.822 285.015 429.796 285.252 429.842C285.489 429.888 285.707 430.004 285.879 430.174C286.051 430.344 286.168 430.561 286.216 430.798C286.264 431.035 286.24 431.281 286.148 431.505C286.056 431.728 285.9 431.919 285.699 432.054C285.498 432.188 285.262 432.26 285.02 432.26C284.698 432.26 284.389 432.133 284.161 431.906C283.932 431.68 283.803 431.372 283.8 431.05Z" fill="white"/>
<path d="M426.94 143.88C426.266 143.88 425.72 144.426 425.72 145.1C425.72 145.774 426.266 146.32 426.94 146.32C427.614 146.32 428.16 145.774 428.16 145.1C428.16 144.426 427.614 143.88 426.94 143.88Z" fill="white"/>
<path d="M768.85 285.16C768.85 284.919 768.922 284.683 769.056 284.482C769.19 284.282 769.38 284.125 769.603 284.033C769.826 283.941 770.071 283.916 770.308 283.963C770.545 284.011 770.762 284.127 770.933 284.297C771.103 284.468 771.219 284.685 771.267 284.922C771.314 285.159 771.289 285.404 771.197 285.627C771.105 285.85 770.948 286.04 770.748 286.174C770.547 286.308 770.311 286.38 770.07 286.38C769.746 286.38 769.436 286.251 769.207 286.023C768.979 285.794 768.85 285.484 768.85 285.16Z" fill="white"/>
<path d="M535 65.21C535 64.9687 535.072 64.7328 535.206 64.5322C535.34 64.3316 535.53 64.1752 535.753 64.0829C535.976 63.9905 536.221 63.9664 536.458 64.0134C536.695 64.0605 536.912 64.1767 537.083 64.3473C537.253 64.5179 537.369 64.7353 537.417 64.972C537.464 65.2086 537.439 65.4539 537.347 65.6768C537.255 65.8998 537.098 66.0903 536.898 66.2244C536.697 66.3584 536.461 66.43 536.22 66.43C536.06 66.43 535.901 66.3984 535.753 66.3371C535.605 66.2758 535.471 66.1859 535.357 66.0727C535.244 65.9594 535.154 65.8249 535.093 65.6768C535.032 65.5288 535 65.3702 535 65.21Z" fill="white"/>
<path d="M968.16 434.55C968.16 434.309 968.232 434.073 968.366 433.872C968.5 433.672 968.69 433.515 968.913 433.423C969.136 433.331 969.381 433.306 969.618 433.353C969.855 433.401 970.072 433.517 970.243 433.687C970.413 433.858 970.529 434.075 970.577 434.312C970.624 434.549 970.599 434.794 970.507 435.017C970.415 435.24 970.258 435.43 970.058 435.564C969.857 435.698 969.621 435.77 969.38 435.77C969.056 435.77 968.746 435.641 968.517 435.413C968.289 435.184 968.16 434.874 968.16 434.55Z" fill="white"/>
<path d="M818.8 447.05C818.798 446.808 818.868 446.571 819.001 446.37C819.134 446.168 819.323 446.01 819.546 445.916C819.769 445.822 820.014 445.796 820.252 445.842C820.489 445.888 820.707 446.004 820.879 446.174C821.051 446.344 821.168 446.561 821.216 446.798C821.264 447.035 821.24 447.281 821.148 447.505C821.056 447.728 820.9 447.919 820.699 448.054C820.498 448.188 820.262 448.26 820.02 448.26C819.698 448.26 819.389 448.133 819.161 447.906C818.932 447.68 818.803 447.372 818.8 447.05Z" fill="white"/>
<path d="M961.94 159.88C961.266 159.88 960.72 160.426 960.72 161.1C960.72 161.774 961.266 162.32 961.94 162.32C962.614 162.32 963.16 161.774 963.16 161.1C963.16 160.426 962.614 159.88 961.94 159.88Z" fill="white"/>
<path d="M980.13 206.054C953.459 201.227 927.072 190.844 908.279 170.622C899.665 161.529 893.301 150.548 889.697 138.557C886.754 127.625 885.983 116.223 887.43 104.995C890.032 81.7408 899.149 59.6998 906.161 37.5599C910.014 25.3947 913.482 12.8087 914.832 -2.99846e-06L908.638 -2.45696e-06C908.465 1.47269 908.267 2.95776 908.031 4.41808C904.315 28.1297 894.751 50.4181 887.975 73.313C881.496 95.2054 877.185 118.83 883.949 141.193C891.382 165.858 910.744 185.436 933.241 197.168C959.256 210.781 988.988 215.063 1017.98 215.966C1049.91 216.969 1081.75 213.491 1113.59 211.511C1127.14 210.657 1140.99 210.125 1154.88 210.274L1154.88 203.95C1096.7 203.108 1038.11 216.523 980.13 206.054Z" fill="#FFA6A6"/>
<path d="M1071.37 226.164L1054.15 227.896C987.897 234.654 919.404 241.633 861.39 211.35C826.778 193.282 799.958 163.506 774.03 134.708C752.598 110.898 730.424 86.2703 703.777 68.0658C650.508 31.6568 582.151 23.328 528.548 20.1351C514.921 19.3183 501.083 18.7491 487.667 18.1922C440.741 16.2368 392.217 14.2567 346.356 1.74502C344.275 1.18812 342.231 0.594089 340.162 6.06713e-05L336 6.10352e-05C339.246 1.01486 342.59 2.00491 346.034 2.94545C392.019 15.4819 440.617 17.4744 487.618 19.4297C501.021 19.9866 514.871 20.5559 528.498 21.3603C581.94 24.5532 650.075 32.8448 703.17 69.0929C729.68 87.2108 751.806 111.776 773.2 135.537C799.215 164.41 826.084 194.272 860.907 212.452C919.156 242.908 987.848 235.904 1054.27 229.097C1060.05 228.503 1065.79 227.925 1071.49 227.364C1097.69 224.803 1126.5 223.12 1155 225.186L1155 223.949C1126.43 221.919 1097.61 223.602 1071.37 226.164Z" fill="white"/>
</svg>
