<svg viewBox="0 0 45 45" fill="none" xmlns="http://www.w3.org/2000/svg">
<path d="M22.5 45C10.1011 45 0 34.8989 0 22.5C0 10.1011 10.1011 0 22.5 0C34.8989 0 45 10.1011 45 22.5C45 34.8989 34.8989 45 22.5 45ZM22.5 2.15426C11.25 2.15426 2.15426 11.25 2.15426 22.5C2.15426 33.75 11.25 42.8457 22.5 42.8457C33.7021 42.8457 42.8457 33.7021 42.8457 22.5C42.8457 11.2979 33.7021 2.15426 22.5 2.15426Z" fill="#49CE8B"/>
<path d="M19.6273 31.0689C19.2922 31.0689 18.9093 30.9252 18.6699 30.6859L11.8241 23.7923C11.2976 23.2657 11.2976 22.404 11.8241 21.8774C12.3507 21.3508 13.2124 21.3508 13.739 21.8774L19.6273 27.8614L31.2603 16.2284C31.7869 15.7018 32.6486 15.7018 33.1752 16.2284C33.7018 16.755 33.7018 17.6167 33.1752 18.1433L20.5848 30.6859C20.3454 30.9252 20.0103 31.0689 19.6273 31.0689Z" fill="#49CE8B"/>
</svg>
