<svg viewBox="0 0 21 17" fill="none" xmlns="http://www.w3.org/2000/svg">
<path d="M9.21777 0.466006V12.537C9.21777 12.7912 9.43114 13.0029 9.68717 13.0029C9.94321 13.0029 10.1566 12.7912 10.1566 12.537V0.466006C10.1566 0.21188 9.94321 0.00011158 9.68717 0.00011158C9.43114 0.00011158 9.21777 0.21188 9.21777 0.466006Z" fill="white"/>
<path d="M4.0542 7.4122C4.0542 7.53927 4.09687 7.64515 4.20355 7.75104L9.38828 12.8971C9.58031 13.0877 9.87901 13.0877 10.071 12.8971L15.2558 7.75104C15.4478 7.56044 15.4478 7.26396 15.2558 7.07337C15.0637 6.88277 14.765 6.88277 14.573 7.07337L9.72966 11.8806L4.86498 7.07337C4.67295 6.88277 4.37424 6.88277 4.18222 7.07337C4.09687 7.17925 4.0542 7.28514 4.0542 7.4122Z" fill="white"/>
<path d="M0 16.534V7.32185C0 7.06773 0.213363 6.85596 0.469399 6.85596C0.725434 6.85596 0.938798 7.06773 0.938798 7.32185V16.0469H19.0747V7.32185C19.0747 7.06773 19.288 6.85596 19.5441 6.85596C19.8001 6.85596 20.0135 7.06773 20.0135 7.32185V16.534C20.0135 16.7881 19.8001 16.9999 19.5441 16.9999H0.469399C0.213363 16.9999 0 16.7881 0 16.534Z" fill="white"/>
</svg>
