<svg viewBox="0 0 14 14" fill="none" xmlns="http://www.w3.org/2000/svg">
<path d="M7 14.0004C3.13948 14.0004 0 10.8609 0 7.00036C0 3.13984 3.13948 0.0153809 7 0.0153809C10.8605 0.0153809 14 3.15487 14 7.01538C14 10.8759 10.8605 14.0004 7 14.0004ZM7 0.766454C3.56009 0.766454 0.751073 3.56045 0.751073 7.01538C0.751073 10.4703 3.54506 13.2643 7 13.2643C10.4399 13.2643 13.2489 10.4703 13.2489 7.01538C13.2489 3.56045 10.4399 0.766454 7 0.766454Z" fill="#13134B"/>
<path d="M6.99994 14C5.1523 14 4.16089 10.3948 4.16089 7C4.16089 3.60515 5.1523 0 6.99994 0C8.84758 0 9.839 3.60515 9.839 7C9.839 10.3948 8.84758 14 6.99994 14ZM6.99994 0.766095C6.00853 0.766095 4.91196 3.33476 4.91196 7.01502C4.91196 10.6953 6.00853 13.2639 6.99994 13.2639C7.99136 13.2639 9.08793 10.6953 9.08793 7.01502C9.08793 3.33476 7.99136 0.766095 6.99994 0.766095Z" fill="#13134B"/>
<path d="M13.219 8.83276H0.78125V9.58384H13.219V8.83276Z" fill="#13134B"/>
<path d="M13.219 4.4314H0.78125V5.18247H13.219V4.4314Z" fill="#13134B"/>
</svg>
