<svg viewBox="0 0 28 18" fill="none" xmlns="http://www.w3.org/2000/svg">
<path d="M8.1827 2.06491C8.12179 2.00471 8.04946 1.95695 7.96985 1.92436C7.89024 1.89177 7.80491 1.875 7.71873 1.875C7.63255 1.875 7.54722 1.89177 7.46761 1.92436C7.388 1.95695 7.31567 2.00471 7.25476 2.06491L0.692302 8.54579C0.631338 8.60595 0.582977 8.67738 0.54998 8.756C0.516983 8.83462 0.5 8.91889 0.5 9.00399C0.5 9.0891 0.516983 9.17337 0.54998 9.25199C0.582977 9.33061 0.631338 9.40204 0.692302 9.46219L7.25476 15.9431C7.37853 16.0611 7.5443 16.1265 7.71637 16.125C7.88844 16.1235 8.05303 16.0553 8.1747 15.9352C8.29638 15.815 8.36539 15.6525 8.36689 15.4825C8.36838 15.3126 8.30224 15.1489 8.1827 15.0267L2.08427 9.00399L8.1827 2.98131C8.24366 2.92116 8.29202 2.84973 8.32502 2.77111C8.35802 2.69249 8.375 2.60822 8.375 2.52311C8.375 2.438 8.35802 2.35373 8.32502 2.27511C8.29202 2.19649 8.24366 2.12506 8.1827 2.06491Z" fill="white"/>
<path d="M21.0603 2.05703C20.9423 1.93891 20.7842 1.87355 20.6202 1.87502C20.4562 1.8765 20.2992 1.9447 20.1832 2.06493C20.0672 2.18515 20.0014 2.34779 20 2.51782C19.9986 2.68784 20.0617 2.85164 20.1756 2.97394L25.9896 9L20.1756 15.0261C20.0617 15.1484 19.9986 15.3122 20 15.4822C20.0014 15.6522 20.0672 15.8148 20.1832 15.9351C20.2992 16.0553 20.4562 16.1235 20.6202 16.125C20.7842 16.1265 20.9423 16.0611 21.0603 15.943L27.3167 9.45846C27.3748 9.39827 27.4209 9.3268 27.4523 9.24814C27.4838 9.16947 27.5 9.08515 27.5 9C27.5 8.91485 27.4838 8.83053 27.4523 8.75186C27.4209 8.6732 27.3748 8.60173 27.3167 8.54154L21.0603 2.05703Z" fill="white"/>
<path d="M16.1286 0.3944C16.0451 0.373722 15.9582 0.369525 15.873 0.382045C15.7878 0.394566 15.7059 0.42356 15.6321 0.467373C15.5582 0.511186 15.4938 0.568959 15.4425 0.637393C15.3912 0.705827 15.354 0.783581 15.3332 0.866214L11.398 16.4312C11.3751 16.5145 11.3692 16.6014 11.3807 16.687C11.3922 16.7726 11.4209 16.855 11.4651 16.9294C11.5092 17.0039 11.5679 17.0689 11.6378 17.1206C11.7077 17.1724 11.7873 17.2098 11.872 17.2307C11.9567 17.2516 12.0447 17.2556 12.131 17.2424C12.2172 17.2292 12.3 17.1992 12.3743 17.1539C12.4487 17.1087 12.5132 17.0493 12.564 16.9792C12.6148 16.909 12.651 16.8295 12.6704 16.7453L16.6055 1.18037C16.6476 1.01362 16.621 0.837182 16.5315 0.689814C16.4421 0.542447 16.2972 0.436195 16.1286 0.3944Z" fill="white"/>
</svg>
