<svg viewBox="0 0 19 19" fill="none" xmlns="http://www.w3.org/2000/svg">
<path d="M6.45667 12.7757C4.73618 12.7757 3.11235 12.1053 1.89447 10.8986C0.676597 9.69194 0 8.10215 0 6.39745C0 4.69274 0.676597 3.0838 1.89447 1.87709C3.11235 0.670391 4.73618 0 6.45667 0C8.17716 0 9.80099 0.670391 11.0189 1.87709C12.2367 3.0838 12.9133 4.69274 12.9133 6.39745C12.9133 8.10215 12.2367 9.71109 11.0189 10.9178C9.80099 12.1245 8.17716 12.7757 6.45667 12.7757ZM6.45667 0.861931C4.96815 0.861931 3.55697 1.43655 2.51307 2.49002C1.44985 3.5435 0.86991 4.92259 0.86991 6.39745C0.86991 7.87231 1.44985 9.27055 2.51307 10.3049C3.5763 11.3583 4.96815 11.933 6.45667 11.933C7.94518 11.933 9.35637 11.3583 10.4003 10.3049C11.4635 9.2514 12.0434 7.87231 12.0434 6.39745C12.0434 4.92259 11.4635 3.52434 10.4003 2.49002C9.35637 1.43655 7.94518 0.861931 6.45667 0.861931Z" fill="#211C52"/>
<path d="M17.7267 18.0047C17.6107 18.0047 17.5141 17.9664 17.4174 17.8707L10.4001 10.9178C10.2262 10.7454 10.2262 10.4772 10.4001 10.3048C10.5741 10.1324 10.8448 10.1324 11.0187 10.3048L18.036 17.2577C18.21 17.4301 18.21 17.6983 18.036 17.8707C17.9587 17.9473 17.8427 18.0047 17.7267 18.0047Z" fill="#211C52"/>
</svg>
