<svg width="228" height="182" viewBox="0 0 228 182" fill="none" xmlns="http://www.w3.org/2000/svg">
<path d="M93.5982 134.219C167.373 134.219 227.198 74.3574 227.198 0.537308C227.198 0.268875 227.198 0.000427246 227.198 0.000427246L160.935 0.000433039C160.935 0.268866 160.935 0.537314 160.935 0.537314C160.935 37.5816 130.888 67.6465 93.8665 67.6465C56.8449 67.6465 26.7984 37.5816 26.7984 0.537325C26.7984 0.268893 26.7984 0.000444766 26.7984 0.000444766L-39.4649 0.000450558C-39.4649 0.268883 -39.4649 0.537331 -39.4649 0.537331C-40.0014 74.3574 19.8233 134.219 93.5982 134.219Z" fill="#373765"/>
<path d="M79.5005 177.362C78.2184 177.362 77.1791 178.402 77.1791 179.685C77.1791 180.968 78.2184 182.008 79.5005 182.008C80.7826 182.008 81.8219 180.968 81.8219 179.685C81.8219 178.402 80.7826 177.362 79.5005 177.362Z" fill="#5ED9D1"/>
<path d="M55.9289 179.685C55.9289 178.434 57.0003 177.362 58.2503 177.362C59.5002 177.362 60.5717 178.434 60.5717 179.685C60.5717 180.935 59.5002 182.008 58.2503 182.008C57.0003 182.008 55.9289 180.935 55.9289 179.685Z" fill="#5ED9D1"/>
<path d="M34.6786 179.685C34.6786 178.434 35.75 177.362 37 177.362C38.25 177.362 39.3214 178.434 39.3214 179.685C39.3214 180.935 38.25 182.008 37 182.008C35.75 182.008 34.6786 180.935 34.6786 179.685Z" fill="#5ED9D1"/>
<path d="M15.5717 177.362C14.2896 177.362 13.2503 178.402 13.2503 179.685C13.2503 180.968 14.2896 182.008 15.5717 182.008C16.8537 182.008 17.8931 180.968 17.8931 179.685C17.8931 178.402 16.8537 177.362 15.5717 177.362Z" fill="#5ED9D1"/>
<path d="M79.5005 155.027C78.2184 155.027 77.1791 156.067 77.1791 157.35C77.1791 158.633 78.2184 159.673 79.5005 159.673C80.7826 159.673 81.8219 158.633 81.8219 157.35C81.8219 156.067 80.7826 155.027 79.5005 155.027Z" fill="#5ED9D1"/>
<path d="M55.9289 157.35C55.9289 156.099 57.0003 155.027 58.2503 155.027C59.5002 155.027 60.5717 156.099 60.5717 157.35C60.5717 158.601 59.5002 159.673 58.2503 159.673C57.0003 159.494 55.9289 158.601 55.9289 157.35Z" fill="#5ED9D1"/>
<path d="M34.6786 157.35C34.6786 156.099 35.75 155.027 37 155.027C38.25 155.027 39.3214 156.099 39.3214 157.35C39.3214 158.601 38.25 159.673 37 159.673C35.75 159.494 34.6786 158.601 34.6786 157.35Z" fill="#5ED9D1"/>
<path d="M15.5717 155.027C14.2896 155.027 13.2503 156.067 13.2503 157.35C13.2503 158.633 14.2896 159.673 15.5717 159.673C16.8537 159.673 17.8931 158.633 17.8931 157.35C17.8931 156.067 16.8537 155.027 15.5717 155.027Z" fill="#5ED9D1"/>
<path d="M77.3572 134.836C77.3572 133.586 78.4286 132.514 79.6786 132.514C80.9286 132.514 82 133.586 82 134.836C82 136.087 80.9286 137.159 79.6786 137.159C78.25 137.159 77.3572 136.087 77.3572 134.836Z" fill="#5ED9D1"/>
<path d="M55.9291 134.836C55.9291 133.586 57.0005 132.514 58.2505 132.514C59.5005 132.514 60.5719 133.586 60.5719 134.836C60.5719 136.087 59.5005 137.159 58.2505 137.159C57.0005 137.159 55.9291 136.087 55.9291 134.836Z" fill="#5ED9D1"/>
<path d="M34.6786 134.836C34.6786 133.586 35.75 132.514 37 132.514C38.25 132.514 39.3214 133.586 39.3214 134.836C39.3214 136.087 38.25 137.159 37 137.159C35.75 137.159 34.6786 136.087 34.6786 134.836Z" fill="#5ED9D1"/>
<path d="M13.4282 134.836C13.4282 133.586 14.4997 132.514 15.7496 132.514C16.9996 132.514 18.071 133.586 18.071 134.836C18.071 136.087 16.9996 137.159 15.7496 137.159C14.4997 137.159 13.4282 136.087 13.4282 134.836Z" fill="#5ED9D1"/>
<path d="M79.5005 110C78.2184 110 77.1791 111.04 77.1791 112.323C77.1791 113.606 78.2184 114.646 79.5005 114.646C80.7826 114.646 81.8219 113.606 81.8219 112.323C81.8219 111.04 80.7826 110 79.5005 110Z" fill="#5ED9D1"/>
<path d="M55.9289 112.323C55.9289 111.072 57.0003 110 58.2503 110C59.5002 110 60.5717 111.072 60.5717 112.323C60.5717 113.573 59.5002 114.646 58.2503 114.646C57.0003 114.646 55.9289 113.573 55.9289 112.323Z" fill="#5ED9D1"/>
<path d="M34.6786 112.323C34.6786 111.072 35.75 110 37 110C38.25 110 39.3214 111.072 39.3214 112.323C39.3214 113.573 38.25 114.646 37 114.646C35.75 114.646 34.6786 113.573 34.6786 112.323Z" fill="#5ED9D1"/>
<path d="M15.5717 110C14.2896 110 13.2503 111.04 13.2503 112.323C13.2503 113.606 14.2896 114.646 15.5717 114.646C16.8537 114.646 17.8931 113.606 17.8931 112.323C17.8931 111.04 16.8537 110 15.5717 110Z" fill="#5ED9D1"/>
</svg>
