<svg viewBox="0 0 48 49" fill="none" xmlns="http://www.w3.org/2000/svg">
<path fill-rule="evenodd" clip-rule="evenodd" d="M20.9876 35.8502C21.3742 35.8502 21.6876 36.1636 21.6876 36.5502C21.6876 37.8136 22.7242 38.8502 23.9876 38.8502C25.251 38.8502 26.2876 37.8136 26.2876 36.5502C26.2876 36.1636 26.601 35.8502 26.9876 35.8502C27.3742 35.8502 27.6876 36.1636 27.6876 36.5502C27.6876 38.5868 26.0242 40.2502 23.9876 40.2502C21.951 40.2502 20.2876 38.5868 20.2876 36.5502C20.2876 36.1636 20.601 35.8502 20.9876 35.8502Z" fill="#ECFFFE"/>
<path fill-rule="evenodd" clip-rule="evenodd" d="M23.8197 9.23932C24.2063 9.23932 24.5197 9.55272 24.5197 9.93932V12.3457C24.5197 12.4925 24.6518 12.681 24.9031 12.7119C29.2407 13.2448 32.6351 16.9337 32.6351 21.4611C32.6351 21.5649 32.6225 23.1731 32.61 24.7478L32.585 27.8777L32.585 27.8787C32.585 27.8788 32.585 27.8788 31.885 27.8732H32.585C32.585 28.5602 32.9838 29.2041 33.622 29.4877L33.6311 29.4918L36.2343 30.6933C36.2345 30.6934 36.2341 30.6932 36.2343 30.6933C38.0012 31.5038 37.9167 33.9993 36.1624 34.7308C32.3765 36.3167 28.8284 37.1393 24.2205 37.1393H23.419C18.8614 37.1393 15.2632 36.3168 11.4764 34.7305C9.72274 33.9987 9.63772 31.504 11.4045 30.6936C11.4047 30.6935 11.4043 30.6937 11.4045 30.6936L14.0174 29.4877C14.6556 29.204 15.0545 28.5602 15.0545 27.8732H15.7545H16.4545C16.4545 29.0881 15.7531 30.2461 14.5908 30.765L11.9884 31.966C11.3517 32.2579 11.3666 33.1681 12.0161 33.4387L12.0173 33.4392C15.6446 34.9588 19.0596 35.7393 23.419 35.7393H24.2205C28.6293 35.7393 31.9942 34.959 35.6221 33.4392L35.6234 33.4387C36.2728 33.1681 36.2878 32.2579 35.651 31.966L35.6493 31.9653L33.0487 30.765C31.8863 30.2461 31.185 29.088 31.185 27.8732V27.8675L31.885 27.8732C31.185 27.8675 31.185 27.8676 31.185 27.8675L31.185 27.8664L31.2101 24.7367C31.2226 23.1555 31.2351 21.5575 31.2351 21.4611C31.2351 17.6543 28.3815 14.5498 24.7324 14.1014C23.8874 13.9976 23.1197 13.3036 23.1197 12.3457V9.93932C23.1197 9.55272 23.4331 9.23932 23.8197 9.23932ZM15.7545 27.8732H16.4545V21.4611C16.4545 18.2152 18.5579 15.4658 21.4456 14.4575C21.8105 14.33 22.0031 13.9308 21.8756 13.5658C21.7482 13.2008 21.349 13.0083 20.984 13.1357C17.5597 14.3315 15.0545 17.5935 15.0545 21.4611V27.8732H15.7545Z" fill="#ECFFFE"/>
</svg>
