<svg viewBox="0 0 20 22" fill="none" xmlns="http://www.w3.org/2000/svg">
<g clip-path="url(#clip0_1613_11632)">
<path d="M16.055 11.6198V19.7852H1.32098V4.60601H8.61175C8.9674 4.60601 9.27224 4.29196 9.27224 3.92556C9.27224 3.55917 8.9674 3.24512 8.61175 3.24512H0.660488C0.304841 3.24512 0 3.55917 0 3.92556V20.4395C0 20.8059 0.304841 21.1199 0.660488 21.1199H16.69C17.0457 21.1199 17.3505 20.8059 17.3505 20.4395V11.6198C17.3505 11.2534 17.0457 10.9394 16.69 10.9394C16.3344 10.9394 16.055 11.2273 16.055 11.6198Z" fill="white"/>
<path d="M19.4383 0.99456L9.22613 11.5153C9.02291 11.7247 8.66726 11.777 8.43863 11.5676C8.18459 11.3321 8.15919 10.9395 8.41322 10.704L18.6 0.209429C18.8032 6.12456e-05 19.1589 -0.0522808 19.3875 0.157087C19.6669 0.366455 19.6669 0.759021 19.4383 0.99456Z" fill="white"/>
<path d="M19.4381 9.97116C19.3365 10.0758 19.1841 10.1544 19.0063 10.1544C18.7014 10.1282 18.4728 9.8403 18.4728 9.52625V1.1777H10.3691C10.0643 1.1777 9.78482 0.942156 9.75941 0.654275C9.70861 0.287881 9.98805 0 10.3183 0H19.0317C19.3619 0 19.6159 0.26171 19.6159 0.601933V9.57859C19.5905 9.73562 19.5397 9.86647 19.4381 9.97116Z" fill="white"/>
</g>
<defs>
<clipPath id="clip0_1613_11632">
<rect width="19.6114" height="21.12" fill="white"/>
</clipPath>
</defs>
</svg>
