<svg width="15" height="13" viewBox="0 0 15 13" fill="none" xmlns="http://www.w3.org/2000/svg">
<path fill-rule="evenodd" clip-rule="evenodd" d="M0 0.282617C0 0.126532 0.127596 0 0.284993 0H14.715C14.8724 0 15 0.126532 15 0.282617V12.0388C15 12.1949 14.8724 12.3214 14.715 12.3214H0.284993C0.127596 12.3214 0 12.1949 0 12.0388V0.282617ZM0.569986 0.565234V11.7562H14.43V0.565234H0.569986Z" fill="white"/>
<path fill-rule="evenodd" clip-rule="evenodd" d="M6.50045 3.21436C6.59663 3.21437 6.68558 3.26816 6.73418 3.3557L8.77726 7.036L9.5432 5.65671C9.5918 5.56919 9.68074 5.51541 9.7769 5.5154C9.87305 5.51538 9.96201 5.56914 10.0106 5.65664L12.2844 9.74843C12.3335 9.83679 12.334 9.9461 12.2857 10.035C12.2374 10.1238 12.1478 10.1786 12.0507 10.1786H2.94959C2.85251 10.1786 2.76285 10.1238 2.71457 10.035C2.6663 9.94614 2.66679 9.83684 2.71587 9.74848L6.2667 3.35565C6.31531 3.26812 6.40428 3.21434 6.50045 3.21436ZM3.42225 9.60719H11.5779L9.77701 6.3663L9.01096 7.7458C8.96235 7.83333 8.87338 7.88712 8.7772 7.88711C8.68102 7.8871 8.59206 7.83331 8.54346 7.74576L6.50036 4.06542L3.42225 9.60719Z" fill="white"/>
<path fill-rule="evenodd" clip-rule="evenodd" d="M9.91082 2.733C9.48956 2.733 9.15519 3.07233 9.15519 3.48211C9.15519 3.89188 9.48956 4.23121 9.91082 4.23121C10.3321 4.23121 10.6665 3.89188 10.6665 3.48211C10.6665 3.07233 10.3321 2.733 9.91082 2.733ZM8.57153 3.48211C8.57153 2.73849 9.17508 2.14282 9.91082 2.14282C10.6466 2.14282 11.2501 2.73849 11.2501 3.48211C11.2501 4.22572 10.6466 4.82139 9.91082 4.82139C9.17508 4.82139 8.57153 4.22572 8.57153 3.48211Z" fill="white"/>
</svg>
