<svg width="373" height="482" viewBox="0 0 373 482" fill="none" xmlns="http://www.w3.org/2000/svg">
<g opacity="0.6" clip-path="url(#clip0_1611_10895)">
<path opacity="0.3" d="M255.588 115.045C190.493 115.045 137.706 63.7349 137.706 0.460587C137.706 0.230499 137.706 0.000396729 137.706 0.000396729L196.174 0.00040184C196.174 0.230489 196.174 0.460592 196.174 0.460592C196.174 32.2128 222.685 57.9827 255.352 57.9827C288.018 57.9827 314.529 32.2128 314.529 0.460602C314.529 0.230515 314.529 0.000412187 314.529 0.000412187L372.997 0.000417298C372.997 0.230505 372.997 0.460607 372.997 0.460607C373.47 63.735 320.684 115.045 255.588 115.045Z" fill="#373765"/>
<path d="M216.841 141.377C217.972 141.377 218.889 142.269 218.889 143.368C218.889 144.468 217.972 145.359 216.841 145.359C215.71 145.359 214.793 144.468 214.793 143.368C214.793 142.269 215.71 141.377 216.841 141.377Z" fill="#8585BC"/>
<path d="M237.639 143.368C237.639 142.296 236.694 141.377 235.591 141.377C234.488 141.377 233.543 142.296 233.543 143.368C233.543 144.44 234.488 145.359 235.591 145.359C236.694 145.359 237.639 144.44 237.639 143.368Z" fill="#8585BC"/>
<path d="M256.39 143.368C256.39 142.296 255.444 141.377 254.341 141.377C253.239 141.377 252.293 142.296 252.293 143.368C252.293 144.44 253.239 145.359 254.341 145.359C255.444 145.359 256.39 144.44 256.39 143.368Z" fill="#8585BC"/>
<path d="M273.249 141.377C274.38 141.377 275.297 142.269 275.297 143.368C275.297 144.468 274.38 145.359 273.249 145.359C272.118 145.359 271.2 144.468 271.2 143.368C271.2 142.269 272.118 141.377 273.249 141.377Z" fill="#8585BC"/>
<path d="M294.045 143.368C294.045 142.296 293.1 141.377 291.997 141.377C290.894 141.377 289.948 142.296 289.948 143.368C289.948 144.44 290.894 145.359 291.997 145.359C293.1 145.359 294.045 144.44 294.045 143.368Z" fill="#8585BC"/>
<path d="M216.841 122.233C217.972 122.233 218.889 123.125 218.889 124.224C218.889 125.324 217.972 126.215 216.841 126.215C215.71 126.215 214.793 125.324 214.793 124.224C214.793 123.125 215.71 122.233 216.841 122.233Z" fill="#8585BC"/>
<path d="M237.639 124.224C237.639 123.152 236.694 122.233 235.591 122.233C234.488 122.233 233.543 123.152 233.543 124.224C233.543 125.296 234.488 126.215 235.591 126.215C236.694 126.062 237.639 125.296 237.639 124.224Z" fill="#8585BC"/>
<path d="M256.39 124.224C256.39 123.152 255.444 122.233 254.341 122.233C253.239 122.233 252.293 123.152 252.293 124.224C252.293 125.296 253.239 126.215 254.341 126.215C255.444 126.062 256.39 125.296 256.39 124.224Z" fill="#8585BC"/>
<path d="M273.249 122.233C274.38 122.233 275.297 123.125 275.297 124.224C275.297 125.324 274.38 126.215 273.249 126.215C272.117 126.215 271.2 125.324 271.2 124.224C271.2 123.125 272.117 122.233 273.249 122.233Z" fill="#8585BC"/>
<path d="M294.045 124.224C294.045 123.152 293.1 122.233 291.997 122.233C290.894 122.233 289.948 123.152 289.948 124.224C289.948 125.296 290.894 126.215 291.997 126.215C293.1 126.062 294.045 125.296 294.045 124.224Z" fill="#8585BC"/>
<path d="M218.732 104.927C218.732 103.855 217.787 102.936 216.684 102.936C215.581 102.936 214.636 103.855 214.636 104.927C214.636 105.999 215.581 106.918 216.684 106.918C217.944 106.918 218.732 105.999 218.732 104.927Z" fill="#8585BC"/>
<path d="M237.639 104.927C237.639 103.855 236.694 102.936 235.591 102.936C234.488 102.936 233.543 103.855 233.543 104.927C233.543 105.999 234.488 106.918 235.591 106.918C236.694 106.918 237.639 105.999 237.639 104.927Z" fill="#8585BC"/>
<path d="M256.39 104.927C256.39 103.855 255.444 102.936 254.341 102.936C253.238 102.936 252.293 103.855 252.293 104.927C252.293 105.999 253.238 106.918 254.341 106.918C255.444 106.918 256.39 105.999 256.39 104.927Z" fill="#8585BC"/>
<path d="M275.14 104.927C275.14 103.855 274.195 102.936 273.092 102.936C271.989 102.936 271.043 103.855 271.043 104.927C271.043 105.999 271.989 106.918 273.092 106.918C274.195 106.918 275.14 105.999 275.14 104.927Z" fill="#8585BC"/>
<path d="M294.047 104.927C294.047 103.855 293.102 102.936 291.999 102.936C290.896 102.936 289.951 103.855 289.951 104.927C289.951 105.999 290.896 106.918 291.999 106.918C293.102 106.918 294.047 105.999 294.047 104.927Z" fill="#8585BC"/>
<path d="M216.841 83.6386C217.972 83.6386 218.889 84.53 218.889 85.6296C218.889 86.7292 217.972 87.6206 216.841 87.6206C215.71 87.6206 214.793 86.7292 214.793 85.6296C214.793 84.53 215.71 83.6386 216.841 83.6386Z" fill="#8585BC"/>
<path d="M237.639 85.6296C237.639 84.5575 236.694 83.6386 235.591 83.6386C234.488 83.6386 233.543 84.5575 233.543 85.6296C233.543 86.7017 234.488 87.6206 235.591 87.6206C236.694 87.6206 237.639 86.7017 237.639 85.6296Z" fill="#8585BC"/>
<path d="M256.39 85.6296C256.39 84.5575 255.444 83.6386 254.341 83.6386C253.239 83.6386 252.293 84.5575 252.293 85.6296C252.293 86.7017 253.239 87.6206 254.341 87.6206C255.444 87.6206 256.39 86.7017 256.39 85.6296Z" fill="#8585BC"/>
<path d="M273.249 83.6386C274.38 83.6386 275.297 84.53 275.297 85.6296C275.297 86.7292 274.38 87.6206 273.249 87.6206C272.118 87.6206 271.2 86.7292 271.2 85.6296C271.2 84.53 272.118 83.6386 273.249 83.6386Z" fill="#8585BC"/>
<path d="M294.045 85.6296C294.045 84.5575 293.1 83.6386 291.997 83.6386C290.894 83.6386 289.948 84.5575 289.948 85.6296C289.948 86.7017 290.894 87.6206 291.997 87.6206C293.1 87.6206 294.045 86.7017 294.045 85.6296Z" fill="#8585BC"/>
</g>
<g opacity="0.6">
<path opacity="0.3" d="M117.412 366.955C182.507 366.955 235.294 418.265 235.294 481.539C235.294 481.77 235.294 482 235.294 482L176.826 482C176.826 481.77 176.826 481.539 176.826 481.539C176.826 449.787 150.315 424.017 117.648 424.017C84.9823 424.017 58.4707 449.787 58.4707 481.539C58.4707 481.77 58.4707 482 58.4707 482L0.00314054 482C0.0031405 481.77 0.00314046 481.539 0.00314046 481.539C-0.47029 418.265 52.3162 366.955 117.412 366.955Z" fill="#373765"/>
<path d="M156.159 340.623C155.028 340.623 154.111 339.731 154.111 338.632C154.111 337.532 155.028 336.641 156.159 336.641C157.29 336.641 158.207 337.532 158.207 338.632C158.207 339.731 157.29 340.623 156.159 340.623Z" fill="#8585BC"/>
<path d="M135.361 338.632C135.361 339.704 136.306 340.623 137.409 340.623C138.512 340.623 139.457 339.704 139.457 338.632C139.457 337.56 138.512 336.641 137.409 336.641C136.306 336.641 135.361 337.56 135.361 338.632Z" fill="#8585BC"/>
<path d="M116.61 338.632C116.61 339.704 117.556 340.623 118.659 340.623C119.761 340.623 120.707 339.704 120.707 338.632C120.707 337.56 119.761 336.641 118.659 336.641C117.556 336.641 116.61 337.56 116.61 338.632Z" fill="#8585BC"/>
<path d="M99.7512 340.623C98.6199 340.623 97.7029 339.731 97.7029 338.632C97.7029 337.532 98.6199 336.641 99.7512 336.641C100.882 336.641 101.799 337.532 101.799 338.632C101.8 339.731 100.882 340.623 99.7512 340.623Z" fill="#8585BC"/>
<path d="M78.9551 338.632C78.9551 339.704 79.9004 340.623 81.0034 340.623C82.1063 340.623 83.0516 339.704 83.0516 338.632C83.0516 337.56 82.1063 336.641 81.0034 336.641C79.9004 336.641 78.9551 337.56 78.9551 338.632Z" fill="#8585BC"/>
<path d="M156.159 359.767C155.028 359.767 154.111 358.875 154.111 357.776C154.111 356.676 155.028 355.785 156.159 355.785C157.29 355.785 158.207 356.676 158.207 357.776C158.207 358.875 157.29 359.767 156.159 359.767Z" fill="#8585BC"/>
<path d="M135.361 357.776C135.361 358.848 136.306 359.767 137.409 359.767C138.512 359.767 139.457 358.848 139.457 357.776C139.457 356.704 138.512 355.785 137.409 355.785C136.306 355.938 135.361 356.704 135.361 357.776Z" fill="#8585BC"/>
<path d="M116.61 357.776C116.61 358.848 117.556 359.767 118.659 359.767C119.761 359.767 120.707 358.848 120.707 357.776C120.707 356.704 119.761 355.785 118.659 355.785C117.556 355.938 116.61 356.704 116.61 357.776Z" fill="#8585BC"/>
<path d="M99.7512 359.767C98.62 359.767 97.7029 358.875 97.7029 357.776C97.7029 356.676 98.62 355.785 99.7512 355.785C100.882 355.785 101.8 356.676 101.8 357.776C101.8 358.875 100.882 359.767 99.7512 359.767Z" fill="#8585BC"/>
<path d="M78.9551 357.776C78.9551 358.848 79.9005 359.767 81.0034 359.767C82.1063 359.767 83.0516 358.848 83.0516 357.776C83.0516 356.704 82.1063 355.785 81.0034 355.785C79.9005 355.938 78.9551 356.704 78.9551 357.776Z" fill="#8585BC"/>
<path d="M154.268 377.073C154.268 378.145 155.213 379.064 156.316 379.064C157.419 379.064 158.364 378.145 158.364 377.073C158.364 376.001 157.419 375.082 156.316 375.082C155.056 375.082 154.268 376.001 154.268 377.073Z" fill="#8585BC"/>
<path d="M135.361 377.073C135.361 378.145 136.306 379.064 137.409 379.064C138.512 379.064 139.457 378.145 139.457 377.073C139.457 376.001 138.512 375.082 137.409 375.082C136.306 375.082 135.361 376.001 135.361 377.073Z" fill="#8585BC"/>
<path d="M116.61 377.073C116.61 378.145 117.556 379.064 118.659 379.064C119.761 379.064 120.707 378.145 120.707 377.073C120.707 376.001 119.761 375.082 118.659 375.082C117.556 375.082 116.61 376.001 116.61 377.073Z" fill="#8585BC"/>
<path d="M97.86 377.073C97.86 378.145 98.8054 379.064 99.9083 379.064C101.011 379.064 101.957 378.145 101.957 377.073C101.957 376.001 101.011 375.082 99.9083 375.082C98.8054 375.082 97.86 376.001 97.86 377.073Z" fill="#8585BC"/>
<path d="M78.9527 377.073C78.9527 378.145 79.8981 379.064 81.001 379.064C82.1039 379.064 83.0493 378.145 83.0493 377.073C83.0493 376.001 82.1039 375.082 81.001 375.082C79.8981 375.082 78.9527 376.001 78.9527 377.073Z" fill="#8585BC"/>
<path d="M156.159 398.362C155.028 398.362 154.111 397.47 154.111 396.371C154.111 395.271 155.028 394.38 156.159 394.38C157.29 394.38 158.207 395.271 158.207 396.371C158.207 397.47 157.29 398.362 156.159 398.362Z" fill="#8585BC"/>
<path d="M135.361 396.371C135.361 397.443 136.306 398.362 137.409 398.362C138.512 398.362 139.457 397.443 139.457 396.371C139.457 395.299 138.512 394.38 137.409 394.38C136.306 394.38 135.361 395.299 135.361 396.371Z" fill="#8585BC"/>
<path d="M116.61 396.371C116.61 397.443 117.556 398.362 118.659 398.362C119.761 398.362 120.707 397.443 120.707 396.371C120.707 395.299 119.761 394.38 118.659 394.38C117.556 394.38 116.61 395.299 116.61 396.371Z" fill="#8585BC"/>
<path d="M99.7512 398.362C98.62 398.362 97.7029 397.47 97.7029 396.371C97.7029 395.271 98.62 394.38 99.7512 394.38C100.882 394.38 101.8 395.271 101.8 396.371C101.8 397.47 100.882 398.362 99.7512 398.362Z" fill="#8585BC"/>
<path d="M78.955 396.371C78.955 397.443 79.9003 398.362 81.0032 398.362C82.1062 398.362 83.0515 397.443 83.0515 396.371C83.0515 395.299 82.1062 394.38 81.0032 394.38C79.9003 394.38 78.955 395.299 78.955 396.371Z" fill="#8585BC"/>
</g>
<defs>
<clipPath id="clip0_1611_10895">
<rect width="285" height="156" fill="white" transform="matrix(1 8.74228e-08 8.74228e-08 -1 88 156)"/>
</clipPath>
</defs>
</svg>
