<svg viewBox="0 0 17 17" fill="none" xmlns="http://www.w3.org/2000/svg">
<path d="M8.5 17C3.81596 17 0 13.184 0 8.5C0 3.81596 3.81596 0 8.5 0C13.184 0 17 3.81596 17 8.5C17 13.184 13.184 17 8.5 17ZM8.5 0.81383C4.25 0.81383 0.81383 4.25 0.81383 8.5C0.81383 12.75 4.25 16.1862 8.5 16.1862C12.7319 16.1862 16.1862 12.7319 16.1862 8.5C16.1862 4.26809 12.7319 0.81383 8.5 0.81383Z" fill="#171753"/>
<path d="M7.48044 12.8678C7.47549 12.6739 7.56702 12.4855 7.73726 12.339C7.88214 12.2327 8.06523 12.16 8.26429 12.13C8.46335 12.1 8.66981 12.1138 8.85855 12.1698C9.0473 12.2258 9.21022 12.3216 9.32749 12.4455C9.44476 12.5694 9.51133 12.7162 9.51913 12.8678C9.52454 12.964 9.50416 13.0599 9.45915 13.1501C9.41415 13.2402 9.34543 13.3227 9.25709 13.3927C9.04443 13.5267 8.77527 13.6001 8.49716 13.6001C8.21905 13.6001 7.94992 13.5267 7.73726 13.3927C7.56464 13.2489 7.47265 13.0609 7.48044 12.8678ZM8.44476 10.6547C8.23718 10.6547 8.03802 10.5933 7.89074 10.4839C7.74346 10.3746 7.66002 10.2262 7.65864 10.071L7.55906 3.99554C7.55767 3.91773 7.57699 3.84048 7.61587 3.76829C7.65476 3.69609 7.71243 3.63039 7.78557 3.575C7.8587 3.51961 7.94585 3.47562 8.04191 3.44561C8.13798 3.41559 8.24106 3.40014 8.34519 3.40015H8.55483C8.65896 3.40014 8.76204 3.41559 8.85811 3.44561C8.95417 3.47562 9.04129 3.51961 9.11442 3.575C9.18756 3.63039 9.24526 3.69609 9.28415 3.76829C9.32303 3.84048 9.34235 3.91773 9.34096 3.99554L9.23089 10.071C9.2295 10.2262 9.14606 10.3746 8.99879 10.4839C8.85151 10.5933 8.65235 10.6547 8.44476 10.6547Z" fill="#171753"/>
</svg>
