<svg viewBox="0 0 27 15" fill="none" xmlns="http://www.w3.org/2000/svg">
<path d="M13.4996 15C6.17508 15 0.401679 8.21565 0.143168 7.90076C-0.0578954 7.67176 -0.0578954 7.32824 0.143168 7.07061C0.401679 6.78435 6.17508 0 13.4996 0C20.824 0 26.5974 6.78435 26.8559 7.09924C27.057 7.32824 27.057 7.67176 26.8559 7.92939C26.5974 8.18702 20.7953 15 13.4996 15ZM1.49317 7.5C2.87189 8.9313 7.7836 13.7118 13.4996 13.7118C19.2155 13.7118 24.1272 8.9313 25.4772 7.5C24.1272 6.04008 19.2155 1.28817 13.4996 1.28817C7.7836 1.28817 2.87189 6.04008 1.49317 7.5Z" fill="#4E4E8D"/>
<path d="M13.4996 15C6.17508 15 0.401679 8.21565 0.143168 7.90076C-0.0578954 7.67176 -0.0578954 7.32824 0.143168 7.07061C0.401679 6.78435 6.17508 0 13.4996 0C20.824 0 26.5974 6.78435 26.8559 7.09924C27.057 7.32824 27.057 7.67176 26.8559 7.92939C26.5974 8.18702 20.7953 15 13.4996 15ZM1.49317 7.5C2.87189 8.9313 7.7836 13.7118 13.4996 13.7118C19.2155 13.7118 24.1272 8.9313 25.4772 7.5C24.1272 6.04008 19.2155 1.28817 13.4996 1.28817C7.7836 1.28817 2.87189 6.04008 1.49317 7.5Z" fill="black" fill-opacity="0.2"/>
<path d="M13.5 14.2843C9.73725 14.2843 6.69257 11.25 6.69257 7.49999C6.69257 3.74999 9.73725 0.687012 13.5 0.687012C17.2628 0.687012 20.3075 3.74999 20.3075 7.47136C20.3075 11.1927 17.2628 14.2843 13.5 14.2843ZM13.5 1.97518C10.4553 1.97518 7.9564 4.43701 7.9564 7.49999C7.9564 10.5343 10.4266 13.0248 13.5 13.0248C16.5447 13.0248 19.0436 10.563 19.0436 7.49999C19.0149 4.46564 16.5447 1.97518 13.5 1.97518Z" fill="#4E4E8D"/>
<path d="M13.5 14.2843C9.73725 14.2843 6.69257 11.25 6.69257 7.49999C6.69257 3.74999 9.73725 0.687012 13.5 0.687012C17.2628 0.687012 20.3075 3.74999 20.3075 7.47136C20.3075 11.1927 17.2628 14.2843 13.5 14.2843ZM13.5 1.97518C10.4553 1.97518 7.9564 4.43701 7.9564 7.49999C7.9564 10.5343 10.4266 13.0248 13.5 13.0248C16.5447 13.0248 19.0436 10.563 19.0436 7.49999C19.0149 4.46564 16.5447 1.97518 13.5 1.97518Z" fill="black" fill-opacity="0.2"/>
<path d="M13.5 8.75957C13.3277 8.75957 13.1553 8.73094 13.0117 8.67369C12.8681 8.58781 12.6958 8.50194 12.6096 8.38743C12.4947 8.27293 12.3798 8.1298 12.3224 7.95804C12.2362 7.81491 12.2075 7.64316 12.2075 7.4714C12.2075 7.12789 12.3224 6.813 12.5809 6.584C12.6958 6.46949 12.8394 6.38361 12.983 6.29774C13.4426 6.12598 14.017 6.21186 14.3617 6.584C14.4766 6.6985 14.5915 6.84163 14.6489 6.98476C14.7351 7.12789 14.7638 7.32827 14.7638 7.4714C14.7638 7.81491 14.6202 8.1298 14.3904 8.38743C14.1607 8.64507 13.816 8.75957 13.5 8.75957Z" fill="#4E4E8D"/>
<path d="M13.5 8.75957C13.3277 8.75957 13.1553 8.73094 13.0117 8.67369C12.8681 8.58781 12.6958 8.50194 12.6096 8.38743C12.4947 8.27293 12.3798 8.1298 12.3224 7.95804C12.2362 7.81491 12.2075 7.64316 12.2075 7.4714C12.2075 7.12789 12.3224 6.813 12.5809 6.584C12.6958 6.46949 12.8394 6.38361 12.983 6.29774C13.4426 6.12598 14.017 6.21186 14.3617 6.584C14.4766 6.6985 14.5915 6.84163 14.6489 6.98476C14.7351 7.12789 14.7638 7.32827 14.7638 7.4714C14.7638 7.81491 14.6202 8.1298 14.3904 8.38743C14.1607 8.64507 13.816 8.75957 13.5 8.75957Z" fill="black" fill-opacity="0.2"/>
</svg>
