<svg width="177" height="210" viewBox="0 0 177 210" fill="none" xmlns="http://www.w3.org/2000/svg">
<path opacity="0.18" d="M117.412 -61C182.507 -61 235.294 -9.69026 235.294 53.5841C235.294 53.8142 235.294 54.0443 235.294 54.0443L176.826 54.0443C176.826 53.8142 176.826 53.5841 176.826 53.5841C176.826 21.8319 150.315 -3.93805 117.648 -3.93805C84.9824 -3.93805 58.4707 21.8319 58.4707 53.5841C58.4707 53.8142 58.4707 54 58.4707 54L0.00313326 54C0.00313328 53.7699 0.00313329 53.5841 0.00313329 53.5841C-0.47028 -9.69028 52.3163 -61 117.412 -61Z" fill="#373765"/>
<g opacity="0.6" clip-path="url(#clip0_1484_7143)">
<path opacity="0.3" d="M117.412 169.045C182.507 169.045 235.294 117.735 235.294 54.4606C235.294 54.2305 235.294 54.0004 235.294 54.0004L176.826 54.0004C176.826 54.2305 176.826 54.4606 176.826 54.4606C176.826 86.2128 150.315 111.983 117.648 111.983C84.9824 111.983 58.4707 86.2128 58.4707 54.4606C58.4707 54.2305 58.4707 54.0004 58.4707 54.0004L0.00313325 54.0004C0.00313327 54.2305 0.00313329 54.4606 0.00313329 54.4606C-0.47028 117.735 52.3163 169.045 117.412 169.045Z" fill="#373765"/>
<path d="M156.159 195.377C155.028 195.377 154.111 196.269 154.111 197.368C154.111 198.468 155.028 199.359 156.159 199.359C157.29 199.359 158.207 198.468 158.207 197.368C158.207 196.269 157.29 195.377 156.159 195.377Z" fill="#8585BC"/>
<path d="M135.361 197.368C135.361 196.296 136.306 195.377 137.409 195.377C138.512 195.377 139.457 196.296 139.457 197.368C139.457 198.44 138.512 199.359 137.409 199.359C136.306 199.359 135.361 198.44 135.361 197.368Z" fill="#8585BC"/>
<path d="M116.61 197.368C116.61 196.296 117.556 195.377 118.659 195.377C119.761 195.377 120.707 196.296 120.707 197.368C120.707 198.44 119.761 199.359 118.659 199.359C117.556 199.359 116.61 198.44 116.61 197.368Z" fill="#8585BC"/>
<path d="M99.7513 195.377C98.62 195.377 97.7029 196.269 97.7029 197.368C97.7029 198.468 98.62 199.359 99.7513 199.359C100.883 199.359 101.8 198.468 101.8 197.368C101.8 196.269 100.883 195.377 99.7513 195.377Z" fill="#8585BC"/>
<path d="M78.9552 197.368C78.9552 196.296 79.9005 195.377 81.0034 195.377C82.1063 195.377 83.0517 196.296 83.0517 197.368C83.0517 198.44 82.1063 199.359 81.0034 199.359C79.9005 199.359 78.9552 198.44 78.9552 197.368Z" fill="#8585BC"/>
<path d="M156.159 176.233C155.028 176.233 154.111 177.125 154.111 178.224C154.111 179.324 155.028 180.215 156.159 180.215C157.29 180.215 158.207 179.324 158.207 178.224C158.207 177.125 157.29 176.233 156.159 176.233Z" fill="#8585BC"/>
<path d="M135.361 178.224C135.361 177.152 136.306 176.233 137.409 176.233C138.512 176.233 139.457 177.152 139.457 178.224C139.457 179.296 138.512 180.215 137.409 180.215C136.306 180.062 135.361 179.296 135.361 178.224Z" fill="#8585BC"/>
<path d="M116.61 178.224C116.61 177.152 117.556 176.233 118.659 176.233C119.761 176.233 120.707 177.152 120.707 178.224C120.707 179.296 119.761 180.215 118.659 180.215C117.556 180.062 116.61 179.296 116.61 178.224Z" fill="#8585BC"/>
<path d="M99.7513 176.233C98.62 176.233 97.703 177.125 97.703 178.224C97.703 179.324 98.62 180.215 99.7513 180.215C100.883 180.215 101.8 179.324 101.8 178.224C101.8 177.125 100.883 176.233 99.7513 176.233Z" fill="#8585BC"/>
<path d="M78.9552 178.224C78.9552 177.152 79.9005 176.233 81.0034 176.233C82.1063 176.233 83.0517 177.152 83.0517 178.224C83.0517 179.296 82.1063 180.215 81.0034 180.215C79.9005 180.062 78.9552 179.296 78.9552 178.224Z" fill="#8585BC"/>
<path d="M154.268 158.927C154.268 157.855 155.213 156.936 156.316 156.936C157.419 156.936 158.365 157.855 158.365 158.927C158.365 159.999 157.419 160.918 156.316 160.918C155.056 160.918 154.268 159.999 154.268 158.927Z" fill="#8585BC"/>
<path d="M135.361 158.927C135.361 157.855 136.306 156.936 137.409 156.936C138.512 156.936 139.457 157.855 139.457 158.927C139.457 159.999 138.512 160.918 137.409 160.918C136.306 160.918 135.361 159.999 135.361 158.927Z" fill="#8585BC"/>
<path d="M116.61 158.927C116.61 157.855 117.556 156.936 118.659 156.936C119.762 156.936 120.707 157.855 120.707 158.927C120.707 159.999 119.762 160.918 118.659 160.918C117.556 160.918 116.61 159.999 116.61 158.927Z" fill="#8585BC"/>
<path d="M97.86 158.927C97.86 157.855 98.8054 156.936 99.9083 156.936C101.011 156.936 101.957 157.855 101.957 158.927C101.957 159.999 101.011 160.918 99.9083 160.918C98.8054 160.918 97.86 159.999 97.86 158.927Z" fill="#8585BC"/>
<path d="M78.9527 158.927C78.9527 157.855 79.8981 156.936 81.001 156.936C82.104 156.936 83.0493 157.855 83.0493 158.927C83.0493 159.999 82.104 160.918 81.001 160.918C79.8981 160.918 78.9527 159.999 78.9527 158.927Z" fill="#8585BC"/>
<path d="M156.159 137.639C155.028 137.639 154.111 138.53 154.111 139.63C154.111 140.729 155.028 141.621 156.159 141.621C157.29 141.621 158.207 140.729 158.207 139.63C158.207 138.53 157.29 137.639 156.159 137.639Z" fill="#8585BC"/>
<path d="M135.361 139.63C135.361 138.558 136.306 137.639 137.409 137.639C138.512 137.639 139.457 138.558 139.457 139.63C139.457 140.702 138.512 141.621 137.409 141.621C136.306 141.621 135.361 140.702 135.361 139.63Z" fill="#8585BC"/>
<path d="M116.61 139.63C116.61 138.558 117.556 137.639 118.659 137.639C119.761 137.639 120.707 138.558 120.707 139.63C120.707 140.702 119.761 141.621 118.659 141.621C117.556 141.621 116.61 140.702 116.61 139.63Z" fill="#8585BC"/>
<path d="M99.7512 137.639C98.62 137.639 97.7029 138.53 97.7029 139.63C97.7029 140.729 98.62 141.621 99.7512 141.621C100.882 141.621 101.8 140.729 101.8 139.63C101.8 138.53 100.882 137.639 99.7512 137.639Z" fill="#8585BC"/>
<path d="M78.955 139.63C78.955 138.558 79.9004 137.639 81.0033 137.639C82.1062 137.639 83.0516 138.558 83.0516 139.63C83.0516 140.702 82.1062 141.621 81.0033 141.621C79.9004 141.621 78.955 140.702 78.955 139.63Z" fill="#8585BC"/>
</g>
<defs>
<clipPath id="clip0_1484_7143">
<rect width="285" height="156" fill="white" transform="translate(285 210) rotate(180)"/>
</clipPath>
</defs>
</svg>
