<svg width="50" height="50" viewBox="0 0 50 50" fill="none" xmlns="http://www.w3.org/2000/svg">
<g filter="url(#filter0_d_2035_10769)">
<path d="M25 44C13.4277 44 4 34.5723 4 23C4 11.4277 13.4277 2 25 2C36.5723 2 46 11.4277 46 23C46 34.5723 36.5723 44 25 44ZM25 4.01064C14.5 4.01064 6.01064 12.5 6.01064 23C6.01064 33.5 14.5 41.9894 25 41.9894C35.4553 41.9894 43.9894 33.4553 43.9894 23C43.9894 12.5447 35.4553 4.01064 25 4.01064Z" fill="white"/>
<circle cx="25" cy="23" r="21" fill="#373765"/>
<path d="M22.3188 30.9978C22.0061 30.9978 21.6486 30.8637 21.4252 30.6403L15.0359 24.2063C14.5444 23.7148 14.5444 22.9105 15.0359 22.419C15.5273 21.9275 16.3316 21.9275 16.8231 22.419L22.3188 28.0041L33.1763 17.1467C33.6678 16.6552 34.472 16.6552 34.9635 17.1467C35.455 17.6382 35.455 18.4424 34.9635 18.9339L23.2125 30.6403C22.989 30.8637 22.6763 30.9978 22.3188 30.9978Z" fill="white"/>
</g>
<defs>
<filter id="filter0_d_2035_10769" x="0" y="0" width="50" height="50" filterUnits="userSpaceOnUse" color-interpolation-filters="sRGB">
<feFlood flood-opacity="0" result="BackgroundImageFix"/>
<feColorMatrix in="SourceAlpha" type="matrix" values="0 0 0 0 0 0 0 0 0 0 0 0 0 0 0 0 0 0 127 0" result="hardAlpha"/>
<feOffset dy="2"/>
<feGaussianBlur stdDeviation="2"/>
<feColorMatrix type="matrix" values="0 0 0 0 0 0 0 0 0 0 0 0 0 0 0 0 0 0 0.16 0"/>
<feBlend mode="normal" in2="BackgroundImageFix" result="effect1_dropShadow_2035_10769"/>
<feBlend mode="normal" in="SourceGraphic" in2="effect1_dropShadow_2035_10769" result="shape"/>
</filter>
</defs>
</svg>
