<svg viewBox="0 0 22 23" fill="none" xmlns="http://www.w3.org/2000/svg">
<path d="M6.03491 23C5.87032 23 5.70574 22.9442 5.54115 22.8883C5.04738 22.665 4.77307 22.2184 4.77307 21.716V17.4175H2.3591C1.04239 17.4733 0 16.4126 0 15.0728V2.40049C0 1.06068 1.04239 0 2.3591 0H19.6409C20.9576 0 22 1.06068 22 2.40049V15.0728C22 16.4126 20.9576 17.4733 19.6409 17.4733H11.4115L6.96758 22.6092C6.69327 22.8883 6.36409 23 6.03491 23ZM2.3591 1.1165C1.64589 1.1165 1.09726 1.67476 1.09726 2.40049V15.0728C1.09726 15.7985 1.64589 16.3568 2.3591 16.3568H5.37656C5.70574 16.3568 5.92519 16.5801 5.92519 16.915V21.7718C5.92519 21.8277 5.98005 21.8835 6.03491 21.9393C6.08978 21.9393 6.14464 21.9393 6.1995 21.8835L10.808 16.5801C10.9177 16.4684 11.0823 16.4126 11.2469 16.4126H19.6958C20.409 16.4126 20.9576 15.8544 20.9576 15.1286V2.40049C20.9027 1.67476 20.2993 1.1165 19.6409 1.1165H2.3591Z" fill="#4E4E8D"/>
<path d="M6.03491 23C5.87032 23 5.70574 22.9442 5.54115 22.8883C5.04738 22.665 4.77307 22.2184 4.77307 21.716V17.4175H2.3591C1.04239 17.4733 0 16.4126 0 15.0728V2.40049C0 1.06068 1.04239 0 2.3591 0H19.6409C20.9576 0 22 1.06068 22 2.40049V15.0728C22 16.4126 20.9576 17.4733 19.6409 17.4733H11.4115L6.96758 22.6092C6.69327 22.8883 6.36409 23 6.03491 23ZM2.3591 1.1165C1.64589 1.1165 1.09726 1.67476 1.09726 2.40049V15.0728C1.09726 15.7985 1.64589 16.3568 2.3591 16.3568H5.37656C5.70574 16.3568 5.92519 16.5801 5.92519 16.915V21.7718C5.92519 21.8277 5.98005 21.8835 6.03491 21.9393C6.08978 21.9393 6.14464 21.9393 6.1995 21.8835L10.808 16.5801C10.9177 16.4684 11.0823 16.4126 11.2469 16.4126H19.6958C20.409 16.4126 20.9576 15.8544 20.9576 15.1286V2.40049C20.9027 1.67476 20.2993 1.1165 19.6409 1.1165H2.3591Z" fill="black" fill-opacity="0.2"/>
<path d="M10.9725 11.8907C10.6433 11.8907 10.4239 11.6674 10.4239 11.3324V10.9975C10.4239 9.65769 11.1919 8.87614 11.8503 8.20623C12.5086 7.53633 12.9475 7.0339 12.9475 6.25235C12.9475 5.13585 12.0697 4.29847 11.0273 4.29847C9.98495 4.29847 9.10715 5.19167 9.10715 6.25235C9.10715 6.5873 8.8877 6.8106 8.55852 6.8106C8.22934 6.8106 8.00989 6.5873 8.00989 6.25235C7.95503 4.46594 9.3266 3.07031 10.9725 3.07031C12.6184 3.07031 13.9899 4.46594 13.9899 6.1407C13.9899 7.48051 13.2219 8.20623 12.6184 8.87614C11.96 9.60186 11.5211 10.0485 11.5211 10.8858V11.2208C11.5211 11.6116 11.3017 11.8907 10.9725 11.8907Z" fill="#4E4E8D"/>
<path d="M10.9725 11.8907C10.6433 11.8907 10.4239 11.6674 10.4239 11.3324V10.9975C10.4239 9.65769 11.1919 8.87614 11.8503 8.20623C12.5086 7.53633 12.9475 7.0339 12.9475 6.25235C12.9475 5.13585 12.0697 4.29847 11.0273 4.29847C9.98495 4.29847 9.10715 5.19167 9.10715 6.25235C9.10715 6.5873 8.8877 6.8106 8.55852 6.8106C8.22934 6.8106 8.00989 6.5873 8.00989 6.25235C7.95503 4.46594 9.3266 3.07031 10.9725 3.07031C12.6184 3.07031 13.9899 4.46594 13.9899 6.1407C13.9899 7.48051 13.2219 8.20623 12.6184 8.87614C11.96 9.60186 11.5211 10.0485 11.5211 10.8858V11.2208C11.5211 11.6116 11.3017 11.8907 10.9725 11.8907Z" fill="black" fill-opacity="0.2"/>
<path d="M10.9727 14.3469C10.9178 14.3469 10.8629 14.3469 10.8081 14.3469C10.7532 14.3469 10.6984 14.3469 10.6435 14.2911C10.5886 14.2911 10.5338 14.2353 10.5338 14.2353C10.5338 14.2353 10.4789 14.1794 10.424 14.1236C10.2595 13.9561 10.2046 13.7887 10.2046 13.5654C10.2046 13.5095 10.2046 13.4537 10.2046 13.3979C10.2046 13.3421 10.2046 13.2862 10.2595 13.2304C10.2595 13.1746 10.3143 13.1188 10.3143 13.1188C10.3143 13.0629 10.3692 13.0629 10.424 13.0071C10.4789 12.9513 10.4789 12.9513 10.5338 12.8955C10.5886 12.8396 10.6435 12.8396 10.6435 12.8396C10.6984 12.8396 10.7532 12.7838 10.8081 12.7838C11.0275 12.728 11.3018 12.8396 11.5213 13.0071C11.5762 13.0629 11.5762 13.0629 11.631 13.1188C11.631 13.1746 11.6859 13.2304 11.6859 13.2304C11.6859 13.2862 11.7407 13.3421 11.7407 13.3979C11.7407 13.4537 11.7407 13.5095 11.7407 13.5654C11.7407 13.7887 11.631 13.9561 11.5213 14.1236C11.4116 14.2353 11.1921 14.3469 10.9727 14.3469Z" fill="#4E4E8D"/>
<path d="M10.9727 14.3469C10.9178 14.3469 10.8629 14.3469 10.8081 14.3469C10.7532 14.3469 10.6984 14.3469 10.6435 14.2911C10.5886 14.2911 10.5338 14.2353 10.5338 14.2353C10.5338 14.2353 10.4789 14.1794 10.424 14.1236C10.2595 13.9561 10.2046 13.7887 10.2046 13.5654C10.2046 13.5095 10.2046 13.4537 10.2046 13.3979C10.2046 13.3421 10.2046 13.2862 10.2595 13.2304C10.2595 13.1746 10.3143 13.1188 10.3143 13.1188C10.3143 13.0629 10.3692 13.0629 10.424 13.0071C10.4789 12.9513 10.4789 12.9513 10.5338 12.8955C10.5886 12.8396 10.6435 12.8396 10.6435 12.8396C10.6984 12.8396 10.7532 12.7838 10.8081 12.7838C11.0275 12.728 11.3018 12.8396 11.5213 13.0071C11.5762 13.0629 11.5762 13.0629 11.631 13.1188C11.631 13.1746 11.6859 13.2304 11.6859 13.2304C11.6859 13.2862 11.7407 13.3421 11.7407 13.3979C11.7407 13.4537 11.7407 13.5095 11.7407 13.5654C11.7407 13.7887 11.631 13.9561 11.5213 14.1236C11.4116 14.2353 11.1921 14.3469 10.9727 14.3469Z" fill="black" fill-opacity="0.2"/>
</svg>
