<svg viewBox="0 0 21 21" fill="none" xmlns="http://www.w3.org/2000/svg">
<path d="M5.7606 21C5.60349 21 5.44638 20.949 5.28928 20.8981C4.81796 20.6942 4.55611 20.2864 4.55611 19.8277V15.9029H2.25187C0.995013 15.9539 0 14.9854 0 13.7621V2.19175C0 0.968447 0.995013 0 2.25187 0H18.7481C20.005 0 21 0.968447 21 2.19175V13.7621C21 14.9854 20.005 15.9539 18.7481 15.9539H10.8928L6.65087 20.6432C6.38903 20.8981 6.07481 21 5.7606 21ZM2.25187 1.01942C1.57107 1.01942 1.04738 1.52913 1.04738 2.19175V13.7621C1.04738 14.4248 1.57107 14.9345 2.25187 14.9345H5.13217C5.44638 14.9345 5.65586 15.1383 5.65586 15.4442V19.8786C5.65586 19.9296 5.70823 19.9806 5.7606 20.0316C5.81297 20.0316 5.86534 20.0316 5.91771 19.9806L10.3167 15.1383C10.4214 15.0364 10.5786 14.9854 10.7357 14.9854H18.8005C19.4813 14.9854 20.005 14.4757 20.005 13.8131V2.19175C19.9526 1.52913 19.3766 1.01942 18.7481 1.01942H2.25187Z" fill="white"/>
<path d="M10.474 10.8567C10.1598 10.8567 9.95029 10.6529 9.95029 10.347V10.0412C9.95029 8.81791 10.6835 8.10431 11.3119 7.49266C11.9403 6.88101 12.3593 6.42228 12.3593 5.70868C12.3593 4.68927 11.5214 3.9247 10.5263 3.9247C9.53134 3.9247 8.69343 4.74024 8.69343 5.70868C8.69343 6.01451 8.48396 6.21839 8.16974 6.21839C7.85553 6.21839 7.64605 6.01451 7.64605 5.70868C7.59368 4.07762 8.90291 2.80334 10.474 2.80334C12.0451 2.80334 13.3543 4.07762 13.3543 5.60674C13.3543 6.83004 12.6211 7.49266 12.0451 8.10431C11.4166 8.76694 10.9977 9.1747 10.9977 9.93927V10.2451C10.9977 10.6019 10.7882 10.8567 10.474 10.8567Z" fill="white"/>
<path d="M10.4739 13.0995C10.4215 13.0995 10.3692 13.0995 10.3168 13.0995C10.2644 13.0995 10.212 13.0995 10.1597 13.0485C10.1073 13.0485 10.0549 12.9976 10.0549 12.9976C10.0549 12.9976 10.0026 12.9466 9.9502 12.8956C9.79309 12.7427 9.74072 12.5898 9.74072 12.3859C9.74072 12.3349 9.74072 12.284 9.74072 12.233C9.74072 12.182 9.74072 12.1311 9.79309 12.0801C9.79309 12.0291 9.84546 11.9781 9.84546 11.9781C9.84546 11.9272 9.89783 11.9272 9.9502 11.8762C10.0026 11.8252 10.0026 11.8252 10.0549 11.7743C10.1073 11.7233 10.1597 11.7233 10.1597 11.7233C10.212 11.7233 10.2644 11.6723 10.3168 11.6723C10.5263 11.6213 10.7881 11.7233 10.9976 11.8762C11.05 11.9272 11.05 11.9272 11.1023 11.9781C11.1023 12.0291 11.1547 12.0801 11.1547 12.0801C11.1547 12.1311 11.2071 12.182 11.2071 12.233C11.2071 12.284 11.2071 12.3349 11.2071 12.3859C11.2071 12.5898 11.1023 12.7427 10.9976 12.8956C10.8928 12.9976 10.6834 13.0995 10.4739 13.0995Z" fill="white"/>
</svg>
