<svg viewBox="0 0 14 16" fill="none" xmlns="http://www.w3.org/2000/svg">
<path d="M9.95336 3.40374C9.88223 3.40374 9.81339 3.37924 9.75896 3.33456C9.70452 3.28988 9.66798 3.22788 9.65578 3.15948C9.53821 2.48009 9.19073 1.85877 8.66885 1.39483C8.14698 0.930892 7.48085 0.651106 6.77691 0.600195C6.01403 0.556286 5.26211 0.793933 4.67036 1.26598C4.07861 1.73802 3.69028 2.40997 3.58244 3.14848C3.57073 3.22637 3.52783 3.29655 3.46315 3.34358C3.39848 3.39062 3.31733 3.41067 3.23751 3.39934C3.19797 3.39423 3.15987 3.38147 3.12544 3.3618C3.09101 3.34214 3.06095 3.31596 3.03702 3.28481C3.01308 3.25366 2.99576 3.21816 2.98605 3.18039C2.97635 3.14262 2.97447 3.10334 2.98051 3.06486C3.11011 2.17882 3.57599 1.37264 4.28582 0.806104C4.99566 0.239564 5.89763 -0.0459862 6.81298 0.00603965C7.65264 0.0642633 8.448 0.395808 9.07173 0.947596C9.69546 1.49938 10.1115 2.2395 10.2532 3.04945C10.2607 3.08792 10.2602 3.12745 10.2518 3.16575C10.2435 3.20404 10.2274 3.24032 10.2045 3.27248C10.1817 3.30464 10.1524 3.33203 10.1186 3.35306C10.0848 3.37409 10.047 3.38832 10.0075 3.39494L9.95336 3.40374Z" fill="#171753"/>
<path d="M9.2208 16H3.99962C3.65082 15.9999 3.31403 15.8756 3.05251 15.6503C2.791 15.425 2.62274 15.1143 2.57935 14.7764L1.34619 5.13564C1.34649 5.01022 1.37209 4.88608 1.42153 4.77032C1.47098 4.65456 1.54329 4.54944 1.63435 4.46096C1.72542 4.37248 1.83344 4.30237 1.95226 4.25464C2.07108 4.20691 2.19837 4.18249 2.32686 4.18278H10.8936C11.0234 4.18044 11.1524 4.20335 11.273 4.25016C11.3936 4.29697 11.5035 4.36675 11.5963 4.45544C11.689 4.54412 11.7628 4.64994 11.8132 4.76672C11.8636 4.8835 11.8897 5.00891 11.89 5.13564V5.17305C11.89 5.24346 10.9747 12.1951 10.6523 14.7742C10.6088 15.1141 10.439 15.4267 10.1751 15.6526C9.91129 15.8785 9.57174 16.0021 9.2208 16V16ZM1.97066 5.12023L3.19931 14.7016C3.22357 14.8961 3.32002 15.0752 3.4704 15.2049C3.62079 15.3347 3.81468 15.4062 4.0154 15.4058H9.22981C9.4304 15.4057 9.62403 15.3341 9.77431 15.2044C9.92459 15.0747 10.0212 14.8959 10.0459 14.7016C10.3593 12.1951 11.225 5.55155 11.2813 5.12023C11.2767 5.02722 11.2354 4.93956 11.166 4.87558C11.0967 4.8116 11.0047 4.77626 10.9093 4.77694H2.34264C2.2474 4.7768 2.15573 4.81233 2.08653 4.87619C2.01733 4.94006 1.97585 5.02741 1.97066 5.12023V5.12023Z" fill="#171753"/>
<path d="M4.70034 13.1017C4.61962 13.1017 4.54221 13.0704 4.48514 13.0147C4.42806 12.959 4.396 12.8834 4.396 12.8046V7.30318C4.39659 7.22457 4.42884 7.14934 4.48579 7.09375C4.54273 7.03816 4.6198 7.00668 4.70034 7.0061C4.78106 7.0061 4.85847 7.0374 4.91554 7.09311C4.97262 7.14882 5.00468 7.22439 5.00468 7.30318V12.8046C5.00498 12.8437 4.99731 12.8825 4.98213 12.9187C4.96694 12.9549 4.94453 12.9877 4.91621 13.0154C4.88789 13.043 4.85422 13.0649 4.81716 13.0797C4.7801 13.0945 4.74039 13.102 4.70034 13.1017V13.1017Z" fill="#171753"/>
<path d="M8.53335 13.1392C8.45263 13.1392 8.37522 13.1079 8.31814 13.0522C8.26107 12.9965 8.229 12.9209 8.229 12.8421V7.34067C8.229 7.26188 8.26107 7.18632 8.31814 7.1306C8.37522 7.07489 8.45263 7.04359 8.53335 7.04359C8.5734 7.04329 8.61311 7.05078 8.65017 7.06561C8.68723 7.08043 8.7209 7.10231 8.74922 7.12995C8.77754 7.1576 8.79995 7.19046 8.81513 7.22664C8.83032 7.26281 8.83799 7.30157 8.83769 7.34067V12.8421C8.83799 12.8812 8.83032 12.92 8.81513 12.9562C8.79995 12.9924 8.77754 13.0252 8.74922 13.0529C8.7209 13.0805 8.68723 13.1024 8.65017 13.1172C8.61311 13.132 8.5734 13.1395 8.53335 13.1392V13.1392Z" fill="#171753"/>
<path d="M6.61684 13.1392C6.53613 13.1392 6.45871 13.1079 6.40164 13.0522C6.34456 12.9964 6.3125 12.9209 6.3125 12.8421V7.34062C6.3125 7.26183 6.34456 7.18627 6.40164 7.13056C6.45871 7.07484 6.53613 7.04354 6.61684 7.04354C6.65764 7.04205 6.69833 7.04865 6.73644 7.06294C6.77455 7.07723 6.8093 7.09891 6.83859 7.12668C6.86788 7.15445 6.8911 7.18772 6.90684 7.22449C6.92259 7.26126 6.93054 7.30077 6.9302 7.34062V12.8421C6.93054 12.8819 6.92259 12.9214 6.90684 12.9582C6.8911 12.995 6.86788 13.0283 6.83859 13.056C6.8093 13.0838 6.77455 13.1055 6.73644 13.1198C6.69833 13.1341 6.65764 13.1407 6.61684 13.1392V13.1392Z" fill="#171753"/>
<path d="M12.929 4.77698H0.304345C0.223628 4.77698 0.146218 4.74568 0.0891425 4.68997C0.032067 4.63425 0 4.55869 0 4.4799C0 4.40111 0.032067 4.32555 0.0891425 4.26984C0.146218 4.21412 0.223628 4.18282 0.304345 4.18282H12.929C12.9698 4.18133 13.0104 4.18793 13.0486 4.20222C13.0867 4.21651 13.1214 4.2382 13.1507 4.26596C13.18 4.29373 13.2032 4.327 13.219 4.36378C13.2347 4.40055 13.2427 4.44005 13.2423 4.4799C13.2427 4.51975 13.2347 4.55926 13.219 4.59603C13.2032 4.6328 13.18 4.66607 13.1507 4.69384C13.1214 4.72161 13.0867 4.74329 13.0486 4.75758C13.0104 4.77187 12.9698 4.77847 12.929 4.77698V4.77698Z" fill="#171753"/>
</svg>
