<svg width="291" height="186" viewBox="0 0 291 186" fill="none" xmlns="http://www.w3.org/2000/svg">
<g clip-path="url(#clip0_3439_20238)">
<path d="M96.0832 136.896C171.817 136.896 233.23 75.9458 233.23 0.783512C233.23 0.510194 233.23 0.236865 233.23 0.236865L165.207 0.236871C165.207 0.510188 165.207 0.783518 165.207 0.783518C165.207 38.5013 134.363 69.1128 96.3586 69.1128C58.3541 69.1128 27.5099 38.5013 27.5099 0.78353C27.5099 0.510212 27.5099 0.236882 27.5099 0.236882L-40.5125 0.236888C-40.5125 0.510206 -40.5125 0.783535 -40.5125 0.783535C-41.0633 75.9458 20.3497 136.896 96.0832 136.896Z" fill="#373765"/>
<path d="M81.6111 180.823C80.295 180.823 79.2281 181.882 79.2281 183.188C79.2281 184.494 80.295 185.553 81.6111 185.553C82.9272 185.553 83.9941 184.494 83.9941 183.188C83.9941 181.882 82.9272 180.823 81.6111 180.823Z" fill="#5ED9D1"/>
<path d="M57.4136 183.188C57.4136 181.915 58.5135 180.823 59.7967 180.823C61.0798 180.823 62.1797 181.915 62.1797 183.188C62.1797 184.462 61.0798 185.553 59.7967 185.553C58.5135 185.553 57.4136 184.462 57.4136 183.188Z" fill="#5ED9D1"/>
<path d="M35.5992 183.188C35.5992 181.915 36.699 180.823 37.9822 180.823C39.2654 180.823 40.3652 181.915 40.3652 183.188C40.3652 184.462 39.2654 185.553 37.9822 185.553C36.699 185.553 35.5992 184.462 35.5992 183.188Z" fill="#5ED9D1"/>
<path d="M15.9851 180.823C14.669 180.823 13.6021 181.882 13.6021 183.188C13.6021 184.494 14.669 185.553 15.9851 185.553C17.3012 185.553 18.3682 184.494 18.3682 183.188C18.3682 181.882 17.3012 180.823 15.9851 180.823Z" fill="#5ED9D1"/>
<path d="M81.6111 158.082C80.295 158.082 79.2281 159.141 79.2281 160.447C79.2281 161.753 80.295 162.812 81.6111 162.812C82.9272 162.812 83.9941 161.753 83.9941 160.447C83.9941 159.141 82.9272 158.082 81.6111 158.082Z" fill="#5ED9D1"/>
<path d="M57.4136 160.447C57.4136 159.173 58.5135 158.082 59.7967 158.082C61.0798 158.082 62.1797 159.173 62.1797 160.447C62.1797 161.72 61.0798 162.812 59.7967 162.812C58.5135 162.63 57.4136 161.72 57.4136 160.447Z" fill="#5ED9D1"/>
<path d="M35.5992 160.447C35.5992 159.173 36.699 158.082 37.9822 158.082C39.2654 158.082 40.3652 159.173 40.3652 160.447C40.3652 161.72 39.2654 162.812 37.9822 162.812C36.699 162.63 35.5992 161.72 35.5992 160.447Z" fill="#5ED9D1"/>
<path d="M15.9851 158.082C14.669 158.082 13.6021 159.141 13.6021 160.447C13.6021 161.753 14.669 162.812 15.9851 162.812C17.3012 162.812 18.3682 161.753 18.3682 160.447C18.3682 159.141 17.3012 158.082 15.9851 158.082Z" fill="#5ED9D1"/>
<path d="M79.4109 137.525C79.4109 136.251 80.5108 135.16 81.794 135.16C83.0771 135.16 84.177 136.251 84.177 137.525C84.177 138.798 83.0771 139.89 81.794 139.89C80.3275 139.89 79.4109 138.798 79.4109 137.525Z" fill="#5ED9D1"/>
<path d="M57.4139 137.525C57.4139 136.251 58.5137 135.16 59.7969 135.16C61.0801 135.16 62.1799 136.251 62.1799 137.525C62.1799 138.798 61.0801 139.89 59.7969 139.89C58.5137 139.89 57.4139 138.798 57.4139 137.525Z" fill="#5ED9D1"/>
<path d="M35.5992 137.525C35.5992 136.251 36.699 135.16 37.9822 135.16C39.2654 135.16 40.3652 136.251 40.3652 137.525C40.3652 138.798 39.2654 139.89 37.9822 139.89C36.699 139.89 35.5992 138.798 35.5992 137.525Z" fill="#5ED9D1"/>
<path d="M13.7847 137.525C13.7847 136.251 14.8845 135.16 16.1677 135.16C17.4509 135.16 18.5508 136.251 18.5508 137.525C18.5508 138.798 17.4509 139.89 16.1677 139.89C14.8845 139.89 13.7847 138.798 13.7847 137.525Z" fill="#5ED9D1"/>
<path d="M81.6111 112.236C80.295 112.236 79.2281 113.295 79.2281 114.601C79.2281 115.907 80.295 116.966 81.6111 116.966C82.9272 116.966 83.9941 115.907 83.9941 114.601C83.9941 113.295 82.9272 112.236 81.6111 112.236Z" fill="#5ED9D1"/>
<path d="M57.4136 114.601C57.4136 113.328 58.5135 112.236 59.7967 112.236C61.0798 112.236 62.1797 113.328 62.1797 114.601C62.1797 115.875 61.0798 116.966 59.7967 116.966C58.5135 116.966 57.4136 115.875 57.4136 114.601Z" fill="#5ED9D1"/>
<path d="M35.5992 114.601C35.5992 113.328 36.699 112.236 37.9822 112.236C39.2654 112.236 40.3652 113.328 40.3652 114.601C40.3652 115.875 39.2654 116.966 37.9822 116.966C36.699 116.966 35.5992 115.875 35.5992 114.601Z" fill="#5ED9D1"/>
<path d="M15.9851 112.236C14.669 112.236 13.6021 113.295 13.6021 114.601C13.6021 115.907 14.669 116.966 15.9851 116.966C17.3012 116.966 18.3682 115.907 18.3682 114.601C18.3682 113.295 17.3012 112.236 15.9851 112.236Z" fill="#5ED9D1"/>
</g>
<defs>
<clipPath id="clip0_3439_20238">
<rect width="331.575" height="185.309" fill="white" transform="translate(290.513 185.545) rotate(180)"/>
</clipPath>
</defs>
</svg>
