<svg viewBox="0 0 29 28" fill="none" xmlns="http://www.w3.org/2000/svg">
<path d="M15.0595 19.4722C11.6112 19.7894 8.70747 17.0497 9.04019 13.7333C9.28217 11.282 11.3693 9.32097 13.9403 9.06142C17.3885 8.7442 20.2923 11.4839 19.9596 14.8003C19.6873 17.2516 17.6305 19.2126 15.0595 19.4722ZM15.0595 10.1285C12.2162 9.78239 9.79638 12.0895 10.1594 14.8292C10.4013 16.6748 11.9742 18.2033 13.9403 18.434C16.8138 18.7801 19.2336 16.473 18.8707 13.7333C18.5984 11.8588 17.0256 10.3592 15.0595 10.1285Z" fill="white"/>
<path d="M17.2378 27.864H11.763C11.4907 27.864 11.2488 27.6622 11.2185 27.4026L10.7951 24.115C9.5549 23.7113 8.43574 23.0768 7.43757 22.2693L4.23133 23.5671C3.98935 23.6824 3.68687 23.5671 3.53563 23.3364L0.7831 18.8087C0.66211 18.578 0.722605 18.2896 0.934338 18.1166L3.71712 16.1267C3.59613 15.5211 3.53563 14.9155 3.53563 14.281C3.53563 13.6466 3.59613 13.041 3.71712 12.4353L0.934338 10.4455C0.722605 10.3013 0.66211 9.98405 0.7831 9.75334L3.53563 5.22567C3.68687 4.99496 3.9591 4.90844 4.23133 4.99496L7.43757 6.2927C8.43574 5.48522 9.5549 4.87961 10.7951 4.44703L11.2185 1.15942C11.2488 0.899869 11.4907 0.697998 11.763 0.697998H17.2378C17.51 0.697998 17.752 0.899869 17.7822 1.15942L18.2057 4.44703C19.4459 4.85077 20.565 5.48522 21.5632 6.2927L24.7694 4.99496C25.0114 4.87961 25.3139 4.99496 25.4651 5.22567L28.2177 9.75334C28.3689 9.98405 28.3084 10.2724 28.0664 10.4455L25.2836 12.4353C25.4046 13.041 25.4651 13.6466 25.4651 14.281C25.4651 14.9155 25.4046 15.5211 25.2836 16.1267L28.0664 18.1166C28.2782 18.2608 28.3387 18.578 28.2177 18.8087L25.4651 23.3364C25.3139 23.5671 25.0417 23.6536 24.7694 23.5671L21.5632 22.2693C20.565 23.0768 19.4156 23.6824 18.2057 24.115L17.7822 27.4026C17.752 27.6622 17.51 27.864 17.2378 27.864ZM12.2469 26.797H16.7538L17.1773 23.6247C17.2075 23.4229 17.3588 23.2498 17.5705 23.1922C18.8712 22.7884 20.0811 22.154 21.1095 21.26C21.2607 21.1158 21.5027 21.0869 21.6842 21.1735L24.7694 22.4135L27.038 18.6933L24.3762 16.79C24.1947 16.6746 24.1342 16.4439 24.1645 16.242C24.3157 15.6076 24.3762 14.9443 24.3762 14.281C24.3762 13.6177 24.3157 12.9544 24.1645 12.32C24.104 12.1181 24.1947 11.9162 24.3762 11.772L27.038 9.8687L24.7694 6.14851L21.6842 7.38857C21.4725 7.47509 21.2607 7.41741 21.1095 7.30205C20.0811 6.40806 18.8712 5.77361 17.5705 5.36986C17.3588 5.31219 17.2075 5.13915 17.1773 4.93728L16.7538 1.73619H12.2469L11.8235 4.90844C11.7932 5.11032 11.642 5.28335 11.4303 5.34102C10.1296 5.74477 8.9197 6.37922 7.89129 7.27322C7.74005 7.41741 7.49807 7.44625 7.31658 7.35973L4.23133 6.11967L1.993 9.8687L4.65479 11.772C4.83628 11.8874 4.89677 12.1181 4.86653 12.32C4.71529 12.9544 4.65479 13.5889 4.65479 14.2522C4.65479 14.9155 4.71529 15.5788 4.86653 16.1844C4.92702 16.3862 4.83628 16.5881 4.65479 16.7323L1.993 18.6357L4.26157 22.3558L7.31658 21.1735C7.52831 21.0869 7.74005 21.1446 7.89129 21.26C8.9197 22.154 10.1296 22.7884 11.4303 23.1922C11.642 23.2498 11.7932 23.4229 11.8235 23.6247L12.2469 26.797Z" fill="white"/>
</svg>
