<svg viewBox="0 0 32 31" fill="none" xmlns="http://www.w3.org/2000/svg">
<path fill-rule="evenodd" clip-rule="evenodd" d="M29.8043 17.9877C29.3884 17.2082 28.3922 16.9281 27.6407 17.3881L21.3035 21.2671C21.0423 21.4269 20.7097 21.3298 20.5605 21.05C20.4113 20.7703 20.502 20.414 20.7631 20.2542L27.1003 16.3752C28.3501 15.6102 30.0221 16.0446 30.7499 17.4089C31.464 18.7476 31.0584 20.5386 29.7849 21.3181L29.7841 21.3186L20.4877 26.987C19.988 27.2844 19.4213 27.4687 18.7938 27.4687H11.7895C11.3607 27.4687 10.9442 27.5946 10.6145 27.8301C10.6073 27.8352 10.6 27.8402 10.5926 27.845L8.9249 28.9168C8.66701 29.0825 8.33252 28.993 8.17778 28.7167C8.02305 28.4405 8.10667 28.0822 8.36456 27.9164L10.0217 26.8513C10.5474 26.4798 11.1745 26.3021 11.7895 26.3021H18.7938C19.2137 26.3021 19.5992 26.1807 19.9565 25.9686C19.9572 25.9681 19.958 25.9676 19.9588 25.9672L29.2445 20.3052C29.2446 20.3052 29.2444 20.3053 29.2445 20.3052C29.972 19.8598 30.2336 18.7926 29.8043 17.9877Z" fill="white"/>
<path fill-rule="evenodd" clip-rule="evenodd" d="M8.70905 17.481C9.2504 17.1513 9.9394 17 10.5553 17H18.376C19.8876 17 21.1001 18.1128 21.1001 19.5C21.1001 20.8872 19.8876 22 18.376 22H12.8243C12.5196 22 12.2725 21.7733 12.2725 21.4937C12.2725 21.214 12.5196 20.9873 12.8243 20.9873H18.376C19.2782 20.9873 19.9967 20.328 19.9967 19.5C19.9967 18.672 19.2782 18.0127 18.376 18.0127H10.5553C10.1109 18.0127 9.64345 18.1263 9.31653 18.3264L9.30778 18.3316L3.94918 21.4772C3.69249 21.6278 3.3513 21.559 3.18711 21.3235C3.02292 21.0879 3.09791 20.7748 3.3546 20.6241L8.70905 17.481Z" fill="white"/>
<path fill-rule="evenodd" clip-rule="evenodd" d="M2.59231 19.084C2.8408 18.9194 3.16288 19.004 3.31762 19.2745L8.91754 29.0658C9.07209 29.3361 9.00326 29.6931 8.76245 29.8704L7.36247 30.901C7.1174 31.0814 6.78627 31.0083 6.62288 30.7377C6.4595 30.467 6.52572 30.1014 6.7708 29.921L7.73785 29.209L2.69413 20.3902L0.807799 21.64C0.555227 21.8074 0.227627 21.7169 0.0760832 21.438C-0.0754602 21.1591 0.00643997 20.7974 0.259012 20.63L2.59231 19.084Z" fill="white"/>
<path fill-rule="evenodd" clip-rule="evenodd" d="M16.1001 0C16.3762 0 16.6001 0.244208 16.6001 0.545455V2.45455C16.6001 2.75579 16.3762 3 16.1001 3C15.824 3 15.6001 2.75579 15.6001 2.45455V0.545455C15.6001 0.244208 15.824 0 16.1001 0Z" fill="white"/>
<path fill-rule="evenodd" clip-rule="evenodd" d="M11.6001 2C11.8762 2 12.1001 2.24421 12.1001 2.54545V4.45455C12.1001 4.75579 11.8762 5 11.6001 5C11.324 5 11.1001 4.75579 11.1001 4.45455V2.54545C11.1001 2.24421 11.324 2 11.6001 2Z" fill="white"/>
<path fill-rule="evenodd" clip-rule="evenodd" d="M20.6001 2C20.8762 2 21.1001 2.24421 21.1001 2.54545V4.45455C21.1001 4.75579 20.8762 5 20.6001 5C20.324 5 20.1001 4.75579 20.1001 4.45455V2.54545C20.1001 2.24421 20.324 2 20.6001 2Z" fill="white"/>
<path fill-rule="evenodd" clip-rule="evenodd" d="M16.1001 6.07975C12.8489 6.07975 10.2314 8.57791 10.2314 11.681C10.2314 12.9778 10.6843 14.1846 11.4497 15.13C11.6407 15.3659 11.5952 15.705 11.348 15.8873C11.1008 16.0696 10.7455 16.0261 10.5545 15.7902C9.63711 14.6571 9.1001 13.2185 9.1001 11.681C9.1001 7.98158 12.2241 5 16.1001 5C19.9761 5 23.1001 7.98158 23.1001 11.681C23.1001 13.2193 22.5623 14.6636 21.5864 15.802C21.3886 16.0327 21.0322 16.0667 20.7904 15.8779C20.5486 15.6891 20.513 15.349 20.7108 15.1182C21.5167 14.1781 21.9688 12.977 21.9688 11.681C21.9688 8.57791 19.3513 6.07975 16.1001 6.07975Z" fill="white"/>
</svg>
