<svg width="32" height="28" viewBox="0 0 32 28" fill="none" xmlns="http://www.w3.org/2000/svg">
<path d="M18.2857 27.9811C18.1836 27.9811 18.0814 27.9468 17.9792 27.9126C17.7068 27.8097 17.5025 27.5012 17.5025 27.1927V20.6457C13.0418 20.5771 5.55041 20.9199 1.02155 22.7366C0.817239 22.8395 0.544826 22.8395 0.340516 22.6681C0.136206 22.531 0 22.291 0 22.0168C0 14.27 6.29955 7.92866 14.0293 7.92866H17.5366V1.14168C17.5366 0.833178 17.7068 0.558957 18.0133 0.421846C18.2857 0.319013 18.6262 0.35329 18.8305 0.593234L31.7701 13.6188C32.0766 13.9273 32.0766 14.4071 31.7701 14.7156L18.8305 27.7412C18.6943 27.8783 18.49 27.9811 18.2857 27.9811ZM17.2642 19.1032C17.6387 19.1032 17.9792 19.1032 18.3198 19.1032C18.7284 19.1032 19.0689 19.446 19.0689 19.8573V25.3074L30.1697 14.1329L19.0689 2.99267V8.68277C19.0689 9.0941 18.7284 9.43688 18.3198 9.43688H14.0293C7.49135 9.47116 2.14525 14.51 1.56637 20.9199C6.23144 19.4117 12.9737 19.1032 17.2642 19.1032Z" fill="#171753"/>
</svg>
