<svg viewBox="0 0 26 22" fill="none" xmlns="http://www.w3.org/2000/svg">
<path d="M14.8532 22C14.7702 22 14.6872 21.9727 14.6043 21.9453C14.383 21.8633 14.217 21.6174 14.217 21.3714V16.1515C10.5936 16.0969 4.50851 16.3702 0.829787 17.8186C0.66383 17.9006 0.442553 17.9006 0.276596 17.764C0.110638 17.6546 0 17.4633 0 17.2447C0 11.0683 5.11702 6.01241 11.3957 6.01241H14.2447V0.601226C14.2447 0.355263 14.383 0.136629 14.6319 0.0273125C14.8532 -0.0546751 15.1298 -0.0273459 15.2957 0.163958L25.8064 10.5491C26.0553 10.795 26.0553 11.1776 25.8064 11.4236L15.2957 21.8087C15.1851 21.918 15.0191 22 14.8532 22ZM14.0234 14.9217C14.3277 14.9217 14.6043 14.9217 14.8809 14.9217C15.2128 14.9217 15.4894 15.195 15.4894 15.523V19.8683L24.5064 10.959L15.4894 2.077V6.61365C15.4894 6.9416 15.2128 7.21489 14.8809 7.21489H11.3957C6.08511 7.24222 1.74255 11.2596 1.27234 16.3702C5.0617 15.1677 10.5383 14.9217 14.0234 14.9217Z" fill="#171753"/>
</svg>
