<svg viewBox="0 0 182 293" fill="none" xmlns="http://www.w3.org/2000/svg">
<g opacity="0.9">
<path opacity="0.9" d="M91.0464 291.521C101.818 291.521 110.551 226.485 110.551 146.26C110.551 66.0353 101.818 1.00003 91.0464 1.00003C80.2745 1.00003 71.5422 66.0353 71.5422 146.26C71.5422 226.485 80.2745 291.521 91.0464 291.521Z" stroke="#BEF0ED" stroke-miterlimit="10"/>
<path opacity="0.9" d="M91.0465 283.209C104.257 283.209 114.966 221.895 114.966 146.26C114.966 70.6257 104.257 9.31187 91.0465 9.31187C77.8362 9.31187 67.1271 70.6257 67.1271 146.26C67.1271 221.895 77.8362 283.209 91.0465 283.209Z" stroke="#BEF0ED" stroke-miterlimit="10"/>
<path opacity="0.9" d="M91.0463 274.887C106.69 274.887 119.371 217.299 119.371 146.26C119.371 75.222 106.69 17.634 91.0463 17.634C75.4031 17.634 62.7218 75.222 62.7218 146.26C62.7218 217.299 75.4031 274.887 91.0463 274.887Z" stroke="#BEF0ED" stroke-miterlimit="10"/>
<path opacity="0.9" d="M91.0464 266.575C109.122 266.575 123.776 212.708 123.776 146.26C123.776 79.8125 109.122 25.9459 91.0464 25.9459C72.9703 25.9459 58.3167 79.8125 58.3167 146.26C58.3167 212.708 72.9703 266.575 91.0464 266.575Z" stroke="#BEF0ED" stroke-miterlimit="10"/>
<path opacity="0.9" d="M91.0463 258.253C111.561 258.253 128.191 208.112 128.191 146.26C128.191 84.4087 111.561 34.2679 91.0463 34.2679C70.5318 34.2679 53.9015 84.4087 53.9015 146.26C53.9015 208.112 70.5318 258.253 91.0463 258.253Z" stroke="#BEF0ED" stroke-miterlimit="10"/>
<path opacity="0.9" d="M91.0465 249.941C113.994 249.941 132.596 203.521 132.596 146.26C132.596 88.9991 113.994 42.5798 91.0465 42.5798C68.099 42.5798 49.4965 88.9991 49.4965 146.26C49.4965 203.521 68.099 249.941 91.0465 249.941Z" stroke="#BEF0ED" stroke-miterlimit="10"/>
<path opacity="0.9" d="M91.0464 241.629C116.427 241.629 137.002 198.931 137.002 146.26C137.002 93.5898 116.427 50.8918 91.0464 50.8918C65.6661 50.8918 45.0914 93.5898 45.0914 146.26C45.0914 198.931 65.6661 241.629 91.0464 241.629Z" stroke="#BEF0ED" stroke-miterlimit="10"/>
<path opacity="0.9" d="M91.0463 233.307C118.865 233.307 141.417 194.335 141.417 146.26C141.417 98.1859 118.865 59.2139 91.0463 59.2139C63.2276 59.2139 40.6761 98.1859 40.6761 146.26C40.6761 194.335 63.2276 233.307 91.0463 233.307Z" stroke="#BEF0ED" stroke-miterlimit="10"/>
<path opacity="0.9" d="M91.0464 224.995C121.298 224.995 145.822 189.744 145.822 146.26C145.822 102.776 121.298 67.5257 91.0464 67.5257C60.7948 67.5257 36.2711 102.776 36.2711 146.26C36.2711 189.744 60.7948 224.995 91.0464 224.995Z" stroke="#BEF0ED" stroke-miterlimit="10"/>
<path opacity="0.9" d="M91.0464 216.683C123.731 216.683 150.227 185.154 150.227 146.26C150.227 107.367 123.731 75.8377 91.0464 75.8377C58.3619 75.8377 31.8659 107.367 31.8659 146.26C31.8659 185.154 58.3619 216.683 91.0464 216.683Z" stroke="#BEF0ED" stroke-miterlimit="10"/>
<path opacity="0.9" d="M91.0463 208.361C126.169 208.361 154.642 180.558 154.642 146.26C154.642 111.963 126.169 84.1597 91.0463 84.1597C55.9234 84.1597 27.4507 111.963 27.4507 146.26C27.4507 180.558 55.9234 208.361 91.0463 208.361Z" stroke="#BEF0ED" stroke-miterlimit="10"/>
<path opacity="0.9" d="M91.0465 200.049C128.602 200.049 159.047 175.967 159.047 146.26C159.047 116.554 128.602 92.4716 91.0465 92.4716C53.4907 92.4716 23.0457 116.554 23.0457 146.26C23.0457 175.967 53.4907 200.049 91.0465 200.049Z" stroke="#BEF0ED" stroke-miterlimit="10"/>
<path opacity="0.9" d="M91.0464 191.727C131.035 191.727 163.452 171.371 163.452 146.26C163.452 121.15 131.035 100.794 91.0464 100.794C51.0577 100.794 18.6404 121.15 18.6404 146.26C18.6404 171.371 51.0577 191.727 91.0464 191.727Z" stroke="#BEF0ED" stroke-miterlimit="10"/>
<path opacity="0.9" d="M91.0465 183.415C133.474 183.415 167.868 166.78 167.868 146.26C167.868 125.74 133.474 109.106 91.0465 109.106C48.6194 109.106 14.2254 125.74 14.2254 146.26C14.2254 166.78 48.6194 183.415 91.0465 183.415Z" stroke="#BEF0ED" stroke-miterlimit="10"/>
<path opacity="0.9" d="M91.0465 175.103C135.906 175.103 172.273 162.19 172.273 146.26C172.273 130.331 135.906 117.417 91.0465 117.417C46.1865 117.417 9.82026 130.331 9.82026 146.26C9.82026 162.19 46.1865 175.103 91.0465 175.103Z" stroke="#BEF0ED" stroke-miterlimit="10"/>
<path opacity="0.9" d="M91.0464 166.781C138.339 166.781 176.678 157.594 176.678 146.26C176.678 134.927 138.339 125.74 91.0464 125.74C43.7535 125.74 5.41504 134.927 5.41504 146.26C5.41504 157.594 43.7535 166.781 91.0464 166.781Z" stroke="#BEF0ED" stroke-miterlimit="10"/>
<path opacity="0.9" d="M91.0465 158.469C140.778 158.469 181.093 153.003 181.093 146.26C181.093 139.517 140.778 134.051 91.0465 134.051C41.3152 134.051 0.999989 139.517 0.999989 146.26C0.999989 153.003 41.3152 158.469 91.0465 158.469Z" stroke="#BEF0ED" stroke-miterlimit="10"/>
</g>
</svg>
