<svg viewBox="0 0 19 18" fill="none" xmlns="http://www.w3.org/2000/svg">
<path fill-rule="evenodd" clip-rule="evenodd" d="M5.20957 6.49606C5.32516 6.3078 5.57148 6.24889 5.75974 6.36448L9.70444 8.78647C9.8927 8.90205 9.95162 9.14837 9.83603 9.33663C9.72044 9.52489 9.47412 9.58381 9.28586 9.46822L5.34115 7.04623C5.15289 6.93064 5.09398 6.68432 5.20957 6.49606Z" fill="#373765"/>
<path fill-rule="evenodd" clip-rule="evenodd" d="M13.7505 6.52187C13.8686 6.70855 13.8131 6.95565 13.6264 7.07377L9.78482 9.50442C9.59814 9.62253 9.35105 9.56695 9.23293 9.38027C9.11481 9.19359 9.17039 8.94649 9.35708 8.82837L13.1986 6.39772C13.3853 6.2796 13.6324 6.33519 13.7505 6.52187Z" fill="#373765"/>
<path fill-rule="evenodd" clip-rule="evenodd" d="M9.50004 4.594L5.87227 6.78235V11.3495L9.44835 13.4088L13.1278 11.3746V6.78235L9.50004 4.594ZM9.84546 3.86808C9.63576 3.73294 9.36432 3.73294 9.15462 3.86808L5.38979 6.13911L5.38169 6.14455C5.20979 6.26004 5.07227 6.45634 5.07227 6.71691V11.4167C5.07227 11.6773 5.20979 11.8736 5.38169 11.9891L5.39317 11.9968L9.1059 14.1348C9.31236 14.2655 9.57739 14.2663 9.78454 14.1371L13.604 12.0254L13.6184 12.0158C13.7903 11.9003 13.9278 11.704 13.9278 11.4434V6.71691C13.9278 6.45634 13.7903 6.26004 13.6184 6.14455L13.6103 6.13911L9.84546 3.86808Z" fill="#373765"/>
<path fill-rule="evenodd" clip-rule="evenodd" d="M7.24165 10.1772C7.56232 9.62175 8.27251 9.43146 8.82791 9.75212L9.65667 10.2306C10.2121 10.5513 10.4024 11.2615 10.0817 11.8169C9.76104 12.3723 9.05085 12.5626 8.49545 12.2419L7.66669 11.7634C7.11129 11.4428 6.92099 10.7326 7.24165 10.1772ZM8.42791 10.4449C8.25514 10.3452 8.03422 10.4044 7.93447 10.5772C7.83473 10.7499 7.89392 10.9708 8.06669 11.0706L8.89545 11.5491C9.06822 11.6488 9.28914 11.5896 9.38889 11.4169C9.48864 11.2441 9.42944 11.0232 9.25667 10.9234L8.42791 10.4449Z" fill="#373765"/>
<path fill-rule="evenodd" clip-rule="evenodd" d="M9.05962 11.8169C8.73895 11.2615 8.92925 10.5513 9.48465 10.2307L10.3134 9.75219C10.8688 9.43152 11.579 9.62182 11.8997 10.1772C12.2203 10.7326 12.03 11.4428 11.4746 11.7635L10.6459 12.242C10.0905 12.5626 9.38028 12.3723 9.05962 11.8169ZM9.88465 10.9235C9.71188 11.0232 9.65269 11.2442 9.75244 11.4169C9.85218 11.5897 10.0731 11.6489 10.2459 11.5491L11.0746 11.0707C11.2474 10.9709 11.3066 10.75 11.2068 10.5772C11.1071 10.4045 10.8862 10.3453 10.7134 10.445L9.88465 10.9235Z" fill="#373765"/>
</svg>

