<svg width="22" height="19" viewBox="0 0 22 19" fill="none" xmlns="http://www.w3.org/2000/svg">
<g clip-path="url(#clip0_703_6656)">
<path d="M15.399 16.1041H4.53144C4.34556 16.1041 4.19141 15.9813 4.19141 15.8333V5.37215C4.19141 5.22409 4.34556 5.10132 4.53144 5.10132H15.399C15.5849 5.10132 15.739 5.22409 15.739 5.37215V15.8333C15.739 15.9813 15.5849 16.1041 15.399 16.1041ZM4.87148 15.5625H15.059V5.64297H4.87148V15.5625Z" fill="#237B75"/>
<path d="M15.3987 16.104C15.2853 16.104 15.1765 16.0607 15.113 15.9813C15.0088 15.8549 15.0541 15.6888 15.2128 15.6057L17.6656 14.331V11.8214C17.6656 11.6733 17.8197 11.5505 18.0056 11.5505C18.1915 11.5505 18.3457 11.6733 18.3457 11.8214V14.4791C18.3457 14.5694 18.2867 14.656 18.1915 14.7066L15.5846 16.0607C15.5256 16.0896 15.4621 16.104 15.3987 16.104Z" fill="#237B75"/>
<path d="M18.006 9.52471C17.8202 9.52471 17.666 9.40193 17.666 9.25388V4.28872H12.0939C11.9081 4.28872 11.7539 4.16595 11.7539 4.0179C11.7539 3.86985 11.9081 3.74707 12.0939 3.74707H18.006C18.1919 3.74707 18.3461 3.86985 18.3461 4.0179V9.25749C18.3461 9.40554 18.1919 9.52471 18.006 9.52471Z" fill="#237B75"/>
<path d="M4.53148 5.64322C4.41813 5.64322 4.30932 5.59989 4.24585 5.52045C4.14157 5.39406 4.18691 5.22796 4.34559 5.1449L6.95254 3.79077C7.00694 3.76188 7.07042 3.74744 7.13842 3.74744H9.06076C9.24665 3.74744 9.4008 3.87021 9.4008 4.01826C9.4008 4.16631 9.24665 4.28909 9.06076 4.28909H7.23817L4.71736 5.59989C4.65843 5.62878 4.59495 5.64322 4.53148 5.64322Z" fill="#237B75"/>
<path d="M15.3987 5.64292C15.2899 5.64292 15.181 5.59959 15.113 5.52015C15.0088 5.39376 15.0541 5.22766 15.2128 5.1446L17.8333 3.78325C17.992 3.70019 18.2006 3.7363 18.3048 3.86269C18.4091 3.98908 18.3638 4.15518 18.2051 4.23824L15.5846 5.59959C15.5256 5.62848 15.4621 5.64292 15.3987 5.64292Z" fill="#237B75"/>
<path d="M2.76804 11.0304C3.06601 11.0304 3.30757 10.8381 3.30757 10.6007C3.30757 10.3634 3.06601 10.171 2.76804 10.171C2.47007 10.171 2.22852 10.3634 2.22852 10.6007C2.22852 10.8381 2.47007 11.0304 2.76804 11.0304Z" fill="#237B75"/>
<path d="M1.49955 10.6995C1.56803 10.4685 1.38845 10.2371 1.09847 10.1825C0.808484 10.128 0.517896 10.271 0.449422 10.502C0.380948 10.7329 0.560519 10.9644 0.850504 11.0189C1.14049 11.0734 1.43108 10.9304 1.49955 10.6995Z" fill="#237B75"/>
<path d="M21.1479 11.0303C21.4459 11.0303 21.6875 10.8379 21.6875 10.6006C21.6875 10.3633 21.4459 10.1709 21.1479 10.1709C20.85 10.1709 20.6084 10.3633 20.6084 10.6006C20.6084 10.8379 20.85 11.0303 21.1479 11.0303Z" fill="#237B75"/>
<path d="M19.7364 10.904C19.9469 10.7364 19.9469 10.4646 19.7364 10.2969C19.5259 10.1293 19.1846 10.1293 18.9741 10.2969C18.7637 10.4646 18.7637 10.7364 18.9741 10.904C19.1846 11.0717 19.5259 11.0717 19.7364 10.904Z" fill="#237B75"/>
<path d="M17.5617 11.0303C17.8597 11.0303 18.1013 10.8379 18.1013 10.6006C18.1013 10.3633 17.8597 10.1709 17.5617 10.1709C17.2638 10.1709 17.0222 10.3633 17.0222 10.6006C17.0222 10.8379 17.2638 11.0303 17.5617 11.0303Z" fill="#237B75"/>
<path d="M10.6252 1.80083C10.9232 1.80083 11.1647 1.60844 11.1647 1.37112C11.1647 1.13379 10.9232 0.941406 10.6252 0.941406C10.3272 0.941406 10.0857 1.13379 10.0857 1.37112C10.0857 1.60844 10.3272 1.80083 10.6252 1.80083Z" fill="#237B75"/>
<path d="M11.1499 2.89734C11.2184 2.66638 11.0388 2.43493 10.7489 2.3804C10.4589 2.32586 10.1683 2.46888 10.0998 2.69985C10.0313 2.93081 10.2109 3.16225 10.5009 3.21679C10.7909 3.27133 11.0815 3.12831 11.1499 2.89734Z" fill="#237B75"/>
<path d="M10.6252 4.65715C10.9232 4.65715 11.1647 4.46476 11.1647 4.22744C11.1647 3.99012 10.9232 3.79773 10.6252 3.79773C10.3272 3.79773 10.0857 3.99012 10.0857 4.22744C10.0857 4.46476 10.3272 4.65715 10.6252 4.65715Z" fill="#237B75"/>
<path d="M10.6252 17.3644C10.9232 17.3644 11.1647 17.172 11.1647 16.9347C11.1647 16.6974 10.9232 16.505 10.6252 16.505C10.3272 16.505 10.0857 16.6974 10.0857 16.9347C10.0857 17.172 10.3272 17.3644 10.6252 17.3644Z" fill="#237B75"/>
<path d="M11.1485 18.4619C11.2169 18.231 11.0374 17.9995 10.7474 17.945C10.4574 17.8904 10.1668 18.0335 10.0983 18.2644C10.0299 18.4954 10.2094 18.7268 10.4994 18.7814C10.7894 18.8359 11.08 18.6929 11.1485 18.4619Z" fill="#237B75"/>
<path d="M10.2579 13.6052C10.0267 13.6052 9.79544 13.5547 9.58689 13.4536L7.4968 12.4208C7.12049 12.2331 6.8938 11.9117 6.8938 11.5614V9.40202C6.8938 9.04814 7.12049 8.72675 7.4968 8.54259L9.58689 7.50984C9.99946 7.30401 10.5118 7.30401 10.9289 7.50984L13.019 8.54259C13.3953 8.73037 13.622 9.05175 13.622 9.40202V11.5614C13.622 11.9153 13.3953 12.2367 13.019 12.4208L10.9289 13.4536C10.7203 13.5547 10.4891 13.6052 10.2579 13.6052ZM10.2579 7.85289C10.14 7.85289 10.0221 7.87816 9.91786 7.93233L7.82777 8.96147C7.63735 9.05536 7.524 9.21785 7.524 9.3984V11.5578C7.524 11.7383 7.63735 11.9008 7.82777 11.9947L9.91786 13.0275C10.1264 13.1322 10.3894 13.1322 10.5979 13.0275L12.688 11.9947C12.8784 11.9008 12.9918 11.7383 12.9918 11.5578V9.3984C12.9918 9.21785 12.8784 9.05536 12.688 8.96147L10.5979 7.92872C10.4936 7.87816 10.3758 7.85289 10.2579 7.85289Z" fill="#237B75"/>
<path d="M10.2581 11.8612C9.29691 11.8612 8.51709 11.2401 8.51709 10.4745C8.51709 9.70899 9.29691 9.08789 10.2581 9.08789C11.2192 9.08789 11.9991 9.70899 11.9991 10.4745C11.9991 11.2401 11.2192 11.8612 10.2581 11.8612ZM10.2581 9.58621C9.64148 9.58621 9.14276 9.98342 9.14276 10.4745C9.14276 10.9656 9.64148 11.3628 10.2581 11.3628C10.8747 11.3628 11.3734 10.9656 11.3734 10.4745C11.3734 9.98342 10.8747 9.58621 10.2581 9.58621Z" fill="#237B75"/>
</g>
<defs>
<clipPath id="clip0_703_6656">
<rect width="21.25" height="17.8493" fill="white" transform="translate(0.4375 0.941406)"/>
</clipPath>
</defs>
</svg>
