<svg viewBox="0 0 36 46" fill="none" xmlns="http://www.w3.org/2000/svg">
<path d="M18 45.6923C17.8525 45.6923 17.7049 45.6437 17.5574 45.5951C16.8197 45.2548 0 37.6719 0 27.8529V5.00671C0 4.71506 0.147541 4.3748 0.442623 4.18036C0.639344 4.03453 5.95082 0 18 0C30.0492 0 35.3607 4.03453 35.5574 4.18036C35.8033 4.3748 36 4.71506 36 5.05532V27.9015C36 37.7205 19.1803 45.3034 18.4426 45.5951C18.2951 45.6437 18.1475 45.6923 18 45.6923ZM2.21311 5.63863V27.9015C2.21311 35.5331 15.3934 42.1439 18 43.4077C20.6066 42.1439 33.7869 35.5331 33.7869 27.9015V5.63863C32.3607 4.76367 27.3443 2.1874 18 2.1874C8.65574 2.1874 3.59016 4.76367 2.21311 5.63863Z" fill="#FF4141"/>
<path d="M16.6462 26.3102V12.873H19.36V26.3102H16.6462ZM16.397 32.0314V28.8296H19.6092V32.0314H16.397Z" fill="#FF4141"/>
</svg>
