<svg viewBox="0 0 14 15" fill="none" xmlns="http://www.w3.org/2000/svg">
<path d="M3.50011 3.59506C3.67502 3.42016 3.96653 3.42016 4.14143 3.59506L10.4525 9.90615C10.6274 10.0811 10.6274 10.3726 10.4525 10.5475C10.2776 10.7224 9.9861 10.7224 9.8112 10.5475L3.50011 4.23638C3.3252 4.06148 3.32521 3.76997 3.50011 3.59506Z" fill="white"/>
<path d="M3.51471 9.90616L9.81134 3.60953C9.98625 3.43462 10.2778 3.43462 10.4527 3.60952C10.6276 3.78442 10.6276 4.07593 10.4527 4.25084L4.14145 10.562C3.96654 10.737 3.67503 10.737 3.50013 10.5621C3.32523 10.3871 3.32523 10.0956 3.51471 9.90616Z" fill="white"/>
</svg>
