<svg width="77" height="63" viewBox="0 0 77 63" fill="none" xmlns="http://www.w3.org/2000/svg">
<path d="M75.562 0H17.0603C16.2759 0 15.6222 0.664557 15.6222 1.46203V7.90823H9.28183C8.49745 7.90823 7.8438 8.57279 7.8438 9.37025V15.8165H1.43803C0.65365 15.8165 0 16.481 0 17.2785V61.4715C0 62.269 0.65365 62.9335 1.43803 62.9335H59.9397C60.7241 62.9335 61.3778 62.269 61.3778 61.4715V55.0253H67.7182C68.5025 55.0253 69.1562 54.3608 69.1562 53.5633V47.1171H75.4966C76.281 47.1171 76.9346 46.4525 76.9346 45.6551V1.46203C77 0.664557 76.3463 0 75.562 0ZM58.5017 60.0095H2.94143V18.807H58.5017V60.0095ZM66.2801 52.1013H61.4431V17.3449C61.4431 16.5475 60.7895 15.8829 60.0051 15.8829H10.7199V10.8987H66.2801V52.1013ZM74.0586 44.193H69.2215V9.43671C69.2215 8.63924 68.5679 7.97468 67.7835 7.97468H18.4983V2.99051H74.0586V44.193Z" fill="white"/>
<path d="M44.7094 36.0857C44.5787 35.6205 44.1865 35.3546 43.729 35.2217L35.493 34.0255L31.8325 26.4496C31.4403 25.5857 30.0677 25.5857 29.6755 26.4496L26.015 34.0255L18.5634 35.0888L17.7137 35.2217C17.2561 35.2882 16.8639 35.6205 16.7332 36.0857C16.6025 36.5508 16.7332 37.016 17.06 37.3483L18.5634 38.8103L23.0082 43.2629L22.8775 44.1932L22.3546 47.1838L21.5702 51.5698C21.5702 51.7692 21.5702 51.9021 21.5702 52.035C21.6356 52.3008 21.8317 52.5667 22.0278 52.766C22.42 53.0319 22.8775 53.0983 23.2697 52.8325L24.7731 52.035L30.656 48.9116L36.5388 52.035L38.0422 52.8325C38.2383 52.8989 38.4344 52.9654 38.6305 52.9654C38.8919 52.9654 39.1534 52.8989 39.3495 52.6996C39.611 52.5002 39.7417 52.3008 39.8071 51.9686C39.8071 51.8356 39.8724 51.6363 39.8071 51.5034L39.0227 47.0508L38.5651 44.1932L38.4344 43.2629L44.3826 37.3483C44.7094 37.016 44.8402 36.5508 44.7094 36.0857ZM36.2773 41.9338C36.0159 42.1996 35.8852 42.5983 35.9505 42.997L36.1466 44.1268L36.6695 47.1173L37.0617 49.5762L32.4862 47.1173L31.2442 46.4527C31.0481 46.3863 30.852 46.3198 30.656 46.3198C30.4599 46.3198 30.2638 46.3863 30.0677 46.4527L28.8257 47.1173L24.2502 49.5762L24.6424 47.1173L25.1653 44.1268L25.3614 42.997C25.4267 42.5983 25.296 42.1996 25.0346 41.9338L20.3283 37.2819L26.7994 36.3515C27.1916 36.285 27.5184 36.0192 27.7145 35.6869L30.5906 29.7059L33.4666 35.6869C33.6627 36.0192 33.9896 36.285 34.3818 36.3515L40.8529 37.2819L36.2773 41.9338Z" fill="#9BE7C4"/>
</svg>
