<svg width="23" height="23" viewBox="0 0 23 23" fill="none" xmlns="http://www.w3.org/2000/svg">
<mask id="path-1-inside-1" fill="white">
<path d="M11.489 0C5.1404 0 0 5.1404 0 11.489C0 17.8376 5.1404 22.978 11.489 22.978C17.8376 22.978 22.978 17.8376 22.978 11.489C22.978 5.1404 17.8596 0 11.489 0ZM11.489 22.6046C5.36008 22.6046 0.395415 17.6399 0.395415 11.511C0.395415 5.38204 5.36008 0.395415 11.489 0.395415C17.618 0.395415 22.5826 5.36008 22.5826 11.489C22.5826 17.618 17.6399 22.6046 11.489 22.6046Z"/>
</mask>
<path d="M11.489 0C5.1404 0 0 5.1404 0 11.489C0 17.8376 5.1404 22.978 11.489 22.978C17.8376 22.978 22.978 17.8376 22.978 11.489C22.978 5.1404 17.8596 0 11.489 0ZM11.489 22.6046C5.36008 22.6046 0.395415 17.6399 0.395415 11.511C0.395415 5.38204 5.36008 0.395415 11.489 0.395415C17.618 0.395415 22.5826 5.36008 22.5826 11.489C22.5826 17.618 17.6399 22.6046 11.489 22.6046Z" fill="white"/>
<path d="M11.489 -9C0.169839 -9 -9 0.169839 -9 11.489H9C9 10.111 10.111 9 11.489 9V-9ZM-9 11.489C-9 22.8082 0.169839 31.978 11.489 31.978V13.978C10.111 13.978 9 12.8671 9 11.489H-9ZM11.489 31.978C22.8082 31.978 31.978 22.8082 31.978 11.489H13.978C13.978 12.8671 12.8671 13.978 11.489 13.978V31.978ZM31.978 11.489C31.978 0.181059 22.8414 -9 11.489 -9V9C12.8778 9 13.978 10.0997 13.978 11.489H31.978ZM11.489 13.6046C10.3306 13.6046 9.39542 12.6694 9.39542 11.511H-8.60458C-8.60458 22.6105 0.389514 31.6046 11.489 31.6046V13.6046ZM9.39542 11.511C9.39542 10.3294 10.3538 9.39542 11.489 9.39542V-8.60458C0.366345 -8.60458 -8.60458 0.434682 -8.60458 11.511H9.39542ZM11.489 9.39542C12.6474 9.39542 13.5826 10.3306 13.5826 11.489H31.5826C31.5826 0.389513 22.5885 -8.60458 11.489 -8.60458V9.39542ZM13.5826 11.489C13.5826 12.6822 12.6346 13.6046 11.489 13.6046V31.6046C22.6453 31.6046 31.5826 22.5537 31.5826 11.489H13.5826Z" fill="#49CE8B" mask="url(#path-1-inside-1)"/>
<mask id="path-3-inside-2" fill="white">
<path d="M12.4118 16.9808H12.0164V6.56824L8.96289 7.75448V7.31513L12.3239 6.04102H12.4118V16.9808Z"/>
</mask>
<path d="M12.4118 16.9808H12.0164V6.56824L8.96289 7.75448V7.31513L12.3239 6.04102H12.4118V16.9808Z" fill="#49CE8B"/>
<path d="M12.0164 16.9808H3.01638V25.9808H12.0164V16.9808ZM12.0164 6.56824H21.0164V-6.58347L8.75727 -1.82094L12.0164 6.56824ZM8.96289 7.75448H-0.0371094V20.9062L12.222 16.1437L8.96289 7.75448ZM8.96289 7.31513L5.77266 -1.10047L-0.0371094 1.10192V7.31513H8.96289ZM12.3239 6.04102V-2.95898H10.6753L9.13369 -2.37459L12.3239 6.04102ZM12.4118 6.04102H21.4118V-2.95898H12.4118V6.04102ZM12.4118 7.98084H12.0164V25.9808H12.4118V7.98084ZM21.0164 16.9808V6.56824H3.01638V16.9808H21.0164ZM8.75727 -1.82094L5.70379 -0.634691L12.222 16.1437L15.2755 14.9574L8.75727 -1.82094ZM17.9629 7.75448V7.31513H-0.0371094V7.75448H17.9629ZM12.1531 15.7307L15.5142 14.4566L9.13369 -2.37459L5.77266 -1.10047L12.1531 15.7307ZM12.3239 15.041H12.4118V-2.95898H12.3239V15.041ZM3.41179 6.04102V16.9808H21.4118V6.04102H3.41179Z" fill="white" mask="url(#path-3-inside-2)"/>
</svg>
