<svg width="23" height="23" viewBox="0 0 23 23" fill="none" xmlns="http://www.w3.org/2000/svg">
<mask id="path-1-inside-1" fill="white">
<path d="M11.489 0C5.1404 0 0 5.1404 0 11.489C0 17.8376 5.1404 22.978 11.489 22.978C17.8376 22.978 22.978 17.8376 22.978 11.489C22.978 5.1404 17.8596 0 11.489 0ZM11.489 22.6046C5.36008 22.6046 0.395415 17.6399 0.395415 11.511C0.395415 5.38204 5.36008 0.395415 11.489 0.395415C17.618 0.395415 22.5826 5.36008 22.5826 11.489C22.5826 17.618 17.6399 22.6046 11.489 22.6046Z"/>
</mask>
<path d="M11.489 0C5.1404 0 0 5.1404 0 11.489C0 17.8376 5.1404 22.978 11.489 22.978C17.8376 22.978 22.978 17.8376 22.978 11.489C22.978 5.1404 17.8596 0 11.489 0ZM11.489 22.6046C5.36008 22.6046 0.395415 17.6399 0.395415 11.511C0.395415 5.38204 5.36008 0.395415 11.489 0.395415C17.618 0.395415 22.5826 5.36008 22.5826 11.489C22.5826 17.618 17.6399 22.6046 11.489 22.6046Z" fill="white"/>
<path d="M11.489 -1C4.58812 -1 -1 4.58812 -1 11.489H1C1 5.69269 5.69269 1 11.489 1V-1ZM-1 11.489C-1 18.3899 4.58812 23.978 11.489 23.978V21.978C5.69269 21.978 1 17.2853 1 11.489H-1ZM11.489 23.978C18.3899 23.978 23.978 18.3899 23.978 11.489H21.978C21.978 17.2853 17.2853 21.978 11.489 21.978V23.978ZM23.978 11.489C23.978 4.58936 18.4131 -1 11.489 -1V1C17.3061 1 21.978 5.69144 21.978 11.489H23.978ZM11.489 21.6046C5.91236 21.6046 1.39542 17.0876 1.39542 11.511H-0.604585C-0.604585 18.1922 4.80779 23.6046 11.489 23.6046V21.6046ZM1.39542 11.511C1.39542 5.93175 5.91494 1.39542 11.489 1.39542V-0.604585C4.80522 -0.604585 -0.604585 4.83234 -0.604585 11.511H1.39542ZM11.489 1.39542C17.0657 1.39542 21.5826 5.91236 21.5826 11.489H23.5826C23.5826 4.80779 18.1702 -0.604585 11.489 -0.604585V1.39542ZM21.5826 11.489C21.5826 17.0695 17.0838 21.6046 11.489 21.6046V23.6046C18.1961 23.6046 23.5826 18.1664 23.5826 11.489H21.5826Z" fill="#49CE8B" mask="url(#path-1-inside-1)"/>
<mask id="path-3-inside-2" fill="white">
<path d="M10.5008 11.1814H11.3136C11.7749 11.1814 12.1923 11.1155 12.5438 10.9837C12.8953 10.8519 13.2028 10.6981 13.4444 10.4785C13.6861 10.2588 13.8618 10.0171 13.9936 9.73155C14.1254 9.44598 14.1694 9.1604 14.1694 8.85285C14.1694 8.52334 14.1254 8.19383 14.0156 7.90825C13.9058 7.6007 13.752 7.35906 13.5543 7.11742C13.3346 6.89774 13.071 6.722 12.7415 6.5902C12.412 6.45839 12.0166 6.39249 11.5772 6.39249C11.1818 6.39249 10.8303 6.45839 10.5008 6.56823C10.1713 6.67807 9.8857 6.85381 9.62209 7.07348C9.38045 7.29316 9.18274 7.55677 9.02897 7.88628C8.89716 8.19383 8.80929 8.56728 8.80929 8.96269H8.41388C8.41388 8.50137 8.50175 8.10596 8.65552 7.73251C8.83126 7.35906 9.05094 7.05152 9.33652 6.80987C9.62209 6.54626 9.95161 6.37052 10.3251 6.21675C10.6985 6.08495 11.1159 6.01904 11.5333 6.01904C11.9946 6.01904 12.412 6.08495 12.7854 6.21675C13.1589 6.34856 13.4664 6.54626 13.73 6.78791C13.9936 7.02955 14.1913 7.33709 14.3231 7.68858C14.4549 8.04006 14.5428 8.45744 14.5428 8.89679C14.5428 9.18237 14.4989 9.44598 14.411 9.70959C14.3231 9.9732 14.1913 10.1929 14.0156 10.4125C13.8399 10.6322 13.6421 10.808 13.4005 10.9837C13.1589 11.1375 12.8733 11.2693 12.5657 11.3791C13.2687 11.5329 13.8179 11.8404 14.1913 12.2798C14.5868 12.7191 14.7845 13.2903 14.7845 13.9933C14.7845 14.4765 14.6966 14.8939 14.5428 15.2674C14.389 15.6408 14.1694 15.9484 13.8838 16.212C13.5982 16.4756 13.2687 16.6513 12.8733 16.7831C12.5218 16.9149 12.0825 16.9808 11.6211 16.9808C11.3575 16.9808 11.0719 16.9589 10.8083 16.893C10.5447 16.849 10.2811 16.7612 10.0175 16.6513C9.7539 16.5415 9.53422 16.3877 9.29258 16.2339C9.0729 16.0582 8.8752 15.8605 8.69946 15.6408C8.52372 15.4211 8.41388 15.1575 8.30404 14.85C8.21617 14.5644 8.15027 14.2349 8.15027 13.8614H8.54568C8.54568 14.2569 8.61159 14.6303 8.76536 14.9598C8.91913 15.2893 9.13881 15.5749 9.40242 15.8166C9.66603 16.0582 9.99554 16.2559 10.369 16.3877C10.7424 16.5195 11.1379 16.5854 11.5772 16.5854C12.0166 16.5854 12.412 16.5195 12.7634 16.4097C13.1149 16.2998 13.4005 16.1241 13.6421 15.9044C13.8838 15.6848 14.0595 15.4211 14.1913 15.0916C14.3231 14.7841 14.3671 14.4106 14.3671 14.0152C14.3671 13.5759 14.3012 13.2024 14.1474 12.8949C13.9936 12.5873 13.774 12.3457 13.5103 12.148C13.2248 11.9503 12.9172 11.8185 12.5218 11.7086C12.1484 11.6208 11.731 11.5768 11.2697 11.5768H10.4569V11.1814H10.5008Z"/>
</mask>
<path d="M10.5008 11.1814H11.3136C11.7749 11.1814 12.1923 11.1155 12.5438 10.9837C12.8953 10.8519 13.2028 10.6981 13.4444 10.4785C13.6861 10.2588 13.8618 10.0171 13.9936 9.73155C14.1254 9.44598 14.1694 9.1604 14.1694 8.85285C14.1694 8.52334 14.1254 8.19383 14.0156 7.90825C13.9058 7.6007 13.752 7.35906 13.5543 7.11742C13.3346 6.89774 13.071 6.722 12.7415 6.5902C12.412 6.45839 12.0166 6.39249 11.5772 6.39249C11.1818 6.39249 10.8303 6.45839 10.5008 6.56823C10.1713 6.67807 9.8857 6.85381 9.62209 7.07348C9.38045 7.29316 9.18274 7.55677 9.02897 7.88628C8.89716 8.19383 8.80929 8.56728 8.80929 8.96269H8.41388C8.41388 8.50137 8.50175 8.10596 8.65552 7.73251C8.83126 7.35906 9.05094 7.05152 9.33652 6.80987C9.62209 6.54626 9.95161 6.37052 10.3251 6.21675C10.6985 6.08495 11.1159 6.01904 11.5333 6.01904C11.9946 6.01904 12.412 6.08495 12.7854 6.21675C13.1589 6.34856 13.4664 6.54626 13.73 6.78791C13.9936 7.02955 14.1913 7.33709 14.3231 7.68858C14.4549 8.04006 14.5428 8.45744 14.5428 8.89679C14.5428 9.18237 14.4989 9.44598 14.411 9.70959C14.3231 9.9732 14.1913 10.1929 14.0156 10.4125C13.8399 10.6322 13.6421 10.808 13.4005 10.9837C13.1589 11.1375 12.8733 11.2693 12.5657 11.3791C13.2687 11.5329 13.8179 11.8404 14.1913 12.2798C14.5868 12.7191 14.7845 13.2903 14.7845 13.9933C14.7845 14.4765 14.6966 14.8939 14.5428 15.2674C14.389 15.6408 14.1694 15.9484 13.8838 16.212C13.5982 16.4756 13.2687 16.6513 12.8733 16.7831C12.5218 16.9149 12.0825 16.9808 11.6211 16.9808C11.3575 16.9808 11.0719 16.9589 10.8083 16.893C10.5447 16.849 10.2811 16.7612 10.0175 16.6513C9.7539 16.5415 9.53422 16.3877 9.29258 16.2339C9.0729 16.0582 8.8752 15.8605 8.69946 15.6408C8.52372 15.4211 8.41388 15.1575 8.30404 14.85C8.21617 14.5644 8.15027 14.2349 8.15027 13.8614H8.54568C8.54568 14.2569 8.61159 14.6303 8.76536 14.9598C8.91913 15.2893 9.13881 15.5749 9.40242 15.8166C9.66603 16.0582 9.99554 16.2559 10.369 16.3877C10.7424 16.5195 11.1379 16.5854 11.5772 16.5854C12.0166 16.5854 12.412 16.5195 12.7634 16.4097C13.1149 16.2998 13.4005 16.1241 13.6421 15.9044C13.8838 15.6848 14.0595 15.4211 14.1913 15.0916C14.3231 14.7841 14.3671 14.4106 14.3671 14.0152C14.3671 13.5759 14.3012 13.2024 14.1474 12.8949C13.9936 12.5873 13.774 12.3457 13.5103 12.148C13.2248 11.9503 12.9172 11.8185 12.5218 11.7086C12.1484 11.6208 11.731 11.5768 11.2697 11.5768H10.4569V11.1814H10.5008Z" fill="#49CE8B"/>
<path d="M14.0156 7.90825L13.0739 8.24459L13.0779 8.25596L13.0823 8.26723L14.0156 7.90825ZM13.5543 7.11742L14.3282 6.48418L14.2967 6.44558L14.2614 6.41031L13.5543 7.11742ZM9.62209 7.07348L8.98191 6.30526L8.96536 6.31905L8.94942 6.33354L9.62209 7.07348ZM9.02897 7.88628L8.12279 7.4634L8.11608 7.47778L8.10982 7.49236L9.02897 7.88628ZM8.80929 8.96269V9.96269H9.80929V8.96269H8.80929ZM8.41388 8.96269H7.41388V9.96269H8.41388V8.96269ZM8.65552 7.73251L7.7507 7.30671L7.74022 7.32899L7.73084 7.35176L8.65552 7.73251ZM9.33652 6.80987L9.98246 7.57326L9.99893 7.55932L10.0148 7.54468L9.33652 6.80987ZM10.3251 6.21675L9.99223 5.27376L9.96803 5.2823L9.9443 5.29207L10.3251 6.21675ZM13.4005 10.9837L13.9374 11.8274L13.9636 11.8107L13.9887 11.7924L13.4005 10.9837ZM12.5657 11.3791L12.2294 10.4374L8.94439 11.6106L12.352 12.356L12.5657 11.3791ZM14.1913 12.2798L13.4294 12.9274L13.4386 12.9382L13.448 12.9488L14.1913 12.2798ZM12.8733 16.7831L12.5571 15.8344L12.5395 15.8403L12.5222 15.8468L12.8733 16.7831ZM10.8083 16.893L11.0509 15.9228L11.0121 15.9131L10.9727 15.9066L10.8083 16.893ZM9.29258 16.2339L8.66788 17.0148L8.7101 17.0486L8.7557 17.0776L9.29258 16.2339ZM8.30404 14.85L7.34826 15.1441L7.35481 15.1654L7.3623 15.1863L8.30404 14.85ZM8.15027 13.8614V12.8614H7.15027V13.8614H8.15027ZM8.54568 13.8614H9.54568V12.8614H8.54568V13.8614ZM14.1913 15.0916L13.2722 14.6977L13.2674 14.7089L13.2629 14.7202L14.1913 15.0916ZM13.5103 12.148L14.1103 11.348L14.0952 11.3366L14.0796 11.3258L13.5103 12.148ZM12.5218 11.7086L12.7895 10.7451L12.7702 10.7398L12.7508 10.7352L12.5218 11.7086ZM10.4569 11.5768H9.45686V12.5768H10.4569V11.5768ZM10.4569 11.1814V10.1814H9.45686V11.1814H10.4569ZM10.5008 12.1814H11.3136V10.1814H10.5008V12.1814ZM11.3136 12.1814C11.8651 12.1814 12.4063 12.1032 12.8949 11.92L12.1926 10.0474C11.9782 10.1278 11.6847 10.1814 11.3136 10.1814V12.1814ZM12.8949 11.92C13.2949 11.77 13.7388 11.5623 14.1171 11.2184L12.7718 9.73851C12.6668 9.83396 12.4956 9.93377 12.1926 10.0474L12.8949 11.92ZM14.1171 11.2184C14.4578 10.9086 14.7136 10.5579 14.9016 10.1506L13.0857 9.3125C13.01 9.47637 12.9143 9.60891 12.7718 9.73851L14.1171 11.2184ZM14.9016 10.1506C15.1099 9.69932 15.1694 9.26179 15.1694 8.85285H13.1694C13.1694 9.059 13.141 9.19264 13.0857 9.3125L14.9016 10.1506ZM15.1694 8.85285C15.1694 8.44401 15.1161 7.98392 14.9489 7.54927L13.0823 8.26723C13.1348 8.40373 13.1694 8.60268 13.1694 8.85285H15.1694ZM14.9573 7.57191C14.7993 7.12927 14.5775 6.78888 14.3282 6.48418L12.7803 7.75066C12.9264 7.92925 13.0123 8.07214 13.0739 8.24459L14.9573 7.57191ZM14.2614 6.41031C13.9417 6.09066 13.5625 5.84156 13.1129 5.66172L12.3701 7.51868C12.5795 7.60245 12.7275 7.70483 12.8472 7.82453L14.2614 6.41031ZM13.1129 5.66172C12.6382 5.47184 12.111 5.39249 11.5772 5.39249V7.39249C11.9222 7.39249 12.1858 7.44494 12.3701 7.51868L13.1129 5.66172ZM11.5772 5.39249C11.0654 5.39249 10.6072 5.47867 10.1846 5.61955L10.817 7.51691C11.0534 7.43811 11.2982 7.39249 11.5772 7.39249V5.39249ZM10.1846 5.61955C9.71123 5.77733 9.3182 6.02502 8.98191 6.30526L10.2623 7.84171C10.4532 7.6826 10.6313 7.57881 10.817 7.51691L10.1846 5.61955ZM8.94942 6.33354C8.60852 6.64345 8.33194 7.01522 8.12279 7.4634L9.93515 8.30917C10.0335 8.09832 10.1524 7.94287 10.2948 7.81342L8.94942 6.33354ZM8.10982 7.49236C7.92826 7.91603 7.80929 8.42304 7.80929 8.96269H9.80929C9.80929 8.71151 9.86607 8.47163 9.94811 8.2802L8.10982 7.49236ZM8.80929 7.96269H8.41388V9.96269H8.80929V7.96269ZM9.41388 8.96269C9.41388 8.63829 9.4737 8.37189 9.5802 8.11326L7.73084 7.35176C7.52979 7.84002 7.41388 8.36446 7.41388 8.96269H9.41388ZM9.56034 8.15831C9.68857 7.88583 9.82835 7.70366 9.98246 7.57326L8.69057 6.04649C8.27353 6.39937 7.97396 6.8323 7.7507 7.30671L9.56034 8.15831ZM10.0148 7.54468C10.1779 7.3941 10.3864 7.27294 10.7058 7.14143L9.9443 5.29207C9.51679 5.46811 9.06626 5.69843 8.65824 6.07507L10.0148 7.54468ZM10.6579 7.15974C10.9134 7.06956 11.2169 7.01904 11.5333 7.01904V5.01904C11.0148 5.01904 10.4836 5.10033 9.99223 5.27376L10.6579 7.15974ZM11.5333 7.01904C11.8995 7.01904 12.2021 7.07132 12.4526 7.15974L13.1182 5.27376C12.6219 5.09857 12.0896 5.01904 11.5333 5.01904V7.01904ZM12.4526 7.15974C12.6865 7.24228 12.8796 7.36495 13.0543 7.52506L14.4057 6.05075C14.0532 5.72758 13.6313 5.45483 13.1182 5.27376L12.4526 7.15974ZM13.0543 7.52506C13.1879 7.64753 13.3032 7.81678 13.3868 8.0397L15.2595 7.33745C15.0795 6.85741 14.7994 6.41157 14.4057 6.05075L13.0543 7.52506ZM13.3868 8.0397C13.4802 8.28874 13.5428 8.58743 13.5428 8.89679H15.5428C15.5428 8.32745 15.4297 7.79137 15.2595 7.33745L13.3868 8.0397ZM13.5428 8.89679C13.5428 9.07359 13.5166 9.23048 13.4623 9.39336L15.3597 10.0258C15.4811 9.66147 15.5428 9.29114 15.5428 8.89679H13.5428ZM13.4623 9.39336C13.4202 9.51978 13.3555 9.6369 13.2347 9.78785L14.7965 11.0372C15.0272 10.7488 15.2261 10.4266 15.3597 10.0258L13.4623 9.39336ZM13.2347 9.78785C13.1297 9.91908 13.0043 10.0354 12.8123 10.175L13.9887 11.7924C14.28 11.5806 14.55 11.3454 14.7965 11.0372L13.2347 9.78785ZM12.8636 10.14C12.7008 10.2436 12.4869 10.3454 12.2294 10.4374L12.9021 12.3209C13.2597 12.1932 13.6169 12.0313 13.9374 11.8274L12.8636 10.14ZM12.352 12.356C12.8898 12.4737 13.2269 12.6892 13.4294 12.9274L14.9533 11.6321C14.4088 10.9916 13.6476 10.5921 12.7794 10.4022L12.352 12.356ZM13.448 12.9488C13.6479 13.1708 13.7845 13.4879 13.7845 13.9933H15.7845C15.7845 13.0927 15.5256 12.2675 14.9346 11.6108L13.448 12.9488ZM13.7845 13.9933C13.7845 14.3499 13.7207 14.6376 13.6181 14.8866L15.4675 15.6481C15.6725 15.1503 15.7845 14.6032 15.7845 13.9933H13.7845ZM13.6181 14.8866C13.5218 15.1206 13.3881 15.3086 13.2055 15.4772L14.5621 16.9468C14.9506 16.5881 15.2563 16.161 15.4675 15.6481L13.6181 14.8866ZM13.2055 15.4772C13.0478 15.6228 12.8524 15.736 12.5571 15.8344L13.1895 17.7318C13.685 17.5666 14.1487 17.3284 14.5621 16.9468L13.2055 15.4772ZM12.5222 15.8468C12.3123 15.9255 11.9984 15.9808 11.6211 15.9808V17.9808C12.1665 17.9808 12.7314 17.9044 13.2244 17.7195L12.5222 15.8468ZM11.6211 15.9808C11.4058 15.9808 11.2082 15.9622 11.0509 15.9228L10.5658 17.8631C10.9357 17.9556 11.3093 17.9808 11.6211 17.9808V15.9808ZM10.9727 15.9066C10.812 15.8798 10.6262 15.8216 10.4021 15.7282L9.63289 17.5744C9.93603 17.7007 10.2774 17.8183 10.6439 17.8794L10.9727 15.9066ZM10.4021 15.7282C10.2408 15.661 10.1199 15.5751 9.82946 15.3903L8.7557 17.0776C8.94851 17.2003 9.26698 17.4219 9.63289 17.5744L10.4021 15.7282ZM9.91728 15.4531C9.75527 15.3235 9.60993 15.1781 9.48033 15.0161L7.91859 16.2655C8.14046 16.5429 8.39054 16.7929 8.66788 17.0148L9.91728 15.4531ZM9.48033 15.0161C9.41647 14.9363 9.35176 14.8104 9.24578 14.5137L7.3623 15.1863C7.476 15.5047 7.63096 15.906 7.91859 16.2655L9.48033 15.0161ZM9.25982 14.5559C9.19463 14.344 9.15027 14.1149 9.15027 13.8614H7.15027C7.15027 14.3549 7.23771 14.7848 7.34826 15.1441L9.25982 14.5559ZM8.15027 14.8614H8.54568V12.8614H8.15027V14.8614ZM7.54568 13.8614C7.54568 14.3644 7.62914 14.8898 7.85918 15.3827L9.67154 14.5369C9.59404 14.3709 9.54568 14.1493 9.54568 13.8614H7.54568ZM7.85918 15.3827C8.07443 15.844 8.37747 16.2336 8.72669 16.5537L10.0781 15.0794C9.90014 14.9162 9.76383 14.7347 9.67154 14.5369L7.85918 15.3827ZM8.72669 16.5537C9.09473 16.8911 9.54248 17.1565 10.0362 17.3307L10.7018 15.4447C10.4486 15.3554 10.2373 15.2253 10.0781 15.0794L8.72669 16.5537ZM10.0362 17.3307C10.5249 17.5032 11.0338 17.5854 11.5772 17.5854V15.5854C11.242 15.5854 10.9599 15.5358 10.7018 15.4447L10.0362 17.3307ZM11.5772 17.5854C12.1179 17.5854 12.6139 17.5041 13.0617 17.3642L12.4652 15.4552C12.21 15.5349 11.9152 15.5854 11.5772 15.5854V17.5854ZM13.0617 17.3642C13.5635 17.2074 13.9746 16.9536 14.3148 16.6444L12.9695 15.1645C12.8264 15.2946 12.6664 15.3923 12.4652 15.4552L13.0617 17.3642ZM14.3148 16.6444C14.6823 16.3103 14.9391 15.9148 15.1198 15.463L13.2629 14.7202C13.18 14.9275 13.0853 15.0592 12.9695 15.1645L14.3148 16.6444ZM15.1105 15.4855C15.32 14.9967 15.3671 14.4662 15.3671 14.0152H13.3671C13.3671 14.355 13.3263 14.5715 13.2722 14.6977L15.1105 15.4855ZM15.3671 14.0152C15.3671 13.4848 15.2889 12.9419 15.0418 12.4477L13.253 13.3421C13.3134 13.463 13.3671 13.667 13.3671 14.0152H15.3671ZM15.0418 12.4477C14.8077 11.9794 14.4769 11.6229 14.1103 11.348L12.9103 12.948C13.071 13.0685 13.1796 13.1953 13.253 13.3421L15.0418 12.4477ZM14.0796 11.3258C13.6781 11.0478 13.2603 10.8759 12.7895 10.7451L12.2542 12.6722C12.5741 12.761 12.7715 12.8527 12.9411 12.9702L14.0796 11.3258ZM12.7508 10.7352C12.289 10.6266 11.7931 10.5768 11.2697 10.5768V12.5768C11.6688 12.5768 12.0077 12.615 12.2928 12.682L12.7508 10.7352ZM11.2697 10.5768H10.4569V12.5768H11.2697V10.5768ZM11.4569 11.5768V11.1814H9.45686V11.5768H11.4569ZM10.4569 12.1814H10.5008V10.1814H10.4569V12.1814Z" fill="white" mask="url(#path-3-inside-2)"/>
</svg>
