<svg width="23" height="23" viewBox="0 0 23 23" fill="none" xmlns="http://www.w3.org/2000/svg">
<mask id="path-1-inside-1" fill="white">
<path d="M11.489 0C5.1404 0 0 5.1404 0 11.489C0 17.8376 5.1404 22.978 11.489 22.978C17.8376 22.978 22.978 17.8376 22.978 11.489C22.978 5.1404 17.8596 0 11.489 0ZM11.489 22.6046C5.36008 22.6046 0.395415 17.6399 0.395415 11.511C0.395415 5.38204 5.36008 0.395415 11.489 0.395415C17.618 0.395415 22.5826 5.36008 22.5826 11.489C22.5826 17.618 17.6399 22.6046 11.489 22.6046Z"/>
</mask>
<path d="M11.489 0C5.1404 0 0 5.1404 0 11.489C0 17.8376 5.1404 22.978 11.489 22.978C17.8376 22.978 22.978 17.8376 22.978 11.489C22.978 5.1404 17.8596 0 11.489 0ZM11.489 22.6046C5.36008 22.6046 0.395415 17.6399 0.395415 11.511C0.395415 5.38204 5.36008 0.395415 11.489 0.395415C17.618 0.395415 22.5826 5.36008 22.5826 11.489C22.5826 17.618 17.6399 22.6046 11.489 22.6046Z" fill="white"/>
<path d="M11.489 -1C4.58812 -1 -1 4.58812 -1 11.489H1C1 5.69269 5.69269 1 11.489 1V-1ZM-1 11.489C-1 18.3899 4.58812 23.978 11.489 23.978V21.978C5.69269 21.978 1 17.2853 1 11.489H-1ZM11.489 23.978C18.3899 23.978 23.978 18.3899 23.978 11.489H21.978C21.978 17.2853 17.2853 21.978 11.489 21.978V23.978ZM23.978 11.489C23.978 4.58936 18.4131 -1 11.489 -1V1C17.3061 1 21.978 5.69144 21.978 11.489H23.978ZM11.489 21.6046C5.91236 21.6046 1.39542 17.0876 1.39542 11.511H-0.604585C-0.604585 18.1922 4.80779 23.6046 11.489 23.6046V21.6046ZM1.39542 11.511C1.39542 5.93175 5.91494 1.39542 11.489 1.39542V-0.604585C4.80522 -0.604585 -0.604585 4.83234 -0.604585 11.511H1.39542ZM11.489 1.39542C17.0657 1.39542 21.5826 5.91236 21.5826 11.489H23.5826C23.5826 4.80779 18.1702 -0.604585 11.489 -0.604585V1.39542ZM21.5826 11.489C21.5826 17.0695 17.0838 21.6046 11.489 21.6046V23.6046C18.1961 23.6046 23.5826 18.1664 23.5826 11.489H21.5826Z" fill="#49CE8B" mask="url(#path-1-inside-1)"/>
<mask id="path-3-inside-2" fill="white">
<path d="M14.8059 16.9808H8.43536V16.5854L11.9282 12.4995C12.2577 12.1041 12.5433 11.7526 12.7849 11.4231C13.0266 11.0936 13.2243 10.786 13.3781 10.5004C13.5318 10.2148 13.6417 9.92927 13.7295 9.68763C13.7954 9.42402 13.8394 9.18238 13.8394 8.94073C13.8394 8.56729 13.7735 8.21581 13.6856 7.90826C13.5758 7.60071 13.422 7.3371 13.2023 7.11743C12.9826 6.89775 12.719 6.72201 12.3895 6.61218C12.06 6.50234 11.6866 6.43644 11.2692 6.43644C10.8957 6.43644 10.5442 6.50234 10.2147 6.65611C9.88522 6.78792 9.59964 6.98562 9.358 7.24923C9.11636 7.49088 8.94062 7.79842 8.80881 8.12794C8.63307 8.45745 8.56717 8.80893 8.56717 9.22631H8.17175C8.17175 8.78696 8.23766 8.36958 8.39143 7.99613C8.5452 7.60072 8.74291 7.2712 9.02849 6.98562C9.2921 6.70005 9.62161 6.4584 9.99506 6.30463C10.3685 6.12889 10.7859 6.06299 11.2472 6.06299C11.7085 6.06299 12.1259 6.12889 12.4774 6.23873C12.8508 6.37053 13.1584 6.54627 13.422 6.78792C13.6856 7.02956 13.8833 7.3371 14.0151 7.68858C14.1469 8.04007 14.2348 8.45745 14.2348 8.94073C14.2348 9.27025 14.1689 9.62173 14.0371 9.95124C13.9053 10.2808 13.7515 10.6322 13.5318 10.9617C13.3341 11.2913 13.0925 11.6427 12.8289 11.9723C12.5653 12.3018 12.3016 12.6313 12.038 12.9608L8.96258 16.5854H14.8059V16.9808Z"/>
</mask>
<path d="M14.8059 16.9808H8.43536V16.5854L11.9282 12.4995C12.2577 12.1041 12.5433 11.7526 12.7849 11.4231C13.0266 11.0936 13.2243 10.786 13.3781 10.5004C13.5318 10.2148 13.6417 9.92927 13.7295 9.68763C13.7954 9.42402 13.8394 9.18238 13.8394 8.94073C13.8394 8.56729 13.7735 8.21581 13.6856 7.90826C13.5758 7.60071 13.422 7.3371 13.2023 7.11743C12.9826 6.89775 12.719 6.72201 12.3895 6.61218C12.06 6.50234 11.6866 6.43644 11.2692 6.43644C10.8957 6.43644 10.5442 6.50234 10.2147 6.65611C9.88522 6.78792 9.59964 6.98562 9.358 7.24923C9.11636 7.49088 8.94062 7.79842 8.80881 8.12794C8.63307 8.45745 8.56717 8.80893 8.56717 9.22631H8.17175C8.17175 8.78696 8.23766 8.36958 8.39143 7.99613C8.5452 7.60072 8.74291 7.2712 9.02849 6.98562C9.2921 6.70005 9.62161 6.4584 9.99506 6.30463C10.3685 6.12889 10.7859 6.06299 11.2472 6.06299C11.7085 6.06299 12.1259 6.12889 12.4774 6.23873C12.8508 6.37053 13.1584 6.54627 13.422 6.78792C13.6856 7.02956 13.8833 7.3371 14.0151 7.68858C14.1469 8.04007 14.2348 8.45745 14.2348 8.94073C14.2348 9.27025 14.1689 9.62173 14.0371 9.95124C13.9053 10.2808 13.7515 10.6322 13.5318 10.9617C13.3341 11.2913 13.0925 11.6427 12.8289 11.9723C12.5653 12.3018 12.3016 12.6313 12.038 12.9608L8.96258 16.5854H14.8059V16.9808Z" fill="#49CE8B"/>
<path d="M14.8059 16.9808V17.9808H15.8059V16.9808H14.8059ZM8.43536 16.9808H7.43536V17.9808H8.43536V16.9808ZM8.43536 16.5854L7.67524 15.9357L7.43536 16.2163V16.5854H8.43536ZM11.9282 12.4995L12.6884 13.1493L12.6964 13.1397L11.9282 12.4995ZM13.7295 9.68763L14.6693 10.0294L14.6871 9.98056L14.6997 9.93016L13.7295 9.68763ZM13.6856 7.90826L14.6471 7.63354L14.6382 7.60241L14.6273 7.57192L13.6856 7.90826ZM10.2147 6.65611L10.5861 7.58459L10.6122 7.57416L10.6376 7.56229L10.2147 6.65611ZM9.358 7.24923L10.0651 7.95634L10.0805 7.94098L10.0952 7.92496L9.358 7.24923ZM8.80881 8.12794L9.69116 8.59852L9.71694 8.55019L9.73729 8.49933L8.80881 8.12794ZM8.56717 9.22631V10.2263H9.56717V9.22631H8.56717ZM8.17175 9.22631H7.17175V10.2263H8.17175V9.22631ZM8.39143 7.99613L9.31611 8.37688L9.31986 8.36776L9.32343 8.35858L8.39143 7.99613ZM9.02849 6.98562L9.73559 7.69273L9.74973 7.67859L9.76329 7.6639L9.02849 6.98562ZM9.99506 6.30463L10.3758 7.22931L10.3986 7.21993L10.4209 7.20945L9.99506 6.30463ZM12.4774 6.23873L12.8102 5.29574L12.793 5.28968L12.7757 5.28425L12.4774 6.23873ZM13.5318 10.9617L12.6998 10.407L12.6866 10.4268L12.6743 10.4473L13.5318 10.9617ZM12.038 12.9608L12.8005 13.6078L12.8099 13.5968L12.8189 13.5855L12.038 12.9608ZM8.96258 16.5854L8.20007 15.9385L6.80264 17.5854H8.96258V16.5854ZM14.8059 16.5854H15.8059V15.5854H14.8059V16.5854ZM14.8059 15.9808H8.43536V17.9808H14.8059V15.9808ZM9.43536 16.9808V16.5854H7.43536V16.9808H9.43536ZM9.19548 17.2352L12.6883 13.1493L11.1681 11.8497L7.67524 15.9357L9.19548 17.2352ZM12.6964 13.1397C13.0281 12.7416 13.3303 12.3703 13.5913 12.0144L11.9785 10.8317C11.7562 11.1348 11.4873 11.4665 11.16 11.8593L12.6964 13.1397ZM13.5913 12.0144C13.8537 11.6567 14.078 11.3097 14.2585 10.9745L12.4976 10.0263C12.3705 10.2623 12.1995 10.5304 11.9785 10.8317L13.5913 12.0144ZM14.2585 10.9745C14.4478 10.623 14.5775 10.2818 14.6693 10.0294L12.7897 9.34589C12.7058 9.57671 12.6158 9.80675 12.4976 10.0263L14.2585 10.9745ZM14.6997 9.93016C14.7737 9.63407 14.8394 9.30136 14.8394 8.94073H12.8394C12.8394 9.06339 12.8172 9.21397 12.7594 9.44509L14.6997 9.93016ZM14.8394 8.94073C14.8394 8.45138 14.7533 8.00524 14.6471 7.63354L12.7241 8.18298C12.7936 8.42637 12.8394 8.68319 12.8394 8.94073H14.8394ZM14.6273 7.57192C14.4777 7.15285 14.2529 6.7538 13.9094 6.41032L12.4952 7.82454C12.5911 7.92041 12.6739 8.04858 12.7439 8.2446L14.6273 7.57192ZM13.9094 6.41032C13.5904 6.09128 13.1959 5.82688 12.7057 5.66349L12.0733 7.56086C12.2422 7.61715 12.3749 7.70423 12.4952 7.82454L13.9094 6.41032ZM12.7057 5.66349C12.2736 5.51945 11.7934 5.43644 11.2692 5.43644V7.43644C11.5798 7.43644 11.8464 7.48522 12.0733 7.56086L12.7057 5.66349ZM11.2692 5.43644C10.7751 5.43644 10.2751 5.52443 9.79185 5.74993L10.6376 7.56229C10.8134 7.48024 11.0164 7.43644 11.2692 7.43644V5.43644ZM9.84334 5.72763C9.37339 5.91562 8.9631 6.20015 8.62085 6.57351L10.0952 7.92496C10.2362 7.7711 10.3971 7.66022 10.5861 7.58459L9.84334 5.72763ZM8.65089 6.54213C8.28316 6.90986 8.04359 7.3484 7.88033 7.75654L9.73729 8.49933C9.83764 8.24844 9.94955 8.07189 10.0651 7.95634L8.65089 6.54213ZM7.92646 7.65735C7.6519 8.17215 7.56717 8.69775 7.56717 9.22631H9.56717C9.56717 8.92011 9.61424 8.74275 9.69116 8.59852L7.92646 7.65735ZM8.56717 8.22631H8.17175V10.2263H8.56717V8.22631ZM9.17175 9.22631C9.17175 8.88348 9.22358 8.60158 9.31611 8.37688L7.46675 7.61538C7.25173 8.13758 7.17175 8.69044 7.17175 9.22631H9.17175ZM9.32343 8.35858C9.43785 8.06437 9.56731 7.86102 9.73559 7.69273L8.32138 6.27852C7.91851 6.68138 7.65256 7.13706 7.45942 7.63368L9.32343 8.35858ZM9.76329 7.6639C9.93832 7.47429 10.15 7.32228 10.3758 7.22931L9.61431 5.37995C9.0932 5.59453 8.64588 5.9258 8.29368 6.30734L9.76329 7.6639ZM10.4209 7.20945C10.6184 7.11649 10.8772 7.06299 11.2472 7.06299V5.06299C10.6946 5.06299 10.1186 5.14129 9.56926 5.39981L10.4209 7.20945ZM11.2472 7.06299C11.6154 7.06299 11.9315 7.11584 12.1791 7.19321L12.7757 5.28425C12.3203 5.14194 11.8017 5.06299 11.2472 5.06299V7.06299ZM12.1446 7.18172C12.4121 7.27615 12.5972 7.38842 12.7463 7.52507L14.0977 6.05076C13.7196 5.70413 13.2896 5.46492 12.8102 5.29574L12.1446 7.18172ZM12.7463 7.52507C12.8799 7.64754 12.9952 7.81679 13.0788 8.03971L14.9514 7.33746C14.7714 6.85742 14.4913 6.41158 14.0977 6.05076L12.7463 7.52507ZM13.0788 8.03971C13.1698 8.28247 13.2348 8.5811 13.2348 8.94073H15.2348C15.2348 8.33379 15.124 7.79766 14.9514 7.33746L13.0788 8.03971ZM13.2348 8.94073C13.2348 9.14176 13.1936 9.36728 13.1086 9.57985L14.9656 10.3226C15.1441 9.87617 15.2348 9.39873 15.2348 8.94073H13.2348ZM13.1086 9.57985C12.9831 9.89363 12.8601 10.1666 12.6998 10.407L14.3639 11.5164C14.6429 11.0979 14.8275 10.6679 14.9656 10.3226L13.1086 9.57985ZM12.6743 10.4473C12.4988 10.7397 12.2826 11.0543 12.048 11.3476L13.6097 12.5969C13.9023 12.2312 14.1694 11.8428 14.3893 11.4762L12.6743 10.4473ZM12.048 11.3476C11.9162 11.5123 11.7844 11.6771 11.6526 11.8418C11.5208 12.0066 11.389 12.1713 11.2572 12.3361L12.8189 13.5855C12.9507 13.4207 13.0825 13.256 13.2143 13.0912C13.3461 12.9265 13.4779 12.7617 13.6097 12.5969L12.048 11.3476ZM11.2755 12.3138L8.20007 15.9385L9.72509 17.2324L12.8005 13.6078L11.2755 12.3138ZM8.96258 17.5854H14.8059V15.5854H8.96258V17.5854ZM13.8059 16.5854V16.9808H15.8059V16.5854H13.8059Z" fill="white" mask="url(#path-3-inside-2)"/>
</svg>
