<svg width="30" height="36" viewBox="0 0 30 36" fill="none" xmlns="http://www.w3.org/2000/svg">
<g clip-path="url(#clip0_3724:3853)">
<path d="M29.9839 18.0111C29.9839 22.6618 29.9485 27.3125 30.0003 31.9604C30.0126 32.4953 29.9183 33.0272 29.723 33.5237C29.5277 34.0202 29.2355 34.4711 28.8641 34.8488C28.4928 35.2266 28.0501 35.5235 27.5628 35.7214C27.0755 35.9193 26.5539 36.014 26.0297 35.9999C19.5237 35.9416 13.015 35.9805 6.50899 35.9778C5.63544 36.0064 4.78049 35.7165 4.09767 35.1599C3.41485 34.6033 2.9489 33.8166 2.7835 32.9411C2.70511 32.4994 2.68769 32.0487 2.73175 31.6021C2.75354 31.2104 2.61465 31.1215 2.25245 31.1215C1.0787 31.1215 0.310727 30.5408 0.0737991 29.5323C0.00573459 29.2383 0.00271376 28.9326 0.0649397 28.6374C0.127166 28.3421 0.25308 28.0646 0.433544 27.8252C0.614008 27.5858 0.844489 27.3903 1.10824 27.2531C1.37199 27.1159 1.66238 27.0403 1.95833 27.0319C2.71269 27.0069 2.71269 27.0069 2.71269 26.2374C2.71269 25.5789 2.67729 24.9177 2.71269 24.2648C2.74537 23.7842 2.5493 23.7231 2.14897 23.7286C1.70604 23.7603 1.26507 23.6437 0.893003 23.3965C0.520935 23.1493 0.238082 22.7851 0.0874123 22.359C-0.0170487 22.0511 -0.0482837 21.7223 -0.00372486 21.3996C0.040834 21.077 0.159918 20.7699 0.343703 20.5034C0.527489 20.237 0.770715 20.0189 1.05334 19.8671C1.33596 19.7154 1.64988 19.6344 1.96923 19.6308C2.69908 19.6002 2.69907 19.6002 2.69907 18.8556C2.69907 18.1666 2.68001 17.4666 2.69907 16.7859C2.71269 16.4303 2.61738 16.3025 2.2579 16.3303C1.9355 16.3689 1.60874 16.327 1.30566 16.2085C1.00257 16.0899 0.732188 15.8981 0.5177 15.6496C0.252861 15.3713 0.0765791 15.018 0.0119495 14.6358C-0.0526802 14.2536 -0.00264871 13.8603 0.155495 13.5076C0.301905 13.132 0.555291 12.8097 0.882947 12.5824C1.2106 12.3551 1.59751 12.2333 1.99374 12.2324C2.69091 12.1852 2.69091 12.1908 2.69091 11.4657C2.69091 10.7405 2.67729 10.0238 2.69091 9.30142C2.69091 8.9986 2.59286 8.91245 2.31236 8.92912C2.03018 8.95538 1.74568 8.93284 1.47086 8.86244C1.02832 8.73791 0.640161 8.46413 0.36965 8.08575C0.0991389 7.70737 -0.0377719 7.24671 -0.0187842 6.77879C0.0154265 6.30324 0.208482 5.85407 0.528155 5.50621C0.847829 5.15835 1.27477 4.93289 1.73775 4.86741C2.0482 4.81463 2.47576 5.02575 2.64733 4.70347C2.78077 4.45344 2.68002 4.07562 2.68546 3.75613C2.68249 3.258 2.77711 2.76425 2.96376 2.30395C3.15041 1.84364 3.42533 1.42601 3.77238 1.0756C4.11942 0.725176 4.5316 0.449031 4.98471 0.263363C5.43782 0.0776947 5.92272 -0.0137233 6.41095 -0.00557217C13.0123 -0.00557217 19.6136 -0.00557217 26.2149 -0.00557217C26.7075 -0.0119761 27.1963 0.0825666 27.6524 0.27252C28.1085 0.462473 28.5225 0.743947 28.87 1.10022C29.2174 1.45649 29.4912 1.8803 29.6751 2.34654C29.8589 2.81279 29.9491 3.31198 29.9404 3.81446C29.9749 8.54853 29.9894 13.2807 29.9839 18.0111ZM28.6604 17.9833V17.3582C28.6604 12.902 28.6604 8.4457 28.6604 3.98946C28.6604 2.38087 27.6691 1.34738 26.1196 1.34738C19.5999 1.34738 13.0794 1.34738 6.558 1.34738C5.07107 1.34738 4.06346 2.38368 4.05529 3.87557C4.05529 4.77571 4.05529 4.77567 4.91313 4.87569C5.21187 4.89563 5.50233 4.98417 5.76284 5.13465C6.02336 5.28514 6.2472 5.49375 6.41765 5.74483C6.5881 5.99591 6.70076 6.28295 6.74722 6.58466C6.79369 6.88638 6.77276 7.19494 6.686 7.48724C6.55608 7.91917 6.28996 8.2952 5.92899 8.55695C5.56801 8.8187 5.13238 8.95149 4.68982 8.93468C4.05256 8.93468 4.05256 8.93465 4.05256 9.60142V11.4767C4.05256 12.1907 4.05256 12.1908 4.74973 12.2297C6.14406 12.3102 7.0482 13.5326 6.68872 14.8467C6.566 15.2999 6.29211 15.6953 5.91429 15.9646C5.53647 16.2339 5.07838 16.3603 4.61901 16.322C4.12336 16.3053 4.01171 16.4636 4.04167 16.9331C4.08252 17.5721 4.04167 18.2139 4.04167 18.8556C4.04167 19.603 4.04166 19.603 4.76334 19.6336C5.07443 19.6368 5.38055 19.7136 5.65758 19.8581C5.9346 20.0025 6.17498 20.2105 6.35978 20.4659C6.54458 20.7212 6.66875 21.0168 6.72253 21.3294C6.7763 21.642 6.7582 21.963 6.66966 22.2673C6.54116 22.7095 6.2695 23.0942 5.89903 23.3586C5.52856 23.623 5.08117 23.7515 4.6299 23.7231C4.11792 23.7064 3.99537 23.8731 4.02805 24.3593C4.0689 24.9816 4.02805 25.6095 4.02805 26.2346C4.02805 27.0125 4.02805 27.0124 4.77424 27.0319C5.28328 27.0417 5.76983 27.2476 6.1361 27.6084C6.50237 27.9692 6.72121 28.458 6.74864 28.9766C6.77053 29.4855 6.60444 29.9843 6.28322 30.3742C5.96199 30.7642 5.50902 31.0169 5.01389 31.0825C4.7797 31.11 4.54427 31.1248 4.30855 31.127C4.16149 31.127 4.03622 31.127 4.03622 31.3437C3.81019 33.5523 5.01117 34.6498 6.74319 34.6414C13.1212 34.6192 19.5019 34.6414 25.8799 34.6414C27.6991 34.6414 28.6468 33.6801 28.6468 31.8382L28.6604 17.9833ZM3.42075 6.23705C2.96596 6.23705 2.51389 6.23705 2.0591 6.23705C1.96937 6.22825 1.87884 6.23837 1.79313 6.26683C1.70742 6.29529 1.62837 6.34149 1.56092 6.40248C1.49346 6.46347 1.43905 6.53797 1.40106 6.62136C1.36308 6.70475 1.34235 6.79518 1.34015 6.88711C1.33567 6.97631 1.34917 7.06553 1.37984 7.14919C1.4105 7.23286 1.45768 7.30924 1.51843 7.37356C1.57918 7.43789 1.65223 7.48882 1.73305 7.52319C1.81387 7.55756 1.90074 7.57464 1.98829 7.57338C2.92511 7.59839 3.86466 7.60117 4.8042 7.57338C4.89218 7.57645 4.97973 7.55965 5.06065 7.52428C5.14156 7.4889 5.21384 7.43579 5.27234 7.36868C5.33084 7.30157 5.37412 7.22214 5.39912 7.13603C5.42411 7.04992 5.4302 6.95927 5.41694 6.87049C5.41826 6.78175 5.40103 6.69369 5.36641 6.61227C5.3318 6.53085 5.28058 6.45794 5.21617 6.39827C5.15176 6.33861 5.07564 6.2936 4.99287 6.26628C4.9101 6.23897 4.82257 6.22996 4.73611 6.23983L3.42075 6.23705ZM3.39352 14.9773C3.83197 14.9773 4.27314 14.9939 4.7116 14.9773C5.15005 14.9606 5.46596 14.6606 5.45234 14.2772C5.44765 14.1846 5.42455 14.0939 5.38443 14.0107C5.34431 13.9275 5.28802 13.8536 5.21898 13.7933C5.14994 13.733 5.0696 13.6876 4.98284 13.66C4.89608 13.6324 4.80472 13.6231 4.71432 13.6326C3.83469 13.6326 2.95779 13.6326 2.07816 13.6326C1.98784 13.6231 1.89655 13.6323 1.80981 13.6597C1.72307 13.6871 1.64268 13.7322 1.57347 13.7921C1.50425 13.8521 1.44765 13.9258 1.40708 14.0086C1.36651 14.0915 1.34282 14.1819 1.33742 14.2744C1.33718 14.371 1.35648 14.4667 1.39413 14.5555C1.43178 14.6442 1.48696 14.724 1.55623 14.7899C1.62549 14.8559 1.70735 14.9066 1.79669 14.9388C1.88602 14.971 1.98092 14.9842 2.07543 14.9773C2.51116 14.9939 2.95506 14.9773 3.39352 14.9773ZM3.36901 29.7434H4.73066C4.81731 29.7541 4.9052 29.7458 4.98844 29.7191C5.07168 29.6923 5.14837 29.6477 5.21334 29.5882C5.27832 29.5288 5.33009 29.4559 5.36521 29.3744C5.40032 29.2929 5.41796 29.2046 5.41694 29.1155C5.4301 29.0269 5.42405 28.9364 5.39922 28.8503C5.3744 28.7643 5.3314 28.6849 5.27326 28.6176C5.21511 28.5504 5.14323 28.4969 5.06266 28.461C4.98209 28.4251 4.8948 28.4077 4.80692 28.4099C3.85376 28.3794 2.9006 28.3821 1.94472 28.4099C1.86114 28.4116 1.77875 28.4306 1.70256 28.4657C1.62637 28.5008 1.55794 28.5512 1.50143 28.6141C1.44491 28.6769 1.40148 28.7509 1.37375 28.8313C1.34603 28.9118 1.3346 28.9971 1.34015 29.0822C1.34119 29.1704 1.35944 29.2575 1.39382 29.3384C1.4282 29.4192 1.47801 29.4923 1.54037 29.5534C1.60273 29.6144 1.67638 29.6621 1.75703 29.6938C1.83767 29.7255 1.9237 29.7404 2.01008 29.7379C2.46215 29.7545 2.91694 29.7434 3.36901 29.7434ZM3.40441 22.359C3.84286 22.359 4.28404 22.359 4.72249 22.359C4.80921 22.3678 4.89679 22.3583 4.97971 22.3309C5.06263 22.3035 5.1391 22.259 5.20433 22.2C5.26955 22.141 5.32211 22.0689 5.3587 21.9882C5.39529 21.9076 5.41512 21.82 5.41694 21.7311C5.42749 21.6382 5.41792 21.544 5.3889 21.4553C5.35989 21.3666 5.31213 21.2855 5.24902 21.2177C5.18591 21.1498 5.10897 21.097 5.02364 21.0628C4.93831 21.0286 4.84666 21.014 4.75517 21.0199C3.84559 20.9949 2.93328 20.9949 2.03186 21.0199C1.94073 21.015 1.84963 21.0298 1.7645 21.0634C1.67937 21.0969 1.60215 21.1484 1.53788 21.2145C1.47361 21.2806 1.42374 21.3598 1.39154 21.4469C1.35934 21.534 1.34554 21.6271 1.35103 21.72C1.35413 21.809 1.3747 21.8966 1.41152 21.9774C1.44834 22.0582 1.50068 22.1306 1.56542 22.1904C1.63016 22.2503 1.70599 22.2963 1.78844 22.3257C1.8709 22.3551 1.9583 22.3674 2.04548 22.3618C2.49211 22.3618 2.94962 22.3562 3.40441 22.359Z" fill="white"/>
<path d="M17.0694 16.6556C15.3565 16.6556 13.6435 16.6556 11.9333 16.6556C10.5526 16.6556 9.741 15.8221 9.73828 14.4163C9.73828 12.4271 9.73828 10.4398 9.73828 8.45432C9.73828 7.06521 10.5553 6.23175 11.9169 6.23175C15.4028 6.23175 18.8895 6.23175 22.3772 6.23175C23.7034 6.23175 24.5177 7.06519 24.5204 8.42651C24.5204 10.4453 24.5204 12.4642 24.5204 14.483C24.5204 15.8027 23.7034 16.6473 22.4044 16.6556C20.6179 16.6611 18.8505 16.6556 17.0694 16.6556ZM17.1702 7.59026H11.9414C11.3015 7.59026 11.0999 7.79588 11.0972 8.45432C11.0972 10.4583 11.0972 12.4614 11.0972 14.4635C11.0972 15.0775 11.3205 15.297 11.9142 15.297C15.3873 15.297 18.8586 15.297 22.3281 15.297C22.9191 15.297 23.1588 15.0636 23.1615 14.4635C23.1615 12.4595 23.1615 10.4574 23.1615 8.4571C23.1615 7.81533 22.9327 7.60138 22.2982 7.59861L17.1702 7.59026Z" fill="white"/>
</g>
<defs>
<clipPath id="clip0_3724:3853">
<rect width="30" height="36" fill="white"/>
</clipPath>
</defs>
</svg>
