<svg viewBox="0 0 36 36" fill="none" xmlns="http://www.w3.org/2000/svg">
<path d="M35.3277 4H7.97623C7.60951 4 7.3039 4.30591 7.3039 4.673V7.6403H4.33956C3.97283 7.6403 3.66723 7.9462 3.66723 8.31329V11.2806H0.672326C0.305603 11.2806 0 11.5865 0 11.9536V32.2964C0 32.6635 0.305603 32.9694 0.672326 32.9694H28.0238C28.3905 32.9694 28.6961 32.6635 28.6961 32.2964V29.3291H31.6604C32.0272 29.3291 32.3328 29.0232 32.3328 28.6561V25.6888H35.2971C35.6638 25.6888 35.9694 25.3829 35.9694 25.0158V4.673C36 4.30591 35.6944 4 35.3277 4ZM27.3514 31.6234H1.37521V12.6572H27.3514V31.6234ZM30.9881 27.9831H28.7267V11.9842C28.7267 11.6171 28.421 11.3112 28.0543 11.3112H5.01188V9.01688H30.9881V27.9831ZM34.6248 24.3428H32.3633V8.34388C32.3633 7.97679 32.0577 7.67089 31.691 7.67089H8.64856V5.37658H34.6248V24.3428Z" fill="white"/>
<path d="M20.903 20.6109C20.8419 20.3967 20.6585 20.2744 20.4446 20.2132L16.594 19.6626L14.8826 16.1752C14.6993 15.7775 14.0575 15.7775 13.8742 16.1752L12.1628 19.6626L8.67891 20.152L8.28163 20.2132C8.06771 20.2438 7.88435 20.3967 7.82323 20.6109C7.76211 20.825 7.82323 21.0391 7.97603 21.1921L8.67891 21.8651L10.757 23.9147L10.6959 24.3429L10.4514 25.7195L10.0847 27.7385C10.0847 27.8303 10.0847 27.8915 10.0847 27.9526C10.1152 28.075 10.2069 28.1974 10.2986 28.2891C10.482 28.4115 10.6959 28.4421 10.8793 28.3197L11.5821 27.9526L14.3326 26.5149L17.083 27.9526L17.7859 28.3197C17.8776 28.3503 17.9692 28.3809 18.0609 28.3809C18.1832 28.3809 18.3054 28.3503 18.3971 28.2585C18.5193 28.1668 18.5804 28.075 18.611 27.922C18.611 27.8609 18.6416 27.7691 18.611 27.7079L18.2443 25.6583L18.0304 24.3429L17.9692 23.9147L20.7502 21.1921C20.903 21.0391 20.9641 20.825 20.903 20.6109ZM16.9607 23.3028C16.8385 23.4252 16.7774 23.6088 16.8079 23.7923L16.8996 24.3123L17.1441 25.6889L17.3275 26.8208L15.1883 25.6889L14.6076 25.383C14.5159 25.3524 14.4242 25.3218 14.3326 25.3218C14.2409 25.3218 14.1492 25.3524 14.0575 25.383L13.4769 25.6889L11.3377 26.8208L11.521 25.6889L11.7655 24.3123L11.8572 23.7923C11.8877 23.6088 11.8266 23.4252 11.7044 23.3028L9.50404 21.1615L12.5295 20.7332C12.7129 20.7026 12.8657 20.5803 12.9574 20.4273L14.302 17.6742L15.6467 20.4273C15.7383 20.5803 15.8911 20.7026 16.0745 20.7332L19.1 21.1615L16.9607 23.3028Z" fill="white"/>
</svg>
