<svg viewBox="0 0 36 36" fill="none" xmlns="http://www.w3.org/2000/svg">
<path d="M18.0003 34C9.18311 34 2 26.817 2 18C2 9.18298 9.18311 2 18.0003 2C26.8175 2 34.0006 9.18298 34.0006 18C34.0006 26.817 26.8175 34 18.0003 34ZM18.0003 3.53192C10.0342 3.53192 3.53194 10.034 3.53194 18C3.53194 25.966 10.0342 32.4681 18.0003 32.4681C25.9664 32.4681 32.4686 25.966 32.4686 18C32.4686 10.034 25.9664 3.53192 18.0003 3.53192Z" fill="white"/>
<path d="M18.0004 26.1362C17.5919 26.1362 17.2515 25.7958 17.2515 25.3873V10.6469C17.2515 10.2384 17.5919 9.89795 18.0004 9.89795C18.4089 9.89795 18.7494 10.2384 18.7494 10.6469V25.3873C18.7494 25.7958 18.4089 26.1362 18.0004 26.1362Z" fill="white"/>
<path d="M25.3535 18.7487H10.6469C10.2384 18.7487 9.89795 18.4083 9.89795 17.9998C9.89795 17.5913 10.2384 17.2509 10.6469 17.2509H25.3876C25.7961 17.2509 26.1365 17.5913 26.1365 17.9998C26.1365 18.4083 25.7961 18.7487 25.3535 18.7487Z" fill="white"/>
</svg>
