<svg viewBox="0 0 36 36" fill="none" xmlns="http://www.w3.org/2000/svg">
<g clip-path="url(#clip0)">
<path d="M15.4661 17.016C11.7298 17.016 8.66406 13.883 8.66406 9.99149C8.696 6.13298 11.7298 3 15.4661 3C19.2024 3 22.2681 6.13298 22.2681 10.0245C22.2681 13.883 19.2343 17.016 15.4661 17.016ZM15.4661 4.48404C12.4962 4.48404 10.1011 6.95745 10.1011 10.0245C10.1011 13.0915 12.4962 15.5649 15.4661 15.5649C18.436 15.5649 20.831 13.0915 20.831 10.0245C20.831 6.95745 18.436 4.48404 15.4661 4.48404Z" fill="white"/>
<path d="M22.8109 31.3946H1.73429C1.35108 31.3946 1.03174 31.0648 1.03174 30.6691C1.03174 22.4574 7.54634 15.7627 15.5299 15.7627C18.915 15.7627 22.2042 16.9829 24.8228 19.2255C25.1102 19.4893 25.1741 19.951 24.9186 20.2808C24.6631 20.6106 24.216 20.6435 23.8967 20.3797C21.5655 18.368 18.5637 17.2467 15.5299 17.2467C8.56824 17.2467 2.85199 22.8861 2.50072 29.9435H22.8429C23.2261 29.9435 23.5454 30.2733 23.5454 30.6691C23.5135 31.0648 23.1942 31.3946 22.8109 31.3946Z" fill="white"/>
<path d="M28.176 33.9999C23.8648 33.9999 20.3521 30.3722 20.3521 25.9201C20.384 21.468 23.8648 17.8403 28.176 17.8403C32.4871 17.8403 35.9999 21.468 35.9999 25.9201C35.9999 30.3722 32.4871 33.9999 28.176 33.9999ZM28.176 19.3244C24.6632 19.3244 21.7891 22.2925 21.7891 25.9201C21.7891 29.5478 24.6632 32.5159 28.176 32.5159C31.6887 32.5159 34.5628 29.5478 34.5628 25.9201C34.5628 22.2925 31.6887 19.3244 28.176 19.3244Z" fill="white"/>
<path d="M28.1762 28.9873C27.793 28.9873 27.4736 28.6575 27.4736 28.2618V23.5788C27.4736 23.1831 27.793 22.8533 28.1762 22.8533C28.5594 22.8533 28.8787 23.1831 28.8787 23.5788V28.2618C28.9107 28.6575 28.5913 28.9873 28.1762 28.9873Z" fill="white"/>
<path d="M30.4433 26.6459H25.9086C25.5254 26.6459 25.2061 26.3161 25.2061 25.9204C25.2061 25.5246 25.5254 25.1948 25.9086 25.1948H30.4433C30.8265 25.1948 31.1458 25.5246 31.1458 25.9204C31.1778 26.3161 30.8584 26.6459 30.4433 26.6459Z" fill="white"/>
</g>
<defs>
<clipPath id="clip0">
<rect width="35" height="31" fill="white" transform="translate(1 3)"/>
</clipPath>
</defs>
</svg>
