<svg viewBox="0 0 36 36" fill="none" xmlns="http://www.w3.org/2000/svg">
<path d="M30.1437 35.2462H5.8553C5.41436 35.2462 5.04691 34.8815 5.04691 34.4438V19.6731H0.821248C0.490544 19.6731 0.196585 19.4908 0.0496056 19.1625C-0.0606291 18.8707 0.0128607 18.506 0.270075 18.2872L17.4299 1.21883C17.7239 0.927058 18.2751 0.927058 18.6058 1.21883L35.7656 18.2507C35.9861 18.4696 36.0596 18.8343 35.9494 19.126C35.8391 19.4178 35.5084 19.6366 35.1777 19.6366H30.9888V34.4074C30.9888 34.8815 30.6213 35.2462 30.1437 35.2462ZM6.70043 33.6415H29.3353V18.8707C29.3353 18.4331 29.7027 18.0684 30.1437 18.0684H33.1935L18.0179 2.96943L2.80547 18.0319H5.8553C6.29624 18.0319 6.66368 18.3966 6.66368 18.8343V33.6415H6.70043Z" fill="white"/>
<path d="M21.8759 35.2464H14.1595C13.7185 35.2464 13.3511 34.8816 13.3511 34.444V21.8251C13.3511 21.3874 13.7185 21.0227 14.1595 21.0227H21.8759C22.3168 21.0227 22.6843 21.3874 22.6843 21.8251V34.444C22.6843 34.8816 22.3168 35.2464 21.8759 35.2464ZM14.9679 33.6416H21.0675V22.6639H14.9679V33.6416Z" fill="white"/>
</svg>
