<svg viewBox="0 0 36 36" fill="none" xmlns="http://www.w3.org/2000/svg">
<g clip-path="url(#clip0)">
<path d="M18.6502 24.1148C14.6458 24.4885 11.2737 21.2613 11.6601 17.3547C11.9411 14.4672 14.3648 12.1573 17.3506 11.8515C21.355 11.4779 24.7271 14.705 24.3407 18.6116C24.0245 21.4991 21.636 23.8091 18.6502 24.1148ZM18.6502 13.1084C15.3484 12.7008 12.5383 15.4184 12.9598 18.6456C13.2408 20.8197 15.0674 22.6201 17.3506 22.8919C20.6876 23.2995 23.4977 20.5819 23.0761 17.3547C22.76 15.1466 20.9334 13.3802 18.6502 13.1084Z" fill="white"/>
<path d="M21.1798 34H14.8219C14.5058 34 14.2248 33.7622 14.1897 33.4565L13.6979 29.5839C12.2577 29.1083 10.9581 28.3609 9.7989 27.4098L6.07551 28.9384C5.7945 29.0743 5.44324 28.9384 5.26761 28.6667L2.07112 23.3333C1.93062 23.0616 2.00087 22.7219 2.24675 22.518L5.47837 20.1741C5.33786 19.4607 5.26761 18.7473 5.26761 18C5.26761 17.2527 5.33786 16.5393 5.47837 15.8259L2.24675 13.482C2.00087 13.3121 1.93062 12.9384 2.07112 12.6667L5.26761 7.33333C5.44324 7.06157 5.75938 6.95966 6.07551 7.06157L9.7989 8.59023C10.9581 7.63907 12.2577 6.92569 13.6979 6.41614L14.1897 2.54352C14.2248 2.23779 14.5058 2 14.8219 2H21.1798C21.4959 2 21.7769 2.23779 21.8121 2.54352L22.3038 6.41614C23.744 6.89172 25.0437 7.63907 26.2029 8.59023L29.9262 7.06157C30.2072 6.92569 30.5585 7.06157 30.7341 7.33333L33.9306 12.6667C34.1063 12.9384 34.036 13.2781 33.755 13.482L30.5234 15.8259C30.6639 16.5393 30.7341 17.2527 30.7341 18C30.7341 18.7473 30.6639 19.4607 30.5234 20.1741L33.755 22.518C34.0009 22.6879 34.0711 23.0616 33.9306 23.3333L30.7341 28.6667C30.5585 28.9384 30.2424 29.0403 29.9262 28.9384L26.2029 27.4098C25.0437 28.3609 23.7089 29.0743 22.3038 29.5839L21.8121 33.4565C21.7769 33.7622 21.4959 34 21.1798 34ZM15.384 32.7431H20.6178L21.1095 29.0064C21.1447 28.7686 21.3203 28.5648 21.5662 28.4968C23.0766 28.0212 24.4817 27.2739 25.676 26.2208C25.8516 26.051 26.1326 26.017 26.3434 26.1189L29.9262 27.5796L32.5607 23.1975L29.4696 20.9554C29.2588 20.8195 29.1886 20.5478 29.2237 20.31C29.3993 19.5626 29.4696 18.7813 29.4696 18C29.4696 17.2187 29.3993 16.4374 29.2237 15.69C29.1535 15.4522 29.2588 15.2144 29.4696 15.0446L32.5607 12.8025L29.9262 8.42038L26.3434 9.8811C26.0975 9.98302 25.8516 9.91507 25.676 9.77919C24.4817 8.72612 23.0766 7.97877 21.5662 7.50319C21.3203 7.43525 21.1447 7.23142 21.1095 6.99363L20.6178 3.22293H15.384L14.8922 6.95966C14.8571 7.19745 14.6814 7.40127 14.4356 7.46921C12.9251 7.9448 11.5201 8.69214 10.3258 9.74522C10.1502 9.91507 9.86915 9.94905 9.65839 9.84713L6.07551 8.38641L3.47617 12.8025L6.56728 15.0446C6.77804 15.1805 6.84829 15.4522 6.81316 15.69C6.63753 16.4374 6.56728 17.1847 6.56728 17.966C6.56728 18.7473 6.63753 19.5287 6.81316 20.242C6.88342 20.4798 6.77804 20.7176 6.56728 20.8875L3.47617 23.1295L6.11064 27.5117L9.65839 26.1189C9.90427 26.017 10.1502 26.0849 10.3258 26.2208C11.5201 27.2739 12.9251 28.0212 14.4356 28.4968C14.6814 28.5648 14.8571 28.7686 14.8922 29.0064L15.384 32.7431Z" fill="white"/>
</g>
<defs>
<clipPath id="clip0">
<rect width="32" height="32" fill="white" transform="translate(2 2)"/>
</clipPath>
</defs>
</svg>
