<svg viewBox="0 0 26 24" fill="none" xmlns="http://www.w3.org/2000/svg">
<path fill-rule="evenodd" clip-rule="evenodd" d="M12.8692 6.25C7.27937 6.25 4.41054 10.1355 3.46983 11.6837L3.46735 11.6878C3.33374 11.903 3.32477 12.1902 3.47251 12.4469C4.40925 13.9867 7.30266 17.75 12.8692 17.75H13.1305C18.7279 17.75 21.5955 13.9803 22.5299 12.4425L22.5323 12.4385C22.6662 12.2229 22.6749 11.935 22.5264 11.678C21.5865 10.1077 18.7182 6.25 13.1305 6.25H12.8692ZM2.57117 11.178C3.56499 9.54306 6.70497 5.25 12.8692 5.25H13.1305C19.2959 5.25 22.4363 9.51904 23.4314 11.1828L23.4345 11.1879L23.4344 11.188C23.7543 11.7377 23.7631 12.4073 23.4285 12.9482C22.4284 14.5935 19.2872 18.75 13.1305 18.75H12.8692C6.73691 18.75 3.56943 14.5912 2.57004 12.9464L2.56517 12.9383L2.56525 12.9383C2.24535 12.3886 2.23653 11.719 2.57117 11.178Z" fill="#ECFFFE"/>
<path fill-rule="evenodd" clip-rule="evenodd" d="M12.9998 8.75006C11.1301 8.75006 9.61442 10.2051 9.61442 12.0001C9.61442 13.795 11.1301 15.2501 12.9998 15.2501C14.8696 15.2501 16.3853 13.795 16.3853 12.0001C16.3853 10.2051 14.8696 8.75006 12.9998 8.75006ZM8.57275 12.0001C8.57275 9.65285 10.5548 7.75006 12.9998 7.75006C15.4448 7.75006 17.4269 9.65285 17.4269 12.0001C17.4269 14.3473 15.4448 16.2501 12.9998 16.2501C10.5548 16.2501 8.57275 14.3473 8.57275 12.0001Z" fill="#ECFFFE"/>
<path d="M12.9998 12.5001C13.2875 12.5001 13.5207 12.2762 13.5207 12.0001C13.5207 11.7239 13.2875 11.5001 12.9998 11.5001C12.7122 11.5001 12.479 11.7239 12.479 12.0001C12.479 12.2762 12.7122 12.5001 12.9998 12.5001Z" fill="#ECFFFE"/>
<path fill-rule="evenodd" clip-rule="evenodd" d="M11.9585 12.0001C11.9585 11.4478 12.4249 11.0001 13.0002 11.0001C13.5755 11.0001 14.0418 11.4478 14.0418 12.0001C14.0418 12.5523 13.5755 13.0001 13.0002 13.0001C12.4249 13.0001 11.9585 12.5523 11.9585 12.0001Z" fill="#ECFFFE"/>
</svg>
