<svg width="36" height="36" viewBox="0 0 36 36" fill="none" xmlns="http://www.w3.org/2000/svg">
<circle cx="18" cy="18" r="18" fill="url(#paint0_linear)"/>
<path d="M22.4141 18.1609C22.4141 17.3901 23.0308 16.7734 23.8017 16.7734C24.5726 16.7734 25.1893 17.3901 25.1893 18.1609C25.1893 18.9318 24.5726 19.5484 23.8017 19.5484C23.0308 19.5484 22.4141 18.9061 22.4141 18.1609Z" fill="white"/>
<path d="M30.7911 21.5263C30.7397 21.9631 30.6883 22.3999 30.5598 22.811C30.1744 24.2756 29.3264 25.6117 27.9387 26.3569C26.0371 27.3333 23.7758 26.9735 21.8742 26.2284C20.3067 27.3333 20.3067 27.3333 20.3067 27.3333C19.9469 27.5645 19.4844 27.1791 19.69 26.7937C19.2531 26.8708 19.1246 26.4596 19.2531 26.1256C18.8934 26.4083 18.585 25.8944 18.7906 25.586C18.9191 25.3805 19.1246 25.1492 19.2788 24.9694C17.0689 23.7104 15.0645 22.1687 13.0344 20.6527C14.1908 21.3722 18.8163 23.736 19.9469 24.2242C21.129 24.7381 22.3111 25.252 23.5445 25.5347C24.5724 25.7659 25.883 25.8944 26.8337 25.3034C27.7074 24.7895 28.0415 23.736 28.17 22.7854C28.4784 20.7298 27.7588 18.4173 26.6796 16.6701C25.5489 14.8458 23.6987 13.2013 21.5915 12.6618C20.8206 12.4562 20.0497 12.4562 19.3302 12.5847C17.6599 12.8673 16.1438 13.8951 14.9874 15.1798C13.3171 17.0298 12.1607 19.3166 11.1072 21.5777C10.3876 23.0937 9.38546 26.7937 7.02133 25.3291C5.96775 24.661 5.29963 23.5048 4.83708 22.3742C4.32314 21.1666 3.96338 19.5479 4.29744 18.2374C5.01696 15.4881 8.87152 17.9291 10.1821 18.8027C10.105 18.777 7.02133 17.3638 5.89066 18.4687C5.37672 18.9826 5.40242 19.9076 5.47951 20.5756C5.63369 21.7833 6.22472 23.5819 7.35539 24.2499C8.82012 25.0978 9.56534 22.4513 9.95079 21.5263C10.5932 19.959 11.2099 18.3916 11.9295 16.85C12.7261 15.1541 13.6769 13.484 14.9874 12.1222C14.7047 11.7882 14.2936 11.377 14.2679 10.9402C14.2165 10.4521 14.7047 9.91247 15.2187 10.1694C14.6277 9.50136 15.4243 8.49928 16.1952 8.88469C15.8354 8.31942 16.4007 7.59997 16.9918 7.62567C17.3258 7.62567 17.6599 7.90831 17.9169 8.08817C18.585 8.52497 19.2531 8.98747 19.9469 9.42428C26.3455 8.42219 31.3564 15.6937 30.7911 21.5263Z" fill="white"/>
<defs>
<linearGradient id="paint0_linear" x1="-1.3411e-07" y1="18" x2="36" y2="18" gradientUnits="userSpaceOnUse">
<stop stop-color="#030332"/>
<stop offset="1" stop-color="#171753"/>
</linearGradient>
</defs>
</svg>
