<svg viewBox="0 0 32 32" fill="none" xmlns="http://www.w3.org/2000/svg">
<path d="M16.0003 32C7.18311 32 0 24.817 0 16C0 7.18298 7.18311 0 16.0003 0C24.8175 0 32.0006 7.18298 32.0006 16C32.0006 24.817 24.8175 32 16.0003 32ZM16.0003 1.53192C8.03419 1.53192 1.53194 8.03404 1.53194 16C1.53194 23.966 8.03419 30.4681 16.0003 30.4681C23.9664 30.4681 30.4686 23.966 30.4686 16C30.4686 8.03404 23.9664 1.53192 16.0003 1.53192Z" fill="#5ED9D1"/>
<path d="M16.0002 24.1362C15.5917 24.1362 15.2512 23.7958 15.2512 23.3873V8.64688C15.2512 8.23837 15.5917 7.89795 16.0002 7.89795C16.4087 7.89795 16.7491 8.23837 16.7491 8.64688V23.3873C16.7491 23.7958 16.4087 24.1362 16.0002 24.1362Z" fill="#5ED9D1"/>
<path d="M23.3533 16.7488H8.64665C8.23814 16.7488 7.89771 16.4084 7.89771 15.9999C7.89771 15.5914 8.23814 15.251 8.64665 15.251H23.3873C23.7959 15.251 24.1363 15.5914 24.1363 15.9999C24.1363 16.4084 23.7959 16.7488 23.3533 16.7488Z" fill="#5ED9D1"/>
</svg>
