<svg viewBox="0 0 32 28" fill="none" xmlns="http://www.w3.org/2000/svg">
<path d="M15.2724 20.1874L15.2724 0.783116C15.2724 0.374605 15.6128 0.0341796 16.0213 0.0341797C16.4298 0.0341797 16.7703 0.374605 16.7703 0.783116L16.7703 20.1874C16.7703 20.5959 16.4298 20.9363 16.0213 20.9363C15.6128 20.9363 15.2724 20.5959 15.2724 20.1874Z" fill="#9BE7C4"/>
<path d="M7.00003 11.9151C7.00003 11.7108 7.06811 11.5406 7.23832 11.3704C7.54471 11.064 8.0213 11.064 8.32769 11.3704L16.0553 19.0981L23.749 11.3704C24.0553 11.064 24.5319 11.064 24.8383 11.3704C25.1447 11.6768 25.1447 12.1534 24.8383 12.4598L16.566 20.7321C16.2596 21.0385 15.783 21.0385 15.4766 20.7321L7.23832 12.4598C7.06811 12.3236 7.00003 12.1193 7.00003 11.9151Z" fill="#9BE7C4"/>
<path d="M-3.08358e-05 26.5533L-3.01885e-05 11.7448C-3.01706e-05 11.3363 0.340394 10.9958 0.748905 10.9958C1.15742 10.9958 1.49784 11.3363 1.49784 11.7448L1.49784 25.7703L30.434 25.7703L30.434 11.7448C30.434 11.3363 30.7744 10.9958 31.1829 10.9958C31.5915 10.9958 31.9319 11.3363 31.9319 11.7448L31.9319 26.5533C31.9319 26.9618 31.5915 27.3022 31.1829 27.3022L0.714862 27.3022C0.340394 27.3022 -3.08537e-05 26.9618 -3.08358e-05 26.5533Z" fill="#9BE7C4"/>
</svg>
