<svg width="792" height="209" viewBox="0 0 792 209" fill="none" xmlns="http://www.w3.org/2000/svg">
<g clip-path="url(#clip0_2090_11157)">
<path d="M628.4 180.793C602.38 176.089 576.638 165.971 558.304 146.266C549.9 137.405 543.691 126.704 540.176 115.019C537.304 104.366 536.553 93.2552 537.964 82.3138C540.502 59.6538 549.397 38.1756 556.237 16.6009C559.996 4.74633 563.38 -7.5183 564.697 -20L558.655 -20C558.485 -18.5649 558.292 -17.1178 558.062 -15.6947C554.437 7.41151 545.107 29.1309 538.496 51.4412C532.175 72.7746 527.969 95.7964 534.568 117.588C541.819 141.623 560.709 160.701 582.657 172.134C608.036 185.399 637.042 189.572 665.322 190.452C696.478 191.429 727.538 188.04 758.598 186.111C771.82 185.279 785.331 184.76 798.879 184.905L798.879 178.742C742.125 177.922 684.961 190.995 628.4 180.793Z" fill="#FFA54B"/>
<path d="M717.41 200.389L700.612 202.078C635.978 208.662 569.157 215.464 512.56 185.954C478.793 168.347 452.628 139.332 427.333 111.269C406.425 88.0662 384.792 64.0676 358.796 46.3279C306.828 10.8485 240.14 2.73236 187.846 -0.379017C174.552 -1.17495 161.052 -1.72969 147.963 -2.27237C102.183 -4.17779 54.8442 -6.10733 10.1035 -18.2996C8.07315 -18.8423 6.07903 -19.4211 4.06075 -20L0 -20C3.16641 -19.0111 6.42951 -18.0463 9.7893 -17.1298C54.6509 -4.91342 102.062 -2.97183 147.915 -1.06641C160.992 -0.523731 174.503 0.0310109 187.797 0.814885C239.934 3.92626 306.405 12.0062 358.204 47.3288C384.067 64.9841 405.652 88.9224 426.523 112.077C451.903 140.212 478.117 169.312 512.089 187.027C568.915 216.706 635.93 209.88 700.732 203.248C706.372 202.669 711.972 202.106 717.531 201.559C743.092 199.063 771.191 197.423 799 199.437L799 198.231C771.131 196.253 743.008 197.893 717.41 200.389Z" fill="white"/>
</g>
<defs>
<clipPath id="clip0_2090_11157">
<rect width="799" height="229" fill="white" transform="translate(0 -20)"/>
</clipPath>
</defs>
</svg>
