<svg viewBox="0 0 25 25" fill="none" xmlns="http://www.w3.org/2000/svg">
<path d="M12.5002 25C5.6118 25 0 19.3883 0 12.5C0 5.6117 5.6118 0 12.5002 0C19.3886 0 25.0004 5.6117 25.0004 12.5C25.0004 19.3883 19.3886 25 12.5002 25ZM12.5002 1.19681C6.27671 1.19681 1.19683 6.2766 1.19683 12.5C1.19683 18.7234 6.27671 23.8032 12.5002 23.8032C18.7237 23.8032 23.8036 18.7234 23.8036 12.5C23.8036 6.2766 18.7237 1.19681 12.5002 1.19681Z" fill="white"/>
<path d="M8.01553 16.9887C7.78986 16.763 7.78986 16.3869 8.01553 16.1612L16.1585 8.01822C16.3842 7.79255 16.7603 7.79256 16.986 8.01823C17.2117 8.24391 17.2117 8.62003 16.986 8.8457L8.84301 16.9887C8.61734 17.2144 8.24121 17.2144 8.01553 16.9887Z" fill="white"/>
<path d="M16.1618 16.97L8.03745 8.8457C7.81177 8.62002 7.81177 8.2439 8.03744 8.01822C8.26311 7.79255 8.63924 7.79256 8.86491 8.01823L17.0081 16.1614C17.2337 16.3871 17.2337 16.7632 17.0081 16.9889C16.7824 17.2145 16.4063 17.2145 16.1618 16.97Z" fill="white"/>
</svg>
