<svg viewBox="0 0 16 16" fill="none" xmlns="http://www.w3.org/2000/svg">
<path d="M8 16C3.59149 16 0 12.4085 0 8C0 3.59149 3.59149 0 8 0C12.4085 0 16 3.59149 16 8C16 12.4085 12.4085 16 8 16ZM8 0.765957C4 0.765957 0.765957 4 0.765957 8C0.765957 12 4 15.234 8 15.234C11.983 15.234 15.234 11.983 15.234 8C15.234 4.01702 11.983 0.765957 8 0.765957Z" fill="#9BE7C4"/>
<path d="M6.97935 11.0459C6.8602 11.0459 6.72403 10.9949 6.63892 10.9098L4.20488 8.45869C4.01764 8.27146 4.01764 7.96508 4.20488 7.77784C4.39211 7.59061 4.6985 7.59061 4.88573 7.77784L6.97935 9.9055L11.1155 5.76933C11.3028 5.5821 11.6091 5.5821 11.7964 5.76933C11.9836 5.95657 11.9836 6.26295 11.7964 6.45018L7.31977 10.9098C7.23467 10.9949 7.11552 11.0459 6.97935 11.0459Z" fill="#9BE7C4"/>
</svg>
