<svg viewBox="0 0 21 21" fill="none" xmlns="http://www.w3.org/2000/svg">
<path d="M10.5002 19.8337C5.35689 19.8337 1.16675 15.6436 1.16675 10.5003C1.16675 5.35706 5.35689 1.16699 10.5002 1.16699C15.6436 1.16699 19.8337 5.35706 19.8337 10.5003C19.8337 15.6436 15.6436 19.8337 10.5002 19.8337ZM10.5002 2.06061C5.85336 2.06061 2.06038 5.85352 2.06038 10.5003C2.06038 15.1471 5.85336 18.94 10.5002 18.94C15.1471 18.94 18.9401 15.1471 18.9401 10.5003C18.9401 5.85352 15.1471 2.06061 10.5002 2.06061Z" fill="#49CE8B"/>
<path d="M10.5001 15.2467C10.2618 15.2467 10.0632 15.0482 10.0632 14.8099V6.21129C10.0632 5.97299 10.2618 5.77441 10.5001 5.77441C10.7384 5.77441 10.937 5.97299 10.937 6.21129V14.8099C10.937 15.0482 10.7384 15.2467 10.5001 15.2467Z" fill="#49CE8B"/>
<path d="M14.7897 10.9372H6.21081C5.97251 10.9372 5.77393 10.7387 5.77393 10.5004C5.77393 10.2621 5.97251 10.0635 6.21081 10.0635H14.8095C15.0478 10.0635 15.2464 10.2621 15.2464 10.5004C15.2464 10.7387 15.0478 10.9372 14.7897 10.9372Z" fill="#49CE8B"/>
</svg>
