<svg width="180" height="45" viewBox="0 0 180 45" fill="none" xmlns="http://www.w3.org/2000/svg">
<g filter="url(#filter0_d_6370_38996)">
<rect x="4" y="0.439697" width="172" height="36" rx="18" fill="#BEF0ED" shape-rendering="crispEdges"/>
<path d="M22.392 23.4397L26.074 13.2197H28.398L32.192 23.4397H30.778L27.348 14.1157L28.02 14.4517H26.368L27.082 14.1157L23.764 23.4397H22.392ZM24.59 20.3877L25.052 19.1557H29.462L29.924 20.3877H24.59ZM36.77 23.6917C36.238 23.6917 35.748 23.5937 35.3 23.3977C34.852 23.2017 34.46 22.9264 34.124 22.5717C33.7973 22.217 33.5407 21.8064 33.354 21.3397C33.1767 20.873 33.088 20.369 33.088 19.8277V19.5757C33.088 19.0437 33.1767 18.5444 33.354 18.0777C33.5313 17.611 33.7787 17.2004 34.096 16.8457C34.4227 16.491 34.8053 16.2157 35.244 16.0197C35.692 15.8144 36.1867 15.7117 36.728 15.7117C37.2973 15.7117 37.8153 15.833 38.282 16.0757C38.7487 16.309 39.1313 16.6777 39.43 17.1817C39.7287 17.6857 39.8967 18.339 39.934 19.1417L39.374 18.2457V13.2197H40.718V23.4397H39.654V20.1217H40.046C40.0087 20.971 39.8313 21.6617 39.514 22.1937C39.1967 22.7164 38.7953 23.099 38.31 23.3417C37.834 23.575 37.3207 23.6917 36.77 23.6917ZM36.952 22.5157C37.4093 22.5157 37.8247 22.413 38.198 22.2077C38.5713 22.0024 38.87 21.7084 39.094 21.3257C39.318 20.9337 39.43 20.4764 39.43 19.9537V19.3097C39.43 18.7964 39.3133 18.3624 39.08 18.0077C38.856 17.6437 38.5527 17.3684 38.17 17.1817C37.7967 16.9857 37.386 16.8877 36.938 16.8877C36.4433 16.8877 36.0047 17.0044 35.622 17.2377C35.2487 17.471 34.9547 17.7977 34.74 18.2177C34.5347 18.6377 34.432 19.1324 34.432 19.7017C34.432 20.271 34.5393 20.7704 34.754 21.1997C34.9687 21.6197 35.2673 21.9464 35.65 22.1797C36.0327 22.4037 36.4667 22.5157 36.952 22.5157ZM46.2823 23.6917C45.7503 23.6917 45.2603 23.5937 44.8123 23.3977C44.3643 23.2017 43.9723 22.9264 43.6363 22.5717C43.3097 22.217 43.053 21.8064 42.8663 21.3397C42.689 20.873 42.6003 20.369 42.6003 19.8277V19.5757C42.6003 19.0437 42.689 18.5444 42.8663 18.0777C43.0437 17.611 43.291 17.2004 43.6083 16.8457C43.935 16.491 44.3177 16.2157 44.7563 16.0197C45.2043 15.8144 45.699 15.7117 46.2403 15.7117C46.8097 15.7117 47.3277 15.833 47.7943 16.0757C48.261 16.309 48.6437 16.6777 48.9423 17.1817C49.241 17.6857 49.409 18.339 49.4463 19.1417L48.8863 18.2457V13.2197H50.2303V23.4397H49.1663V20.1217H49.5583C49.521 20.971 49.3437 21.6617 49.0263 22.1937C48.709 22.7164 48.3077 23.099 47.8223 23.3417C47.3463 23.575 46.833 23.6917 46.2823 23.6917ZM46.4643 22.5157C46.9217 22.5157 47.337 22.413 47.7103 22.2077C48.0837 22.0024 48.3823 21.7084 48.6063 21.3257C48.8303 20.9337 48.9423 20.4764 48.9423 19.9537V19.3097C48.9423 18.7964 48.8257 18.3624 48.5923 18.0077C48.3683 17.6437 48.065 17.3684 47.6823 17.1817C47.309 16.9857 46.8983 16.8877 46.4503 16.8877C45.9557 16.8877 45.517 17.0044 45.1343 17.2377C44.761 17.471 44.467 17.7977 44.2523 18.2177C44.047 18.6377 43.9443 19.1324 43.9443 19.7017C43.9443 20.271 44.0517 20.7704 44.2663 21.1997C44.481 21.6197 44.7797 21.9464 45.1623 22.1797C45.545 22.4037 45.979 22.5157 46.4643 22.5157ZM52.6727 23.4397V15.9637H53.7367V19.0437H53.6807C53.6807 17.9517 53.9187 17.1537 54.3947 16.6497C54.88 16.1364 55.6034 15.8797 56.5647 15.8797H56.8167V17.0837H56.3407C55.594 17.0837 55.02 17.2844 54.6187 17.6857C54.2174 18.0777 54.0167 18.647 54.0167 19.3937V23.4397H52.6727ZM61.3708 23.6917C60.7175 23.6917 60.1528 23.5797 59.6768 23.3557C59.2008 23.1317 58.8135 22.8377 58.5148 22.4737C58.2162 22.1004 57.9922 21.685 57.8428 21.2277C57.7028 20.7704 57.6328 20.3037 57.6328 19.8277V19.5757C57.6328 19.0904 57.7028 18.619 57.8428 18.1617C57.9922 17.7044 58.2162 17.2937 58.5148 16.9297C58.8135 16.5564 59.1915 16.2624 59.6488 16.0477C60.1155 15.8237 60.6615 15.7117 61.2868 15.7117C62.0988 15.7117 62.7662 15.889 63.2888 16.2437C63.8208 16.589 64.2128 17.037 64.4648 17.5877C64.7262 18.1384 64.8568 18.7264 64.8568 19.3517V19.9537H58.2208V18.9457H63.8768L63.5688 19.4917C63.5688 18.9597 63.4848 18.5024 63.3168 18.1197C63.1488 17.7277 62.8968 17.4244 62.5608 17.2097C62.2248 16.995 61.8002 16.8877 61.2868 16.8877C60.7548 16.8877 60.3115 17.009 59.9568 17.2517C59.6115 17.4944 59.3502 17.8257 59.1728 18.2457C59.0048 18.6657 58.9208 19.151 58.9208 19.7017C58.9208 20.2337 59.0048 20.7144 59.1728 21.1437C59.3502 21.5637 59.6208 21.8997 59.9848 22.1517C60.3488 22.3944 60.8108 22.5157 61.3708 22.5157C61.9588 22.5157 62.4348 22.385 62.7988 22.1237C63.1722 21.8624 63.3962 21.559 63.4708 21.2137H64.7308C64.6282 21.727 64.4228 22.1704 64.1148 22.5437C63.8068 22.917 63.4195 23.2017 62.9528 23.3977C62.4862 23.5937 61.9588 23.6917 61.3708 23.6917ZM69.0751 23.6637C68.0951 23.6637 67.3344 23.4537 66.7931 23.0337C66.2611 22.6137 65.9858 22.0397 65.9671 21.3117H67.2271C67.2458 21.601 67.3904 21.8764 67.6611 22.1377C67.9411 22.3897 68.4124 22.5157 69.0751 22.5157C69.6724 22.5157 70.1298 22.399 70.4471 22.1657C70.7644 21.923 70.9231 21.629 70.9231 21.2837C70.9231 20.9757 70.8064 20.7377 70.5731 20.5697C70.3398 20.3924 69.9618 20.2757 69.4391 20.2197L68.6271 20.1357C67.9178 20.061 67.3391 19.851 66.8911 19.5057C66.4431 19.151 66.2191 18.6564 66.2191 18.0217C66.2191 17.5457 66.3404 17.1397 66.5831 16.8037C66.8258 16.4584 67.1618 16.197 67.5911 16.0197C68.0204 15.833 68.5151 15.7397 69.0751 15.7397C69.9151 15.7397 70.5964 15.9264 71.1191 16.2997C71.6418 16.673 71.9124 17.2284 71.9311 17.9657H70.6711C70.6618 17.667 70.5218 17.415 70.2511 17.2097C69.9898 16.995 69.5978 16.8877 69.0751 16.8877C68.5524 16.8877 68.1558 16.995 67.8851 17.2097C67.6144 17.4244 67.4791 17.695 67.4791 18.0217C67.4791 18.3017 67.5724 18.5257 67.7591 18.6937C67.9551 18.8617 68.2724 18.969 68.7111 19.0157L69.5231 19.0997C70.3258 19.1837 70.9698 19.4077 71.4551 19.7717C71.9404 20.1264 72.1831 20.6304 72.1831 21.2837C72.1831 21.7504 72.0478 22.1657 71.7771 22.5297C71.5158 22.8844 71.1518 23.1644 70.6851 23.3697C70.2184 23.5657 69.6818 23.6637 69.0751 23.6637ZM76.441 23.6637C75.461 23.6637 74.7003 23.4537 74.159 23.0337C73.627 22.6137 73.3516 22.0397 73.333 21.3117H74.593C74.6116 21.601 74.7563 21.8764 75.027 22.1377C75.307 22.3897 75.7783 22.5157 76.441 22.5157C77.0383 22.5157 77.4956 22.399 77.813 22.1657C78.1303 21.923 78.289 21.629 78.289 21.2837C78.289 20.9757 78.1723 20.7377 77.939 20.5697C77.7056 20.3924 77.3276 20.2757 76.805 20.2197L75.993 20.1357C75.2836 20.061 74.705 19.851 74.257 19.5057C73.809 19.151 73.585 18.6564 73.585 18.0217C73.585 17.5457 73.7063 17.1397 73.949 16.8037C74.1916 16.4584 74.5276 16.197 74.957 16.0197C75.3863 15.833 75.881 15.7397 76.441 15.7397C77.281 15.7397 77.9623 15.9264 78.485 16.2997C79.0076 16.673 79.2783 17.2284 79.297 17.9657H78.037C78.0276 17.667 77.8876 17.415 77.617 17.2097C77.3556 16.995 76.9636 16.8877 76.441 16.8877C75.9183 16.8877 75.5216 16.995 75.251 17.2097C74.9803 17.4244 74.845 17.695 74.845 18.0217C74.845 18.3017 74.9383 18.5257 75.125 18.6937C75.321 18.8617 75.6383 18.969 76.077 19.0157L76.889 19.0997C77.6916 19.1837 78.3356 19.4077 78.821 19.7717C79.3063 20.1264 79.549 20.6304 79.549 21.2837C79.549 21.7504 79.4136 22.1657 79.143 22.5297C78.8816 22.8844 78.5176 23.1644 78.051 23.3697C77.5843 23.5657 77.0476 23.6637 76.441 23.6637ZM89.0364 23.6917C88.103 23.6917 87.305 23.5284 86.6424 23.2017C85.989 22.875 85.4617 22.4504 85.0604 21.9277C84.659 21.405 84.365 20.8404 84.1784 20.2337C83.9917 19.6177 83.8984 19.025 83.8984 18.4557V18.1477C83.8984 17.5317 83.9917 16.9157 84.1784 16.2997C84.3744 15.6837 84.673 15.1237 85.0744 14.6197C85.4757 14.1157 85.9984 13.7097 86.6424 13.4017C87.2864 13.0937 88.0564 12.9397 88.9524 12.9397C89.867 12.9397 90.651 13.0984 91.3044 13.4157C91.9577 13.733 92.4757 14.1764 92.8584 14.7457C93.241 15.315 93.4744 15.987 93.5584 16.7617H92.1584C92.0837 16.183 91.897 15.707 91.5984 15.3337C91.2997 14.951 90.9217 14.6664 90.4644 14.4797C90.0164 14.293 89.5124 14.1997 88.9524 14.1997C88.3457 14.1997 87.8137 14.307 87.3564 14.5217C86.899 14.727 86.5164 15.021 86.2084 15.4037C85.9097 15.777 85.681 16.211 85.5224 16.7057C85.373 17.2004 85.2984 17.737 85.2984 18.3157C85.2984 18.8664 85.373 19.389 85.5224 19.8837C85.681 20.3784 85.9144 20.817 86.2224 21.1997C86.5397 21.5824 86.9317 21.8857 87.3984 22.1097C87.865 22.3244 88.411 22.4317 89.0364 22.4317C89.9137 22.4317 90.651 22.2124 91.2484 21.7737C91.8457 21.335 92.2097 20.7004 92.3404 19.8697H93.7404C93.647 20.5697 93.409 21.209 93.0264 21.7877C92.653 22.3664 92.1304 22.8284 91.4584 23.1737C90.7957 23.519 89.9884 23.6917 89.0364 23.6917ZM98.8353 23.6917C98.1819 23.6917 97.6079 23.5797 97.1133 23.3557C96.6186 23.1317 96.1986 22.8377 95.8533 22.4737C95.5173 22.1004 95.2606 21.685 95.0833 21.2277C94.9153 20.7704 94.8313 20.3037 94.8313 19.8277V19.5757C94.8313 19.0997 94.9199 18.633 95.0973 18.1757C95.2746 17.709 95.5359 17.2937 95.8813 16.9297C96.2266 16.5564 96.6466 16.2624 97.1413 16.0477C97.6359 15.8237 98.2006 15.7117 98.8353 15.7117C99.4699 15.7117 100.035 15.8237 100.529 16.0477C101.024 16.2624 101.444 16.5564 101.789 16.9297C102.135 17.2937 102.396 17.709 102.573 18.1757C102.751 18.633 102.839 19.0997 102.839 19.5757V19.8277C102.839 20.3037 102.751 20.7704 102.573 21.2277C102.405 21.685 102.149 22.1004 101.803 22.4737C101.467 22.8377 101.052 23.1317 100.557 23.3557C100.063 23.5797 99.4886 23.6917 98.8353 23.6917ZM98.8353 22.4877C99.3953 22.4877 99.8713 22.3664 100.263 22.1237C100.665 21.8717 100.968 21.5357 101.173 21.1157C101.388 20.6957 101.495 20.2244 101.495 19.7017C101.495 19.1697 101.388 18.6937 101.173 18.2737C100.959 17.8537 100.651 17.5224 100.249 17.2797C99.8573 17.037 99.3859 16.9157 98.8353 16.9157C98.2939 16.9157 97.8226 17.037 97.4213 17.2797C97.0199 17.5224 96.7119 17.8537 96.4973 18.2737C96.2826 18.6937 96.1753 19.1697 96.1753 19.7017C96.1753 20.2244 96.2779 20.6957 96.4833 21.1157C96.6979 21.5357 97.0013 21.8717 97.3933 22.1237C97.7946 22.3664 98.2753 22.4877 98.8353 22.4877ZM104.712 26.2397V15.9637H105.776V19.1977L105.524 19.1697C105.571 18.367 105.739 17.7137 106.028 17.2097C106.327 16.6964 106.714 16.3184 107.19 16.0757C107.666 15.833 108.184 15.7117 108.744 15.7117C109.286 15.7117 109.776 15.8144 110.214 16.0197C110.662 16.225 111.045 16.505 111.362 16.8597C111.68 17.2144 111.922 17.625 112.09 18.0917C112.258 18.5584 112.342 19.053 112.342 19.5757V19.8277C112.342 20.3504 112.254 20.845 112.076 21.3117C111.899 21.7784 111.647 22.189 111.32 22.5437C111.003 22.8984 110.62 23.1784 110.172 23.3837C109.734 23.589 109.248 23.6917 108.716 23.6917C108.184 23.6917 107.676 23.575 107.19 23.3417C106.705 23.1084 106.304 22.7304 105.986 22.2077C105.669 21.685 105.487 20.999 105.44 20.1497L106.056 21.2697V26.2397H104.712ZM108.506 22.5157C109.01 22.5157 109.449 22.399 109.822 22.1657C110.196 21.923 110.485 21.5917 110.69 21.1717C110.896 20.7424 110.998 20.2524 110.998 19.7017C110.998 19.1417 110.896 18.6517 110.69 18.2317C110.485 17.8117 110.196 17.485 109.822 17.2517C109.449 17.009 109.01 16.8877 108.506 16.8877C108.058 16.8877 107.643 16.9904 107.26 17.1957C106.878 17.3917 106.57 17.681 106.336 18.0637C106.112 18.437 106 18.8897 106 19.4217V20.0657C106 20.579 106.117 21.0177 106.35 21.3817C106.584 21.7457 106.892 22.0257 107.274 22.2217C107.657 22.4177 108.068 22.5157 108.506 22.5157ZM114.589 23.4397V15.9637H115.933V23.4397H114.589ZM113.441 17.0277V15.9637H115.933V17.0277H113.441ZM114.967 14.7597C114.668 14.7597 114.444 14.6804 114.295 14.5217C114.155 14.363 114.085 14.1624 114.085 13.9197C114.085 13.677 114.155 13.4764 114.295 13.3177C114.444 13.159 114.668 13.0797 114.967 13.0797C115.265 13.0797 115.485 13.159 115.625 13.3177C115.774 13.4764 115.849 13.677 115.849 13.9197C115.849 14.1624 115.774 14.363 115.625 14.5217C115.485 14.6804 115.265 14.7597 114.967 14.7597ZM121.569 23.6917C120.916 23.6917 120.351 23.5797 119.875 23.3557C119.399 23.1317 119.012 22.8377 118.713 22.4737C118.415 22.1004 118.191 21.685 118.041 21.2277C117.901 20.7704 117.831 20.3037 117.831 19.8277V19.5757C117.831 19.0904 117.901 18.619 118.041 18.1617C118.191 17.7044 118.415 17.2937 118.713 16.9297C119.012 16.5564 119.39 16.2624 119.847 16.0477C120.314 15.8237 120.86 15.7117 121.485 15.7117C122.297 15.7117 122.965 15.889 123.487 16.2437C124.019 16.589 124.411 17.037 124.663 17.5877C124.925 18.1384 125.055 18.7264 125.055 19.3517V19.9537H118.419V18.9457H124.075L123.767 19.4917C123.767 18.9597 123.683 18.5024 123.515 18.1197C123.347 17.7277 123.095 17.4244 122.759 17.2097C122.423 16.995 121.999 16.8877 121.485 16.8877C120.953 16.8877 120.51 17.009 120.155 17.2517C119.81 17.4944 119.549 17.8257 119.371 18.2457C119.203 18.6657 119.119 19.151 119.119 19.7017C119.119 20.2337 119.203 20.7144 119.371 21.1437C119.549 21.5637 119.819 21.8997 120.183 22.1517C120.547 22.3944 121.009 22.5157 121.569 22.5157C122.157 22.5157 122.633 22.385 122.997 22.1237C123.371 21.8624 123.595 21.559 123.669 21.2137H124.929C124.827 21.727 124.621 22.1704 124.313 22.5437C124.005 22.917 123.618 23.2017 123.151 23.3977C122.685 23.5937 122.157 23.6917 121.569 23.6917ZM129.945 23.6917C129.413 23.6917 128.923 23.5937 128.475 23.3977C128.027 23.2017 127.635 22.9264 127.299 22.5717C126.973 22.217 126.716 21.8064 126.529 21.3397C126.352 20.873 126.263 20.369 126.263 19.8277V19.5757C126.263 19.0437 126.352 18.5444 126.529 18.0777C126.707 17.611 126.954 17.2004 127.271 16.8457C127.598 16.491 127.981 16.2157 128.419 16.0197C128.867 15.8144 129.362 15.7117 129.903 15.7117C130.473 15.7117 130.991 15.833 131.457 16.0757C131.924 16.309 132.307 16.6777 132.605 17.1817C132.904 17.6857 133.072 18.339 133.109 19.1417L132.549 18.2457V13.2197H133.893V23.4397H132.829V20.1217H133.221C133.184 20.971 133.007 21.6617 132.689 22.1937C132.372 22.7164 131.971 23.099 131.485 23.3417C131.009 23.575 130.496 23.6917 129.945 23.6917ZM130.127 22.5157C130.585 22.5157 131 22.413 131.373 22.2077C131.747 22.0024 132.045 21.7084 132.269 21.3257C132.493 20.9337 132.605 20.4764 132.605 19.9537V19.3097C132.605 18.7964 132.489 18.3624 132.255 18.0077C132.031 17.6437 131.728 17.3684 131.345 17.1817C130.972 16.9857 130.561 16.8877 130.113 16.8877C129.619 16.8877 129.18 17.0044 128.797 17.2377C128.424 17.471 128.13 17.7977 127.915 18.2177C127.71 18.6377 127.607 19.1324 127.607 19.7017C127.607 20.271 127.715 20.7704 127.929 21.1997C128.144 21.6197 128.443 21.9464 128.825 22.1797C129.208 22.4037 129.642 22.5157 130.127 22.5157Z" fill="#373765"/>
<path fill-rule="evenodd" clip-rule="evenodd" d="M152.073 10.8055C147.85 10.782 144.39 14.1541 144.366 18.3669L144.366 18.3697C144.319 22.5874 147.712 26.0498 151.927 26.0733L151.93 26.0734C156.148 26.1205 159.61 22.7273 159.634 18.512L159.634 18.5092C159.681 14.2915 156.288 10.8291 152.073 10.8055ZM143.366 18.3599C143.394 13.586 147.314 9.77894 152.078 9.80556C156.85 9.83222 160.686 13.7498 160.634 18.5189C160.606 23.2899 156.689 27.1258 151.921 27.0733C147.15 27.0459 143.314 23.1286 143.366 18.3599Z" fill="#373765"/>
<path fill-rule="evenodd" clip-rule="evenodd" d="M155.744 15.8189C156.018 16.0916 156.019 16.5348 155.746 16.8088L151.671 20.9033L151.23 20.4645L151.671 20.9033C151.195 21.3817 150.448 21.3855 149.968 20.9149L148.274 19.3417C147.99 19.0786 147.974 18.6357 148.237 18.3524C148.5 18.0691 148.943 18.0527 149.226 18.3158L150.809 19.785L154.754 15.8212C155.027 15.5472 155.47 15.5461 155.744 15.8189Z" fill="#373765"/>
</g>
<defs>
<filter id="filter0_d_6370_38996" x="0" y="0.439697" width="180" height="44" filterUnits="userSpaceOnUse" color-interpolation-filters="sRGB">
<feFlood flood-opacity="0" result="BackgroundImageFix"/>
<feColorMatrix in="SourceAlpha" type="matrix" values="0 0 0 0 0 0 0 0 0 0 0 0 0 0 0 0 0 0 127 0" result="hardAlpha"/>
<feOffset dy="4"/>
<feGaussianBlur stdDeviation="2"/>
<feComposite in2="hardAlpha" operator="out"/>
<feColorMatrix type="matrix" values="0 0 0 0 0 0 0 0 0 0 0 0 0 0 0 0 0 0 0.25 0"/>
<feBlend mode="normal" in2="BackgroundImageFix" result="effect1_dropShadow_6370_38996"/>
<feBlend mode="normal" in="SourceGraphic" in2="effect1_dropShadow_6370_38996" result="shape"/>
</filter>
</defs>
</svg>
