<svg width="156" height="156" viewBox="0 0 156 156" fill="none" xmlns="http://www.w3.org/2000/svg">
<g opacity="0.6" clip-path="url(#clip0_5845_39681)">
<path opacity="0.3" d="M-11.5882 115.045C53.5073 115.045 106.294 63.7349 106.294 0.460587C106.294 0.230499 106.294 0.000396729 106.294 0.000396729L47.8262 0.00040184C47.8262 0.230489 47.8262 0.460592 47.8262 0.460592C47.8262 32.2128 21.3146 57.9827 -11.3515 57.9827C-44.0176 57.9827 -70.5293 32.2128 -70.5293 0.460602C-70.5293 0.230515 -70.5293 0.000412187 -70.5293 0.000412187L-128.997 0.000417298C-128.997 0.230505 -128.997 0.460607 -128.997 0.460607C-129.47 63.735 -76.6837 115.045 -11.5882 115.045Z" fill="#373765"/>
<path d="M27.1591 141.377C26.0279 141.377 25.1108 142.269 25.1108 143.368C25.1108 144.468 26.0279 145.359 27.1591 145.359C28.2903 145.359 29.2074 144.468 29.2074 143.368C29.2074 142.269 28.2903 141.377 27.1591 141.377Z" fill="#8585BC"/>
<path d="M6.36067 143.368C6.36067 142.296 7.30604 141.377 8.40897 141.377C9.5119 141.377 10.4573 142.296 10.4573 143.368C10.4573 144.44 9.51191 145.359 8.40897 145.359C7.30604 145.359 6.36067 144.44 6.36067 143.368Z" fill="#8585BC"/>
<path d="M27.1591 122.233C26.0279 122.233 25.1108 123.125 25.1108 124.224C25.1108 125.324 26.0279 126.215 27.1591 126.215C28.2903 126.215 29.2074 125.324 29.2074 124.224C29.2074 123.125 28.2903 122.233 27.1591 122.233Z" fill="#8585BC"/>
<path d="M6.36069 124.224C6.36069 123.152 7.30605 122.233 8.40898 122.233C9.51191 122.233 10.4573 123.152 10.4573 124.224C10.4573 125.296 9.51191 126.215 8.40898 126.215C7.30605 126.062 6.36069 125.296 6.36069 124.224Z" fill="#8585BC"/>
<path d="M25.2679 104.927C25.2679 103.855 26.2133 102.936 27.3162 102.936C28.4191 102.936 29.3645 103.855 29.3645 104.927C29.3645 105.999 28.4191 106.918 27.3162 106.918C26.0557 106.918 25.2679 105.999 25.2679 104.927Z" fill="#8585BC"/>
<path d="M6.36079 104.927C6.36079 103.855 7.30616 102.936 8.4091 102.936C9.51203 102.936 10.4574 103.855 10.4574 104.927C10.4574 105.999 9.51203 106.918 8.4091 106.918C7.30616 106.918 6.36079 105.999 6.36079 104.927Z" fill="#8585BC"/>
<path d="M27.1591 83.6386C26.0279 83.6386 25.1108 84.53 25.1108 85.6296C25.1108 86.7292 26.0279 87.6206 27.1591 87.6206C28.2903 87.6206 29.2074 86.7292 29.2074 85.6296C29.2074 84.53 28.2903 83.6386 27.1591 83.6386Z" fill="#8585BC"/>
<path d="M6.36069 85.6296C6.36069 84.5575 7.30605 83.6386 8.40898 83.6386C9.51191 83.6386 10.4573 84.5575 10.4573 85.6296C10.4573 86.7017 9.51191 87.6206 8.40898 87.6206C7.30605 87.6206 6.36069 86.7017 6.36069 85.6296Z" fill="#8585BC"/>
</g>
<defs>
<clipPath id="clip0_5845_39681">
<rect width="285" height="156" fill="white" transform="translate(156 156) rotate(180)"/>
</clipPath>
</defs>
</svg>
