<svg width="32" height="32" viewBox="0 0 32 32" fill="none" xmlns="http://www.w3.org/2000/svg">
<circle cx="16" cy="16" r="16" fill="url(#paint0_linear)"/>
<path d="M21.25 13.5833V11.25C21.25 8.33333 18.9167 6 16 6C13.0833 6 10.75 8.33333 10.75 11.25V13.5833C9.75833 13.5833 9 14.3417 9 15.3333L9 22.9167C9 23.85 9.75833 24.6667 10.75 24.6667H21.25C22.2417 24.6667 23 23.85 23 22.9167V15.3333C23 14.3417 22.2417 13.5833 21.25 13.5833ZM11.9167 11.25C11.9167 8.975 13.725 7.16667 16 7.16667C18.275 7.16667 20.0833 8.975 20.0833 11.25V13.5833H11.9167V11.25ZM16.5833 19.8833V21.1667C16.5833 21.5167 16.35 21.75 16 21.75C15.65 21.75 15.4167 21.5167 15.4167 21.1667V19.8833C14.7167 19.65 14.25 19.0083 14.25 18.25C14.25 17.2583 15.0083 16.5 16 16.5C16.9917 16.5 17.75 17.2583 17.75 18.25C17.75 19.0083 17.2833 19.65 16.5833 19.8833Z" fill="white"/>
<defs>
<linearGradient id="paint0_linear" x1="1.19209e-07" y1="16" x2="32" y2="16" gradientUnits="userSpaceOnUse">
<stop stop-color="#030332"/>
<stop offset="1" stop-color="#171753"/>
</linearGradient>
</defs>
</svg>
