<svg width="56" height="56" viewBox="0 0 56 56" fill="none" xmlns="http://www.w3.org/2000/svg">
<path d="M37.625 38.5L49.2625 31.85C51.1 30.8 53.55 31.4125 54.6 33.25C55.65 35.0875 55.0375 37.5375 53.2 38.5875L36.1375 48.3C35.35 48.7375 34.475 49 33.5125 49H20.65C19.6875 49 18.725 49.2625 17.9375 49.7875L14.875 51.625" stroke="white" stroke-width="1.5" stroke-miterlimit="10" stroke-linecap="round" stroke-linejoin="round"/>
<path d="M23.625 40.25H33.6875C35.875 40.25 37.625 38.5 37.625 36.3125C37.625 34.125 35.875 32.375 33.6875 32.375H19.5125C18.55 32.375 17.5 32.6375 16.7125 33.1625L7 39.375" stroke="white" stroke-width="1.5" stroke-miterlimit="10" stroke-linecap="round" stroke-linejoin="round"/>
<path d="M0.875 39.375L5.25 36.75L15.75 53.375L13.125 55.125" stroke="white" stroke-width="1.5" stroke-miterlimit="10" stroke-linecap="round" stroke-linejoin="round"/>
<path d="M28.875 0.875V4.375" stroke="white" stroke-width="1.5" stroke-miterlimit="10" stroke-linecap="round" stroke-linejoin="round"/>
<path d="M20.125 4.375V7.875" stroke="white" stroke-width="1.5" stroke-miterlimit="10" stroke-linecap="round" stroke-linejoin="round"/>
<path d="M37.625 5.25V8.75" stroke="white" stroke-width="1.5" stroke-miterlimit="10" stroke-linecap="round" stroke-linejoin="round"/>
<path d="M19.8625 28.875C18.375 26.95 17.5 24.5 17.5 21.875C17.5 15.575 22.575 10.5 28.875 10.5C35.175 10.5 40.25 15.575 40.25 21.875C40.25 24.5 39.375 26.95 37.8 28.875" stroke="white" stroke-width="1.5" stroke-miterlimit="10" stroke-linecap="round" stroke-linejoin="round"/>
</svg>
