<svg width="97" height="97" viewBox="0 0 97 97" fill="none" xmlns="http://www.w3.org/2000/svg">
<path fill-rule="evenodd" clip-rule="evenodd" d="M49.0437 16.8668C31.8014 16.7704 17.6605 30.5422 17.5644 47.7586L17.5643 47.7662C17.3718 64.9957 31.233 79.1417 48.4562 79.2379L48.4638 79.238C65.6933 79.4305 79.8393 65.5694 79.9355 48.3461L79.9355 48.3385C80.1281 31.109 66.2669 16.963 49.0437 16.8668ZM14.8644 47.7398C14.9711 29.0082 30.3525 14.0623 49.0587 14.1668C67.7841 14.2714 82.8427 29.6466 82.6354 48.3653C82.5285 67.0888 67.1544 82.1452 48.437 81.9379C29.7137 81.831 14.6573 66.457 14.8644 47.7398Z" fill="#9BE7C4"/>
<path fill-rule="evenodd" clip-rule="evenodd" d="M62.7023 38.5965C63.2307 39.1225 63.2327 39.9773 62.7067 40.5057L46.4052 56.8838C45.059 58.2362 42.9773 58.2432 41.6235 56.9046L34.8313 50.5975C34.2849 50.0902 34.2533 49.236 34.7606 48.6896C35.268 48.1433 36.1222 48.1116 36.6685 48.619L43.478 54.9422C43.491 54.9542 43.5038 54.9665 43.5162 54.9791C43.8139 55.2781 44.1939 55.2781 44.4915 54.9791L60.7931 38.601C61.3191 38.0726 62.1738 38.0706 62.7023 38.5965Z" fill="#9BE7C4"/>
</svg>
