<svg viewBox="0 0 25 25" fill="none" xmlns="http://www.w3.org/2000/svg">
<path d="M12.5 25C5.6117 25 0 19.3883 0 12.5C0 5.6117 5.6117 0 12.5 0C19.3883 0 25 5.6117 25 12.5C25 19.3883 19.3883 25 12.5 25ZM12.5 1.19681C6.25 1.19681 1.19681 6.25 1.19681 12.5C1.19681 18.75 6.25 23.8032 12.5 23.8032C18.7234 23.8032 23.8032 18.7234 23.8032 12.5C23.8032 6.2766 18.7234 1.19681 12.5 1.19681Z" fill="#171753"/>
<path d="M10.9041 17.2606C10.718 17.2606 10.5052 17.1808 10.3722 17.0478L6.56902 13.2181C6.27647 12.9255 6.27647 12.4468 6.56902 12.1542C6.86158 11.8617 7.3403 11.8617 7.63285 12.1542L10.9041 15.4787L17.3669 9.01592C17.6595 8.72337 18.1382 8.72337 18.4307 9.01592C18.7233 9.30848 18.7233 9.7872 18.4307 10.0798L11.436 17.0478C11.3031 17.1808 11.1169 17.2606 10.9041 17.2606Z" fill="#171753"/>
</svg>
