<svg width="37" height="36" viewBox="0 0 37 36" fill="none" xmlns="http://www.w3.org/2000/svg">
<path d="M27.3368 26.5165C22.4661 31.3873 14.5299 31.3873 9.65916 26.5166C4.78839 21.6458 4.78838 13.7097 9.65915 8.8389C14.5299 3.96814 22.4661 3.96813 27.3368 8.83889C32.2076 13.7096 32.2076 21.6458 27.3368 26.5165ZM10.5054 9.68517C6.10481 14.0858 6.10481 21.2697 10.5054 25.6703C14.9061 30.0709 22.09 30.0709 26.4906 25.6703C30.8912 21.2697 30.8912 14.0858 26.4906 9.68516C22.0899 5.28455 14.906 5.28456 10.5054 9.68517Z" fill="#171753"/>
<path d="M22.9936 22.172C22.7679 22.3976 22.3918 22.3976 22.1661 22.172L14.0231 14.029C13.7974 13.8033 13.7974 13.4272 14.0231 13.2015C14.2488 12.9758 14.6249 12.9758 14.8506 13.2015L22.9936 21.3445C23.2193 21.5702 23.2193 21.9463 22.9936 22.172Z" fill="#171753"/>
<path d="M22.9748 14.0298L14.8506 22.154C14.6249 22.3796 14.2488 22.3796 14.0231 22.154C13.7974 21.9283 13.7974 21.5522 14.0231 21.3265L22.1661 13.1835C22.3918 12.9578 22.7679 12.9578 22.9936 13.1835C23.2193 13.4092 23.2193 13.7853 22.9748 14.0298Z" fill="#171753"/>
</svg>
