<svg width="37" height="37" viewBox="0 0 37 37" fill="none" xmlns="http://www.w3.org/2000/svg">
<path d="M27.6585 27.015C22.6903 31.9831 14.6256 32.0133 9.69449 27.0822C4.76335 22.151 4.79353 14.0864 9.76171 9.11818C14.7299 4.15001 22.7946 4.11983 27.7257 9.05096C32.6569 13.9821 32.6267 22.0468 27.6585 27.015ZM10.6185 9.97494C6.12984 14.4636 6.10253 21.7638 10.5577 26.219C15.0128 30.6741 22.3131 30.6468 26.8017 26.1582C31.2904 21.6696 31.3177 14.3693 26.8625 9.91416C22.4074 5.459 15.1071 5.48632 10.6185 9.97494Z" fill="white"/>
<path d="M23.2604 22.6168C23.0303 22.847 22.648 22.8484 22.4196 22.6199L14.1756 14.376C13.9472 14.1475 13.9486 13.7653 14.1788 13.5351C14.409 13.305 14.7912 13.3035 15.0196 13.532L23.2636 21.7759C23.4921 22.0044 23.4906 22.3866 23.2604 22.6168Z" fill="white"/>
<path d="M23.2722 14.3419L14.9856 22.6286C14.7554 22.8588 14.3732 22.8602 14.1447 22.6317C13.9162 22.4033 13.9177 22.0211 14.1478 21.7909L22.4537 13.485C22.6839 13.2548 23.0661 13.2534 23.2946 13.4819C23.523 13.7103 23.5216 14.0925 23.2722 14.3419Z" fill="white"/>
</svg>
