<svg width="12" height="12" viewBox="0 0 12 12" fill="none" xmlns="http://www.w3.org/2000/svg">
<path d="M8.81555 8.81494C8.67503 8.95546 8.44169 8.95633 8.30221 8.81686L3.26938 3.78403C3.1299 3.64455 3.13078 3.41122 3.2713 3.27069C3.41183 3.13016 3.64516 3.12929 3.78464 3.26877L8.81747 8.3016C8.95695 8.44107 8.95608 8.67441 8.81555 8.81494Z" fill="white"/>
<path d="M8.82212 3.76322L3.76319 8.82215C3.62266 8.96267 3.38933 8.96355 3.24985 8.82407C3.11037 8.68459 3.11125 8.45125 3.25177 8.31073L8.32241 3.24009C8.46294 3.09957 8.69627 3.09869 8.83575 3.23817C8.97523 3.37765 8.97435 3.61098 8.82212 3.76322Z" fill="white"/>
</svg>
