<svg viewBox="0 0 27 27" fill="none" xmlns="http://www.w3.org/2000/svg">
<path d="M13.5 26.9995C6.06064 26.9995 0 20.939 0 13.4998C0 6.06053 6.06064 0 13.5 0C20.9394 0 27 6.06053 27 13.4998C27 20.939 20.9394 26.9995 13.5 26.9995ZM13.5 1.29253C6.77872 1.29253 1.29255 6.7786 1.29255 13.4998C1.29255 20.2209 6.77872 25.707 13.5 25.707C20.2213 25.707 25.7074 20.2209 25.7074 13.4998C25.7074 6.7786 20.2213 1.29253 13.5 1.29253Z" fill="#171753"/>
<path d="M8.66015 18.3485C8.41642 18.1048 8.41642 17.6986 8.66014 17.4549L17.4545 8.66045C17.6983 8.41673 18.1045 8.41673 18.3482 8.66046C18.5919 8.90419 18.5919 9.3104 18.3482 9.55413L9.55382 18.3485C9.31009 18.5923 8.90388 18.5923 8.66015 18.3485Z" fill="#171753"/>
<path d="M17.4549 18.3281L8.68062 9.55387C8.43689 9.31014 8.43689 8.90393 8.68061 8.66021C8.92434 8.41648 9.33055 8.41649 9.57428 8.66022L18.3689 17.4548C18.6126 17.6985 18.6126 18.1047 18.3689 18.3485C18.1251 18.5922 17.7189 18.5922 17.4549 18.3281Z" fill="#171753"/>
</svg>
