<svg width="16" height="16" viewBox="0 0 16 16" fill="none" xmlns="http://www.w3.org/2000/svg">
<path d="M14.3877 0H5.30462C4.8775 0.00162093 4.46835 0.172009 4.16633 0.474025C3.86432 0.77604 3.69393 1.1852 3.69231 1.61231V3.69231H1.61231C1.1852 3.69393 0.77604 3.86432 0.474025 4.16633C0.172009 4.46835 0.00162093 4.8775 0 5.30462V14.3877C0.00162093 14.8148 0.172009 15.224 0.474025 15.526C0.77604 15.828 1.1852 15.9984 1.61231 16H10.6954C11.1225 15.9984 11.5317 15.828 11.8337 15.526C12.1357 15.224 12.3061 14.8148 12.3077 14.3877V12.3077H14.3877C14.8148 12.3061 15.224 12.1357 15.526 11.8337C15.828 11.5317 15.9984 11.1225 16 10.6954V1.61231C15.9984 1.1852 15.828 0.77604 15.526 0.474025C15.224 0.172009 14.8148 0.00162093 14.3877 0ZM11.0769 14.3877C11.0769 14.4889 11.0367 14.5859 10.9652 14.6575C10.8936 14.729 10.7966 14.7692 10.6954 14.7692H1.61231C1.51112 14.7692 1.41407 14.729 1.34252 14.6575C1.27097 14.5859 1.23077 14.4889 1.23077 14.3877V5.30462C1.23077 5.20343 1.27097 5.10638 1.34252 5.03483C1.41407 4.96327 1.51112 4.92308 1.61231 4.92308H10.6954C10.7966 4.92308 10.8936 4.96327 10.9652 5.03483C11.0367 5.10638 11.0769 5.20343 11.0769 5.30462V14.3877ZM14.7692 10.6954C14.7692 10.7966 14.729 10.8936 14.6575 10.9652C14.5859 11.0367 14.4889 11.0769 14.3877 11.0769H12.3077V5.30462C12.3061 4.8775 12.1357 4.46835 11.8337 4.16633C11.5317 3.86432 11.1225 3.69393 10.6954 3.69231H4.92308V1.61231C4.92308 1.51112 4.96327 1.41407 5.03483 1.34252C5.10638 1.27097 5.20343 1.23077 5.30462 1.23077H14.3877C14.4889 1.23077 14.5859 1.27097 14.6575 1.34252C14.729 1.41407 14.7692 1.51112 14.7692 1.61231V10.6954Z" fill="#237B75"/>
</svg>
