<svg width="30" height="37" viewBox="0 0 30 37" fill="none" xmlns="http://www.w3.org/2000/svg">
<g clip-path="url(#clip0)">
<path d="M14.5758 37C14.4563 37 14.3368 36.9606 14.2173 36.9213C13.62 36.6457 0 30.5053 0 22.5543V4.05426C0 3.81809 0.119473 3.54255 0.35842 3.38511C0.517718 3.26702 4.81876 0 14.5758 0C24.3328 0 28.6338 3.26702 28.7931 3.38511C28.9922 3.54255 29.1515 3.81809 29.1515 4.09362V22.5936C29.1515 30.5447 15.5315 36.6851 14.9342 36.9213C14.8147 36.9606 14.6952 37 14.5758 37ZM1.7921 4.56596V22.5936C1.7921 28.7734 12.4651 34.1266 14.5758 35.15C16.6865 34.1266 27.3594 28.7734 27.3594 22.5936V4.56596C26.2045 3.85745 22.1424 1.77128 14.5758 1.77128C7.00911 1.77128 2.90719 3.85745 1.7921 4.56596Z" fill="#FF4141"/>
</g>
<path d="M13.4792 20.8992V9.41797H15.6767V20.8992H13.4792ZM13.2773 25.7877V23.0519H15.8786V25.7877H13.2773Z" fill="#FF4141"/>
<defs>
<clipPath id="clip0">
<rect width="29.1515" height="37" fill="white"/>
</clipPath>
</defs>
</svg>
