<svg width="150" height="150" viewBox="0 0 150 150" fill="none" xmlns="http://www.w3.org/2000/svg">
<circle cx="75" cy="74.75" r="74.75" fill="#9BE7C4"/>
<path opacity="0.7" d="M93.3252 75.5894C93.3252 72.3883 95.8863 69.8274 99.0878 69.8274C102.289 69.8274 104.85 72.3883 104.85 75.5894C104.85 78.7904 102.289 81.3513 99.0878 81.3513C95.8863 81.3513 93.3252 78.6837 93.3252 75.5894Z" fill="#171753"/>
<path opacity="0.7" d="M128.113 89.5675C127.9 91.3815 127.686 93.1954 127.153 94.9027C125.552 100.985 122.03 106.533 116.268 109.628C108.371 113.682 98.9802 112.189 91.0833 109.094C84.5738 113.682 84.5738 113.682 84.5738 113.682C83.0798 114.643 81.1589 113.042 82.0126 111.442C80.1985 111.762 79.6649 110.054 80.1985 108.667C78.7045 109.841 77.4239 107.707 78.2777 106.427C78.8112 105.573 79.6649 104.613 80.3052 103.866C71.1278 98.6373 62.8041 92.2351 54.3737 85.9396C59.1758 88.9273 78.3844 98.744 83.0798 100.771C87.9886 102.905 92.8975 105.039 98.0198 106.213C102.288 107.174 107.731 107.707 111.679 105.253C115.307 103.119 116.695 98.744 117.228 94.7959C118.509 86.2597 115.521 76.6564 111.039 69.4006C106.343 61.8247 98.66 54.9957 89.9095 52.7549C86.7081 51.9013 83.5066 51.9013 80.5186 52.4348C73.5822 53.6086 67.2861 57.8767 62.484 63.2119C55.5476 70.8945 50.7454 80.391 46.3701 89.7809C43.3821 96.0764 39.2203 111.442 29.4026 105.36C25.0273 102.585 22.2528 97.7836 20.3319 93.0887C18.1976 88.0737 16.7036 81.3514 18.0909 75.9095C21.0789 64.4923 37.086 74.6291 42.5284 78.257C42.2083 78.1503 29.4026 72.2816 24.7072 76.8698C22.5729 79.0039 22.6796 82.8452 22.9998 85.6195C23.64 90.6345 26.0945 98.1037 30.7899 100.878C36.8726 104.399 39.9673 93.4088 41.568 89.5675C44.2359 83.0586 46.797 76.5497 49.785 70.1476C53.0931 63.1052 57.0415 56.1694 62.484 50.5142C61.3101 49.127 59.6027 47.4198 59.496 45.6059C59.2825 43.5785 61.3101 41.3377 63.4444 42.4048C60.99 39.6305 64.2981 35.4691 67.4995 37.0696C66.0055 34.7221 68.3532 31.7345 70.8077 31.8412C72.1949 31.8412 73.5822 33.0149 74.6494 33.7618C77.4239 35.5758 80.1985 37.4964 83.0798 39.3104C109.652 35.149 130.461 65.3459 128.113 89.5675Z" fill="url(#paint0_linear)"/>
<path opacity="0.7" d="M127.153 94.9024C125.552 100.984 122.03 106.533 116.268 109.627C108.371 113.682 98.98 112.188 91.0832 109.094C84.5736 113.682 84.5736 113.682 84.5736 113.682C83.0796 114.642 81.1588 113.042 82.0125 111.441C80.1983 111.761 79.6648 110.054 80.1984 108.667C78.7044 109.841 77.4238 107.707 78.2775 106.426C78.8111 105.573 79.6648 104.612 80.3051 103.865C71.1277 98.637 62.8039 92.2348 54.3735 85.9394C59.1757 88.927 78.3842 98.7437 83.0796 100.771C87.9885 102.905 92.8973 105.039 98.0196 106.213C102.288 107.173 107.731 107.707 111.679 105.253C115.307 103.119 116.695 98.7437 117.228 94.7957C118.509 86.2594 115.521 76.6562 111.039 69.4004C106.343 61.8245 98.6599 54.9955 89.9093 52.7547C86.7079 51.9011 83.5065 51.9011 80.5185 52.4346C92.4705 48.8067 115.521 53.6083 123.631 72.0679C127.473 81.1377 128.22 88.3935 127.153 94.9024Z" fill="url(#paint1_linear)"/>
<defs>
<linearGradient id="paint0_linear" x1="17.5532" y1="72.9054" x2="128.294" y2="72.9054" gradientUnits="userSpaceOnUse">
<stop stop-color="#030332"/>
<stop offset="1" stop-color="#171753"/>
</linearGradient>
<linearGradient id="paint1_linear" x1="54.3735" y1="82.6416" x2="127.595" y2="82.6416" gradientUnits="userSpaceOnUse">
<stop stop-color="#030332"/>
<stop offset="1" stop-color="#171753"/>
</linearGradient>
</defs>
</svg>
