<svg viewBox="0 0 20 20" fill="none" xmlns="http://www.w3.org/2000/svg">
<g filter="url(#filter0_d)">
<ellipse cx="10.1318" cy="9.13279" rx="7.60205" ry="7.65915" fill="white"/>
<path d="M10 17C5.59149 17 2 13.4085 2 9C2 4.59149 5.59149 1 10 1C14.4085 1 18 4.59149 18 9C18 13.4085 14.4085 17 10 17ZM10 1.76596C6.01702 1.76596 2.76596 5.01702 2.76596 9C2.76596 12.983 6.01702 16.234 10 16.234C13.983 16.234 17.234 12.983 17.234 9C17.234 5.01702 13.983 1.76596 10 1.76596Z" fill="#171753"/>
<path d="M13.6769 9.37491H6.32369C6.11943 9.37491 5.94922 9.2047 5.94922 9.00044C5.94922 8.79619 6.11943 8.62598 6.32369 8.62598H13.6939C13.8982 8.62598 14.0684 8.79619 14.0684 9.00044C14.0684 9.2047 13.8982 9.37491 13.6769 9.37491Z" fill="#171753"/>
</g>
<defs>
<filter id="filter0_d" x="0" y="0" width="20" height="20" filterUnits="userSpaceOnUse" color-interpolation-filters="sRGB">
<feFlood flood-opacity="0" result="BackgroundImageFix"/>
<feColorMatrix in="SourceAlpha" type="matrix" values="0 0 0 0 0 0 0 0 0 0 0 0 0 0 0 0 0 0 127 0"/>
<feOffset dy="1"/>
<feGaussianBlur stdDeviation="1"/>
<feColorMatrix type="matrix" values="0 0 0 0 0 0 0 0 0 0 0 0 0 0 0 0 0 0 0.16 0"/>
<feBlend mode="normal" in2="BackgroundImageFix" result="effect1_dropShadow"/>
<feBlend mode="normal" in="SourceGraphic" in2="effect1_dropShadow" result="shape"/>
</filter>
</defs>
</svg>
