<svg viewBox="0 0 20 24" fill="none" xmlns="http://www.w3.org/2000/svg">
<path d="M0.55 20.025C0.4 20.025 0.275 19.975 0.15 19.875C0.05 19.75 0 19.625 0 19.475L0.025 13.675C0.025 13.525 0.075 13.375 0.2 13.275L13.3 0.15C13.5 -0.05 13.875 -0.05 14.1 0.15L19.825 5.875C19.925 5.975 20 6.125 20 6.275C20 6.425 19.95 6.575 19.825 6.675L6.7 19.725C6.6 19.825 6.45 19.875 6.325 19.9L0.55 20.025C0.575 20.025 0.575 20.025 0.55 20.025ZM1.15 13.9L1.125 18.9L6.075 18.775L18.625 6.275L13.7 1.35L1.15 13.9Z" fill="white"/>
<path d="M19.425 23.475H0.55C0.25 23.475 0 23.225 0 22.925C0 22.625 0.25 22.375 0.55 22.375H19.4C19.7 22.375 19.95 22.625 19.95 22.925C19.975 23.225 19.725 23.475 19.425 23.475Z" fill="white"/>
</svg>
