<svg width="32" height="20" viewBox="0 0 32 20" fill="none" xmlns="http://www.w3.org/2000/svg">
<path d="M19.2642 19.9999C18.7648 19.7392 18.408 19.404 18.4437 18.7336C18.4794 18.3239 18.7291 18.0632 19.0145 17.8397C22.2252 15.3444 25.4359 12.8863 28.6466 10.391C29.146 10.0185 29.146 10.0185 28.6466 9.60883C25.4716 7.15073 22.2965 4.69263 19.0858 2.19729C18.8361 2.01107 18.5864 1.78761 18.4794 1.45241C18.3367 0.968239 18.4794 0.484067 18.8718 0.186116C19.2642 -0.111836 19.7637 -0.111836 20.1917 0.22336C22.1182 1.71312 24.0803 3.24012 26.0067 4.72988C27.7547 6.07066 29.5028 7.44869 31.2508 8.78947C31.5362 9.01293 31.8216 9.27364 31.9643 9.64608C31.9643 9.86954 31.9643 10.1302 31.9643 10.3537C31.786 10.6144 31.6076 10.8751 31.3579 11.0613C28.5396 13.2215 25.7213 15.4189 22.903 17.6163C21.8684 18.3984 20.8696 19.2923 19.7637 19.9627C19.621 19.9999 19.4426 19.9999 19.2642 19.9999Z" fill="white"/>
<path d="M12.0937 19.9999C9.88184 18.2867 7.63435 16.5734 5.42253 14.8602C3.81718 13.6312 2.21183 12.3276 0.570807 11.1358C-0.214032 10.5772 -0.214032 9.49708 0.570807 8.90118C4.28095 6.07064 7.95542 3.20286 11.6299 0.335073C12.0937 -0.0373664 12.5574 -0.0746103 12.9855 0.186097C13.3779 0.446805 13.5206 0.856488 13.4493 1.34066C13.4136 1.7131 13.1639 1.97381 12.8785 2.16003C9.77482 4.58088 6.63547 7.00174 3.53179 9.38535C3.31774 9.57157 3.06802 9.75779 2.8183 9.94401C2.99667 10.093 3.17504 10.2047 3.31774 10.3537C6.49277 12.849 9.63212 15.2699 12.8071 17.728C13.806 18.5101 13.7704 19.3295 12.7001 19.9626C12.5218 19.9999 12.3077 19.9999 12.0937 19.9999Z" fill="white"/>
</svg>