<svg width="29" height="29" viewBox="0 0 29 29" fill="none" xmlns="http://www.w3.org/2000/svg">
<path d="M14.5 29C22.5081 29 29 22.5081 29 14.5C29 6.49187 22.5081 0 14.5 0C6.49187 0 0 6.49187 0 14.5C0 22.5081 6.49187 29 14.5 29Z" fill="#627EEA"/>
<path d="M14.9648 3.62793V11.6628L21.7555 14.6977L14.9648 3.62793Z" fill="white" fill-opacity="0.602"/>
<path d="M14.9644 3.62793L8.16211 14.7093L14.9644 11.6744V3.62793Z" fill="white"/>
<path d="M14.9648 19.9194V25.3845L21.7672 15.9775L14.9648 19.9194Z" fill="white" fill-opacity="0.602"/>
<path d="M14.9644 25.3728V19.9077L8.16211 15.9658L14.9644 25.3728Z" fill="white"/>
<path d="M14.9648 18.6515L21.7555 14.7097L14.9648 11.6748V18.6515Z" fill="white" fill-opacity="0.2"/>
<path d="M8.16211 14.698L14.9644 18.6398V11.6631L8.16211 14.698Z" fill="white" fill-opacity="0.602"/>
</svg>
