<svg viewBox="0 0 250 250" fill="none" xmlns="http://www.w3.org/2000/svg">
<circle cx="125" cy="125" r="125" fill="#BEF0ED"/>
<path d="M80.1942 94.7284L126.383 20.4893C126.524 20.2629 126.853 20.2618 126.996 20.4871L173.932 94.7254C174.041 94.8978 173.986 95.1263 173.81 95.2299L126.873 122.906C126.759 122.973 126.617 122.973 126.503 122.905L80.3153 95.2294C80.142 95.1256 80.0875 94.8999 80.1942 94.7284Z" fill="#ECFFFE" stroke="#171753" stroke-width="3.61446"/>
<path d="M125.934 193.216L81.5087 165.905C81.1735 165.699 80.7969 166.101 81.0246 166.422L125.831 229.591C125.973 229.792 126.271 229.794 126.417 229.595L172.704 166.41C172.937 166.092 172.566 165.684 172.228 165.886L126.309 193.218C126.193 193.287 126.049 193.286 125.934 193.216Z" fill="#ECFFFE" stroke="#171753" stroke-width="3.61446"/>
<path d="M126.499 20.567V122.259" stroke="#171753" stroke-width="3.61446"/>
<path d="M125.931 193.708V228.866" stroke="#171753" stroke-width="3.61446"/>
<path d="M80 95.4186L126.31 68.767L173.564 95.4186" stroke="#171753" stroke-width="3.61446"/>
<path d="M80.1799 95.6921L126.681 68.6831C126.793 68.618 126.931 68.6179 127.044 68.6828L173.726 95.6922C173.837 95.7568 173.906 95.876 173.906 96.0051V151.821C173.906 151.95 173.838 152.069 173.727 152.133L127.045 179.401C126.932 179.467 126.792 179.467 126.68 179.401L80.1786 152.134C80.068 152.069 80 151.95 80 151.822V96.0047C80 95.8759 80.0685 95.7568 80.1799 95.6921Z" fill="#5ED9D1" stroke="#171753" stroke-width="3.61446"/>
<path d="M124.559 178.921C124.559 179.919 125.368 180.728 126.366 180.728C127.364 180.728 128.173 179.919 128.173 178.921H124.559ZM124.559 123.164V178.921H128.173V123.164H124.559Z" fill="#171753"/>
<path d="M84.4766 95.3098L126.317 70.7632C126.429 70.6975 126.568 70.6969 126.68 70.7615L170.383 95.8672C170.622 96.0048 170.625 96.3493 170.388 96.4909L126.502 122.711C126.384 122.782 126.236 122.779 126.121 122.705L84.4641 95.9256C84.2374 95.7798 84.2442 95.4462 84.4766 95.3098Z" fill="#BEF0ED"/>
<path d="M80.1942 94.7284L126.383 20.4893C126.524 20.2629 126.853 20.2618 126.996 20.4871L173.932 94.7254C174.041 94.8978 173.986 95.1263 173.81 95.2299L126.873 122.906C126.759 122.973 126.617 122.973 126.503 122.905L80.3153 95.2294C80.142 95.1256 80.0875 94.8999 80.1942 94.7284Z" stroke="#171753" stroke-width="3.61446"/>
<path d="M126.499 20.567V122.259" stroke="#171753" stroke-width="3.61446"/>
</svg>
