<svg width="24" height="24" viewBox="0 0 24 24" fill="none" xmlns="http://www.w3.org/2000/svg">
<path d="M22.9091 16.3635C22.6198 16.3635 22.3423 16.4785 22.1377 16.683C21.9331 16.8876 21.8182 17.1651 21.8182 17.4544V21.8181H2.18182V17.4544C2.18182 17.1651 2.06688 16.8876 1.8623 16.683C1.65771 16.4785 1.38024 16.3635 1.09091 16.3635C0.801582 16.3635 0.524105 16.4785 0.31952 16.683C0.114935 16.8876 0 17.1651 0 17.4544V22.909C0 23.1983 0.114935 23.4758 0.31952 23.6804C0.524105 23.885 0.801582 23.9999 1.09091 23.9999H22.9091C23.1984 23.9999 23.4759 23.885 23.6805 23.6804C23.8851 23.4758 24 23.1983 24 22.909V17.4544C24 17.1651 23.8851 16.8876 23.6805 16.683C23.4759 16.4785 23.1984 16.3635 22.9091 16.3635Z" fill="#171753"/>
<path d="M11.2286 0.319357C11.4332 0.114843 11.7106 -4.57764e-05 11.9999 -4.57764e-05C12.2892 -4.57764e-05 12.5666 0.114843 12.7712 0.319357L19.3166 6.86481C19.5153 7.07056 19.6253 7.34612 19.6228 7.63215C19.6203 7.91819 19.5056 8.1918 19.3033 8.39406C19.1011 8.59633 18.8275 8.71106 18.5414 8.71354C18.2554 8.71603 17.9798 8.60607 17.7741 8.40735L13.0908 3.72408V17.4543C13.0908 17.7436 12.9759 18.0211 12.7713 18.2256C12.5667 18.4302 12.2892 18.5452 11.9999 18.5452C11.7106 18.5452 11.4331 18.4302 11.2285 18.2256C11.0239 18.0211 10.909 17.7436 10.909 17.4543V3.72408L6.22573 8.40735C6.01998 8.60607 5.74442 8.71603 5.45838 8.71354C5.17235 8.71106 4.89874 8.59633 4.69647 8.39406C4.49421 8.1918 4.37948 7.91819 4.37699 7.63215C4.37451 7.34612 4.48447 7.07056 4.68318 6.86481L11.2286 0.319357Z" fill="#171753"/>
</svg>
