<svg width="20" height="20" viewBox="0 0 20 20" fill="none" xmlns="http://www.w3.org/2000/svg">
<path d="M19.0912 13.6362C18.8501 13.6362 18.6188 13.732 18.4483 13.9025C18.2779 14.073 18.1821 14.3042 18.1821 14.5453V18.1818H1.81799V14.5453C1.81799 14.3042 1.72221 14.073 1.55171 13.9025C1.38122 13.732 1.14998 13.6362 0.908872 13.6362C0.667759 13.6362 0.436522 13.732 0.26603 13.9025C0.0955374 14.073 -0.000244141 14.3042 -0.000244141 14.5453V19.0909C-0.000244141 19.332 0.0955374 19.5633 0.26603 19.7338C0.436522 19.9043 0.667759 20 0.908872 20H19.0912C19.3323 20 19.5635 19.9043 19.734 19.7338C19.9045 19.5633 20.0003 19.332 20.0003 19.0909V14.5453C20.0003 14.3042 19.9045 14.073 19.734 13.9025C19.5635 13.732 19.3323 13.6362 19.0912 13.6362Z" fill="#237B75"/>
<path d="M9.35711 0.266235C9.5276 0.0958033 9.75879 6.00815e-05 9.99986 6.00815e-05C10.2409 6.00815e-05 10.4721 0.0958033 10.6426 0.266235L16.0973 5.72093C16.2629 5.89239 16.3545 6.12204 16.3525 6.3604C16.3504 6.59877 16.2548 6.82679 16.0862 6.99535C15.9177 7.1639 15.6896 7.25951 15.4513 7.26159C15.2129 7.26366 14.9833 7.17202 14.8118 7.00642L10.909 3.10359V14.5457C10.909 14.7868 10.8132 15.0181 10.6427 15.1886C10.4722 15.3591 10.241 15.4548 9.99986 15.4548C9.75874 15.4548 9.52751 15.3591 9.35701 15.1886C9.18652 15.0181 9.09074 14.7868 9.09074 14.5457V3.10359L5.18791 7.00642C5.01644 7.17202 4.7868 7.26366 4.54843 7.26159C4.31007 7.25951 4.08205 7.1639 3.91349 6.99535C3.74493 6.82679 3.64932 6.59877 3.64725 6.3604C3.64518 6.12204 3.73681 5.89239 3.90242 5.72093L9.35711 0.266235Z" fill="#237B75"/>
</svg>
