<svg width="28" height="28" viewBox="0 0 28 28" fill="none" xmlns="http://www.w3.org/2000/svg">
<g filter="url(#filter0_d)">
<circle cx="14" cy="13" r="12" fill="white"/>
<path d="M16.9414 13.1066C16.9414 12.5928 17.3526 12.1816 17.8665 12.1816C18.3804 12.1816 18.7916 12.5928 18.7916 13.1066C18.7916 13.6205 18.3804 14.0316 17.8665 14.0316C17.3526 14.0316 16.9414 13.6034 16.9414 13.1066Z" fill="url(#paint0_linear)"/>
<path d="M22.5261 15.3506C22.4918 15.6418 22.4576 15.933 22.3719 16.207C22.1149 17.1834 21.5496 18.0742 20.6245 18.5709C19.3568 19.2218 17.8492 18.982 16.5815 18.4853C15.5365 19.2218 15.5365 19.2218 15.5365 19.2218C15.2967 19.376 14.9883 19.1191 15.1253 18.8621C14.8341 18.9135 14.7485 18.6394 14.8341 18.4168C14.5943 18.6052 14.3887 18.2626 14.5257 18.057C14.6114 17.92 14.7485 17.7658 14.8512 17.6459C13.3779 16.8066 12.0417 15.7788 10.6883 14.7682C11.4592 15.2478 14.5429 16.8237 15.2967 17.1492C16.0847 17.4918 16.8727 17.8344 17.695 18.0228C18.3803 18.1769 19.254 18.2626 19.8879 17.8686C20.4703 17.526 20.693 16.8237 20.7787 16.1899C20.9843 14.8195 20.5046 13.2779 19.7851 12.1131C19.0313 10.8969 17.7978 9.80057 16.3931 9.44085C15.8791 9.30382 15.3652 9.30382 14.8855 9.38946C13.772 9.57789 12.7612 10.2631 11.9903 11.1196C10.8768 12.3529 10.1059 13.8774 9.40347 15.3848C8.92379 16.3955 8.25567 18.8621 6.67958 17.8857C5.9772 17.4404 5.53178 16.6695 5.22342 15.9158C4.88079 15.1107 4.64095 14.0316 4.86366 13.158C5.34334 11.3251 7.91304 12.9524 8.78674 13.5348C8.73535 13.5177 6.67958 12.5756 5.9258 13.3121C5.58318 13.6547 5.60031 14.2714 5.6517 14.7168C5.75449 15.5219 6.14851 16.7209 6.90229 17.1663C7.87878 17.7316 8.37559 15.9672 8.63256 15.3506C9.06084 14.3057 9.472 13.2608 9.95167 12.233C10.4827 11.1024 11.1166 9.989 11.9903 9.08113C11.8019 8.85845 11.5278 8.58437 11.5106 8.29317C11.4764 7.96771 11.8019 7.60799 12.1445 7.77928C11.7505 7.33391 12.2815 6.66586 12.7955 6.9228C12.5556 6.54595 12.9325 6.06632 13.3266 6.08345C13.5493 6.08345 13.772 6.27188 13.9433 6.39179C14.3887 6.68299 14.8341 6.99132 15.2967 7.28253C19.5624 6.61447 22.903 11.4621 22.5261 15.3506Z" fill="url(#paint1_linear)"/>
</g>
<defs>
<filter id="filter0_d" x="0" y="0" width="28" height="28" filterUnits="userSpaceOnUse" color-interpolation-filters="sRGB">
<feFlood flood-opacity="0" result="BackgroundImageFix"/>
<feColorMatrix in="SourceAlpha" type="matrix" values="0 0 0 0 0 0 0 0 0 0 0 0 0 0 0 0 0 0 127 0"/>
<feOffset dy="1"/>
<feGaussianBlur stdDeviation="1"/>
<feColorMatrix type="matrix" values="0 0 0 0 0 0 0 0 0 0 0 0 0 0 0 0 0 0 0.16 0"/>
<feBlend mode="normal" in2="BackgroundImageFix" result="effect1_dropShadow"/>
<feBlend mode="normal" in="SourceGraphic" in2="effect1_dropShadow" result="shape"/>
</filter>
<linearGradient id="paint0_linear" x1="16.9414" y1="13.1066" x2="18.7916" y2="13.1066" gradientUnits="userSpaceOnUse">
<stop stop-color="#030332"/>
<stop offset="1" stop-color="#171753"/>
</linearGradient>
<linearGradient id="paint1_linear" x1="4.77734" y1="12.6757" x2="22.5551" y2="12.6757" gradientUnits="userSpaceOnUse">
<stop stop-color="#030332"/>
<stop offset="1" stop-color="#171753"/>
</linearGradient>
</defs>
</svg>
