<svg viewBox="0 0 72 72" fill="none" xmlns="http://www.w3.org/2000/svg">
<path d="M44.8242 36.4039C44.8242 34.8622 46.0577 33.6289 47.5995 33.6289C49.1413 33.6289 50.3748 34.8622 50.3748 36.4039C50.3748 37.9456 49.1413 39.1789 47.5995 39.1789C46.0577 39.1789 44.8242 37.8942 44.8242 36.4039Z" fill="white"/>
<path d="M61.5792 43.1357C61.4765 44.0093 61.3737 44.8829 61.1167 45.7051C60.3458 48.6343 58.6498 51.3065 55.8745 52.7967C52.0713 54.7495 47.5487 54.0301 43.7455 52.5398C40.6105 54.7495 40.6105 54.7495 40.6105 54.7495C39.8909 55.212 38.9659 54.4412 39.377 53.6704C38.5033 53.8245 38.2463 53.0023 38.5033 52.3342C37.7838 52.8995 37.1671 51.8717 37.5782 51.2551C37.8352 50.844 38.2463 50.3815 38.5547 50.0218C34.1348 47.5037 30.1261 44.4204 26.0659 41.3884C28.3787 42.8273 37.6296 47.5551 39.8909 48.5315C42.2551 49.5593 44.6192 50.587 47.0861 51.1523C49.1419 51.6148 51.763 51.8717 53.6646 50.6898C55.412 49.662 56.0801 47.5551 56.3371 45.6537C56.9538 41.5426 55.5147 36.9176 53.3562 33.4232C51.0949 29.7746 47.3945 26.4857 43.1802 25.4065C41.6383 24.9954 40.0965 24.9954 38.6575 25.2524C35.3169 25.8176 32.2846 27.8732 29.9719 30.4426C26.6313 34.1426 24.3185 38.7162 22.2114 43.2384C20.7724 46.2704 18.768 53.6704 14.0397 50.7412C11.9326 49.4051 10.5963 47.0926 9.67123 44.8315C8.64335 42.4162 7.92384 39.1787 8.59196 36.5579C10.031 31.0593 17.7401 35.9412 20.3612 37.6885C20.207 37.6371 14.0397 34.8107 11.7784 37.0204C10.7505 38.0482 10.8019 39.8982 10.9561 41.2343C11.2645 43.6495 12.4465 47.2468 14.7079 48.5829C17.6373 50.2787 19.1277 44.9857 19.8987 43.1357C21.1835 40.0009 22.417 36.8662 23.856 33.7829C25.4492 30.3913 27.3508 27.051 29.9719 24.3274C29.4066 23.6593 28.5843 22.8371 28.5329 21.9635C28.4301 20.9871 29.4066 19.9079 30.4344 20.4218C29.2524 19.0857 30.8456 17.0816 32.3874 17.8524C31.6679 16.7218 32.7986 15.283 33.9806 15.3343C34.6488 15.3343 35.3169 15.8996 35.8308 16.2593C37.1671 17.133 38.5033 18.058 39.8909 18.9316C52.6881 16.9274 62.7099 31.4704 61.5792 43.1357Z" fill="white"/>
<path d="M61.1172 45.7058C60.3463 48.6349 58.6503 51.3071 55.875 52.7974C52.0718 54.7502 47.5491 54.0307 43.746 52.5405C40.6109 54.7502 40.6109 54.7502 40.6109 54.7502C39.8914 55.2127 38.9663 54.4418 39.3775 53.671C38.5038 53.8252 38.2468 53.003 38.5038 52.3349C37.7843 52.9002 37.1675 51.8724 37.5787 51.2557C37.8357 50.8446 38.2468 50.3821 38.5552 50.0224C34.1353 47.5044 30.1265 44.421 26.0664 41.3891C28.3791 42.828 37.6301 47.5557 39.8914 48.5321C42.2555 49.5599 44.6197 50.5877 47.0866 51.153C49.1423 51.6155 51.7634 51.8724 53.665 50.6905C55.4124 49.6627 56.0806 47.5557 56.3375 45.6544C56.9543 41.5433 55.5152 36.9183 53.3567 33.4238C51.0953 29.7752 47.395 26.4864 43.1806 25.4072C41.6388 24.9961 40.097 24.9961 38.658 25.253C44.4141 23.5058 55.5152 25.8183 59.4212 34.7086C61.2714 39.0766 61.6311 42.571 61.1172 45.7058Z" fill="white"/>
</svg>
