<svg width="29" height="29" viewBox="0 0 29 29" fill="none" xmlns="http://www.w3.org/2000/svg">
<circle cx="14.5" cy="14.5" r="14.5" fill="#F5F5F5"/>
<path d="M17.7695 14.6494C17.7695 14.0781 18.2266 13.6211 18.7979 13.6211C19.3693 13.6211 19.8263 14.0781 19.8263 14.6494C19.8263 15.2207 19.3693 15.6777 18.7979 15.6777C18.2266 15.6777 17.7695 15.2016 17.7695 14.6494Z" fill="#171753"/>
<path d="M23.9787 17.1442C23.9406 17.4679 23.9026 17.7917 23.8073 18.0963C23.5217 19.1818 22.8932 20.172 21.8648 20.7242C20.4555 21.4478 18.7796 21.1812 17.3703 20.629C16.2086 21.4478 16.2086 21.4478 16.2086 21.4478C15.942 21.6192 15.5992 21.3335 15.7516 21.0479C15.4278 21.105 15.3326 20.8004 15.4278 20.5528C15.1612 20.7623 14.9327 20.3814 15.085 20.1529C15.1802 20.0006 15.3326 19.8292 15.4469 19.6959C13.809 18.7628 12.3236 17.6203 10.8191 16.4968C11.6761 17.03 15.1041 18.7819 15.942 19.1437C16.8181 19.5245 17.6941 19.9054 18.6082 20.1148C19.37 20.2862 20.3413 20.3814 21.0459 19.9435C21.6934 19.5626 21.941 18.7819 22.0362 18.0773C22.2647 16.5539 21.7315 14.8401 20.9316 13.5452C20.0937 12.1932 18.7225 10.9745 17.1609 10.5746C16.5895 10.4223 16.0182 10.4223 15.485 10.5175C14.2471 10.7269 13.1235 11.4886 12.2665 12.4408C11.0286 13.8118 10.1716 15.5066 9.39076 17.1823C8.85752 18.3058 8.11479 21.0479 6.3627 19.9625C5.58189 19.4674 5.08673 18.6105 4.74393 17.7726C4.36305 16.8776 4.09643 15.678 4.344 14.7068C4.87724 12.6693 7.7339 14.4783 8.70516 15.1257C8.64803 15.1067 6.3627 14.0594 5.52475 14.8782C5.14387 15.259 5.16291 15.9446 5.22004 16.4397C5.33431 17.3346 5.77233 18.6676 6.61028 19.1627C7.69581 19.7911 8.2481 17.8297 8.53376 17.1442C9.00987 15.9826 9.46694 14.8211 10.0002 13.6785C10.5906 12.4217 11.2952 11.184 12.2665 10.1747C12.057 9.92716 11.7523 9.62248 11.7332 9.29876C11.6951 8.93696 12.057 8.53707 12.4379 8.72749C11.9998 8.23239 12.5902 7.48973 13.1615 7.77537C12.8949 7.35644 13.3139 6.82325 13.7519 6.84229C13.9995 6.84229 14.2471 7.05176 14.4375 7.18505C14.9327 7.50878 15.4278 7.85154 15.942 8.17526C20.6841 7.43261 24.3977 12.8216 23.9787 17.1442Z" fill="#171753"/>
<path d="M23.8066 18.0958C23.5209 19.1812 22.8925 20.1714 21.8641 20.7236C20.4548 21.4473 18.7789 21.1807 17.3696 20.6284C16.2079 21.4473 16.2079 21.4473 16.2079 21.4473C15.9413 21.6186 15.5985 21.333 15.7508 21.0474C15.4271 21.1045 15.3319 20.7998 15.4271 20.5523C15.1605 20.7617 14.9319 20.3809 15.0843 20.1524C15.1795 20 15.3319 19.8286 15.4461 19.6953C13.8083 18.7623 12.3229 17.6197 10.8184 16.4962C11.6754 17.0294 15.1033 18.7813 15.9413 19.1431C16.8173 19.524 17.6934 19.9048 18.6075 20.1143C19.3693 20.2857 20.3405 20.3809 21.0452 19.9429C21.6927 19.5621 21.9403 18.7813 22.0355 18.0767C22.264 16.5534 21.7308 14.8395 20.9309 13.5447C20.093 12.1926 18.7218 10.9739 17.1601 10.574C16.5888 10.4217 16.0175 10.4217 15.4842 10.5169C17.6172 9.86947 21.7308 10.7264 23.1782 14.0207C23.8637 15.6393 23.9971 16.9342 23.8066 18.0958Z" fill="#171753"/>
</svg>
