<svg viewBox="0 0 32 24" fill="none" xmlns="http://www.w3.org/2000/svg">
<path d="M10.7126 7.89656C10.2003 6.74592 10.9505 5.29471 12.3888 4.65441C13.034 4.35649 13.7591 4.27853 14.4529 4.43249C14.6726 3.13707 15.8433 2.00048 17.4271 1.69382C19.3841 1.31382 21.2306 2.33983 21.5505 3.98941C21.8705 5.63899 20.5443 7.2817 18.5865 7.66208C17.6638 7.85389 16.7028 7.70998 15.8768 7.25624C15.5412 7.95943 14.96 8.5156 14.2427 8.81994C13.8085 9.01577 13.3382 9.11846 12.8618 9.12131C12.4233 9.14824 11.9864 9.04669 11.6047 8.82917C11.2229 8.61164 10.9129 8.28757 10.7126 7.89656Z" fill="#FF4141"/>
<path d="M8.04152 12.177L3.23604 8.17261L1.74341 12.177L2.25297 13.925L1.74341 15.3082L3.23604 20.2593L8.04152 15.6358V12.177Z" fill="#FF4141"/>
<path d="M10.568 22.0702C9.8555 20.8361 15.0666 16.1821 15.0666 16.1821L17.6408 20.5107C17.6408 20.5107 11.2805 23.3043 10.568 22.0702Z" fill="#FFA54B"/>
<path d="M18.8158 6.97119C25.196 6.97119 30.3716 13.8557 30.3716 13.8557C30.3716 13.8557 25.196 20.7401 18.8158 20.7401C12.4356 20.7401 7.26001 17.6579 7.26001 13.8557C7.26001 10.0534 12.4337 6.97119 18.8158 6.97119Z" fill="#FFA54B"/>
<path d="M31.0613 13.4446C30.9165 13.2132 27.6596 8.08658 22.4691 6.64866C22.7446 5.45161 22.5417 4.19433 21.9037 3.14468C21.5135 2.47915 20.9544 1.92854 20.2829 1.54862C19.6115 1.1687 18.8516 0.972953 18.0801 0.981208C17.3087 0.989462 16.5531 1.20142 15.89 1.59563C15.2268 1.98983 14.6796 2.55227 14.3037 3.226C11.0653 2.884 8.6417 6.11818 9.605 9.21214C8.87692 9.70688 8.22493 10.3052 7.66966 10.9883C6.32632 9.97092 5.17372 8.72377 4.26524 7.30454C4.19313 7.19359 4.09702 7.10025 3.98402 7.0314C3.87102 6.96256 3.744 6.91996 3.61233 6.90675C3.48067 6.89355 3.34772 6.91008 3.22329 6.95512C3.09887 7.00016 2.98615 7.07256 2.89344 7.16698C0.963039 9.12398 0.00163871 11.6848 1.62044 13.9405C0.00201887 16.1939 0.962659 18.7547 2.89306 20.7121C2.98577 20.8065 3.09849 20.8789 3.22291 20.9239C3.34734 20.969 3.48029 20.9855 3.61195 20.9723C3.74362 20.9591 3.87064 20.9165 3.98364 20.8477C4.09664 20.7788 4.19275 20.6855 4.26486 20.5745C5.1751 19.1523 6.33063 17.903 7.67764 16.8847C8.64814 18.0118 9.83854 18.9288 11.1759 19.5797C10.8003 20.0594 10.3447 20.4708 9.8292 20.7957C9.68921 20.882 9.57523 21.0046 9.49939 21.1506C9.42355 21.2965 9.38869 21.4602 9.39851 21.6244C9.40833 21.7886 9.46248 21.947 9.55518 22.0829C9.64788 22.2187 9.77567 22.3269 9.92496 22.3959C11.1599 22.934 12.517 23.1298 13.8537 22.9626C15.1904 22.7955 16.4575 22.2716 17.5219 21.4459C18.2757 21.5341 19.0339 21.5787 19.7928 21.5792C22.593 21.5792 25.4347 20.3325 28.0103 17.973C29.1697 16.9164 30.1943 15.7207 31.0609 14.4132C31.1516 14.2682 31.1997 14.1007 31.1997 13.9297C31.1997 13.7586 31.1516 13.5911 31.0609 13.4461L31.0613 13.4446ZM14.5644 5.11042C14.7799 5.17206 15.0107 5.1499 15.2105 5.04841C15.4103 4.94691 15.5644 4.77358 15.6417 4.56322C15.8237 4.04727 16.1602 3.59987 16.6054 3.28177C17.0505 2.96367 17.5828 2.7903 18.1299 2.7852C19.9858 2.7852 21.1524 4.65062 20.7105 6.32604C17.4301 6.1376 14.1569 6.80311 11.2105 8.25758C10.9114 6.3363 12.6081 4.54422 14.5644 5.11042ZM3.45166 18.6175C3.0667 18.1238 2.79107 17.5539 2.64302 16.9455C2.55121 16.5173 2.57494 16.0723 2.71176 15.6562C2.84858 15.2401 3.09358 14.8679 3.42164 14.5777C3.58897 14.4072 3.68271 14.1779 3.68271 13.939C3.68271 13.7001 3.58897 13.4707 3.42164 13.3002C3.0937 13.0102 2.84871 12.6383 2.71177 12.2225C2.57482 11.8067 2.55083 11.362 2.64226 10.9339C2.79008 10.3248 3.06572 9.75411 3.4509 9.25964C4.38654 10.5259 5.51026 11.6417 6.78312 12.5683C6.47065 13.4549 6.47173 14.4218 6.78616 15.3077C5.51207 16.2347 4.38731 17.3511 3.4509 18.6183L3.45166 18.6175ZM26.7837 16.6613C24.5189 18.7243 22.1674 19.7701 19.7947 19.7701C19.564 19.7701 19.3322 19.7647 19.0997 19.7556C19.8542 18.6354 20.385 17.3799 20.663 16.0582C20.717 15.826 20.6771 15.5819 20.5519 15.379C20.4268 15.1761 20.2267 15.0309 19.995 14.9748C19.8804 14.9485 19.7617 14.9452 19.6458 14.9649C19.5299 14.9847 19.419 15.0272 19.3196 15.09C19.2202 15.1528 19.1342 15.2347 19.0666 15.3309C18.999 15.4271 18.9511 15.5357 18.9256 15.6505C18.3826 18.0365 17.1989 19.7511 15.503 20.6083C14.4736 21.1246 13.3124 21.3182 12.1711 21.1639C13.2167 19.9759 14.0004 18.5811 14.4713 17.0702C14.538 16.8416 14.5119 16.5958 14.3987 16.3863C14.2854 16.1768 14.0941 16.0204 13.8663 15.9511C13.7535 15.9181 13.6354 15.9078 13.5186 15.9208C13.4018 15.9338 13.2888 15.9697 13.186 16.0266C13.0832 16.0835 12.9926 16.1602 12.9196 16.2522C12.8466 16.3442 12.7925 16.4498 12.7605 16.5629C12.597 17.0744 12.3919 17.5717 12.1472 18.0498C10.5132 17.2442 9.29074 16.238 8.70972 15.2245C8.69811 15.1979 8.68399 15.1724 8.66754 15.1485C8.44509 14.7743 8.32904 14.3465 8.33192 13.9112C8.3348 13.4759 8.4565 13.0497 8.68388 12.6785C10.4402 9.5093 17.2012 7.56826 21.1403 8.19868C24.3201 8.70788 27.3081 11.2892 29.2233 13.9279C28.503 14.9185 27.6852 15.8343 26.7821 16.6617L26.7837 16.6613Z" fill="#171753"/>
<path d="M24.0904 11.2562C23.9681 11.1745 23.8275 11.1242 23.6811 11.1098C23.5347 11.0954 23.387 11.1173 23.2511 11.1736C23.1152 11.2299 22.9953 11.3189 22.902 11.4326C22.8086 11.5463 22.7448 11.6813 22.7161 11.8256C22.6875 11.9699 22.6948 12.119 22.7375 12.2598C22.7803 12.4005 22.857 12.5286 22.9611 12.6326C23.0651 12.7366 23.1932 12.8134 23.334 12.856C23.4748 12.8987 23.6239 12.906 23.7682 12.8773C23.9416 12.8426 24.1008 12.7573 24.2257 12.6322C24.3507 12.507 24.4358 12.3477 24.4703 12.1743C24.5047 12.0008 24.487 11.8211 24.4194 11.6577C24.3518 11.4943 24.2374 11.3546 24.0904 11.2562Z" fill="#171753"/>
</svg>
