<svg width="25" height="23" viewBox="0 0 25 23" fill="none" xmlns="http://www.w3.org/2000/svg">
<path fill-rule="evenodd" clip-rule="evenodd" d="M17.892 1.98281C18.2294 2.34085 18.4361 2.82328 18.4361 3.354V3.41062L19.7881 3.17505C20.0601 3.12765 20.3191 3.30976 20.3665 3.5818L22.9338 18.316C22.9812 18.5881 22.7991 18.847 22.527 18.8944L7.79279 21.4617C7.52074 21.5091 7.26178 21.327 7.21438 21.055L6.77005 18.5049H5.24745L5.73664 21.3125C5.92625 22.4007 6.96209 23.1291 8.05027 22.9395L22.7845 20.3722C23.8727 20.1826 24.6011 19.1467 24.4115 18.0586L21.8442 3.32432C21.6546 2.23614 20.6188 1.50771 19.5306 1.69731L17.892 1.98281Z" fill="#171753"/>
<path d="M0 16.9431C0 18.0531 0.903129 18.9562 2.01315 18.9562H16.943C18.0531 18.9562 18.9562 18.0531 18.9562 16.9431V2.01315C18.9562 0.903129 18.0531 0 16.9431 0H2.01315C0.903129 0 0 0.903129 0 2.01315V16.9431ZM16.9431 17.6022H2.01315C1.64953 17.6022 1.35402 17.3067 1.35402 16.9431V15.897L7.42394 11.0404L13.0906 16.077C13.3696 16.3256 13.7973 16.3011 14.0459 16.0208C14.2945 15.7418 14.2694 15.3134 13.9897 15.0655L12.4401 13.688L14.1537 12.4031L17.6022 15.8515V16.9431C17.6022 17.3067 17.3067 17.6022 16.9431 17.6022ZM2.01315 1.35402H16.943C17.3067 1.35402 17.6022 1.64953 17.6022 2.01315V13.9368L14.6958 11.0304C14.4585 10.7911 14.0803 10.7653 13.8112 10.9676L11.4077 12.7703L7.89662 9.64933C7.65134 9.42984 7.28244 9.41989 7.02389 9.62618L1.35402 14.1622V2.01315C1.35402 1.64953 1.64953 1.35402 2.01315 1.35402Z" fill="#171753"/>
<path d="M12.8632 8.12407C14.3567 8.12407 15.5712 6.90959 15.5712 5.41604C15.5712 3.92249 14.3567 2.70801 12.8632 2.70801C11.3696 2.70801 10.1552 3.92249 10.1552 5.41604C10.1552 6.90959 11.3696 8.12407 12.8632 8.12407ZM12.8632 4.06202C13.6096 4.06202 14.2172 4.66964 14.2172 5.41604C14.2172 6.16244 13.6096 6.77006 12.8632 6.77006C12.1168 6.77006 11.5092 6.16244 11.5092 5.41604C11.5092 4.66964 12.1168 4.06202 12.8632 4.06202Z" fill="#171753"/>
</svg>
