<svg xmlns="http://www.w3.org/2000/svg" xmlns:xlink="http://www.w3.org/1999/xlink" width="26px" height="26px" viewBox="0 0 26 26" version="1.1">
<g id="surface1">
<path style=" stroke:none;fill-rule:nonzero;fill:rgb(100%,100%,100%);fill-opacity:1;" d="M 13 26 C 20.167969 26 26 20.167969 26 13 C 26 5.832031 20.167969 0 13 0 C 5.832031 0 0 5.832031 0 13 C 0 20.167969 5.832031 26 13 26 Z M 13 1.78125 C 19.1875 1.78125 24.21875 6.8125 24.21875 13 C 24.21875 19.1875 19.1875 24.21875 13 24.222656 C 6.8125 24.21875 1.78125 19.1875 1.78125 13 C 1.78125 6.8125 6.8125 1.78125 13 1.78125 Z M 13 1.78125 "/>
<path style=" stroke:none;fill-rule:nonzero;fill:rgb(100%,100%,100%);fill-opacity:1;" d="M 11.253906 18.566406 C 11.601562 18.914062 12.164062 18.914062 12.511719 18.566406 C 12.859375 18.21875 12.859375 17.65625 12.511719 17.308594 L 9.09375 13.890625 L 18.992188 13.886719 C 19.484375 13.886719 19.882812 13.488281 19.882812 13 C 19.882812 12.507812 19.484375 12.109375 18.992188 12.109375 L 9.089844 12.109375 L 12.511719 8.691406 C 12.859375 8.34375 12.859375 7.777344 12.511719 7.429688 C 12.339844 7.257812 12.109375 7.171875 11.882812 7.171875 C 11.65625 7.171875 11.425781 7.257812 11.253906 7.429688 L 6.3125 12.371094 C 6.148438 12.539062 6.054688 12.761719 6.054688 13 C 6.054688 13.234375 6.148438 13.460938 6.316406 13.628906 Z M 11.253906 18.566406 "/>
</g>
</svg>
