<svg viewBox="0 0 49 49" fill="none" xmlns="http://www.w3.org/2000/svg">
<path d="M24.5 49C10.9989 49 0 38.0011 0 24.5C0 10.9989 10.9989 0 24.5 0C38.0011 0 49 10.9989 49 24.5C49 38.0011 38.0011 49 24.5 49ZM24.5 2.34574C12.25 2.34574 2.34574 12.25 2.34574 24.5C2.34574 36.75 12.25 46.6543 24.5 46.6543C36.6979 46.6543 46.6543 36.6979 46.6543 24.5C46.6543 12.3021 36.6979 2.34574 24.5 2.34574Z" fill="#5ED9D1"/>
<path d="M21.3721 33.8308C21.0072 33.8308 20.5901 33.6744 20.3295 33.4138L12.8752 25.9074C12.3018 25.334 12.3018 24.3957 12.8752 23.8223C13.4486 23.2489 14.3869 23.2489 14.9603 23.8223L21.3721 30.3383L34.0391 17.6713C34.6125 17.0979 35.5508 17.0979 36.1242 17.6713C36.6976 18.2447 36.6976 19.183 36.1242 19.7564L22.4146 33.4138C22.154 33.6744 21.7891 33.8308 21.3721 33.8308Z" fill="#5ED9D1"/>
</svg>
