<svg width="64" height="44" viewBox="0 0 64 44" fill="none" xmlns="http://www.w3.org/2000/svg">
<path d="M59.768 0.5H4.232C1.8985 0.5 0 2.3985 0 4.73188V39.2679C0 41.6015 1.8985 43.5 4.232 43.5H59.768C62.1015 43.5 64 41.6015 64 39.268V4.73188C64 2.3985 62.1015 0.5 59.768 0.5ZM62 39.268C62 40.4988 60.9988 41.5 59.768 41.5H4.232C3.00125 41.5 2 40.4986 2 39.268V4.73188C2 3.50125 3.00125 2.5 4.232 2.5H59.768C60.9988 2.5 62 3.50125 62 4.73188V39.268ZM29.0831 9.71875H6.52063C5.96838 9.71875 5.52063 10.1665 5.52063 10.7188V33.2812C5.52063 33.8335 5.96838 34.2812 6.52063 34.2812H29.0831C29.6354 34.2812 30.0831 33.8335 30.0831 33.2812V10.7188C30.0831 10.1665 29.6354 9.71875 29.0831 9.71875ZM23.0273 32.2812H12.5766V30.8851C12.5766 28.0039 14.9207 26.826 17.802 26.826C20.6833 26.826 23.0273 28.0039 23.0273 30.8851V32.2812ZM28.0831 32.2812H25.0273V30.8851C25.0273 26.9011 21.786 24.826 17.802 24.826C13.818 24.826 10.5766 26.9011 10.5766 30.8851V32.2812H7.52075V11.7188H28.0833L28.0831 32.2812ZM17.802 23.7728C20.2105 23.7728 22.17 21.8133 22.17 19.4048C22.17 16.9963 20.2105 15.0369 17.802 15.0369C15.3935 15.0369 13.434 16.9964 13.434 19.4048C13.434 21.8133 15.3934 23.7728 17.802 23.7728ZM17.802 17.0368C19.1077 17.0368 20.17 18.099 20.17 19.4046C20.17 20.7104 19.1077 21.7726 17.802 21.7726C16.4963 21.7726 15.434 20.7104 15.434 19.4046C15.434 18.099 16.4963 17.0368 17.802 17.0368ZM38.7136 18.5175C38.7136 19.0697 38.2659 19.5175 37.7136 19.5175H34.0576C33.5054 19.5175 33.0576 19.0697 33.0576 18.5175C33.0576 17.9653 33.5054 17.5175 34.0576 17.5175H37.7136C38.2659 17.5175 38.7136 17.9653 38.7136 18.5175ZM58.4794 18.5175C58.4794 19.0697 58.0316 19.5175 57.4794 19.5175H41.3392C40.787 19.5175 40.3392 19.0697 40.3392 18.5175C40.3392 17.9653 40.787 17.5175 41.3392 17.5175H57.4794C58.0316 17.5175 58.4794 17.9653 58.4794 18.5175ZM38.7136 31.1346C38.7136 31.6869 38.2659 32.1346 37.7136 32.1346H34.0576C33.5054 32.1346 33.0576 31.6869 33.0576 31.1346C33.0576 30.5824 33.5054 30.1346 34.0576 30.1346H37.7136C38.2659 30.1346 38.7136 30.5824 38.7136 31.1346ZM58.4794 31.1346C58.4794 31.6869 58.0316 32.1346 57.4794 32.1346H41.3392C40.787 32.1346 40.3392 31.6869 40.3392 31.1346C40.3392 30.5824 40.787 30.1346 41.3392 30.1346H57.4794C58.0316 30.1346 58.4794 30.5824 58.4794 31.1346ZM58.4794 24.826C58.4794 25.3783 58.0316 25.826 57.4794 25.826H41.3392C40.787 25.826 40.3392 25.3783 40.3392 24.826C40.3392 24.2738 40.787 23.826 41.3392 23.826H57.4794C58.0316 23.826 58.4794 24.2738 58.4794 24.826ZM38.7136 24.826C38.7136 25.3783 38.2659 25.826 37.7136 25.826H34.0576C33.5054 25.826 33.0576 25.3783 33.0576 24.826C33.0576 24.2738 33.5054 23.826 34.0576 23.826H37.7136C38.2659 23.826 38.7136 24.2738 38.7136 24.826ZM58.4794 12.2087C58.4794 12.761 58.0316 13.2087 57.4794 13.2087H41.3392C40.787 13.2087 40.3392 12.761 40.3392 12.2087C40.3392 11.6565 40.787 11.2087 41.3392 11.2087H57.4794C58.0316 11.2087 58.4794 11.6565 58.4794 12.2087ZM38.7136 12.2087C38.7136 12.761 38.2659 13.2087 37.7136 13.2087H34.0576C33.5054 13.2087 33.0576 12.761 33.0576 12.2087C33.0576 11.6565 33.5054 11.2087 34.0576 11.2087H37.7136C38.2659 11.2087 38.7136 11.6565 38.7136 12.2087Z" fill="#9BE7C4"/>
</svg>
