<svg width="24" height="24" viewBox="0 0 24 24" fill="none" xmlns="http://www.w3.org/2000/svg">
<path d="M22.9091 16.3635C22.6198 16.3635 22.3423 16.4785 22.1377 16.683C21.9331 16.8876 21.8182 17.1651 21.8182 17.4544V21.8181H2.18182V17.4544C2.18182 17.1651 2.06688 16.8876 1.8623 16.683C1.65771 16.4785 1.38024 16.3635 1.09091 16.3635C0.801582 16.3635 0.524105 16.4785 0.31952 16.683C0.114935 16.8876 0 17.1651 0 17.4544V22.909C0 23.1983 0.114935 23.4758 0.31952 23.6804C0.524105 23.885 0.801582 23.9999 1.09091 23.9999H22.9091C23.1984 23.9999 23.4759 23.885 23.6805 23.6804C23.8851 23.4758 24 23.1983 24 22.909V17.4544C24 17.1651 23.8851 16.8876 23.6805 16.683C23.4759 16.4785 23.1984 16.3635 22.9091 16.3635Z" fill="#171753"/>
<path d="M11.2286 18.2258C11.4332 18.4303 11.7106 18.5452 11.9999 18.5452C12.2892 18.5452 12.5666 18.4303 12.7712 18.2258L19.3166 11.6804C19.5153 11.4746 19.6253 11.199 19.6228 10.913C19.6203 10.627 19.5056 10.3534 19.3033 10.1511C19.1011 9.94884 18.8275 9.83411 18.5414 9.83162C18.2554 9.82914 17.9798 9.9391 17.7741 10.1378L13.0908 14.8211V1.09091C13.0908 0.801582 12.9759 0.524105 12.7713 0.31952C12.5667 0.114935 12.2892 0 11.9999 0C11.7106 0 11.4331 0.114935 11.2285 0.31952C11.0239 0.524105 10.909 0.801582 10.909 1.09091V14.8211L6.22573 10.1378C6.01998 9.9391 5.74442 9.82914 5.45838 9.83162C5.17235 9.83411 4.89874 9.94884 4.69647 10.1511C4.49421 10.3534 4.37948 10.627 4.37699 10.913C4.37451 11.199 4.48447 11.4746 4.68318 11.6804L11.2286 18.2258Z" fill="#171753"/>
</svg>
