<svg width="24" height="26" viewBox="0 0 24 26" fill="none" xmlns="http://www.w3.org/2000/svg">
<circle cx="12" cy="14" r="12" fill="#FFC78F"/>
<path d="M9.40263 22.364C9.03863 22.364 8.71797 22.234 8.44063 21.974C8.1633 21.714 8.02463 21.4367 8.02463 21.142C8.02463 20.934 8.0593 20.7607 8.12863 20.622C8.61397 19.5473 9.34197 17.814 10.3126 15.422L10.9366 13.888C10.9713 13.7493 10.9366 13.68 10.8326 13.68C10.5206 13.68 9.92263 13.966 9.03863 14.538C8.9173 14.6073 8.82197 14.642 8.75263 14.642C8.54463 14.642 8.44063 14.5813 8.44063 14.46C8.44063 14.252 8.69197 13.914 9.19463 13.446C9.71463 12.9607 10.33 12.484 11.0406 12.016C11.7513 11.5307 12.384 11.1753 12.9386 10.95C13.0426 10.9153 13.1206 10.898 13.1726 10.898C13.4673 10.898 13.7446 11.0367 14.0046 11.314C14.2646 11.574 14.3513 11.808 14.2646 12.016L11.2746 19.322C11.2053 19.4433 11.1706 19.6167 11.1706 19.842C11.1706 19.9113 11.1966 19.972 11.2486 20.024C11.3006 20.0587 11.3526 20.076 11.4046 20.076C11.6473 20.076 12.046 19.868 12.6006 19.452C13.1553 19.036 13.6666 18.594 14.1346 18.126C14.1866 18.074 14.2213 18.048 14.2386 18.048C14.308 18.048 14.3686 18.0827 14.4206 18.152C14.4726 18.204 14.4986 18.2647 14.4986 18.334C14.4986 18.7327 14.1953 19.2613 13.5886 19.92C12.982 20.5613 12.2713 21.1333 11.4566 21.636C10.6593 22.1213 9.97463 22.364 9.40263 22.364ZM14.3686 8.818C14.022 8.818 13.7273 8.688 13.4846 8.428C13.2593 8.168 13.1466 7.86467 13.1466 7.518C13.1466 6.98067 13.3286 6.51267 13.6926 6.114C14.074 5.698 14.542 5.49 15.0966 5.49C15.4433 5.49 15.7206 5.63733 15.9286 5.932C16.154 6.20933 16.2666 6.53867 16.2666 6.92C16.2666 7.42267 16.076 7.86467 15.6946 8.246C15.3133 8.62733 14.8713 8.818 14.3686 8.818Z" fill="#171753"/>
</svg>
