<svg width="17" height="17" viewBox="0 0 17 17" fill="none" xmlns="http://www.w3.org/2000/svg">
<path d="M14.7173 9.17985C16.7123 7.18482 16.7123 3.93862 14.7173 1.94359C12.7222 -0.0514419 9.47604 -0.0514782 7.48101 1.94355C5.75965 3.66491 5.52377 6.31763 6.7729 8.29453L0.830405 14.237C0.391091 14.6763 0.39109 15.3911 0.830404 15.8305C1.26972 16.2698 1.98452 16.2698 2.42384 15.8305L2.67953 15.5748L3.752 16.6472C4.05814 16.9534 4.54346 16.9662 4.83383 16.6758C5.12424 16.3854 5.11143 15.9001 4.80529 15.5939L4.78382 15.5725C4.68178 15.4704 4.68178 15.3044 4.78382 15.2023L5.07845 14.9077C5.1805 14.8057 5.34654 14.8057 5.44859 14.9077L5.47006 14.9292C5.7762 15.2353 6.26152 15.2481 6.55193 14.9577C6.84233 14.6673 6.82953 14.182 6.52339 13.8758L5.45092 12.8034L8.3663 9.888C10.3432 11.1371 12.9959 10.9012 14.7173 9.17985ZM9.06263 7.59823C7.9379 6.4735 7.9379 4.64991 9.06263 3.52518C10.1874 2.40045 12.0109 2.40045 13.1357 3.52518C14.2604 4.64991 14.2604 6.4735 13.1357 7.59823C12.0109 8.72296 10.1874 8.72296 9.06263 7.59823Z" fill="#171753"/>
</svg>
