<svg width="130" height="130" viewBox="0 0 130 130" fill="none" xmlns="http://www.w3.org/2000/svg">
<circle cx="65" cy="65" r="65" fill="url(#paint0_linear)"/>
<path d="M48.3594 48.1847C46.7472 44.5632 49.1081 39.9957 53.635 37.9804C55.6657 37.0428 57.9481 36.7974 60.1317 37.282C60.823 33.2048 64.5077 29.6275 69.4927 28.6624C75.6521 27.4664 81.4635 30.6956 82.4705 35.8874C83.4776 41.0793 79.3035 46.2495 73.1417 47.4467C70.2374 48.0504 67.213 47.5974 64.613 46.1694C63.5569 48.3826 61.7277 50.133 59.4702 51.0909C58.1036 51.7073 56.6231 52.0305 55.124 52.0394C53.7438 52.1242 52.3687 51.8046 51.1672 51.1199C49.9658 50.4353 48.9901 49.4153 48.3594 48.1847Z" fill="#FF4141"/>
<path d="M39.9524 61.6573L24.8277 49.0539L20.1299 61.6573L21.7336 67.1589L20.1299 71.5124L24.8277 87.095L39.9524 72.5433V61.6573Z" fill="#FF4141"/>
<path d="M47.9043 92.7947C45.6618 88.9106 62.0631 74.2625 62.0631 74.2625L70.1649 87.8862C70.1649 87.8862 50.1468 96.6789 47.9043 92.7947Z" fill="#FFA54B"/>
<path d="M73.863 45.2726C93.9439 45.2726 110.233 66.9405 110.233 66.9405C110.233 66.9405 93.9439 88.6084 73.863 88.6084C53.7822 88.6084 37.4927 78.9077 37.4927 66.9405C37.4927 54.9733 53.7762 45.2726 73.863 45.2726Z" fill="#FFA54B"/>
<path d="M112.404 65.6463C111.948 64.9179 101.697 48.7827 85.3613 44.257C86.2282 40.4894 85.5896 36.5323 83.5816 33.2287C82.3536 31.134 80.5938 29.401 78.4805 28.2053C76.3672 27.0095 73.9754 26.3934 71.5474 26.4194C69.1194 26.4454 66.7414 27.1125 64.6542 28.3532C62.5669 29.5939 60.8446 31.3642 59.6616 33.4846C49.4693 32.4082 41.8412 42.5874 44.8731 52.3252C42.5816 53.8823 40.5295 55.7656 38.7819 57.9153C34.5539 54.7134 30.9262 50.7881 28.0669 46.3213C27.8399 45.9721 27.5375 45.6783 27.1818 45.4616C26.8261 45.2449 26.4264 45.1109 26.012 45.0693C25.5976 45.0278 25.1791 45.0798 24.7875 45.2215C24.3959 45.3633 24.0411 45.5912 23.7494 45.8883C17.6737 52.0477 14.6478 60.1076 19.7428 67.207C14.649 74.2993 17.6725 82.3592 23.7482 88.5198C24.0399 88.8169 24.3947 89.0448 24.7863 89.1866C25.1779 89.3283 25.5964 89.3804 26.0108 89.3388C26.4252 89.2973 26.8249 89.1632 27.1806 88.9465C27.5363 88.7298 27.8388 88.436 28.0657 88.0868C30.9306 83.6105 34.5674 79.6785 38.807 76.4737C41.8615 80.021 45.6081 82.9073 49.8174 84.9557C48.6351 86.4657 47.2012 87.7604 45.5787 88.7829C45.1381 89.0545 44.7794 89.4405 44.5407 89.8998C44.302 90.3591 44.1923 90.8745 44.2232 91.3912C44.2541 91.9079 44.4245 92.4065 44.7163 92.8341C45.0081 93.2616 45.4103 93.6021 45.8801 93.8193C49.767 95.513 54.0382 96.1292 58.2454 95.6031C62.4525 95.077 66.4404 93.428 69.7906 90.8292C72.1629 91.107 74.5493 91.2472 76.9379 91.249C85.7512 91.249 94.6949 87.325 102.801 79.899C106.45 76.5733 109.675 72.8102 112.403 68.6949C112.688 68.2385 112.84 67.7112 112.84 67.173C112.84 66.6347 112.688 66.1074 112.403 65.651L112.404 65.6463ZM60.4821 39.4156C61.1603 39.6096 61.8868 39.5399 62.5157 39.2204C63.1446 38.901 63.6294 38.3554 63.8728 37.6933C64.4458 36.0695 65.5048 34.6613 66.9059 33.6601C68.3069 32.659 69.9822 32.1133 71.7042 32.0973C77.5454 32.0973 81.2172 37.9684 79.8262 43.2416C69.5015 42.6485 59.1995 44.7431 49.9262 49.3209C48.985 43.2739 54.3251 37.6336 60.4821 39.4156ZM25.5063 81.9274C24.2947 80.3734 23.4271 78.5796 22.9612 76.665C22.6722 75.3171 22.7469 73.9166 23.1775 72.6071C23.6082 71.2976 24.3793 70.1261 25.4118 69.2127C25.9384 68.6761 26.2335 67.9542 26.2335 67.2023C26.2335 66.4503 25.9384 65.7285 25.4118 65.1918C24.3796 64.2791 23.6086 63.1086 23.1776 61.8C22.7465 60.4913 22.671 59.0917 22.9588 57.7443C23.424 55.8272 24.2916 54.031 25.5039 52.4747C28.4487 56.4601 31.9855 59.9718 35.9916 62.8883C35.0082 65.6787 35.0115 68.722 36.0012 71.5103C31.9912 74.4277 28.4511 77.9416 25.5039 81.9298L25.5063 81.9274ZM98.9407 75.7704C91.8125 82.2635 84.4117 85.5549 76.9438 85.5549C76.2179 85.5549 75.4883 85.5381 74.7564 85.5094C77.131 81.9837 78.8017 78.0322 79.6767 73.8724C79.8466 73.1416 79.721 72.3733 79.3272 71.7347C78.9334 71.0961 78.3034 70.6389 77.5741 70.4626C77.2135 70.3798 76.84 70.3692 76.4752 70.4314C76.1104 70.4936 75.7615 70.6274 75.4486 70.8251C75.1358 71.0228 74.8652 71.2804 74.6523 71.5831C74.4395 71.8859 74.2887 72.2278 74.2086 72.589C72.4995 80.0987 68.774 85.4951 63.4362 88.1933C60.1963 89.8181 56.5415 90.4276 52.9497 89.9418C56.2405 86.2028 58.7071 81.8127 60.1891 77.0573C60.3991 76.3378 60.317 75.5644 59.9606 74.9051C59.6041 74.2457 59.0021 73.7534 58.2851 73.5351C57.9301 73.4314 57.5581 73.399 57.1906 73.4399C56.8231 73.4807 56.4673 73.5938 56.1438 73.7729C55.8202 73.9519 55.5353 74.1932 55.3055 74.4829C55.0756 74.7725 54.9054 75.1049 54.8047 75.4606C54.2901 77.0707 53.6445 78.6359 52.8743 80.1406C47.7315 77.6051 43.884 74.4381 42.0553 71.2483C42.0188 71.1646 41.9743 71.0845 41.9226 71.0091C41.2224 69.8315 40.8572 68.485 40.8663 67.115C40.8753 65.7449 41.2583 64.4034 41.974 63.2351C47.5019 53.2605 68.7811 47.1513 81.1789 49.1355C91.187 50.7381 100.591 58.8626 106.619 67.1676C104.352 70.2851 101.778 73.1675 98.9359 75.7716L98.9407 75.7704Z" fill="#171753"/>
<path d="M90.4644 58.7583C90.0794 58.5011 89.6369 58.3428 89.1761 58.2974C88.7154 58.2521 88.2505 58.3211 87.8228 58.4983C87.395 58.6755 87.0175 58.9555 86.7238 59.3134C86.4301 59.6714 86.2293 60.0962 86.139 60.5504C86.0487 61.0045 86.0719 61.4739 86.2063 61.9169C86.3408 62.36 86.5825 62.7631 86.9099 63.0904C87.2374 63.4177 87.6405 63.6593 88.0836 63.7936C88.5267 63.9279 88.9961 63.9509 89.4502 63.8605C89.9959 63.7512 90.497 63.4827 90.8903 63.0889C91.2835 62.6951 91.5513 62.1937 91.6598 61.6478C91.7683 61.102 91.7127 60.5362 91.4999 60.0219C91.2872 59.5077 90.9268 59.068 90.4644 58.7583Z" fill="#171753"/>
<defs>
<linearGradient id="paint0_linear" x1="4.84287e-07" y1="65.0001" x2="130" y2="65.0001" gradientUnits="userSpaceOnUse">
<stop stop-color="#030332"/>
<stop offset="1" stop-color="#171753"/>
</linearGradient>
</defs>
</svg>
