<svg width="48" height="48" viewBox="0 0 48 48" fill="none" xmlns="http://www.w3.org/2000/svg">
<ellipse cx="24.1014" cy="24.1355" rx="23.8982" ry="23.8645" fill="url(#paint0_linear)"/>
<path d="M18.0634 17.5505C17.4191 16.1053 18.3626 14.2825 20.1717 13.4783C20.9833 13.1041 21.8954 13.0062 22.768 13.1996C23.0443 11.5725 24.5168 10.1449 26.509 9.75972C28.9705 9.28243 31.2929 10.5711 31.6954 12.643C32.0978 14.7149 30.4297 16.7782 27.9672 17.256C26.8066 17.4969 25.5979 17.3161 24.5589 16.7462C24.1368 17.6295 23.4058 18.328 22.5036 18.7103C21.9575 18.9562 21.3659 19.0852 20.7668 19.0888C20.2152 19.1226 19.6656 18.9951 19.1855 18.7219C18.7054 18.4486 18.3155 18.0416 18.0634 17.5505Z" fill="#FF4141"/>
<path d="M14.7038 22.9259L8.65953 17.8962L6.7821 22.9259L7.42302 25.1214L6.7821 26.8588L8.65953 33.0773L14.7038 27.2702V22.9259Z" fill="#FF4141"/>
<path d="M17.8818 35.3517C16.9857 33.8017 23.5402 27.9561 23.5402 27.9561L26.778 33.3929C26.778 33.3929 18.778 36.9017 17.8818 35.3517Z" fill="#FFA54B"/>
<path d="M28.2557 16.3872C36.2807 16.3872 42.7905 25.0342 42.7905 25.0342C42.7905 25.0342 36.2807 33.6813 28.2557 33.6813C20.2307 33.6813 13.7208 29.81 13.7208 25.0342C13.7208 20.2585 20.2283 16.3872 28.2557 16.3872Z" fill="#FFA54B"/>
<path d="M43.6585 24.5176C43.4764 24.2269 39.3798 17.7879 32.8513 15.9818C33.1978 14.4783 32.9426 12.8991 32.1401 11.5807C31.6493 10.7448 30.946 10.0532 30.1015 9.57604C29.257 9.09885 28.3011 8.85298 27.3308 8.86335C26.3605 8.87372 25.4102 9.13995 24.576 9.63507C23.7419 10.1302 23.0536 10.8366 22.5809 11.6829C18.5077 11.2533 15.4592 15.3155 16.6708 19.2016C15.7551 19.823 14.935 20.5745 14.2366 21.4324C12.5469 20.1546 11.0972 18.5882 9.95451 16.8056C9.86381 16.6662 9.74293 16.549 9.6008 16.4625C9.45866 16.3761 9.2989 16.3225 9.13329 16.306C8.96768 16.2894 8.80046 16.3101 8.64396 16.3667C8.48746 16.4233 8.34567 16.5142 8.22907 16.6328C5.80102 19.0908 4.59177 22.3073 6.62789 25.1405C4.59225 27.9708 5.80054 31.1872 8.22859 33.6457C8.3452 33.7643 8.48698 33.8553 8.64348 33.9118C8.79998 33.9684 8.9672 33.9892 9.13281 33.9726C9.29842 33.956 9.45818 33.9025 9.60032 33.816C9.74245 33.7296 9.86333 33.6123 9.95404 33.473C11.0989 31.6866 12.5523 30.1174 14.2466 28.8385C15.4673 30.2541 16.9646 31.406 18.6467 32.2234C18.1743 32.826 17.6012 33.3427 16.9528 33.7507C16.7768 33.8592 16.6334 34.0132 16.538 34.1965C16.4426 34.3798 16.3988 34.5855 16.4111 34.7916C16.4235 34.9978 16.4916 35.1968 16.6082 35.3675C16.7248 35.5381 16.8855 35.674 17.0733 35.7606C18.6266 36.4365 20.3335 36.6824 22.0149 36.4725C23.6962 36.2625 25.2899 35.6045 26.6287 34.5674C27.5768 34.6782 28.5305 34.7342 29.485 34.7349C33.0071 34.7349 36.5813 33.1689 39.821 30.2055C41.2792 28.8783 42.568 27.3765 43.658 25.7342C43.7721 25.5521 43.8326 25.3417 43.8326 25.1269C43.8326 24.9121 43.7721 24.7016 43.658 24.5195L43.6585 24.5176ZM22.9087 14.0497C23.1798 14.1271 23.4701 14.0993 23.7214 13.9718C23.9728 13.8444 24.1665 13.6267 24.2638 13.3624C24.4928 12.7144 24.916 12.1524 25.4759 11.7529C26.0358 11.3534 26.7053 11.1356 27.3935 11.1292C29.7278 11.1292 31.1952 13.4722 30.6393 15.5766C26.5132 15.3399 22.3962 16.1758 18.6902 18.0026C18.3141 15.5895 20.4482 13.3386 22.9087 14.0497ZM8.9312 31.0149C8.447 30.3948 8.10031 29.6789 7.91409 28.9149C7.79862 28.377 7.82846 27.8181 8.00055 27.2955C8.17265 26.7729 8.4808 26.3054 8.89344 25.9409C9.10391 25.7267 9.22181 25.4386 9.22181 25.1386C9.22181 24.8385 9.10391 24.5504 8.89344 24.3362C8.48095 23.972 8.17281 23.5049 8.00056 22.9827C7.82831 22.4604 7.79814 21.9019 7.91314 21.3642C8.09907 20.5991 8.44577 19.8823 8.93024 19.2612C10.1071 20.8517 11.5205 22.2531 13.1215 23.417C12.7285 24.5306 12.7298 25.7451 13.1253 26.8578C11.5228 28.022 10.108 29.4243 8.93024 31.0159L8.9312 31.0149ZM38.2781 28.5579C35.4294 31.1491 32.4718 32.4625 29.4874 32.4625C29.1973 32.4625 28.9057 32.4559 28.6132 32.4444C29.5622 31.0374 30.2299 29.4605 30.5796 27.8004C30.6474 27.5088 30.5972 27.2022 30.4399 26.9473C30.2825 26.6925 30.0307 26.51 29.7393 26.4397C29.5952 26.4066 29.4459 26.4024 29.3001 26.4272C29.1543 26.4521 29.0149 26.5054 28.8899 26.5843C28.7648 26.6632 28.6567 26.766 28.5716 26.8868C28.4866 27.0077 28.4263 27.1441 28.3943 27.2883C27.7113 30.2852 26.2224 32.4387 24.0893 33.5154C22.7945 34.1639 21.3339 34.4071 19.8985 34.2132C21.2136 32.7211 22.1994 30.9692 22.7916 29.0714C22.8756 28.7843 22.8428 28.4757 22.7003 28.2125C22.5579 27.9494 22.3173 27.7529 22.0307 27.6658C21.8889 27.6244 21.7402 27.6115 21.5933 27.6278C21.4465 27.6441 21.3043 27.6893 21.175 27.7607C21.0457 27.8321 20.9318 27.9284 20.84 28.044C20.7481 28.1596 20.6801 28.2923 20.6398 28.4342C20.4342 29.0768 20.1762 29.7014 19.8684 30.3019C17.8132 29.29 16.2756 28.0262 15.5448 26.7532C15.5302 26.7198 15.5124 26.6878 15.4917 26.6578C15.2119 26.1878 15.0659 25.6505 15.0696 25.1037C15.0732 24.557 15.2263 24.0216 15.5123 23.5554C17.7214 19.5748 26.2253 17.1368 31.1799 17.9287C35.1795 18.5682 38.9377 21.8104 41.3466 25.1247C40.4406 26.3688 39.412 27.5191 38.2762 28.5583L38.2781 28.5579Z" fill="#171753"/>
<path d="M34.8903 21.7692C34.7365 21.6665 34.5596 21.6033 34.3755 21.5852C34.1913 21.5671 34.0056 21.5947 33.8346 21.6654C33.6637 21.7361 33.5128 21.8478 33.3955 21.9907C33.2781 22.1335 33.1978 22.3031 33.1617 22.4843C33.1256 22.6655 33.1349 22.8529 33.1886 23.0297C33.2424 23.2065 33.339 23.3673 33.4698 23.498C33.6007 23.6286 33.7618 23.725 33.9389 23.7786C34.1159 23.8322 34.3035 23.8414 34.485 23.8053C34.7031 23.7617 34.9033 23.6545 35.0605 23.4974C35.2177 23.3402 35.3247 23.1401 35.368 22.9223C35.4114 22.7044 35.3892 22.4787 35.3041 22.2734C35.2191 22.0682 35.0751 21.8927 34.8903 21.7692Z" fill="#171753"/>
<defs>
<linearGradient id="paint0_linear" x1="0.203247" y1="24.1355" x2="47.9996" y2="24.1355" gradientUnits="userSpaceOnUse">
<stop stop-color="#030332"/>
<stop offset="1" stop-color="#171753"/>
</linearGradient>
</defs>
</svg>
