<svg viewBox="0 0 40 40" fill="none" xmlns="http://www.w3.org/2000/svg">
<g filter="url(#filter0_d)">
<circle cx="20" cy="19" r="18" fill="white"/>
<path d="M24.4126 19.16C24.4126 18.3891 25.0293 17.7725 25.8002 17.7725C26.5711 17.7725 27.1879 18.3891 27.1879 19.16C27.1879 19.9308 26.5711 20.5475 25.8002 20.5475C25.0293 20.5475 24.4126 19.9051 24.4126 19.16Z" fill="url(#paint0_linear)"/>
<path d="M32.7899 22.5263C32.7385 22.9631 32.6871 23.3999 32.5586 23.811C32.1731 25.2756 31.3251 26.6117 29.9375 27.3569C28.0359 28.3333 25.7746 27.9735 23.873 27.2284C22.3055 28.3333 22.3055 28.3333 22.3055 28.3333C21.9457 28.5645 21.4832 28.1791 21.6887 27.7937C21.2519 27.8708 21.1234 27.4596 21.2519 27.1256C20.8921 27.4083 20.5838 26.8944 20.7894 26.586C20.9178 26.3805 21.1234 26.1492 21.2776 25.9694C19.0677 24.7104 17.0633 23.1687 15.0332 21.6527C16.1896 22.3722 20.815 24.736 21.9457 25.2242C23.1278 25.7381 24.3098 26.252 25.5433 26.5347C26.5712 26.7659 27.8817 26.8944 28.8325 26.3034C29.7062 25.7895 30.0403 24.736 30.1688 23.7854C30.4771 21.7298 29.7576 19.4173 28.6783 17.6701C27.5477 15.8458 25.6975 14.2013 23.5903 13.6618C22.8194 13.4562 22.0485 13.4562 21.329 13.5847C19.6587 13.8673 18.1426 14.8951 16.9862 16.1798C15.3159 18.0298 14.1595 20.3166 13.1059 22.5777C12.3864 24.0937 11.3842 27.7937 9.02011 26.3291C7.96653 25.661 7.29841 24.5048 6.83586 23.3742C6.32192 22.1666 5.96216 20.5479 6.29622 19.2374C7.01574 16.4881 10.8703 18.9291 12.1808 19.8027C12.1038 19.777 9.02011 18.3638 7.88944 19.4687C7.3755 19.9826 7.4012 20.9076 7.47829 21.5756C7.63247 22.7833 8.2235 24.5819 9.35417 25.2499C10.8189 26.0978 11.5641 23.4513 11.9496 22.5263C12.592 20.959 13.2087 19.3916 13.9282 17.85C14.7249 16.1541 15.6756 14.484 16.9862 13.1222C16.7035 12.7882 16.2924 12.377 16.2667 11.9402C16.2153 11.4521 16.7035 10.9125 17.2175 11.1694C16.6264 10.5014 17.423 9.49928 18.194 9.88469C17.8342 9.31942 18.3995 8.59997 18.9906 8.62567C19.3246 8.62567 19.6587 8.90831 19.9157 9.08817C20.5838 9.52497 21.2519 9.98747 21.9457 10.4243C28.3443 9.42219 33.3552 16.6937 32.7899 22.5263Z" fill="url(#paint1_linear)"/>
</g>
<defs>
<filter id="filter0_d" x="0" y="0" width="40" height="40" filterUnits="userSpaceOnUse" color-interpolation-filters="sRGB">
<feFlood flood-opacity="0" result="BackgroundImageFix"/>
<feColorMatrix in="SourceAlpha" type="matrix" values="0 0 0 0 0 0 0 0 0 0 0 0 0 0 0 0 0 0 127 0"/>
<feOffset dy="1"/>
<feGaussianBlur stdDeviation="1"/>
<feColorMatrix type="matrix" values="0 0 0 0 0 0 0 0 0 0 0 0 0 0 0 0 0 0 0.16 0"/>
<feBlend mode="normal" in2="BackgroundImageFix" result="effect1_dropShadow"/>
<feBlend mode="normal" in="SourceGraphic" in2="effect1_dropShadow" result="shape"/>
</filter>
<linearGradient id="paint0_linear" x1="24.4126" y1="19.16" x2="27.1879" y2="19.16" gradientUnits="userSpaceOnUse">
<stop stop-color="#030332"/>
<stop offset="1" stop-color="#171753"/>
</linearGradient>
<linearGradient id="paint1_linear" x1="6.16675" y1="18.514" x2="32.8334" y2="18.514" gradientUnits="userSpaceOnUse">
<stop stop-color="#030332"/>
<stop offset="1" stop-color="#171753"/>
</linearGradient>
</defs>
</svg>
