<svg width="43" height="32" viewBox="0 0 43 32" fill="none" xmlns="http://www.w3.org/2000/svg">
<path d="M28.9414 16.7105C28.9414 15.4879 29.9196 14.5098 31.1424 14.5098C32.3652 14.5098 33.3434 15.4879 33.3434 16.7105C33.3434 17.9332 32.3652 18.9113 31.1424 18.9113C29.9196 18.9113 28.9414 17.8924 28.9414 16.7105Z" fill="white"/>
<path d="M42.228 22.0494C42.1464 22.7423 42.0649 23.4351 41.8611 24.0872C41.2497 26.4102 39.9047 28.5295 37.7037 29.7113C34.6875 31.26 31.1007 30.6895 28.0846 29.5076C25.5983 31.26 25.5983 31.26 25.5983 31.26C25.0276 31.6268 24.294 31.0155 24.62 30.4042C23.9271 30.5264 23.7233 29.8744 23.9271 29.3445C23.3565 29.7929 22.8674 28.9778 23.1935 28.4887C23.3973 28.1627 23.7233 27.7959 23.9679 27.5106C20.4626 25.5136 17.2834 23.0683 14.0634 20.6638C15.8976 21.8049 23.2342 25.5543 25.0276 26.3287C26.9025 27.1438 28.7775 27.9589 30.7339 28.4072C32.3643 28.774 34.443 28.9778 35.9511 28.0404C37.3369 27.2253 37.8667 25.5543 38.0705 24.0464C38.5596 20.786 37.4184 17.1181 35.7065 14.3468C33.9131 11.4532 30.9785 8.84486 27.6362 7.98901C26.4134 7.66297 25.1907 7.66297 24.0494 7.86675C21.4001 8.31505 18.9953 9.94525 17.1611 11.983C14.5118 14.9173 12.6776 18.5445 11.0065 22.1309C9.86526 24.5355 8.27566 30.4042 4.52583 28.0812C2.85471 27.0215 1.79497 25.1876 1.06131 23.3943C0.246125 21.4789 -0.324502 18.9113 0.205365 16.8328C1.34662 12.472 7.46048 16.3438 9.53919 17.7294C9.41691 17.6887 4.52583 15.4471 2.73243 17.1996C1.91725 18.0147 1.95801 19.4819 2.08028 20.5415C2.32484 22.457 3.2623 25.3098 5.05569 26.3694C7.37896 27.7144 8.56097 23.5166 9.17236 22.0494C10.1913 19.5634 11.1696 17.0773 12.3108 14.6321C13.5743 11.9422 15.0824 9.29317 17.1611 7.13316C16.7128 6.60335 16.0606 5.95127 16.0199 5.25844C15.9384 4.4841 16.7128 3.62824 17.528 4.03579C16.5905 2.97617 17.854 1.38673 19.0768 1.99805C18.5062 1.10144 19.4029 -0.0396934 20.3403 0.00106143C20.8702 0.00106143 21.4001 0.449363 21.8077 0.734647C22.8674 1.42748 23.9271 2.16107 25.0276 2.8539C35.1766 1.26446 43.1247 12.7981 42.228 22.0494Z" fill="white"/>
</svg>
