<svg viewBox="0 0 16 13" fill="none" xmlns="http://www.w3.org/2000/svg">
<path d="M5.21709 3.84028C4.94749 3.23468 5.34229 2.47088 6.09929 2.13388C6.43888 1.97708 6.82054 1.93605 7.18569 2.01708C7.30129 1.33528 7.91747 0.737076 8.75107 0.575676C9.78107 0.375676 10.7529 0.915679 10.9213 1.78388C11.0897 2.65208 10.3917 3.51666 9.36128 3.71686C8.87561 3.81782 8.36986 3.74208 7.93508 3.50326C7.75847 3.87336 7.45258 4.16608 7.07507 4.32626C6.84655 4.42934 6.59898 4.48338 6.34829 4.48488C6.11748 4.49905 5.88753 4.44561 5.68662 4.33112C5.48571 4.21663 5.32255 4.04607 5.21709 3.84028Z" fill="#FF4141"/>
<path d="M3.81138 6.09319L1.28218 3.9856L0.496582 6.09319L0.764771 7.0132L0.496582 7.7412L1.28218 10.347L3.81138 7.9136V6.09319Z" fill="#FF4141"/>
<path d="M5.14123 11.3001C4.76622 10.6506 7.50892 8.20109 7.50892 8.20109L8.86375 10.4793C8.86375 10.4793 5.51623 11.9496 5.14123 11.3001Z" fill="#FFA54B"/>
<path d="M9.4819 3.35327C12.8399 3.35327 15.5639 6.97667 15.5639 6.97667C15.5639 6.97667 12.8399 10.6001 9.4819 10.6001C6.1239 10.6001 3.3999 8.97787 3.3999 6.97667C3.3999 4.97547 6.1229 3.35327 9.4819 3.35327Z" fill="#FFA54B"/>
<path d="M15.9271 6.76024C15.8509 6.63844 14.1367 3.94024 11.4049 3.18344C11.5499 2.55342 11.4431 1.89169 11.1073 1.33924C10.9019 0.988961 10.6077 0.699169 10.2543 0.49921C9.90088 0.299251 9.50092 0.196227 9.0949 0.200571C8.68888 0.204916 8.29122 0.316474 7.94218 0.523949C7.59315 0.731424 7.30514 1.02745 7.10731 1.38204C5.40291 1.20204 4.12731 2.90424 4.63431 4.53264C4.25111 4.79303 3.90796 5.10795 3.61571 5.46744C2.90869 4.932 2.30206 4.2756 1.82391 3.52864C1.78596 3.47025 1.73538 3.42112 1.6759 3.38489C1.61643 3.34865 1.54957 3.32623 1.48028 3.31928C1.41098 3.31233 1.34101 3.32103 1.27552 3.34473C1.21003 3.36844 1.15071 3.40655 1.10191 3.45624C0.0859128 4.48624 -0.420087 5.83404 0.431913 7.02124C-0.419887 8.20724 0.0857127 9.55504 1.10171 10.5852C1.15051 10.6349 1.20983 10.673 1.27532 10.6967C1.34081 10.7205 1.41078 10.7292 1.48008 10.7222C1.54937 10.7153 1.61623 10.6928 1.6757 10.6566C1.73518 10.6204 1.78576 10.5712 1.82371 10.5128C2.30279 9.7643 2.91096 9.10676 3.61991 8.57084C4.1307 9.16404 4.75723 9.6467 5.46111 9.98924C5.26341 10.2418 5.02363 10.4583 4.75231 10.6292C4.67863 10.6747 4.61864 10.7392 4.57873 10.816C4.53881 10.8928 4.52046 10.979 4.52563 11.0654C4.53081 11.1518 4.5593 11.2352 4.60809 11.3067C4.65688 11.3782 4.72414 11.4351 4.80271 11.4714C5.4527 11.7547 6.16694 11.8577 6.87048 11.7697C7.57401 11.6818 8.24089 11.406 8.80111 10.9714C9.19782 11.0179 9.59689 11.0413 9.99631 11.0416C11.4701 11.0416 12.9657 10.3854 14.3213 9.14364C14.9315 8.5875 15.4708 7.95822 15.9269 7.27004C15.9746 7.19373 15.9999 7.10554 15.9999 7.01554C15.9999 6.92554 15.9746 6.83735 15.9269 6.76104L15.9271 6.76024ZM7.24451 2.37384C7.35792 2.40628 7.47941 2.39462 7.58458 2.3412C7.68975 2.28778 7.77082 2.19656 7.81151 2.08584C7.90734 1.81429 8.08442 1.57881 8.31872 1.41139C8.55301 1.24397 8.83316 1.15272 9.12111 1.15004C10.0979 1.15004 10.7119 2.13184 10.4793 3.01364C8.75278 2.91446 7.03004 3.26473 5.47931 4.03024C5.32191 3.01904 6.21491 2.07584 7.24451 2.37384ZM1.39571 9.48284C1.1931 9.22297 1.04803 8.92301 0.970113 8.60284C0.921795 8.37744 0.934281 8.14325 1.00629 7.92426C1.0783 7.70528 1.20725 7.50938 1.37991 7.35664C1.46798 7.2669 1.51732 7.14618 1.51732 7.02044C1.51732 6.8947 1.46798 6.77399 1.37991 6.68424C1.20731 6.53163 1.07837 6.33588 1.0063 6.11705C0.934218 5.89822 0.921593 5.66416 0.969713 5.43884C1.04751 5.11826 1.19259 4.81789 1.39531 4.55764C1.88776 5.22409 2.47919 5.81134 3.14911 6.29904C2.98466 6.76567 2.98522 7.27458 3.15071 7.74084C2.48014 8.22872 1.88816 8.81631 1.39531 9.48324L1.39571 9.48284ZM13.6757 8.45324C12.4837 9.53904 11.2461 10.0894 9.99731 10.0894C9.87591 10.0894 9.75391 10.0866 9.63151 10.0818C10.0286 9.49225 10.308 8.83146 10.4543 8.13584C10.4827 8.01364 10.4617 7.88517 10.3959 7.77838C10.33 7.67159 10.2247 7.59513 10.1027 7.56564C10.0424 7.5518 9.97994 7.55003 9.91894 7.56043C9.85793 7.57084 9.79959 7.59321 9.74728 7.62627C9.69496 7.65932 9.64971 7.70241 9.61412 7.75303C9.57853 7.80366 9.55331 7.86083 9.53991 7.92124C9.25411 9.17704 8.63111 10.0794 7.73851 10.5306C7.19673 10.8024 6.58555 10.9043 5.98491 10.823C6.53521 10.1978 6.9477 9.46366 7.19551 8.66844C7.23064 8.54812 7.21691 8.4188 7.1573 8.30854C7.0977 8.19827 6.99702 8.11596 6.87711 8.07944C6.81776 8.06211 6.75556 8.05669 6.6941 8.06352C6.63264 8.07034 6.57314 8.08927 6.51904 8.1192C6.46493 8.14914 6.41729 8.18949 6.37885 8.23793C6.34042 8.28637 6.31196 8.34195 6.29511 8.40144C6.20906 8.67068 6.10109 8.93243 5.97231 9.18404C5.11231 8.76004 4.46891 8.23044 4.16311 7.69704C4.157 7.68303 4.14957 7.66964 4.14091 7.65704C4.02383 7.46011 3.96276 7.23495 3.96427 7.00585C3.96579 6.77674 4.02984 6.55241 4.14951 6.35704C5.07391 4.68904 8.63231 3.66744 10.7055 3.99924C12.3791 4.26724 13.9517 5.62584 14.9597 7.01464C14.5806 7.53597 14.1502 8.01798 13.6749 8.45344L13.6757 8.45324Z" fill="#171753"/>
<path d="M12.2582 5.60845C12.1938 5.56543 12.1199 5.53896 12.0428 5.53138C11.9657 5.52379 11.888 5.53533 11.8165 5.56497C11.7449 5.5946 11.6818 5.64142 11.6327 5.70128C11.5836 5.76114 11.55 5.83218 11.5349 5.90812C11.5198 5.98406 11.5237 6.06256 11.5462 6.13665C11.5687 6.21074 11.6091 6.27814 11.6638 6.33288C11.7186 6.38762 11.786 6.42801 11.8601 6.45047C11.9342 6.47293 12.0127 6.47677 12.0886 6.46165C12.1799 6.44338 12.2637 6.39848 12.3294 6.33263C12.3952 6.26678 12.44 6.18292 12.4581 6.09164C12.4763 6.00036 12.467 5.90575 12.4314 5.81975C12.3958 5.73376 12.3356 5.66023 12.2582 5.60845Z" fill="#171753"/>
</svg>
