<svg viewBox="0 0 24 24" fill="none" xmlns="http://www.w3.org/2000/svg">
<circle cx="12" cy="12" r="12" fill="#FFA54B"/>
<path d="M15.3047 12.1543C15.3047 11.5834 15.7615 11.1267 16.3324 11.1267C16.9034 11.1267 17.3601 11.5834 17.3601 12.1543C17.3601 12.7252 16.9034 13.1819 16.3324 13.1819C15.7615 13.1819 15.3047 12.7062 15.3047 12.1543Z" fill="url(#paint0_linear)"/>
<path d="M21.5093 14.6475C21.4712 14.971 21.4331 15.2945 21.338 15.599C21.0525 16.6837 20.4244 17.6732 19.3967 18.2251C17.9884 18.9482 16.3136 18.6818 14.9052 18.13C13.7443 18.9482 13.7443 18.9482 13.7443 18.9482C13.4778 19.1195 13.1352 18.8341 13.2875 18.5486C12.9639 18.6057 12.8688 18.3012 12.9639 18.0538C12.6975 18.2632 12.4691 17.8826 12.6214 17.6542C12.7165 17.502 12.8688 17.3307 12.983 17.1975C11.3462 16.265 9.86175 15.1232 8.35823 14.0005C9.21467 14.5333 12.6404 16.2841 13.4778 16.6456C14.3533 17.0262 15.2287 17.4068 16.1423 17.6161C16.9035 17.7874 17.8742 17.8826 18.5783 17.4449C19.2254 17.0643 19.4728 16.284 19.568 15.5799C19.7964 14.0576 19.2635 12.3449 18.4642 11.0508C17.6268 9.6997 16.2565 8.48179 14.6958 8.08216C14.1249 7.92992 13.5539 7.92992 13.021 8.02507C11.784 8.2344 10.6611 8.9956 9.80466 9.94709C8.56758 11.3172 7.71115 13.0109 6.93084 14.6855C6.39795 15.8083 5.65571 18.5486 3.90478 17.4639C3.12447 16.9691 2.62964 16.1128 2.28707 15.2755C1.90643 14.3811 1.63998 13.1822 1.8874 12.2117C2.42029 10.1755 5.27507 11.9833 6.2457 12.6303C6.1886 12.6113 3.90477 11.5646 3.06737 12.3829C2.68674 12.7635 2.70577 13.4486 2.76286 13.9434C2.87705 14.8378 3.31479 16.1699 4.15219 16.6646C5.23701 17.2926 5.78893 15.3326 6.07441 14.6475C6.5502 13.4867 7.00697 12.3258 7.53986 11.184C8.12985 9.92806 8.83403 8.69112 9.80466 7.68253C9.5953 7.43515 9.29079 7.13067 9.27176 6.80716C9.2337 6.44559 9.5953 6.04596 9.97594 6.23626C9.53821 5.74149 10.1282 4.99932 10.6992 5.28477C10.4327 4.86611 10.8514 4.33327 11.2891 4.3523C11.5366 4.3523 11.784 4.56163 11.9743 4.69484C12.4691 5.01835 12.9639 5.36089 13.4778 5.6844C18.2167 4.94223 21.928 10.3277 21.5093 14.6475Z" fill="url(#paint1_linear)"/>
<defs>
<linearGradient id="paint0_linear" x1="15.3047" y1="12.1543" x2="17.3601" y2="12.1543" gradientUnits="userSpaceOnUse">
<stop stop-color="#030332"/>
<stop offset="1" stop-color="#171753"/>
</linearGradient>
<linearGradient id="paint1_linear" x1="1.7915" y1="11.6759" x2="21.5415" y2="11.6759" gradientUnits="userSpaceOnUse">
<stop stop-color="#030332"/>
<stop offset="1" stop-color="#171753"/>
</linearGradient>
</defs>
</svg>
