<svg viewBox="0 0 216 216" fill="none" xmlns="http://www.w3.org/2000/svg">
<circle cx="108" cy="108" r="108" fill="url(#paint0_linear)"/>
<path d="M134.475 108.96C134.475 104.335 138.175 100.635 142.801 100.635C147.426 100.635 151.127 104.335 151.127 108.96C151.127 113.585 147.426 117.285 142.801 117.285C138.175 117.285 134.475 113.431 134.475 108.96Z" fill="white"/>
<path d="M184.739 129.157C184.43 131.778 184.122 134.399 183.351 136.866C181.038 145.653 175.95 153.67 167.624 158.141C156.215 163.999 142.647 161.841 131.237 157.37C121.832 163.999 121.832 163.999 121.832 163.999C119.674 165.387 116.899 163.074 118.132 160.762C115.511 161.224 114.74 158.757 115.511 156.753C113.352 158.449 111.502 155.366 112.736 153.516C113.507 152.282 114.74 150.895 115.665 149.816C102.405 142.262 90.3792 133.012 78.1988 123.916C85.137 128.233 112.89 142.416 119.674 145.345C126.766 148.428 133.859 151.512 141.259 153.207C147.427 154.595 155.29 155.366 160.995 151.82C166.237 148.737 168.241 142.416 169.012 136.712C170.862 124.378 166.545 110.503 160.07 100.02C153.286 89.0742 142.184 79.2076 129.541 75.9701C124.916 74.7368 120.291 74.7368 115.973 75.5076C105.952 77.2034 96.8549 83.3701 89.9167 91.0784C79.8948 102.178 72.9566 115.899 66.6351 129.466C62.318 138.562 56.3049 160.762 42.1202 151.974C35.7987 147.966 31.79 141.028 29.0147 134.245C25.931 126.999 23.7725 117.287 25.7769 109.424C30.094 92.9284 53.2213 107.574 61.0846 112.816C60.622 112.662 42.1202 104.183 35.3361 110.812C32.2525 113.895 32.4067 119.445 32.8692 123.453C33.7943 130.699 37.3405 141.491 44.1245 145.499C52.9129 150.587 57.3842 134.707 59.6969 129.157C63.5515 119.753 67.2519 110.349 71.569 101.099C76.3486 90.9243 82.0534 80.9034 89.9167 72.7326C88.2207 70.7285 85.7537 68.2618 85.5996 65.641C85.2912 62.7118 88.2206 59.4743 91.3043 61.016C87.7581 57.0077 92.5377 50.9952 97.1632 53.3077C95.0047 49.916 98.3967 45.5994 101.943 45.7535C103.947 45.7535 105.952 47.4493 107.493 48.5285C111.502 51.1493 115.511 53.9243 119.674 56.5452C158.065 50.5327 188.131 94.1617 184.739 129.157Z" fill="white"/>
<defs>
<linearGradient id="paint0_linear" x1="-8.04663e-07" y1="108" x2="216" y2="108" gradientUnits="userSpaceOnUse">
<stop stop-color="#030332"/>
<stop offset="1" stop-color="#171753"/>
</linearGradient>
</defs>
</svg>
