<svg width="19" height="19" viewBox="0 0 19 19" fill="none" xmlns="http://www.w3.org/2000/svg">
<path d="M10.217 14.0691L6.94841 17.27C5.88957 18.3069 4.14018 18.3069 3.0353 17.27L1.74628 16.0077C0.687438 14.9708 0.687438 13.2576 1.74628 12.1756L6.62615 7.39682C7.68499 6.35991 9.43438 6.35991 10.5393 7.39682L11.8283 8.65915C12.0585 8.88457 12.2426 9.15507 12.3807 9.42556" stroke="#84D7AC" stroke-miterlimit="10" stroke-linejoin="round"/>
<path d="M8.83022 4.86774L12.0988 1.67941C13.1577 0.646576 14.907 0.646576 16.0119 1.67941L17.3009 2.93678C18.3598 3.96962 18.3598 5.67605 17.3009 6.75379L12.4211 11.5587C11.3622 12.5916 9.61284 12.5916 8.50797 11.5587L7.21894 10.3014C6.98876 10.0768 6.80461 9.8074 6.6665 9.53796" stroke="#84D7AC" stroke-miterlimit="10" stroke-linejoin="round"/>
</svg>
