<svg width="94" height="69" viewBox="0 0 94 69" fill="none" xmlns="http://www.w3.org/2000/svg">
<path d="M63.9845 36.9839C63.9845 34.3189 66.1167 32.1869 68.782 32.1869C71.4473 32.1869 73.5796 34.3189 73.5796 36.9839C73.5796 39.6489 71.4473 41.781 68.782 41.781C66.1167 41.781 63.9845 39.5601 63.9845 36.9839Z" fill="#171753"/>
<path d="M92.9472 48.6218C92.7695 50.132 92.5918 51.6422 92.1476 53.0635C90.815 58.1271 87.8832 62.7464 83.0856 65.3226C76.5112 68.6983 68.693 67.4546 62.1186 64.8785C56.6992 68.6983 56.6992 68.6983 56.6992 68.6983C55.4554 69.4978 53.8562 68.1653 54.5669 66.8328C53.0566 67.0993 52.6124 65.678 53.0566 64.5231C51.8128 65.5003 50.7467 63.7236 51.4574 62.6576C51.9017 61.9469 52.6124 61.1474 53.1455 60.5256C45.5049 56.1727 38.5752 50.8427 31.5566 45.6015C35.5545 48.0888 51.5463 56.2616 55.4554 57.9494C59.5422 59.7261 63.629 61.5028 67.8934 62.4799C71.4472 63.2795 75.9782 63.7236 79.2654 61.6804C82.286 59.9037 83.441 56.2616 83.8852 52.9747C84.9513 45.868 82.4637 37.8729 78.7323 31.8322C74.8232 25.525 68.4265 19.8396 61.1413 17.9741C58.476 17.2634 55.8108 17.2634 53.3231 17.7076C47.5483 18.6848 42.3066 22.2381 38.3086 26.6798C32.5338 33.0759 28.5359 40.9821 24.8933 48.7995C22.4057 54.0407 18.9408 66.8328 10.7672 61.7693C7.12467 59.4596 4.81475 55.4621 3.21557 51.5534C1.43871 47.3782 0.194899 41.7816 1.34986 37.2511C3.83747 27.7458 17.164 36.1851 21.695 39.2054C21.4284 39.1166 10.7672 34.2307 6.85814 38.0506C5.08128 39.8273 5.17012 43.0253 5.43665 45.335C5.96971 49.5102 8.0131 55.7286 11.9222 58.0382C16.9863 60.9698 19.5627 51.8199 20.8954 48.6218C23.1164 43.203 25.2487 37.7841 27.7363 32.454C30.4904 26.591 33.7776 20.8168 38.3086 16.1086C37.3314 14.9537 35.9099 13.5324 35.821 12.0222C35.6433 10.3344 37.3314 8.46885 39.1082 9.35719C37.0648 7.0475 39.819 3.58297 42.4843 4.91549C41.2405 2.96114 43.195 0.473782 45.2384 0.562616C46.3934 0.562616 47.5483 1.53979 48.4368 2.16163C50.7467 3.6718 53.0566 5.27082 55.4554 6.781C77.5773 3.31647 94.9018 28.4565 92.9472 48.6218Z" fill="#171753"/>
</svg>
