<svg width="16" height="16" viewBox="0 0 16 16" fill="none" xmlns="http://www.w3.org/2000/svg">
<path fill-rule="evenodd" clip-rule="evenodd" d="M8.00006 3.1834C5.33889 3.1834 3.1834 5.3389 3.1834 8.00007C3.1834 10.6612 5.33889 12.8167 8.00006 12.8167C10.6612 12.8167 12.8167 10.6612 12.8167 8.00007C12.8167 5.3389 10.6612 3.1834 8.00006 3.1834ZM1.9834 8.00007C1.9834 4.67615 4.67615 1.9834 8.00006 1.9834C11.324 1.9834 14.0167 4.67615 14.0167 8.00007C14.0167 11.324 11.324 14.0167 8.00006 14.0167C4.67615 14.0167 1.9834 11.324 1.9834 8.00007Z" fill="#353570"/>
<path fill-rule="evenodd" clip-rule="evenodd" d="M5.74239 5.74251C5.9767 5.50819 6.3566 5.50819 6.59091 5.74251L10.2576 9.40918C10.4919 9.64349 10.4919 10.0234 10.2576 10.2577C10.0233 10.492 9.64337 10.492 9.40905 10.2577L5.74239 6.59104C5.50807 6.35672 5.50807 5.97682 5.74239 5.74251Z" fill="#353570"/>
<path fill-rule="evenodd" clip-rule="evenodd" d="M10.2576 5.74251C10.4919 5.97682 10.4919 6.35672 10.2576 6.59104L6.59091 10.2577C6.3566 10.492 5.9767 10.492 5.74239 10.2577C5.50807 10.0234 5.50807 9.64349 5.74239 9.40918L9.40905 5.74251C9.64337 5.50819 10.0233 5.50819 10.2576 5.74251Z" fill="#353570"/>
</svg>
