<svg width="31" height="31" viewBox="0 0 31 31" fill="none" xmlns="http://www.w3.org/2000/svg">
<circle cx="15.5" cy="15.5" r="15.5" fill="#353570"/>
<path d="M19.2997 15.6379C19.2997 14.9741 19.8308 14.4431 20.4947 14.4431C21.1585 14.4431 21.6896 14.9741 21.6896 15.6379C21.6896 16.3017 21.1585 16.8327 20.4947 16.8327C19.8308 16.8327 19.2997 16.2795 19.2997 15.6379Z" fill="#BEF0ED"/>
<path d="M26.5134 18.5365C26.4692 18.9126 26.4249 19.2888 26.3143 19.6428C25.9823 20.904 25.2521 22.0545 24.0572 22.6961C22.4197 23.5369 20.4725 23.2272 18.835 22.5855C17.4852 23.5369 17.4852 23.5369 17.4852 23.5369C17.1754 23.7361 16.7771 23.4042 16.9541 23.0723C16.5779 23.1387 16.4673 22.7846 16.5779 22.497C16.2682 22.7404 16.0026 22.2979 16.1796 22.0324C16.2903 21.8554 16.4673 21.6562 16.6001 21.5014C14.6971 20.4172 12.9711 19.0897 11.223 17.7842C12.2187 18.4038 16.2018 20.4393 17.1754 20.8597C18.1933 21.3022 19.2112 21.7447 20.2733 21.9881C21.1584 22.1873 22.287 22.2979 23.1057 21.789C23.8581 21.3465 24.1457 20.4393 24.2564 19.6207C24.5219 17.8506 23.9023 15.8593 22.9729 14.3547C21.9993 12.7838 20.4061 11.3678 18.5916 10.9031C17.9278 10.7261 17.2639 10.7261 16.6443 10.8368C15.206 11.0801 13.9005 11.9652 12.9047 13.0715C11.4664 14.6645 10.4706 16.6337 9.56336 18.5808C8.94378 19.8862 8.08079 23.0723 6.04501 21.8111C5.13776 21.2358 4.56244 20.2402 4.16413 19.2667C3.72157 18.2267 3.41178 16.8328 3.69944 15.7044C4.31903 13.337 7.63823 15.4389 8.76676 16.1912C8.70037 16.1691 6.04501 14.9521 5.07138 15.9035C4.62882 16.3461 4.65095 17.1426 4.71733 17.7179C4.8501 18.7578 5.35904 20.3066 6.33268 20.8818C7.59397 21.612 8.23568 19.333 8.56761 18.5365C9.1208 17.1868 9.65188 15.8372 10.2715 14.5096C10.9574 13.0493 11.7762 11.6112 12.9047 10.4385C12.6613 10.1509 12.3072 9.79685 12.2851 9.42071C12.2409 9.00032 12.6613 8.53568 13.1038 8.75694C12.5949 8.18167 13.2809 7.31877 13.9447 7.65065C13.6349 7.16389 14.1217 6.54437 14.6307 6.56649C14.9183 6.56649 15.206 6.80988 15.4273 6.96476C16.0026 7.34089 16.5779 7.73916 17.1754 8.11529C22.6853 7.25239 27.0002 13.514 26.5134 18.5365Z" fill="#BEF0ED"/>
</svg>
