<svg width="24" height="25" viewBox="0 0 24 25" fill="none" xmlns="http://www.w3.org/2000/svg">
<path fill-rule="evenodd" clip-rule="evenodd" d="M10.9651 15.0253C10.9565 15.0637 10.9501 15.1125 10.9501 15.17V18.9796C10.9501 19.0372 10.9565 19.0859 10.9651 19.1243H19.2169C19.2254 19.0859 19.2319 19.0372 19.2319 18.9796V15.17C19.2319 15.1125 19.2254 15.0637 19.2169 15.0253H10.9651ZM10.1021 14.4838C10.1924 14.3092 10.4067 14.0232 10.783 14.0232H19.399C19.7752 14.0232 19.9896 14.3092 20.0799 14.4838C20.1839 14.685 20.2339 14.9284 20.2339 15.17V18.9796C20.2339 19.2212 20.1839 19.4646 20.0799 19.6659C19.9896 19.8404 19.7752 20.1264 19.399 20.1264H10.783C10.4067 20.1264 10.1924 19.8404 10.1021 19.6659C9.99803 19.4646 9.948 19.2212 9.948 18.9796V15.17C9.948 14.9284 9.99803 14.685 10.1021 14.4838Z" fill="#373765"/>
<path fill-rule="evenodd" clip-rule="evenodd" d="M4.77443 11.0393C4.76013 11.468 4.76031 12.144 4.89172 12.8629C5.03901 13.6687 5.34199 14.4768 5.92264 15.0574L5.92653 15.0613C6.633 15.7835 7.69651 16.0778 8.65316 16.1748C9.12244 16.2224 9.54477 16.2203 9.84965 16.2062C9.87803 16.2049 9.90534 16.2034 9.93155 16.202C9.93305 16.1756 9.93447 16.1481 9.93579 16.1195C9.94992 15.814 9.95202 15.3905 9.90441 14.9187C9.80745 13.9579 9.51296 12.8821 8.78704 12.1562C8.20649 11.5756 7.39873 11.2729 6.59507 11.1303C5.87085 11.0018 5.19104 11.0108 4.77443 11.0393ZM10.3937 16.6641C10.8899 16.7333 10.89 16.7332 10.89 16.733L10.8902 16.7316L10.8906 16.7287L10.8918 16.7194L10.8958 16.6876C10.899 16.6606 10.9033 16.6221 10.9081 16.5733C10.9176 16.4759 10.9289 16.337 10.9368 16.1658C10.9526 15.8243 10.9551 15.3501 10.9014 14.8181C10.7958 13.7714 10.4641 12.4161 9.49562 11.4476C8.71328 10.6653 7.67929 10.3049 6.77013 10.1436C5.86791 9.98357 5.03867 10.0105 4.58457 10.0489C4.14018 10.0624 3.78505 10.4218 3.77819 10.8678C3.75937 11.3056 3.74033 12.137 3.90596 13.0431C4.07163 13.9493 4.43122 14.982 5.21211 15.764C6.1631 16.7348 7.51114 17.0663 8.55208 17.1718C9.08194 17.2255 9.55516 17.223 9.89604 17.2072C10.0669 17.1993 10.2057 17.188 10.3031 17.1784C10.3518 17.1737 10.3902 17.1694 10.4172 17.1661L10.4491 17.1622L10.4583 17.161L10.4612 17.1606L10.4622 17.1604C10.4624 17.1604 10.463 17.1603 10.3937 16.6641ZM10.3937 16.6641L10.4622 17.1604L10.8377 17.108L10.89 16.733L10.3937 16.6641Z" fill="#373765"/>
<path fill-rule="evenodd" clip-rule="evenodd" d="M9.90895 4.10765C10.2344 3.86353 10.6636 3.86353 10.9891 4.10765L11.005 4.1196L11.0199 4.13278C11.3512 4.42507 11.9548 5.00863 12.4792 5.77798C13.0002 6.54254 13.4732 7.53498 13.4732 8.63399C13.4732 10.0023 12.7525 11.1916 12.0895 12.0036C11.7526 12.4162 11.4167 12.7483 11.1651 12.9774C11.0389 13.0923 10.9331 13.1821 10.8577 13.244C10.82 13.2749 10.7899 13.2989 10.7685 13.3157L10.7433 13.3353L10.7359 13.341L10.7335 13.3427L10.7327 13.3434C10.7326 13.3435 10.7321 13.3438 10.4306 12.9437C10.129 13.3438 10.1289 13.3437 10.1288 13.3436L10.1276 13.3427L10.1253 13.341L10.1179 13.3353L10.0927 13.3157C10.0713 13.2989 10.0412 13.2749 10.0035 13.244C9.92809 13.1821 9.82226 13.0923 9.69611 12.9774C9.44444 12.7483 9.10861 12.4162 8.77169 12.0036C8.10867 11.1916 7.38794 10.0023 7.38794 8.63399C7.38794 7.53377 7.86187 6.54974 8.38869 5.78876C8.91848 5.02351 9.53182 4.44056 9.8767 4.134L9.89228 4.12015L9.90895 4.10765ZM10.4306 12.9437L10.1288 13.3436L10.4306 13.5711L10.7327 13.3434L10.4306 12.9437ZM10.4306 12.2904C10.4498 12.2732 10.4698 12.2553 10.4904 12.2365C10.7152 12.0317 11.0148 11.7353 11.3133 11.3698C11.9211 10.6255 12.4711 9.65992 12.4711 8.63399C12.4711 7.81758 12.1154 7.02353 11.6511 6.34233C11.2347 5.73137 10.7553 5.24681 10.4491 4.96699C10.1244 5.26306 9.63461 5.7496 9.2126 6.35916C8.74489 7.03475 8.39003 7.81879 8.39003 8.63399C8.39003 9.65992 8.9401 10.6255 9.54788 11.3698C9.84637 11.7353 10.1459 12.0317 10.3708 12.2365C10.3914 12.2553 10.4114 12.2732 10.4306 12.2904Z" fill="#171753"/>
<path fill-rule="evenodd" clip-rule="evenodd" d="M16.3049 8.42779C16.7532 8.4371 17.1127 8.79811 17.1196 9.24698C17.1384 9.6847 17.1575 10.5161 16.9918 11.4222C16.826 12.3292 16.466 13.3629 15.6837 14.1451L15.6719 14.1569L15.6594 14.1679C15.3324 14.454 14.9701 14.6946 14.6151 14.8919L14.5016 14.9549H11.2039C11.0803 14.9549 10.9813 15.0399 10.9564 15.1519L10.3777 17.756L9.97203 15.1194L10.4672 15.0432C9.97203 15.1194 9.97204 15.1195 9.97203 15.1194L9.97171 15.1173L9.97119 15.1138L9.96958 15.1027L9.96439 15.0645C9.96019 15.0321 9.95463 14.986 9.94868 14.9281C9.93679 14.8123 9.92326 14.6482 9.91589 14.4494C9.90124 14.0537 9.91059 13.5106 10.0103 12.9322L10.0426 12.7448L10.1911 12.6261C10.3564 12.4938 10.8343 12.086 11.3116 11.4959C11.7922 10.9018 12.245 10.156 12.407 9.34607L12.4572 9.09507L12.69 8.98865C14.09 8.34867 15.6596 8.39041 16.3049 8.42779ZM10.9145 13.9859C11.007 13.9643 11.1038 13.9528 11.2039 13.9528H14.2392C14.5032 13.7988 14.7591 13.6223 14.9868 13.4248C15.5599 12.8451 15.8598 12.0424 16.0061 11.242C16.1371 10.525 16.1377 9.85066 16.1235 9.4218C15.5044 9.39356 14.3647 9.40011 13.3287 9.80594C13.0871 10.7265 12.5774 11.5245 12.0908 12.1261C11.6589 12.66 11.2274 13.0611 10.9701 13.2815C10.9359 13.5293 10.9197 13.7685 10.9145 13.9859Z" fill="#171753"/>
<path fill-rule="evenodd" clip-rule="evenodd" d="M12.4165 17.0749C12.4165 16.7982 12.6408 16.5739 12.9175 16.5739H17.2645C17.5412 16.5739 17.7655 16.7982 17.7655 17.0749C17.7655 17.3516 17.5412 17.5759 17.2645 17.5759H12.9175C12.6408 17.5759 12.4165 17.3516 12.4165 17.0749Z" fill="#171753"/>
</svg>
