<svg width="24" height="25" viewBox="0 0 24 25" fill="none" xmlns="http://www.w3.org/2000/svg">
<path fill-rule="evenodd" clip-rule="evenodd" d="M11.9912 5.099C7.77854 5.099 4.36621 8.51133 4.36621 12.724C4.36621 16.9367 7.77854 20.349 11.9912 20.349C16.2039 20.349 19.6162 16.9367 19.6162 12.724C19.6162 8.51133 16.2039 5.099 11.9912 5.099ZM3.36621 12.724C3.36621 7.95905 7.22625 4.099 11.9912 4.099C16.7562 4.099 20.6162 7.95905 20.6162 12.724C20.6162 17.489 16.7562 21.349 11.9912 21.349C7.22625 21.349 3.36621 17.489 3.36621 12.724Z" fill="white"/>
<path fill-rule="evenodd" clip-rule="evenodd" d="M7.40894 12.8333C7.40894 12.4467 7.72234 12.1333 8.10894 12.1333H15.8589C16.2455 12.1333 16.5589 12.4467 16.5589 12.8333C16.5589 13.2199 16.2455 13.5333 15.8589 13.5333H8.10894C7.72234 13.5333 7.40894 13.2199 7.40894 12.8333Z" fill="white"/>
<path fill-rule="evenodd" clip-rule="evenodd" d="M12 8.24207C12.3866 8.24207 12.7 8.55547 12.7 8.94207V16.6921C12.7 17.0787 12.3866 17.3921 12 17.3921C11.6134 17.3921 11.3 17.0787 11.3 16.6921V8.94207C11.3 8.55547 11.6134 8.24207 12 8.24207Z" fill="white"/>
</svg>
