<svg width="286" height="177" viewBox="0 0 286 177" fill="none" xmlns="http://www.w3.org/2000/svg">
<g opacity="0.6" clip-path="url(#clip0_6405_39116)">
<path opacity="0.3" d="M120.184 74.424C178.387 74.424 225.584 120.3 225.584 176.874C225.584 177.08 225.584 177.286 225.584 177.286L173.307 177.286C173.307 177.08 173.307 176.874 173.307 176.874C173.307 148.485 149.603 125.444 120.396 125.444C91.189 125.444 67.4848 148.485 67.4848 176.874C67.4848 177.08 67.4848 177.286 67.4848 177.286L15.2086 177.286C15.2086 177.08 15.2086 176.874 15.2086 176.874C14.7853 120.3 61.982 74.424 120.184 74.424Z" fill="#373765"/>
<path d="M268.054 88.1759C267.042 88.1759 266.222 87.273 266.222 86.1593C266.222 85.0457 267.042 84.1428 268.054 84.1428C269.065 84.1428 269.885 85.0457 269.885 86.1593C269.885 87.273 269.065 88.1759 268.054 88.1759Z" fill="#8585BC"/>
<path d="M249.458 86.1593C249.458 87.2452 250.303 88.1759 251.289 88.1759C252.275 88.1759 253.121 87.2452 253.121 86.1593C253.121 85.0735 252.275 84.1428 251.289 84.1428C250.303 84.1428 249.458 85.0735 249.458 86.1593Z" fill="#8585BC"/>
<path d="M232.693 86.1593C232.693 87.2452 233.538 88.1759 234.525 88.1759C235.511 88.1759 236.356 87.2452 236.356 86.1593C236.356 85.0735 235.511 84.1428 234.525 84.1428C233.538 84.1428 232.693 85.0735 232.693 86.1593Z" fill="#8585BC"/>
<path d="M217.62 88.1759C216.608 88.1759 215.788 87.273 215.788 86.1593C215.788 85.0457 216.608 84.1428 217.62 84.1428C218.631 84.1428 219.451 85.0457 219.451 86.1593C219.451 87.273 218.631 88.1759 217.62 88.1759Z" fill="#8585BC"/>
<path d="M199.025 86.1593C199.025 87.2452 199.871 88.1759 200.857 88.1759C201.843 88.1759 202.688 87.2452 202.688 86.1593C202.688 85.0735 201.843 84.1428 200.857 84.1428C199.871 84.1428 199.025 85.0735 199.025 86.1593Z" fill="#8585BC"/>
<path d="M268.054 107.566C267.042 107.566 266.222 106.663 266.222 105.549C266.222 104.435 267.042 103.533 268.054 103.533C269.065 103.533 269.885 104.435 269.885 105.549C269.885 106.663 269.065 107.566 268.054 107.566Z" fill="#8585BC"/>
<path d="M249.458 105.549C249.458 106.635 250.303 107.566 251.289 107.566C252.275 107.566 253.121 106.635 253.121 105.549C253.121 104.463 252.275 103.533 251.289 103.533C250.303 103.688 249.458 104.463 249.458 105.549Z" fill="#8585BC"/>
<path d="M232.693 105.549C232.693 106.635 233.538 107.566 234.525 107.566C235.511 107.566 236.356 106.635 236.356 105.549C236.356 104.463 235.511 103.533 234.525 103.533C233.538 103.688 232.693 104.463 232.693 105.549Z" fill="#8585BC"/>
<path d="M217.62 107.566C216.608 107.566 215.788 106.663 215.788 105.549C215.788 104.435 216.608 103.533 217.62 103.533C218.631 103.533 219.451 104.435 219.451 105.549C219.451 106.663 218.631 107.566 217.62 107.566Z" fill="#8585BC"/>
<path d="M199.025 105.549C199.025 106.635 199.871 107.566 200.857 107.566C201.843 107.566 202.688 106.635 202.688 105.549C202.688 104.463 201.843 103.533 200.857 103.533C199.871 103.688 199.025 104.463 199.025 105.549Z" fill="#8585BC"/>
<path d="M266.363 125.094C266.363 126.18 267.208 127.11 268.194 127.11C269.181 127.11 270.026 126.18 270.026 125.094C270.026 124.008 269.181 123.077 268.194 123.077C267.067 123.077 266.363 124.008 266.363 125.094Z" fill="#8585BC"/>
<path d="M249.458 125.094C249.458 126.18 250.303 127.11 251.289 127.11C252.276 127.11 253.121 126.18 253.121 125.094C253.121 124.008 252.276 123.077 251.289 123.077C250.303 123.077 249.458 124.008 249.458 125.094Z" fill="#8585BC"/>
<path d="M232.693 125.094C232.693 126.18 233.539 127.11 234.525 127.11C235.511 127.11 236.356 126.18 236.356 125.094C236.356 124.008 235.511 123.077 234.525 123.077C233.539 123.077 232.693 124.008 232.693 125.094Z" fill="#8585BC"/>
<path d="M215.928 125.094C215.928 126.18 216.774 127.11 217.76 127.11C218.746 127.11 219.591 126.18 219.591 125.094C219.591 124.008 218.746 123.077 217.76 123.077C216.774 123.077 215.928 124.008 215.928 125.094Z" fill="#8585BC"/>
<path d="M199.023 125.094C199.023 126.18 199.869 127.11 200.855 127.11C201.841 127.11 202.686 126.18 202.686 125.094C202.686 124.008 201.841 123.077 200.855 123.077C199.869 123.077 199.023 124.008 199.023 125.094Z" fill="#8585BC"/>
<path d="M268.054 146.655C267.042 146.655 266.222 145.752 266.222 144.639C266.222 143.525 267.042 142.622 268.054 142.622C269.065 142.622 269.885 143.525 269.885 144.639C269.885 145.752 269.065 146.655 268.054 146.655Z" fill="#8585BC"/>
<path d="M249.458 144.639C249.458 145.725 250.303 146.655 251.289 146.655C252.275 146.655 253.121 145.725 253.121 144.639C253.121 143.553 252.275 142.622 251.289 142.622C250.303 142.622 249.458 143.553 249.458 144.639Z" fill="#8585BC"/>
<path d="M232.693 144.639C232.693 145.725 233.538 146.655 234.525 146.655C235.511 146.655 236.356 145.725 236.356 144.639C236.356 143.553 235.511 142.622 234.525 142.622C233.538 142.622 232.693 143.553 232.693 144.639Z" fill="#8585BC"/>
<path d="M217.62 146.655C216.608 146.655 215.788 145.752 215.788 144.639C215.788 143.525 216.608 142.622 217.62 142.622C218.631 142.622 219.451 143.525 219.451 144.639C219.451 145.752 218.631 146.655 217.62 146.655Z" fill="#8585BC"/>
<path d="M199.025 144.639C199.025 145.725 199.87 146.655 200.857 146.655C201.843 146.655 202.688 145.725 202.688 144.639C202.688 143.553 201.843 142.622 200.857 142.622C199.87 142.622 199.025 143.553 199.025 144.639Z" fill="#8585BC"/>
</g>
<defs>
<clipPath id="clip0_6405_39116">
<rect width="285" height="176.714" fill="white" transform="matrix(-1 1.98062e-07 1.54351e-07 1 285.116 0.286255)"/>
</clipPath>
</defs>
</svg>
