<svg width="285" height="155" viewBox="0 0 285 155" fill="none" xmlns="http://www.w3.org/2000/svg">
<g opacity="0.6" clip-path="url(#clip0_6405_39089)">
<path opacity="0.3" d="M167.588 113.312C102.493 113.312 49.7061 62.002 49.7061 -1.27232C49.7061 -1.50241 49.7061 -1.73251 49.7061 -1.73251L108.174 -1.73251C108.174 -1.50242 108.174 -1.27232 108.174 -1.27232C108.174 30.4799 134.685 56.2498 167.351 56.2498C200.018 56.2498 226.529 30.4799 226.529 -1.27231C226.529 -1.50239 226.529 -1.7325 226.529 -1.7325L284.997 -1.73249C284.997 -1.5024 284.997 -1.2723 284.997 -1.2723C285.47 62.002 232.684 113.312 167.588 113.312Z" fill="#373765"/>
<path d="M128.841 139.645C129.972 139.645 130.889 140.536 130.889 141.636C130.889 142.735 129.972 143.627 128.841 143.627C127.71 143.627 126.793 142.735 126.793 141.636C126.793 140.536 127.71 139.645 128.841 139.645Z" fill="#8585BC"/>
<path d="M149.64 141.636C149.64 140.564 148.694 139.645 147.591 139.645C146.488 139.645 145.543 140.564 145.543 141.636C145.543 142.708 146.488 143.627 147.591 143.627C148.694 143.627 149.64 142.708 149.64 141.636Z" fill="#8585BC"/>
<path d="M168.39 141.636C168.39 140.564 167.444 139.645 166.342 139.645C165.239 139.645 164.293 140.564 164.293 141.636C164.293 142.708 165.239 143.627 166.342 143.627C167.444 143.627 168.39 142.708 168.39 141.636Z" fill="#8585BC"/>
<path d="M185.249 139.645C186.38 139.645 187.297 140.536 187.297 141.636C187.297 142.735 186.38 143.627 185.249 143.627C184.117 143.627 183.2 142.735 183.2 141.636C183.2 140.536 184.117 139.645 185.249 139.645Z" fill="#8585BC"/>
<path d="M206.045 141.636C206.045 140.564 205.1 139.645 203.997 139.645C202.894 139.645 201.948 140.564 201.948 141.636C201.948 142.708 202.894 143.627 203.997 143.627C205.1 143.627 206.045 142.708 206.045 141.636Z" fill="#8585BC"/>
<path d="M128.841 120.5C129.972 120.5 130.889 121.392 130.889 122.491C130.889 123.591 129.972 124.482 128.841 124.482C127.71 124.482 126.793 123.591 126.793 122.491C126.793 121.392 127.71 120.5 128.841 120.5Z" fill="#8585BC"/>
<path d="M149.64 122.491C149.64 121.419 148.694 120.5 147.591 120.5C146.488 120.5 145.543 121.419 145.543 122.491C145.543 123.564 146.488 124.482 147.591 124.482C148.694 124.329 149.64 123.564 149.64 122.491Z" fill="#8585BC"/>
<path d="M168.39 122.491C168.39 121.419 167.444 120.5 166.342 120.5C165.239 120.5 164.293 121.419 164.293 122.491C164.293 123.564 165.239 124.482 166.342 124.482C167.444 124.329 168.39 123.564 168.39 122.491Z" fill="#8585BC"/>
<path d="M185.249 120.5C186.38 120.5 187.297 121.392 187.297 122.491C187.297 123.591 186.38 124.482 185.249 124.482C184.117 124.482 183.2 123.591 183.2 122.491C183.2 121.392 184.117 120.5 185.249 120.5Z" fill="#8585BC"/>
<path d="M206.045 122.491C206.045 121.419 205.1 120.5 203.997 120.5C202.894 120.5 201.948 121.419 201.948 122.491C201.948 123.564 202.894 124.482 203.997 124.482C205.1 124.329 206.045 123.564 206.045 122.491Z" fill="#8585BC"/>
<path d="M130.732 103.194C130.732 102.122 129.787 101.203 128.684 101.203C127.581 101.203 126.635 102.122 126.635 103.194C126.635 104.266 127.581 105.185 128.684 105.185C129.944 105.185 130.732 104.266 130.732 103.194Z" fill="#8585BC"/>
<path d="M149.639 103.194C149.639 102.122 148.694 101.203 147.591 101.203C146.488 101.203 145.543 102.122 145.543 103.194C145.543 104.266 146.488 105.185 147.591 105.185C148.694 105.185 149.639 104.266 149.639 103.194Z" fill="#8585BC"/>
<path d="M168.39 103.194C168.39 102.122 167.444 101.203 166.341 101.203C165.238 101.203 164.293 102.122 164.293 103.194C164.293 104.266 165.238 105.185 166.341 105.185C167.444 105.185 168.39 104.266 168.39 103.194Z" fill="#8585BC"/>
<path d="M187.14 103.194C187.14 102.122 186.195 101.203 185.092 101.203C183.989 101.203 183.043 102.122 183.043 103.194C183.043 104.266 183.989 105.185 185.092 105.185C186.195 105.185 187.14 104.266 187.14 103.194Z" fill="#8585BC"/>
<path d="M206.047 103.194C206.047 102.122 205.102 101.203 203.999 101.203C202.896 101.203 201.951 102.122 201.951 103.194C201.951 104.266 202.896 105.185 203.999 105.185C205.102 105.185 206.047 104.266 206.047 103.194Z" fill="#8585BC"/>
<path d="M128.841 81.9057C129.972 81.9057 130.889 82.7971 130.889 83.8967C130.889 84.9963 129.972 85.8877 128.841 85.8877C127.71 85.8877 126.793 84.9963 126.793 83.8967C126.793 82.7971 127.71 81.9057 128.841 81.9057Z" fill="#8585BC"/>
<path d="M149.64 83.8967C149.64 82.8246 148.694 81.9057 147.591 81.9057C146.488 81.9057 145.543 82.8246 145.543 83.8967C145.543 84.9688 146.488 85.8877 147.591 85.8877C148.694 85.8877 149.64 84.9688 149.64 83.8967Z" fill="#8585BC"/>
<path d="M168.39 83.8967C168.39 82.8246 167.444 81.9057 166.342 81.9057C165.239 81.9057 164.293 82.8246 164.293 83.8967C164.293 84.9688 165.239 85.8877 166.342 85.8877C167.444 85.8877 168.39 84.9688 168.39 83.8967Z" fill="#8585BC"/>
<path d="M185.249 81.9057C186.38 81.9057 187.297 82.7971 187.297 83.8967C187.297 84.9963 186.38 85.8877 185.249 85.8877C184.118 85.8877 183.2 84.9963 183.2 83.8967C183.2 82.7971 184.118 81.9057 185.249 81.9057Z" fill="#8585BC"/>
<path d="M206.045 83.8967C206.045 82.8246 205.1 81.9057 203.997 81.9057C202.894 81.9057 201.948 82.8246 201.948 83.8967C201.948 84.9688 202.894 85.8877 203.997 85.8877C205.1 85.8877 206.045 84.9688 206.045 83.8967Z" fill="#8585BC"/>
</g>
<defs>
<clipPath id="clip0_6405_39089">
<rect width="285" height="154" fill="white" transform="matrix(1 9.90308e-08 7.71754e-08 -1 0 154.267)"/>
</clipPath>
</defs>
</svg>
