<svg width="126" height="93" viewBox="0 0 126 93" fill="none" xmlns="http://www.w3.org/2000/svg">
<path d="M85.9221 49.4242C85.9221 45.8275 88.7998 42.9501 92.3968 42.9501C95.9939 42.9501 98.8716 45.8275 98.8716 49.4242C98.8716 53.0209 95.9939 55.8983 92.3968 55.8983C88.7998 55.8983 85.9221 52.901 85.9221 49.4242Z" fill="#373765"/>
<path d="M125.01 65.1307C124.77 67.1689 124.531 69.207 123.931 71.1252C122.132 77.959 118.176 84.1932 111.701 87.6701C102.828 92.2259 92.2768 90.5474 83.404 87.0706C76.09 92.2259 76.09 92.2259 76.09 92.2259C74.4113 93.3049 72.2531 91.5065 73.2123 89.7082C71.174 90.0678 70.5745 88.1496 71.174 86.591C69.4953 87.9098 68.0565 85.512 69.0157 84.0734C69.6152 83.1142 70.5745 82.0352 71.2939 81.196C60.9823 75.3214 51.6299 68.128 42.1576 61.0545C47.5532 64.4114 69.1356 75.4413 74.4113 77.7192C79.9268 80.117 85.4424 82.5148 91.1977 83.8336C95.9938 84.9126 102.109 85.512 106.545 82.7546C110.622 80.3568 112.181 75.4413 112.78 71.0053C114.219 61.4141 110.862 50.624 105.826 42.4715C100.55 33.9593 91.9171 26.2863 82.0851 23.7687C78.488 22.8095 74.8909 22.8095 71.5337 23.409C63.74 24.7278 56.6658 29.5234 51.2702 35.5179C43.4765 44.15 38.0809 54.8202 33.1649 65.3705C29.8076 72.444 25.1314 89.7082 14.1004 82.8745C9.18441 79.7573 6.06695 74.3623 3.90871 69.0871C1.51066 63.4523 -0.167979 55.8992 1.39075 49.7848C4.74802 36.9566 22.7334 48.3461 28.8484 52.4224C28.4887 52.3025 14.1004 45.7085 8.8247 50.8638C6.42665 53.2616 6.54656 57.5777 6.90627 60.6948C7.62568 66.3296 10.3834 74.7219 15.6591 77.8391C22.4936 81.7954 25.9707 69.4468 27.7693 65.1307C30.7668 57.8174 33.6445 50.5041 37.0018 43.3107C40.7188 35.398 45.1551 27.6051 51.2702 21.251C49.9512 19.6924 48.0328 17.7742 47.9129 15.736C47.6731 13.4581 49.9512 10.9404 52.3493 12.1393C49.5915 9.02219 53.3085 4.34648 56.9056 6.14483C55.2269 3.50724 57.8648 0.150322 60.6226 0.270212C62.1813 0.270212 63.74 1.589 64.939 2.42823C68.0565 4.46636 71.174 6.62438 74.4113 8.66252C104.267 3.9868 127.648 37.9157 125.01 65.1307Z" fill="#373765"/>
</svg>
