<svg width="24" height="24" viewBox="0 0 24 24" fill="none" xmlns="http://www.w3.org/2000/svg">
<circle cx="12" cy="12" r="12" fill="#FFC78F"/>
<path d="M12.2124 4.98C13.5458 4.98 14.5391 5.30667 15.1924 5.96C15.8458 6.6 16.1724 7.44 16.1724 8.48C16.1724 8.97333 16.0258 9.47333 15.7324 9.98C15.4391 10.4867 15.0391 10.9667 14.5324 11.42C14.0258 11.8733 13.4458 12.2667 12.7924 12.6L12.4924 15.62L10.8924 14.96L10.7324 11.44C11.7058 11.1333 12.5058 10.72 13.1324 10.2C13.7591 9.68 14.0724 9.12 14.0724 8.52C14.0724 7.97333 13.8924 7.56 13.5324 7.28C13.1858 7 12.7258 6.86 12.1524 6.86C11.6591 6.86 11.1191 6.96667 10.5324 7.18C9.95909 7.38 9.35242 7.69333 8.71242 8.12L8.43242 6.12C9.01909 5.74667 9.61242 5.46667 10.2124 5.28C10.8124 5.08 11.4791 4.98 12.2124 4.98ZM11.5724 16.34C11.9458 16.34 12.2591 16.4733 12.5124 16.74C12.7791 16.9933 12.9124 17.3067 12.9124 17.68C12.9124 18.04 12.7791 18.3533 12.5124 18.62C12.2591 18.8733 11.9458 19 11.5724 19C11.2124 19 10.8991 18.8733 10.6324 18.62C10.3791 18.3533 10.2524 18.04 10.2524 17.68C10.2524 17.3067 10.3791 16.9933 10.6324 16.74C10.8991 16.4733 11.2124 16.34 11.5724 16.34Z" fill="#171753"/>
</svg>
