<svg width="14" height="14" viewBox="0 0 14 14" fill="none" xmlns="http://www.w3.org/2000/svg">
<circle cx="7" cy="7" r="7" fill="#BEF0ED"/>
<path d="M5.88044 8.668V6.532H6.90044C7.37244 6.532 7.72444 6.408 7.95644 6.16C8.18844 5.904 8.30444 5.592 8.30444 5.224C8.30444 4.832 8.18444 4.52 7.94444 4.288C7.71244 4.048 7.39644 3.928 6.99644 3.928C6.56444 3.928 6.22444 4.06 5.97644 4.324C5.73644 4.58 5.61644 4.9 5.61644 5.284H4.02044C4.02044 4.772 4.13644 4.308 4.36844 3.892C4.60044 3.468 4.94044 3.128 5.38844 2.872C5.83644 2.616 6.38444 2.488 7.03244 2.488C7.62444 2.488 8.13244 2.604 8.55644 2.836C8.98844 3.06 9.32044 3.368 9.55244 3.76C9.78444 4.152 9.90044 4.596 9.90044 5.092V5.236C9.90044 5.884 9.69644 6.436 9.28844 6.892C8.88844 7.34 8.30844 7.624 7.54844 7.744L7.53644 8.668H5.88044ZM5.74844 11.5V9.724H7.66844V11.5H5.74844Z" fill="#171753"/>
</svg>
