<svg width="100%" height="100%" viewBox="0 0 33 32" fill="none" xmlns="http://www.w3.org/2000/svg">
<path d="M0 0H29C31.2091 0 33 1.79086 33 4V28C33 30.2091 31.2091 32 29 32H0V0Z" fill="#237B75"/>
<path d="M10.7236 9.96606C13.6763 7.2951 18.0953 7.25426 21.0889 9.69243L18.716 9.78228C18.4097 9.79453 18.1729 10.0477 18.1851 10.354C18.1974 10.6522 18.4424 10.885 18.7365 10.885C18.7446 10.885 18.7487 10.885 18.7569 10.885L22.3998 10.7502C22.698 10.7379 22.9308 10.497 22.9308 10.1988V10.158C22.9308 10.1498 22.9308 10.1458 22.9308 10.1376V10.1335L22.796 6.53138C22.7837 6.22508 22.5264 5.9882 22.2242 6.00045C21.9179 6.01271 21.6811 6.26592 21.6933 6.57222L21.7791 8.8307C20.2966 7.61773 18.471 6.91528 16.5188 6.81726C14.1011 6.69474 11.7772 7.5238 9.98435 9.14925C7.51759 11.3832 6.47208 14.7811 7.25621 18.0157C7.31747 18.2689 7.5421 18.4364 7.79122 18.4364C7.83615 18.4364 7.87699 18.4323 7.92191 18.42C8.21596 18.3465 8.39975 18.0484 8.32623 17.7543C7.64011 14.9118 8.55494 11.9264 10.7236 9.96606Z" fill="white"/>
<path d="M25.0299 13.9847C24.9564 13.6907 24.6583 13.5069 24.3642 13.5804C24.0702 13.6539 23.8864 13.9521 23.9599 14.2461C24.6501 17.0886 23.7312 20.074 21.5626 22.0344C20.0392 23.4107 18.1279 24.0886 16.2247 24.0886C14.4073 24.0886 12.594 23.472 11.1319 22.2549L13.5333 22.0385C13.8355 22.0099 14.0602 21.7444 14.0316 21.4381C14.003 21.1318 13.7375 20.9113 13.4312 20.9399L9.80051 21.2666C9.49829 21.2952 9.27367 21.5606 9.30226 21.8669L9.62898 25.4976C9.65349 25.7835 9.89444 26 10.1762 26C10.1926 26 10.2089 26 10.2253 25.9959C10.5275 25.9673 10.7521 25.7018 10.7235 25.3955L10.5275 23.1861C12.01 24.3868 13.8274 25.0852 15.7673 25.1832C15.9225 25.1913 16.0777 25.1954 16.2288 25.1954C18.4791 25.1954 20.6191 24.3704 22.3018 22.8512C24.7685 20.6172 25.814 17.2234 25.0299 13.9847Z" fill="white"/>
</svg>
