<svg width="20" height="20" viewBox="0 0 20 20" fill="none" xmlns="http://www.w3.org/2000/svg">
<g clip-path="url(#clip0)">
<path d="M4.58099 3.96604C7.53375 1.29507 11.9527 1.25423 14.9463 3.69241L12.5735 3.78225C12.2672 3.79451 12.0303 4.04772 12.0425 4.35402C12.0548 4.65216 12.2998 4.88495 12.5939 4.88495C12.602 4.88495 12.6061 4.88495 12.6143 4.88495L16.2573 4.75017C16.5554 4.73792 16.7882 4.49696 16.7882 4.19883V4.15799C16.7882 4.14982 16.7882 4.14573 16.7882 4.13757V4.13348L16.6534 0.531357C16.6412 0.225054 16.3839 -0.0118204 16.0817 0.000431743C15.7753 0.0126839 15.5385 0.265894 15.5507 0.572198L15.6365 2.83067C14.154 1.61771 12.3284 0.915257 10.3762 0.81724C7.95849 0.694719 5.63467 1.52378 3.84178 3.14923C1.37501 5.3832 0.329499 8.78112 1.11364 12.0157C1.1749 12.2689 1.39952 12.4363 1.64865 12.4363C1.69357 12.4363 1.73441 12.4323 1.77933 12.42C2.07339 12.3465 2.25717 12.0484 2.18365 11.7543C1.49754 8.91181 2.41236 5.92638 4.58099 3.96604Z" fill="white"/>
<path d="M18.8883 7.98475C18.8148 7.6907 18.5167 7.50692 18.2226 7.58043C17.9285 7.65395 17.7448 7.95208 17.8183 8.24613C18.5085 11.0886 17.5896 14.0741 15.4209 16.0344C13.8976 17.4107 11.9863 18.0887 10.0831 18.0887C8.26571 18.0887 6.45239 17.472 4.99031 16.2549L7.39172 16.0385C7.69394 16.0099 7.91856 15.7444 7.88998 15.4381C7.86139 15.1318 7.59592 14.9113 7.28962 14.9399L3.65891 15.2666C3.35669 15.2952 3.13207 15.5606 3.16066 15.8669L3.48738 19.4977C3.51188 19.7835 3.75284 20 4.03464 20C4.05098 20 4.06731 20 4.08365 19.9959C4.38587 19.9673 4.61049 19.7019 4.5819 19.3956L4.38587 17.1861C5.86838 18.3868 7.68577 19.0852 9.62569 19.1832C9.78089 19.1914 9.93608 19.1954 10.0872 19.1954C12.3375 19.1954 14.4775 18.3705 16.1602 16.8512C18.6269 14.6172 19.6724 11.2234 18.8883 7.98475Z" fill="white"/>
</g>
<defs>
<clipPath id="clip0">
<rect width="20" height="20" fill="white"/>
</clipPath>
</defs>
</svg>
