<svg width="22" height="22" viewBox="0 0 22 22" fill="none" xmlns="http://www.w3.org/2000/svg">
<path d="M11 21.9996C4.9383 21.9996 0 17.0614 0 10.9998C0 4.93821 4.9383 0 11 0C17.0617 0 22 4.93821 22 10.9998C22 17.0614 17.0617 21.9996 11 21.9996ZM11 1.05317C5.5234 1.05317 1.05319 5.52331 1.05319 10.9998C1.05319 16.4763 5.5234 20.9464 11 20.9464C16.4766 20.9464 20.9468 16.4763 20.9468 10.9998C20.9468 5.52331 16.4766 1.05317 11 1.05317Z" fill="white"/>
<path d="M16.0552 11.5139H5.94458C5.66373 11.5139 5.42969 11.2799 5.42969 10.999C5.42969 10.7182 5.66373 10.4841 5.94458 10.4841H16.0786C16.3595 10.4841 16.5935 10.7182 16.5935 10.999C16.5935 11.2799 16.3595 11.5139 16.0552 11.5139Z" fill="white"/>
</svg>
