<svg width="45" height="45" viewBox="0 0 45 45" fill="none" xmlns="http://www.w3.org/2000/svg">
<g clip-path="url(#clip0_6211_39428)">
<path d="M12.4746 21.5577L31.8 21.5577C32.2069 21.5577 32.5459 21.9045 32.5459 22.3207C32.5459 22.7369 32.2069 23.0837 31.8 23.0837L12.4746 23.0837C12.0678 23.0837 11.7287 22.7369 11.7287 22.3207C11.7287 21.9045 12.0678 21.5577 12.4746 21.5577Z" fill="white"/>
<path d="M20.7135 13.1299C20.917 13.1299 21.0865 13.1992 21.256 13.3726C21.5611 13.6848 21.5611 14.1703 21.256 14.4825L13.5598 22.3554L21.256 30.1937C21.5611 30.5058 21.5611 30.9913 21.256 31.3035C20.9509 31.6156 20.4762 31.6156 20.1711 31.3035L11.9324 22.8756C11.6272 22.5635 11.6272 22.0779 11.9324 21.7658L20.1711 13.3379C20.3067 13.1992 20.5101 13.1299 20.7135 13.1299Z" fill="white"/>
</g>
<path d="M22.5 45C10.1011 45 0 34.8989 0 22.5C0 10.1011 10.1011 0 22.5 0C34.8989 0 45 10.1011 45 22.5C45 34.8989 34.8989 45 22.5 45ZM22.5 2.15426C11.2979 2.15426 2.15426 11.2979 2.15426 22.5C2.15426 33.7021 11.2979 42.8457 22.5 42.8457C33.7021 42.8457 42.8457 33.7021 42.8457 22.5C42.8457 11.2979 33.7021 2.15426 22.5 2.15426Z" fill="white"/>
<defs>
<clipPath id="clip0_6211_39428">
<rect width="20.8511" height="18.3817" fill="white" transform="translate(32.5796 31.5116) rotate(-180)"/>
</clipPath>
</defs>
</svg>
