<svg viewBox="0 0 22 22" fill="none" xmlns="http://www.w3.org/2000/svg">
<path d="M7.81702 15.6106C5.73404 15.6106 3.76809 14.7915 2.29362 13.317C0.819149 11.8426 0 9.9 0 7.81702C0 5.73404 0.819149 3.76809 2.29362 2.29362C3.76809 0.819149 5.73404 0 7.81702 0C9.9 0 11.866 0.819149 13.3404 2.29362C14.8149 3.76809 15.634 5.73404 15.634 7.81702C15.634 9.9 14.8149 11.866 13.3404 13.3404C11.866 14.8149 9.9 15.6106 7.81702 15.6106ZM7.81702 1.05319C6.01489 1.05319 4.30638 1.75532 3.04255 3.04255C1.75532 4.32979 1.05319 6.01489 1.05319 7.81702C1.05319 9.61915 1.75532 11.3277 3.04255 12.5915C4.32979 13.8787 6.01489 14.5809 7.81702 14.5809C9.61915 14.5809 11.3277 13.8787 12.5915 12.5915C13.8787 11.3043 14.5809 9.61915 14.5809 7.81702C14.5809 6.01489 13.8787 4.30638 12.5915 3.04255C11.3277 1.75532 9.61915 1.05319 7.81702 1.05319Z" fill="#171753"/>
<path d="M21.4618 22.0001C21.3214 22.0001 21.2043 21.9533 21.0873 21.8363L12.5916 13.3405C12.3809 13.1299 12.3809 12.8022 12.5916 12.5916C12.8022 12.3809 13.1299 12.3809 13.3405 12.5916L21.8363 21.0873C22.0469 21.298 22.0469 21.6256 21.8363 21.8363C21.7426 21.9299 21.6022 22.0001 21.4618 22.0001Z" fill="#171753"/>
</svg>
