<svg width="20" height="26" viewBox="0 0 20 26" fill="none" xmlns="http://www.w3.org/2000/svg">
<g clip-path="url(#clip0_3596:17091)">
<path d="M10 25.3846C9.91803 25.3846 9.83607 25.3576 9.7541 25.3306C9.34426 25.1416 0 20.9288 0 15.4738V2.78151C0 2.61948 0.0819672 2.43044 0.245902 2.32242C0.355191 2.24141 3.30601 0 10 0C16.694 0 19.6448 2.24141 19.7541 2.32242C19.8907 2.43044 20 2.61948 20 2.80851V15.5008C20 20.9558 10.6557 25.1686 10.2459 25.3306C10.1639 25.3576 10.082 25.3846 10 25.3846ZM1.22951 3.13257V15.5008C1.22951 19.7406 8.55191 23.4133 10 24.1154C11.4481 23.4133 18.7705 19.7406 18.7705 15.5008V3.13257C17.9781 2.64648 15.1913 1.21522 10 1.21522C4.80874 1.21522 1.99454 2.64648 1.22951 3.13257Z" fill="#FF4141"/>
</g>
<path d="M9.24784 14.3386V6.46167H10.7555V14.3386H9.24784ZM9.10938 17.6924V15.8155H10.894V17.6924H9.10938Z" fill="#FF4141"/>
<defs>
<clipPath id="clip0_3596:17091">
<rect width="20" height="25.3846" fill="white"/>
</clipPath>
</defs>
</svg>
