<svg width="32" height="32" viewBox="0 0 32 32" fill="none" xmlns="http://www.w3.org/2000/svg">
<circle cx="16" cy="16" r="16" fill="url(#paint0_linear)"/>
<path d="M8.29289 22.2929C7.90237 22.6834 7.90237 23.3166 8.29289 23.7071C8.68342 24.0976 9.31658 24.0976 9.70711 23.7071L8.29289 22.2929ZM24 9C24 8.44772 23.5523 8 23 8H14C13.4477 8 13 8.44772 13 9C13 9.55228 13.4477 10 14 10H22V18C22 18.5523 22.4477 19 23 19C23.5523 19 24 18.5523 24 18V9ZM9.70711 23.7071L23.7071 9.70711L22.2929 8.29289L8.29289 22.2929L9.70711 23.7071Z" fill="white"/>
<defs>
<linearGradient id="paint0_linear" x1="1.19209e-07" y1="16" x2="32" y2="16" gradientUnits="userSpaceOnUse">
<stop stop-color="#030332"/>
<stop offset="1" stop-color="#171753"/>
</linearGradient>
</defs>
</svg>



