<svg width="22" height="22" viewBox="0 0 22 22" fill="none" xmlns="http://www.w3.org/2000/svg">
<path d="M19.1613 9.00932L17.7252 8.82675C17.6067 8.46237 17.4608 8.11098 17.2905 7.77716L18.1774 6.63515C18.5364 6.173 18.4944 5.52064 18.0842 5.12341L16.881 3.92029C16.48 3.50626 15.8276 3.46501 15.3646 3.82327L14.2241 4.71015C13.8903 4.5398 13.5389 4.3939 13.1737 4.2755L12.9911 2.84168C12.9224 2.26647 12.4342 1.83334 11.856 1.83334H10.1448C9.56648 1.83334 9.07834 2.26647 9.00958 2.83939L8.82701 4.2755C8.46185 4.3939 8.11045 4.53904 7.77662 4.71015L6.63532 3.82327C6.17391 3.46501 5.52152 3.50626 5.12352 3.91647L3.92034 5.11883C3.5063 5.52064 3.46428 6.173 3.82333 6.63591L4.71024 7.77716C4.53912 8.11098 4.39398 8.46237 4.27557 8.82675L2.84169 9.00932C2.26646 9.07807 1.83331 9.56619 1.83331 10.1445V11.8556C1.83331 12.4338 2.26646 12.922 2.8394 12.9907L4.27557 13.1733C4.39398 13.5376 4.53988 13.889 4.71024 14.2229L3.82333 15.3649C3.46428 15.827 3.5063 16.4794 3.91652 16.8766L5.1197 18.0797C5.52152 18.493 6.17315 18.5342 6.63608 18.176L7.77738 17.2891C8.11121 17.4602 8.46262 17.6061 8.82701 17.7238L9.00958 19.1568C9.07834 19.7336 9.56648 20.1667 10.1448 20.1667H11.856C12.4342 20.1667 12.9224 19.7336 12.9911 19.1606L13.1737 17.7245C13.5381 17.6061 13.8895 17.4602 14.2233 17.2899L15.3654 18.1767C15.8276 18.5358 16.48 18.4938 16.8772 18.0836L18.0804 16.8804C18.4944 16.4786 18.5364 15.827 18.1774 15.3641L17.2905 14.2229C17.4616 13.889 17.6075 13.5376 17.7252 13.1733L19.1583 12.9907C19.7335 12.922 20.1666 12.4338 20.1666 11.8556V10.1445C20.1674 9.56619 19.7343 9.07807 19.1613 9.00932ZM11.0004 14.8195C8.89423 14.8195 7.18076 13.1061 7.18076 11C7.18076 8.89397 8.89423 7.18057 11.0004 7.18057C13.1065 7.18057 14.82 8.89397 14.82 11C14.82 13.1061 13.1065 14.8195 11.0004 14.8195Z" fill="#171753"/>
</svg>
