<svg width="28" height="28" viewBox="0 0 28 28" fill="none" xmlns="http://www.w3.org/2000/svg">
<g clip-path="url(#clip0)">
<path d="M14.5071 18.7564C11.3926 19.047 8.76986 16.537 9.07039 13.4985C9.28895 11.2527 11.1741 9.45605 13.4963 9.21826C16.6108 8.92763 19.2336 11.4377 18.9331 14.4761C18.6872 16.7219 16.8294 18.5186 14.5071 18.7564ZM14.5071 10.1959C11.939 9.87879 9.7534 11.9925 10.0812 14.5025C10.2998 16.1935 11.7205 17.5938 13.4963 17.8052C16.0917 18.1223 18.2774 16.0085 17.9495 13.4985C17.7036 11.7811 16.283 10.4072 14.5071 10.1959Z" fill="white"/>
<path d="M16.4727 26.4446H11.5277C11.2818 26.4446 11.0632 26.2596 11.0359 26.0218L10.6534 23.0098C9.5333 22.6399 8.52245 22.0586 7.62088 21.3188L4.72491 22.5078C4.50635 22.6135 4.23314 22.5078 4.09654 22.2964L1.61038 18.1483C1.5011 17.9369 1.55574 17.6727 1.74699 17.5141L4.26046 15.6911C4.15118 15.1362 4.09654 14.5814 4.09654 14.0001C4.09654 13.4188 4.15118 12.864 4.26046 12.3091L1.74699 10.4861C1.55574 10.354 1.5011 10.0633 1.61038 9.85196L4.09654 5.70381C4.23314 5.49244 4.47903 5.41318 4.72491 5.49244L7.62088 6.6814C8.52245 5.9416 9.5333 5.38676 10.6534 4.99044L11.0359 1.97841C11.0632 1.74061 11.2818 1.55566 11.5277 1.55566H16.4727C16.7186 1.55566 16.9371 1.74061 16.9645 1.97841L17.3469 4.99044C18.4671 5.36034 19.4779 5.9416 20.3795 6.6814L23.2755 5.49244C23.494 5.38676 23.7672 5.49244 23.9038 5.70381L26.39 9.85196C26.5266 10.0633 26.472 10.3275 26.2534 10.4861L23.7399 12.3091C23.8492 12.864 23.9038 13.4188 23.9038 14.0001C23.9038 14.5814 23.8492 15.1362 23.7399 15.6911L26.2534 17.5141C26.4446 17.6463 26.4993 17.9369 26.39 18.1483L23.9038 22.2964C23.7672 22.5078 23.5214 22.587 23.2755 22.5078L20.3795 21.3188C19.4779 22.0586 18.4398 22.6135 17.3469 23.0098L16.9645 26.0218C16.9371 26.2596 16.7186 26.4446 16.4727 26.4446ZM11.9648 25.467H16.0356L16.418 22.5606C16.4454 22.3757 16.582 22.2171 16.7732 22.1643C17.948 21.7944 19.0408 21.2131 19.9697 20.3941C20.1063 20.262 20.3249 20.2355 20.4888 20.3148L23.2755 21.4509L25.3245 18.0426L22.9203 16.2988C22.7564 16.1931 22.7017 15.9817 22.7291 15.7968C22.8657 15.2155 22.9203 14.6078 22.9203 14.0001C22.9203 13.3924 22.8657 12.7847 22.7291 12.2035C22.6744 12.0185 22.7564 11.8336 22.9203 11.7015L25.3245 9.95765L23.2755 6.54929L20.4888 7.68541C20.2975 7.76468 20.1063 7.71183 19.9697 7.60615C19.0408 6.78709 17.948 6.20582 16.7732 5.83592C16.582 5.78308 16.4454 5.62455 16.418 5.4396L16.0356 2.50683H11.9648L11.5823 5.41318C11.555 5.59813 11.4184 5.75666 11.2272 5.8095C10.0524 6.1794 8.95958 6.76067 8.03068 7.57973C7.89408 7.71183 7.67552 7.73825 7.51159 7.65899L4.72491 6.52287L2.7032 9.95765L5.1074 11.7015C5.27132 11.8071 5.32596 12.0185 5.29864 12.2035C5.16204 12.7847 5.1074 13.366 5.1074 13.9737C5.1074 14.5814 5.16204 15.1891 5.29864 15.7439C5.35328 15.9289 5.27132 16.1138 5.1074 16.2459L2.7032 17.9897L4.75223 21.3981L7.51159 20.3148C7.70284 20.2355 7.89408 20.2884 8.03068 20.3941C8.95958 21.2131 10.0524 21.7944 11.2272 22.1643C11.4184 22.2171 11.555 22.3757 11.5823 22.5606L11.9648 25.467Z" fill="white"/>
</g>
<defs>
<clipPath id="clip0">
<rect width="24.8889" height="24.8889" fill="white" transform="translate(1.55469 1.55566)"/>
</clipPath>
</defs>
</svg>
