<svg width="24" height="24" viewBox="0 0 24 24" fill="none" xmlns="http://www.w3.org/2000/svg">
<path fill-rule="evenodd" clip-rule="evenodd" d="M10.0818 4.48798C10.0818 3.63558 10.7666 2.95068 11.6191 2.95068H12.4258C13.2783 2.95068 13.9631 3.63557 13.9631 4.48798V4.5456C13.9631 4.78114 14.1018 4.9806 14.3128 5.05092L14.3256 5.05519C14.6513 5.17365 14.9593 5.29651 15.2715 5.45262C15.4731 5.55341 15.7034 5.51686 15.8757 5.34458L15.9333 5.28697C16.532 4.68832 17.5113 4.68832 18.1099 5.28697L18.6862 5.86324C19.2848 6.46189 19.2848 7.44118 18.6862 8.03983C18.6862 8.03983 18.6862 8.03983 18.6862 8.03983L18.6286 8.09746C18.4585 8.26752 18.4207 8.49419 18.5167 8.69389C18.6482 8.93301 18.7551 9.20522 18.8448 9.43362L18.8507 9.44862C18.8718 9.5022 18.892 9.55367 18.9121 9.60397L18.9176 9.61761L18.9222 9.63155C18.9925 9.84252 19.192 9.9812 19.4275 9.9812H19.514C20.3664 9.9812 21.0513 10.6661 21.0513 11.5185V12.3253C21.0513 13.1777 20.3664 13.8626 19.514 13.8626H19.4275C19.1942 13.8626 18.9962 13.9987 18.9242 14.2064C18.8293 14.521 18.7039 14.8329 18.5493 15.1421C18.4485 15.3437 18.4851 15.574 18.6574 15.7463L18.715 15.8039C19.3136 16.4026 19.3136 17.3819 18.715 17.9805L18.1387 18.5568C17.5401 19.1554 16.5608 19.1554 15.9622 18.5568C15.9621 18.5568 15.9622 18.5568 15.9622 18.5568L15.9249 18.5196L15.9169 18.5108C15.7872 18.3681 15.5427 18.3132 15.3291 18.4199C15.0169 18.576 14.7089 18.6987 14.3832 18.8172L14.3705 18.8218C14.1595 18.8921 14.0208 19.0914 14.0208 19.327V19.4134C14.0208 20.2658 13.3359 20.9507 12.4835 20.9507H11.6767C10.8243 20.9507 10.1394 20.2658 10.1394 19.4134V19.3846C10.1394 19.149 10.0007 18.9496 9.78977 18.8793L9.77695 18.875L9.76396 18.8701C9.45593 18.7581 9.11621 18.6346 8.80224 18.4776C8.60065 18.3768 8.3703 18.4133 8.19804 18.5856L8.16929 18.6144C7.57064 19.213 6.59128 19.2131 5.99263 18.6144L5.41636 18.0381C4.81771 17.4395 4.81771 16.4602 5.41636 15.8615L5.42477 15.8531L5.43358 15.8451C5.57623 15.7154 5.63117 15.4709 5.52439 15.2573C5.36741 14.9434 5.24389 14.6037 5.13189 14.2956L5.12253 14.2699C5.0522 14.0589 4.85291 13.9202 4.61737 13.9202H4.58856C3.73614 13.9202 3.05127 13.2353 3.05127 12.3829V11.5761C3.05127 10.7237 3.73615 10.0388 4.58856 10.0388C4.8202 10.0388 5.01695 9.9047 5.09029 9.69958C5.19038 9.33954 5.3499 8.99302 5.49558 8.70165C5.59637 8.50008 5.55982 8.26974 5.38755 8.09746L5.35873 8.06864C5.35871 8.06862 5.35875 8.06866 5.35873 8.06864C4.76014 7.46998 4.7601 6.49068 5.35873 5.89205L5.935 5.31578C6.53364 4.71714 7.5129 4.71713 8.11156 5.31573C8.11154 5.31572 8.11157 5.31575 8.11156 5.31573L8.14037 5.34454C8.31264 5.51681 8.54304 5.55341 8.74461 5.45262L8.75289 5.44848L8.76132 5.44465C9.09189 5.29439 9.39226 5.17432 9.71938 5.05537L9.73208 5.05075C9.94304 4.98043 10.0818 4.78114 10.0818 4.5456V4.48798ZM11.6191 3.95068C11.3189 3.95068 11.0818 4.18785 11.0818 4.48798V4.5456C11.0818 5.17219 10.7045 5.77741 10.0554 5.99723C9.75348 6.10716 9.48116 6.21616 9.18267 6.35159C8.57967 6.64826 7.89266 6.511 7.43336 6.05174C7.43334 6.05172 7.43337 6.05175 7.43336 6.05174L7.40454 6.02293C7.19641 5.8148 6.85024 5.81476 6.64211 6.02288L6.06584 6.59916C5.85771 6.80728 5.85771 7.15341 6.06584 7.36153L6.09465 7.39036C6.09463 7.39034 6.09467 7.39038 6.09465 7.39036C6.55623 7.85198 6.6926 8.54369 6.39001 9.14887C6.24973 9.42942 6.12371 9.71079 6.0506 9.97886L6.04695 9.99225L6.04256 10.0054C5.82475 10.6588 5.21743 11.0388 4.58856 11.0388C4.28842 11.0388 4.05127 11.276 4.05127 11.5761V12.3829C4.05127 12.683 4.28844 12.9202 4.58856 12.9202H4.61737C5.24399 12.9202 5.84921 13.2975 6.06902 13.9466C6.18543 14.2667 6.29067 14.5538 6.41882 14.8101C6.71319 15.3989 6.59926 16.1273 6.11735 16.5749C5.91536 16.7836 5.9174 17.125 6.12347 17.331L6.69974 17.9073C6.90787 18.1154 7.25399 18.1154 7.46212 17.9073L7.49088 17.8785C7.95251 17.4169 8.64426 17.2805 9.24945 17.5831C9.50576 17.7113 9.79293 17.8165 10.113 17.933C10.7622 18.1528 11.1394 18.758 11.1394 19.3846V19.4134C11.1394 19.7135 11.3766 19.9507 11.6767 19.9507H12.4835C12.7836 19.9507 13.0208 19.7135 13.0208 19.4134V19.327C13.0208 18.7004 13.398 18.0952 14.0471 17.8753C14.3529 17.764 14.6195 17.6567 14.8819 17.5255C15.4712 17.2309 16.2005 17.3453 16.6479 17.8283L16.6692 17.8496C16.8773 18.0578 17.2235 18.0578 17.4316 17.8497L18.0079 17.2734C18.216 17.0653 18.216 16.7192 18.0079 16.511L17.9503 16.4534C17.9503 16.4534 17.9503 16.4534 17.9503 16.4534C17.4886 15.9918 17.3523 15.3001 17.6549 14.6949C17.787 14.4306 17.8913 14.1692 17.969 13.9104L17.9711 13.9031L17.9735 13.896C18.1914 13.2425 18.7987 12.8626 19.4275 12.8626H19.514C19.8141 12.8626 20.0513 12.6254 20.0513 12.3253V11.5185C20.0513 11.2184 19.8141 10.9812 19.514 10.9812H19.4275C18.8035 10.9812 18.2008 10.6071 17.9787 9.96291C17.959 9.9135 17.9394 9.86362 17.9202 9.8148C17.822 9.56507 17.7351 9.34611 17.6362 9.16808L17.6309 9.15858L17.6261 9.14887C17.3235 8.54366 17.4598 7.85199 17.9214 7.39036C17.9214 7.39037 17.9214 7.39036 17.9214 7.39036L17.9791 7.33273C18.1872 7.12461 18.1872 6.77848 17.9791 6.57035L17.4028 5.99408C17.1947 5.78595 16.8485 5.78595 16.6404 5.99408L16.5828 6.05169C16.5828 6.05171 16.5828 6.05168 16.5828 6.05169C16.1212 6.51328 15.4295 6.64965 14.8243 6.34705C14.5618 6.21584 14.2952 6.10854 13.9895 5.99723C13.3404 5.7774 12.9631 5.17218 12.9631 4.5456V4.48798C12.9631 4.18785 12.726 3.95068 12.4258 3.95068H11.6191ZM7.85095 12.0576C7.85095 9.71041 9.75374 7.80762 12.101 7.80762C14.4482 7.80762 16.351 9.71041 16.351 12.0576C16.351 14.4048 14.4482 16.3076 12.101 16.3076C9.75374 16.3076 7.85095 14.4048 7.85095 12.0576ZM12.101 8.80762C10.306 8.80762 8.85095 10.2627 8.85095 12.0576C8.85095 13.8525 10.306 15.3076 12.101 15.3076C13.8959 15.3076 15.351 13.8525 15.351 12.0576C15.351 10.2627 13.8959 8.80762 12.101 8.80762Z" fill="#ECFFFE"/>
</svg>
