<svg viewBox="0 0 21 21" fill="none" xmlns="http://www.w3.org/2000/svg">
<path d="M16.8 13.3875C15.75 13.3875 14.7656 13.8468 14.1094 14.6343L7.6125 11.4187C7.67813 11.1562 7.74375 10.8281 7.74375 10.5C7.74375 10.3687 7.74375 10.1718 7.74375 10.0406L14.1094 6.9562C14.7656 7.61245 15.6187 8.0062 16.6031 8.0062C18.5719 8.0062 20.1469 6.4312 20.1469 4.46245C20.1469 2.4937 18.5719 0.918701 16.6031 0.918701C14.6344 0.918701 13.0594 2.4937 13.0594 4.46245C13.0594 4.79058 13.125 5.1187 13.1906 5.44683L7.0875 8.39995C6.43125 7.4812 5.38125 6.89058 4.2 6.89058C2.23125 6.9562 0.65625 8.5312 0.65625 10.5C0.65625 12.4687 2.23125 14.0437 4.2 14.0437C5.25 14.0437 6.16875 13.5843 6.825 12.9281L13.3875 16.2093C13.3219 16.4718 13.3219 16.7343 13.3219 16.9968C13.3219 18.9656 14.8969 20.5406 16.8656 20.5406C18.8344 20.5406 20.4094 18.9656 20.4094 16.9968C20.4094 15.0281 18.7688 13.3875 16.8 13.3875ZM16.6031 2.69058C17.5875 2.69058 18.4406 3.5437 18.4406 4.52808C18.4406 5.51245 17.5875 6.36558 16.6031 6.36558C15.6187 6.36558 14.7656 5.51245 14.7656 4.52808C14.7656 3.5437 15.5531 2.69058 16.6031 2.69058ZM4.2 12.3375C3.21563 12.3375 2.3625 11.4843 2.3625 10.5C2.3625 9.51558 3.21563 8.66245 4.2 8.66245C5.18438 8.66245 6.0375 9.51558 6.0375 10.5C6.0375 11.4843 5.18438 12.3375 4.2 12.3375ZM16.8 18.7687C15.8156 18.7687 14.9625 17.9156 14.9625 16.9312C14.9625 15.9468 15.8156 15.0937 16.8 15.0937C17.7844 15.0937 18.6375 15.9468 18.6375 16.9312C18.6375 17.9156 17.85 18.7687 16.8 18.7687Z" fill="white"/>
</svg>
