<svg viewBox="0 0 24 24" fill="none" xmlns="http://www.w3.org/2000/svg">
<path d="M20.9999 2H14.9999C14.7347 2 14.4803 2.10536 14.2928 2.29289C14.1053 2.48043 13.9999 2.73478 13.9999 3C13.9999 3.26522 14.1053 3.51957 14.2928 3.70711C14.4803 3.89464 14.7347 4 14.9999 4H18.5859L10.2929 12.293C10.1974 12.3852 10.1212 12.4956 10.0688 12.6176C10.0164 12.7396 9.9888 12.8708 9.98765 13.0036C9.98649 13.1364 10.0118 13.2681 10.0621 13.391C10.1124 13.5139 10.1866 13.6255 10.2805 13.7194C10.3744 13.8133 10.486 13.8875 10.6089 13.9378C10.7318 13.9881 10.8635 14.0134 10.9963 14.0123C11.1291 14.0111 11.2603 13.9835 11.3823 13.9311C11.5043 13.8787 11.6147 13.8025 11.7069 13.707L19.9999 5.414V9C19.9999 9.26522 20.1053 9.51957 20.2928 9.70711C20.4803 9.89464 20.7347 10 20.9999 10C21.2651 10 21.5195 9.89464 21.707 9.70711C21.8945 9.51957 21.9999 9.26522 21.9999 9V3C21.9999 2.73478 21.8945 2.48043 21.707 2.29289C21.5195 2.10536 21.2651 2 20.9999 2Z" fill="#F5F5F5"/>
<path d="M19.0001 10.588C18.7348 10.588 18.4805 10.6934 18.293 10.8809C18.1054 11.0684 18.0001 11.3228 18.0001 11.588V18.751C17.9998 19.0822 17.8681 19.3997 17.6339 19.6339C17.3998 19.8681 17.0822 19.9997 16.7511 20H5.24906C4.91789 19.9997 4.60035 19.8681 4.36618 19.6339C4.132 19.3997 4.00033 19.0822 4.00006 18.751V7.249C4.00033 6.91783 4.132 6.60029 4.36618 6.36612C4.60035 6.13194 4.91789 6.00027 5.24906 6H11.4711C11.7363 6 11.9906 5.89464 12.1782 5.70711C12.3657 5.51957 12.4711 5.26522 12.4711 5C12.4711 4.73478 12.3657 4.48043 12.1782 4.29289C11.9906 4.10536 11.7363 4 11.4711 4H5.24906C4.3877 4.00106 3.56192 4.3437 2.95284 4.95278C2.34376 5.56186 2.00112 6.38764 2.00006 7.249V18.749C2.00059 19.6107 2.343 20.437 2.95213 21.0465C3.56127 21.656 4.38735 21.9989 5.24906 22H16.7491C17.6108 21.9995 18.4371 21.6571 19.0466 21.0479C19.6561 20.4388 19.999 19.6127 20.0001 18.751V11.588C20.0001 11.3228 19.8947 11.0684 19.7072 10.8809C19.5196 10.6934 19.2653 10.588 19.0001 10.588Z" fill="#F5F5F5"/>
</svg>
