<svg viewBox="0 0 16 17" fill="none" xmlns="http://www.w3.org/2000/svg">
<g clip-path="url(#clip0)">
<path d="M13.0984 9.35332V15.9258H1.07772V3.70772H7.02591C7.31606 3.70772 7.56477 3.45493 7.56477 3.16001C7.56477 2.86509 7.31606 2.6123 7.02591 2.6123H0.53886C0.248705 2.6123 0 2.86509 0 3.16001V16.4525C0 16.7474 0.248705 17.0002 0.53886 17.0002H13.6166C13.9067 17.0002 14.1554 16.7474 14.1554 16.4525V9.35332C14.1554 9.0584 13.9067 8.80561 13.6166 8.80561C13.3264 8.80561 13.0984 9.03733 13.0984 9.35332Z" fill="#171753"/>
<path d="M15.8766 0.800916L7.54501 9.26932C7.3792 9.43784 7.08905 9.47997 6.90252 9.31145C6.69527 9.12186 6.67454 8.80587 6.88179 8.61628L15.1927 0.168946C15.3585 0.000420373 15.6486 -0.041711 15.8352 0.126814C16.0631 0.29534 16.0631 0.611325 15.8766 0.800916Z" fill="#171753"/>
<path d="M15.8759 8.02602C15.793 8.11029 15.6686 8.17348 15.5235 8.17348C15.2748 8.15242 15.0883 7.9207 15.0883 7.66791V0.947955H8.47691C8.22821 0.947955 8.00023 0.758364 7.9795 0.526642C7.93805 0.231722 8.16603 0 8.43546 0H15.5443C15.8137 0 16.021 0.210657 16.021 0.484511V7.71004C16.0002 7.83643 15.9588 7.94176 15.8759 8.02602Z" fill="#171753"/>
</g>
<defs>
<clipPath id="clip0">
<rect width="16" height="17" fill="white"/>
</clipPath>
</defs>
</svg>
