<svg width="24" height="24" viewBox="0 0 24 24" fill="none" xmlns="http://www.w3.org/2000/svg">
<path d="M20.9998 2H14.9998C14.7346 2 14.4803 2.10536 14.2927 2.29289C14.1052 2.48043 13.9998 2.73478 13.9998 3C13.9998 3.26522 14.1052 3.51957 14.2927 3.70711C14.4803 3.89464 14.7346 4 14.9998 4H18.5858L10.2928 12.293C10.1973 12.3852 10.1211 12.4956 10.0687 12.6176C10.0163 12.7396 9.98874 12.8708 9.98759 13.0036C9.98643 13.1364 10.0117 13.2681 10.062 13.391C10.1123 13.5139 10.1866 13.6255 10.2804 13.7194C10.3743 13.8133 10.486 13.8875 10.6089 13.9378C10.7318 13.9881 10.8635 14.0134 10.9962 14.0123C11.129 14.0111 11.2602 13.9835 11.3822 13.9311C11.5042 13.8787 11.6146 13.8025 11.7068 13.707L19.9998 5.414V9C19.9998 9.26522 20.1052 9.51957 20.2927 9.70711C20.4803 9.89464 20.7346 10 20.9998 10C21.2651 10 21.5194 9.89464 21.7069 9.70711C21.8945 9.51957 21.9998 9.26522 21.9998 9V3C21.9998 2.73478 21.8945 2.48043 21.7069 2.29289C21.5194 2.10536 21.2651 2 20.9998 2Z" fill="#237B75"/>
<path d="M19 10.588C18.7348 10.588 18.4804 10.6934 18.2929 10.8809C18.1054 11.0684 18 11.3228 18 11.588V18.751C17.9997 19.0822 17.8681 19.3997 17.6339 19.6339C17.3997 19.8681 17.0822 19.9997 16.751 20H5.249C4.91783 19.9997 4.60029 19.8681 4.36612 19.6339C4.13194 19.3997 4.00027 19.0822 4 18.751V7.249C4.00027 6.91783 4.13194 6.60029 4.36612 6.36612C4.60029 6.13194 4.91783 6.00027 5.249 6H11.471C11.7362 6 11.9906 5.89464 12.1781 5.70711C12.3656 5.51957 12.471 5.26522 12.471 5C12.471 4.73478 12.3656 4.48043 12.1781 4.29289C11.9906 4.10536 11.7362 4 11.471 4H5.249C4.38764 4.00106 3.56186 4.3437 2.95278 4.95278C2.3437 5.56186 2.00106 6.38764 2 7.249V18.749C2.00053 19.6107 2.34294 20.437 2.95207 21.0465C3.56121 21.656 4.38729 21.9989 5.249 22H16.749C17.6107 21.9995 18.437 21.6571 19.0465 21.0479C19.656 20.4388 19.9989 19.6127 20 18.751V11.588C20 11.3228 19.8946 11.0684 19.7071 10.8809C19.5196 10.6934 19.2652 10.588 19 10.588Z" fill="#237B75"/>
</svg>
