<svg width="20" height="17" viewBox="0 0 20 17" fill="none" xmlns="http://www.w3.org/2000/svg">
<path d="M11.4255 16.9996C11.3617 16.9996 11.2979 16.9785 11.234 16.9574C11.0638 16.894 10.9362 16.704 10.9362 16.5139V12.4804C8.14894 12.4381 3.46809 12.6493 0.638298 13.7686C0.510638 13.8319 0.340426 13.8319 0.212766 13.7263C0.0851064 13.6419 0 13.494 0 13.3251C0 8.55241 3.93617 4.64558 8.76596 4.64558H10.9574V0.464213C10.9574 0.274151 11.0638 0.105207 11.2553 0.0207348C11.4255 -0.0426193 11.6383 -0.0215013 11.766 0.126325L19.8511 8.15117C20.0426 8.34123 20.0426 8.63688 19.8511 8.82695L11.766 16.8518C11.6809 16.9363 11.5532 16.9996 11.4255 16.9996ZM10.7872 11.5301C11.0213 11.5301 11.234 11.5301 11.4468 11.5301C11.7021 11.5301 11.9149 11.7412 11.9149 11.9946V15.3524L18.8511 8.46794L11.9149 1.60459V5.11018C11.9149 5.36359 11.7021 5.57477 11.4468 5.57477H8.76596C4.68085 5.59589 1.34043 8.70024 0.978723 12.6493C3.89362 11.7201 8.10638 11.5301 10.7872 11.5301Z" fill="white"/>
</svg>
