<svg width="16" height="17" viewBox="0 0 16 17" fill="none" xmlns="http://www.w3.org/2000/svg">
<path d="M13.0984 9.35259V15.9251H1.07772V3.70699H7.02591C7.31606 3.70699 7.56477 3.4542 7.56477 3.15928C7.56477 2.86436 7.31606 2.61157 7.02591 2.61157H0.53886C0.248705 2.61157 0 2.86436 0 3.15928V16.4517C0 16.7466 0.248705 16.9994 0.53886 16.9994H13.6166C13.9067 16.9994 14.1554 16.7466 14.1554 16.4517V9.35259C14.1554 9.05767 13.9067 8.80488 13.6166 8.80488C13.3264 8.80488 13.0984 9.0366 13.0984 9.35259Z" fill="white"/>
<path d="M15.8756 0.799939L7.54403 9.26834C7.37823 9.43686 7.08807 9.479 6.90154 9.31047C6.69429 9.12088 6.67356 8.80489 6.88082 8.6153L15.1917 0.167969C15.3575 -0.00055619 15.6477 -0.0426875 15.8342 0.125838C16.0622 0.294363 16.0622 0.610348 15.8756 0.799939Z" fill="white"/>
<path d="M15.8754 8.02553C15.7925 8.1098 15.6681 8.17299 15.5231 8.17299C15.2743 8.15193 15.0878 7.92021 15.0878 7.66742V0.947467H8.47642C8.22772 0.947467 7.99974 0.757876 7.97901 0.526154C7.93756 0.231234 8.16554 -0.000488281 8.43497 -0.000488281H15.5438C15.8132 -0.000488281 16.0205 0.210168 16.0205 0.484022V7.70955C15.9997 7.83594 15.9583 7.94127 15.8754 8.02553Z" fill="white"/>
</svg>
