<svg width="22" height="19" viewBox="0 0 22 19" fill="none" xmlns="http://www.w3.org/2000/svg">
<path d="M21.5891 0.444336H4.87436C4.65025 0.444336 4.4635 0.631279 4.4635 0.855611V2.66896H2.65195C2.42784 2.66896 2.24109 2.8559 2.24109 3.08024V4.89359H0.410866C0.186757 4.89359 0 5.08053 0 5.30486V17.7366C0 17.9609 0.186757 18.1479 0.410866 18.1479H17.1256C17.3497 18.1479 17.5365 17.9609 17.5365 17.7366V15.9232H19.348C19.5722 15.9232 19.7589 15.7363 19.7589 15.512V13.6986H21.5705C21.7946 13.6986 21.9813 13.5117 21.9813 13.2873V0.855611C22 0.631279 21.8132 0.444336 21.5891 0.444336ZM16.7148 17.3253H0.840407V5.73483H16.7148V17.3253ZM18.9372 15.1007H17.5552V5.32356C17.5552 5.09922 17.3684 4.91228 17.1443 4.91228H3.06282V3.51021H18.9372V15.1007ZM21.1596 12.8761H19.7776V3.09893C19.7776 2.8746 19.5908 2.68766 19.3667 2.68766H5.28523V1.28558H21.1596V12.8761Z" fill="#171753"/>
</svg>
