<svg width="18" height="15" viewBox="0 0 18 15" fill="none" xmlns="http://www.w3.org/2000/svg">
<path d="M17.6638 0H3.98811C3.80475 0 3.65195 0.152954 3.65195 0.336498V1.82015H2.16978C1.98642 1.82015 1.83362 1.9731 1.83362 2.15665V3.6403H0.336163C0.152801 3.6403 0 3.79325 0 3.97679V14.1482C0 14.3318 0.152801 14.4847 0.336163 14.4847H14.0119C14.1952 14.4847 14.348 14.3318 14.348 14.1482V12.6646H15.8302C16.0136 12.6646 16.1664 12.5116 16.1664 12.3281V10.8444H17.6486C17.8319 10.8444 17.9847 10.6915 17.9847 10.5079V0.336498C18 0.152954 17.8472 0 17.6638 0ZM13.6757 13.8117H0.687606V4.32859H13.6757V13.8117ZM15.4941 11.9916H14.3633V3.99209C14.3633 3.80854 14.2105 3.65559 14.0272 3.65559H2.50594V2.50844H15.4941V11.9916ZM17.3124 10.1714H16.1817V2.17194C16.1817 1.9884 16.0289 1.83544 15.8455 1.83544H4.32428V0.688291H17.3124V10.1714Z" fill="white"/>
</svg>
