<svg width="24" height="24" viewBox="0 0 24 24" fill="none" xmlns="http://www.w3.org/2000/svg">
<path d="M11.9999 18.7499C11.423 18.7487 10.8474 18.695 10.2802 18.5894C10.1042 18.5612 9.94405 18.4713 9.82834 18.3358C9.71263 18.2003 9.64894 18.028 9.64868 17.8499C9.65055 17.74 9.67617 17.6318 9.72378 17.5327C9.77139 17.4337 9.83986 17.3461 9.9245 17.276C10.0091 17.2059 10.1079 17.1549 10.2141 17.1266C10.3203 17.0983 10.4314 17.0932 10.5397 17.1119C11.0212 17.2025 11.51 17.2487 11.9999 17.2499C16.4429 17.2499 20.3017 13.3596 21.5152 11.9999C20.7066 11.0947 19.818 10.2644 18.8602 9.51886C18.7823 9.45853 18.717 9.38345 18.6681 9.2979C18.6192 9.21236 18.5877 9.11802 18.5752 9.02027C18.5501 8.82287 18.6045 8.62357 18.7263 8.46623C18.8481 8.30889 19.0275 8.2064 19.2249 8.18129C19.3226 8.16886 19.4219 8.1758 19.5169 8.20172C19.612 8.22764 19.701 8.27203 19.7789 8.33236C21 9.27315 22.111 10.3487 23.0909 11.5386C23.1943 11.6706 23.2504 11.8334 23.2504 12.001C23.2504 12.1686 23.1943 12.3314 23.0909 12.4634C22.8892 12.7191 18.0929 18.7499 11.9999 18.7499Z" fill="url(#paint0_linear)"/>
<path d="M20.0302 3.96959C19.8896 3.82899 19.6989 3.75 19.5 3.75C19.3011 3.75 19.1104 3.82899 18.9697 3.96959L16.5847 6.35459C15.6818 5.91946 14.7263 5.60284 13.7422 5.41259C13.1678 5.30457 12.5845 5.25009 12 5.24984C5.90698 5.24984 1.11073 11.2806 0.909728 11.5371C0.806393 11.6691 0.750244 11.8318 0.750244 11.9995C0.750244 12.1671 0.806393 12.3299 0.909728 12.4618C1.88867 13.6507 2.9987 14.7253 4.21873 15.6651C4.79586 16.1174 5.40052 16.5335 6.02923 16.9108L3.96973 18.9696C3.8981 19.0388 3.84096 19.1215 3.80165 19.213C3.76235 19.3045 3.74166 19.403 3.74079 19.5025C3.73992 19.6021 3.7589 19.7009 3.79661 19.7931C3.83432 19.8852 3.89001 19.969 3.96043 20.0394C4.03085 20.1098 4.11459 20.1655 4.20676 20.2032C4.29893 20.2409 4.39769 20.2599 4.49728 20.259C4.59686 20.2582 4.69528 20.2375 4.78678 20.1982C4.87828 20.1589 4.96104 20.1017 5.03023 20.0301L20.0302 5.03009C20.1708 4.88944 20.2498 4.69871 20.2498 4.49984C20.2498 4.30097 20.1708 4.11024 20.0302 3.96959ZM5.13973 14.4816C4.18191 13.7359 3.29331 12.9052 2.48473 11.9998C3.69823 10.6408 7.55698 6.74984 12 6.74984C12.4934 6.75023 12.9858 6.79643 13.4707 6.88784C14.1497 7.01701 14.8129 7.21815 15.4492 7.48784L14.0677 8.86934C13.3467 8.39289 12.4831 8.18013 11.6233 8.26706C10.7634 8.35399 9.95991 8.73526 9.34878 9.34639C8.73765 9.95752 8.35638 10.761 8.26945 11.6209C8.18252 12.4807 8.39528 13.3443 8.87173 14.0653L7.12498 15.8151C6.43037 15.4216 5.76671 14.9758 5.13973 14.4816ZM9.97498 12.9628C9.82882 12.6627 9.75192 12.3336 9.74998 11.9998C9.75012 11.4048 9.98516 10.834 10.404 10.4113C10.7379 10.0938 11.1591 9.88343 11.6135 9.80725C12.068 9.73106 12.5348 9.79256 12.954 9.98384L9.97498 12.9628Z" fill="url(#paint1_linear)"/>
<defs>
<linearGradient id="paint0_linear" x1="9.64868" y1="13.4626" x2="23.2504" y2="13.4626" gradientUnits="userSpaceOnUse">
<stop stop-color="#030332"/>
<stop offset="1" stop-color="#171753"/>
</linearGradient>
<linearGradient id="paint1_linear" x1="0.750244" y1="12.0045" x2="20.2498" y2="12.0045" gradientUnits="userSpaceOnUse">
<stop stop-color="#030332"/>
<stop offset="1" stop-color="#171753"/>
</linearGradient>
</defs>
</svg>
