<svg viewBox="0 0 15 17" fill="none" xmlns="http://www.w3.org/2000/svg">
<path d="M9.17038 4.00538C8.9529 4.00538 8.77167 3.82414 8.77167 3.60666V2.1205C8.77167 1.39554 8.17357 0.797453 7.44861 0.797453C6.72366 0.797453 6.12556 1.39554 6.12556 2.1205V3.60666C6.12556 3.82414 5.94433 4.00538 5.72684 4.00538C5.50936 4.00538 5.32812 3.82414 5.32812 3.60666V2.1205C5.32812 0.942445 6.28868 0 7.44861 0C8.62667 0 9.5691 0.960569 9.5691 2.1205V3.60666C9.5691 3.82414 9.38787 4.00538 9.17038 4.00538Z" fill="#FFA6A6"/>
<path d="M12.9041 16.9993H1.95731C1.73982 16.9993 1.55859 16.8181 1.55859 16.6006V3.60576C1.55859 3.38827 1.73982 3.20703 1.95731 3.20703H12.9041C13.1216 3.20703 13.3029 3.38827 13.3029 3.60576V16.6006C13.321 16.8181 13.1398 16.9993 12.9041 16.9993ZM2.37417 16.1837H12.5054V4.00448H2.37417V16.1837Z" fill="#FFA6A6"/>
<path d="M14.2091 4.00448H0.398717C0.18123 4.00448 0 3.82324 0 3.60576C0 3.38827 0.18123 3.20703 0.398717 3.20703H14.2091C14.4266 3.20703 14.6079 3.38827 14.6079 3.60576C14.626 3.82324 14.4448 4.00448 14.2091 4.00448Z" fill="#FFA6A6"/>
<path d="M5.65262 14.734C5.43514 14.734 5.25391 14.5527 5.25391 14.3352V5.87138C5.25391 5.65389 5.43514 5.47266 5.65262 5.47266C5.87011 5.47266 6.05136 5.65389 6.05136 5.87138V14.3352C6.05136 14.5527 5.87011 14.734 5.65262 14.734Z" fill="#FFA6A6"/>
<path d="M9.22296 14.734C9.00547 14.734 8.82422 14.5527 8.82422 14.3352V5.87138C8.82422 5.65389 9.00547 5.47266 9.22296 5.47266C9.44044 5.47266 9.62167 5.65389 9.62167 5.87138V14.3352C9.6398 14.5527 9.45857 14.734 9.22296 14.734Z" fill="#FFA6A6"/>
</svg>
