<svg width="72" height="72" viewBox="0 0 72 72" fill="none" xmlns="http://www.w3.org/2000/svg">
<g filter="url(#filter0_d)">
<circle cx="36" cy="34" r="31" stroke="white" stroke-width="2"/>
<path d="M48.8976 25.6537C47.4814 18.6454 40.573 14.0966 33.4673 15.4934C28.2701 16.5151 24.2063 20.5206 23.1672 25.6459C18.129 26.2185 14.515 30.7109 15.0953 35.6803C15.6296 40.2538 19.5571 43.7043 24.2248 43.7011H30.7842C31.5088 43.7011 32.0961 43.1218 32.0961 42.4072C32.0961 41.6925 31.5088 41.1132 30.7842 41.1132H24.2248C20.6019 41.0921 17.6828 38.1786 17.7039 34.6057C17.7253 31.0327 20.6793 28.1533 24.3023 28.1741C24.9709 28.1744 25.5326 27.6781 25.6062 27.0228C26.2722 21.3438 31.48 17.2726 37.238 17.9295C42.0788 18.482 45.8975 22.248 46.4574 27.0228C46.5674 27.6898 47.1535 28.1785 47.8387 28.1741C51.4617 28.1741 54.3984 31.0706 54.3984 34.6438C54.3984 38.2168 51.4617 41.1132 47.8387 41.1132H41.2794C40.5548 41.1132 39.9674 41.6925 39.9674 42.4072C39.9674 43.1218 40.5548 43.7011 41.2794 43.7011H47.8391C52.9105 43.6699 56.9964 39.5899 56.965 34.5877C56.9362 30.0325 53.4819 26.2072 48.8976 25.6537Z" fill="white"/>
<path d="M40.6684 38.4608C41.1719 38.9751 42.0024 38.9893 42.5235 38.4927C43.0446 37.9964 43.059 37.1773 42.5558 36.6633C42.5453 36.6523 42.5344 36.6419 42.5235 36.6315L36.9597 31.1427C36.4482 30.6366 35.6174 30.6357 35.1042 31.1402C35.1036 31.1411 35.1026 31.1417 35.102 31.1427L29.5382 36.6315C29.0171 37.1278 29.0027 37.9469 29.5059 38.4608C30.0094 38.9748 30.8399 38.989 31.361 38.4927C31.3719 38.4823 31.3828 38.4716 31.3933 38.4608L34.7191 35.1794V51.4647C34.7191 52.1793 35.3064 52.7586 36.031 52.7586C36.7553 52.7586 37.3426 52.1793 37.3426 51.4647V35.1794L40.6684 38.4608Z" fill="white"/>
</g>
<defs>
<filter id="filter0_d" x="0" y="0" width="72" height="72" filterUnits="userSpaceOnUse" color-interpolation-filters="sRGB">
<feFlood flood-opacity="0" result="BackgroundImageFix"/>
<feColorMatrix in="SourceAlpha" type="matrix" values="0 0 0 0 0 0 0 0 0 0 0 0 0 0 0 0 0 0 127 0"/>
<feOffset dy="2"/>
<feGaussianBlur stdDeviation="2"/>
<feColorMatrix type="matrix" values="0 0 0 0 0 0 0 0 0 0 0 0 0 0 0 0 0 0 0.16 0"/>
<feBlend mode="normal" in2="BackgroundImageFix" result="effect1_dropShadow"/>
<feBlend mode="normal" in="SourceGraphic" in2="effect1_dropShadow" result="shape"/>
</filter>
</defs>
</svg>
