<svg width="48" height="48" viewBox="0 0 48 48" fill="none" xmlns="http://www.w3.org/2000/svg">
<path fill-rule="evenodd" clip-rule="evenodd" d="M22.7821 11.8964C23.4545 11.235 24.4914 11.235 25.1638 11.8964L30.9638 17.6013C31.2394 17.8724 31.2431 18.3156 30.972 18.5913C30.7009 18.8669 30.2577 18.8705 29.9821 18.5994L24.1821 12.8945C24.0545 12.769 23.8914 12.769 23.7638 12.8945L17.9638 18.5994C17.6882 18.8705 17.245 18.8669 16.9739 18.5913C16.7028 18.3156 16.7065 17.8724 16.9821 17.6013L22.7821 11.8964Z" fill="white"/>
<path fill-rule="evenodd" clip-rule="evenodd" d="M23.9998 11.7517C24.3864 11.7517 24.6998 12.0651 24.6998 12.4517V27.9517C24.6998 28.3383 24.3864 28.6517 23.9998 28.6517C23.6132 28.6517 23.2998 28.3383 23.2998 27.9517V12.4517C23.2998 12.0651 23.6132 11.7517 23.9998 11.7517Z" fill="white"/>
<path fill-rule="evenodd" clip-rule="evenodd" d="M13.9583 27.3167C14.3449 27.3167 14.6583 27.6301 14.6583 28.0167V33.5167C14.6583 34.5301 15.4449 35.3167 16.4583 35.3167H31.4583C32.4717 35.3167 33.2583 34.5301 33.2583 33.5167V28.0167C33.2583 27.6301 33.5717 27.3167 33.9583 27.3167C34.3449 27.3167 34.6583 27.6301 34.6583 28.0167V33.5167C34.6583 35.3032 33.2449 36.7167 31.4583 36.7167H16.4583C14.6717 36.7167 13.2583 35.3032 13.2583 33.5167V28.0167C13.2583 27.6301 13.5717 27.3167 13.9583 27.3167Z" fill="white"/>
</svg>
