<svg viewBox="0 0 15 20" fill="none" xmlns="http://www.w3.org/2000/svg">
<path d="M7.5 19.0385C7.43852 19.0385 7.37705 19.0182 7.31557 18.998C7.0082 18.8562 0 15.6966 0 11.6054V2.08613C0 1.96461 0.0614754 1.82283 0.184426 1.74182C0.266393 1.68106 2.47951 0 7.5 0C12.5205 0 14.7336 1.68106 14.8156 1.74182C14.918 1.82283 15 1.96461 15 2.10638V11.6256C15 15.7169 7.9918 18.8764 7.68443 18.998C7.62295 19.0182 7.56148 19.0385 7.5 19.0385ZM0.922131 2.34943V11.6256C0.922131 14.8054 6.41393 17.5599 7.5 18.0865C8.58607 17.5599 14.0779 14.8054 14.0779 11.6256V2.34943C13.4836 1.98486 11.3934 0.911416 7.5 0.911416C3.60656 0.911416 1.4959 1.98486 0.922131 2.34943Z" fill="#FFA54B"/>
<path d="M6.93588 10.9626V5.36377H8.06663V10.9626H6.93588ZM6.83203 13.3464V12.0123H8.17047V13.3464H6.83203Z" fill="#FFA54B"/>
</svg>
