<svg width="24" height="24" viewBox="0 0 24 24" fill="none" xmlns="http://www.w3.org/2000/svg">
<path fill-rule="evenodd" clip-rule="evenodd" d="M13.5797 5.85714L18.9466 16.5772C19.5131 17.7443 18.6658 19.124 17.3525 19.124H6.64736C5.33403 19.124 4.48673 17.7443 5.05331 16.5772L5.05598 16.5717L10.4202 5.85714C11.0612 4.54632 12.9386 4.54632 13.5797 5.85714ZM12.682 6.2977C12.4068 5.7328 11.5931 5.7328 11.3179 6.2977L11.3155 6.30259L5.95174 17.0163C5.70699 17.5248 6.07994 18.124 6.64736 18.124H17.3525C17.9199 18.124 18.2929 17.5248 18.0481 17.0163L12.682 6.2977Z" fill="currentColor"/>
<path d="M11.25 16.2832C11.25 16.6974 11.5858 17.0332 12 17.0332C12.4142 17.0332 12.75 16.6974 12.75 16.2832C12.75 15.869 12.4142 15.5332 12 15.5332C11.5858 15.5332 11.25 15.869 11.25 16.2832Z" fill="currentColor"/>
<path fill-rule="evenodd" clip-rule="evenodd" d="M12 9.05811C12.2761 9.05811 12.5 9.28196 12.5 9.55811V14.0581C12.5 14.3342 12.2761 14.5581 12 14.5581C11.7239 14.5581 11.5 14.3342 11.5 14.0581V9.55811C11.5 9.28196 11.7239 9.05811 12 9.05811Z" fill="currentColor"/>
</svg>
