<svg width="24" height="24" viewBox="0 0 24 24" fill="none" xmlns="http://www.w3.org/2000/svg">
<circle cx="12" cy="12" r="12" fill="#FF4141"/>
<path d="M11.296 15.312L10.888 4.152H13.768L13.408 16.296L11.296 15.312ZM12.328 17.808C12.76 17.808 13.136 17.968 13.456 18.288C13.776 18.592 13.936 18.968 13.936 19.416C13.936 19.848 13.776 20.224 13.456 20.544C13.136 20.848 12.76 21 12.328 21C11.896 21 11.52 20.848 11.2 20.544C10.88 20.224 10.72 19.848 10.72 19.416C10.72 18.968 10.88 18.592 11.2 18.288C11.52 17.968 11.896 17.808 12.328 17.808Z" fill="white"/>
</svg>
