<svg width="19" height="22" viewBox="0 0 19 22" fill="none" xmlns="http://www.w3.org/2000/svg">
<g clip-path="url(#clip0_3457:28014)">
<path d="M9.45475 22C9.38371 22 9.31268 21.9766 9.24164 21.9532C8.88645 21.7894 0.788086 18.1383 0.788086 13.4106V2.41064C0.788086 2.27021 0.859124 2.10638 1.0012 2.01277C1.09592 1.94255 3.65329 0 9.45475 0C15.2562 0 17.8136 1.94255 17.9083 2.01277C18.0267 2.10638 18.1214 2.27021 18.1214 2.43404V13.434C18.1214 18.1617 10.0231 21.8128 9.66787 21.9532C9.59683 21.9766 9.52579 22 9.45475 22ZM1.85366 2.71489V13.434C1.85366 17.1085 8.19974 20.2915 9.45475 20.9C10.7098 20.2915 17.0558 17.1085 17.0558 13.434V2.71489C16.3691 2.29362 13.9538 1.05319 9.45475 1.05319C4.95566 1.05319 2.51668 2.29362 1.85366 2.71489Z" fill="#DB1B1B"/>
<path d="M8.80262 12.4265V5.59985H10.1093V12.4265H8.80262ZM8.68262 15.3332V13.7065H10.2293V15.3332H8.68262Z" fill="#DB1B1B"/>
</g>
<defs>
<clipPath id="clip0_3457:28014">
<rect width="17.3333" height="22" fill="white" transform="translate(0.788086)"/>
</clipPath>
</defs>
</svg>
