<svg viewBox="0 0 18 18" fill="none" xmlns="http://www.w3.org/2000/svg">
<path d="M9.00016 18C4.0405 18 0 13.9596 0 9C0 4.04043 4.0405 0 9.00016 0C13.9598 0 18.0003 4.04043 18.0003 9C18.0003 13.9596 13.9598 18 9.00016 18ZM9.00016 0.861702C4.51923 0.861702 0.861717 4.51915 0.861717 9C0.861717 13.4809 4.51923 17.1383 9.00016 17.1383C13.4811 17.1383 17.1386 13.4809 17.1386 9C17.1386 4.51915 13.4811 0.861702 9.00016 0.861702Z" fill="#9BE7C4"/>
<path d="M9.00014 13.5766C8.77035 13.5766 8.57886 13.3852 8.57886 13.1554V4.86388C8.57886 4.6341 8.77035 4.44261 9.00014 4.44261C9.22993 4.44261 9.42142 4.6341 9.42142 4.86388V13.1554C9.42142 13.3852 9.22993 13.5766 9.00014 13.5766Z" fill="#9BE7C4"/>
<path d="M13.1365 9.42121H4.86403C4.63424 9.42121 4.44275 9.22972 4.44275 8.99993C4.44275 8.77014 4.63424 8.57866 4.86403 8.57866H13.1557C13.3855 8.57866 13.577 8.77014 13.577 8.99993C13.577 9.22972 13.3855 9.42121 13.1365 9.42121Z" fill="#9BE7C4"/>
</svg>
