<svg viewBox="0 0 512 512" fill="none" xmlns="http://www.w3.org/2000/svg">
<g clip-path="url(#clip0)">
<path d="M475.074 0H36.9258C16.5312 0 0 16.5312 0 36.9258V475.074C0 495.469 16.5312 512 36.9258 512H475.074C495.469 512 512 495.469 512 475.074V36.9258C512 16.5312 495.469 0 475.074 0V0ZM181.609 387H119.262V199.426H181.609V387ZM150.438 173.812H150.031C129.109 173.812 115.578 159.41 115.578 141.41C115.578 123.004 129.523 109 150.852 109C172.18 109 185.305 123.004 185.711 141.41C185.711 159.41 172.18 173.812 150.438 173.812ZM406.422 387H344.082V286.652C344.082 261.434 335.055 244.234 312.496 244.234C295.273 244.234 285.016 255.836 280.508 267.035C278.859 271.043 278.457 276.645 278.457 282.25V387H216.113C216.113 387 216.93 217.023 216.113 199.426H278.457V225.984C286.742 213.203 301.566 195.023 334.645 195.023C375.664 195.023 406.422 221.832 406.422 279.445V387Z" fill="white"/>
</g>
<defs>
<clipPath id="clip0">
<rect width="512" height="512" fill="white"/>
</clipPath>
</defs>
</svg>
