<svg width="48" height="48" viewBox="0 0 48 48" fill="none" xmlns="http://www.w3.org/2000/svg">
<path fill-rule="evenodd" clip-rule="evenodd" d="M36.6792 9.34483C35.8546 8.51312 34.5037 8.51312 33.6792 9.34483L33.6764 9.3476L11.3264 31.6412L9.79633 36.2259L14.5813 34.6777L36.6792 12.388C37.507 11.553 37.507 10.1799 36.6792 9.34483ZM32.6863 8.35779C34.0587 6.975 36.3016 6.97546 37.6734 8.35917C39.0423 9.73997 39.0423 11.9929 37.6734 13.3737L15.336 35.905L9.85988 37.6768L9.83751 37.6824C8.91451 37.9152 8.11366 37.0852 8.33786 36.1806L8.34453 36.1537L10.1032 30.8839L32.685 8.35917C32.6854 8.35871 32.6859 8.35825 32.6863 8.35779Z" fill="#FFC78F"/>
<path fill-rule="evenodd" clip-rule="evenodd" d="M11.887 31.2115C11.7606 30.8516 11.3684 30.6585 11.0052 30.7795C10.6384 30.9018 10.4402 31.2982 10.5625 31.665L11.2266 31.4436C10.5625 31.665 10.5626 31.6654 10.5628 31.6659L10.5631 31.6668L10.5638 31.6689L10.5653 31.6733L10.569 31.6838C10.5718 31.6916 10.5752 31.7007 10.5792 31.7113C10.5873 31.7324 10.598 31.7591 10.612 31.7911C10.6398 31.8551 10.6802 31.9402 10.737 32.0444C10.8508 32.253 11.0299 32.5371 11.3049 32.8809C11.8552 33.5687 12.7858 34.4911 14.3383 35.526C14.6599 35.7405 15.0945 35.6536 15.309 35.3319C15.5234 35.0102 15.4365 34.5756 15.1148 34.3612C13.6673 33.3961 12.8479 32.5685 12.3982 32.0063C12.1732 31.7251 12.0398 31.5092 11.9661 31.374C11.9292 31.3064 11.9071 31.2587 11.8958 31.2328C11.8909 31.2215 11.8881 31.2143 11.887 31.2115Z" fill="#FFC78F"/>
<path fill-rule="evenodd" clip-rule="evenodd" d="M30.7373 10.4389C30.9131 10.0946 31.3348 9.95804 31.6791 10.1339L31.3607 10.7573C31.6791 10.1339 31.6789 10.1337 31.6791 10.1339L31.681 10.1349L31.6838 10.1363L31.6918 10.1405L31.7173 10.154C31.7384 10.1653 31.7676 10.1813 31.8042 10.202C31.8774 10.2434 31.9804 10.3038 32.1075 10.384C32.3617 10.5444 32.7135 10.7845 33.1177 11.1106C33.925 11.7619 34.9497 12.763 35.8204 14.1649C36.0244 14.4933 35.9235 14.9249 35.5951 15.1288C35.2666 15.3328 34.8351 15.2319 34.6311 14.9035C33.8617 13.6646 32.9539 12.7772 32.2387 12.2003C31.8817 11.9122 31.5747 11.7033 31.3605 11.5681C31.2534 11.5005 31.1698 11.4516 31.1149 11.4205C31.0875 11.405 31.0673 11.394 31.0549 11.3874L31.0425 11.3808C31.0424 11.3807 31.0426 11.3808 31.0425 11.3808" fill="#FFC78F"/>
<path fill-rule="evenodd" clip-rule="evenodd" d="M8.2998 39.979C8.2998 39.5924 8.61321 39.279 8.9998 39.279H38.9998C39.3864 39.279 39.6998 39.5924 39.6998 39.979C39.6998 40.3656 39.3864 40.679 38.9998 40.679H8.9998C8.61321 40.679 8.2998 40.3656 8.2998 39.979Z" fill="#FFC78F"/>
</svg>
