<svg width="24" height="24" viewBox="0 0 24 24" fill="none" xmlns="http://www.w3.org/2000/svg">
<path fill-rule="evenodd" clip-rule="evenodd" d="M19.3536 4.64645C19.5488 4.84171 19.5488 5.15829 19.3536 5.35355L5.35355 19.3536C5.15829 19.5488 4.84171 19.5488 4.64645 19.3536C4.45118 19.1583 4.45118 18.8417 4.64645 18.6464L18.6464 4.64645C18.8417 4.45118 19.1583 4.45118 19.3536 4.64645Z" fill="white"/>
<path fill-rule="evenodd" clip-rule="evenodd" d="M11.8746 6.25C6.50835 6.25 3.75428 10.1355 2.85119 11.6837L2.84881 11.6878C2.72055 11.903 2.71194 12.1902 2.85377 12.4469C3.75304 13.9867 6.53071 17.75 11.8746 17.75H12.1254C17.4989 17.75 20.2518 13.9803 21.1488 12.4425L21.1512 12.4385C21.2797 12.2229 21.2881 11.935 21.1455 11.678C20.2432 10.1077 17.4896 6.25 12.1254 6.25H11.8746ZM1.98848 11.178C2.94255 9.54305 5.95693 5.25 11.8746 5.25H12.1254C18.0442 5.25 21.059 9.51904 22.0143 11.1828L22.0172 11.1879L22.0172 11.188C22.3243 11.7377 22.3328 12.4073 22.0115 12.9482C21.0514 14.5935 18.0358 18.75 12.1254 18.75H11.8746C5.98759 18.75 2.94681 14.5912 1.9874 12.9464L1.98272 12.9383L1.98279 12.9383C1.67569 12.3886 1.66722 11.719 1.98848 11.178Z" fill="white"/>
<path fill-rule="evenodd" clip-rule="evenodd" d="M12 8.75C10.2051 8.75 8.75 10.2051 8.75 12C8.75 13.7949 10.2051 15.25 12 15.25C13.7949 15.25 15.25 13.7949 15.25 12C15.25 10.2051 13.7949 8.75 12 8.75ZM7.75 12C7.75 9.65279 9.65279 7.75 12 7.75C14.3472 7.75 16.25 9.65279 16.25 12C16.25 14.3472 14.3472 16.25 12 16.25C9.65279 16.25 7.75 14.3472 7.75 12Z" fill="white"/>
</svg>
