<svg viewBox="0 0 156 156" fill="none" xmlns="http://www.w3.org/2000/svg">
<path d="M97.1191 78.8755C97.1191 75.5353 99.7916 72.863 103.132 72.863C106.473 72.863 109.145 75.5353 109.145 78.8755C109.145 82.2158 106.473 84.888 103.132 84.888C99.7916 84.888 97.1191 82.1044 97.1191 78.8755Z" fill="white"/>
<path opacity="0.85" d="M133.422 93.461C133.199 95.3538 132.976 97.2466 132.419 99.0281C130.749 105.375 127.074 111.164 121.061 114.393C112.821 118.624 103.022 117.066 94.7818 113.837C87.9892 118.624 87.9892 118.624 87.9892 118.624C86.4302 119.626 84.4259 117.956 85.3167 116.286C83.4237 116.62 82.8669 114.839 83.4237 113.391C81.8647 114.616 80.5285 112.389 81.4193 111.053C81.9761 110.162 82.8669 109.16 83.535 108.381C73.9586 102.925 65.273 96.2446 56.4761 89.6754C61.487 92.793 81.5307 103.036 86.4302 105.152C91.5525 107.379 96.6748 109.606 102.02 110.83C106.474 111.832 112.153 112.389 116.273 109.828C120.059 107.601 121.507 103.036 122.063 98.9168C123.4 90.0094 120.282 79.9886 115.605 72.4173C110.705 64.512 102.688 57.3861 93.5569 55.0479C90.2163 54.1572 86.8756 54.1572 83.7577 54.7139C76.5197 55.9386 69.9499 60.3923 64.9389 65.9595C57.7009 73.9761 52.69 83.8856 48.1245 93.6837C45.0066 100.253 40.6638 116.286 30.4193 109.94C25.8537 107.045 22.9585 102.034 20.9542 97.1353C18.7271 91.9022 17.1681 84.8876 18.6157 79.2092C21.7337 67.2956 38.4367 77.8731 44.1158 81.6587C43.7817 81.5474 30.4193 75.4235 25.5197 80.2113C23.2926 82.4381 23.404 86.4464 23.738 89.3413C24.4061 94.5744 26.9673 102.368 31.8669 105.263C38.214 108.938 41.4433 97.4693 43.1136 93.461C45.8974 86.6691 48.5699 79.8772 51.6878 73.1967C55.1398 65.8481 59.2599 58.6109 64.9389 52.7097C63.7141 51.2623 61.9324 49.4808 61.821 47.588C61.5983 45.4725 63.714 43.1343 65.9411 44.2477C63.38 41.3528 66.832 37.0105 70.1726 38.6806C68.6136 36.2311 71.0634 33.1135 73.6245 33.2248C75.0721 33.2248 76.5197 34.4496 77.6333 35.229C80.5285 37.1218 83.4237 39.126 86.4302 41.0188C114.157 36.6764 135.871 68.1863 133.422 93.461Z" fill="white"/>
<path d="M132.42 99.0291C130.75 105.376 127.075 111.165 121.062 114.394C112.822 118.625 103.022 117.067 94.7823 113.838C87.9897 118.625 87.9897 118.625 87.9897 118.625C86.4307 119.627 84.4264 117.957 85.3172 116.287C83.4242 116.621 82.8674 114.84 83.4242 113.392C81.8652 114.617 80.529 112.39 81.4198 111.054C81.9766 110.163 82.8674 109.161 83.5355 108.382C73.9591 102.926 65.2735 96.2456 56.4766 89.6764C61.4875 92.794 81.5312 103.037 86.4307 105.153C91.553 107.38 96.6753 109.607 102.02 110.831C106.474 111.833 112.153 112.39 116.274 109.829C120.06 107.602 121.507 103.037 122.064 98.9178C123.4 90.0104 120.282 79.9896 115.605 72.4183C110.706 64.513 102.688 57.3871 93.5574 55.0489C90.2168 54.1582 86.8762 54.1582 83.7583 54.7149C96.2299 50.9292 120.282 55.9396 128.745 75.2019C132.754 84.666 133.533 92.2372 132.42 99.0291Z" fill="white"/>
</svg>
