<svg width="347" height="182" viewBox="0 0 347 182" fill="none" xmlns="http://www.w3.org/2000/svg">
<rect opacity="0.15" width="347" height="182" rx="2" fill="#F5F5F5"/>
<path d="M129.969 146V136.732H131.341V146H129.969ZM126.861 137.012V135.78H134.449V137.012H126.861ZM140.141 146V143.76H139.917V141.17C139.917 140.657 139.782 140.269 139.511 140.008C139.25 139.747 138.862 139.616 138.349 139.616C138.06 139.616 137.761 139.621 137.453 139.63C137.145 139.639 136.851 139.649 136.571 139.658C136.291 139.667 136.048 139.681 135.843 139.7V138.524C136.048 138.505 136.263 138.491 136.487 138.482C136.72 138.463 136.958 138.454 137.201 138.454C137.444 138.445 137.677 138.44 137.901 138.44C138.666 138.44 139.292 138.533 139.777 138.72C140.262 138.897 140.622 139.191 140.855 139.602C141.088 140.013 141.205 140.568 141.205 141.268V146H140.141ZM137.691 146.196C137.131 146.196 136.646 146.103 136.235 145.916C135.834 145.72 135.521 145.44 135.297 145.076C135.082 144.712 134.975 144.273 134.975 143.76C134.975 143.228 135.092 142.785 135.325 142.43C135.568 142.075 135.918 141.809 136.375 141.632C136.832 141.445 137.383 141.352 138.027 141.352H140.057V142.36H137.971C137.43 142.36 137.014 142.491 136.725 142.752C136.436 143.013 136.291 143.349 136.291 143.76C136.291 144.171 136.436 144.502 136.725 144.754C137.014 145.006 137.43 145.132 137.971 145.132C138.288 145.132 138.592 145.076 138.881 144.964C139.17 144.843 139.408 144.647 139.595 144.376C139.791 144.096 139.898 143.713 139.917 143.228L140.281 143.76C140.234 144.292 140.104 144.74 139.889 145.104C139.684 145.459 139.394 145.729 139.021 145.916C138.657 146.103 138.214 146.196 137.691 146.196ZM143.672 148.8V138.524H144.736V141.758L144.484 141.73C144.53 140.927 144.698 140.274 144.988 139.77C145.286 139.257 145.674 138.879 146.15 138.636C146.626 138.393 147.144 138.272 147.704 138.272C148.245 138.272 148.735 138.375 149.174 138.58C149.622 138.785 150.004 139.065 150.322 139.42C150.639 139.775 150.882 140.185 151.05 140.652C151.218 141.119 151.302 141.613 151.302 142.136V142.388C151.302 142.911 151.213 143.405 151.036 143.872C150.858 144.339 150.606 144.749 150.28 145.104C149.962 145.459 149.58 145.739 149.132 145.944C148.693 146.149 148.208 146.252 147.676 146.252C147.144 146.252 146.635 146.135 146.15 145.902C145.664 145.669 145.263 145.291 144.946 144.768C144.628 144.245 144.446 143.559 144.4 142.71L145.016 143.83V148.8H143.672ZM147.466 145.076C147.97 145.076 148.408 144.959 148.782 144.726C149.155 144.483 149.444 144.152 149.65 143.732C149.855 143.303 149.958 142.813 149.958 142.262C149.958 141.702 149.855 141.212 149.65 140.792C149.444 140.372 149.155 140.045 148.782 139.812C148.408 139.569 147.97 139.448 147.466 139.448C147.018 139.448 146.602 139.551 146.22 139.756C145.837 139.952 145.529 140.241 145.296 140.624C145.072 140.997 144.96 141.45 144.96 141.982V142.626C144.96 143.139 145.076 143.578 145.31 143.942C145.543 144.306 145.851 144.586 146.234 144.782C146.616 144.978 147.027 145.076 147.466 145.076ZM159.422 146.084C158.862 146.084 158.376 146.005 157.966 145.846C157.564 145.687 157.252 145.417 157.028 145.034C156.813 144.642 156.706 144.115 156.706 143.452V136.256H157.994V143.62C157.994 144.021 158.101 144.334 158.316 144.558C158.54 144.773 158.852 144.88 159.254 144.88H160.57V146.084H159.422ZM155.418 139.532V138.524H160.57V139.532H155.418ZM165.86 146.252C165.207 146.252 164.633 146.14 164.138 145.916C163.643 145.692 163.223 145.398 162.878 145.034C162.542 144.661 162.285 144.245 162.108 143.788C161.94 143.331 161.856 142.864 161.856 142.388V142.136C161.856 141.66 161.945 141.193 162.122 140.736C162.299 140.269 162.561 139.854 162.906 139.49C163.251 139.117 163.671 138.823 164.166 138.608C164.661 138.384 165.225 138.272 165.86 138.272C166.495 138.272 167.059 138.384 167.554 138.608C168.049 138.823 168.469 139.117 168.814 139.49C169.159 139.854 169.421 140.269 169.598 140.736C169.775 141.193 169.864 141.66 169.864 142.136V142.388C169.864 142.864 169.775 143.331 169.598 143.788C169.43 144.245 169.173 144.661 168.828 145.034C168.492 145.398 168.077 145.692 167.582 145.916C167.087 146.14 166.513 146.252 165.86 146.252ZM165.86 145.048C166.42 145.048 166.896 144.927 167.288 144.684C167.689 144.432 167.993 144.096 168.198 143.676C168.413 143.256 168.52 142.785 168.52 142.262C168.52 141.73 168.413 141.254 168.198 140.834C167.983 140.414 167.675 140.083 167.274 139.84C166.882 139.597 166.411 139.476 165.86 139.476C165.319 139.476 164.847 139.597 164.446 139.84C164.045 140.083 163.737 140.414 163.522 140.834C163.307 141.254 163.2 141.73 163.2 142.262C163.2 142.785 163.303 143.256 163.508 143.676C163.723 144.096 164.026 144.432 164.418 144.684C164.819 144.927 165.3 145.048 165.86 145.048ZM177.652 146.224C176.766 146.224 176.084 145.935 175.608 145.356C175.132 144.777 174.894 143.942 174.894 142.85V138.51H176.238V143.116C176.238 143.704 176.397 144.166 176.714 144.502C177.032 144.829 177.461 144.992 178.002 144.992C178.562 144.992 179.02 144.815 179.374 144.46C179.729 144.096 179.906 143.601 179.906 142.976V138.51H181.25V146H180.186V142.794H180.354C180.354 143.531 180.256 144.157 180.06 144.67C179.864 145.174 179.57 145.561 179.178 145.832C178.796 146.093 178.306 146.224 177.708 146.224H177.652ZM183.853 146V138.524H184.917V141.73H184.749C184.749 140.993 184.847 140.372 185.043 139.868C185.249 139.355 185.557 138.967 185.967 138.706C186.378 138.435 186.896 138.3 187.521 138.3H187.577C188.52 138.3 189.215 138.594 189.663 139.182C190.121 139.77 190.349 140.619 190.349 141.73V146H189.005V141.45C189.005 140.871 188.842 140.409 188.515 140.064C188.189 139.709 187.741 139.532 187.171 139.532C186.583 139.532 186.107 139.714 185.743 140.078C185.379 140.442 185.197 140.927 185.197 141.534V146H183.853ZM192.893 146V135.78H194.237V146H192.893ZM191.857 136.844V135.78H194.237V136.844H191.857ZM200.258 146.252C199.605 146.252 199.031 146.14 198.536 145.916C198.042 145.692 197.622 145.398 197.276 145.034C196.94 144.661 196.684 144.245 196.506 143.788C196.338 143.331 196.254 142.864 196.254 142.388V142.136C196.254 141.66 196.343 141.193 196.52 140.736C196.698 140.269 196.959 139.854 197.304 139.49C197.65 139.117 198.07 138.823 198.564 138.608C199.059 138.384 199.624 138.272 200.258 138.272C200.893 138.272 201.458 138.384 201.952 138.608C202.447 138.823 202.867 139.117 203.212 139.49C203.558 139.854 203.819 140.269 203.996 140.736C204.174 141.193 204.262 141.66 204.262 142.136V142.388C204.262 142.864 204.174 143.331 203.996 143.788C203.828 144.245 203.572 144.661 203.226 145.034C202.89 145.398 202.475 145.692 201.98 145.916C201.486 146.14 200.912 146.252 200.258 146.252ZM200.258 145.048C200.818 145.048 201.294 144.927 201.686 144.684C202.088 144.432 202.391 144.096 202.596 143.676C202.811 143.256 202.918 142.785 202.918 142.262C202.918 141.73 202.811 141.254 202.596 140.834C202.382 140.414 202.074 140.083 201.672 139.84C201.28 139.597 200.809 139.476 200.258 139.476C199.717 139.476 199.246 139.597 198.844 139.84C198.443 140.083 198.135 140.414 197.92 140.834C197.706 141.254 197.598 141.73 197.598 142.262C197.598 142.785 197.701 143.256 197.906 143.676C198.121 144.096 198.424 144.432 198.816 144.684C199.218 144.927 199.698 145.048 200.258 145.048ZM209.481 146.252C208.837 146.252 208.277 146.14 207.801 145.916C207.335 145.692 206.947 145.393 206.639 145.02C206.331 144.637 206.098 144.217 205.939 143.76C205.79 143.303 205.715 142.845 205.715 142.388V142.136C205.715 141.66 205.79 141.193 205.939 140.736C206.098 140.279 206.331 139.868 206.639 139.504C206.957 139.131 207.349 138.832 207.815 138.608C208.282 138.384 208.828 138.272 209.453 138.272C210.079 138.272 210.639 138.389 211.133 138.622C211.637 138.855 212.039 139.187 212.337 139.616C212.645 140.036 212.818 140.535 212.855 141.114H211.567C211.502 140.647 211.287 140.26 210.923 139.952C210.559 139.635 210.069 139.476 209.453 139.476C208.921 139.476 208.478 139.597 208.123 139.84C207.769 140.083 207.503 140.414 207.325 140.834C207.148 141.254 207.059 141.73 207.059 142.262C207.059 142.775 207.148 143.247 207.325 143.676C207.503 144.096 207.769 144.432 208.123 144.684C208.487 144.927 208.94 145.048 209.481 145.048C209.901 145.048 210.265 144.973 210.573 144.824C210.881 144.675 211.129 144.474 211.315 144.222C211.502 143.97 211.614 143.685 211.651 143.368H212.939C212.911 143.956 212.739 144.465 212.421 144.894C212.113 145.323 211.703 145.659 211.189 145.902C210.685 146.135 210.116 146.252 209.481 146.252ZM219.918 146L217.104 142.514H215.872L219.302 138.524H220.716L217.608 142.122L217.706 141.408L221.472 146H219.918ZM214.766 146V135.78H216.11V146H214.766Z" fill="white"/>
<g filter="url(#filter0_f_3591_21040)">
<path d="M63.652 31V23.524H64.996V31H63.652ZM62.504 24.588V23.524H64.996V24.588H62.504ZM64.03 22.32C63.7313 22.32 63.5073 22.2407 63.358 22.082C63.218 21.9233 63.148 21.7227 63.148 21.48C63.148 21.2373 63.218 21.0367 63.358 20.878C63.5073 20.7193 63.7313 20.64 64.03 20.64C64.3287 20.64 64.548 20.7193 64.688 20.878C64.8373 21.0367 64.912 21.2373 64.912 21.48C64.912 21.7227 64.8373 21.9233 64.688 22.082C64.548 22.2407 64.3287 22.32 64.03 22.32ZM67.5946 31V23.524H68.6586V26.73H68.4906C68.4906 25.9927 68.5886 25.372 68.7846 24.868C68.99 24.3547 69.298 23.9673 69.7086 23.706C70.1193 23.4353 70.6373 23.3 71.2626 23.3H71.3186C72.2613 23.3 72.9566 23.594 73.4046 24.182C73.862 24.77 74.0906 25.6193 74.0906 26.73V31H72.7466V26.45C72.7466 25.8713 72.5833 25.4093 72.2566 25.064C71.93 24.7093 71.482 24.532 70.9126 24.532C70.3246 24.532 69.8486 24.714 69.4846 25.078C69.1206 25.442 68.9386 25.9273 68.9386 26.534V31H67.5946ZM79.4617 31.084C78.9017 31.084 78.4164 31.0047 78.0057 30.846C77.6044 30.6873 77.2917 30.4167 77.0677 30.034C76.8531 29.642 76.7457 29.1147 76.7457 28.452V21.256H78.0337V28.62C78.0337 29.0213 78.1411 29.334 78.3557 29.558C78.5797 29.7727 78.8924 29.88 79.2937 29.88H80.6097V31.084H79.4617ZM75.4577 24.532V23.524H80.6097V24.532H75.4577ZM85.634 31.252C84.9806 31.252 84.416 31.14 83.94 30.916C83.464 30.692 83.0766 30.398 82.778 30.034C82.4793 29.6607 82.2553 29.2453 82.106 28.788C81.966 28.3307 81.896 27.864 81.896 27.388V27.136C81.896 26.6507 81.966 26.1793 82.106 25.722C82.2553 25.2647 82.4793 24.854 82.778 24.49C83.0766 24.1167 83.4546 23.8227 83.912 23.608C84.3786 23.384 84.9246 23.272 85.55 23.272C86.362 23.272 87.0293 23.4493 87.552 23.804C88.084 24.1493 88.476 24.5973 88.728 25.148C88.9893 25.6987 89.12 26.2867 89.12 26.912V27.514H82.484V26.506H88.14L87.832 27.052C87.832 26.52 87.748 26.0627 87.58 25.68C87.412 25.288 87.16 24.9847 86.824 24.77C86.488 24.5553 86.0633 24.448 85.55 24.448C85.018 24.448 84.5746 24.5693 84.22 24.812C83.8746 25.0547 83.6133 25.386 83.436 25.806C83.268 26.226 83.184 26.7113 83.184 27.262C83.184 27.794 83.268 28.2747 83.436 28.704C83.6133 29.124 83.884 29.46 84.248 29.712C84.612 29.9547 85.074 30.076 85.634 30.076C86.222 30.076 86.698 29.9453 87.062 29.684C87.4353 29.4227 87.6593 29.1193 87.734 28.774H88.994C88.8913 29.2873 88.686 29.7307 88.378 30.104C88.07 30.4773 87.6826 30.762 87.216 30.958C86.7493 31.154 86.222 31.252 85.634 31.252ZM91.0282 31V23.524H92.0922V26.604H92.0362C92.0362 25.512 92.2742 24.714 92.7502 24.21C93.2356 23.6967 93.9589 23.44 94.9202 23.44H95.1722V24.644H94.6962C93.9496 24.644 93.3756 24.8447 92.9742 25.246C92.5729 25.638 92.3722 26.2073 92.3722 26.954V31H91.0282ZM96.7704 31V23.524H97.8344V26.73H97.6664C97.6664 25.9927 97.7644 25.372 97.9604 24.868C98.1658 24.3547 98.4738 23.9673 98.8844 23.706C99.2951 23.4353 99.8131 23.3 100.438 23.3H100.494C101.437 23.3 102.132 23.594 102.58 24.182C103.038 24.77 103.266 25.6193 103.266 26.73V31H101.922V26.45C101.922 25.8713 101.759 25.4093 101.432 25.064C101.106 24.7093 100.658 24.532 100.088 24.532C99.5004 24.532 99.0244 24.714 98.6604 25.078C98.2964 25.442 98.1144 25.9273 98.1144 26.534V31H96.7704ZM108.904 31.252C108.25 31.252 107.686 31.14 107.21 30.916C106.734 30.692 106.346 30.398 106.048 30.034C105.749 29.6607 105.525 29.2453 105.376 28.788C105.236 28.3307 105.166 27.864 105.166 27.388V27.136C105.166 26.6507 105.236 26.1793 105.376 25.722C105.525 25.2647 105.749 24.854 106.048 24.49C106.346 24.1167 106.724 23.8227 107.182 23.608C107.648 23.384 108.194 23.272 108.82 23.272C109.632 23.272 110.299 23.4493 110.822 23.804C111.354 24.1493 111.746 24.5973 111.998 25.148C112.259 25.6987 112.39 26.2867 112.39 26.912V27.514H105.754V26.506H111.41L111.102 27.052C111.102 26.52 111.018 26.0627 110.85 25.68C110.682 25.288 110.43 24.9847 110.094 24.77C109.758 24.5553 109.333 24.448 108.82 24.448C108.288 24.448 107.844 24.5693 107.49 24.812C107.144 25.0547 106.883 25.386 106.706 25.806C106.538 26.226 106.454 26.7113 106.454 27.262C106.454 27.794 106.538 28.2747 106.706 28.704C106.883 29.124 107.154 29.46 107.518 29.712C107.882 29.9547 108.344 30.076 108.904 30.076C109.492 30.076 109.968 29.9453 110.332 29.684C110.705 29.4227 110.929 29.1193 111.004 28.774H112.264C112.161 29.2873 111.956 29.7307 111.648 30.104C111.34 30.4773 110.952 30.762 110.486 30.958C110.019 31.154 109.492 31.252 108.904 31.252ZM117.21 31.084C116.65 31.084 116.164 31.0047 115.754 30.846C115.352 30.6873 115.04 30.4167 114.816 30.034C114.601 29.642 114.494 29.1147 114.494 28.452V21.256H115.782V28.62C115.782 29.0213 115.889 29.334 116.104 29.558C116.328 29.7727 116.64 29.88 117.042 29.88H118.358V31.084H117.21ZM113.206 24.532V23.524H118.358V24.532H113.206ZM63.288 59.8V49.524H64.352V52.758L64.1 52.73C64.1467 51.9273 64.3147 51.274 64.604 50.77C64.9027 50.2567 65.29 49.8787 65.766 49.636C66.242 49.3933 66.76 49.272 67.32 49.272C67.8613 49.272 68.3513 49.3747 68.79 49.58C69.238 49.7853 69.6207 50.0653 69.938 50.42C70.2553 50.7747 70.498 51.1853 70.666 51.652C70.834 52.1187 70.918 52.6133 70.918 53.136V53.388C70.918 53.9107 70.8293 54.4053 70.652 54.872C70.4747 55.3387 70.2227 55.7493 69.896 56.104C69.5787 56.4587 69.196 56.7387 68.748 56.944C68.3093 57.1493 67.824 57.252 67.292 57.252C66.76 57.252 66.2513 57.1353 65.766 56.902C65.2807 56.6687 64.8793 56.2907 64.562 55.768C64.2447 55.2453 64.0627 54.5593 64.016 53.71L64.632 54.83V59.8H63.288ZM67.082 56.076C67.586 56.076 68.0247 55.9593 68.398 55.726C68.7713 55.4833 69.0607 55.152 69.266 54.732C69.4713 54.3027 69.574 53.8127 69.574 53.262C69.574 52.702 69.4713 52.212 69.266 51.792C69.0607 51.372 68.7713 51.0453 68.398 50.812C68.0247 50.5693 67.586 50.448 67.082 50.448C66.634 50.448 66.2187 50.5507 65.836 50.756C65.4533 50.952 65.1453 51.2413 64.912 51.624C64.688 51.9973 64.576 52.45 64.576 52.982V53.626C64.576 54.1393 64.6927 54.578 64.926 54.942C65.1593 55.306 65.4673 55.586 65.85 55.782C66.2327 55.978 66.6433 56.076 67.082 56.076ZM72.9403 57V49.524H74.0043V52.604H73.9483C73.9483 51.512 74.1863 50.714 74.6623 50.21C75.1477 49.6967 75.871 49.44 76.8323 49.44H77.0843V50.644H76.6083C75.8617 50.644 75.2877 50.8447 74.8863 51.246C74.485 51.638 74.2843 52.2073 74.2843 52.954V57H72.9403ZM79.0465 57V49.524H80.3905V57H79.0465ZM77.8985 50.588V49.524H80.3905V50.588H77.8985ZM79.4245 48.32C79.1259 48.32 78.9019 48.2407 78.7525 48.082C78.6125 47.9233 78.5425 47.7227 78.5425 47.48C78.5425 47.2373 78.6125 47.0367 78.7525 46.878C78.9019 46.7193 79.1259 46.64 79.4245 46.64C79.7232 46.64 79.9425 46.7193 80.0825 46.878C80.2319 47.0367 80.3065 47.2373 80.3065 47.48C80.3065 47.7227 80.2319 47.9233 80.0825 48.082C79.9425 48.2407 79.7232 48.32 79.4245 48.32ZM86.4332 57.252C85.7798 57.252 85.2058 57.14 84.7112 56.916C84.2165 56.692 83.7965 56.398 83.4512 56.034C83.1152 55.6607 82.8585 55.2453 82.6812 54.788C82.5132 54.3307 82.4292 53.864 82.4292 53.388V53.136C82.4292 52.66 82.5178 52.1933 82.6952 51.736C82.8725 51.2693 83.1338 50.854 83.4792 50.49C83.8245 50.1167 84.2445 49.8227 84.7392 49.608C85.2338 49.384 85.7985 49.272 86.4332 49.272C87.0678 49.272 87.6325 49.384 88.1272 49.608C88.6218 49.8227 89.0418 50.1167 89.3872 50.49C89.7325 50.854 89.9938 51.2693 90.1712 51.736C90.3485 52.1933 90.4372 52.66 90.4372 53.136V53.388C90.4372 53.864 90.3485 54.3307 90.1712 54.788C90.0032 55.2453 89.7465 55.6607 89.4012 56.034C89.0652 56.398 88.6498 56.692 88.1552 56.916C87.6605 57.14 87.0865 57.252 86.4332 57.252ZM86.4332 56.048C86.9932 56.048 87.4692 55.9267 87.8612 55.684C88.2625 55.432 88.5658 55.096 88.7712 54.676C88.9858 54.256 89.0932 53.7847 89.0932 53.262C89.0932 52.73 88.9858 52.254 88.7712 51.834C88.5565 51.414 88.2485 51.0827 87.8472 50.84C87.4552 50.5973 86.9838 50.476 86.4332 50.476C85.8918 50.476 85.4205 50.5973 85.0192 50.84C84.6178 51.0827 84.3098 51.414 84.0952 51.834C83.8805 52.254 83.7732 52.73 83.7732 53.262C83.7732 53.7847 83.8758 54.256 84.0812 54.676C84.2958 55.096 84.5992 55.432 84.9912 55.684C85.3925 55.9267 85.8732 56.048 86.4332 56.048ZM92.4501 57V49.524H93.5141V52.604H93.4581C93.4581 51.512 93.6961 50.714 94.1721 50.21C94.6574 49.6967 95.3808 49.44 96.3421 49.44H96.5941V50.644H96.1181C95.3714 50.644 94.7974 50.8447 94.3961 51.246C93.9948 51.638 93.7941 52.2073 93.7941 52.954V57H92.4501ZM98.5563 57V49.524H99.9003V57H98.5563ZM97.4083 50.588V49.524H99.9003V50.588H97.4083ZM98.9343 48.32C98.6356 48.32 98.4116 48.2407 98.2623 48.082C98.1223 47.9233 98.0523 47.7227 98.0523 47.48C98.0523 47.2373 98.1223 47.0367 98.2623 46.878C98.4116 46.7193 98.6356 46.64 98.9343 46.64C99.233 46.64 99.4523 46.7193 99.5923 46.878C99.7416 47.0367 99.8163 47.2373 99.8163 47.48C99.8163 47.7227 99.7416 47.9233 99.5923 48.082C99.4523 48.2407 99.233 48.32 98.9343 48.32ZM105.411 57.084C104.851 57.084 104.366 57.0047 103.955 56.846C103.554 56.6873 103.241 56.4167 103.017 56.034C102.802 55.642 102.695 55.1147 102.695 54.452V47.256H103.983V54.62C103.983 55.0213 104.09 55.334 104.305 55.558C104.529 55.7727 104.842 55.88 105.243 55.88H106.559V57.084H105.411ZM101.407 50.532V49.524H106.559V50.532H101.407ZM107.956 59.912V58.708H109.034C109.351 58.708 109.617 58.666 109.832 58.582C110.056 58.5073 110.238 58.3767 110.378 58.19C110.527 58.0033 110.649 57.756 110.742 57.448L113.094 49.524H114.41L111.918 57.798C111.769 58.2927 111.559 58.694 111.288 59.002C111.017 59.3193 110.686 59.548 110.294 59.688C109.911 59.8373 109.463 59.912 108.95 59.912H107.956ZM110.238 56.832V55.712H111.862V56.832H110.238ZM110.098 56.832L107.424 49.524H108.796L111.358 56.832H110.098ZM63.288 85.8V75.524H64.352V78.758L64.1 78.73C64.1467 77.9273 64.3147 77.274 64.604 76.77C64.9027 76.2567 65.29 75.8787 65.766 75.636C66.242 75.3933 66.76 75.272 67.32 75.272C67.8613 75.272 68.3513 75.3747 68.79 75.58C69.238 75.7853 69.6207 76.0653 69.938 76.42C70.2553 76.7747 70.498 77.1853 70.666 77.652C70.834 78.1187 70.918 78.6133 70.918 79.136V79.388C70.918 79.9107 70.8293 80.4053 70.652 80.872C70.4747 81.3387 70.2227 81.7493 69.896 82.104C69.5787 82.4587 69.196 82.7387 68.748 82.944C68.3093 83.1493 67.824 83.252 67.292 83.252C66.76 83.252 66.2513 83.1353 65.766 82.902C65.2807 82.6687 64.8793 82.2907 64.562 81.768C64.2447 81.2453 64.0627 80.5593 64.016 79.71L64.632 80.83V85.8H63.288ZM67.082 82.076C67.586 82.076 68.0247 81.9593 68.398 81.726C68.7713 81.4833 69.0607 81.152 69.266 80.732C69.4713 80.3027 69.574 79.8127 69.574 79.262C69.574 78.702 69.4713 78.212 69.266 77.792C69.0607 77.372 68.7713 77.0453 68.398 76.812C68.0247 76.5693 67.586 76.448 67.082 76.448C66.634 76.448 66.2187 76.5507 65.836 76.756C65.4533 76.952 65.1453 77.2413 64.912 77.624C64.688 77.9973 64.576 78.45 64.576 78.982V79.626C64.576 80.1393 64.6927 80.578 64.926 80.942C65.1593 81.306 65.4673 81.586 65.85 81.782C66.2327 81.978 66.6433 82.076 67.082 82.076ZM77.4623 83V80.76H77.2383V78.17C77.2383 77.6567 77.103 77.2693 76.8323 77.008C76.571 76.7467 76.1837 76.616 75.6703 76.616C75.381 76.616 75.0823 76.6207 74.7743 76.63C74.4663 76.6393 74.1723 76.6487 73.8923 76.658C73.6123 76.6673 73.3697 76.6813 73.1643 76.7V75.524C73.3697 75.5053 73.5843 75.4913 73.8083 75.482C74.0417 75.4633 74.2797 75.454 74.5223 75.454C74.765 75.4447 74.9983 75.44 75.2223 75.44C75.9877 75.44 76.613 75.5333 77.0983 75.72C77.5837 75.8973 77.943 76.1913 78.1763 76.602C78.4097 77.0127 78.5263 77.568 78.5263 78.268V83H77.4623ZM75.0123 83.196C74.4523 83.196 73.967 83.1027 73.5563 82.916C73.155 82.72 72.8423 82.44 72.6183 82.076C72.4037 81.712 72.2963 81.2733 72.2963 80.76C72.2963 80.228 72.413 79.7847 72.6463 79.43C72.889 79.0753 73.239 78.8093 73.6963 78.632C74.1537 78.4453 74.7043 78.352 75.3483 78.352H77.3783V79.36H75.2923C74.751 79.36 74.3357 79.4907 74.0463 79.752C73.757 80.0133 73.6123 80.3493 73.6123 80.76C73.6123 81.1707 73.757 81.502 74.0463 81.754C74.3357 82.006 74.751 82.132 75.2923 82.132C75.6097 82.132 75.913 82.076 76.2023 81.964C76.4917 81.8427 76.7297 81.6467 76.9163 81.376C77.1123 81.096 77.2197 80.7133 77.2383 80.228L77.6023 80.76C77.5557 81.292 77.425 81.74 77.2103 82.104C77.005 82.4587 76.7157 82.7293 76.3423 82.916C75.9783 83.1027 75.535 83.196 75.0123 83.196ZM83.4431 83.224C82.4631 83.224 81.7024 83.014 81.1611 82.594C80.6291 82.174 80.3537 81.6 80.3351 80.872H81.5951C81.6137 81.1613 81.7584 81.4367 82.0291 81.698C82.3091 81.95 82.7804 82.076 83.4431 82.076C84.0404 82.076 84.4977 81.9593 84.8151 81.726C85.1324 81.4833 85.2911 81.1893 85.2911 80.844C85.2911 80.536 85.1744 80.298 84.9411 80.13C84.7077 79.9527 84.3297 79.836 83.8071 79.78L82.9951 79.696C82.2857 79.6213 81.7071 79.4113 81.2591 79.066C80.8111 78.7113 80.5871 78.2167 80.5871 77.582C80.5871 77.106 80.7084 76.7 80.9511 76.364C81.1937 76.0187 81.5297 75.7573 81.9591 75.58C82.3884 75.3933 82.8831 75.3 83.4431 75.3C84.2831 75.3 84.9644 75.4867 85.4871 75.86C86.0097 76.2333 86.2804 76.7887 86.2991 77.526H85.0391C85.0297 77.2273 84.8897 76.9753 84.6191 76.77C84.3577 76.5553 83.9657 76.448 83.4431 76.448C82.9204 76.448 82.5237 76.5553 82.2531 76.77C81.9824 76.9847 81.8471 77.2553 81.8471 77.582C81.8471 77.862 81.9404 78.086 82.1271 78.254C82.3231 78.422 82.6404 78.5293 83.0791 78.576L83.8911 78.66C84.6937 78.744 85.3377 78.968 85.8231 79.332C86.3084 79.6867 86.5511 80.1907 86.5511 80.844C86.5511 81.3107 86.4157 81.726 86.1451 82.09C85.8837 82.4447 85.5197 82.7247 85.0531 82.93C84.5864 83.126 84.0497 83.224 83.4431 83.224ZM90.9489 83.224C89.9689 83.224 89.2083 83.014 88.6669 82.594C88.1349 82.174 87.8596 81.6 87.8409 80.872H89.1009C89.1196 81.1613 89.2643 81.4367 89.5349 81.698C89.8149 81.95 90.2863 82.076 90.9489 82.076C91.5463 82.076 92.0036 81.9593 92.3209 81.726C92.6383 81.4833 92.7969 81.1893 92.7969 80.844C92.7969 80.536 92.6803 80.298 92.4469 80.13C92.2136 79.9527 91.8356 79.836 91.3129 79.78L90.5009 79.696C89.7916 79.6213 89.2129 79.4113 88.7649 79.066C88.3169 78.7113 88.0929 78.2167 88.0929 77.582C88.0929 77.106 88.2143 76.7 88.4569 76.364C88.6996 76.0187 89.0356 75.7573 89.4649 75.58C89.8943 75.3933 90.3889 75.3 90.9489 75.3C91.7889 75.3 92.4703 75.4867 92.9929 75.86C93.5156 76.2333 93.7863 76.7887 93.8049 77.526H92.5449C92.5356 77.2273 92.3956 76.9753 92.1249 76.77C91.8636 76.5553 91.4716 76.448 90.9489 76.448C90.4263 76.448 90.0296 76.5553 89.7589 76.77C89.4883 76.9847 89.3529 77.2553 89.3529 77.582C89.3529 77.862 89.4463 78.086 89.6329 78.254C89.8289 78.422 90.1463 78.5293 90.5849 78.576L91.3969 78.66C92.1996 78.744 92.8436 78.968 93.3289 79.332C93.8143 79.6867 94.0569 80.1907 94.0569 80.844C94.0569 81.3107 93.9216 81.726 93.6509 82.09C93.3896 82.4447 93.0256 82.7247 92.5589 82.93C92.0923 83.126 91.5556 83.224 90.9489 83.224ZM96.3688 83V75.524H97.7128V83H96.3688ZM95.2208 76.588V75.524H97.7128V76.588H95.2208ZM96.7468 74.32C96.4481 74.32 96.2241 74.2407 96.0748 74.082C95.9348 73.9233 95.8648 73.7227 95.8648 73.48C95.8648 73.2373 95.9348 73.0367 96.0748 72.878C96.2241 72.7193 96.4481 72.64 96.7468 72.64C97.0455 72.64 97.2648 72.7193 97.4048 72.878C97.5541 73.0367 97.6288 73.2373 97.6288 73.48C97.6288 73.7227 97.5541 73.9233 97.4048 74.082C97.2648 74.2407 97.0455 74.32 96.7468 74.32ZM103.755 83.252C103.102 83.252 102.528 83.14 102.033 82.916C101.539 82.692 101.119 82.398 100.773 82.034C100.437 81.6607 100.181 81.2453 100.003 80.788C99.8354 80.3307 99.7514 79.864 99.7514 79.388V79.136C99.7514 78.66 99.8401 78.1933 100.017 77.736C100.195 77.2693 100.456 76.854 100.801 76.49C101.147 76.1167 101.567 75.8227 102.061 75.608C102.556 75.384 103.121 75.272 103.755 75.272C104.39 75.272 104.955 75.384 105.449 75.608C105.944 75.8227 106.364 76.1167 106.709 76.49C107.055 76.854 107.316 77.2693 107.493 77.736C107.671 78.1933 107.759 78.66 107.759 79.136V79.388C107.759 79.864 107.671 80.3307 107.493 80.788C107.325 81.2453 107.069 81.6607 106.723 82.034C106.387 82.398 105.972 82.692 105.477 82.916C104.983 83.14 104.409 83.252 103.755 83.252ZM103.755 82.048C104.315 82.048 104.791 81.9267 105.183 81.684C105.585 81.432 105.888 81.096 106.093 80.676C106.308 80.256 106.415 79.7847 106.415 79.262C106.415 78.73 106.308 78.254 106.093 77.834C105.879 77.414 105.571 77.0827 105.169 76.84C104.777 76.5973 104.306 76.476 103.755 76.476C103.214 76.476 102.743 76.5973 102.341 76.84C101.94 77.0827 101.632 77.414 101.417 77.834C101.203 78.254 101.095 78.73 101.095 79.262C101.095 79.7847 101.198 80.256 101.403 80.676C101.618 81.096 101.921 81.432 102.313 81.684C102.715 81.9267 103.195 82.048 103.755 82.048ZM109.772 83V75.524H110.836V78.73H110.668C110.668 77.9927 110.766 77.372 110.962 76.868C111.168 76.3547 111.476 75.9673 111.886 75.706C112.297 75.4353 112.815 75.3 113.44 75.3H113.496C114.439 75.3 115.134 75.594 115.582 76.182C116.04 76.77 116.268 77.6193 116.268 78.73V83H114.924V78.45C114.924 77.8713 114.761 77.4093 114.434 77.064C114.108 76.7093 113.66 76.532 113.09 76.532C112.502 76.532 112.026 76.714 111.662 77.078C111.298 77.442 111.116 77.9273 111.116 78.534V83H109.772ZM65.738 109.224C64.758 109.224 63.9973 109.014 63.456 108.594C62.924 108.174 62.6487 107.6 62.63 106.872H63.89C63.9087 107.161 64.0533 107.437 64.324 107.698C64.604 107.95 65.0753 108.076 65.738 108.076C66.3353 108.076 66.7927 107.959 67.11 107.726C67.4273 107.483 67.586 107.189 67.586 106.844C67.586 106.536 67.4693 106.298 67.236 106.13C67.0027 105.953 66.6247 105.836 66.102 105.78L65.29 105.696C64.5807 105.621 64.002 105.411 63.554 105.066C63.106 104.711 62.882 104.217 62.882 103.582C62.882 103.106 63.0033 102.7 63.246 102.364C63.4887 102.019 63.8247 101.757 64.254 101.58C64.6833 101.393 65.178 101.3 65.738 101.3C66.578 101.3 67.2593 101.487 67.782 101.86C68.3047 102.233 68.5753 102.789 68.594 103.526H67.334C67.3247 103.227 67.1847 102.975 66.914 102.77C66.6527 102.555 66.2607 102.448 65.738 102.448C65.2153 102.448 64.8187 102.555 64.548 102.77C64.2773 102.985 64.142 103.255 64.142 103.582C64.142 103.862 64.2353 104.086 64.422 104.254C64.618 104.422 64.9353 104.529 65.374 104.576L66.186 104.66C66.9887 104.744 67.6327 104.968 68.118 105.332C68.6033 105.687 68.846 106.191 68.846 106.844C68.846 107.311 68.7107 107.726 68.44 108.09C68.1787 108.445 67.8147 108.725 67.348 108.93C66.8813 109.126 66.3447 109.224 65.738 109.224ZM75.9459 109L73.1319 105.514H71.8999L75.3299 101.524H76.7439L73.6359 105.122L73.7339 104.408L77.4999 109H75.9459ZM70.7939 109V98.78H72.1379V109H70.7939ZM79.1833 109V101.524H80.5273V109H79.1833ZM78.0353 102.588V101.524H80.5273V102.588H78.0353ZM79.5613 100.32C79.2626 100.32 79.0386 100.241 78.8893 100.082C78.7493 99.9233 78.6793 99.7227 78.6793 99.48C78.6793 99.2373 78.7493 99.0367 78.8893 98.878C79.0386 98.7193 79.2626 98.64 79.5613 98.64C79.8599 98.64 80.0793 98.7193 80.2193 98.878C80.3686 99.0367 80.4433 99.2373 80.4433 99.48C80.4433 99.7227 80.3686 99.9233 80.2193 100.082C80.0793 100.241 79.8599 100.32 79.5613 100.32ZM83.2099 109V98.78H84.5539V109H83.2099ZM82.1739 99.844V98.78H84.5539V99.844H82.1739ZM87.2158 109V98.78H88.5598V109H87.2158ZM86.1798 99.844V98.78H88.5598V99.844H86.1798ZM66.466 135.252C65.8127 135.252 65.248 135.14 64.772 134.916C64.296 134.692 63.9087 134.398 63.61 134.034C63.3113 133.661 63.0873 133.245 62.938 132.788C62.798 132.331 62.728 131.864 62.728 131.388V131.136C62.728 130.651 62.798 130.179 62.938 129.722C63.0873 129.265 63.3113 128.854 63.61 128.49C63.9087 128.117 64.2867 127.823 64.744 127.608C65.2107 127.384 65.7567 127.272 66.382 127.272C67.194 127.272 67.8613 127.449 68.384 127.804C68.916 128.149 69.308 128.597 69.56 129.148C69.8213 129.699 69.952 130.287 69.952 130.912V131.514H63.316V130.506H68.972L68.664 131.052C68.664 130.52 68.58 130.063 68.412 129.68C68.244 129.288 67.992 128.985 67.656 128.77C67.32 128.555 66.8953 128.448 66.382 128.448C65.85 128.448 65.4067 128.569 65.052 128.812C64.7067 129.055 64.4453 129.386 64.268 129.806C64.1 130.226 64.016 130.711 64.016 131.262C64.016 131.794 64.1 132.275 64.268 132.704C64.4453 133.124 64.716 133.46 65.08 133.712C65.444 133.955 65.906 134.076 66.466 134.076C67.054 134.076 67.53 133.945 67.894 133.684C68.2673 133.423 68.4913 133.119 68.566 132.774H69.826C69.7233 133.287 69.518 133.731 69.21 134.104C68.902 134.477 68.5147 134.762 68.048 134.958C67.5813 135.154 67.054 135.252 66.466 135.252ZM71.8603 135V127.524H72.9243V130.73H72.7563C72.7563 130.002 72.8496 129.386 73.0363 128.882C73.2323 128.369 73.5216 127.977 73.9043 127.706C74.2869 127.435 74.7723 127.3 75.3603 127.3H75.4163C76.0043 127.3 76.4896 127.435 76.8723 127.706C77.2643 127.977 77.5536 128.369 77.7403 128.882C77.9269 129.386 78.0203 130.002 78.0203 130.73H77.6283C77.6283 130.002 77.7263 129.386 77.9223 128.882C78.1183 128.369 78.4076 127.977 78.7903 127.706C79.1823 127.435 79.6723 127.3 80.2603 127.3H80.3163C80.9043 127.3 81.3943 127.435 81.7863 127.706C82.1783 127.977 82.4676 128.369 82.6543 128.882C82.8503 129.386 82.9483 130.002 82.9483 130.73V135H81.6043V130.436C81.6043 129.829 81.4549 129.363 81.1563 129.036C80.8576 128.7 80.4423 128.532 79.9103 128.532C79.3596 128.532 78.9163 128.709 78.5803 129.064C78.2443 129.409 78.0763 129.895 78.0763 130.52V135H76.7323V130.436C76.7323 129.829 76.5829 129.363 76.2843 129.036C75.9856 128.7 75.5703 128.532 75.0383 128.532C74.4876 128.532 74.0443 128.709 73.7083 129.064C73.3723 129.409 73.2043 129.895 73.2043 130.52V135H71.8603ZM85.4091 137.8V127.524H86.4731V130.758L86.2211 130.73C86.2678 129.927 86.4358 129.274 86.7251 128.77C87.0238 128.257 87.4111 127.879 87.8871 127.636C88.3631 127.393 88.8811 127.272 89.4411 127.272C89.9824 127.272 90.4724 127.375 90.9111 127.58C91.3591 127.785 91.7418 128.065 92.0591 128.42C92.3764 128.775 92.6191 129.185 92.7871 129.652C92.9551 130.119 93.0391 130.613 93.0391 131.136V131.388C93.0391 131.911 92.9504 132.405 92.7731 132.872C92.5958 133.339 92.3438 133.749 92.0171 134.104C91.6998 134.459 91.3171 134.739 90.8691 134.944C90.4304 135.149 89.9451 135.252 89.4131 135.252C88.8811 135.252 88.3724 135.135 87.8871 134.902C87.4018 134.669 87.0004 134.291 86.6831 133.768C86.3658 133.245 86.1838 132.559 86.1371 131.71L86.7531 132.83V137.8H85.4091ZM89.2031 134.076C89.7071 134.076 90.1458 133.959 90.5191 133.726C90.8924 133.483 91.1818 133.152 91.3871 132.732C91.5924 132.303 91.6951 131.813 91.6951 131.262C91.6951 130.702 91.5924 130.212 91.3871 129.792C91.1818 129.372 90.8924 129.045 90.5191 128.812C90.1458 128.569 89.7071 128.448 89.2031 128.448C88.7551 128.448 88.3398 128.551 87.9571 128.756C87.5744 128.952 87.2664 129.241 87.0331 129.624C86.8091 129.997 86.6971 130.45 86.6971 130.982V131.626C86.6971 132.139 86.8138 132.578 87.0471 132.942C87.2804 133.306 87.5884 133.586 87.9711 133.782C88.3538 133.978 88.7644 134.076 89.2031 134.076ZM95.1454 135V124.78H96.4894V135H95.1454ZM94.1094 125.844V124.78H96.4894V125.844H94.1094ZM102.511 135.252C101.858 135.252 101.284 135.14 100.789 134.916C100.295 134.692 99.8746 134.398 99.5293 134.034C99.1933 133.661 98.9366 133.245 98.7593 132.788C98.5913 132.331 98.5073 131.864 98.5073 131.388V131.136C98.5073 130.66 98.596 130.193 98.7733 129.736C98.9506 129.269 99.212 128.854 99.5573 128.49C99.9026 128.117 100.323 127.823 100.817 127.608C101.312 127.384 101.877 127.272 102.511 127.272C103.146 127.272 103.711 127.384 104.205 127.608C104.7 127.823 105.12 128.117 105.465 128.49C105.811 128.854 106.072 129.269 106.249 129.736C106.427 130.193 106.515 130.66 106.515 131.136V131.388C106.515 131.864 106.427 132.331 106.249 132.788C106.081 133.245 105.825 133.661 105.479 134.034C105.143 134.398 104.728 134.692 104.233 134.916C103.739 135.14 103.165 135.252 102.511 135.252ZM102.511 134.048C103.071 134.048 103.547 133.927 103.939 133.684C104.341 133.432 104.644 133.096 104.849 132.676C105.064 132.256 105.171 131.785 105.171 131.262C105.171 130.73 105.064 130.254 104.849 129.834C104.635 129.414 104.327 129.083 103.925 128.84C103.533 128.597 103.062 128.476 102.511 128.476C101.97 128.476 101.499 128.597 101.097 128.84C100.696 129.083 100.388 129.414 100.173 129.834C99.9586 130.254 99.8513 130.73 99.8513 131.262C99.8513 131.785 99.954 132.256 100.159 132.676C100.374 133.096 100.677 133.432 101.069 133.684C101.471 133.927 101.951 134.048 102.511 134.048ZM107.888 137.912V136.708H108.966C109.283 136.708 109.549 136.666 109.764 136.582C109.988 136.507 110.17 136.377 110.31 136.19C110.459 136.003 110.58 135.756 110.674 135.448L113.026 127.524H114.342L111.85 135.798C111.7 136.293 111.49 136.694 111.22 137.002C110.949 137.319 110.618 137.548 110.226 137.688C109.843 137.837 109.395 137.912 108.882 137.912H107.888ZM110.17 134.832V133.712H111.794V134.832H110.17ZM110.03 134.832L107.356 127.524H108.728L111.29 134.832H110.03ZM119.089 135.252C118.436 135.252 117.871 135.14 117.395 134.916C116.919 134.692 116.532 134.398 116.233 134.034C115.934 133.661 115.71 133.245 115.561 132.788C115.421 132.331 115.351 131.864 115.351 131.388V131.136C115.351 130.651 115.421 130.179 115.561 129.722C115.71 129.265 115.934 128.854 116.233 128.49C116.532 128.117 116.91 127.823 117.367 127.608C117.834 127.384 118.38 127.272 119.005 127.272C119.817 127.272 120.484 127.449 121.007 127.804C121.539 128.149 121.931 128.597 122.183 129.148C122.444 129.699 122.575 130.287 122.575 130.912V131.514H115.939V130.506H121.595L121.287 131.052C121.287 130.52 121.203 130.063 121.035 129.68C120.867 129.288 120.615 128.985 120.279 128.77C119.943 128.555 119.518 128.448 119.005 128.448C118.473 128.448 118.03 128.569 117.675 128.812C117.33 129.055 117.068 129.386 116.891 129.806C116.723 130.226 116.639 130.711 116.639 131.262C116.639 131.794 116.723 132.275 116.891 132.704C117.068 133.124 117.339 133.46 117.703 133.712C118.067 133.955 118.529 134.076 119.089 134.076C119.677 134.076 120.153 133.945 120.517 133.684C120.89 133.423 121.114 133.119 121.189 132.774H122.449C122.346 133.287 122.141 133.731 121.833 134.104C121.525 134.477 121.138 134.762 120.671 134.958C120.204 135.154 119.677 135.252 119.089 135.252ZM124.483 135V127.524H125.547V130.604H125.491C125.491 129.512 125.729 128.714 126.205 128.21C126.691 127.697 127.414 127.44 128.375 127.44H128.627V128.644H128.151C127.405 128.644 126.831 128.845 126.429 129.246C126.028 129.638 125.827 130.207 125.827 130.954V135H124.483ZM66.494 161.252C65.85 161.252 65.29 161.14 64.814 160.916C64.3473 160.692 63.96 160.393 63.652 160.02C63.344 159.637 63.1107 159.217 62.952 158.76C62.8027 158.303 62.728 157.845 62.728 157.388V157.136C62.728 156.66 62.8027 156.193 62.952 155.736C63.1107 155.279 63.344 154.868 63.652 154.504C63.9693 154.131 64.3613 153.832 64.828 153.608C65.2947 153.384 65.8407 153.272 66.466 153.272C67.0913 153.272 67.6513 153.389 68.146 153.622C68.65 153.855 69.0513 154.187 69.35 154.616C69.658 155.036 69.8307 155.535 69.868 156.114H68.58C68.5147 155.647 68.3 155.26 67.936 154.952C67.572 154.635 67.082 154.476 66.466 154.476C65.934 154.476 65.4907 154.597 65.136 154.84C64.7813 155.083 64.5153 155.414 64.338 155.834C64.1607 156.254 64.072 156.73 64.072 157.262C64.072 157.775 64.1607 158.247 64.338 158.676C64.5153 159.096 64.7813 159.432 65.136 159.684C65.5 159.927 65.9527 160.048 66.494 160.048C66.914 160.048 67.278 159.973 67.586 159.824C67.894 159.675 68.1413 159.474 68.328 159.222C68.5147 158.97 68.6267 158.685 68.664 158.368H69.952C69.924 158.956 69.7513 159.465 69.434 159.894C69.126 160.323 68.7153 160.659 68.202 160.902C67.698 161.135 67.1287 161.252 66.494 161.252ZM74.3682 161.224C73.4816 161.224 72.8002 160.935 72.3242 160.356C71.8482 159.777 71.6102 158.942 71.6102 157.85V153.51H72.9542V158.116C72.9542 158.704 73.1129 159.166 73.4302 159.502C73.7476 159.829 74.1769 159.992 74.7182 159.992C75.2782 159.992 75.7356 159.815 76.0902 159.46C76.4449 159.096 76.6222 158.601 76.6222 157.976V153.51H77.9662V161H76.9022V157.794H77.0702C77.0702 158.531 76.9722 159.157 76.7762 159.67C76.5802 160.174 76.2862 160.561 75.8942 160.832C75.5116 161.093 75.0216 161.224 74.4242 161.224H74.3682ZM80.5693 161V153.524H81.6333V156.604H81.5773C81.5773 155.512 81.8153 154.714 82.2913 154.21C82.7766 153.697 83.4999 153.44 84.4613 153.44H84.7133V154.644H84.2373C83.4906 154.644 82.9166 154.845 82.5153 155.246C82.1139 155.638 81.9133 156.207 81.9133 156.954V161H80.5693ZM86.3114 161V153.524H87.3754V156.604H87.3194C87.3194 155.512 87.5574 154.714 88.0334 154.21C88.5188 153.697 89.2421 153.44 90.2034 153.44H90.4554V154.644H89.9794C89.2328 154.644 88.6588 154.845 88.2574 155.246C87.8561 155.638 87.6554 156.207 87.6554 156.954V161H86.3114ZM95.1496 161.252C94.4963 161.252 93.9316 161.14 93.4556 160.916C92.9796 160.692 92.5923 160.398 92.2936 160.034C91.9949 159.661 91.7709 159.245 91.6216 158.788C91.4816 158.331 91.4116 157.864 91.4116 157.388V157.136C91.4116 156.651 91.4816 156.179 91.6216 155.722C91.7709 155.265 91.9949 154.854 92.2936 154.49C92.5923 154.117 92.9703 153.823 93.4276 153.608C93.8943 153.384 94.4403 153.272 95.0656 153.272C95.8776 153.272 96.5449 153.449 97.0676 153.804C97.5996 154.149 97.9916 154.597 98.2436 155.148C98.5049 155.699 98.6356 156.287 98.6356 156.912V157.514H91.9996V156.506H97.6556L97.3476 157.052C97.3476 156.52 97.2636 156.063 97.0956 155.68C96.9276 155.288 96.6756 154.985 96.3396 154.77C96.0036 154.555 95.5789 154.448 95.0656 154.448C94.5336 154.448 94.0903 154.569 93.7356 154.812C93.3903 155.055 93.1289 155.386 92.9516 155.806C92.7836 156.226 92.6996 156.711 92.6996 157.262C92.6996 157.794 92.7836 158.275 92.9516 158.704C93.1289 159.124 93.3996 159.46 93.7636 159.712C94.1276 159.955 94.5896 160.076 95.1496 160.076C95.7376 160.076 96.2136 159.945 96.5776 159.684C96.9509 159.423 97.1749 159.119 97.2496 158.774H98.5096C98.4069 159.287 98.2016 159.731 97.8936 160.104C97.5856 160.477 97.1983 160.762 96.7316 160.958C96.2649 161.154 95.7376 161.252 95.1496 161.252ZM100.544 161V153.524H101.608V156.73H101.44C101.44 155.993 101.538 155.372 101.734 154.868C101.939 154.355 102.247 153.967 102.658 153.706C103.069 153.435 103.587 153.3 104.212 153.3H104.268C105.211 153.3 105.906 153.594 106.354 154.182C106.811 154.77 107.04 155.619 107.04 156.73V161H105.696V156.45C105.696 155.871 105.533 155.409 105.206 155.064C104.879 154.709 104.431 154.532 103.862 154.532C103.274 154.532 102.798 154.714 102.434 155.078C102.07 155.442 101.888 155.927 101.888 156.534V161H100.544ZM112.705 161.252C112.061 161.252 111.501 161.14 111.025 160.916C110.558 160.692 110.171 160.393 109.863 160.02C109.555 159.637 109.322 159.217 109.163 158.76C109.014 158.303 108.939 157.845 108.939 157.388V157.136C108.939 156.66 109.014 156.193 109.163 155.736C109.322 155.279 109.555 154.868 109.863 154.504C110.18 154.131 110.572 153.832 111.039 153.608C111.506 153.384 112.052 153.272 112.677 153.272C113.302 153.272 113.862 153.389 114.357 153.622C114.861 153.855 115.262 154.187 115.561 154.616C115.869 155.036 116.042 155.535 116.079 156.114H114.791C114.726 155.647 114.511 155.26 114.147 154.952C113.783 154.635 113.293 154.476 112.677 154.476C112.145 154.476 111.702 154.597 111.347 154.84C110.992 155.083 110.726 155.414 110.549 155.834C110.372 156.254 110.283 156.73 110.283 157.262C110.283 157.775 110.372 158.247 110.549 158.676C110.726 159.096 110.992 159.432 111.347 159.684C111.711 159.927 112.164 160.048 112.705 160.048C113.125 160.048 113.489 159.973 113.797 159.824C114.105 159.675 114.352 159.474 114.539 159.222C114.726 158.97 114.838 158.685 114.875 158.368H116.163C116.135 158.956 115.962 159.465 115.645 159.894C115.337 160.323 114.926 160.659 114.413 160.902C113.909 161.135 113.34 161.252 112.705 161.252ZM117.485 163.912V162.708H118.563C118.881 162.708 119.147 162.666 119.361 162.582C119.585 162.507 119.767 162.377 119.907 162.19C120.057 162.003 120.178 161.756 120.271 161.448L122.623 153.524H123.939L121.447 161.798C121.298 162.293 121.088 162.694 120.817 163.002C120.547 163.319 120.215 163.548 119.823 163.688C119.441 163.837 118.993 163.912 118.479 163.912H117.485ZM119.767 160.832V159.712H121.391V160.832H119.767ZM119.627 160.832L116.953 153.524H118.325L120.887 160.832H119.627Z" fill="white"/>
</g>
<g filter="url(#filter1_f_3591_21040)">
<path d="M47.313 31V21.452L47.929 21.928H45.045V20.78H48.657V31H47.313ZM51.3579 31V29.292H52.9819V31H51.3579ZM42.7456 57V55.32C42.7456 54.9093 42.8016 54.5593 42.9136 54.27C43.035 53.9807 43.2403 53.7193 43.5296 53.486C43.819 53.2433 44.211 53.01 44.7056 52.786L46.6236 51.904C47.0903 51.6893 47.459 51.414 47.7296 51.078C48.0003 50.7327 48.1356 50.2893 48.1356 49.748C48.1356 49.0947 47.9536 48.586 47.5896 48.222C47.2256 47.858 46.7123 47.676 46.0496 47.676C45.3963 47.676 44.883 47.858 44.5096 48.222C44.1363 48.586 43.9496 49.0947 43.9496 49.748H42.6336C42.6336 49.16 42.755 48.6187 42.9976 48.124C43.2496 47.6293 43.6276 47.2373 44.1316 46.948C44.6356 46.6493 45.275 46.5 46.0496 46.5C46.8243 46.5 47.459 46.6493 47.9536 46.948C48.4576 47.2373 48.831 47.62 49.0736 48.096C49.3256 48.572 49.4516 49.09 49.4516 49.65V49.846C49.4516 50.5833 49.237 51.204 48.8076 51.708C48.3876 52.212 47.8183 52.6273 47.0996 52.954L45.1816 53.836C44.7523 54.032 44.463 54.228 44.3136 54.424C44.1643 54.62 44.0896 54.8813 44.0896 55.208V56.496L43.7256 55.852H49.5776V57H42.7456ZM51.3579 57V55.292H52.9819V57H51.3579ZM45.9223 83.252C45.157 83.252 44.5083 83.1027 43.9763 82.804C43.4443 82.5053 43.0383 82.1087 42.7583 81.614C42.4877 81.1193 42.3523 80.5827 42.3523 80.004H43.6683C43.6683 80.6387 43.869 81.1427 44.2703 81.516C44.681 81.8893 45.2317 82.076 45.9223 82.076C46.3797 82.076 46.7763 81.992 47.1123 81.824C47.4483 81.656 47.7097 81.418 47.8963 81.11C48.083 80.7927 48.1763 80.424 48.1763 80.004C48.1763 79.3693 47.971 78.856 47.5603 78.464C47.159 78.072 46.6177 77.876 45.9363 77.876C45.647 77.876 45.395 77.9133 45.1803 77.988C44.975 78.0533 44.793 78.1373 44.6343 78.24L43.9623 77.036L47.8683 74.18L47.7283 73.928H42.7583V72.78H48.9883V74.642L45.7543 76.994L44.7743 77.036C44.933 76.98 45.1057 76.9333 45.2923 76.896C45.4883 76.8587 45.717 76.84 45.9783 76.84C46.725 76.84 47.3597 76.98 47.8823 77.26C48.405 77.54 48.8017 77.9133 49.0723 78.38C49.3523 78.8467 49.4923 79.3553 49.4923 79.906V80.102C49.4923 80.6433 49.3523 81.1567 49.0723 81.642C48.8017 82.118 48.4003 82.5053 47.8683 82.804C47.3457 83.1027 46.697 83.252 45.9223 83.252ZM51.3579 83V81.292H52.9819V83H51.3579ZM42.0255 106.578V104.926L46.2675 98.528L47.2055 99.27L43.2435 105.262L43.3695 105.514H49.9775V106.578H42.0255ZM47.3595 109V101.762H48.6195V109H47.3595ZM51.3579 109V107.292H52.9819V109H51.3579ZM46.0373 135.252C45.2533 135.252 44.5906 135.093 44.0493 134.776C43.5079 134.449 43.0973 134.025 42.8173 133.502C42.5373 132.979 42.3973 132.424 42.3973 131.836H43.7133C43.7133 132.265 43.8066 132.648 43.9933 132.984C44.1893 133.32 44.4599 133.586 44.8053 133.782C45.1506 133.978 45.5613 134.076 46.0373 134.076C46.5039 134.076 46.9099 133.983 47.2553 133.796C47.6099 133.6 47.8853 133.334 48.0813 132.998C48.2773 132.653 48.3753 132.265 48.3753 131.836C48.3753 131.407 48.2773 131.019 48.0813 130.674C47.8946 130.329 47.6239 130.053 47.2693 129.848C46.9239 129.643 46.5133 129.54 46.0373 129.54C45.6919 129.54 45.3419 129.601 44.9873 129.722C44.6326 129.834 44.3479 129.997 44.1333 130.212H42.9013L43.4193 124.78H48.7813V125.928H44.2033L44.5393 125.466L44.1473 129.428L43.7833 129.302C44.0539 129.031 44.3806 128.817 44.7633 128.658C45.1553 128.499 45.5986 128.42 46.0933 128.42C46.8773 128.42 47.5353 128.583 48.0673 128.91C48.5993 129.227 49.0006 129.643 49.2713 130.156C49.5513 130.66 49.6913 131.187 49.6913 131.738V131.934C49.6913 132.485 49.5513 133.017 49.2713 133.53C48.9913 134.034 48.5759 134.449 48.0253 134.776C47.4839 135.093 46.8213 135.252 46.0373 135.252ZM51.3579 135V133.292H52.9819V135H51.3579ZM45.9934 161.28C45.2468 161.28 44.6214 161.149 44.1174 160.888C43.6228 160.627 43.2261 160.272 42.9274 159.824C42.6381 159.367 42.4281 158.844 42.2974 158.256C42.1761 157.668 42.1154 157.052 42.1154 156.408V155.736C42.1154 154.121 42.5168 152.88 43.3194 152.012C44.1221 151.135 45.2841 150.696 46.8054 150.696C47.1694 150.696 47.4774 150.705 47.7294 150.724C47.9814 150.743 48.2568 150.771 48.5554 150.808V151.956C48.2474 151.919 47.9628 151.891 47.7014 151.872C47.4401 151.853 47.1228 151.844 46.7494 151.844C45.9001 151.844 45.2281 152.003 44.7334 152.32C44.2388 152.637 43.8841 153.095 43.6694 153.692C43.4548 154.28 43.3474 154.994 43.3474 155.834V156.464L43.0114 157.71C43.0208 156.973 43.1608 156.361 43.4314 155.876C43.7114 155.391 44.0894 155.027 44.5654 154.784C45.0508 154.541 45.6061 154.42 46.2314 154.42C46.9594 154.42 47.5754 154.569 48.0794 154.868C48.5834 155.157 48.9614 155.559 49.2134 156.072C49.4748 156.585 49.6054 157.169 49.6054 157.822C49.6054 158.485 49.4701 159.077 49.1994 159.6C48.9288 160.123 48.5228 160.533 47.9814 160.832C47.4494 161.131 46.7868 161.28 45.9934 161.28ZM45.9934 160.104C46.5068 160.104 46.9361 160.006 47.2814 159.81C47.6268 159.614 47.8834 159.348 48.0514 159.012C48.2288 158.667 48.3174 158.27 48.3174 157.822C48.3174 157.374 48.2334 156.977 48.0654 156.632C47.8974 156.287 47.6454 156.021 47.3094 155.834C46.9828 155.638 46.5768 155.54 46.0914 155.54C45.6154 155.54 45.1861 155.629 44.8034 155.806C44.4301 155.983 44.1361 156.245 43.9214 156.59C43.7068 156.926 43.5994 157.341 43.5994 157.836C43.5994 158.247 43.6834 158.625 43.8514 158.97C44.0194 159.315 44.2808 159.591 44.6354 159.796C44.9901 160.001 45.4428 160.104 45.9934 160.104ZM51.3579 161V159.292H52.9819V161H51.3579Z" fill="white"/>
</g>
<g filter="url(#filter2_f_3591_21040)">
<path d="M206.313 31L210.639 22.054L210.555 21.928H204.969V20.78H211.829V22.404L207.713 31H206.313ZM204.969 23.552V20.78H206.089V23.552H204.969ZM213.358 31V29.292H214.982V31H213.358ZM207.874 57.252C207.146 57.252 206.497 57.1213 205.928 56.86C205.368 56.5987 204.925 56.2347 204.598 55.768C204.281 55.3013 204.122 54.76 204.122 54.144C204.122 53.7333 204.201 53.3647 204.36 53.038C204.519 52.702 204.738 52.4127 205.018 52.17C205.298 51.9273 205.615 51.7407 205.97 51.61V51.47C205.69 51.3487 205.433 51.1853 205.2 50.98C204.976 50.7747 204.794 50.532 204.654 50.252C204.523 49.972 204.458 49.6547 204.458 49.3C204.458 48.712 204.612 48.2127 204.92 47.802C205.237 47.3913 205.653 47.0787 206.166 46.864C206.689 46.64 207.258 46.528 207.874 46.528C208.499 46.528 209.069 46.64 209.582 46.864C210.105 47.0787 210.52 47.3913 210.828 47.802C211.136 48.2127 211.29 48.712 211.29 49.3C211.29 49.6547 211.225 49.972 211.094 50.252C210.963 50.532 210.781 50.7747 210.548 50.98C210.324 51.1853 210.067 51.3487 209.778 51.47V51.61C210.142 51.7407 210.464 51.932 210.744 52.184C211.024 52.4267 211.243 52.716 211.402 53.052C211.561 53.3787 211.64 53.7427 211.64 54.144C211.64 54.76 211.477 55.3013 211.15 55.768C210.833 56.2347 210.389 56.5987 209.82 56.86C209.26 57.1213 208.611 57.252 207.874 57.252ZM207.874 56.104C208.387 56.104 208.826 56.0247 209.19 55.866C209.554 55.698 209.834 55.4647 210.03 55.166C210.226 54.858 210.324 54.4987 210.324 54.088C210.324 53.6773 210.226 53.3227 210.03 53.024C209.843 52.7253 209.568 52.4967 209.204 52.338C208.84 52.17 208.397 52.086 207.874 52.086C207.361 52.086 206.922 52.17 206.558 52.338C206.194 52.4967 205.914 52.7253 205.718 53.024C205.531 53.3227 205.438 53.6773 205.438 54.088C205.438 54.4987 205.531 54.858 205.718 55.166C205.914 55.4647 206.194 55.698 206.558 55.866C206.922 56.0247 207.361 56.104 207.874 56.104ZM207.874 51.022C208.509 51.022 209.017 50.8867 209.4 50.616C209.783 50.336 209.974 49.9113 209.974 49.342C209.974 48.7633 209.778 48.3433 209.386 48.082C209.003 47.8113 208.499 47.676 207.874 47.676C207.249 47.676 206.74 47.8113 206.348 48.082C205.965 48.3527 205.774 48.7727 205.774 49.342C205.774 49.9113 205.965 50.336 206.348 50.616C206.74 50.8867 207.249 51.022 207.874 51.022ZM213.358 57V55.292H214.982V57H213.358ZM207.447 72.5C208.194 72.5 208.815 72.6307 209.309 72.892C209.813 73.1533 210.21 73.5127 210.499 73.97C210.798 74.418 211.008 74.936 211.129 75.524C211.26 76.112 211.325 76.728 211.325 77.372V78.044C211.325 79.6587 210.924 80.9047 210.121 81.782C209.319 82.65 208.157 83.084 206.635 83.084C206.271 83.084 205.963 83.0747 205.711 83.056C205.459 83.0373 205.184 83.0093 204.885 82.972V81.824C205.193 81.8613 205.478 81.8893 205.739 81.908C206.001 81.9267 206.318 81.936 206.691 81.936C207.541 81.936 208.213 81.7773 208.707 81.46C209.202 81.1427 209.557 80.69 209.771 80.102C209.986 79.5047 210.093 78.786 210.093 77.946V77.316L210.429 76.07C210.42 76.8073 210.275 77.4187 209.995 77.904C209.725 78.3893 209.347 78.7533 208.861 78.996C208.385 79.2387 207.835 79.36 207.209 79.36C206.481 79.36 205.865 79.2153 205.361 78.926C204.857 78.6273 204.475 78.2213 204.213 77.708C203.961 77.1947 203.835 76.6113 203.835 75.958C203.835 75.2953 203.971 74.7027 204.241 74.18C204.512 73.6573 204.913 73.2467 205.445 72.948C205.987 72.6493 206.654 72.5 207.447 72.5ZM207.447 73.676C206.934 73.676 206.505 73.774 206.159 73.97C205.814 74.166 205.553 74.4367 205.375 74.782C205.207 75.118 205.123 75.51 205.123 75.958C205.123 76.406 205.207 76.8027 205.375 77.148C205.543 77.4933 205.791 77.764 206.117 77.96C206.453 78.1467 206.864 78.24 207.349 78.24C207.825 78.24 208.25 78.1513 208.623 77.974C209.006 77.7967 209.305 77.54 209.519 77.204C209.734 76.8587 209.841 76.4387 209.841 75.944C209.841 75.5333 209.757 75.1553 209.589 74.81C209.421 74.4647 209.16 74.1893 208.805 73.984C208.451 73.7787 207.998 73.676 207.447 73.676ZM213.358 83V81.292H214.982V83H213.358ZM198.909 109V99.452L199.525 99.928H196.641V98.78H200.253V109H198.909ZM207.14 109.252C206.374 109.252 205.721 109.121 205.18 108.86C204.648 108.589 204.214 108.225 203.878 107.768C203.551 107.311 203.313 106.783 203.164 106.186C203.014 105.579 202.94 104.94 202.94 104.268V103.512C202.94 102.569 203.084 101.72 203.374 100.964C203.672 100.208 204.13 99.6107 204.746 99.172C205.371 98.724 206.169 98.5 207.14 98.5C208.11 98.5 208.904 98.724 209.52 99.172C210.136 99.6107 210.588 100.208 210.878 100.964C211.176 101.72 211.326 102.569 211.326 103.512V104.268C211.326 104.94 211.251 105.579 211.102 106.186C210.952 106.783 210.71 107.311 210.374 107.768C210.047 108.225 209.618 108.589 209.086 108.86C208.554 109.121 207.905 109.252 207.14 109.252ZM207.14 108.02C208.11 108.02 208.82 107.693 209.268 107.04C209.725 106.377 209.954 105.332 209.954 103.904C209.954 102.411 209.72 101.342 209.254 100.698C208.796 100.054 208.092 99.732 207.14 99.732C206.178 99.732 205.464 100.054 204.998 100.698C204.54 101.342 204.312 102.401 204.312 103.876C204.312 105.313 204.54 106.363 204.998 107.026C205.455 107.689 206.169 108.02 207.14 108.02ZM213.358 109V107.292H214.982V109H213.358ZM203.434 135V125.452L204.05 125.928H201.166V124.78H204.778V135H203.434ZM209.313 135V125.452L209.929 125.928H207.045V124.78H210.657V135H209.313ZM213.358 135V133.292H214.982V135H213.358ZM200.659 161V151.452L201.275 151.928H198.391V150.78H202.003V161H200.659ZM204.746 161V159.32C204.746 158.909 204.802 158.559 204.914 158.27C205.035 157.981 205.24 157.719 205.53 157.486C205.819 157.243 206.211 157.01 206.706 156.786L208.624 155.904C209.09 155.689 209.459 155.414 209.73 155.078C210 154.733 210.136 154.289 210.136 153.748C210.136 153.095 209.954 152.586 209.59 152.222C209.226 151.858 208.712 151.676 208.05 151.676C207.396 151.676 206.883 151.858 206.51 152.222C206.136 152.586 205.95 153.095 205.95 153.748H204.634C204.634 153.16 204.755 152.619 204.998 152.124C205.25 151.629 205.628 151.237 206.132 150.948C206.636 150.649 207.275 150.5 208.05 150.5C208.824 150.5 209.459 150.649 209.954 150.948C210.458 151.237 210.831 151.62 211.074 152.096C211.326 152.572 211.452 153.09 211.452 153.65V153.846C211.452 154.583 211.237 155.204 210.808 155.708C210.388 156.212 209.818 156.627 209.1 156.954L207.182 157.836C206.752 158.032 206.463 158.228 206.314 158.424C206.164 158.62 206.09 158.881 206.09 159.208V160.496L205.726 159.852H211.578V161H204.746ZM213.358 161V159.292H214.982V161H213.358Z" fill="white"/>
</g>
<g filter="url(#filter3_f_3591_21040)">
<path d="M226.884 31L224.336 23.524H225.736L228.228 31H226.884ZM227.22 31V29.936H228.844V31H227.22ZM227.864 31L230.034 23.524H231.35L229.138 31H227.864ZM236.416 31.252C235.762 31.252 235.188 31.14 234.694 30.916C234.199 30.692 233.779 30.398 233.434 30.034C233.098 29.6607 232.841 29.2453 232.664 28.788C232.496 28.3307 232.412 27.864 232.412 27.388V27.136C232.412 26.66 232.5 26.1933 232.678 25.736C232.855 25.2693 233.116 24.854 233.462 24.49C233.807 24.1167 234.227 23.8227 234.722 23.608C235.216 23.384 235.781 23.272 236.416 23.272C237.05 23.272 237.615 23.384 238.11 23.608C238.604 23.8227 239.024 24.1167 239.37 24.49C239.715 24.854 239.976 25.2693 240.154 25.736C240.331 26.1933 240.42 26.66 240.42 27.136V27.388C240.42 27.864 240.331 28.3307 240.154 28.788C239.986 29.2453 239.729 29.6607 239.384 30.034C239.048 30.398 238.632 30.692 238.138 30.916C237.643 31.14 237.069 31.252 236.416 31.252ZM236.416 30.048C236.976 30.048 237.452 29.9267 237.844 29.684C238.245 29.432 238.548 29.096 238.754 28.676C238.968 28.256 239.076 27.7847 239.076 27.262C239.076 26.73 238.968 26.254 238.754 25.834C238.539 25.414 238.231 25.0827 237.83 24.84C237.438 24.5973 236.966 24.476 236.416 24.476C235.874 24.476 235.403 24.5973 235.002 24.84C234.6 25.0827 234.292 25.414 234.078 25.834C233.863 26.254 233.756 26.73 233.756 27.262C233.756 27.7847 233.858 28.256 234.064 28.676C234.278 29.096 234.582 29.432 234.974 29.684C235.375 29.9267 235.856 30.048 236.416 30.048ZM242.517 31V20.78H243.861V31H242.517ZM241.481 21.844V20.78H243.861V21.844H241.481ZM249.028 31.224C248.142 31.224 247.46 30.9347 246.984 30.356C246.508 29.7773 246.27 28.942 246.27 27.85V23.51H247.614V28.116C247.614 28.704 247.773 29.166 248.09 29.502C248.408 29.8287 248.837 29.992 249.378 29.992C249.938 29.992 250.396 29.8147 250.75 29.46C251.105 29.096 251.282 28.6013 251.282 27.976V23.51H252.626V31H251.562V27.794H251.73C251.73 28.5313 251.632 29.1567 251.436 29.67C251.24 30.174 250.946 30.5613 250.554 30.832C250.172 31.0933 249.682 31.224 249.084 31.224H249.028ZM255.229 31V23.524H256.293V26.73H256.125C256.125 26.002 256.219 25.386 256.405 24.882C256.601 24.3687 256.891 23.9767 257.273 23.706C257.656 23.4353 258.141 23.3 258.729 23.3H258.785C259.373 23.3 259.859 23.4353 260.241 23.706C260.633 23.9767 260.923 24.3687 261.109 24.882C261.296 25.386 261.389 26.002 261.389 26.73H260.997C260.997 26.002 261.095 25.386 261.291 24.882C261.487 24.3687 261.777 23.9767 262.159 23.706C262.551 23.4353 263.041 23.3 263.629 23.3H263.685C264.273 23.3 264.763 23.4353 265.155 23.706C265.547 23.9767 265.837 24.3687 266.023 24.882C266.219 25.386 266.317 26.002 266.317 26.73V31H264.973V26.436C264.973 25.8293 264.824 25.3627 264.525 25.036C264.227 24.7 263.811 24.532 263.279 24.532C262.729 24.532 262.285 24.7093 261.949 25.064C261.613 25.4093 261.445 25.8947 261.445 26.52V31H260.101V26.436C260.101 25.8293 259.952 25.3627 259.653 25.036C259.355 24.7 258.939 24.532 258.407 24.532C257.857 24.532 257.413 24.7093 257.077 25.064C256.741 25.4093 256.573 25.8947 256.573 26.52V31H255.229ZM271.956 31.252C271.303 31.252 270.738 31.14 270.262 30.916C269.786 30.692 269.399 30.398 269.1 30.034C268.802 29.6607 268.578 29.2453 268.428 28.788C268.288 28.3307 268.218 27.864 268.218 27.388V27.136C268.218 26.6507 268.288 26.1793 268.428 25.722C268.578 25.2647 268.802 24.854 269.1 24.49C269.399 24.1167 269.777 23.8227 270.234 23.608C270.701 23.384 271.247 23.272 271.872 23.272C272.684 23.272 273.352 23.4493 273.874 23.804C274.406 24.1493 274.798 24.5973 275.05 25.148C275.312 25.6987 275.442 26.2867 275.442 26.912V27.514H268.806V26.506H274.462L274.154 27.052C274.154 26.52 274.07 26.0627 273.902 25.68C273.734 25.288 273.482 24.9847 273.146 24.77C272.81 24.5553 272.386 24.448 271.872 24.448C271.34 24.448 270.897 24.5693 270.542 24.812C270.197 25.0547 269.936 25.386 269.758 25.806C269.59 26.226 269.506 26.7113 269.506 27.262C269.506 27.794 269.59 28.2747 269.758 28.704C269.936 29.124 270.206 29.46 270.57 29.712C270.934 29.9547 271.396 30.076 271.956 30.076C272.544 30.076 273.02 29.9453 273.384 29.684C273.758 29.4227 273.982 29.1193 274.056 28.774H275.316C275.214 29.2873 275.008 29.7307 274.7 30.104C274.392 30.4773 274.005 30.762 273.538 30.958C273.072 31.154 272.544 31.252 271.956 31.252ZM225.288 57V46.78H226.632V52.884H226.296C226.296 52.1467 226.389 51.512 226.576 50.98C226.772 50.4387 227.071 50.0233 227.472 49.734C227.873 49.4447 228.387 49.3 229.012 49.3H229.068C229.964 49.3 230.641 49.5987 231.098 50.196C231.555 50.784 231.784 51.6287 231.784 52.73V57H230.44V52.45C230.44 51.8433 230.267 51.372 229.922 51.036C229.586 50.7 229.147 50.532 228.606 50.532C228.009 50.532 227.528 50.7327 227.164 51.134C226.809 51.526 226.632 52.044 226.632 52.688V57H225.288ZM238.765 57V54.76H238.541V52.17C238.541 51.6567 238.406 51.2693 238.135 51.008C237.874 50.7467 237.486 50.616 236.973 50.616C236.684 50.616 236.385 50.6207 236.077 50.63C235.769 50.6393 235.475 50.6487 235.195 50.658C234.915 50.6673 234.672 50.6813 234.467 50.7V49.524C234.672 49.5053 234.887 49.4913 235.111 49.482C235.344 49.4633 235.582 49.454 235.825 49.454C236.068 49.4447 236.301 49.44 236.525 49.44C237.29 49.44 237.916 49.5333 238.401 49.72C238.886 49.8973 239.246 50.1913 239.479 50.602C239.712 51.0127 239.829 51.568 239.829 52.268V57H238.765ZM236.315 57.196C235.755 57.196 235.27 57.1027 234.859 56.916C234.458 56.72 234.145 56.44 233.921 56.076C233.706 55.712 233.599 55.2733 233.599 54.76C233.599 54.228 233.716 53.7847 233.949 53.43C234.192 53.0753 234.542 52.8093 234.999 52.632C235.456 52.4453 236.007 52.352 236.651 52.352H238.681V53.36H236.595C236.054 53.36 235.638 53.4907 235.349 53.752C235.06 54.0133 234.915 54.3493 234.915 54.76C234.915 55.1707 235.06 55.502 235.349 55.754C235.638 56.006 236.054 56.132 236.595 56.132C236.912 56.132 237.216 56.076 237.505 55.964C237.794 55.8427 238.032 55.6467 238.219 55.376C238.415 55.096 238.522 54.7133 238.541 54.228L238.905 54.76C238.858 55.292 238.728 55.74 238.513 56.104C238.308 56.4587 238.018 56.7293 237.645 56.916C237.281 57.1027 236.838 57.196 236.315 57.196ZM242.66 57V49.524H244.004V57H242.66ZM241.512 50.588V49.524H244.004V50.588H241.512ZM243.038 48.32C242.739 48.32 242.515 48.2407 242.366 48.082C242.226 47.9233 242.156 47.7227 242.156 47.48C242.156 47.2373 242.226 47.0367 242.366 46.878C242.515 46.7193 242.739 46.64 243.038 46.64C243.336 46.64 243.556 46.7193 243.696 46.878C243.845 47.0367 243.92 47.2373 243.92 47.48C243.92 47.7227 243.845 47.9233 243.696 48.082C243.556 48.2407 243.336 48.32 243.038 48.32ZM246.602 57V49.524H247.666V52.604H247.61C247.61 51.512 247.848 50.714 248.324 50.21C248.81 49.6967 249.533 49.44 250.494 49.44H250.746V50.644H250.27C249.524 50.644 248.95 50.8447 248.548 51.246C248.147 51.638 247.946 52.2073 247.946 52.954V57H246.602ZM225.288 83V75.524H226.352V78.604H226.296C226.296 77.512 226.534 76.714 227.01 76.21C227.495 75.6967 228.219 75.44 229.18 75.44H229.432V76.644H228.956C228.209 76.644 227.635 76.8447 227.234 77.246C226.833 77.638 226.632 78.2073 226.632 78.954V83H225.288ZM234.126 83.252C233.473 83.252 232.908 83.14 232.432 82.916C231.956 82.692 231.569 82.398 231.27 82.034C230.971 81.6607 230.747 81.2453 230.598 80.788C230.458 80.3307 230.388 79.864 230.388 79.388V79.136C230.388 78.6507 230.458 78.1793 230.598 77.722C230.747 77.2647 230.971 76.854 231.27 76.49C231.569 76.1167 231.947 75.8227 232.404 75.608C232.871 75.384 233.417 75.272 234.042 75.272C234.854 75.272 235.521 75.4493 236.044 75.804C236.576 76.1493 236.968 76.5973 237.22 77.148C237.481 77.6987 237.612 78.2867 237.612 78.912V79.514H230.976V78.506H236.632L236.324 79.052C236.324 78.52 236.24 78.0627 236.072 77.68C235.904 77.288 235.652 76.9847 235.316 76.77C234.98 76.5553 234.555 76.448 234.042 76.448C233.51 76.448 233.067 76.5693 232.712 76.812C232.367 77.0547 232.105 77.386 231.928 77.806C231.76 78.226 231.676 78.7113 231.676 79.262C231.676 79.794 231.76 80.2747 231.928 80.704C232.105 81.124 232.376 81.46 232.74 81.712C233.104 81.9547 233.566 82.076 234.126 82.076C234.714 82.076 235.19 81.9453 235.554 81.684C235.927 81.4227 236.151 81.1193 236.226 80.774H237.486C237.383 81.2873 237.178 81.7307 236.87 82.104C236.562 82.4773 236.175 82.762 235.708 82.958C235.241 83.154 234.714 83.252 234.126 83.252ZM242.726 83.252C242.082 83.252 241.522 83.14 241.046 82.916C240.58 82.692 240.192 82.3933 239.884 82.02C239.576 81.6373 239.343 81.2173 239.184 80.76C239.035 80.3027 238.96 79.8453 238.96 79.388V79.136C238.96 78.66 239.035 78.1933 239.184 77.736C239.343 77.2787 239.576 76.868 239.884 76.504C240.202 76.1307 240.594 75.832 241.06 75.608C241.527 75.384 242.073 75.272 242.698 75.272C243.324 75.272 243.884 75.3887 244.378 75.622C244.882 75.8553 245.284 76.1867 245.582 76.616C245.89 77.036 246.063 77.5353 246.1 78.114H244.812C244.747 77.6473 244.532 77.26 244.168 76.952C243.804 76.6347 243.314 76.476 242.698 76.476C242.166 76.476 241.723 76.5973 241.368 76.84C241.014 77.0827 240.748 77.414 240.57 77.834C240.393 78.254 240.304 78.73 240.304 79.262C240.304 79.7753 240.393 80.2467 240.57 80.676C240.748 81.096 241.014 81.432 241.368 81.684C241.732 81.9267 242.185 82.048 242.726 82.048C243.146 82.048 243.51 81.9733 243.818 81.824C244.126 81.6747 244.374 81.474 244.56 81.222C244.747 80.97 244.859 80.6853 244.896 80.368H246.184C246.156 80.956 245.984 81.4647 245.666 81.894C245.358 82.3233 244.948 82.6593 244.434 82.902C243.93 83.1353 243.361 83.252 242.726 83.252ZM251.189 83.252C250.535 83.252 249.971 83.14 249.495 82.916C249.019 82.692 248.631 82.398 248.333 82.034C248.034 81.6607 247.81 81.2453 247.661 80.788C247.521 80.3307 247.451 79.864 247.451 79.388V79.136C247.451 78.6507 247.521 78.1793 247.661 77.722C247.81 77.2647 248.034 76.854 248.333 76.49C248.631 76.1167 249.009 75.8227 249.467 75.608C249.933 75.384 250.479 75.272 251.105 75.272C251.917 75.272 252.584 75.4493 253.107 75.804C253.639 76.1493 254.031 76.5973 254.283 77.148C254.544 77.6987 254.675 78.2867 254.675 78.912V79.514H248.039V78.506H253.695L253.387 79.052C253.387 78.52 253.303 78.0627 253.135 77.68C252.967 77.288 252.715 76.9847 252.379 76.77C252.043 76.5553 251.618 76.448 251.105 76.448C250.573 76.448 250.129 76.5693 249.775 76.812C249.429 77.0547 249.168 77.386 248.991 77.806C248.823 78.226 248.739 78.7113 248.739 79.262C248.739 79.794 248.823 80.2747 248.991 80.704C249.168 81.124 249.439 81.46 249.803 81.712C250.167 81.9547 250.629 82.076 251.189 82.076C251.777 82.076 252.253 81.9453 252.617 81.684C252.99 81.4227 253.214 81.1193 253.289 80.774H254.549C254.446 81.2873 254.241 81.7307 253.933 82.104C253.625 82.4773 253.237 82.762 252.771 82.958C252.304 83.154 251.777 83.252 251.189 83.252ZM256.583 85.8V75.524H257.647V78.758L257.395 78.73C257.442 77.9273 257.61 77.274 257.899 76.77C258.198 76.2567 258.585 75.8787 259.061 75.636C259.537 75.3933 260.055 75.272 260.615 75.272C261.156 75.272 261.646 75.3747 262.085 75.58C262.533 75.7853 262.916 76.0653 263.233 76.42C263.55 76.7747 263.793 77.1853 263.961 77.652C264.129 78.1187 264.213 78.6133 264.213 79.136V79.388C264.213 79.9107 264.124 80.4053 263.947 80.872C263.77 81.3387 263.518 81.7493 263.191 82.104C262.874 82.4587 262.491 82.7387 262.043 82.944C261.604 83.1493 261.119 83.252 260.587 83.252C260.055 83.252 259.546 83.1353 259.061 82.902C258.576 82.6687 258.174 82.2907 257.857 81.768C257.54 81.2453 257.358 80.5593 257.311 79.71L257.927 80.83V85.8H256.583ZM260.377 82.076C260.881 82.076 261.32 81.9593 261.693 81.726C262.066 81.4833 262.356 81.152 262.561 80.732C262.766 80.3027 262.869 79.8127 262.869 79.262C262.869 78.702 262.766 78.212 262.561 77.792C262.356 77.372 262.066 77.0453 261.693 76.812C261.32 76.5693 260.881 76.448 260.377 76.448C259.929 76.448 259.514 76.5507 259.131 76.756C258.748 76.952 258.44 77.2413 258.207 77.624C257.983 77.9973 257.871 78.45 257.871 78.982V79.626C257.871 80.1393 257.988 80.578 258.221 80.942C258.454 81.306 258.762 81.586 259.145 81.782C259.528 81.978 259.938 82.076 260.377 82.076ZM269.147 83.084C268.587 83.084 268.102 83.0047 267.691 82.846C267.29 82.6873 266.977 82.4167 266.753 82.034C266.539 81.642 266.431 81.1147 266.431 80.452V73.256H267.719V80.62C267.719 81.0213 267.827 81.334 268.041 81.558C268.265 81.7727 268.578 81.88 268.979 81.88H270.295V83.084H269.147ZM265.143 76.532V75.524H270.295V76.532H265.143ZM272.56 83V75.524H273.904V83H272.56ZM271.412 76.588V75.524H273.904V76.588H271.412ZM272.938 74.32C272.64 74.32 272.416 74.2407 272.266 74.082C272.126 73.9233 272.056 73.7227 272.056 73.48C272.056 73.2373 272.126 73.0367 272.266 72.878C272.416 72.7193 272.64 72.64 272.938 72.64C273.237 72.64 273.456 72.7193 273.596 72.878C273.746 73.0367 273.82 73.2373 273.82 73.48C273.82 73.7227 273.746 73.9233 273.596 74.082C273.456 74.2407 273.237 74.32 272.938 74.32ZM279.947 83.252C279.294 83.252 278.72 83.14 278.225 82.916C277.73 82.692 277.31 82.398 276.965 82.034C276.629 81.6607 276.372 81.2453 276.195 80.788C276.027 80.3307 275.943 79.864 275.943 79.388V79.136C275.943 78.66 276.032 78.1933 276.209 77.736C276.386 77.2693 276.648 76.854 276.993 76.49C277.338 76.1167 277.758 75.8227 278.253 75.608C278.748 75.384 279.312 75.272 279.947 75.272C280.582 75.272 281.146 75.384 281.641 75.608C282.136 75.8227 282.556 76.1167 282.901 76.49C283.246 76.854 283.508 77.2693 283.685 77.736C283.862 78.1933 283.951 78.66 283.951 79.136V79.388C283.951 79.864 283.862 80.3307 283.685 80.788C283.517 81.2453 283.26 81.6607 282.915 82.034C282.579 82.398 282.164 82.692 281.669 82.916C281.174 83.14 280.6 83.252 279.947 83.252ZM279.947 82.048C280.507 82.048 280.983 81.9267 281.375 81.684C281.776 81.432 282.08 81.096 282.285 80.676C282.5 80.256 282.607 79.7847 282.607 79.262C282.607 78.73 282.5 78.254 282.285 77.834C282.07 77.414 281.762 77.0827 281.361 76.84C280.969 76.5973 280.498 76.476 279.947 76.476C279.406 76.476 278.934 76.5973 278.533 76.84C278.132 77.0827 277.824 77.414 277.609 77.834C277.394 78.254 277.287 78.73 277.287 79.262C277.287 79.7847 277.39 80.256 277.595 80.676C277.81 81.096 278.113 81.432 278.505 81.684C278.906 81.9267 279.387 82.048 279.947 82.048ZM285.964 83V75.524H287.028V78.73H286.86C286.86 77.9927 286.958 77.372 287.154 76.868C287.359 76.3547 287.667 75.9673 288.078 75.706C288.488 75.4353 289.006 75.3 289.632 75.3H289.688C290.63 75.3 291.326 75.594 291.774 76.182C292.231 76.77 292.46 77.6193 292.46 78.73V83H291.116V78.45C291.116 77.8713 290.952 77.4093 290.626 77.064C290.299 76.7093 289.851 76.532 289.282 76.532C288.694 76.532 288.218 76.714 287.854 77.078C287.49 77.442 287.308 77.9273 287.308 78.534V83H285.964ZM225.288 111.8V101.524H226.352V104.758L226.1 104.73C226.147 103.927 226.315 103.274 226.604 102.77C226.903 102.257 227.29 101.879 227.766 101.636C228.242 101.393 228.76 101.272 229.32 101.272C229.861 101.272 230.351 101.375 230.79 101.58C231.238 101.785 231.621 102.065 231.938 102.42C232.255 102.775 232.498 103.185 232.666 103.652C232.834 104.119 232.918 104.613 232.918 105.136V105.388C232.918 105.911 232.829 106.405 232.652 106.872C232.475 107.339 232.223 107.749 231.896 108.104C231.579 108.459 231.196 108.739 230.748 108.944C230.309 109.149 229.824 109.252 229.292 109.252C228.76 109.252 228.251 109.135 227.766 108.902C227.281 108.669 226.879 108.291 226.562 107.768C226.245 107.245 226.063 106.559 226.016 105.71L226.632 106.83V111.8H225.288ZM229.082 108.076C229.586 108.076 230.025 107.959 230.398 107.726C230.771 107.483 231.061 107.152 231.266 106.732C231.471 106.303 231.574 105.813 231.574 105.262C231.574 104.702 231.471 104.212 231.266 103.792C231.061 103.372 230.771 103.045 230.398 102.812C230.025 102.569 229.586 102.448 229.082 102.448C228.634 102.448 228.219 102.551 227.836 102.756C227.453 102.952 227.145 103.241 226.912 103.624C226.688 103.997 226.576 104.45 226.576 104.982V105.626C226.576 106.139 226.693 106.578 226.926 106.942C227.159 107.306 227.467 107.586 227.85 107.782C228.233 107.978 228.643 108.076 229.082 108.076ZM234.94 109V101.524H236.004V104.604H235.948C235.948 103.512 236.186 102.714 236.662 102.21C237.148 101.697 237.871 101.44 238.832 101.44H239.084V102.644H238.608C237.862 102.644 237.288 102.845 236.886 103.246C236.485 103.638 236.284 104.207 236.284 104.954V109H234.94ZM244.045 109.252C243.391 109.252 242.817 109.14 242.323 108.916C241.828 108.692 241.408 108.398 241.062 108.034C240.727 107.661 240.47 107.245 240.293 106.788C240.125 106.331 240.041 105.864 240.041 105.388V105.136C240.041 104.66 240.129 104.193 240.307 103.736C240.484 103.269 240.745 102.854 241.091 102.49C241.436 102.117 241.856 101.823 242.351 101.608C242.845 101.384 243.41 101.272 244.045 101.272C244.679 101.272 245.244 101.384 245.739 101.608C246.233 101.823 246.653 102.117 246.999 102.49C247.344 102.854 247.605 103.269 247.783 103.736C247.96 104.193 248.049 104.66 248.049 105.136V105.388C248.049 105.864 247.96 106.331 247.783 106.788C247.615 107.245 247.358 107.661 247.013 108.034C246.677 108.398 246.261 108.692 245.767 108.916C245.272 109.14 244.698 109.252 244.045 109.252ZM244.045 108.048C244.605 108.048 245.081 107.927 245.473 107.684C245.874 107.432 246.177 107.096 246.382 106.676C246.597 106.256 246.704 105.785 246.704 105.262C246.704 104.73 246.597 104.254 246.382 103.834C246.168 103.414 245.86 103.083 245.459 102.84C245.067 102.597 244.595 102.476 244.045 102.476C243.503 102.476 243.032 102.597 242.631 102.84C242.229 103.083 241.921 103.414 241.707 103.834C241.492 104.254 241.385 104.73 241.385 105.262C241.385 105.785 241.487 106.256 241.693 106.676C241.907 107.096 242.211 107.432 242.603 107.684C243.004 107.927 243.485 108.048 244.045 108.048ZM250.061 111.8V101.524H251.125V104.758L250.873 104.73C250.92 103.927 251.088 103.274 251.377 102.77C251.676 102.257 252.063 101.879 252.539 101.636C253.015 101.393 253.533 101.272 254.093 101.272C254.635 101.272 255.125 101.375 255.563 101.58C256.011 101.785 256.394 102.065 256.711 102.42C257.029 102.775 257.271 103.185 257.439 103.652C257.607 104.119 257.691 104.613 257.691 105.136V105.388C257.691 105.911 257.603 106.405 257.425 106.872C257.248 107.339 256.996 107.749 256.669 108.104C256.352 108.459 255.969 108.739 255.521 108.944C255.083 109.149 254.597 109.252 254.065 109.252C253.533 109.252 253.025 109.135 252.539 108.902C252.054 108.669 251.653 108.291 251.335 107.768C251.018 107.245 250.836 106.559 250.789 105.71L251.405 106.83V111.8H250.061ZM253.855 108.076C254.359 108.076 254.798 107.959 255.171 107.726C255.545 107.483 255.834 107.152 256.039 106.732C256.245 106.303 256.347 105.813 256.347 105.262C256.347 104.702 256.245 104.212 256.039 103.792C255.834 103.372 255.545 103.045 255.171 102.812C254.798 102.569 254.359 102.448 253.855 102.448C253.407 102.448 252.992 102.551 252.609 102.756C252.227 102.952 251.919 103.241 251.685 103.624C251.461 103.997 251.349 104.45 251.349 104.982V105.626C251.349 106.139 251.466 106.578 251.699 106.942C251.933 107.306 252.241 107.586 252.623 107.782C253.006 107.978 253.417 108.076 253.855 108.076ZM263.158 109.252C262.504 109.252 261.93 109.14 261.436 108.916C260.941 108.692 260.521 108.398 260.176 108.034C259.84 107.661 259.583 107.245 259.406 106.788C259.238 106.331 259.154 105.864 259.154 105.388V105.136C259.154 104.66 259.242 104.193 259.42 103.736C259.597 103.269 259.858 102.854 260.204 102.49C260.549 102.117 260.969 101.823 261.464 101.608C261.958 101.384 262.523 101.272 263.158 101.272C263.792 101.272 264.357 101.384 264.852 101.608C265.346 101.823 265.766 102.117 266.112 102.49C266.457 102.854 266.718 103.269 266.896 103.736C267.073 104.193 267.162 104.66 267.162 105.136V105.388C267.162 105.864 267.073 106.331 266.896 106.788C266.728 107.245 266.471 107.661 266.126 108.034C265.79 108.398 265.374 108.692 264.88 108.916C264.385 109.14 263.811 109.252 263.158 109.252ZM263.158 108.048C263.718 108.048 264.194 107.927 264.586 107.684C264.987 107.432 265.29 107.096 265.496 106.676C265.71 106.256 265.818 105.785 265.818 105.262C265.818 104.73 265.71 104.254 265.496 103.834C265.281 103.414 264.973 103.083 264.572 102.84C264.18 102.597 263.708 102.476 263.158 102.476C262.616 102.476 262.145 102.597 261.744 102.84C261.342 103.083 261.034 103.414 260.82 103.834C260.605 104.254 260.498 104.73 260.498 105.262C260.498 105.785 260.6 106.256 260.806 106.676C261.02 107.096 261.324 107.432 261.716 107.684C262.117 107.927 262.598 108.048 263.158 108.048ZM271.625 109.224C270.645 109.224 269.884 109.014 269.343 108.594C268.811 108.174 268.535 107.6 268.517 106.872H269.777C269.795 107.161 269.94 107.437 270.211 107.698C270.491 107.95 270.962 108.076 271.625 108.076C272.222 108.076 272.679 107.959 272.997 107.726C273.314 107.483 273.473 107.189 273.473 106.844C273.473 106.536 273.356 106.298 273.123 106.13C272.889 105.953 272.511 105.836 271.989 105.78L271.177 105.696C270.467 105.621 269.889 105.411 269.441 105.066C268.993 104.711 268.769 104.217 268.769 103.582C268.769 103.106 268.89 102.7 269.133 102.364C269.375 102.019 269.711 101.757 270.141 101.58C270.57 101.393 271.065 101.3 271.625 101.3C272.465 101.3 273.146 101.487 273.669 101.86C274.191 102.233 274.462 102.789 274.481 103.526H273.221C273.211 103.227 273.071 102.975 272.801 102.77C272.539 102.555 272.147 102.448 271.625 102.448C271.102 102.448 270.705 102.555 270.435 102.77C270.164 102.985 270.029 103.255 270.029 103.582C270.029 103.862 270.122 104.086 270.309 104.254C270.505 104.422 270.822 104.529 271.261 104.576L272.073 104.66C272.875 104.744 273.519 104.968 274.005 105.332C274.49 105.687 274.733 106.191 274.733 106.844C274.733 107.311 274.597 107.726 274.327 108.09C274.065 108.445 273.701 108.725 273.235 108.93C272.768 109.126 272.231 109.224 271.625 109.224ZM281.203 109V106.76H280.979V104.17C280.979 103.657 280.843 103.269 280.573 103.008C280.311 102.747 279.924 102.616 279.411 102.616C279.121 102.616 278.823 102.621 278.515 102.63C278.207 102.639 277.913 102.649 277.633 102.658C277.353 102.667 277.11 102.681 276.905 102.7V101.524C277.11 101.505 277.325 101.491 277.549 101.482C277.782 101.463 278.02 101.454 278.263 101.454C278.505 101.445 278.739 101.44 278.963 101.44C279.728 101.44 280.353 101.533 280.839 101.72C281.324 101.897 281.683 102.191 281.917 102.602C282.15 103.013 282.267 103.568 282.267 104.268V109H281.203ZM278.753 109.196C278.193 109.196 277.707 109.103 277.297 108.916C276.895 108.72 276.583 108.44 276.359 108.076C276.144 107.712 276.037 107.273 276.037 106.76C276.037 106.228 276.153 105.785 276.387 105.43C276.629 105.075 276.979 104.809 277.437 104.632C277.894 104.445 278.445 104.352 279.089 104.352H281.119V105.36H279.033C278.491 105.36 278.076 105.491 277.787 105.752C277.497 106.013 277.353 106.349 277.353 106.76C277.353 107.171 277.497 107.502 277.787 107.754C278.076 108.006 278.491 108.132 279.033 108.132C279.35 108.132 279.653 108.076 279.943 107.964C280.232 107.843 280.47 107.647 280.657 107.376C280.853 107.096 280.96 106.713 280.979 106.228L281.343 106.76C281.296 107.292 281.165 107.74 280.951 108.104C280.745 108.459 280.456 108.729 280.083 108.916C279.719 109.103 279.275 109.196 278.753 109.196ZM284.817 109V98.78H286.161V109H284.817ZM283.781 99.844V98.78H286.161V99.844H283.781ZM225.288 135V127.524H226.352V130.73H226.184C226.184 130.002 226.277 129.386 226.464 128.882C226.66 128.369 226.949 127.977 227.332 127.706C227.715 127.435 228.2 127.3 228.788 127.3H228.844C229.432 127.3 229.917 127.435 230.3 127.706C230.692 127.977 230.981 128.369 231.168 128.882C231.355 129.386 231.448 130.002 231.448 130.73H231.056C231.056 130.002 231.154 129.386 231.35 128.882C231.546 128.369 231.835 127.977 232.218 127.706C232.61 127.435 233.1 127.3 233.688 127.3H233.744C234.332 127.3 234.822 127.435 235.214 127.706C235.606 127.977 235.895 128.369 236.082 128.882C236.278 129.386 236.376 130.002 236.376 130.73V135H235.032V130.436C235.032 129.829 234.883 129.363 234.584 129.036C234.285 128.7 233.87 128.532 233.338 128.532C232.787 128.532 232.344 128.709 232.008 129.064C231.672 129.409 231.504 129.895 231.504 130.52V135H230.16V130.436C230.16 129.829 230.011 129.363 229.712 129.036C229.413 128.7 228.998 128.532 228.466 128.532C227.915 128.532 227.472 128.709 227.136 129.064C226.8 129.409 226.632 129.895 226.632 130.52V135H225.288ZM243.359 135V132.76H243.135V130.17C243.135 129.657 242.999 129.269 242.729 129.008C242.467 128.747 242.08 128.616 241.567 128.616C241.277 128.616 240.979 128.621 240.671 128.63C240.363 128.639 240.069 128.649 239.789 128.658C239.509 128.667 239.266 128.681 239.061 128.7V127.524C239.266 127.505 239.481 127.491 239.705 127.482C239.938 127.463 240.176 127.454 240.419 127.454C240.661 127.445 240.895 127.44 241.119 127.44C241.884 127.44 242.509 127.533 242.995 127.72C243.48 127.897 243.839 128.191 244.073 128.602C244.306 129.013 244.423 129.568 244.423 130.268V135H243.359ZM240.909 135.196C240.349 135.196 239.863 135.103 239.453 134.916C239.051 134.72 238.739 134.44 238.515 134.076C238.3 133.712 238.193 133.273 238.193 132.76C238.193 132.228 238.309 131.785 238.543 131.43C238.785 131.075 239.135 130.809 239.593 130.632C240.05 130.445 240.601 130.352 241.245 130.352H243.275V131.36H241.189C240.647 131.36 240.232 131.491 239.943 131.752C239.653 132.013 239.509 132.349 239.509 132.76C239.509 133.171 239.653 133.502 239.943 133.754C240.232 134.006 240.647 134.132 241.189 134.132C241.506 134.132 241.809 134.076 242.099 133.964C242.388 133.843 242.626 133.647 242.813 133.376C243.009 133.096 243.116 132.713 243.135 132.228L243.499 132.76C243.452 133.292 243.321 133.74 243.107 134.104C242.901 134.459 242.612 134.729 242.239 134.916C241.875 135.103 241.431 135.196 240.909 135.196ZM246.974 135V124.78H248.318V135H246.974ZM245.938 125.844V124.78H248.318V125.844H245.938ZM250.979 135V124.78H252.323V135H250.979ZM249.943 125.844V124.78H252.323V125.844H249.943ZM225.288 163.8V153.524H226.352V156.758L226.1 156.73C226.147 155.927 226.315 155.274 226.604 154.77C226.903 154.257 227.29 153.879 227.766 153.636C228.242 153.393 228.76 153.272 229.32 153.272C229.861 153.272 230.351 153.375 230.79 153.58C231.238 153.785 231.621 154.065 231.938 154.42C232.255 154.775 232.498 155.185 232.666 155.652C232.834 156.119 232.918 156.613 232.918 157.136V157.388C232.918 157.911 232.829 158.405 232.652 158.872C232.475 159.339 232.223 159.749 231.896 160.104C231.579 160.459 231.196 160.739 230.748 160.944C230.309 161.149 229.824 161.252 229.292 161.252C228.76 161.252 228.251 161.135 227.766 160.902C227.281 160.669 226.879 160.291 226.562 159.768C226.245 159.245 226.063 158.559 226.016 157.71L226.632 158.83V163.8H225.288ZM229.082 160.076C229.586 160.076 230.025 159.959 230.398 159.726C230.771 159.483 231.061 159.152 231.266 158.732C231.471 158.303 231.574 157.813 231.574 157.262C231.574 156.702 231.471 156.212 231.266 155.792C231.061 155.372 230.771 155.045 230.398 154.812C230.025 154.569 229.586 154.448 229.082 154.448C228.634 154.448 228.219 154.551 227.836 154.756C227.453 154.952 227.145 155.241 226.912 155.624C226.688 155.997 226.576 156.45 226.576 156.982V157.626C226.576 158.139 226.693 158.578 226.926 158.942C227.159 159.306 227.467 159.586 227.85 159.782C228.233 159.978 228.643 160.076 229.082 160.076ZM239.462 161V158.76H239.238V156.17C239.238 155.657 239.103 155.269 238.832 155.008C238.571 154.747 238.184 154.616 237.67 154.616C237.381 154.616 237.082 154.621 236.774 154.63C236.466 154.639 236.172 154.649 235.892 154.658C235.612 154.667 235.37 154.681 235.164 154.7V153.524C235.37 153.505 235.584 153.491 235.808 153.482C236.042 153.463 236.28 153.454 236.522 153.454C236.765 153.445 236.998 153.44 237.222 153.44C237.988 153.44 238.613 153.533 239.098 153.72C239.584 153.897 239.943 154.191 240.176 154.602C240.41 155.013 240.526 155.568 240.526 156.268V161H239.462ZM237.012 161.196C236.452 161.196 235.967 161.103 235.556 160.916C235.155 160.72 234.842 160.44 234.618 160.076C234.404 159.712 234.296 159.273 234.296 158.76C234.296 158.228 234.413 157.785 234.646 157.43C234.889 157.075 235.239 156.809 235.696 156.632C236.154 156.445 236.704 156.352 237.348 156.352H239.378V157.36H237.292C236.751 157.36 236.336 157.491 236.046 157.752C235.757 158.013 235.612 158.349 235.612 158.76C235.612 159.171 235.757 159.502 236.046 159.754C236.336 160.006 236.751 160.132 237.292 160.132C237.61 160.132 237.913 160.076 238.202 159.964C238.492 159.843 238.73 159.647 238.916 159.376C239.112 159.096 239.22 158.713 239.238 158.228L239.602 158.76C239.556 159.292 239.425 159.74 239.21 160.104C239.005 160.459 238.716 160.729 238.342 160.916C237.978 161.103 237.535 161.196 237.012 161.196ZM242.993 163.8V153.524H244.057V156.758L243.805 156.73C243.852 155.927 244.02 155.274 244.309 154.77C244.608 154.257 244.995 153.879 245.471 153.636C245.947 153.393 246.465 153.272 247.025 153.272C247.566 153.272 248.056 153.375 248.495 153.58C248.943 153.785 249.326 154.065 249.643 154.42C249.96 154.775 250.203 155.185 250.371 155.652C250.539 156.119 250.623 156.613 250.623 157.136V157.388C250.623 157.911 250.534 158.405 250.357 158.872C250.18 159.339 249.928 159.749 249.601 160.104C249.284 160.459 248.901 160.739 248.453 160.944C248.014 161.149 247.529 161.252 246.997 161.252C246.465 161.252 245.956 161.135 245.471 160.902C244.986 160.669 244.584 160.291 244.267 159.768C243.95 159.245 243.768 158.559 243.721 157.71L244.337 158.83V163.8H242.993ZM246.787 160.076C247.291 160.076 247.73 159.959 248.103 159.726C248.476 159.483 248.766 159.152 248.971 158.732C249.176 158.303 249.279 157.813 249.279 157.262C249.279 156.702 249.176 156.212 248.971 155.792C248.766 155.372 248.476 155.045 248.103 154.812C247.73 154.569 247.291 154.448 246.787 154.448C246.339 154.448 245.924 154.551 245.541 154.756C245.158 154.952 244.85 155.241 244.617 155.624C244.393 155.997 244.281 156.45 244.281 156.982V157.626C244.281 158.139 244.398 158.578 244.631 158.942C244.864 159.306 245.172 159.586 245.555 159.782C245.938 159.978 246.348 160.076 246.787 160.076ZM255.823 161.252C255.17 161.252 254.605 161.14 254.129 160.916C253.653 160.692 253.266 160.398 252.967 160.034C252.669 159.661 252.445 159.245 252.295 158.788C252.155 158.331 252.085 157.864 252.085 157.388V157.136C252.085 156.651 252.155 156.179 252.295 155.722C252.445 155.265 252.669 154.854 252.967 154.49C253.266 154.117 253.644 153.823 254.101 153.608C254.568 153.384 255.114 153.272 255.739 153.272C256.551 153.272 257.219 153.449 257.741 153.804C258.273 154.149 258.665 154.597 258.917 155.148C259.179 155.699 259.309 156.287 259.309 156.912V157.514H252.673V156.506H258.329L258.021 157.052C258.021 156.52 257.937 156.063 257.769 155.68C257.601 155.288 257.349 154.985 257.013 154.77C256.677 154.555 256.253 154.448 255.739 154.448C255.207 154.448 254.764 154.569 254.409 154.812C254.064 155.055 253.803 155.386 253.625 155.806C253.457 156.226 253.373 156.711 253.373 157.262C253.373 157.794 253.457 158.275 253.625 158.704C253.803 159.124 254.073 159.46 254.437 159.712C254.801 159.955 255.263 160.076 255.823 160.076C256.411 160.076 256.887 159.945 257.251 159.684C257.625 159.423 257.849 159.119 257.923 158.774H259.183C259.081 159.287 258.875 159.731 258.567 160.104C258.259 160.477 257.872 160.762 257.405 160.958C256.939 161.154 256.411 161.252 255.823 161.252ZM261.218 161V153.524H262.282V156.604H262.226C262.226 155.512 262.464 154.714 262.94 154.21C263.425 153.697 264.148 153.44 265.11 153.44H265.362V154.644H264.886C264.139 154.644 263.565 154.845 263.164 155.246C262.762 155.638 262.562 156.207 262.562 156.954V161H261.218Z" fill="white"/>
</g>
<path fill-rule="evenodd" clip-rule="evenodd" d="M174.029 90.6595C172.06 90.6595 170.429 92.287 170.429 94.3095C170.429 96.332 172.06 97.9595 174.029 97.9595H174.13C176.099 97.9595 177.729 96.332 177.729 94.3095C177.729 92.287 176.099 90.6595 174.13 90.6595H174.029ZM167.729 94.3095C167.729 90.8218 170.543 87.9595 174.029 87.9595H174.13C177.616 87.9595 180.429 90.8218 180.429 94.3095C180.429 97.7972 177.616 100.659 174.13 100.659H174.029C170.543 100.659 167.729 97.7972 167.729 94.3095Z" fill="white"/>
<path fill-rule="evenodd" clip-rule="evenodd" d="M157.545 68.858C157.545 59.5978 165.281 52.0773 174.658 52.5133L174.662 52.5135C183.523 52.951 190.245 60.4835 190.245 69.2579V77.5055H193.895C197.441 77.5055 200.245 80.309 200.245 83.8542V113.847C200.245 117.392 197.441 120.195 193.895 120.195H153.895C150.35 120.195 147.545 117.392 147.545 113.847V83.8542C147.545 80.309 150.35 77.5055 153.895 77.5055C155.95 77.5055 157.545 75.9101 157.545 73.8568V68.858ZM187.545 77.5055H164.395C163.65 77.5055 163.045 78.1099 163.045 78.8555C163.045 79.6011 163.65 80.2055 164.395 80.2055H193.895C195.95 80.2055 197.545 81.8008 197.545 83.8542V113.847C197.545 115.9 195.95 117.495 193.895 117.495H153.895C151.841 117.495 150.245 115.9 150.245 113.847V83.8542C150.245 81.8008 151.841 80.2055 153.895 80.2055C157.441 80.2055 160.245 77.4019 160.245 73.8568V68.858C160.245 61.1233 166.709 54.8476 174.531 55.2103C181.869 55.5736 187.545 61.8371 187.545 69.2579V77.5055Z" fill="white"/>
<path fill-rule="evenodd" clip-rule="evenodd" d="M174 98.202C174.745 98.202 175.35 98.8064 175.35 99.552V109.634C175.35 110.379 174.745 110.984 174 110.984C173.254 110.984 172.65 110.379 172.65 109.634V99.552C172.65 98.8064 173.254 98.202 174 98.202Z" fill="white"/>
<defs>
<filter id="filter0_f_3591_21040" x="50.5039" y="8.64" width="90.1235" height="167.272" filterUnits="userSpaceOnUse" color-interpolation-filters="sRGB">
<feFlood flood-opacity="0" result="BackgroundImageFix"/>
<feBlend mode="normal" in="SourceGraphic" in2="BackgroundImageFix" result="shape"/>
<feGaussianBlur stdDeviation="6" result="effect1_foregroundBlur_3591_21040"/>
</filter>
<filter id="filter1_f_3591_21040" x="30.0254" y="8.78" width="34.9565" height="164.5" filterUnits="userSpaceOnUse" color-interpolation-filters="sRGB">
<feFlood flood-opacity="0" result="BackgroundImageFix"/>
<feBlend mode="normal" in="SourceGraphic" in2="BackgroundImageFix" result="shape"/>
<feGaussianBlur stdDeviation="6" result="effect1_foregroundBlur_3591_21040"/>
</filter>
<filter id="filter2_f_3591_21040" x="184.641" y="8.78" width="42.3418" height="164.22" filterUnits="userSpaceOnUse" color-interpolation-filters="sRGB">
<feFlood flood-opacity="0" result="BackgroundImageFix"/>
<feBlend mode="normal" in="SourceGraphic" in2="BackgroundImageFix" result="shape"/>
<feGaussianBlur stdDeviation="6" result="effect1_foregroundBlur_3591_21040"/>
</filter>
<filter id="filter3_f_3591_21040" x="212.336" y="8.78" width="92.124" height="167.02" filterUnits="userSpaceOnUse" color-interpolation-filters="sRGB">
<feFlood flood-opacity="0" result="BackgroundImageFix"/>
<feBlend mode="normal" in="SourceGraphic" in2="BackgroundImageFix" result="shape"/>
<feGaussianBlur stdDeviation="6" result="effect1_foregroundBlur_3591_21040"/>
</filter>
</defs>
</svg>
