<svg width="80" height="106" viewBox="0 0 80 106" fill="none" xmlns="http://www.w3.org/2000/svg">
<g clip-path="url(#clip0_3906_22089)">
<path d="M32.583 56.3439V3.74676C32.583 1.40143 34.0163 0.315171 35.7987 1.27799L76.11 24.361C77.0902 25.0577 77.8917 25.9722 78.4502 27.0312C79.0087 28.0903 79.3087 29.2642 79.326 30.4589V83.0436L32.583 56.3439Z" fill="#ECFFFE"/>
<path d="M79.9993 84.2781L31.86 56.7514V3.74684C31.8004 3.13477 31.9052 2.51797 32.1634 1.95878C32.4217 1.39958 32.8243 0.917787 33.3308 0.562109C33.7732 0.333772 34.27 0.228127 34.7681 0.256375C35.2662 0.284624 35.7471 0.445722 36.1603 0.722585L76.4217 23.7563C77.5145 24.5101 78.4092 25.5118 79.0315 26.6777C79.6538 27.8437 79.9858 29.1402 79.9993 30.459V84.2781ZM33.2933 55.8873L78.5781 81.8094V30.459C78.5579 29.3886 78.2887 28.3373 77.7914 27.3868C77.2942 26.4362 76.5823 25.6121 75.7111 24.9783L35.4376 1.94461C35.2392 1.80464 35.0084 1.71658 34.7665 1.68853C34.5247 1.66048 34.2794 1.69334 34.0538 1.78414C33.7733 2.02371 33.5572 2.32836 33.4245 2.67082C33.2918 3.01329 33.2466 3.38296 33.2933 3.74684V55.8873Z" fill="#171753"/>
<path d="M74.5277 72.6748L37.3451 51.4187C36.9581 51.1313 36.6439 50.7585 36.4276 50.33C36.2112 49.9015 36.0986 49.429 36.0986 48.9499V7.15367C36.0986 6.2032 36.6845 5.77111 37.3451 6.17846L74.5277 27.4346C74.9155 27.7214 75.23 28.094 75.4465 28.5226C75.6629 28.9513 75.7752 29.4241 75.7742 29.9034V71.712C75.8116 72.6378 75.2382 73.0821 74.5277 72.6748Z" fill="#5ED9D1"/>
<path d="M71.6728 56.8377L64.1939 40.5685C64.0444 40.2599 63.7577 40.0624 63.5832 40.1611L53.2373 46.5676C52.6889 46.9132 51.7666 45.6048 52.153 45.037L55.6183 39.9883C55.6851 39.8583 55.7199 39.7145 55.7199 39.5687C55.7199 39.4228 55.6851 39.279 55.6183 39.1489L51.0809 28.8295C50.6821 27.9037 49.8346 27.3606 49.3485 27.7679C47.3167 29.6319 42.3806 34.1374 40.299 36.0136C39.9613 36.368 39.7016 36.788 39.5364 37.247C39.3712 37.7059 39.304 38.1938 39.3392 38.6799V47.1724C39.364 47.6655 39.5056 48.1458 39.7524 48.5747C39.9993 49.0035 40.3443 49.3689 40.76 49.6412L71.0496 66.9226C71.8473 67.367 72.4832 66.9967 72.4832 66.0956V60.331C72.4587 59.1237 72.1827 57.9346 71.6728 56.8377Z" fill="#ECFFFE"/>
<path d="M71.7233 67.836C71.3709 67.8332 71.0261 67.735 70.726 67.5521L40.4365 50.2707C39.909 49.9429 39.4701 49.4929 39.1574 48.9596C38.8447 48.4263 38.6676 47.8256 38.6416 47.2095V38.7169C38.6075 38.1287 38.7011 37.5401 38.9161 36.9907C39.1311 36.4413 39.4626 35.944 39.8881 35.5322C41.9822 33.6436 46.9058 29.1504 48.9376 27.2865C49.0913 27.1469 49.2782 27.0477 49.4808 26.9981C49.6833 26.9485 49.8949 26.95 50.0967 27.0025C50.4852 27.1203 50.842 27.3236 51.1399 27.5973C51.4378 27.8709 51.6693 28.2078 51.817 28.5826L56.3541 38.9144C56.4785 39.1462 56.5436 39.4048 56.5436 39.6673C56.5436 39.9299 56.4785 40.1885 56.3541 40.4204L52.9013 45.469C52.9651 45.6284 53.0583 45.7749 53.1758 45.901L63.3594 39.6056C63.4753 39.5337 63.606 39.4886 63.7419 39.4736C63.8779 39.4587 64.0155 39.4742 64.1446 39.5192C64.3338 39.5849 64.5071 39.6891 64.6531 39.8252C64.7991 39.9613 64.9147 40.1262 64.9924 40.3092L72.4089 56.5908C72.9815 57.7797 73.2917 59.0758 73.3188 60.3927V66.1573C73.3391 66.4588 73.2769 66.7601 73.1386 67.0295C73.0004 67.2989 72.7912 67.5264 72.5334 67.6879C72.284 67.8154 72.0022 67.867 71.7233 67.836ZM49.7851 28.3357C47.7159 30.2243 42.8672 34.6557 40.798 36.5073C40.5388 36.7994 40.3415 37.1399 40.2174 37.5088C40.0932 37.8777 40.0449 38.2675 40.0752 38.6551V47.1477C40.1045 47.5139 40.2157 47.8691 40.4012 48.1873C40.5866 48.5055 40.8414 48.7787 41.147 48.987L71.4366 66.2684C71.5256 66.3272 71.6289 66.3613 71.7357 66.3671C71.7875 66.2728 71.8093 66.1652 71.7981 66.0585V60.2939C71.7659 59.1789 71.5028 58.0824 71.0252 57.0722L63.6461 40.9881L53.6742 47.1601C53.4097 47.3104 53.0989 47.3596 52.8002 47.2982C52.5016 47.2367 52.2359 47.0691 52.0538 46.8268C51.7508 46.5565 51.5454 46.1954 51.4689 45.7987C51.3923 45.402 51.4492 44.9915 51.6301 44.6296L55.0826 39.5809C55.0826 39.5809 55.0828 39.581 54.9956 39.4205L50.4582 29.101C50.3326 28.7811 50.0931 28.5177 49.7851 28.3604V28.3357Z" fill="#171753"/>
<path d="M62.299 31.4587C62.299 33.7053 60.7037 34.6187 58.7342 33.4954C57.7002 32.8265 56.8399 31.926 56.2227 30.8666C55.6055 29.8072 55.2488 28.6187 55.1816 27.3975C55.1816 25.1509 56.7773 24.2375 58.7342 25.3608C59.7712 26.0275 60.6345 26.9273 61.254 27.987C61.8735 29.0466 62.2315 30.2361 62.299 31.4587Z" fill="#ECFFFE"/>
<path d="M60.3295 34.6804C59.6404 34.664 58.9685 34.4635 58.3849 34.1002C57.2392 33.3739 56.2859 32.3863 55.605 31.2201C54.924 30.054 54.535 28.7431 54.4708 27.3975C54.3817 26.8321 54.4674 26.2532 54.7164 25.7368C54.9653 25.2203 55.3661 24.7904 55.8661 24.5034C56.3661 24.2165 56.9419 24.0859 57.5182 24.1288C58.0945 24.1716 58.6444 24.3859 59.0955 24.7436C60.2407 25.4734 61.1931 26.4634 61.8739 27.6314C62.5547 28.7994 62.944 30.1116 63.0093 31.4587C63.0615 32.0201 62.9593 32.585 62.7135 33.0936C62.4677 33.6021 62.0877 34.0353 61.6134 34.3471C61.2237 34.571 60.78 34.6862 60.3295 34.6804ZM57.1509 25.583C56.9497 25.5793 56.7513 25.6306 56.5776 25.7311C56.3287 25.9275 56.1349 26.1838 56.0149 26.4756C55.8948 26.7674 55.8525 27.0848 55.8919 27.3975C55.9629 28.4938 56.289 29.5591 56.8447 30.5098C57.4005 31.4606 58.1709 32.2712 59.0955 32.8782C59.3468 33.071 59.6448 33.1953 59.9597 33.2386C60.2747 33.2819 60.5954 33.2428 60.8903 33.1251C61.1392 32.9287 61.333 32.6723 61.453 32.3805C61.5731 32.0887 61.6154 31.7713 61.576 31.4587C61.5073 30.3632 61.1834 29.2983 60.6298 28.3475C60.0762 27.3966 59.3079 26.5857 58.3849 25.978C58.0159 25.7408 57.5902 25.6045 57.1509 25.583Z" fill="#171753"/>
</g>
<g clip-path="url(#clip1_3906_22089)">
<path d="M17.751 64.2807V11.6835C17.751 9.3382 19.1842 8.25194 20.9667 9.21476L61.278 32.2978C62.2581 32.9944 63.0597 33.909 63.6182 34.968C64.1767 36.027 64.4767 37.201 64.494 38.3956V90.9804L17.751 64.2807Z" fill="#ECFFFE"/>
<path d="M65.1672 92.2149L17.028 64.6881V11.6836C16.9684 11.0715 17.0731 10.4547 17.3314 9.89555C17.5896 9.33635 17.9922 8.85455 18.4987 8.49888C18.9412 8.27054 19.4379 8.16489 19.936 8.19314C20.4341 8.22139 20.9151 8.38249 21.3283 8.65935L61.5897 31.693C62.6824 32.4469 63.5772 33.4485 64.1995 34.6145C64.8218 35.7805 65.1538 37.077 65.1672 38.3957V92.2149ZM18.4613 63.824L63.7461 89.7461V38.3957C63.7259 37.3254 63.4566 36.2741 62.9594 35.3235C62.4622 34.373 61.7503 33.5488 60.8791 32.9151L20.6055 9.88138C20.4072 9.74141 20.1764 9.65335 19.9345 9.6253C19.6926 9.59724 19.4474 9.6301 19.2218 9.72091C18.9413 9.96048 18.7251 10.2651 18.5925 10.6076C18.4598 10.9501 18.4146 11.3197 18.4613 11.6836V63.824Z" fill="#171753"/>
<path d="M59.6957 80.6115L22.5131 59.3555C22.1261 59.068 21.8119 58.6953 21.5956 58.2668C21.3792 57.8383 21.2666 57.3658 21.2666 56.8867V15.0904C21.2666 14.14 21.8524 13.7079 22.5131 14.1152L59.6957 35.3714C60.0835 35.6582 60.398 36.0307 60.6144 36.4594C60.8309 36.888 60.9432 37.3609 60.9422 37.8401V79.6488C60.9796 80.5745 60.4062 81.0189 59.6957 80.6115Z" fill="#5ED9D1"/>
<path d="M56.8408 64.7745L49.3619 48.5053C49.2123 48.1967 48.9256 47.9992 48.7511 48.0979L38.4053 54.5044C37.8568 54.85 36.9346 53.5416 37.321 52.9738L40.7863 47.9251C40.853 47.7951 40.8879 47.6513 40.8879 47.5054C40.8879 47.3596 40.853 47.2157 40.7863 47.0857L36.2489 36.7663C35.85 35.8405 35.0026 35.2974 34.5164 35.7047C32.4847 37.5686 27.5486 42.0741 25.467 43.9504C25.1292 44.3048 24.8696 44.7248 24.7043 45.1837C24.5391 45.6427 24.4719 46.1306 24.5071 46.6166V55.1092C24.5319 55.6022 24.6736 56.0826 24.9204 56.5115C25.1673 56.9403 25.5123 57.3056 25.928 57.578L56.2176 74.8594C57.0153 75.3038 57.6512 74.9335 57.6512 74.0324V68.2677C57.6267 67.0605 57.3506 65.8713 56.8408 64.7745Z" fill="#ECFFFE"/>
<path d="M56.8912 75.7728C56.5389 75.7699 56.194 75.6718 55.894 75.4889L25.6044 58.2075C25.077 57.8797 24.6381 57.4297 24.3254 56.8963C24.0127 56.363 23.8356 55.7624 23.8096 55.1462V46.6537C23.7755 46.0655 23.8691 45.4768 24.0841 44.9275C24.2991 44.3781 24.6306 43.8808 25.0561 43.4689C27.1501 41.5803 32.0738 37.0872 34.1055 35.2233C34.2593 35.0836 34.4462 34.9845 34.6487 34.9349C34.8513 34.8853 35.0629 34.8868 35.2647 34.9393C35.6532 35.0571 36.01 35.2604 36.3079 35.534C36.6058 35.8077 36.8372 36.1445 36.985 36.5193L41.522 46.8511C41.6464 47.083 41.7116 47.3415 41.7116 47.6041C41.7116 47.8667 41.6464 48.1253 41.522 48.3571L38.0692 53.4057C38.133 53.5652 38.2263 53.7117 38.3437 53.8378L48.5274 47.5424C48.6433 47.4705 48.774 47.4254 48.9099 47.4104C49.0459 47.3954 49.1835 47.411 49.3125 47.456C49.5017 47.5216 49.675 47.6259 49.821 47.7619C49.967 47.898 50.0827 48.0629 50.1604 48.246L57.5769 64.5275C58.1495 65.7164 58.4596 67.0125 58.4868 68.3295V74.094C58.5071 74.3955 58.4448 74.6968 58.3066 74.9662C58.1684 75.2356 57.9592 75.4631 57.7013 75.6247C57.452 75.7522 57.1701 75.8037 56.8912 75.7728ZM34.953 36.2725C32.8839 38.1611 28.0351 42.5925 25.966 44.4441C25.7068 44.7362 25.5095 45.0767 25.3853 45.4456C25.2612 45.8145 25.2129 46.2042 25.2432 46.5919V55.0845C25.2724 55.4507 25.3837 55.8059 25.5691 56.1241C25.7546 56.4423 26.0094 56.7155 26.315 56.9238L56.6046 74.2052C56.6936 74.264 56.7969 74.298 56.9037 74.3039C56.9555 74.2096 56.9773 74.102 56.9661 73.9953V68.2307C56.9339 67.1157 56.6707 66.0192 56.1931 65.009L48.8141 48.9249L38.8422 55.0968C38.5777 55.2472 38.2668 55.2963 37.9682 55.2349C37.6696 55.1735 37.4039 55.0059 37.2217 54.7636C36.9188 54.4932 36.7133 54.1322 36.6368 53.7355C36.5603 53.3388 36.6171 52.9282 36.7981 52.5664L40.2506 47.5177C40.2506 47.5177 40.2508 47.5178 40.1636 47.3573L35.6262 37.0378C35.5006 36.7179 35.2611 36.4545 34.953 36.2972V36.2725Z" fill="#171753"/>
<path d="M47.467 39.3954C47.467 41.642 45.8716 42.5554 43.9022 41.4321C42.8682 40.7633 42.0079 39.8627 41.3907 38.8033C40.7735 37.744 40.4167 36.5555 40.3496 35.3343C40.3496 33.0877 41.9452 32.1743 43.9022 33.2976C44.9392 33.9643 45.8025 34.8641 46.4219 35.9237C47.0414 36.9834 47.3995 38.1729 47.467 39.3954Z" fill="#ECFFFE"/>
<path d="M45.4974 42.6172C44.8083 42.6007 44.1364 42.4003 43.5529 42.037C42.4072 41.3107 41.4539 40.3231 40.7729 39.1569C40.092 37.9907 39.7029 36.6799 39.6387 35.3343C39.5497 34.7688 39.6354 34.19 39.8843 33.6735C40.1333 33.1571 40.534 32.7271 41.034 32.4402C41.534 32.1533 42.1099 32.0227 42.6862 32.0655C43.2624 32.1084 43.8123 32.3227 44.2634 32.6804C45.4087 33.4102 46.3611 34.4002 47.0419 35.5682C47.7226 36.7362 48.112 38.0484 48.1773 39.3954C48.2295 39.9569 48.1273 40.5218 47.8815 41.0303C47.6357 41.5389 47.2557 41.972 46.7814 42.2839C46.3917 42.5078 45.948 42.623 45.4974 42.6172ZM42.3189 33.5198C42.1176 33.5161 41.9193 33.5673 41.7455 33.6679C41.4967 33.8642 41.3029 34.1206 41.1828 34.4124C41.0628 34.7042 41.0205 35.0216 41.0599 35.3343C41.1309 36.4306 41.457 37.4958 42.0127 38.4466C42.5684 39.3974 43.3388 40.2079 44.2634 40.8149C44.5148 41.0078 44.8128 41.1321 45.1277 41.1754C45.4426 41.2187 45.7634 41.1795 46.0583 41.0618C46.3071 40.8655 46.5009 40.6091 46.621 40.3173C46.741 40.0255 46.7834 39.7081 46.7439 39.3954C46.6753 38.3 46.3514 37.2351 45.7978 36.2842C45.2442 35.3334 44.4758 34.5224 43.5529 33.9148C43.1839 33.6776 42.7582 33.5413 42.3189 33.5198Z" fill="#171753"/>
</g>
<g clip-path="url(#clip2_3906_22089)">
<path d="M1.41992 77.0936V24.4965C1.41992 22.1512 2.85317 21.0649 4.63564 22.0277L44.9469 45.1108C45.9271 45.8074 46.7286 46.722 47.2871 47.781C47.8456 48.84 48.1457 50.014 48.163 51.2086V103.793L1.41992 77.0936Z" fill="#ECFFFE"/>
<path d="M48.8362 105.028L0.696927 77.5011V24.4966C0.637363 23.8845 0.742069 23.2677 1.00033 22.7085C1.25859 22.1493 1.66117 21.6675 2.16769 21.3119C2.61013 21.0835 3.10688 20.9779 3.60498 21.0061C4.10307 21.0344 4.58401 21.1955 4.99723 21.4723L45.2586 44.506C46.3514 45.2598 47.2461 46.2615 47.8684 47.4275C48.4908 48.5935 48.8227 49.89 48.8362 51.2087V105.028ZM2.13026 76.637L47.415 102.559V51.2087C47.3948 50.1384 47.1256 49.0871 46.6284 48.1365C46.1311 47.186 45.4193 46.3618 44.548 45.728L4.27447 22.6944C4.07616 22.5544 3.84533 22.4663 3.60346 22.4383C3.36158 22.4102 3.11635 22.4431 2.89075 22.5339C2.61026 22.7735 2.39409 23.0781 2.26142 23.4206C2.12874 23.763 2.08356 24.1327 2.13026 24.4966V76.637Z" fill="#171753"/>
<path d="M43.3647 93.4245L6.18203 72.1685C5.79501 71.881 5.48086 71.5083 5.26451 71.0798C5.04816 70.6513 4.93555 70.1788 4.93555 69.6997V27.9034C4.93555 26.953 5.52139 26.5209 6.18203 26.9282L43.3647 48.1844C43.7524 48.4711 44.067 48.8437 44.2834 49.2724C44.4998 49.701 44.6121 50.1739 44.6111 50.6531V92.4617C44.6485 93.3875 44.0751 93.8319 43.3647 93.4245Z" fill="#5ED9D1"/>
<path d="M40.5097 77.5875L33.0308 61.3183C32.8813 61.0097 32.5946 60.8121 32.4201 60.9109L22.0742 67.3174C21.5258 67.663 20.6035 66.3546 20.99 65.7867L24.4552 60.7381C24.522 60.608 24.5568 60.4643 24.5568 60.3184C24.5568 60.1726 24.522 60.0287 24.4552 59.8987L19.9178 49.5792C19.519 48.6535 18.6715 48.1103 18.1854 48.5177C16.1536 50.3816 11.2175 54.8871 9.13591 56.7634C8.79819 57.1178 8.53851 57.5377 8.37329 57.9967C8.20807 58.4557 8.14089 58.9436 8.17609 59.4296V67.9222C8.20088 68.4152 8.34251 68.8956 8.58935 69.3244C8.8362 69.7533 9.1812 70.1186 9.59695 70.391L39.8865 87.6724C40.6842 88.1168 41.3201 87.7465 41.3201 86.8454V81.0807C41.2956 79.8735 41.0196 78.6843 40.5097 77.5875Z" fill="#ECFFFE"/>
<path d="M40.5602 88.5858C40.2079 88.5829 39.863 88.4848 39.5629 88.3019L9.27338 71.0205C8.74591 70.6927 8.30704 70.2427 7.99434 69.7093C7.68163 69.176 7.50455 68.5754 7.47852 67.9592V59.4667C7.44444 58.8784 7.538 58.2898 7.75301 57.7405C7.96803 57.1911 8.29951 56.6937 8.725 56.2819C10.8191 54.3933 15.7427 49.9002 17.7745 48.0362C17.9283 47.8966 18.1151 47.7974 18.3177 47.7478C18.5202 47.6982 18.7318 47.6998 18.9336 47.7523C19.3221 47.87 19.6789 48.0734 19.9768 48.347C20.2747 48.6207 20.5062 48.9575 20.6539 49.3323L25.191 59.6641C25.3154 59.896 25.3806 60.1545 25.3806 60.4171C25.3806 60.6796 25.3154 60.9383 25.191 61.1701L21.7382 66.2187C21.802 66.3782 21.8952 66.5247 22.0127 66.6508L32.1963 60.3554C32.3123 60.2835 32.4429 60.2383 32.5789 60.2234C32.7148 60.2084 32.8524 60.224 32.9815 60.269C33.1707 60.3346 33.344 60.4388 33.49 60.5749C33.636 60.711 33.7517 60.8759 33.8293 61.059L41.2458 77.3405C41.8184 78.5294 42.1286 79.8255 42.1557 81.1425V86.907C42.176 87.2085 42.1138 87.5098 41.9756 87.7792C41.8373 88.0486 41.6282 88.2761 41.3703 88.4376C41.1209 88.5652 40.8391 88.6167 40.5602 88.5858ZM18.622 49.0854C16.5528 50.9741 11.7041 55.4055 9.63491 57.2571C9.37576 57.5492 9.17844 57.8897 9.05427 58.2586C8.93011 58.6275 8.88182 59.0172 8.91216 59.4049V67.8975C8.94139 68.2637 9.05263 68.6189 9.23808 68.9371C9.42353 69.2553 9.67835 69.5285 9.98396 69.7368L40.2735 87.0181C40.3625 87.077 40.4658 87.111 40.5727 87.1168C40.6245 87.0226 40.6462 86.915 40.635 86.8082V81.0437C40.6029 79.9287 40.3397 78.8322 39.8621 77.822L32.483 61.7379L22.5112 67.9098C22.2467 68.0602 21.9358 68.1093 21.6372 68.0479C21.3385 67.9865 21.0728 67.8188 20.8907 67.5766C20.5877 67.3062 20.3823 66.9452 20.3058 66.5485C20.2293 66.1518 20.2861 65.7412 20.4671 65.3793L23.9195 60.3307C23.9195 60.3307 23.9198 60.3307 23.8325 60.1703L19.2951 49.8508C19.1695 49.5308 18.9301 49.2675 18.622 49.1102V49.0854Z" fill="#171753"/>
<path d="M31.1359 52.2084C31.1359 54.455 29.5406 55.3684 27.5711 54.2451C26.5371 53.5763 25.6768 52.6757 25.0596 51.6163C24.4424 50.5569 24.0857 49.3685 24.0186 48.1473C24.0186 45.9007 25.6142 44.9873 27.5711 46.1106C28.6082 46.7773 29.4714 47.6771 30.0909 48.7367C30.7104 49.7964 31.0684 50.9859 31.1359 52.2084Z" fill="#ECFFFE"/>
<path d="M29.1664 55.4302C28.4773 55.4137 27.8054 55.2133 27.2218 54.85C26.0761 54.1237 25.1228 53.1361 24.4419 51.9699C23.7609 50.8037 23.3719 49.4929 23.3077 48.1473C23.2186 47.5818 23.3043 47.003 23.5533 46.4865C23.8022 45.9701 24.203 45.5401 24.703 45.2532C25.203 44.9662 25.7788 44.8357 26.3551 44.8785C26.9314 44.9214 27.4813 45.1357 27.9324 45.4934C29.0776 46.2231 30.03 47.2132 30.7108 48.3812C31.3916 49.5492 31.7809 50.8614 31.8462 52.2084C31.8985 52.7699 31.7962 53.3348 31.5504 53.8433C31.3046 54.3519 30.9246 54.785 30.4503 55.0969C30.0606 55.3208 29.6169 55.436 29.1664 55.4302ZM25.9878 46.3327C25.7866 46.3291 25.5883 46.3803 25.4145 46.4809C25.1656 46.6772 24.9718 46.9336 24.8518 47.2254C24.7317 47.5172 24.6894 47.8346 24.7288 48.1473C24.7998 49.2436 25.1259 50.3088 25.6817 51.2596C26.2374 52.2104 27.0078 53.0209 27.9324 53.6279C28.1837 53.8208 28.4817 53.945 28.7966 53.9884C29.1116 54.0317 29.4324 53.9925 29.7272 53.8748C29.9761 53.6785 30.1699 53.4221 30.2899 53.1303C30.41 52.8385 30.4523 52.5211 30.4129 52.2084C30.3442 51.113 30.0204 50.0481 29.4668 49.0972C28.9131 48.1464 28.1448 47.3354 27.2218 46.7278C26.8529 46.4906 26.4271 46.3543 25.9878 46.3327Z" fill="#171753"/>
</g>
<defs>
<clipPath id="clip0_3906_22089">
<rect width="48.1391" height="84.0246" fill="white" transform="translate(31.8604 0.241089)"/>
</clipPath>
<clipPath id="clip1_3906_22089">
<rect width="48.1391" height="84.0246" fill="white" transform="translate(17.0283 8.17786)"/>
</clipPath>
<clipPath id="clip2_3906_22089">
<rect width="48.1391" height="84.0246" fill="white" transform="translate(0.697266 20.9908)"/>
</clipPath>
</defs>
</svg>
