<svg width="80" height="106" viewBox="0 0 80 106" fill="none" xmlns="http://www.w3.org/2000/svg">
<g clip-path="url(#clip0_3906_22089)">
<path d="M48.1123 57.0126V4.41552C48.1123 2.07019 46.6791 0.983934 44.8966 1.94675L4.58529 25.0298C3.60515 25.7264 2.8036 26.641 2.24509 27.7C1.68658 28.759 1.38657 29.933 1.36927 31.1276V83.7124L48.1123 57.0126Z" fill="#ECFFFE"/>
<path d="M0.696053 84.9469L48.8353 57.4201V4.41561C48.8949 3.80354 48.7902 3.18674 48.5319 2.62754C48.2736 2.06835 47.8711 1.58655 47.3645 1.23087C46.9221 1.00253 46.4253 0.896889 45.9272 0.925137C45.4292 0.953386 44.9482 1.11448 44.535 1.39135L4.2736 24.425C3.18084 25.1788 2.28609 26.1805 1.66378 27.3465C1.04147 28.5125 0.709492 29.809 0.696053 31.1277V84.9469ZM47.402 56.556L2.11721 82.4781V31.1277C2.13741 30.0574 2.40664 29.0061 2.90387 28.0555C3.40109 27.105 4.11298 26.2808 4.98418 25.647L45.2578 2.61338C45.4561 2.47341 45.6869 2.38535 45.9288 2.35729C46.1706 2.32924 46.4159 2.3621 46.6415 2.4529C46.922 2.69247 47.1381 2.99712 47.2708 3.33959C47.4035 3.68206 47.4487 4.05173 47.402 4.41561V56.556Z" fill="#171753"/>
<path d="M6.16757 73.3435L43.3502 52.0875C43.7372 51.8 44.0514 51.4273 44.2677 50.9988C44.4841 50.5703 44.5967 50.0978 44.5967 49.6187V7.82244C44.5967 6.87196 44.0108 6.43988 43.3502 6.84722L6.16757 28.1034C5.77983 28.3902 5.46527 28.7627 5.24884 29.1914C5.03241 29.62 4.92012 30.0929 4.92109 30.5721V72.3808C4.8837 73.3065 5.45708 73.7509 6.16757 73.3435Z" fill="#5ED9D1"/>
<path d="M9.02249 57.5065L16.5014 41.2373C16.651 40.9287 16.9376 40.7312 17.1121 40.8299L27.458 47.2364C28.0064 47.582 28.9287 46.2736 28.5423 45.7057L25.077 40.6571C25.0102 40.5271 24.9754 40.3833 24.9754 40.2374C24.9754 40.0916 25.0102 39.9477 25.077 39.8177L29.6144 29.4983C30.0133 28.5725 30.8607 28.0294 31.3469 28.4367C33.3786 30.3006 38.3147 34.8061 40.3963 36.6824C40.734 37.0368 40.9937 37.4567 41.1589 37.9157C41.3242 38.3747 41.3913 38.8626 41.3561 39.3486V47.8412C41.3313 48.3342 41.1897 48.8146 40.9429 49.2435C40.696 49.6723 40.351 50.0376 39.9353 50.31L9.64573 67.5914C8.84798 68.0358 8.21209 67.6655 8.21209 66.7644V60.9997C8.23663 59.7925 8.51263 58.6033 9.02249 57.5065Z" fill="#ECFFFE"/>
<path d="M8.97205 68.5048C9.32437 68.5019 9.66926 68.4038 9.9693 68.2209L40.2588 50.9395C40.7863 50.6117 41.2252 50.1617 41.5379 49.6283C41.8506 49.095 42.0277 48.4944 42.0537 47.8782V39.3857C42.0878 38.7975 41.9942 38.2088 41.7792 37.6595C41.5642 37.1101 41.2327 36.6127 40.8072 36.2009C38.7131 34.3123 33.7895 29.8192 31.7578 27.9553C31.604 27.8156 31.4171 27.7165 31.2146 27.6668C31.012 27.6172 30.8004 27.6188 30.5986 27.6713C30.2101 27.7891 29.8533 27.9924 29.5554 28.266C29.2575 28.5397 29.0261 28.8765 28.8783 29.2513L24.3413 39.5831C24.2168 39.815 24.1517 40.0735 24.1517 40.3361C24.1517 40.5987 24.2168 40.8573 24.3413 41.0891L27.794 46.1377C27.7302 46.2972 27.637 46.4437 27.5195 46.5698L17.3359 40.2744C17.22 40.2025 17.0893 40.1574 16.9534 40.1424C16.8174 40.1274 16.6798 40.143 16.5508 40.188C16.3615 40.2536 16.1882 40.3579 16.0422 40.4939C15.8962 40.63 15.7806 40.7949 15.7029 40.978L8.28643 57.2595C7.71381 58.4484 7.40363 59.7445 7.37652 61.0615V66.826C7.35619 67.1275 7.41846 67.4288 7.55667 67.6982C7.69489 67.9676 7.90408 68.1951 8.16196 68.3566C8.41133 68.4842 8.69313 68.5357 8.97205 68.5048ZM30.9102 29.0044C32.9794 30.8931 37.8282 35.3245 39.8973 37.1761C40.1565 37.4682 40.3538 37.8087 40.478 38.1776C40.6021 38.5465 40.6504 38.9362 40.6201 39.3239V47.8165C40.5908 48.1827 40.4796 48.5379 40.2941 48.8561C40.1087 49.1743 39.8539 49.4475 39.5483 49.6558L9.25872 66.9371C9.16971 66.996 9.06641 67.03 8.95958 67.0358C8.90778 66.9416 8.88598 66.834 8.89719 66.7272V60.9627C8.92936 59.8477 9.19255 58.7512 9.67015 57.741L17.0492 41.6569L27.0211 47.8288C27.2856 47.9792 27.5964 48.0283 27.8951 47.9669C28.1937 47.9055 28.4594 47.7378 28.6416 47.4956C28.9445 47.2252 29.1499 46.8642 29.2265 46.4675C29.303 46.0708 29.2462 45.6602 29.0652 45.2983L25.6127 40.2497C25.6127 40.2497 25.6125 40.2497 25.6997 40.0893L30.2371 29.7698C30.3627 29.4499 30.6022 29.1865 30.9102 29.0292V29.0044Z" fill="#171753"/>
<path d="M18.3963 32.1274C18.3963 34.374 19.9916 35.2874 21.9611 34.1641C22.9951 33.4953 23.8554 32.5947 24.4726 31.5353C25.0898 30.4759 25.4466 29.2875 25.5137 28.0663C25.5137 25.8197 23.9181 24.9063 21.9611 26.0296C20.9241 26.6963 20.0608 27.5961 19.4413 28.6557C18.8219 29.7154 18.4638 30.9049 18.3963 32.1274Z" fill="#ECFFFE"/>
<path d="M20.3658 35.3492C21.0549 35.3327 21.7268 35.1323 22.3104 34.769C23.4561 34.0427 24.4094 33.0551 25.0904 31.8889C25.7713 30.7227 26.1604 29.4119 26.2245 28.0663C26.3136 27.5008 26.2279 26.922 25.979 26.4055C25.73 25.8891 25.3292 25.4591 24.8293 25.1722C24.3293 24.8853 23.7534 24.7547 23.1771 24.7975C22.6008 24.8404 22.051 25.0547 21.5998 25.4124C20.4546 26.1421 19.5022 27.1322 18.8214 28.3002C18.1406 29.4682 17.7513 30.7804 17.686 32.1274C17.6338 32.6889 17.736 33.2538 17.9818 33.7623C18.2276 34.2709 18.6076 34.704 19.0819 35.0159C19.4716 35.2398 19.9153 35.355 20.3658 35.3492ZM23.5444 26.2518C23.7457 26.2481 23.944 26.2993 24.1178 26.3999C24.3666 26.5962 24.5604 26.8526 24.6804 27.1444C24.8005 27.4362 24.8428 27.7536 24.8034 28.0663C24.7324 29.1626 24.4063 30.2278 23.8506 31.1786C23.2948 32.1294 22.5245 32.9399 21.5998 33.5469C21.3485 33.7398 21.0505 33.8641 20.7356 33.9074C20.4207 33.9507 20.0999 33.9115 19.805 33.7938C19.5561 33.5975 19.3623 33.3411 19.2423 33.0493C19.1223 32.7575 19.0799 32.4401 19.1194 32.1274C19.188 31.032 19.5119 29.9671 20.0655 29.0162C20.6191 28.0654 21.3875 27.2544 22.3104 26.6468C22.6794 26.4096 23.1051 26.2733 23.5444 26.2518Z" fill="#171753"/>
</g>
<g clip-path="url(#clip1_3906_22089)">
<path d="M62.9443 64.9494V12.3523C62.9443 10.007 61.5111 8.9207 59.7286 9.88352L19.4173 32.9665C18.4372 33.6632 17.6356 34.5777 17.0771 35.6368C16.5186 36.6958 16.2186 37.8698 16.2013 39.0644V91.6492L62.9443 64.9494Z" fill="#ECFFFE"/>
<path d="M15.5281 92.8837L63.6673 65.3569V12.3524C63.7269 11.7403 63.6222 11.1235 63.3639 10.5643C63.1057 10.0051 62.7031 9.52332 62.1966 9.16764C61.7541 8.9393 61.2574 8.83366 60.7593 8.8619C60.2612 8.89015 59.7803 9.05125 59.367 9.32811L19.1056 32.3618C18.0129 33.1156 17.1181 34.1173 16.4958 35.2833C15.8735 36.4493 15.5415 37.7457 15.5281 39.0645V92.8837ZM62.234 64.4928L16.9492 90.4149V39.0645C16.9694 37.9942 17.2387 36.9429 17.7359 35.9923C18.2331 35.0418 18.945 34.2176 19.8162 33.5838L60.0898 10.5501C60.2881 10.4102 60.5189 10.3221 60.7608 10.2941C61.0027 10.266 61.2479 10.2989 61.4735 10.3897C61.754 10.6292 61.9702 10.9339 62.1028 11.2764C62.2355 11.6188 62.2807 11.9885 62.234 12.3524V64.4928Z" fill="#171753"/>
<path d="M20.9996 81.2803L58.1822 60.0242C58.5693 59.7368 58.8834 59.3641 59.0997 58.9356C59.3161 58.5071 59.4287 58.0345 59.4287 57.5555V15.7592C59.4287 14.8087 58.8429 14.3766 58.1822 14.784L20.9996 36.0401C20.6119 36.3269 20.2973 36.6995 20.0809 37.1281C19.8644 37.5568 19.7521 38.0297 19.7531 38.5089V80.3175C19.7157 81.2433 20.2891 81.6877 20.9996 81.2803Z" fill="#5ED9D1"/>
<path d="M23.8545 65.4432L31.3334 49.174C31.483 48.8654 31.7697 48.6679 31.9442 48.7667L42.29 55.1731C42.8385 55.5188 43.7607 54.2103 43.3743 53.6425L39.9091 48.5938C39.8423 48.4638 39.8074 48.3201 39.8074 48.1742C39.8074 48.0283 39.8423 47.8845 39.9091 47.7545L44.4464 37.435C44.8453 36.5092 45.6928 35.9661 46.1789 36.3735C48.2107 38.2374 53.1467 42.7429 55.2284 44.6192C55.5661 44.9735 55.8258 45.3935 55.991 45.8525C56.1562 46.3115 56.2234 46.7994 56.1882 47.2854V55.778C56.1634 56.271 56.0217 56.7514 55.7749 57.1802C55.5281 57.6091 55.1831 57.9744 54.7673 58.2467L24.4778 75.5281C23.68 75.9725 23.0441 75.6022 23.0441 74.7011V68.9365C23.0687 67.7293 23.3447 66.5401 23.8545 65.4432Z" fill="#ECFFFE"/>
<path d="M23.8041 76.4415C24.1564 76.4387 24.5013 76.3406 24.8013 76.1576L55.0909 58.8763C55.6183 58.5484 56.0572 58.0984 56.3699 57.5651C56.6826 57.0318 56.8597 56.4312 56.8857 55.815V47.3224C56.9198 46.7342 56.8263 46.1456 56.6112 45.5962C56.3962 45.0469 56.0647 44.5495 55.6393 44.1377C53.5452 42.2491 48.6216 37.7559 46.5898 35.892C46.436 35.7524 46.2491 35.6532 46.0466 35.6036C45.8441 35.554 45.6324 35.5555 45.4306 35.6081C45.0421 35.7258 44.6854 35.9292 44.3875 36.2028C44.0896 36.4764 43.8581 36.8133 43.7103 37.1881L39.1733 47.5199C39.0489 47.7518 38.9837 48.0103 38.9837 48.2729C38.9837 48.5354 39.0489 48.794 39.1733 49.0259L42.6261 54.0745C42.5623 54.234 42.469 54.3805 42.3516 54.5066L32.1679 48.2112C32.052 48.1392 31.9214 48.0941 31.7854 48.0792C31.6494 48.0642 31.5118 48.0798 31.3828 48.1247C31.1936 48.1904 31.0203 48.2946 30.8743 48.4307C30.7283 48.5668 30.6126 48.7317 30.535 48.9148L23.1185 65.1963C22.5458 66.3852 22.2357 67.6813 22.2085 68.9982V74.7628C22.1882 75.0643 22.2505 75.3656 22.3887 75.635C22.5269 75.9044 22.7361 76.1319 22.994 76.2934C23.2434 76.4209 23.5252 76.4725 23.8041 76.4415ZM45.7423 36.9412C47.8114 38.8298 52.6602 43.2613 54.7293 45.1128C54.9885 45.4049 55.1858 45.7455 55.31 46.1143C55.4341 46.4832 55.4824 46.873 55.4521 47.2607V55.7532C55.4229 56.1195 55.3116 56.4747 55.1262 56.7929C54.9407 57.111 54.6859 57.3843 54.3803 57.5925L24.0907 74.8739C24.0017 74.9327 23.8984 74.9668 23.7916 74.9726C23.7398 74.8784 23.718 74.7708 23.7292 74.664V68.8995C23.7614 67.7845 24.0246 66.6879 24.5022 65.6777L31.8813 49.5937L41.8531 55.7656C42.1176 55.916 42.4285 55.9651 42.7271 55.9037C43.0257 55.8423 43.2914 55.6746 43.4736 55.4324C43.7765 55.162 43.982 54.8009 44.0585 54.4043C44.135 54.0076 44.0782 53.597 43.8972 53.2351L40.4447 48.1864C40.4447 48.1864 40.4445 48.1865 40.5318 48.026L45.0691 37.7065C45.1948 37.3866 45.4342 37.1232 45.7423 36.9659V36.9412Z" fill="#171753"/>
<path d="M33.2283 40.0642C33.2283 42.3108 34.8237 43.2242 36.7931 42.1009C37.8271 41.4321 38.6875 40.5315 39.3046 39.4721C39.9218 38.4127 40.2786 37.2243 40.3457 36.003C40.3457 33.7565 38.7501 32.8431 36.7931 33.9663C35.7561 34.6331 34.8928 35.5329 34.2734 36.5925C33.6539 37.6521 33.2959 38.8416 33.2283 40.0642Z" fill="#ECFFFE"/>
<path d="M35.1979 43.2859C35.887 43.2695 36.5589 43.069 37.1425 42.7057C38.2881 41.9794 39.2414 40.9919 39.9224 39.8257C40.6034 38.6595 40.9924 37.3487 41.0566 36.003C41.1457 35.4376 41.06 34.8587 40.811 34.3423C40.562 33.8258 40.1613 33.3959 39.6613 33.109C39.1613 32.822 38.5854 32.6914 38.0091 32.7343C37.4329 32.7771 36.883 32.9915 36.4319 33.3491C35.2867 34.0789 34.3342 35.069 33.6535 36.237C32.9727 37.405 32.5833 38.7171 32.5181 40.0642C32.4658 40.6256 32.5681 41.1906 32.8138 41.6991C33.0596 42.2077 33.4396 42.6408 33.914 42.9526C34.3036 43.1766 34.7474 43.2918 35.1979 43.2859ZM38.3765 34.1885C38.5777 34.1849 38.776 34.2361 38.9498 34.3366C39.1986 34.533 39.3924 34.7894 39.5125 35.0812C39.6325 35.373 39.6749 35.6904 39.6354 36.003C39.5644 37.0994 39.2383 38.1646 38.6826 39.1154C38.1269 40.0661 37.3565 40.8767 36.4319 41.4837C36.1805 41.6765 35.8825 41.8008 35.5676 41.8441C35.2527 41.8875 34.9319 41.8483 34.637 41.7306C34.3882 41.5342 34.1944 41.2779 34.0743 40.9861C33.9543 40.6943 33.9119 40.3769 33.9514 40.0642C34.02 38.9687 34.3439 37.9038 34.8975 36.953C35.4511 36.0022 36.2195 35.1912 37.1425 34.5835C37.5114 34.3464 37.9371 34.2101 38.3765 34.1885Z" fill="#171753"/>
</g>
<g clip-path="url(#clip2_3906_22089)">
<path d="M79.2754 77.7624V25.1653C79.2754 22.8199 77.8421 21.7337 76.0597 22.6965L35.7484 45.7795C34.7682 46.4762 33.9667 47.3907 33.4082 48.4498C32.8497 49.5088 32.5497 50.6828 32.5324 51.8774V104.462L79.2754 77.7624Z" fill="#ECFFFE"/>
<path d="M31.8591 105.697L79.9984 78.1699V25.1654C80.0579 24.5533 79.9532 23.9365 79.695 23.3773C79.4367 22.8181 79.0341 22.3363 78.5276 21.9806C78.0852 21.7523 77.5884 21.6466 77.0903 21.6749C76.5922 21.7031 76.1113 21.8642 75.6981 22.1411L35.4367 45.1748C34.3439 45.9286 33.4492 46.9303 32.8269 48.0963C32.2046 49.2623 31.8726 50.5587 31.8591 51.8775V105.697ZM78.5651 77.3058L33.2803 103.228V51.8775C33.3005 50.8072 33.5697 49.7558 34.067 48.8053C34.5642 47.8548 35.2761 47.0306 36.1473 46.3968L76.4208 23.3631C76.6192 23.2232 76.85 23.1351 77.0919 23.107C77.3337 23.079 77.579 23.1119 77.8046 23.2027C78.0851 23.4422 78.3012 23.7469 78.4339 24.0893C78.5666 24.4318 78.6118 24.8015 78.5651 25.1654V77.3058Z" fill="#171753"/>
<path d="M37.3307 94.0933L74.5133 72.8372C74.9003 72.5498 75.2144 72.177 75.4308 71.7485C75.6472 71.32 75.7598 70.8475 75.7598 70.3685V28.5722C75.7598 27.6217 75.1739 27.1896 74.5133 27.597L37.3307 48.8531C36.9429 49.1399 36.6284 49.5125 36.4119 49.9411C36.1955 50.3698 36.0832 50.8426 36.0842 51.3219V93.1305C36.0468 94.0563 36.6202 94.5006 37.3307 94.0933Z" fill="#5ED9D1"/>
<path d="M40.1856 78.2562L47.6645 61.987C47.814 61.6784 48.1007 61.4809 48.2752 61.5797L58.6211 67.9861C59.1695 68.3318 60.0918 67.0233 59.7054 66.4555L56.2401 61.4068C56.1733 61.2768 56.1385 61.133 56.1385 60.9872C56.1385 60.8413 56.1733 60.6975 56.2401 60.5675L60.7775 50.248C61.1763 49.3222 62.0238 48.7791 62.5099 49.1865C64.5417 51.0504 69.4778 55.5559 71.5594 57.4321C71.8971 57.7865 72.1568 58.2065 72.322 58.6655C72.4872 59.1244 72.5544 59.6124 72.5192 60.0984V68.591C72.4944 69.084 72.3528 69.5644 72.106 69.9932C71.8591 70.4221 71.5141 70.7874 71.0984 71.0597L40.8088 88.3411C40.0111 88.7855 39.3752 88.4152 39.3752 87.5141V81.7495C39.3997 80.5422 39.6757 79.3531 40.1856 78.2562Z" fill="#ECFFFE"/>
<path d="M40.1351 89.2545C40.4875 89.2517 40.8323 89.1535 41.1324 88.9706L71.4219 71.6893C71.9494 71.3614 72.3883 70.9114 72.701 70.3781C73.0137 69.8448 73.1908 69.2442 73.2168 68.628V60.1354C73.2509 59.5472 73.1573 58.9586 72.9423 58.4092C72.7273 57.8599 72.3958 57.3625 71.9703 56.9507C69.8762 55.0621 64.9526 50.5689 62.9208 48.705C62.7671 48.5654 62.5802 48.4662 62.3776 48.4166C62.1751 48.367 61.9635 48.3685 61.7617 48.421C61.3732 48.5388 61.0164 48.7422 60.7185 49.0158C60.4206 49.2894 60.1891 49.6263 60.0414 50.0011L55.5043 60.3329C55.3799 60.5648 55.3148 60.8233 55.3148 61.0858C55.3148 61.3484 55.3799 61.607 55.5043 61.8389L58.9571 66.8875C58.8933 67.047 58.8001 67.1935 58.6826 67.3196L48.499 61.0241C48.3831 60.9522 48.2524 60.9071 48.1164 60.8921C47.9805 60.8772 47.8429 60.8928 47.7138 60.9377C47.5246 61.0034 47.3513 61.1076 47.2053 61.2437C47.0593 61.3798 46.9436 61.5447 46.866 61.7278L39.4495 78.0093C38.8769 79.1982 38.5667 80.4943 38.5396 81.8112V87.5758C38.5193 87.8773 38.5815 88.1786 38.7198 88.448C38.858 88.7174 39.0672 88.9449 39.325 89.1064C39.5744 89.2339 39.8562 89.2855 40.1351 89.2545ZM62.0733 49.7542C64.1425 51.6428 68.9912 56.0743 71.0604 57.9258C71.3196 58.2179 71.5169 58.5585 71.641 58.9273C71.7652 59.2962 71.8135 59.686 71.7832 60.0736V68.5662C71.7539 68.9325 71.6427 69.2877 71.4572 69.6059C71.2718 69.924 71.017 70.1973 70.7114 70.4055L40.4218 87.6869C40.3328 87.7457 40.2295 87.7798 40.1227 87.7856C40.0709 87.6913 40.0491 87.5837 40.0603 87.477V81.7124C40.0924 80.5975 40.3556 79.5009 40.8332 78.4907L48.2123 62.4067L58.1842 68.5786C58.4487 68.729 58.7595 68.7781 59.0582 68.7167C59.3568 68.6553 59.6225 68.4876 59.8046 68.2453C60.1076 67.975 60.313 67.6139 60.3895 67.2172C60.4661 66.8206 60.4092 66.41 60.2283 66.0481L56.7758 60.9994C56.7758 60.9994 56.7756 60.9995 56.8628 60.839L61.4002 50.5195C61.5258 50.1996 61.7653 49.9362 62.0733 49.7789V49.7542Z" fill="#171753"/>
<path d="M49.5594 52.8772C49.5594 55.1238 51.1547 56.0372 53.1242 54.9139C54.1582 54.245 55.0185 53.3445 55.6357 52.2851C56.2529 51.2257 56.6096 50.0373 56.6768 48.816C56.6768 46.5694 55.0811 45.656 53.1242 46.7793C52.0872 47.4461 51.2239 48.3459 50.6044 49.4055C49.9849 50.4651 49.6269 51.6546 49.5594 52.8772Z" fill="#ECFFFE"/>
<path d="M51.5289 56.0989C52.218 56.0825 52.8899 55.882 53.4735 55.5187C54.6192 54.7924 55.5725 53.8049 56.2534 52.6387C56.9344 51.4725 57.3234 50.1616 57.3876 48.816C57.4767 48.2506 57.391 47.6717 57.142 47.1553C56.8931 46.6388 56.4923 46.2089 55.9923 45.922C55.4923 45.635 54.9165 45.5044 54.3402 45.5473C53.7639 45.5901 53.214 45.8045 52.7629 46.1621C51.6177 46.8919 50.6653 47.882 49.9845 49.05C49.3037 50.218 48.9144 51.5301 48.8491 52.8772C48.7969 53.4386 48.8991 54.0035 49.1449 54.5121C49.3907 55.0206 49.7707 55.4538 50.245 55.7656C50.6347 55.9896 51.0784 56.1048 51.5289 56.0989ZM54.7075 47.0015C54.9087 46.9979 55.1071 47.0491 55.2808 47.1496C55.5297 47.346 55.7235 47.6023 55.8435 47.8941C55.9636 48.1859 56.0059 48.5034 55.9665 48.816C55.8955 49.9123 55.5694 50.9776 55.0137 51.9284C54.4579 52.8791 53.6875 53.6897 52.7629 54.2967C52.5116 54.4895 52.2136 54.6138 51.8987 54.6571C51.5837 54.7004 51.263 54.6613 50.9681 54.5436C50.7192 54.3472 50.5254 54.0909 50.4054 53.7991C50.2853 53.5073 50.243 53.1899 50.2824 52.8772C50.3511 51.7817 50.675 50.7168 51.2286 49.766C51.7822 48.8152 52.5505 48.0042 53.4735 47.3965C53.8425 47.1594 54.2682 47.0231 54.7075 47.0015Z" fill="#171753"/>
</g>
<defs>
<clipPath id="clip0_3906_22089">
<rect width="48.1391" height="84.0246" fill="white" transform="matrix(-1 0 0 1 48.835 0.909851)"/>
</clipPath>
<clipPath id="clip1_3906_22089">
<rect width="48.1391" height="84.0246" fill="white" transform="matrix(-1 0 0 1 63.667 8.84662)"/>
</clipPath>
<clipPath id="clip2_3906_22089">
<rect width="48.1391" height="84.0246" fill="white" transform="matrix(-1 0 0 1 79.998 21.6596)"/>
</clipPath>
</defs>
</svg>
