<svg viewBox="0 0 32 28" fill="none" xmlns="http://www.w3.org/2000/svg">
<path d="M15.3834 20.1874L15.3834 0.783116C15.3834 0.374605 15.7238 0.0341796 16.1323 0.0341797C16.5408 0.0341797 16.8812 0.374605 16.8812 0.783116L16.8812 20.1874C16.8812 20.5959 16.5408 20.9363 16.1323 20.9363C15.7238 20.9363 15.3834 20.5959 15.3834 20.1874Z" fill="#FFA6A6"/>
<path d="M7.11099 9.02131C7.11099 8.81705 7.17908 8.64684 7.34929 8.47663L15.5876 0.238332C15.894 -0.0680512 16.3706 -0.0680512 16.6769 0.238332L24.9493 8.51067C25.2557 8.81705 25.2557 9.29365 24.9493 9.60003C24.6429 9.90642 24.1663 9.90642 23.8599 9.60003L16.1323 1.83833L8.40461 9.56599C8.09823 9.87237 7.62163 9.87237 7.31525 9.56599C7.17908 9.39578 7.11099 9.22556 7.11099 9.02131Z" fill="#FFA6A6"/>
<path d="M-3.08358e-05 26.5533L-3.01885e-05 11.7448C-3.01706e-05 11.3363 0.340394 10.9958 0.748905 10.9958C1.15742 10.9958 1.49784 11.3363 1.49784 11.7448L1.49784 25.7703L30.434 25.7703L30.434 11.7448C30.434 11.3363 30.7744 10.9958 31.1829 10.9958C31.5915 10.9958 31.9319 11.3363 31.9319 11.7448L31.9319 26.5533C31.9319 26.9618 31.5915 27.3022 31.1829 27.3022L0.714862 27.3022C0.340394 27.3022 -3.08537e-05 26.9618 -3.08358e-05 26.5533Z" fill="#FFA6A6"/>
</svg>
