<svg width="48" height="48" viewBox="0 0 48 48" fill="none" xmlns="http://www.w3.org/2000/svg">
<path fill-rule="evenodd" clip-rule="evenodd" d="M30.4559 12.7C28.081 12.7 26.1559 14.6252 26.1559 17C26.1559 19.3749 28.081 21.3 30.4559 21.3C32.8307 21.3 34.7559 19.3749 34.7559 17C34.7559 14.6252 32.8307 12.7 30.4559 12.7ZM24.7559 17C24.7559 13.852 27.3078 11.3 30.4559 11.3C33.6039 11.3 36.1559 13.852 36.1559 17C36.1559 20.1481 33.6039 22.7 30.4559 22.7C27.3078 22.7 24.7559 20.1481 24.7559 17Z" fill="#FFC78F"/>
<path fill-rule="evenodd" clip-rule="evenodd" d="M27.3531 20.0893C27.6273 20.3618 27.6287 20.805 27.3561 21.0792L15.1561 33.3536C15.0275 33.483 15.0275 33.6458 15.1561 33.7752L17.9561 36.5923C18.2287 36.8665 18.2273 37.3097 17.9531 37.5822C17.6789 37.8548 17.2357 37.8534 16.9632 37.5792L14.1632 34.7621C13.4918 34.0867 13.4918 33.0421 14.1632 32.3667L26.3632 20.0923C26.6357 19.8181 27.0789 19.8167 27.3531 20.0893Z" fill="#FFC78F"/>
<path fill-rule="evenodd" clip-rule="evenodd" d="M17.7163 29.7982C17.9905 29.5257 18.4337 29.5271 18.7062 29.8013L21.9562 33.0711C22.2288 33.3453 22.2274 33.7885 21.9532 34.061C21.679 34.3336 21.2358 34.3322 20.9633 34.058L17.7133 30.7882C17.4408 30.514 17.4421 30.0708 17.7163 29.7982Z" fill="#FFC78F"/>
</svg>
