<svg width="65" height="109" viewBox="0 0 60 108" fill="none" xmlns="http://www.w3.org/2000/svg">
<path d="M28.5983 104.56C26.2182 103.922 24.1881 102.466 22.7806 100.395L16.2234 89.7145C15.9549 89.2517 15.9021 88.7164 16.1097 88.1858C16.301 87.716 16.7201 87.3723 17.2125 87.2437C19.0272 86.818 20.6872 87.4582 22.0703 89.1316L23.3924 90.7886L22.6418 77.2341C22.5931 76.4394 22.9269 75.682 23.4559 75.1724C24.0012 74.602 24.7865 74.3565 25.6124 74.4475C26.8819 74.5922 27.8908 75.7094 27.9923 77.0393L28.3047 82.4644C28.8622 82.0926 29.4929 81.9359 30.1195 82.0387C31.0675 82.1624 31.8852 82.7724 32.2838 83.726C32.8576 83.2935 33.5046 83.076 34.2695 83.1507C35.2175 83.2744 36.0352 83.8844 36.4338 84.838C37.0076 84.4055 37.7156 84.2043 38.4195 84.2627C39.6889 84.4074 40.6978 85.5245 40.7993 86.8545L41.2051 94.1284C41.3673 97.4288 40.0607 100.596 37.7005 102.569C35.4339 104.437 32.6792 105.197 29.7905 104.749C29.2697 104.74 28.9645 104.658 28.5983 104.56ZM19.1083 88.4682C18.6201 88.3374 18.0993 88.3281 17.5459 88.4404C17.3913 88.5292 17.2977 88.6344 17.2814 88.6952C17.2651 88.756 17.2326 88.8775 17.3058 89.0925L23.8183 99.6964C25.1647 101.751 27.3332 103.179 29.8557 103.529C32.3621 103.94 34.779 103.22 36.7811 101.606C38.8768 99.8881 40.0084 97.1298 39.8705 94.2268L39.4647 86.9529C39.3997 86.2189 38.9034 85.63 38.2158 85.5109C37.7723 85.4572 37.4021 85.6185 37.0765 85.857C36.7957 86.1726 36.637 86.5209 36.6613 86.9182L36.9048 90.8918C36.9455 91.2283 36.6647 91.5439 36.327 91.5837C35.9893 91.6235 35.6719 91.3431 35.6313 91.0065L35.3147 85.8409C35.2497 85.1069 34.7697 84.4572 34.0658 84.3989C33.6224 84.3452 33.2521 84.5065 32.9265 84.745C32.6457 85.0606 32.487 85.4089 32.5113 85.8062L32.7386 89.8406C32.7792 90.1771 32.4984 90.4927 32.1607 90.5325C31.823 90.5723 31.5057 90.2919 31.465 89.9553L31.1647 84.7289C31.0998 83.995 30.6035 83.406 29.9158 83.2869C29.4724 83.2332 29.1021 83.3945 28.7765 83.633C28.4957 83.9486 28.337 84.2969 28.3614 84.6942L28.5886 88.7286C28.6292 89.0651 28.3484 89.3807 28.0107 89.4205C27.673 89.4603 27.3557 89.1799 27.315 88.8433L26.6577 77.1377C26.5927 76.4038 26.0964 75.8148 25.4088 75.6957C24.9653 75.642 24.595 75.8033 24.2695 76.0418C23.9887 76.3574 23.83 76.7057 23.8543 77.103L24.7267 92.6443C24.7226 92.9037 24.5801 93.1913 24.3034 93.2474C24.0105 93.3643 23.7826 93.2381 23.5711 93.0512L21.1384 89.9241C20.4916 89.1645 19.8407 88.6644 19.1083 88.4682Z" fill="white"/>
<path d="M30.062 60.4499C30.0288 63.8076 27.1846 66.5079 23.8256 66.4747C20.4666 66.4414 17.568 63.6843 17.6012 60.3266C17.6345 56.9689 20.4787 54.2687 23.946 54.303C27.4133 54.3373 30.0942 57.1972 30.062 60.4499ZM19.2266 60.3427C19.2027 62.7561 21.2406 64.875 23.8411 64.9007C26.4416 64.9265 28.4118 62.9521 28.4367 60.4339C28.4616 57.9156 26.4215 56.0065 23.9294 55.9819C21.4372 55.9572 19.2504 57.9294 19.2266 60.3427Z" fill="white"/>
<path d="M44.1478 60.5891L44.1167 63.7369C44.1125 64.1567 43.7833 64.5731 43.2415 64.5678C42.6997 64.5624 42.4862 64.2455 42.4913 63.7209L42.5142 61.4124L29.295 61.2816C28.7532 61.2763 28.4312 60.9583 28.4364 60.4336C28.4416 59.909 28.7698 59.5974 29.3116 59.6028L43.3976 59.7422C43.83 59.8514 44.152 60.1694 44.1478 60.5891Z" fill="white"/>
<path d="M38.7322 60.5344L38.701 63.6823C38.6969 64.102 38.3676 64.5185 37.8259 64.5131C37.2841 64.5078 37.0705 64.1908 37.0757 63.6662L37.1068 60.5183C37.111 60.0986 37.4402 59.6821 37.982 59.6875C38.5238 59.6929 38.7363 60.1147 38.7322 60.5344Z" fill="white"/>
</svg>
