<svg viewBox="0 0 268 268" fill="none" xmlns="http://www.w3.org/2000/svg">
<g opacity="0.5">
<g filter="url(#filter0_d_4216_21578)">
<path d="M20 132C20 69.0395 71.0395 18 134 18C196.96 18 248 69.0395 248 132C248 194.96 196.96 246 134 246C71.0395 246 20 194.96 20 132Z" fill="#BEF0ED"/>
</g>
<mask id="mask0_4216_21578" style="mask-type:alpha" maskUnits="userSpaceOnUse" x="26" y="23" width="216" height="216">
<circle cx="134" cy="131" r="108" fill="#9BE7C4"/>
</mask>
<g mask="url(#mask0_4216_21578)">
<g opacity="0.5">
<path opacity="0.9" d="M304.352 97.6516C308.432 18.8837 173.013 -52.1426 1.88515 -60.9902C-169.242 -69.8378 -311.276 -13.1564 -315.356 65.6115C-319.436 144.379 -184.017 215.406 -12.8894 224.253C158.238 233.101 300.272 176.419 304.352 97.6516Z" stroke="#5ED9D1" stroke-width="2" stroke-miterlimit="10"/>
<path opacity="0.9" d="M292.64 81.4867C293.303 4.54464 158.308 -58.9914 -8.87822 -60.4249C-176.065 -61.8585 -312.134 -0.646678 -312.796 76.2954C-313.459 153.237 -178.465 216.773 -11.2779 218.207C155.909 219.641 291.977 158.429 292.64 81.4867Z" stroke="#5ED9D1" stroke-width="2" stroke-miterlimit="10"/>
<path opacity="0.9" d="M-9.49193 212.151C153.761 206.174 283.873 140.426 281.12 65.3007C278.368 -9.82492 143.794 -65.8803 -19.4594 -59.9026C-182.713 -53.9248 -312.824 11.8225 -310.072 86.9481C-307.319 162.074 -172.745 218.129 -9.49193 212.151Z" stroke="#5ED9D1" stroke-width="2" stroke-miterlimit="10"/>
<path opacity="0.9" d="M-7.85981 206.141C151.444 192.749 275.584 122.454 269.414 49.1315C263.244 -24.1907 129.101 -72.7738 -30.2032 -59.3819C-189.507 -45.9901 -313.647 24.3056 -307.477 97.6278C-301.307 170.95 -167.164 219.533 -7.85981 206.141Z" stroke="#5ED9D1" stroke-width="2" stroke-miterlimit="10"/>
<path opacity="0.9" d="M-6.25345 200.254C149.107 179.46 267.284 104.635 257.702 33.1277C248.121 -38.3796 114.409 -79.4906 -40.9513 -58.6964C-196.312 -37.9022 -314.488 36.923 -304.907 108.43C-295.325 179.938 -161.614 221.049 -6.25345 200.254Z" stroke="#5ED9D1" stroke-width="2" stroke-miterlimit="10"/>
<path opacity="0.9" d="M-4.66424 194.256C146.748 166.052 258.957 86.6981 245.962 17.0139C232.967 -52.6704 99.6879 -86.297 -51.7245 -58.0932C-203.137 -29.8895 -315.346 49.4643 -302.351 119.149C-289.355 188.833 -156.077 222.459 -4.66424 194.256Z" stroke="#5ED9D1" stroke-width="2" stroke-miterlimit="10"/>
<path opacity="0.9" d="M-3.0143 188.178C144.453 152.557 250.692 68.6603 234.277 0.788832C217.863 -67.0826 85.0114 -93.2269 -62.4554 -57.606C-209.922 -21.9851 -316.161 61.9121 -299.747 129.784C-283.333 197.655 -150.481 223.799 -3.0143 188.178Z" stroke="#5ED9D1" stroke-width="2" stroke-miterlimit="10"/>
<path opacity="0.9" d="M-1.38845 182.237C142.135 139.21 242.413 50.7878 222.588 -15.2604C202.764 -81.3086 70.3437 -99.9715 -73.1797 -56.9452C-216.703 -13.919 -316.981 74.5033 -297.156 140.552C-277.332 206.6 -144.912 225.263 -1.38845 182.237Z" stroke="#5ED9D1" stroke-width="2" stroke-miterlimit="10"/>
<path opacity="0.9" d="M0.299073 175.992C139.881 125.53 234.187 32.5531 210.937 -31.6767C187.688 -95.9065 55.6867 -107.067 -83.8953 -56.6045C-223.477 -6.14189 -317.783 86.8347 -294.534 151.064C-271.284 215.294 -139.283 226.455 0.299073 175.992Z" stroke="#5ED9D1" stroke-width="2" stroke-miterlimit="10"/>
<path opacity="0.9" d="M1.91279 170.057C137.547 112.191 225.886 14.6811 199.223 -47.7374C172.56 -110.156 40.9915 -113.846 -94.6432 -55.9802C-230.278 1.88591 -318.617 99.3959 -291.953 161.814C-265.29 224.233 -133.722 227.923 1.91279 170.057Z" stroke="#5ED9D1" stroke-width="2" stroke-miterlimit="10"/>
<path opacity="0.9" d="M3.54456 164.176C135.238 98.9081 217.616 -3.13391 187.541 -63.7412C157.465 -124.348 26.3259 -120.57 -105.368 -55.3024C-237.061 9.96556 -319.439 112.008 -289.364 172.615C-259.289 233.222 -128.149 229.444 3.54456 164.176Z" stroke="#5ED9D1" stroke-width="2" stroke-miterlimit="10"/>
<path opacity="0.9" d="M5.17114 157.999C132.912 85.3083 209.313 -21.2766 175.817 -80.0649C142.321 -138.853 11.6127 -127.583 -116.129 -54.892C-243.87 17.7989 -320.271 124.384 -286.775 183.172C-253.279 241.96 -122.57 230.69 5.17114 157.999Z" stroke="#5ED9D1" stroke-width="2" stroke-miterlimit="10"/>
<path opacity="0.9" d="M6.82662 152.104C130.639 72.0037 201.091 -39.1157 164.186 -96.0877C127.28 -153.06 -3.00726 -134.31 -126.82 -54.2097C-250.632 25.8909 -321.084 137.01 -284.179 193.982C-247.273 250.954 -116.986 232.205 6.82662 152.104Z" stroke="#5ED9D1" stroke-width="2" stroke-miterlimit="10"/>
<path opacity="0.9" d="M8.41212 145.844C128.27 58.3137 192.744 -57.3495 152.418 -112.497C112.093 -167.645 -17.7611 -141.393 -137.619 -53.8632C-257.477 33.667 -321.95 149.33 -281.625 204.478C-241.3 259.625 -111.446 233.374 8.41212 145.844Z" stroke="#5ED9D1" stroke-width="2" stroke-miterlimit="10"/>
<path opacity="0.9" d="M10.0504 139.838C125.965 44.8973 184.475 -75.301 140.737 -128.633C96.9982 -181.964 -32.4259 -148.234 -148.34 -53.2934C-264.255 41.6471 -322.765 161.845 -279.026 215.177C-235.288 268.509 -105.864 234.778 10.0504 139.838Z" stroke="#5ED9D1" stroke-width="2" stroke-miterlimit="10"/>
<path opacity="0.9" d="M11.6579 133.874C123.629 31.5265 176.178 -93.2019 129.031 -144.715C81.8843 -196.228 -47.106 -155.018 -159.077 -52.6708C-271.047 49.6767 -323.597 174.405 -276.45 225.918C-229.303 277.431 -100.313 236.221 11.6579 133.874Z" stroke="#5ED9D1" stroke-width="2" stroke-miterlimit="10"/>
<path opacity="0.9" d="M13.2706 127.799C121.289 18.0359 167.867 -111.228 117.306 -160.92C66.7453 -210.613 -61.8085 -161.916 -169.827 -52.1535C-277.845 57.6092 -324.423 186.873 -273.862 236.565C-223.301 286.258 -94.7476 237.561 13.2706 127.799Z" stroke="#5ED9D1" stroke-width="2" stroke-miterlimit="10"/>
<path opacity="0.9" d="M14.9084 121.766C118.982 4.59051 159.59 -129.215 105.61 -177.097C51.6289 -224.979 -76.4993 -168.805 -180.573 -51.6299C-284.646 65.5455 -325.255 199.351 -271.274 247.233C-217.293 295.115 -89.1651 238.941 14.9084 121.766Z" stroke="#5ED9D1" stroke-width="2" stroke-miterlimit="10"/>
<path opacity="0.9" d="M16.5377 115.805C116.67 -8.77595 151.327 -147.107 93.9459 -193.167C36.5648 -239.226 -91.1252 -175.573 -191.258 -50.9921C-291.39 73.5885 -326.047 211.92 -268.666 257.979C-211.285 304.039 -83.5947 240.385 16.5377 115.805Z" stroke="#5ED9D1" stroke-width="2" stroke-miterlimit="10"/>
<path opacity="0.9" d="M18.1383 109.719C114.323 -22.2784 143.01 -165.15 82.2118 -209.394C21.4138 -253.638 -105.846 -182.501 -202.031 -50.5037C-298.215 81.4933 -326.902 224.365 -266.104 268.609C-205.306 312.853 -78.0465 241.716 18.1383 109.719Z" stroke="#5ED9D1" stroke-width="2" stroke-miterlimit="10"/>
<path opacity="0.9" d="M19.7663 103.685C112.005 -35.7255 134.724 -183.136 70.5108 -225.565C6.29781 -267.993 -120.531 -189.374 -212.77 -49.9636C-305.008 89.447 -327.727 236.857 -263.514 279.286C-199.301 321.715 -72.4722 243.096 19.7663 103.685Z" stroke="#5ED9D1" stroke-width="2" stroke-miterlimit="10"/>
<path opacity="0.9" d="M21.5146 97.8535C109.826 -48.9514 126.601 -200.89 58.9839 -241.512C-8.63367 -282.133 -135.039 -196.055 -223.35 -49.2498C-311.661 97.5551 -328.437 249.494 -260.82 290.116C-193.202 330.737 -66.7966 244.658 21.5146 97.8535Z" stroke="#5ED9D1" stroke-width="2" stroke-miterlimit="10"/>
</g>
</g>
<g filter="url(#filter1_d_4216_21578)">
<path d="M166.087 132.534C166.087 127.52 170.116 123.509 175.151 123.509C180.187 123.509 184.215 127.52 184.215 132.534C184.215 137.549 180.187 141.56 175.151 141.56C170.116 141.56 166.087 137.382 166.087 132.534Z" fill="#3E3E71"/>
<path d="M220.809 154.431C220.474 157.272 220.138 160.114 219.299 162.788C216.781 172.316 211.242 181.007 202.178 185.854C189.756 192.206 174.985 189.866 162.564 185.019C152.325 192.206 152.325 192.206 152.325 192.206C149.975 193.71 146.954 191.203 148.297 188.696C145.443 189.197 144.604 186.523 145.443 184.35C143.093 186.189 141.079 182.846 142.422 180.84C143.261 179.503 144.604 177.998 145.611 176.828C131.176 168.638 118.083 158.61 104.823 148.748C112.376 153.428 142.59 168.805 149.975 171.981C157.697 175.324 165.418 178.667 173.475 180.506C180.189 182.01 188.749 182.846 194.96 179.001C200.667 175.658 202.849 168.805 203.688 162.621C205.703 149.249 201.003 134.206 193.953 122.84C186.567 110.972 174.482 100.275 160.718 96.765C155.682 95.428 150.647 95.428 145.947 96.2637C135.036 98.1022 125.133 104.788 117.58 113.145C106.669 125.18 99.1159 140.056 92.2339 154.765C87.5341 164.627 80.9877 188.696 65.5454 179.169C58.6635 174.823 54.2992 167.301 51.2779 159.946C47.9208 152.091 45.571 141.56 47.7529 133.036C52.453 115.151 77.6308 131.03 86.1914 136.713C85.6878 136.546 65.5454 127.353 58.1599 134.54C54.8028 137.883 54.9707 143.901 55.4742 148.246C56.4813 156.102 60.342 167.802 67.7276 172.148C77.295 177.664 82.1628 160.448 84.6805 154.431C88.877 144.235 92.9054 134.039 97.6053 124.01C102.809 112.978 109.019 102.114 117.58 93.2551C115.733 91.0822 113.048 88.4078 112.88 85.5664C112.544 82.3905 115.733 78.8803 119.09 80.5518C115.23 76.2059 120.433 69.6874 125.469 72.1946C123.119 68.5172 126.812 63.8371 130.672 64.0044C132.854 64.0044 135.036 65.8428 136.715 67.013C141.079 69.8544 145.443 72.863 149.975 75.7044C191.771 69.1859 224.502 116.489 220.809 154.431Z" fill="#3E3E71"/>
<path d="M219.299 162.789C216.781 172.316 211.242 181.008 202.178 185.855C189.757 192.206 174.986 189.867 162.565 185.019C152.326 192.206 152.326 192.206 152.326 192.206C149.976 193.711 146.955 191.204 148.297 188.696C145.444 189.198 144.604 186.523 145.444 184.35C143.094 186.189 141.08 182.846 142.422 180.841C143.262 179.503 144.604 177.999 145.612 176.829C131.176 168.639 118.084 158.61 104.823 148.748C112.377 153.428 142.59 168.806 149.976 171.982C157.697 175.325 165.418 178.668 173.475 180.506C180.189 182.011 188.75 182.846 194.96 179.002C200.667 175.659 202.85 168.806 203.689 162.621C205.703 149.25 201.003 134.206 193.953 122.841C186.568 110.973 174.482 100.276 160.718 96.7655C155.683 95.4283 150.647 95.4283 145.947 96.2641C164.747 90.5813 201.003 98.1028 213.76 127.019C219.803 141.227 220.978 152.593 219.299 162.789Z" fill="#3E3E71"/>
</g>
<defs>
<filter id="filter0_d_4216_21578" x="0" y="0" width="268" height="268" filterUnits="userSpaceOnUse" color-interpolation-filters="sRGB">
<feFlood flood-opacity="0" result="BackgroundImageFix"/>
<feColorMatrix in="SourceAlpha" type="matrix" values="0 0 0 0 0 0 0 0 0 0 0 0 0 0 0 0 0 0 127 0" result="hardAlpha"/>
<feMorphology radius="4" operator="dilate" in="SourceAlpha" result="effect1_dropShadow_4216_21578"/>
<feOffset dy="2"/>
<feGaussianBlur stdDeviation="8"/>
<feColorMatrix type="matrix" values="0 0 0 0 0 0 0 0 0 0 0 0 0 0 0 0 0 0 0.25 0"/>
<feBlend mode="normal" in2="BackgroundImageFix" result="effect1_dropShadow_4216_21578"/>
<feBlend mode="normal" in="SourceGraphic" in2="effect1_dropShadow_4216_21578" result="shape"/>
</filter>
<filter id="filter1_d_4216_21578" x="38.9072" y="61" width="190.187" height="144.661" filterUnits="userSpaceOnUse" color-interpolation-filters="sRGB">
<feFlood flood-opacity="0" result="BackgroundImageFix"/>
<feColorMatrix in="SourceAlpha" type="matrix" values="0 0 0 0 0 0 0 0 0 0 0 0 0 0 0 0 0 0 127 0" result="hardAlpha"/>
<feOffset dy="5"/>
<feGaussianBlur stdDeviation="4"/>
<feComposite in2="hardAlpha" operator="out"/>
<feColorMatrix type="matrix" values="0 0 0 0 0.875652 0 0 0 0 1 0 0 0 0 0.977617 0 0 0 0.5 0"/>
<feBlend mode="normal" in2="BackgroundImageFix" result="effect1_dropShadow_4216_21578"/>
<feBlend mode="normal" in="SourceGraphic" in2="effect1_dropShadow_4216_21578" result="shape"/>
</filter>
</defs>
</g>
</svg>
