<svg width="102" height="114" viewBox="0 0 102 114" fill="none" xmlns="http://www.w3.org/2000/svg">
<g filter="url(#filter0_d_3906_22115)">
<path d="M32.909 66.0835C24.4042 43.5898 28.7799 21.0939 42.6824 15.8375C56.5848 10.581 74.7494 24.5546 83.2541 47.0483C91.7589 69.542 87.3832 92.038 73.4807 97.2944C59.5783 102.551 41.4137 88.5772 32.909 66.0835Z" fill="#4E4E8D"/>
<path d="M32.909 66.0835C24.4042 43.5898 28.7799 21.0939 42.6824 15.8375C56.5848 10.581 74.7494 24.5546 83.2541 47.0483C91.7589 69.542 87.3832 92.038 73.4807 97.2944C59.5783 102.551 41.4137 88.5772 32.909 66.0835Z" fill="black" fill-opacity="0.2"/>
</g>
<path d="M61.0404 95.8678C49.0505 94.9352 35.4206 83.7141 27.2348 66.6229C19.049 49.5317 18.8572 31.9091 25.6199 21.9668L24.5147 19.6254L32.7032 15.7143C46.1058 9.28209 65.3836 21.6706 75.8025 43.3896C86.2215 65.1087 83.7447 87.8853 70.3421 94.3176L62.1536 98.2286L61.0404 95.8678Z" fill="#FFE850"/>
<path d="M76.4282 43.0859C65.8887 21.0754 46.1908 8.49664 32.4077 15.1091L23.5942 19.3242L24.8314 21.9296C17.9849 32.3844 18.6771 50.3915 26.6184 66.9467C34.5598 83.502 48.138 95.3133 60.5881 96.5334L61.8253 99.1387L70.6388 94.9235C84.3636 88.3352 86.9597 65.0769 76.4282 43.0859ZM25.4411 19.9936L33.0354 16.3511C46.0769 10.091 65.0833 22.3187 75.2089 43.6586C85.3345 64.9985 83.111 87.3973 70.0373 93.5797L62.435 97.2027L61.4423 95.1333L61.0478 95.1145C48.9754 94.1477 35.6263 82.5601 27.8169 66.2688C20.0075 49.9775 19.3388 32.302 26.1517 22.3162L26.3821 21.9933L25.4411 19.9936Z" fill="#171753"/>
<path d="M62.2051 98.1854C75.6157 91.7726 78.0249 68.8875 67.6735 47.2769C57.3222 25.6664 37.9928 13.2082 24.5742 19.6016C11.1555 25.995 8.75442 48.8996 19.1058 70.5101C29.4571 92.1206 48.7442 104.642 62.2051 98.1854Z" fill="#FFEE81"/>
<path d="M21.0057 69.6026C10.6166 47.9147 13.061 25.1279 26.4654 18.7069C39.8698 12.2858 59.1582 24.662 69.5473 46.3498C79.9364 68.0377 77.492 90.8246 64.0876 97.2456C50.6832 103.667 31.3948 91.2905 21.0057 69.6026Z" fill="#FFEE81"/>
<path d="M68.3175 46.9642C57.778 24.9537 38.0882 12.3944 24.2971 18.9874C10.506 25.5804 7.96817 48.8146 18.4494 70.8491C28.9307 92.8837 48.6868 105.438 62.4699 98.826C76.253 92.2136 78.7794 69.0068 68.3175 46.9642ZM19.7658 70.2363C9.55451 48.9091 11.8638 26.4976 24.918 20.3232C37.9722 14.1489 56.966 26.2908 67.0996 47.6501C77.2332 69.0094 75.0016 91.3889 61.928 97.5712C48.8544 103.754 29.8915 91.5761 19.6882 70.2684L19.7658 70.2363Z" fill="#171753"/>
<path d="M23.9839 68.1752C15.6867 50.8542 17.1358 32.8966 27.2205 28.0657C37.3052 23.2349 52.2067 33.3601 60.5039 50.6811C68.8011 68.0021 67.3521 85.9597 57.2674 90.7905C47.1827 95.6214 32.2812 85.4961 23.9839 68.1752Z" fill="#ECFFFE"/>
<path d="M61.1427 50.4105C52.6769 32.7526 37.34 22.4652 26.9153 27.4607C16.4905 32.4562 14.9111 50.857 23.4077 68.4795C31.9043 86.1019 47.1359 96.4101 57.5768 91.4535C68.0176 86.4969 69.581 68.0571 61.1427 50.4105ZM24.5673 67.8177C16.4652 50.8739 17.7694 33.2923 27.4913 28.633C37.2133 23.9738 51.7309 33.9859 59.8524 50.9216C67.9739 67.8574 66.6584 85.4664 56.9364 90.1257C47.2144 94.7849 32.729 84.8506 24.6383 67.8793L24.5673 67.8177Z" fill="#171753"/>
<path d="M23.9749 68.1992C15.6732 50.8829 17.1368 32.9168 27.252 28.1631C28.1548 27.7428 29.1079 27.4403 30.0878 27.2629C22.3312 33.7029 21.7808 49.9715 29.3263 65.7349C36.8718 81.4983 49.931 91.3401 59.7888 89.2641C59.0299 89.909 58.1961 90.4602 57.3053 90.9058C47.1901 95.6595 32.2847 85.5349 23.9749 68.1992Z" fill="#FFE850"/>
<path d="M60.8855 88.1739L59.6086 88.4974C49.9565 90.4656 37.1887 80.5032 29.9199 65.3535C22.651 50.2038 22.9134 34.0088 30.4998 27.7075L31.7218 26.7013L29.9077 26.4962C28.8724 26.6843 27.8666 27.0086 26.9165 27.4607C16.5112 32.4482 14.9122 50.8571 23.4089 68.4795C31.9055 86.102 47.1371 96.4102 57.5779 91.4535C58.5181 90.9776 59.3985 90.3918 60.2007 89.7086L60.8855 88.1739ZM24.6395 67.8794C16.5374 50.9356 17.8415 33.3539 27.5635 28.6947L27.6606 28.6545C21.4454 36.3453 21.7279 51.3821 28.7087 65.9456C35.6895 80.5092 47.2273 90.1385 57.1171 90.1197L57.0006 90.1679C47.1895 94.8868 32.7302 84.8506 24.6395 67.8794Z" fill="#171753"/>
<path d="M21.8941 62.7814L27.0579 60.3037L24.525 50.7715L24.0982 40.3905L26.5674 31.5647L30.0492 27.1663L25.3189 28.9868L21.1443 34.2406L18.9875 41.0715L18.8354 50.7135L21.1895 61.2981L21.8941 62.7814Z" fill="#171753"/>
<path d="M69.5772 51.7679L77.9131 47.7731L80.8426 57.8239L82.5053 68.0575L81.0435 80.1982L76.657 89.3394L72.5911 93.2059L66.0157 96.1765L72.2116 87.8339L73.9762 76.2051L72.4398 60.777L69.5772 51.7679Z" fill="#171753"/>
<path d="M37.5802 54.5576C37.3351 53.3317 36.4772 52.0445 35.6806 51.6767C34.884 51.3089 34.4551 52.0445 34.7615 53.2091C35.0066 54.435 35.8644 55.7223 36.661 56.09C37.3963 56.5191 37.8253 55.7836 37.5802 54.5576Z" fill="#171753"/>
<path d="M30.412 55.7821C30.5958 56.4564 30.7797 57.1307 31.0248 57.8049C31.8826 60.1955 33.1081 62.6474 34.7013 64.4862C36.9072 67.0607 39.1132 67.7963 40.8902 67.7963C42.9736 70.5546 42.9736 70.5546 42.9736 70.5546C43.4638 71.1676 43.8314 70.8611 43.4638 70.0642C43.954 70.4933 44.0153 69.8803 43.7089 69.2674C44.1991 69.9416 44.3829 69.3287 44.0765 68.6544C43.8314 68.2253 43.525 67.735 43.3412 67.3672C45.4246 66.6929 47.2629 65.3444 49.2237 63.9959C48.0595 64.5475 43.4025 65.6509 42.2995 65.7735C41.1966 65.8961 40.0936 66.0187 38.8681 65.7735C37.8877 65.5283 36.6009 64.9766 35.4366 63.5668C34.3949 62.3409 33.7209 60.502 33.292 59.0309C32.3116 55.7209 32.2503 52.5334 32.6792 50.2655C33.1694 47.8749 34.4562 46.036 36.4783 46.036C37.2136 46.036 38.0715 46.3425 38.9294 46.8942C40.8902 48.1201 43.0348 50.6332 44.8731 53.3916C47.5693 57.4984 49.8365 62.2183 51.9811 66.8768C53.4518 70.0642 56.0866 77.2972 58.844 76.5004C60.1308 76.1326 60.6823 74.4776 60.9274 72.7613C61.2338 70.8611 61.1725 68.1027 60.1921 65.4057C58.1087 59.7051 53.6356 61.7892 52.165 62.5861C52.2875 62.5861 55.9028 61.9731 57.9249 64.7927C58.844 66.08 59.1504 67.7963 59.273 69.0222C59.5181 71.1676 59.273 73.9872 57.9249 74.355C56.2092 74.7841 54.2483 69.5126 53.3905 67.6124C51.9811 64.4249 50.6331 61.2375 49.1624 58.0501C47.5693 54.6175 45.7923 51.1236 43.7089 48.1201C43.954 47.691 44.2604 47.1393 44.1378 46.4038C44.0153 45.5456 43.2187 44.381 42.7285 44.6262C43.2187 43.7067 41.8706 41.6227 41.1353 41.9291C41.3191 41.071 40.4 39.5999 39.7872 39.416C39.4196 39.2934 39.1132 39.6612 38.9294 39.8451C38.3166 40.3354 37.7651 40.8871 37.1524 41.3162C30.2282 37.2706 27.961 46.7103 30.412 55.7821Z" fill="#171753"/>
<defs>
<filter id="filter0_d_3906_22115" x="24.5684" y="14.7308" width="67.0264" height="91.6702" filterUnits="userSpaceOnUse" color-interpolation-filters="sRGB">
<feFlood flood-opacity="0" result="BackgroundImageFix"/>
<feColorMatrix in="SourceAlpha" type="matrix" values="0 0 0 0 0 0 0 0 0 0 0 0 0 0 0 0 0 0 127 0" result="hardAlpha"/>
<feOffset dy="4"/>
<feGaussianBlur stdDeviation="2"/>
<feComposite in2="hardAlpha" operator="out"/>
<feColorMatrix type="matrix" values="0 0 0 0 0 0 0 0 0 0 0 0 0 0 0 0 0 0 0.25 0"/>
<feBlend mode="normal" in2="BackgroundImageFix" result="effect1_dropShadow_3906_22115"/>
<feBlend mode="normal" in="SourceGraphic" in2="effect1_dropShadow_3906_22115" result="shape"/>
</filter>
</defs>
</svg>
