<svg width="102" height="114" viewBox="0 0 102 114" fill="none" xmlns="http://www.w3.org/2000/svg">
<g filter="url(#filter0_d_3906_22115)">
<path d="M69.1067 66.0835C77.6114 43.5898 73.2357 21.0939 59.3333 15.8375C45.4308 10.581 27.2662 24.5546 18.7615 47.0483C10.2568 69.542 14.6325 92.038 28.5349 97.2944C42.4373 102.551 60.6019 88.5772 69.1067 66.0835Z" fill="#4E4E8D"/>
<path d="M69.1067 66.0835C77.6114 43.5898 73.2357 21.0939 59.3333 15.8375C45.4308 10.581 27.2662 24.5546 18.7615 47.0483C10.2568 69.542 14.6325 92.038 28.5349 97.2944C42.4373 102.551 60.6019 88.5772 69.1067 66.0835Z" fill="black" fill-opacity="0.2"/>
</g>
<path d="M40.9752 95.8678C52.9651 94.9352 66.595 83.7141 74.7808 66.6229C82.9666 49.5317 83.1584 31.9091 76.3958 21.9668L77.5009 19.6254L69.3124 15.7143C55.9098 9.28209 36.6321 21.6706 26.2131 43.3896C15.7941 65.1087 18.2709 87.8853 31.6735 94.3176L39.862 98.2286L40.9752 95.8678Z" fill="#FFE850"/>
<path d="M25.5874 43.0859C36.127 21.0754 55.8248 8.49664 69.6079 15.1091L78.4214 19.3242L77.1843 21.9296C84.0307 32.3844 83.3385 50.3915 75.3972 66.9467C67.4559 83.502 53.8777 95.3133 41.4275 96.5334L40.1904 99.1387L31.3768 94.9235C17.652 88.3352 15.0559 65.0769 25.5874 43.0859ZM76.5745 19.9936L68.9802 16.3511C55.9388 10.091 36.9323 22.3187 26.8067 43.6586C16.6811 64.9985 18.9047 87.3973 31.9783 93.5797L39.5806 97.2027L40.5733 95.1333L40.9679 95.1145C53.0402 94.1477 66.3893 82.5601 74.1987 66.2688C82.0081 49.9775 82.6768 32.302 75.8639 22.3162L75.6335 21.9933L76.5745 19.9936Z" fill="#171753"/>
<path d="M39.8105 98.1854C26.3999 91.7726 23.9908 68.8875 34.3421 47.2769C44.6934 25.6664 64.0228 13.2082 77.4414 19.6016C90.8601 25.995 93.2612 48.8996 82.9099 70.5101C72.5585 92.1206 53.2714 104.642 39.8105 98.1854Z" fill="#FFEE81"/>
<path d="M81.0099 69.6026C91.399 47.9147 88.9546 25.1279 75.5503 18.7069C62.1459 12.2858 42.8574 24.662 32.4684 46.3498C22.0793 68.0377 24.5236 90.8246 37.928 97.2456C51.3324 103.667 70.6208 91.2905 81.0099 69.6026Z" fill="#FFEE81"/>
<path d="M33.6981 46.9642C44.2377 24.9537 63.9274 12.3944 77.7185 18.9874C91.5097 25.5804 94.0475 48.8146 83.5662 70.8491C73.0849 92.8837 53.3288 105.438 39.5457 98.826C25.7626 92.2136 23.2363 69.0068 33.6981 46.9642ZM82.2498 70.2363C92.4611 48.9091 90.1518 26.4976 77.0976 20.3232C64.0434 14.1489 45.0497 26.2908 34.916 47.6501C24.7824 69.0094 27.014 91.3889 40.0876 97.5712C53.1613 103.754 72.1241 91.5761 82.3274 70.2684L82.2498 70.2363Z" fill="#171753"/>
<path d="M78.0317 68.1752C86.3289 50.8542 84.8798 32.8966 74.7951 28.0657C64.7104 23.2349 49.809 33.3601 41.5117 50.6811C33.2145 68.0021 34.6635 85.9597 44.7482 90.7905C54.8329 95.6214 69.7345 85.4961 78.0317 68.1752Z" fill="#ECFFFE"/>
<path d="M40.873 50.4105C49.3388 32.7526 64.6756 22.4652 75.1003 27.4607C85.5251 32.4562 87.1046 50.857 78.608 68.4795C70.1113 86.1019 54.8797 96.4101 44.4389 91.4535C33.998 86.4969 32.4346 68.0571 40.873 50.4105ZM77.4483 67.8177C85.5504 50.8739 84.2463 33.2923 74.5243 28.633C64.8023 23.9738 50.2848 33.9859 42.1632 50.9216C34.0417 67.8574 35.3572 85.4664 45.0792 90.1257C54.8012 94.7849 69.2866 84.8506 77.3773 67.8793L77.4483 67.8177Z" fill="#171753"/>
<path d="M78.0407 68.1992C86.3424 50.8829 84.8788 32.9168 74.7636 28.1631C73.8608 27.7428 72.9077 27.4403 71.9278 27.2629C79.6844 33.7029 80.2348 49.9715 72.6893 65.7349C65.1438 81.4983 52.0847 91.3401 42.2269 89.2641C42.9858 89.909 43.8196 90.4602 44.7103 90.9058C54.8255 95.6595 69.731 85.5349 78.0407 68.1992Z" fill="#FFE850"/>
<path d="M41.1301 88.1739L42.407 88.4974C52.0591 90.4656 64.8269 80.5032 72.0958 65.3535C79.3646 50.2038 79.1023 34.0088 71.5158 27.7075L70.2939 26.7013L72.108 26.4962C73.1432 26.6843 74.149 27.0086 75.0991 27.4607C85.5045 32.4482 87.1034 50.8571 78.6068 68.4795C70.1102 86.102 54.8785 96.4102 44.4377 91.4535C43.4975 90.9776 42.6171 90.3918 41.8149 89.7086L41.1301 88.1739ZM77.3761 67.8794C85.4782 50.9356 84.1741 33.3539 74.4521 28.6947L74.355 28.6545C80.5702 36.3453 80.2878 51.3821 73.3069 65.9456C66.3261 80.5092 54.7883 90.1385 44.8985 90.1197L45.015 90.1679C54.8261 94.8868 69.2854 84.8506 77.3761 67.8794Z" fill="#171753"/>
<path d="M80.1215 62.7814L74.9577 60.3037L77.4907 50.7715L77.9174 40.3905L75.4482 31.5647L71.9664 27.1663L76.6968 28.9868L80.8713 34.2406L83.0282 41.0715L83.1802 50.7135L80.8261 61.2981L80.1215 62.7814Z" fill="#171753"/>
<path d="M32.4384 51.7679L24.1025 47.7731L21.173 57.8239L19.5103 68.0575L20.9722 80.1982L25.3586 89.3394L29.4246 93.2059L35.9999 96.1765L29.804 87.8339L28.0394 76.2051L29.5759 60.777L32.4384 51.7679Z" fill="#171753"/>
<path d="M64.4355 54.5576C64.6806 53.3317 65.5384 52.0445 66.335 51.6767C67.1316 51.3089 67.5605 52.0445 67.2542 53.2091C67.009 54.435 66.1512 55.7223 65.3546 56.09C64.6193 56.5191 64.1903 55.7836 64.4355 54.5576Z" fill="#171753"/>
<path d="M71.6036 55.7821C71.4198 56.4564 71.236 57.1307 70.9909 57.8049C70.133 60.1955 68.9075 62.6474 67.3143 64.4862C65.1084 67.0607 62.9024 67.7963 61.1254 67.7963C59.0421 70.5546 59.0421 70.5546 59.0421 70.5546C58.5519 71.1676 58.1842 70.8611 58.5519 70.0642C58.0616 70.4933 58.0004 69.8803 58.3067 69.2674C57.8165 69.9416 57.6327 69.3287 57.9391 68.6544C58.1842 68.2253 58.4906 67.735 58.6744 67.3672C56.591 66.6929 54.7527 65.3444 52.7919 63.9959C53.9562 64.5475 58.6131 65.6509 59.7161 65.7735C60.8191 65.8961 61.922 66.0187 63.1476 65.7735C64.128 65.5283 65.4148 64.9766 66.579 63.5668C67.6207 62.3409 68.2947 60.502 68.7237 59.0309C69.7041 55.7209 69.7654 52.5334 69.3364 50.2655C68.8462 47.8749 67.5594 46.036 65.5373 46.036C64.802 46.036 63.9441 46.3425 63.0863 46.8942C61.1254 48.1201 58.9808 50.6332 57.1425 53.3916C54.4464 57.4984 52.1792 62.2183 50.0345 66.8768C48.5639 70.0642 45.929 77.2972 43.1716 76.5004C41.8848 76.1326 41.3333 74.4776 41.0882 72.7613C40.7818 70.8611 40.8431 68.1027 41.8235 65.4057C43.9069 59.7051 48.38 61.7892 49.8507 62.5861C49.7281 62.5861 46.1128 61.9731 44.0907 64.7927C43.1716 66.08 42.8652 67.7963 42.7427 69.0222C42.4976 71.1676 42.7427 73.9872 44.0907 74.355C45.8065 74.7841 47.7673 69.5126 48.6251 67.6124C50.0345 64.4249 51.3826 61.2375 52.8532 58.0501C54.4464 54.6175 56.2234 51.1236 58.3067 48.1201C58.0616 47.691 57.7553 47.1393 57.8778 46.4038C58.0004 45.5456 58.797 44.381 59.2872 44.6262C58.797 43.7067 60.145 41.6227 60.8803 41.9291C60.6965 41.071 61.6157 39.5999 62.2284 39.416C62.5961 39.2934 62.9024 39.6612 63.0863 39.8451C63.699 40.3354 64.2505 40.8871 64.8633 41.3162C71.7875 37.2706 74.0547 46.7103 71.6036 55.7821Z" fill="#171753"/>
<defs>
<filter id="filter0_d_3906_22115" x="10.4209" y="14.7308" width="67.0264" height="91.6702" filterUnits="userSpaceOnUse" color-interpolation-filters="sRGB">
<feFlood flood-opacity="0" result="BackgroundImageFix"/>
<feColorMatrix in="SourceAlpha" type="matrix" values="0 0 0 0 0 0 0 0 0 0 0 0 0 0 0 0 0 0 127 0" result="hardAlpha"/>
<feOffset dy="4"/>
<feGaussianBlur stdDeviation="2"/>
<feComposite in2="hardAlpha" operator="out"/>
<feColorMatrix type="matrix" values="0 0 0 0 0 0 0 0 0 0 0 0 0 0 0 0 0 0 0.25 0"/>
<feBlend mode="normal" in2="BackgroundImageFix" result="effect1_dropShadow_3906_22115"/>
<feBlend mode="normal" in="SourceGraphic" in2="effect1_dropShadow_3906_22115" result="shape"/>
</filter>
</defs>
</svg>
