<svg width="188" height="196" viewBox="0 0 188 196" fill="none" xmlns="http://www.w3.org/2000/svg">
<g filter="url(#filter0_d_3591_20706)">
<ellipse cx="93.5964" cy="98.1502" rx="81.5247" ry="81.927" fill="#373765"/>
</g>
<g filter="url(#filter1_d_3591_20706)">
<path d="M183.874 93.725C183.93 94.7916 183.967 95.8631 183.986 96.9392L183.175 96.9533C183.184 97.4864 183.189 98.0205 183.189 98.5558C183.189 99.091 183.184 99.6252 183.175 100.158L183.986 100.172C183.967 101.248 183.93 102.32 183.874 103.387L183.064 103.344C183.008 104.412 182.933 105.475 182.841 106.533L183.649 106.603C183.554 107.677 183.442 108.745 183.31 109.808L182.505 109.708C182.375 110.767 182.226 111.82 182.058 112.866L182.859 112.994C182.69 114.058 182.501 115.115 182.295 116.165L181.499 116.009C181.293 117.057 181.07 118.098 180.828 119.132L181.618 119.316C181.373 120.364 181.11 121.405 180.829 122.439L180.046 122.226C179.767 123.254 179.47 124.275 179.155 125.288L179.93 125.529C179.61 126.557 179.273 127.577 178.919 128.59L178.153 128.321C177.801 129.328 177.431 130.326 177.044 131.315L177.8 131.611C177.409 132.612 177 133.605 176.574 134.588L175.83 134.266C175.407 135.244 174.967 136.213 174.51 137.172L175.243 137.52C174.781 138.492 174.302 139.453 173.807 140.405L173.087 140.031C172.595 140.976 172.087 141.911 171.564 142.836L172.269 143.235C171.74 144.17 171.194 145.095 170.632 146.009L169.941 145.584C169.384 146.492 168.811 147.388 168.222 148.274L168.898 148.723C168.303 149.618 167.693 150.502 167.067 151.374L166.408 150.901C165.787 151.766 165.152 152.62 164.502 153.462L165.144 153.958C164.488 154.808 163.816 155.646 163.131 156.471L162.507 155.953C161.826 156.772 161.132 157.579 160.424 158.373L161.029 158.913C160.314 159.714 159.585 160.503 158.842 161.278L158.257 160.717C157.52 161.485 156.771 162.24 156.008 162.982L156.573 163.564C155.803 164.312 155.02 165.047 154.224 165.768L153.68 165.167C152.891 165.881 152.089 166.581 151.276 167.267L151.798 167.887C150.978 168.579 150.144 169.256 149.299 169.919L148.799 169.28C147.961 169.936 147.112 170.578 146.251 171.204L146.729 171.86C145.861 172.492 144.981 173.108 144.09 173.709L143.637 173.036C142.755 173.631 141.863 174.21 140.959 174.773L141.388 175.462C140.478 176.029 139.557 176.581 138.626 177.117L138.221 176.413C137.3 176.943 136.368 177.457 135.426 177.954L135.805 178.672C134.856 179.173 133.897 179.657 132.929 180.125L132.576 179.394C131.619 179.856 130.653 180.301 129.678 180.73L130.004 181.472C129.023 181.903 128.032 182.317 127.033 182.714L126.734 181.96C125.746 182.352 124.75 182.726 123.746 183.083L124.017 183.847C123.007 184.207 121.988 184.548 120.962 184.872L120.718 184.098C119.706 184.417 118.686 184.718 117.659 185.001L117.875 185.783C116.842 186.068 115.802 186.335 114.755 186.583L114.568 185.794C113.535 186.039 112.494 186.266 111.448 186.475L111.606 187.27C110.556 187.479 109.5 187.67 108.437 187.843L108.307 187.042C107.261 187.211 106.208 187.363 105.15 187.495L105.251 188.3C104.189 188.433 103.121 188.548 102.047 188.643L101.975 187.835C100.918 187.93 99.8554 188.005 98.7878 188.062L98.8308 188.872C97.7642 188.929 96.6927 188.967 95.6166 188.986L95.6022 188.175C95.0693 188.184 94.5352 188.189 94 188.189C93.4648 188.189 92.9307 188.184 92.3978 188.175L92.3834 188.986C91.3073 188.967 90.2358 188.929 89.1692 188.872L89.2122 188.062C88.1446 188.005 87.082 187.93 86.0247 187.835L85.9527 188.643C84.8793 188.548 83.8113 188.433 82.7491 188.3L82.85 187.495C81.7917 187.363 80.7393 187.211 79.6929 187.042L79.5631 187.843C78.5004 187.67 77.4438 187.479 76.3938 187.27L76.5524 186.475C75.5055 186.266 74.4653 186.039 73.4321 185.794L73.2448 186.583C72.1978 186.335 71.1579 186.068 70.1253 185.783L70.341 185.001C69.3138 184.718 68.2941 184.417 67.2821 184.098L67.0383 184.872C66.0117 184.548 64.9931 184.207 63.9827 183.847L64.2544 183.083C63.25 182.726 62.2538 182.352 61.2663 181.96L60.9671 182.714C59.9678 182.317 58.9772 181.903 57.9957 181.472L58.3219 180.73C57.3467 180.301 56.3807 179.856 55.4241 179.394L55.0714 180.125C54.103 179.657 53.1441 179.173 52.1953 178.672L52.5741 177.954C51.6322 177.457 50.7003 176.943 49.7786 176.413L49.3744 177.117C48.4429 176.581 47.5218 176.029 46.6115 175.462L47.0408 174.773C46.1373 174.21 45.2447 173.631 44.3631 173.036L43.9095 173.709C43.0187 173.108 42.1391 172.492 41.2712 171.86L41.7485 171.204C40.8878 170.578 40.0386 169.936 39.2013 169.28L38.701 169.919C37.8557 169.256 37.0224 168.579 36.2016 167.887L36.7244 167.267C35.9105 166.581 35.1091 165.881 34.3203 165.167L33.7759 165.768C32.9799 165.047 32.1968 164.312 31.4269 163.564L31.9924 162.982C31.2295 162.24 30.4797 161.485 29.7435 160.717L29.1577 161.278C28.415 160.503 27.686 159.714 26.9709 158.913L27.5762 158.373C26.8679 157.579 26.1735 156.772 25.4934 155.953L24.8693 156.471C24.1837 155.646 23.5125 154.808 22.8559 153.958L23.498 153.462C22.8479 152.62 22.2125 151.766 21.5921 150.901L20.9328 151.374C20.3075 150.502 19.6972 149.618 19.1023 148.723L19.7779 148.274C19.1894 147.388 18.6162 146.492 18.0586 145.584L17.3675 146.009C16.806 145.095 16.2603 144.17 15.7306 143.235L16.4364 142.836C15.9125 141.911 15.4045 140.976 14.9128 140.031L14.1932 140.405C13.698 139.453 13.2192 138.492 12.7571 137.52L13.4896 137.172C13.0332 136.213 12.5933 135.244 12.1702 134.266L11.4258 134.588C11.0002 133.605 10.5915 132.612 10.2001 131.611L10.9556 131.315C10.5688 130.326 10.199 129.328 9.84664 128.321L9.08107 128.59C8.72663 127.577 8.3896 126.557 8.07034 125.529L8.84501 125.288C8.53041 124.275 8.23322 123.254 7.9538 122.226L7.17102 122.439C6.8902 121.405 6.62716 120.364 6.38225 119.316L7.17212 119.132C6.93043 118.098 6.70656 117.057 6.50085 116.009L5.70489 116.165C5.49857 115.115 5.31036 114.058 5.14059 112.994L5.94161 112.866C5.77449 111.82 5.62541 110.767 5.49469 109.708L4.68965 109.808C4.55846 108.745 4.44561 107.677 4.35142 106.603L5.15947 106.533C5.06668 105.475 4.99216 104.412 4.93623 103.344L4.12618 103.387C4.07032 102.32 4.03286 101.248 4.01409 100.172L4.82512 100.158C4.81583 99.6252 4.81116 99.091 4.81116 98.5558C4.81116 98.0205 4.81583 97.4864 4.82512 96.9534L4.01409 96.9392C4.03286 95.8631 4.07032 94.7916 4.12618 93.725L4.93623 93.7674C4.99216 92.6995 5.06668 91.6366 5.15947 90.579L4.35142 90.5081C4.44561 89.4346 4.55846 88.3664 4.68965 87.304L5.49469 87.4034C5.62541 86.3448 5.77449 85.292 5.94161 84.2452L5.14059 84.1173C5.31036 83.0539 5.49857 81.9967 5.70489 80.9461L6.50085 81.1024C6.70656 80.0548 6.93043 79.0138 7.17212 77.9797L6.38225 77.7951C6.62716 76.7473 6.8902 75.7064 7.17103 74.673L7.9538 74.8857C8.23322 73.8573 8.53041 72.8364 8.84502 71.8232L8.07034 71.5826C8.3896 70.5544 8.72663 69.5341 9.08107 68.522L9.84664 68.7901C10.199 67.7838 10.5688 66.7858 10.9556 65.7963L10.2001 65.501C10.5915 64.4996 11.0002 63.507 11.4258 62.5234L12.1702 62.8455C12.5933 61.8677 13.0332 60.899 13.4896 59.9397L12.7571 59.5912C13.2192 58.62 13.698 57.6583 14.1932 56.7066L14.9128 57.081C15.4045 56.1359 15.9125 55.2008 16.4364 54.2759L15.7306 53.8761C16.2603 52.9411 16.806 52.0166 17.3675 51.1028L18.0586 51.5275C18.6162 50.62 19.1894 49.7234 19.7779 48.8378L19.1024 48.3889C19.6972 47.4938 20.3075 46.61 20.9329 45.7378L21.5921 46.2105C22.2125 45.3452 22.8479 44.4915 23.498 43.6497L22.856 43.1539C23.5125 42.3038 24.1837 41.4657 24.8694 40.6401L25.4934 41.1584C26.1735 40.3394 26.8679 39.5328 27.5762 38.739L26.9709 38.1989C27.686 37.3975 28.4151 36.609 29.1578 35.8338L29.7435 36.3949C30.4797 35.6264 31.2295 34.8711 31.9924 34.1294L31.4269 33.5478C32.1968 32.7993 32.9799 32.0645 33.7759 31.3437L34.3203 31.945C35.1091 31.2308 35.9105 30.5306 36.7244 29.8447L36.2016 29.2245C37.0224 28.5327 37.8557 27.8554 38.701 27.1929L39.2014 27.8314C40.0386 27.1753 40.8878 26.5338 41.7485 25.9074L41.2713 25.2516C42.1392 24.62 43.0187 24.0036 43.9095 23.4028L44.3631 24.0753C45.2447 23.4807 46.1373 22.9016 47.0408 22.3382L46.6116 21.6499C47.5218 21.0823 48.4429 20.5305 49.3744 19.995L49.7787 20.6982C50.7003 20.1684 51.6322 19.6546 52.5741 19.1572L52.1953 18.4399C53.1442 17.9389 54.103 17.4544 55.0714 16.9868L55.4241 17.7172C56.3807 17.2554 57.3468 16.8101 58.3219 16.3819L57.9957 15.6392C58.9772 15.2082 59.9678 14.7943 60.9672 14.3978L61.2663 15.1518C62.2538 14.76 63.25 14.3855 64.2544 14.0285L63.9828 13.2641C64.9931 12.905 66.0118 12.5635 67.0383 12.24L67.2821 13.0137C68.2941 12.6948 69.3138 12.3935 70.341 12.1102L70.1253 11.3283C71.1579 11.0435 72.1978 10.7768 73.2449 10.5284L73.4321 11.3177C74.4653 11.0726 75.5056 10.8455 76.5524 10.6369L76.3938 9.84137C77.4438 9.63211 78.5004 9.4412 79.5632 9.26899L79.6929 10.0697C80.7393 9.90016 81.7917 9.74891 82.85 9.61629L82.7491 8.81142C83.8114 8.6783 84.8793 8.56378 85.9527 8.4682L86.0247 9.27616C87.082 9.18201 88.1446 9.1064 89.2122 9.04965L89.1692 8.23964C90.2358 8.18295 91.3073 8.14492 92.3835 8.12587L92.3978 8.9369C92.9307 8.92747 93.4648 8.92273 94 8.92273C94.5352 8.92273 95.0693 8.92747 95.6022 8.9369L95.6166 8.12587C96.6927 8.14492 97.7642 8.18295 98.8308 8.23964L98.7878 9.04965C99.8554 9.1064 100.918 9.18201 101.975 9.27616L102.047 8.4682C103.121 8.56378 104.189 8.6783 105.251 8.81143L105.15 9.61629C106.208 9.74891 107.261 9.90017 108.307 10.0697L108.437 9.269C109.5 9.4412 110.556 9.63211 111.606 9.84137L111.448 10.6369C112.494 10.8455 113.535 11.0726 114.568 11.3177L114.755 10.5284C115.802 10.7768 116.842 11.0435 117.875 11.3283L117.659 12.1102C118.686 12.3935 119.706 12.6948 120.718 13.0137L120.962 12.24C121.988 12.5636 123.007 12.905 124.017 13.2642L123.746 14.0285C124.75 14.3855 125.746 14.76 126.734 15.1518L127.033 14.3978C128.032 14.7943 129.023 15.2082 130.004 15.6392L129.678 16.3819C130.653 16.8101 131.619 17.2554 132.576 17.7172L132.929 16.9868C133.897 17.4544 134.856 17.9389 135.805 18.4399L135.426 19.1572C136.368 19.6546 137.3 20.1684 138.221 20.6982L138.626 19.995C139.557 20.5305 140.478 21.0823 141.388 21.6499L140.959 22.3382C141.863 22.9016 142.755 23.4807 143.637 24.0753L144.09 23.4028C144.981 24.0036 145.861 24.62 146.729 25.2516L146.251 25.9074C147.112 26.5338 147.961 27.1753 148.799 27.8314L149.299 27.1929C150.144 27.8554 150.978 28.5327 151.798 29.2245L151.276 29.8447C152.089 30.5306 152.891 31.2309 153.68 31.945L154.224 31.3438C155.02 32.0645 155.803 32.7993 156.573 33.5478L156.008 34.1294C156.771 34.8712 157.52 35.6265 158.257 36.3949L158.842 35.8338C159.585 36.609 160.314 37.3975 161.029 38.1989L160.424 38.739C161.132 39.5328 161.826 40.3394 162.507 41.1584L163.131 40.6401C163.816 41.4657 164.488 42.3038 165.144 43.154L164.502 43.6497C165.152 44.4915 165.787 45.3452 166.408 46.2105L167.067 45.7378C167.693 46.61 168.303 47.4938 168.898 48.3889L168.222 48.8378C168.811 49.7234 169.384 50.6201 169.941 51.5275L170.632 51.1028C171.194 52.0166 171.74 52.9411 172.269 53.8761L171.564 54.2759C172.087 55.2008 172.595 56.136 173.087 57.081L173.807 56.7066C174.302 57.6583 174.781 58.62 175.243 59.5912L174.51 59.9397C174.967 60.899 175.407 61.8677 175.83 62.8455L176.574 62.5234C177 63.507 177.409 64.4996 177.8 65.501L177.044 65.7964C177.431 66.7858 177.801 67.7838 178.153 68.7901L178.919 68.522C179.273 69.5341 179.61 70.5544 179.93 71.5826L179.155 71.8232C179.47 72.8364 179.767 73.8573 180.046 74.8857L180.829 74.673C181.11 75.7064 181.373 76.7473 181.618 77.7951L180.828 77.9797C181.07 79.0138 181.293 80.0548 181.499 81.1024L182.295 80.9461C182.501 81.9967 182.69 83.0539 182.859 84.1173L182.058 84.2452C182.226 85.292 182.375 86.3448 182.505 87.4034L183.31 87.304C183.442 88.3664 183.554 89.4346 183.649 90.5081L182.841 90.579C182.933 91.6366 183.008 92.6995 183.064 93.7674L183.874 93.725Z" stroke="#FFC78F" stroke-width="1.62232" stroke-dasharray="3.24 3.24" shape-rendering="crispEdges"/>
</g>
<g opacity="0.3">
<path d="M111.403 73.8238C111.403 70.6975 113.892 68.1964 117.003 68.1964C120.114 68.1964 122.603 70.6975 122.603 73.8238C122.603 76.9501 120.114 79.4512 117.003 79.4512C113.892 79.4512 111.403 76.8459 111.403 73.8238Z" fill="white"/>
<path d="M145.214 87.4754C145.006 89.247 144.799 91.0186 144.28 92.686C142.725 98.626 139.302 104.045 133.702 107.067C126.027 111.027 116.901 109.568 109.226 106.546C102.9 111.027 102.9 111.027 102.9 111.027C101.448 111.965 99.5813 110.402 100.411 108.839C98.6479 109.151 98.1293 107.484 98.6479 106.129C97.1959 107.275 95.9514 105.191 96.7811 103.941C97.2997 103.107 98.1293 102.169 98.7516 101.44C89.8325 96.3333 81.7432 90.0807 73.5501 83.9322C78.217 86.8501 96.8848 96.4376 101.448 98.4176C106.219 100.502 110.989 102.586 115.967 103.732C120.116 104.67 125.405 105.191 129.242 102.794C132.768 100.71 134.117 96.4375 134.635 92.5817C135.88 84.2448 132.976 74.8659 128.62 67.7795C124.057 60.3805 116.59 53.711 108.085 51.5226C104.974 50.6889 101.863 50.6889 98.959 51.2099C92.2179 52.3563 86.099 56.5247 81.432 61.7353C74.6909 69.2385 70.0239 78.5132 65.7718 87.6838C62.8679 93.8323 58.8232 108.839 49.2819 102.899C45.0298 100.189 42.3334 95.4997 40.4666 90.9144C38.3924 86.0164 36.9404 79.4511 38.2887 74.1364C41.1925 62.9858 56.749 72.8858 62.0383 76.429C61.7271 76.3248 49.2819 70.5932 44.7187 75.0743C42.6445 77.1585 42.7482 80.9101 43.0593 83.6196C43.6816 88.5175 46.0669 95.8123 50.6301 98.5218C56.5416 101.961 59.5492 91.227 61.1049 87.4754C63.6976 81.1185 66.1867 74.7616 69.0905 68.509C72.3055 61.6311 76.1428 54.8573 81.432 49.3341C80.2912 47.9794 78.6319 46.312 78.5281 44.5404C78.3207 42.5604 80.2912 40.372 82.3654 41.4141C79.9801 38.7046 83.1951 34.6404 86.3064 36.2035C84.8545 33.9109 87.1361 30.993 89.5214 31.0972C90.8696 31.0972 92.2179 32.2435 93.255 32.973C95.9514 34.7446 98.6479 36.6204 101.448 38.392C127.272 34.3277 147.495 63.8195 145.214 87.4754Z" fill="white"/>
<path d="M144.282 92.6864C142.726 98.6264 139.303 104.045 133.703 107.068C126.029 111.028 116.902 109.569 109.228 106.546C102.901 111.028 102.901 111.028 102.901 111.028C101.449 111.965 99.5825 110.402 100.412 108.839C98.6491 109.152 98.1306 107.484 98.6491 106.13C97.1972 107.276 95.9526 105.192 96.7823 103.941C97.3009 103.107 98.1306 102.17 98.7528 101.44C89.8337 96.3338 81.7444 90.0811 73.5513 83.9326C78.2182 86.8506 96.886 96.438 101.449 98.418C106.22 100.502 110.991 102.586 115.969 103.733C120.117 104.671 125.406 105.192 129.244 102.795C132.77 100.711 134.118 96.438 134.636 92.5822C135.881 84.2453 132.977 74.8663 128.621 67.7799C124.058 60.3809 116.591 53.7114 108.087 51.523C104.975 50.6893 101.864 50.6893 98.9602 51.2103C110.576 47.6672 132.977 52.3567 140.859 70.3852C144.593 79.2431 145.319 86.3295 144.282 92.6864Z" fill="white"/>
</g>
<path d="M92.5007 164.399C89.2695 163.529 86.5136 161.543 84.6029 158.718L75.7012 144.146C75.3367 143.515 75.265 142.785 75.5468 142.061C75.8065 141.42 76.3755 140.951 77.0439 140.775C79.5075 140.195 81.761 141.068 83.6386 143.351L85.4334 145.612L84.4144 127.12C84.3483 126.036 84.8014 125.003 85.5196 124.307C86.2599 123.529 87.326 123.194 88.4472 123.318C90.1705 123.516 91.5401 125.04 91.6779 126.854L92.1021 134.255C92.8589 133.748 93.7151 133.534 94.5657 133.675C95.8527 133.843 96.9628 134.675 97.5039 135.976C98.2828 135.386 99.1611 135.09 100.199 135.192C101.486 135.36 102.597 136.193 103.138 137.493C103.917 136.903 104.878 136.629 105.833 136.709C107.557 136.906 108.926 138.43 109.064 140.244L109.615 150.168C109.835 154.67 108.061 158.991 104.857 161.683C101.78 164.232 98.0407 165.268 94.119 164.657C93.412 164.644 92.9978 164.533 92.5007 164.399ZM79.6176 142.446C78.9548 142.267 78.2478 142.255 77.4966 142.408C77.2867 142.529 77.1596 142.673 77.1375 142.756C77.1154 142.839 77.0712 143.004 77.1706 143.298L86.0115 157.764C87.8394 160.567 90.7831 162.514 94.2077 162.992C97.6101 163.553 100.891 162.57 103.609 160.37C106.454 158.025 107.99 154.263 107.803 150.302L107.252 140.379C107.164 139.377 106.49 138.574 105.557 138.411C104.955 138.338 104.452 138.558 104.01 138.884C103.629 139.314 103.413 139.789 103.447 140.331L103.777 145.752C103.832 146.211 103.451 146.642 102.993 146.696C102.534 146.751 102.103 146.368 102.048 145.909L101.618 138.862C101.53 137.86 100.879 136.974 99.923 136.894C99.321 136.821 98.8183 137.041 98.3764 137.367C97.9952 137.797 97.7797 138.272 97.8128 138.814L98.1212 144.318C98.1764 144.777 97.7952 145.208 97.3367 145.262C96.8783 145.316 96.4475 144.934 96.3923 144.475L95.9847 137.345C95.8965 136.343 95.2227 135.54 94.2893 135.377C93.6872 135.304 93.1845 135.524 92.7426 135.85C92.3614 136.28 92.1459 136.755 92.179 137.297L92.4874 142.801C92.5426 143.26 92.1614 143.691 91.703 143.745C91.2445 143.799 90.8137 143.417 90.7585 142.958L89.8662 126.988C89.778 125.987 89.1042 125.184 88.1708 125.021C87.5687 124.948 87.066 125.168 86.6241 125.493C86.2429 125.924 86.0274 126.399 86.0605 126.941L87.2448 148.143C87.2392 148.497 87.0458 148.889 86.6702 148.966C86.2725 149.125 85.9632 148.953 85.676 148.698L82.3736 144.432C81.4955 143.396 80.6118 142.714 79.6176 142.446Z" fill="white"/>
<path d="M94.4582 104.171C94.4131 108.752 90.5519 112.436 85.992 112.391C81.432 112.345 77.4971 108.584 77.5422 104.003C77.5873 99.4224 81.4484 95.7386 86.1555 95.7854C90.8625 95.8322 94.5019 99.7338 94.4582 104.171ZM79.7486 104.025C79.7162 107.317 82.4828 110.208 86.0131 110.243C89.5434 110.278 92.2179 107.585 92.2517 104.149C92.2856 100.714 89.5161 98.1094 86.1329 98.0758C82.7497 98.0421 79.7811 100.733 79.7486 104.025Z" fill="white"/>
<path d="M113.58 104.361L113.538 108.655C113.532 109.228 113.085 109.796 112.35 109.789C111.614 109.782 111.324 109.349 111.331 108.633L111.362 105.484L93.4168 105.306C92.6813 105.298 92.2443 104.865 92.2513 104.149C92.2584 103.433 92.7039 103.008 93.4394 103.015L112.562 103.206C113.149 103.355 113.586 103.788 113.58 104.361Z" fill="white"/>
<path d="M106.228 104.287L106.186 108.581C106.18 109.154 105.733 109.722 104.998 109.714C104.262 109.707 103.972 109.275 103.98 108.559L104.022 104.265C104.027 103.692 104.474 103.124 105.21 103.131C105.945 103.138 106.234 103.714 106.228 104.287Z" fill="white"/>
<defs>
<filter id="filter0_d_3591_20706" x="8.82714" y="16.2231" width="169.539" height="170.343" filterUnits="userSpaceOnUse" color-interpolation-filters="sRGB">
<feFlood flood-opacity="0" result="BackgroundImageFix"/>
<feColorMatrix in="SourceAlpha" type="matrix" values="0 0 0 0 0 0 0 0 0 0 0 0 0 0 0 0 0 0 127 0" result="hardAlpha"/>
<feOffset dy="3.24464"/>
<feGaussianBlur stdDeviation="1.62232"/>
<feComposite in2="hardAlpha" operator="out"/>
<feColorMatrix type="matrix" values="0 0 0 0 0 0 0 0 0 0 0 0 0 0 0 0 0 0 0.25 0"/>
<feBlend mode="normal" in2="BackgroundImageFix" result="effect1_dropShadow_3591_20706"/>
<feBlend mode="normal" in="SourceGraphic" in2="effect1_dropShadow_3591_20706" result="shape"/>
</filter>
<filter id="filter1_d_3591_20706" x="0.755365" y="8.11157" width="186.489" height="187.378" filterUnits="userSpaceOnUse" color-interpolation-filters="sRGB">
<feFlood flood-opacity="0" result="BackgroundImageFix"/>
<feColorMatrix in="SourceAlpha" type="matrix" values="0 0 0 0 0 0 0 0 0 0 0 0 0 0 0 0 0 0 127 0" result="hardAlpha"/>
<feOffset dy="3.24464"/>
<feGaussianBlur stdDeviation="1.62232"/>
<feComposite in2="hardAlpha" operator="out"/>
<feColorMatrix type="matrix" values="0 0 0 0 0 0 0 0 0 0 0 0 0 0 0 0 0 0 0.25 0"/>
<feBlend mode="normal" in2="BackgroundImageFix" result="effect1_dropShadow_3591_20706"/>
<feBlend mode="normal" in="SourceGraphic" in2="effect1_dropShadow_3591_20706" result="shape"/>
</filter>
</defs>
</svg>
