<svg width="140" height="140" viewBox="0 0 140 140" fill="none" xmlns="http://www.w3.org/2000/svg">
<g filter="url(#filter0_d_3853_20692)">
<circle cx="69.4062" cy="65.9991" r="60.0532" fill="#373765"/>
</g>
<g filter="url(#filter1_d_3853_20692)">
<circle cx="69.7036" cy="66.2963" r="65.4892" stroke="#5ED9D1" stroke-width="1.61435" stroke-dasharray="3.23 3.23" shape-rendering="crispEdges"/>
</g>
<path d="M68.5983 114.56C66.2182 113.922 64.1881 112.466 62.7806 110.395L56.2234 99.7145C55.9549 99.2517 55.9021 98.7164 56.1097 98.1858C56.301 97.716 56.7201 97.3723 57.2125 97.2437C59.0272 96.818 60.6872 97.4582 62.0703 99.1316L63.3924 100.789L62.6418 87.2341C62.5931 86.4394 62.9269 85.682 63.4559 85.1724C64.0012 84.602 64.7865 84.3565 65.6124 84.4475C66.8819 84.5922 67.8908 85.7094 67.9923 87.0393L68.3047 92.4644C68.8622 92.0926 69.4929 91.9359 70.1195 92.0387C71.0675 92.1624 71.8852 92.7724 72.2838 93.726C72.8576 93.2935 73.5046 93.076 74.2695 93.1507C75.2175 93.2744 76.0352 93.8844 76.4338 94.838C77.0076 94.4055 77.7156 94.2043 78.4195 94.2627C79.6889 94.4074 80.6978 95.5245 80.7993 96.8545L81.2051 104.128C81.3673 107.429 80.0607 110.596 77.7005 112.569C75.4339 114.437 72.6792 115.197 69.7905 114.749C69.2697 114.74 68.9645 114.658 68.5983 114.56ZM59.1083 98.4682C58.6201 98.3374 58.0993 98.3281 57.5459 98.4404C57.3913 98.5292 57.2977 98.6344 57.2814 98.6952C57.2651 98.756 57.2326 98.8775 57.3058 99.0925L63.8183 109.696C65.1647 111.751 67.3332 113.179 69.8557 113.529C72.3621 113.94 74.779 113.22 76.7811 111.606C78.8768 109.888 80.0084 107.13 79.8705 104.227L79.4647 96.9529C79.3997 96.2189 78.9034 95.63 78.2158 95.5109C77.7723 95.4572 77.4021 95.6185 77.0765 95.857C76.7957 96.1726 76.637 96.5209 76.6613 96.9182L76.9048 100.892C76.9455 101.228 76.6647 101.544 76.327 101.584C75.9893 101.624 75.6719 101.343 75.6313 101.006L75.3147 95.8409C75.2497 95.1069 74.7697 94.4572 74.0658 94.3989C73.6224 94.3452 73.2521 94.5065 72.9265 94.745C72.6457 95.0606 72.487 95.4089 72.5113 95.8062L72.7386 99.8406C72.7792 100.177 72.4984 100.493 72.1607 100.533C71.823 100.572 71.5057 100.292 71.465 99.9553L71.1647 94.7289C71.0998 93.995 70.6035 93.406 69.9158 93.2869C69.4724 93.2332 69.1021 93.3945 68.7765 93.633C68.4957 93.9486 68.337 94.2969 68.3614 94.6942L68.5886 98.7286C68.6292 99.0651 68.3484 99.3807 68.0107 99.4205C67.673 99.4603 67.3557 99.1799 67.315 98.8433L66.6577 87.1377C66.5927 86.4038 66.0964 85.8148 65.4088 85.6957C64.9653 85.642 64.595 85.8033 64.2695 86.0418C63.9887 86.3574 63.83 86.7057 63.8543 87.103L64.7267 102.644C64.7226 102.904 64.5801 103.191 64.3034 103.247C64.0105 103.364 63.7826 103.238 63.5711 103.051L61.1384 99.9241C60.4916 99.1645 59.8407 98.6644 59.1083 98.4682Z" fill="white"/>
<g opacity="0.5">
<ellipse cx="69.7037" cy="40.0947" rx="29.3175" ry="29.4622" fill="#171753"/>
<path d="M76.8901 40.4255C76.8901 39.1638 77.8946 38.1544 79.1502 38.1544C80.4059 38.1544 81.4104 39.1638 81.4104 40.4255C81.4104 41.6871 80.4059 42.6965 79.1502 42.6965C77.8946 42.6965 76.8901 41.6451 76.8901 40.4255Z" fill="white"/>
<path d="M90.5347 45.9348C90.451 46.6497 90.3673 47.3647 90.158 48.0376C89.5302 50.4348 88.149 52.6217 85.8889 53.8413C82.7917 55.4395 79.1086 54.8507 76.0114 53.6311C73.4583 55.4395 73.4583 55.4395 73.4583 55.4395C72.8723 55.818 72.119 55.1871 72.4538 54.5563C71.7423 54.6825 71.533 54.0096 71.7423 53.4628C71.1563 53.9255 70.6541 53.0843 70.9889 52.5797C71.1982 52.2432 71.533 51.8647 71.7841 51.5703C68.1847 49.5096 64.9201 46.9862 61.6136 44.5049C63.497 45.6824 71.0307 49.5516 72.8723 50.3507C74.7976 51.1918 76.7229 52.0329 78.7319 52.4955C80.406 52.8741 82.5406 53.0843 84.0892 52.117C85.5122 51.2759 86.0563 49.5516 86.2656 47.9955C86.7678 44.631 85.5959 40.846 83.8381 37.9862C81.9965 35.0002 78.983 32.3086 75.551 31.4254C74.2954 31.0889 73.0397 31.0889 71.8678 31.2992C69.1473 31.7618 66.6779 33.4441 64.7945 35.5469C62.074 38.5749 60.1906 42.3179 58.4746 46.0189C57.3026 48.5002 55.6703 54.5563 51.8198 52.1591C50.1038 51.0656 49.0156 49.1731 48.2622 47.3226C47.4251 45.346 46.8391 42.6965 47.3832 40.5516C48.5552 36.0516 54.8333 40.0469 56.9678 41.4768C56.8422 41.4348 51.8198 39.1217 49.9782 40.9301C49.1411 41.7712 49.183 43.2852 49.3085 44.3787C49.5597 46.3553 50.5223 49.2993 52.3639 50.3927C54.7495 51.7806 55.9633 47.4488 56.5911 45.9348C57.6375 43.3693 58.642 40.8039 59.8139 38.2806C61.1114 35.5048 62.66 32.7712 64.7945 30.5422C64.3341 29.9955 63.6644 29.3226 63.6226 28.6076C63.5389 27.8086 64.3341 26.9254 65.1712 27.3459C64.2085 26.2525 65.506 24.6123 66.7616 25.2431C66.1757 24.3179 67.0965 23.1403 68.0591 23.1824C68.6032 23.1824 69.1473 23.645 69.5659 23.9394C70.6541 24.6543 71.7423 25.4113 72.8723 26.1263C83.294 24.4861 91.4555 36.388 90.5347 45.9348Z" fill="white"/>
<path d="M90.1592 48.0378C89.5314 50.435 88.1502 52.6219 85.8901 53.8415C82.7929 55.4397 79.1097 54.8509 76.0125 53.6313C73.4594 55.4397 73.4594 55.4397 73.4594 55.4397C72.8735 55.8182 72.1201 55.1873 72.4549 54.5565C71.7434 54.6827 71.5341 54.0098 71.7434 53.463C71.1575 53.9256 70.6552 53.0845 70.99 52.5799C71.1993 52.2434 71.5341 51.8649 71.7853 51.5705C68.1858 49.5097 64.9212 46.9864 61.6147 44.5051C63.4982 45.6826 71.0319 49.5518 72.8735 50.3509C74.7988 51.192 76.724 52.0331 78.733 52.4957C80.4072 52.8742 82.5417 53.0845 84.0903 52.1172C85.5134 51.2761 86.0575 49.5518 86.2668 47.9957C86.769 44.6312 85.5971 40.8462 83.8392 37.9863C81.9976 35.0004 78.9842 32.3088 75.5521 31.4256C74.2965 31.0891 73.0409 31.0891 71.869 31.2994C76.5566 29.8695 85.5971 31.762 88.778 39.0377C90.2847 42.6125 90.5777 45.4724 90.1592 48.0378Z" fill="white"/>
</g>
<path d="M70.062 70.4499C70.0288 73.8076 67.1846 76.5079 63.8256 76.4747C60.4666 76.4414 57.568 73.6843 57.6012 70.3266C57.6345 66.9689 60.4787 64.2687 63.946 64.303C67.4133 64.3373 70.0942 67.1972 70.062 70.4499ZM59.2266 70.3427C59.2027 72.7561 61.2406 74.875 63.8411 74.9007C66.4416 74.9265 68.4118 72.9521 68.4367 70.4339C68.4616 67.9156 66.4215 66.0065 63.9294 65.9819C61.4372 65.9572 59.2504 67.9294 59.2266 70.3427Z" fill="white"/>
<path d="M84.1478 70.5891L84.1167 73.7369C84.1125 74.1567 83.7833 74.5731 83.2415 74.5678C82.6997 74.5624 82.4862 74.2455 82.4913 73.7209L82.5142 71.4124L69.295 71.2816C68.7532 71.2763 68.4312 70.9583 68.4364 70.4336C68.4416 69.909 68.7698 69.5974 69.3116 69.6028L83.3976 69.7422C83.83 69.8514 84.152 70.1694 84.1478 70.5891Z" fill="white"/>
<path d="M78.7322 70.5344L78.701 73.6823C78.6969 74.102 78.3676 74.5185 77.8259 74.5131C77.2841 74.5078 77.0705 74.1908 77.0757 73.6662L77.1068 70.5183C77.111 70.0986 77.4402 69.6821 77.982 69.6875C78.5238 69.6929 78.7363 70.1147 78.7322 70.5344Z" fill="white"/>
<defs>
<filter id="filter0_d_3853_20692" x="6.12433" y="5.94592" width="126.564" height="126.564" filterUnits="userSpaceOnUse" color-interpolation-filters="sRGB">
<feFlood flood-opacity="0" result="BackgroundImageFix"/>
<feColorMatrix in="SourceAlpha" type="matrix" values="0 0 0 0 0 0 0 0 0 0 0 0 0 0 0 0 0 0 127 0" result="hardAlpha"/>
<feOffset dy="3.2287"/>
<feGaussianBlur stdDeviation="1.61435"/>
<feComposite in2="hardAlpha" operator="out"/>
<feColorMatrix type="matrix" values="0 0 0 0 0 0 0 0 0 0 0 0 0 0 0 0 0 0 0.25 0"/>
<feBlend mode="normal" in2="BackgroundImageFix" result="effect1_dropShadow_3853_20692"/>
<feBlend mode="normal" in="SourceGraphic" in2="effect1_dropShadow_3853_20692" result="shape"/>
</filter>
<filter id="filter1_d_3853_20692" x="0.178527" y="0" width="139.05" height="139.05" filterUnits="userSpaceOnUse" color-interpolation-filters="sRGB">
<feFlood flood-opacity="0" result="BackgroundImageFix"/>
<feColorMatrix in="SourceAlpha" type="matrix" values="0 0 0 0 0 0 0 0 0 0 0 0 0 0 0 0 0 0 127 0" result="hardAlpha"/>
<feOffset dy="3.2287"/>
<feGaussianBlur stdDeviation="1.61435"/>
<feComposite in2="hardAlpha" operator="out"/>
<feColorMatrix type="matrix" values="0 0 0 0 0 0 0 0 0 0 0 0 0 0 0 0 0 0 0.25 0"/>
<feBlend mode="normal" in2="BackgroundImageFix" result="effect1_dropShadow_3853_20692"/>
<feBlend mode="normal" in="SourceGraphic" in2="effect1_dropShadow_3853_20692" result="shape"/>
</filter>
</defs>
</svg>
