<svg width="48" height="48" viewBox="0 0 48 48" fill="none" xmlns="http://www.w3.org/2000/svg">
<path fill-rule="evenodd" clip-rule="evenodd" d="M24.0146 25.8548C23.0442 25.8548 22.2398 26.6572 22.2398 27.6548C22.2398 28.6525 23.0442 29.4548 24.0146 29.4548H24.0651C25.0355 29.4548 25.8398 28.6525 25.8398 27.6548C25.8398 26.6572 25.0355 25.8548 24.0651 25.8548H24.0146ZM20.8398 27.6548C20.8398 25.8974 22.2577 24.4548 24.0146 24.4548H24.0651C25.822 24.4548 27.2398 25.8974 27.2398 27.6548C27.2398 29.4123 25.822 30.8548 24.0651 30.8548H24.0146C22.2577 30.8548 20.8398 29.4123 20.8398 27.6548Z" fill="#FFC78F"/>
<path fill-rule="evenodd" clip-rule="evenodd" d="M15.7476 14.929C15.7476 10.2848 19.6271 6.51302 24.3301 6.73171L24.3321 6.7318C28.7768 6.95124 32.1476 10.7293 32.1476 15.129V19.2278H33.9476C35.734 19.2278 37.1476 20.6407 37.1476 22.4271V37.4233C37.1476 39.2097 35.734 40.6227 33.9476 40.6227H13.9476C12.1611 40.6227 10.7476 39.2097 10.7476 37.4233V22.4271C10.7476 20.6407 12.1611 19.2278 13.9476 19.2278C14.9611 19.2278 15.7476 18.4413 15.7476 17.4284V14.929ZM30.7476 19.2278H19.1976C18.811 19.2278 18.4976 19.5412 18.4976 19.9278C18.4976 20.3144 18.811 20.6278 19.1976 20.6278H33.9476C34.9611 20.6278 35.7476 21.4143 35.7476 22.4271V37.4233C35.7476 38.4362 34.9611 39.2227 33.9476 39.2227H13.9476C12.934 39.2227 12.1476 38.4362 12.1476 37.4233V22.4271C12.1476 21.4143 12.934 20.6278 13.9476 20.6278C15.734 20.6278 17.1476 19.2148 17.1476 17.4284V14.929C17.1476 11.0758 20.3674 7.94953 24.264 8.13015C27.9188 8.31113 30.7476 11.4311 30.7476 15.129V19.2278Z" fill="#FFC78F"/>
<path fill-rule="evenodd" clip-rule="evenodd" d="M23.9998 29.5759C24.3864 29.5759 24.6998 29.8893 24.6998 30.2759V34.9543C24.6998 35.3409 24.3864 35.6543 23.9998 35.6543C23.6132 35.6543 23.2998 35.3409 23.2998 34.9543V30.2759C23.2998 29.8893 23.6132 29.5759 23.9998 29.5759Z" fill="#FFC78F"/>
</svg>
