<svg viewBox="0 0 96 96" fill="none" xmlns="http://www.w3.org/2000/svg">
<path d="M26.6265 74.5H69.4141C73.1746 74.5 75.6138 70.5384 73.9876 67.1862L52.543 24.3189C50.7136 20.5604 45.327 20.5604 43.4976 24.3189L22.053 67.1862C20.3252 70.5384 22.8661 74.5 26.6265 74.5Z" fill="#FFA54B"/>
<path fill-rule="evenodd" clip-rule="evenodd" d="M53.7535 23.7212L75.1986 66.5896L75.2022 66.597C77.2586 70.8361 74.1818 75.85 69.4141 75.85H26.6265C21.9116 75.85 18.6417 70.8715 20.849 66.5755L42.2871 23.7211C44.6114 18.9596 51.4293 18.9597 53.7535 23.7212ZM51.3291 24.9097C49.9924 22.1635 46.0481 22.1635 44.7114 24.9097L44.7082 24.9163L23.2567 67.7975L23.2529 67.8047C22.0126 70.2112 23.8232 73.15 26.6265 73.15H69.4141C72.1648 73.15 73.9656 70.246 72.7762 67.7822L51.3323 24.9163L51.3291 24.9097Z" fill="#FFA54B"/>
<path fill-rule="evenodd" clip-rule="evenodd" d="M47.9999 36.2186C48.7455 36.2186 49.3499 36.823 49.3499 37.5686V55.6439C49.3499 56.3895 48.7455 56.9939 47.9999 56.9939C47.2543 56.9939 46.6499 56.3895 46.6499 55.6439V37.5686C46.6499 36.823 47.2543 36.2186 47.9999 36.2186Z" fill="#171753"/>
<path d="M46.25 64.6814C46.25 65.6479 47.0335 66.4314 48 66.4314C48.9665 66.4314 49.75 65.6479 49.75 64.6814C49.75 63.7149 48.9665 62.9314 48 62.9314C47.0335 62.9314 46.25 63.7149 46.25 64.6814Z" fill="#171753"/>
</svg>
