<svg width="48" height="48" viewBox="0 0 48 48" fill="none" xmlns="http://www.w3.org/2000/svg">
<path fill-rule="evenodd" clip-rule="evenodd" d="M17.9853 27.8559C17.9272 27.9308 17.8727 28.0619 17.8727 28.2314V34.9516C17.8727 35.121 17.9272 35.2521 17.9853 35.327C18.0234 35.3761 18.05 35.3881 18.0585 35.3906H40.8468C40.8553 35.3881 40.8819 35.3761 40.92 35.327C40.978 35.2521 41.0326 35.121 41.0326 34.9516V28.2314C41.0326 28.0619 40.978 27.9308 40.92 27.8559C40.8819 27.8068 40.8553 27.7948 40.8468 27.7923H18.0585C18.05 27.7948 18.0234 27.8068 17.9853 27.8559ZM18.0614 27.7918C18.0614 27.7919 18.0606 27.7921 18.0588 27.7922L18.0614 27.7918ZM40.8439 27.7918C40.8439 27.7917 40.8448 27.7918 40.8464 27.7922L40.8439 27.7918ZM40.8439 35.3911C40.8438 35.391 40.8447 35.3908 40.8464 35.3907L40.8439 35.3911ZM18.0614 35.3911C18.0614 35.3912 18.0605 35.3911 18.0588 35.3907L18.0614 35.3911ZM16.879 26.9979C17.1414 26.6596 17.5517 26.3923 18.0561 26.3923H40.8492C41.3536 26.3923 41.7639 26.6596 42.0262 26.9979C42.2884 27.3359 42.4326 27.7744 42.4326 28.2314V34.9516C42.4326 35.4086 42.2884 35.847 42.0262 36.185C41.7639 36.5233 41.3536 36.7906 40.8492 36.7906H18.0561C17.5517 36.7906 17.1414 36.5233 16.879 36.185C16.6169 35.847 16.4727 35.4086 16.4727 34.9516V28.2314C16.4727 27.7744 16.6169 27.3359 16.879 26.9979Z" fill="#F5F5F5"/>
<path fill-rule="evenodd" clip-rule="evenodd" d="M6.98505 20.7735C6.95484 21.5187 6.93586 22.8108 7.18874 24.1942C7.45197 25.6342 7.99687 27.101 9.05812 28.1623L9.06356 28.1677C10.3546 29.4875 12.2831 30.0136 13.9862 30.1862C14.8251 30.2713 15.5794 30.2675 16.1238 30.2423C16.2366 30.2371 16.34 30.2309 16.4331 30.2245C16.4395 30.1312 16.4457 30.0274 16.4509 29.9142C16.4761 29.3688 16.4799 28.6123 16.3948 27.7691C16.2222 26.0585 15.6959 24.1096 14.3709 22.7845C13.3098 21.7234 11.8434 21.1789 10.4064 20.9239C9.00924 20.676 7.70668 20.714 6.98505 20.7735ZM17.075 30.8664C17.7683 30.9632 17.7683 30.9629 17.7684 30.9627L17.7687 30.9605L17.7693 30.9558L17.7713 30.9404C17.773 30.9275 17.7753 30.9093 17.7781 30.886C17.7837 30.8396 17.7911 30.7731 17.7994 30.6885C17.8159 30.5193 17.8356 30.2774 17.8494 29.9789C17.877 29.3832 17.8813 28.5559 17.7877 27.6285C17.603 25.7979 17.0247 23.4585 15.3608 21.7946C14.0178 20.4516 12.2354 19.8266 10.651 19.5455C9.07682 19.2662 7.62826 19.3138 6.83817 19.3809C6.14921 19.3994 5.59849 19.9559 5.5891 20.6472C5.55607 21.4142 5.52277 22.8661 5.81156 24.4459C6.10044 26.0263 6.72445 27.8069 8.06543 29.1495C9.69815 30.8165 12.0241 31.3945 13.845 31.5791C14.7685 31.6727 15.5939 31.6684 16.1886 31.6408C16.4866 31.627 16.7282 31.6073 16.8973 31.5908C16.9818 31.5825 17.0483 31.575 17.0947 31.5695C17.1179 31.5667 17.1361 31.5644 17.149 31.5627L17.1644 31.5607L17.1691 31.5601L17.1707 31.5598C17.1709 31.5598 17.1718 31.5597 17.075 30.8664ZM17.075 30.8664L17.1718 31.5597L17.6953 31.4867L17.7684 30.9627L17.075 30.8664ZM16.3817 30.7703C16.3816 30.7704 16.3816 30.7704 16.3817 30.7703V30.7703ZM16.9788 30.1731C16.9789 30.173 16.9789 30.173 16.9788 30.1731V30.1731Z" fill="#F5F5F5"/>
<path fill-rule="evenodd" clip-rule="evenodd" d="M16.33 8.86432C16.8388 8.48273 17.5059 8.48273 18.0147 8.86432L18.037 8.88102L18.0579 8.89943C18.6355 9.40915 19.6884 10.4272 20.6017 11.7672C21.5104 13.1006 22.3233 14.8149 22.3233 16.7017C22.3233 19.0526 21.0832 21.1094 19.9238 22.5293C19.3365 23.2485 18.7508 23.8277 18.3117 24.2275C18.0918 24.4278 17.9075 24.5841 17.7767 24.6915C17.7113 24.7452 17.6591 24.7867 17.6225 24.8155C17.6042 24.8299 17.5897 24.8411 17.5794 24.849L17.5671 24.8584L17.5633 24.8613L17.5621 24.8622L17.5616 24.8626C17.5614 24.8628 17.5612 24.8629 17.1399 24.3039C16.7186 24.8629 16.7184 24.8628 16.7182 24.8626L16.7177 24.8622L16.7165 24.8613L16.7127 24.8584L16.7004 24.849C16.6901 24.8411 16.6756 24.8299 16.6573 24.8155C16.6207 24.7867 16.5685 24.7452 16.5031 24.6915C16.3723 24.5841 16.188 24.4278 15.9681 24.2275C15.529 23.8277 14.9433 23.2485 14.356 22.5293C13.1966 21.1094 11.9565 19.0526 11.9565 16.7017C11.9565 14.8132 12.7707 13.114 13.6892 11.7874C14.6118 10.4547 15.6815 9.43755 16.285 8.90113L16.3067 8.88179L16.33 8.86432ZM17.1399 24.3039L16.7186 24.8629L17.1399 25.1804L17.5612 24.8629L17.1399 24.3039ZM17.1399 23.3965C17.2096 23.3358 17.2865 23.2677 17.3691 23.1924C17.7707 22.8267 18.3058 22.2972 18.8394 21.6438C19.9216 20.3184 20.9233 18.5742 20.9233 16.7017C20.9233 15.2097 20.2742 13.7726 19.4448 12.5557C18.6409 11.3761 17.7072 10.4616 17.1725 9.98548C16.6009 10.4968 15.6515 11.4124 14.8402 12.5843C14.0044 13.7916 13.3565 15.2114 13.3565 16.7017C13.3565 18.5742 14.3582 20.3184 15.4404 21.6438C15.974 22.2972 16.5091 22.8267 16.9107 23.1924C16.9933 23.2677 17.0702 23.3358 17.1399 23.3965Z" fill="#F5F5F5"/>
<path fill-rule="evenodd" clip-rule="evenodd" d="M27.4956 16.5217C28.1899 16.5344 28.7466 17.0932 28.7561 17.7883C28.7891 18.5553 28.8224 20.0072 28.5336 21.587C28.2445 23.1684 27.6199 24.9504 26.277 26.2933L26.2605 26.3098L26.243 26.3251C25.678 26.8194 25.0503 27.2366 24.4326 27.5798L24.274 27.6679H18.5047C18.1968 27.6679 17.9503 27.8812 17.8885 28.1593L17.08 31.7975L16.5133 28.1139L17.2052 28.0075C16.5133 28.1139 16.5133 28.1141 16.5133 28.1139L16.5131 28.1127L16.5128 28.1108L16.512 28.1051L16.5093 28.0866C16.5071 28.071 16.5041 28.0491 16.5005 28.0213C16.4932 27.9656 16.4836 27.8861 16.4733 27.7856C16.4527 27.5848 16.4291 27.2994 16.4163 26.9532C16.3908 26.2635 16.4072 25.3189 16.5803 24.3149L16.6254 24.0531L16.8329 23.8872C17.1315 23.6483 17.985 22.9198 18.8376 21.8656C19.6948 20.8058 20.5133 19.4632 20.8072 17.9938L20.8773 17.6432L21.2026 17.4945C23.6312 16.3843 26.3642 16.456 27.4956 16.5217ZM17.8068 26.3897C18.0231 26.3111 18.2577 26.2679 18.5047 26.2679H23.9083C24.3992 25.9846 24.8778 25.6568 25.3034 25.2869C26.3539 24.227 26.8946 22.7679 27.1564 21.3353C27.4091 19.9529 27.3904 18.6618 27.3602 17.9162C26.2959 17.8576 24.0852 17.8275 22.0979 18.6328C21.6909 20.2593 20.7918 21.6758 19.9261 22.746C19.1424 23.7151 18.3592 24.4331 17.9199 24.8051C17.8374 25.3732 17.8086 25.9179 17.8068 26.3897Z" fill="#F5F5F5"/>
<path d="M29.1323 32.8442C29.8243 32.8442 30.3852 32.2833 30.3852 31.5913C30.3852 30.8993 29.8243 30.3384 29.1323 30.3384C28.4403 30.3384 27.8794 30.8993 27.8794 31.5913C27.8794 32.2833 28.4403 32.8442 29.1323 32.8442Z" fill="#F5F5F5"/>
<path d="M36.8208 32.8442C37.5128 32.8442 38.0737 32.2833 38.0737 31.5913C38.0737 30.8993 37.5128 30.3384 36.8208 30.3384C36.1288 30.3384 35.5679 30.8993 35.5679 31.5913C35.5679 32.2833 36.1288 32.8442 36.8208 32.8442Z" fill="#F5F5F5"/>
<path d="M21.4438 32.8442C22.1358 32.8442 22.6968 32.2833 22.6968 31.5913C22.6968 30.8993 22.1358 30.3384 21.4438 30.3384C20.7519 30.3384 20.1909 30.8993 20.1909 31.5913C20.1909 32.2833 20.7519 32.8442 21.4438 32.8442Z" fill="#F5F5F5"/>
</svg>
