<svg viewBox="0 0 48 48" fill="none" xmlns="http://www.w3.org/2000/svg">
<path fill-rule="evenodd" clip-rule="evenodd" d="M17.9853 27.8558C17.9272 27.9307 17.8727 28.0618 17.8727 28.2312V34.9514C17.8727 35.1209 17.9272 35.252 17.9853 35.3269C18.0234 35.3759 18.05 35.388 18.0585 35.3905H40.8468C40.8553 35.388 40.8819 35.3759 40.92 35.3269C40.978 35.252 41.0326 35.1209 41.0326 34.9514V28.2312C41.0326 28.0618 40.978 27.9307 40.92 27.8558C40.8819 27.8067 40.8553 27.7947 40.8468 27.7922H18.0585C18.05 27.7947 18.0234 27.8067 17.9853 27.8558ZM18.0614 27.7917C18.0614 27.7918 18.0606 27.792 18.0588 27.7921L18.0614 27.7917ZM40.8439 27.7917C40.8439 27.7916 40.8448 27.7916 40.8464 27.7921L40.8439 27.7917ZM40.8439 35.391C40.8438 35.3909 40.8447 35.3907 40.8464 35.3906L40.8439 35.391ZM18.0614 35.391C18.0614 35.3911 18.0605 35.391 18.0588 35.3906L18.0614 35.391ZM16.879 26.9978C17.1414 26.6595 17.5517 26.3922 18.0561 26.3922H40.8492C41.3536 26.3922 41.7639 26.6595 42.0262 26.9978C42.2884 27.3358 42.4326 27.7742 42.4326 28.2312V34.9514C42.4326 35.4084 42.2884 35.8469 42.0262 36.1849C41.7639 36.5231 41.3536 36.7905 40.8492 36.7905H18.0561C17.5517 36.7905 17.1414 36.5231 16.879 36.1849C16.6169 35.8469 16.4727 35.4084 16.4727 34.9514V28.2312C16.4727 27.7742 16.6169 27.3358 16.879 26.9978Z" fill="#FFC78F"/>
<path fill-rule="evenodd" clip-rule="evenodd" d="M6.98505 20.7733C6.95484 21.5186 6.93586 22.8106 7.18874 24.1941C7.45197 25.6341 7.99687 27.1009 9.05812 28.1621L9.06356 28.1676C10.3546 29.4873 12.2831 30.0134 13.9862 30.1861C14.8251 30.2712 15.5794 30.2674 16.1238 30.2422C16.2366 30.2369 16.34 30.2308 16.4331 30.2244C16.4395 30.1311 16.4457 30.0273 16.4509 29.9141C16.4761 29.3687 16.4799 28.6122 16.3948 27.769C16.2222 26.0584 15.6959 24.1094 14.3709 22.7844C13.3098 21.7233 11.8434 21.1788 10.4064 20.9238C9.00924 20.6759 7.70668 20.7139 6.98505 20.7733ZM17.075 30.8663C17.7683 30.963 17.7683 30.9628 17.7684 30.9626L17.7687 30.9604L17.7693 30.9557L17.7713 30.9403C17.773 30.9273 17.7753 30.9091 17.7781 30.8859C17.7837 30.8395 17.7911 30.773 17.7994 30.6883C17.8159 30.5192 17.8356 30.2773 17.8494 29.9788C17.877 29.3831 17.8813 28.5558 17.7877 27.6284C17.603 25.7978 17.0247 23.4584 15.3608 21.7945C14.0178 20.4514 12.2354 19.8264 10.651 19.5453C9.07682 19.2661 7.62826 19.3136 6.83817 19.3807C6.14921 19.3993 5.59849 19.9558 5.5891 20.6471C5.55607 21.4141 5.52277 22.866 5.81156 24.4458C6.10044 26.0262 6.72445 27.8068 8.06543 29.1493C9.69815 30.8164 12.0241 31.3944 13.845 31.579C14.7685 31.6726 15.5939 31.6682 16.1886 31.6407C16.4866 31.6269 16.7282 31.6072 16.8973 31.5906C16.9818 31.5824 17.0483 31.5749 17.0947 31.5694C17.1179 31.5666 17.1361 31.5643 17.149 31.5626L17.1644 31.5606L17.1691 31.5599L17.1707 31.5597C17.1709 31.5597 17.1718 31.5596 17.075 30.8663ZM17.075 30.8663L17.1718 31.5596L17.6953 31.4865L17.7684 30.9626L17.075 30.8663ZM16.3817 30.7702C16.3816 30.7703 16.3816 30.7702 16.3817 30.7702V30.7702ZM16.9788 30.1729C16.9789 30.1729 16.9789 30.1729 16.9788 30.1729V30.1729Z" fill="#FFC78F"/>
<path fill-rule="evenodd" clip-rule="evenodd" d="M16.33 8.86432C16.8388 8.48273 17.5059 8.48273 18.0147 8.86432L18.037 8.88102L18.0579 8.89943C18.6355 9.40915 19.6884 10.4272 20.6017 11.7672C21.5104 13.1006 22.3233 14.8149 22.3233 16.7017C22.3233 19.0526 21.0832 21.1094 19.9238 22.5293C19.3365 23.2485 18.7508 23.8277 18.3117 24.2275C18.0918 24.4278 17.9075 24.5841 17.7767 24.6915C17.7113 24.7452 17.6591 24.7867 17.6225 24.8155C17.6042 24.8299 17.5897 24.8411 17.5794 24.849L17.5671 24.8584L17.5633 24.8613L17.5621 24.8622L17.5616 24.8626C17.5614 24.8628 17.5612 24.8629 17.1399 24.3039C16.7186 24.8629 16.7184 24.8628 16.7182 24.8626L16.7177 24.8622L16.7165 24.8613L16.7127 24.8584L16.7004 24.849C16.6901 24.8411 16.6756 24.8299 16.6573 24.8155C16.6207 24.7867 16.5685 24.7452 16.5031 24.6915C16.3723 24.5841 16.188 24.4278 15.9681 24.2275C15.529 23.8277 14.9433 23.2485 14.356 22.5293C13.1966 21.1094 11.9565 19.0526 11.9565 16.7017C11.9565 14.8132 12.7707 13.114 13.6892 11.7874C14.6118 10.4547 15.6815 9.43755 16.285 8.90113L16.3067 8.88179L16.33 8.86432ZM17.1399 24.3039L16.7186 24.8629L17.1399 25.1804L17.5612 24.8629L17.1399 24.3039ZM17.1399 23.3965C17.2096 23.3358 17.2865 23.2677 17.3691 23.1924C17.7707 22.8267 18.3058 22.2972 18.8394 21.6438C19.9216 20.3184 20.9233 18.5742 20.9233 16.7017C20.9233 15.2097 20.2742 13.7726 19.4448 12.5557C18.6409 11.3761 17.7072 10.4616 17.1725 9.98548C16.6009 10.4968 15.6515 11.4124 14.8402 12.5843C14.0044 13.7916 13.3565 15.2114 13.3565 16.7017C13.3565 18.5742 14.3582 20.3184 15.4404 21.6438C15.974 22.2972 16.5091 22.8267 16.9107 23.1924C16.9933 23.2677 17.0702 23.3358 17.1399 23.3965Z" fill="#FFC78F"/>
<path fill-rule="evenodd" clip-rule="evenodd" d="M27.4956 16.5218C28.1899 16.5345 28.7466 17.0933 28.7561 17.7884C28.7891 18.5554 28.8224 20.0073 28.5336 21.5871C28.2445 23.1685 27.6199 24.9505 26.277 26.2934L26.2605 26.3099L26.243 26.3252C25.678 26.8196 25.0503 27.2367 24.4326 27.5799L24.274 27.668H18.5047C18.1968 27.668 17.9503 27.8813 17.8885 28.1595L17.08 31.7976L16.5133 28.114L17.2052 28.0076C16.5133 28.114 16.5133 28.1142 16.5133 28.114L16.5131 28.1128L16.5128 28.1109L16.512 28.1052L16.5093 28.0867C16.5071 28.0711 16.5041 28.0493 16.5005 28.0214C16.4932 27.9658 16.4836 27.8862 16.4733 27.7857C16.4527 27.5849 16.4291 27.2995 16.4163 26.9533C16.3908 26.2637 16.4072 25.319 16.5803 24.315L16.6254 24.0532L16.8329 23.8873C17.1315 23.6484 17.985 22.9199 18.8376 21.8657C19.6948 20.806 20.5133 19.4634 20.8072 17.9939L20.8773 17.6433L21.2026 17.4946C23.6312 16.3844 26.3642 16.4561 27.4956 16.5218ZM17.8068 26.3898C18.0231 26.3112 18.2577 26.268 18.5047 26.268H23.9083C24.3992 25.9847 24.8778 25.657 25.3034 25.2871C26.3539 24.2271 26.8946 22.768 27.1564 21.3354C27.4091 19.953 27.3904 18.6619 27.3602 17.9164C26.2959 17.8577 24.0852 17.8277 22.0979 18.6329C21.6909 20.2594 20.7918 21.6759 19.9261 22.7462C19.1424 23.7152 18.3592 24.4332 17.9199 24.8052C17.8374 25.3733 17.8086 25.918 17.8068 26.3898Z" fill="#FFC78F"/>
<path d="M29.1323 32.8443C29.8243 32.8443 30.3852 32.2834 30.3852 31.5914C30.3852 30.8995 29.8243 30.3385 29.1323 30.3385C28.4403 30.3385 27.8794 30.8995 27.8794 31.5914C27.8794 32.2834 28.4403 32.8443 29.1323 32.8443Z" fill="#FFC78F"/>
<path d="M36.8208 32.8443C37.5128 32.8443 38.0737 32.2834 38.0737 31.5914C38.0737 30.8995 37.5128 30.3385 36.8208 30.3385C36.1288 30.3385 35.5679 30.8995 35.5679 31.5914C35.5679 32.2834 36.1288 32.8443 36.8208 32.8443Z" fill="#FFC78F"/>
<path d="M21.4438 32.8443C22.1358 32.8443 22.6968 32.2834 22.6968 31.5914C22.6968 30.8995 22.1358 30.3385 21.4438 30.3385C20.7519 30.3385 20.1909 30.8995 20.1909 31.5914C20.1909 32.2834 20.7519 32.8443 21.4438 32.8443Z" fill="#FFC78F"/>
</svg>
