<svg viewBox="0 0 96 96" fill="none" xmlns="http://www.w3.org/2000/svg">
<path fill-rule="evenodd" clip-rule="evenodd" d="M48.2937 16.8135C31.0514 16.7172 16.9105 30.489 16.8144 47.7054L16.8143 47.713C16.6218 64.9424 30.483 79.0885 47.7062 79.1847L47.7138 79.1848C64.9433 79.3773 79.0893 65.5162 79.1855 48.2928L79.1855 48.2853C79.3781 31.0558 65.5169 16.9098 48.2937 16.8135ZM14.1144 47.6866C14.2211 28.955 29.6025 14.0091 48.3087 14.1136C67.0341 14.2182 82.0927 29.5933 81.8854 48.3121C81.7785 67.0355 66.4044 82.0919 47.687 81.8846C28.9637 81.7778 13.9073 66.4038 14.1144 47.6866Z" fill="#9BE7C4"/>
<path fill-rule="evenodd" clip-rule="evenodd" d="M61.9523 38.5433C62.4807 39.0693 62.4827 39.9241 61.9567 40.4525L45.6552 56.8306C44.309 58.183 42.2273 58.19 40.8735 56.8514L34.0813 50.5443C33.5349 50.037 33.5033 49.1828 34.0106 48.6364C34.518 48.0901 35.3722 48.0584 35.9185 48.5658L42.728 54.8889C42.741 54.901 42.7538 54.9133 42.7662 54.9258C43.0639 55.2249 43.4439 55.2249 43.7415 54.9258L60.0431 38.5478C60.5691 38.0193 61.4238 38.0173 61.9523 38.5433Z" fill="#9BE7C4"/>
</svg>
