<svg viewBox="0 0 24 24" fill="none" xmlns="http://www.w3.org/2000/svg">
<path d="M6.65662 18.625H17.3535C18.2936 18.625 18.9034 17.6346 18.4969 16.7965L13.1358 6.07972C12.6784 5.14009 11.3318 5.14009 10.8744 6.07972L5.51325 16.7965C5.08131 17.6346 5.71651 18.625 6.65662 18.625Z" fill="#ECFFFE"/>
<path fill-rule="evenodd" clip-rule="evenodd" d="M13.5841 5.85823L18.9469 16.5783C19.5127 17.7448 18.6668 19.125 17.3536 19.125H6.65668C5.3631 19.125 4.45787 17.758 5.06739 16.5704L10.4262 5.85827C11.0668 4.54726 12.9434 4.54724 13.5841 5.85823ZM12.6862 6.29854C12.4114 5.73382 11.5989 5.73382 11.324 6.29854L11.3217 6.30343L5.95778 17.0256C5.70636 17.5134 6.0711 18.125 6.65668 18.125H17.3536C17.9198 18.125 18.2931 17.5262 18.0483 17.0172L12.6862 6.29854Z" fill="#ECFFFE"/>
<path fill-rule="evenodd" clip-rule="evenodd" d="M11.9998 8.69214C12.3864 8.69214 12.6998 9.00554 12.6998 9.39214V13.8921C12.6998 14.2787 12.3864 14.5921 11.9998 14.5921C11.6132 14.5921 11.2998 14.2787 11.2998 13.8921V9.39214C11.2998 9.00554 11.6132 8.69214 11.9998 8.69214Z" fill="#171753"/>
<path d="M11 16.7328C11 17.2851 11.4477 17.7328 12 17.7328C12.5523 17.7328 13 17.2851 13 16.7328C13 16.1806 12.5523 15.7328 12 15.7328C11.4477 15.7328 11 16.1806 11 16.7328Z" fill="#171753"/>
</svg>
