<svg width="229" height="700" viewBox="0 0 229 700" fill="none" xmlns="http://www.w3.org/2000/svg">
<g clip-path="url(#clip0_3591_21392)">
<path d="M200.793 170.6C196.089 196.62 185.971 222.362 166.266 240.696C157.405 249.1 146.704 255.309 135.019 258.824C124.366 261.696 113.255 262.447 102.314 261.036C79.6538 258.498 58.1756 249.603 36.6009 242.763C24.7463 239.004 12.4817 235.62 3.99016e-07 234.303L3.26957e-07 240.345C1.43509 240.515 2.88225 240.708 4.30528 240.938C27.4115 244.563 49.1309 253.893 71.4412 260.504C92.7746 266.825 115.796 271.031 137.588 264.432C161.623 257.181 180.701 238.291 192.134 216.344C205.399 190.964 209.572 161.958 210.452 133.678C211.429 102.522 208.04 71.4619 206.111 40.402C205.279 27.1804 204.76 13.6688 204.905 0.120858L198.742 0.120858C197.922 56.8746 210.995 114.039 200.793 170.6Z" fill="#9BE7C4"/>
<path d="M220.39 81.5896L222.078 98.3884C228.662 163.022 235.464 229.843 205.954 286.44C188.347 320.207 159.332 346.372 131.269 371.667C108.066 392.575 84.0676 414.208 66.3279 440.204C30.8485 492.172 22.7324 558.86 19.621 611.154C18.8251 624.448 18.2703 637.948 17.7276 651.037C15.8222 696.817 13.8927 744.156 1.70041 788.896C1.15772 790.927 0.578862 792.921 4.84239e-08 794.939L0 799C0.988889 795.834 1.95366 792.57 2.87019 789.211C15.0866 744.349 17.0282 696.938 18.9336 651.085C19.4763 638.008 20.031 624.497 20.8149 611.203C23.9263 559.066 32.0062 492.595 67.3289 440.796C84.9841 414.933 108.922 393.348 132.077 372.477C160.212 347.097 189.312 320.884 207.027 286.911C236.706 230.085 229.88 163.07 223.248 98.2676C222.669 92.6277 222.106 87.028 221.559 81.4687C219.063 55.9077 217.423 27.8088 219.437 -1.95583e-05L218.231 -1.95726e-05C216.253 27.8693 217.893 55.9924 220.39 81.5896Z" fill="#BEF0ED"/>
</g>
<defs>
<clipPath id="clip0_3591_21392">
<rect width="799" height="229" fill="white" transform="translate(0 799) rotate(-90)"/>
</clipPath>
</defs>
</svg>
