<svg width="229" height="677" viewBox="0 0 229 677" fill="none" xmlns="http://www.w3.org/2000/svg">
<g clip-path="url(#clip0_3591_21033)">
<path d="M28.2074 628.4C32.9106 602.38 43.0286 576.638 62.7341 558.304C71.5947 549.9 82.2958 543.691 93.9805 540.176C104.634 537.304 115.745 536.553 126.686 537.964C149.346 540.502 170.824 549.397 192.399 556.237C204.254 559.996 216.518 563.38 229 564.697L229 558.655C227.565 558.485 226.118 558.292 224.695 558.062C201.588 554.437 179.869 545.107 157.559 538.496C136.225 532.175 113.204 527.969 91.4118 534.568C67.377 541.819 48.2987 560.709 36.8662 582.656C23.6006 608.036 19.428 637.041 18.5476 665.322C17.5708 696.478 20.9596 727.538 22.8891 758.598C23.7212 771.82 24.2398 785.331 24.095 798.879L30.2575 798.879C31.0776 742.125 18.0049 684.961 28.2074 628.4Z" fill="#9BE7C4"/>
<path d="M8.61045 717.41L6.92211 700.612C0.337558 635.978 -6.46407 569.157 23.0458 512.56C40.6529 478.793 69.6683 452.628 97.731 427.333C120.934 406.425 144.932 384.792 162.672 358.796C198.151 306.828 206.268 240.14 209.379 187.846C210.175 174.552 210.73 161.052 211.272 147.963C213.178 102.183 215.107 54.8442 227.3 10.1035C227.842 8.07315 228.421 6.07903 229 4.06075L229 0C228.011 3.16641 227.046 6.42951 226.13 9.7893C213.913 54.6509 211.972 102.062 210.066 147.915C209.524 160.992 208.969 174.503 208.185 187.797C205.074 239.934 196.994 306.405 161.671 358.204C144.016 384.067 120.078 405.652 96.923 426.523C68.7879 451.903 39.6881 478.116 21.9725 512.089C-7.70621 568.915 -0.880465 635.93 5.75232 700.732C6.33118 706.372 6.89396 711.972 7.44066 717.531C9.937 743.092 11.5771 771.191 9.56316 799L10.7691 799C12.7469 771.131 11.1068 743.008 8.61045 717.41Z" fill="white"/>
</g>
<defs>
<clipPath id="clip0_3591_21033">
<rect width="799" height="229" fill="white" transform="translate(229) rotate(90)"/>
</clipPath>
</defs>
</svg>
