
 <svg viewBox="0 0 20 22" fill="none" xmlns="http://www.w3.org/2000/svg">
<path d="M0.55 18.7739C0.4 18.7739 0.275 18.7272 0.15 18.6337C0.05 18.5168 0 18.3999 0 18.2596L0.025 12.8361C0.025 12.6959 0.075 12.5556 0.2 12.4621L13.3 0.189031C13.5 0.00201262 13.875 0.00201262 14.1 0.189031L19.825 5.54242C19.925 5.63593 20 5.77619 20 5.91645C20 6.05672 19.95 6.19698 19.825 6.29049L6.7 18.4934C6.6 18.5869 6.45 18.6337 6.325 18.657L0.55 18.7739C0.575 18.7739 0.575 18.7739 0.55 18.7739ZM1.15 13.0465L1.125 17.722L6.075 17.6051L18.625 5.91645L13.7 1.31114L1.15 13.0465Z" fill="white"/>
<path d="M19.425 22H0.55C0.25 22 0 21.7663 0 21.4857C0 21.2052 0.25 20.9714 0.55 20.9714H19.4C19.7 20.9714 19.95 21.2052 19.95 21.4857C19.975 21.7663 19.725 22 19.425 22Z" fill="white"/>
</svg>
