<svg width="24" height="24" viewBox="0 0 24 24" fill="none" xmlns="http://www.w3.org/2000/svg">
<path fill-rule="evenodd" clip-rule="evenodd" d="M12.0721 4.37512C7.85485 4.35156 4.39853 7.71965 4.37502 11.9274L4.375 11.9302C4.32793 16.1427 7.71701 19.601 11.9273 19.6245L11.9301 19.6245C16.1426 19.6716 19.6009 16.2825 19.6244 12.0722L19.6244 12.0695C19.6715 7.85689 16.2824 4.39864 12.0721 4.37512ZM3.37504 11.9204C3.40245 7.1515 7.31822 3.34855 12.0777 3.37514C16.8443 3.40177 20.6768 7.31515 20.6244 12.0792C20.597 16.8451 16.6839 20.6769 11.9203 20.6245C7.15441 20.5971 3.32258 16.684 3.37504 11.9204Z" fill="white"/>
<path d="M12.0001 7.22533C11.5347 7.22533 11.1575 7.6026 11.1575 8.06799C11.1575 8.53337 11.5347 8.91064 12.0001 8.91064C12.4655 8.91064 12.8428 8.53337 12.8428 8.06799C12.8428 7.6026 12.4655 7.22533 12.0001 7.22533Z" fill="white"/>
<path fill-rule="evenodd" clip-rule="evenodd" d="M11.657 11.5081C11.3044 11.5081 11.0186 11.2223 11.0186 10.8697C11.0186 10.517 11.3044 10.2312 11.657 10.2312L12.9785 10.2312V10.9496C12.9805 10.97 12.9815 10.9906 12.9815 11.0114V16.357C12.9815 16.7096 12.6957 16.9954 12.343 16.9954C11.9904 16.9954 11.7046 16.7096 11.7046 16.357V11.5081L11.657 11.5081Z" fill="white"/>
</svg>
