<svg width="25" height="26" viewBox="0 0 25 26" fill="none" xmlns="http://www.w3.org/2000/svg">
<g clip-path="url(#clip0_6715_62436)">
<path d="M18.0798 25.5435C17.7057 25.5435 17.3317 25.4195 17.0823 25.1095L11.9701 19.3437H2.61845C1.18454 19.4057 0 18.2277 0 16.7397V2.66601C0 1.17804 1.18454 6.10352e-05 2.6808 6.10352e-05H22.3192C23.8155 6.10352e-05 25 1.17804 25 2.66601V16.7397C25 18.2277 23.8155 19.4057 22.3192 19.4057H19.5137V24.1796C19.5137 24.7376 19.1397 25.2335 18.6409 25.4815C18.4539 25.5435 18.2668 25.5435 18.0798 25.5435ZM2.6808 1.24004C1.87032 1.24004 1.24688 1.86002 1.24688 2.66601V16.7397C1.24688 17.5457 1.87032 18.1657 2.6808 18.1657H12.2818C12.4688 18.1657 12.6559 18.2277 12.7805 18.3517L18.0175 24.3036C18.0798 24.3656 18.1421 24.3036 18.2045 24.3036C18.2668 24.3036 18.3292 24.2416 18.3292 24.1176V18.7237C18.3292 18.3517 18.5786 18.1037 18.9526 18.1037H22.3815C23.192 18.1037 23.8155 17.4837 23.8155 16.6777V2.66601C23.7531 1.86002 23.0673 1.24004 22.3192 1.24004H2.6808Z" fill="white"/>
<path d="M12.469 15.8717C12.2196 15.8717 12.0326 15.7477 11.8456 15.6237C11.6585 15.4997 11.5962 15.2517 11.5962 15.0037C11.5962 14.7557 11.7209 14.5697 11.8456 14.3838C12.0326 14.1978 12.3443 14.0738 12.656 14.1358C12.7184 14.1358 12.7807 14.1358 12.8431 14.1978C12.9054 14.1978 12.9678 14.2598 12.9678 14.2598C12.9678 14.2598 13.0925 14.3218 13.0925 14.3838C13.1548 14.4458 13.1548 14.4458 13.2171 14.5077C13.2171 14.5697 13.2795 14.5697 13.2795 14.6317C13.2795 14.6937 13.3418 14.7557 13.3418 14.8177C13.3418 14.8797 13.3418 14.9417 13.3418 15.0037C13.3418 15.2517 13.2795 15.4377 13.0925 15.6237C12.9678 15.8097 12.7184 15.8717 12.469 15.8717Z" fill="white"/>
<path d="M12.4687 13.2058C12.0946 13.2058 11.8452 12.9578 11.8452 12.5858V4.02996C11.8452 3.65797 12.0946 3.40997 12.4687 3.40997C12.8427 3.40997 13.0921 3.65797 13.0921 4.02996V12.5238C13.0921 12.8958 12.8427 13.2058 12.4687 13.2058Z" fill="white"/>
</g>
<defs>
<clipPath id="clip0_6715_62436">
<rect width="25" height="25.5435" fill="white"/>
</clipPath>
</defs>
</svg>
