<svg width="24" height="24" viewBox="0 0 24 24" fill="none" xmlns="http://www.w3.org/2000/svg">
<path fill-rule="evenodd" clip-rule="evenodd" d="M12.0074 13.0774C11.6065 13.0774 11.27 13.41 11.27 13.8274C11.27 14.2448 11.6065 14.5774 12.0074 14.5774H12.0326C12.4335 14.5774 12.77 14.2448 12.77 13.8274C12.77 13.41 12.4335 13.0774 12.0326 13.0774H12.0074ZM10.27 13.8274C10.27 12.8673 11.0447 12.0774 12.0074 12.0774H12.0326C12.9954 12.0774 13.77 12.8673 13.77 13.8274C13.77 14.7875 12.9954 15.5774 12.0326 15.5774H12.0074C11.0447 15.5774 10.27 14.7875 10.27 13.8274Z" fill="white"/>
<path fill-rule="evenodd" clip-rule="evenodd" d="M7.75 7.57559C7.75 5.16874 9.7604 3.21372 12.1982 3.32708L12.1997 3.32715V3.32715C14.5066 3.44104 16.25 5.40053 16.25 7.67556V10.0749C16.25 10.3511 16.0261 10.5749 15.75 10.5749C15.4739 10.5749 15.25 10.3511 15.25 10.0749V7.67556C15.25 5.90187 13.8938 4.41239 12.1511 4.32597C10.2892 4.2398 8.75 5.73375 8.75 7.57559V10.0749C8.75 10.3511 8.52614 10.5749 8.25 10.5749C7.97386 10.5749 7.75 10.3511 7.75 10.0749V7.57559Z" fill="white"/>
<path fill-rule="evenodd" clip-rule="evenodd" d="M5.2749 11.075C5.2749 10.2465 5.94648 9.57495 6.7749 9.57495H17.2749C18.1033 9.57495 18.7749 10.2465 18.7749 11.075V18.9614C18.7749 19.7899 18.1033 20.4614 17.2749 20.4614H6.7749C5.94647 20.4614 5.2749 19.7899 5.2749 18.9614V11.075ZM6.7749 10.575C6.49876 10.575 6.2749 10.7988 6.2749 11.075V18.9614C6.2749 19.2376 6.49876 19.4614 6.7749 19.4614H17.2749C17.551 19.4614 17.7749 19.2376 17.7749 18.9614V11.075C17.7749 10.7988 17.551 10.575 17.2749 10.575H6.7749Z" fill="white"/>
<path fill-rule="evenodd" clip-rule="evenodd" d="M12 14.6379C12.2761 14.6379 12.5 14.8618 12.5 15.1379V17.4733C12.5 17.7494 12.2761 17.9733 12 17.9733C11.7239 17.9733 11.5 17.7494 11.5 17.4733V15.1379C11.5 14.8618 11.7239 14.6379 12 14.6379Z" fill="white"/>
</svg>
