<svg width="20" height="28" viewBox="0 0 20 28" fill="none" xmlns="http://www.w3.org/2000/svg">
<path d="M9.99971 20.4425C10.7654 20.4425 11.3861 19.8218 11.3861 19.056C11.3861 18.2903 10.7654 17.6696 9.99971 17.6696C9.23401 17.6696 8.61328 18.2903 8.61328 19.056C8.61328 19.8218 9.23401 20.4425 9.99971 20.4425Z" fill="white"/>
<path d="M19.351 27.7286H0.648968C0.294985 27.7286 0 27.4336 0 27.0796V13.2153C0 12.8613 0.294985 12.5663 0.648968 12.5663H19.351C19.705 12.5663 20 12.8613 20 13.2153V27.0796C20 27.4336 19.705 27.7286 19.351 27.7286ZM1.32743 26.4012H18.7021V13.8643H1.32743V26.4012Z" fill="white"/>
<path d="M16.254 13.0088C15.9 13.0088 15.605 12.7139 15.605 12.3599V6.90265C15.605 3.80531 13.0977 1.29794 10.0003 1.29794C6.90297 1.29794 4.39559 3.80531 4.39559 6.90265V12.3304C4.39559 12.6844 4.10061 12.9794 3.74662 12.9794C3.39264 12.9794 3.09766 12.6844 3.09766 12.3304V6.90265C3.09766 3.09734 6.195 0 10.0003 0C13.8056 0 16.9325 3.09734 16.9325 6.90265V12.3304C16.9325 12.7139 16.608 13.0088 16.254 13.0088Z" fill="white"/>
<path d="M10 23.8643C9.64606 23.8643 9.35107 23.5693 9.35107 23.2153V19.4985C9.35107 19.1445 9.64606 18.8495 10 18.8495C10.354 18.8495 10.649 19.1445 10.649 19.4985V23.2153C10.649 23.5693 10.354 23.8643 10 23.8643Z" fill="white"/>
</svg>
