<svg width="25" height="26" viewBox="0 0 25 26" fill="none" xmlns="http://www.w3.org/2000/svg">
<g clip-path="url(#clip0_6715_62449)">
<path d="M6.85786 25.5435C6.67082 25.5435 6.48379 25.4815 6.29676 25.4195C5.73566 25.1715 5.42394 24.6756 5.42394 24.1176V19.3437H2.6808C1.18454 19.4057 0 18.2277 0 16.7397V2.66601C0 1.17804 1.18454 6.10352e-05 2.6808 6.10352e-05H22.3192C23.8155 6.10352e-05 25 1.17804 25 2.66601V16.7397C25 18.2277 23.8155 19.4057 22.3192 19.4057H12.9676L7.91771 25.1095C7.60599 25.4195 7.23192 25.5435 6.85786 25.5435ZM2.6808 1.24004C1.87032 1.24004 1.24688 1.86002 1.24688 2.66601V16.7397C1.24688 17.5457 1.87032 18.1657 2.6808 18.1657H6.10973C6.48379 18.1657 6.73317 18.4137 6.73317 18.7857V24.1796C6.73317 24.2416 6.79551 24.3036 6.85786 24.3656C6.9202 24.3656 6.98254 24.3656 7.04489 24.3036L12.2818 18.4137C12.4065 18.2897 12.5935 18.2277 12.7805 18.2277H22.3815C23.192 18.2277 23.8155 17.6077 23.8155 16.8017V2.66601C23.7531 1.86002 23.0673 1.24004 22.3192 1.24004H2.6808Z" fill="white"/>
<path d="M12.469 13.2058C12.0949 13.2058 11.8455 12.9578 11.8455 12.5858V12.2138C11.8455 10.7258 12.7184 9.85784 13.4665 9.11386C14.2146 8.36987 14.7134 7.81188 14.7134 6.9439C14.7134 5.70393 13.7159 4.77394 12.5313 4.77394C11.3468 4.77394 10.3493 5.76592 10.3493 6.9439C10.3493 7.31589 10.0999 7.56389 9.72584 7.56389C9.35177 7.56389 9.10239 7.31589 9.10239 6.9439C9.04005 4.95994 10.5987 3.40997 12.469 3.40997C14.3393 3.40997 15.8979 4.95994 15.8979 6.8199C15.8979 8.30787 15.0251 9.11386 14.3393 9.85784C13.5912 10.6638 13.0924 11.1598 13.0924 12.0898V12.4618C13.0924 12.8958 12.843 13.2058 12.469 13.2058Z" fill="white"/>
<path d="M12.469 15.9337C12.4067 15.9337 12.3443 15.9337 12.282 15.9337C12.2196 15.9337 12.1573 15.9337 12.0949 15.8717C12.0326 15.8717 11.9703 15.8097 11.9703 15.8097C11.9703 15.8097 11.9079 15.7477 11.8456 15.6857C11.6585 15.4997 11.5962 15.3137 11.5962 15.0658C11.5962 15.0038 11.5962 14.9418 11.5962 14.8798C11.5962 14.8178 11.5962 14.7558 11.6585 14.6938C11.6585 14.6318 11.7209 14.5698 11.7209 14.5698C11.7209 14.5078 11.7832 14.5078 11.8456 14.4458C11.9079 14.3838 11.9079 14.3838 11.9703 14.3218C12.0326 14.2598 12.0949 14.2598 12.0949 14.2598C12.1573 14.2598 12.2196 14.1978 12.282 14.1978C12.5314 14.1358 12.8431 14.2598 13.0925 14.4458C13.1548 14.5078 13.1548 14.5078 13.2171 14.5698C13.2171 14.6318 13.2795 14.6938 13.2795 14.6938C13.2795 14.7558 13.3418 14.8178 13.3418 14.8798C13.3418 14.9418 13.3418 15.0038 13.3418 15.0658C13.3418 15.3137 13.2171 15.4997 13.0925 15.6857C12.9678 15.8097 12.7184 15.9337 12.469 15.9337Z" fill="white"/>
</g>
<defs>
<clipPath id="clip0_6715_62449">
<rect width="25" height="25.5435" fill="white"/>
</clipPath>
</defs>
</svg>
