<svg width="24" height="24" viewBox="0 0 24 24" fill="none" xmlns="http://www.w3.org/2000/svg">
<path fill-rule="evenodd" clip-rule="evenodd" d="M5.86364 6.25C5.367 6.25 5 6.62373 5 7.08757V14.2034C5 14.6673 5.367 15.041 5.86364 15.041H6.26631L15.2727 15.0945C15.2733 15.0945 15.2738 15.0945 15.2744 15.0945C15.7261 15.0948 16.186 15.2323 16.5432 15.5785L18.9083 17.7385C18.9082 17.7384 18.9085 17.7386 18.9083 17.7385C18.9186 17.7476 18.925 17.7491 18.9293 17.7497C18.9366 17.7506 18.9499 17.7498 18.9657 17.7427C18.9817 17.7356 18.9918 17.7259 18.9963 17.7195C18.9993 17.7152 19 17.713 19 17.7079V7.08757C19 6.62373 18.633 6.25 18.1364 6.25H5.86364ZM4 7.08757C4 6.05333 4.833 5.25 5.86364 5.25H18.1364C19.167 5.25 20 6.05333 20 7.08757V17.7079C20 18.5931 18.9154 19.0939 18.2371 18.4798L18.2356 18.4783L15.8562 16.3055L15.8499 16.2992C15.7175 16.1694 15.5266 16.0945 15.2727 16.0945H15.2698L6.26334 16.041H5.86364C4.833 16.041 4 15.2377 4 14.2034V7.08757Z" fill="white"/>
<path d="M11.3945 13.1482C11.3945 13.4113 11.6078 13.6246 11.8709 13.6246C12.134 13.6246 12.3473 13.4113 12.3473 13.1482C12.3473 12.885 12.134 12.6718 11.8709 12.6718C11.6078 12.6718 11.3945 12.885 11.3945 13.1482Z" fill="white"/>
<path d="M13.6391 8.46737C13.5022 8.22078 13.2832 8.00158 13.0094 7.86458C12.7357 7.70018 12.4346 7.64539 12.0513 7.64539C11.6407 7.64539 11.2848 7.72759 11.011 7.89198C10.7373 8.05638 10.5183 8.27558 10.3814 8.54957C10.2985 8.71541 10.2357 8.88125 10.1991 9.05924C10.1579 9.25916 10.3278 9.42636 10.5319 9.42636C10.736 9.42636 10.8961 9.25747 10.9546 9.06193C10.9769 8.9872 11.0055 8.91688 11.0384 8.85097C11.1205 8.68657 11.2574 8.54957 11.449 8.43998C11.6133 8.33038 11.8323 8.30298 12.0513 8.30298C12.2703 8.30298 12.4346 8.35778 12.5988 8.43998C12.7631 8.52217 12.8726 8.63177 12.9821 8.79617C13.0642 8.96057 13.119 9.15237 13.119 9.34416C13.119 9.64556 13.0368 9.89215 12.8452 10.084C12.6536 10.2757 12.3798 10.3853 11.9965 10.3853C11.6942 10.3853 11.449 10.6305 11.449 10.9329V11.4817C11.449 11.6933 11.6206 11.8649 11.8323 11.8649C12.044 11.8649 12.2156 11.6933 12.2156 11.4817V11.421C12.2156 11.1913 12.3925 11.0065 12.6159 10.9538C12.7478 10.9226 12.8686 10.8805 12.9821 10.8237C13.2558 10.6867 13.4748 10.4675 13.6117 10.221C13.7486 9.97435 13.8307 9.70036 13.8307 9.39896V9.31676C13.8581 8.98797 13.8034 8.71397 13.6391 8.46737Z" fill="white"/>
</svg>
