<svg width="25" height="25" viewBox="0 0 25 25" fill="none" xmlns="http://www.w3.org/2000/svg">
<g clip-path="url(#clip0_6715_62446)">
<path d="M21.4029 0.255127H0.622266C0.573593 0.255122 0.525404 0.264779 0.480499 0.283558C0.435595 0.302337 0.394865 0.32987 0.360687 0.364523C0.326508 0.399177 0.299561 0.440251 0.281403 0.48541C0.263245 0.530569 0.254242 0.578898 0.254918 0.627566V24.3724C0.254909 24.4704 0.293449 24.5643 0.362197 24.634C0.430945 24.7037 0.524373 24.7436 0.622266 24.7449H21.4029C22.2888 24.7436 23.138 24.391 23.7644 23.7646C24.3909 23.1382 24.7434 22.289 24.7447 21.4031V3.59185C24.742 2.70684 24.3889 1.85891 23.7626 1.23359C23.1363 0.608267 22.2879 0.256472 21.4029 0.255127ZM18.4335 24H0.99472V0.994929H18.4335C19.1218 0.996277 19.7816 1.2703 20.2683 1.75703C20.755 2.24376 21.0291 2.90351 21.0304 3.59185V9.15819H17.459C16.596 9.19193 15.7795 9.55848 15.1808 10.181C14.5821 10.8036 14.2477 11.6338 14.2477 12.4975C14.2477 13.3612 14.5821 14.1913 15.1808 14.8139C15.7795 15.4364 16.596 15.803 17.459 15.8367H21.0304V21.4031C21.0304 21.7441 20.9633 22.0818 20.8327 22.3969C20.7022 22.7119 20.511 22.9982 20.2698 23.2394C20.0287 23.4805 19.7424 23.6718 19.4273 23.8023C19.1122 23.9328 18.7745 24 18.4335 24ZM23.9998 21.4031C23.9998 21.7441 23.9326 22.0818 23.8021 22.3969C23.6716 22.7119 23.4803 22.9982 23.2392 23.2394C22.998 23.4805 22.7118 23.6718 22.3967 23.8023C22.0816 23.9328 21.7439 24 21.4029 24H20.5304C20.9187 23.6876 21.232 23.2922 21.4475 22.8428C21.6629 22.3934 21.7749 21.9014 21.7753 21.4031V15.8367H23.9998V21.4031ZM23.9998 15.0969H17.4437C16.7549 15.0969 16.0944 14.8234 15.6074 14.3363C15.1204 13.8493 14.8468 13.1888 14.8468 12.5C14.8468 11.8113 15.1204 11.1507 15.6074 10.6637C16.0944 10.1767 16.7549 9.90307 17.4437 9.90307H23.9998V15.0969ZM23.9998 9.15819H21.7753V3.59185C21.7742 3.09362 21.6619 2.60192 21.4465 2.15263C21.2311 1.70335 20.9181 1.30784 20.5304 0.994929H21.4029C22.0912 0.996277 22.751 1.2703 23.2377 1.75703C23.7244 2.24376 23.9985 2.90351 23.9998 3.59185V9.15819Z" fill="white"/>
<path fill-rule="evenodd" clip-rule="evenodd" d="M0.62251 1.00549e-09C0.622501 1.00549e-09 0.622518 1.00549e-09 0.62251 1.00549e-09H21.4031C22.3556 0.00144751 23.2691 0.380056 23.9431 1.05304C24.6171 1.72603 24.9971 2.63858 25 3.59105L25 3.59183L25 21.4031C24.9986 22.3565 24.6192 23.2708 23.945 23.945C23.2709 24.6191 22.3569 24.9985 21.4035 25H0.61899C0.45402 24.9977 0.296608 24.9306 0.180792 24.8131C0.0649544 24.6957 1.99614e-05 24.5374 3.54252e-05 24.3724V0.629079C-0.000837114 0.547297 0.0144164 0.466121 0.044937 0.390216C0.0757184 0.313663 0.121393 0.244054 0.179282 0.185362C0.237168 0.126672 0.306169 0.0800185 0.382294 0.0481829C0.458412 0.0163504 0.540085 -4.68222e-06 0.62251 1.00549e-09ZM21.4029 0.510204H0.622485C0.607572 0.510203 0.592826 0.513161 0.579143 0.518883C0.565459 0.524606 0.553001 0.533017 0.54253 0.543634C0.532061 0.554249 0.523842 0.566789 0.518308 0.580554C0.512762 0.594347 0.510008 0.609121 0.510215 0.623998L0.510264 0.627541L0.510239 24.3724C0.510237 24.4033 0.522382 24.4329 0.54404 24.4549C0.565431 24.4766 0.59438 24.4891 0.624748 24.4898H21.4027C22.2211 24.4885 23.0056 24.1629 23.5843 23.5842C24.1629 23.0055 24.4886 22.2211 24.4898 21.4027L24.4898 3.5926C24.4898 3.5924 24.4898 3.59219 24.4898 3.59198C24.4872 2.77465 24.161 1.9916 23.5826 1.41409C23.0041 0.836473 22.2204 0.511496 21.4029 0.510204ZM0.739838 0.739802H18.4337C19.1895 0.741283 19.9145 1.04217 20.4489 1.57662C20.9834 2.11107 21.2843 2.8355 21.2857 3.59133V9.41327H17.4643C16.6689 9.44562 15.9167 9.78398 15.3649 10.3578C14.8119 10.9329 14.503 11.6997 14.503 12.4974C14.503 13.2952 14.8119 14.062 15.3649 14.637C15.9167 15.2109 16.6689 15.5493 17.4643 15.5816H21.2857V21.4031C21.2857 21.7776 21.212 22.1484 21.0687 22.4945C20.9253 22.8405 20.7153 23.1549 20.4504 23.4197C20.1856 23.6846 19.8712 23.8947 19.5251 24.038C19.1791 24.1813 18.8082 24.2551 18.4337 24.2551H0.739838V0.739802ZM1.25004 1.25001V23.7449H18.4337C18.7412 23.7449 19.0458 23.6843 19.3299 23.5666C19.614 23.4489 19.8722 23.2764 20.0896 23.059C20.3071 22.8415 20.4796 22.5833 20.5973 22.2992C20.715 22.0151 20.7755 21.7106 20.7755 21.4031V16.0918H17.4542L17.4493 16.0916C16.5203 16.0553 15.6415 15.6608 14.9971 14.9907C14.3528 14.3206 13.9928 13.4271 13.9928 12.4974C13.9928 11.5678 14.3528 10.6743 14.9971 10.0042C15.6415 9.3341 16.5203 8.93958 17.4493 8.90326L17.4542 8.90307H20.7755V3.59232C20.7743 2.97147 20.5272 2.3764 20.0881 1.93739C19.6492 1.49844 19.0542 1.25129 18.4335 1.25001H1.25004ZM19.8084 0.739802H21.4031C22.1589 0.741283 22.8839 1.04217 23.4183 1.57662C23.9528 2.11107 24.2537 2.8355 24.2551 3.59133V9.41327H21.5204V3.5924C21.5194 3.13214 21.4156 2.67792 21.2167 2.26288C21.0177 1.84785 20.7286 1.48249 20.3704 1.19342L19.8084 0.739802ZM21.159 1.25001C21.3651 1.48948 21.5393 1.75574 21.6767 2.04234C21.9085 2.52586 22.0294 3.05504 22.0306 3.59125V8.90307H23.7449V3.59232C23.7437 2.97147 23.4965 2.3764 23.0575 1.93739C22.6186 1.49844 22.0236 1.25129 21.4028 1.25001H21.159ZM17.4439 10.1581C16.8228 10.1581 16.2272 10.4049 15.788 10.8441C15.3488 11.2832 15.1021 11.8789 15.1021 12.5C15.1021 13.1211 15.3488 13.7168 15.788 14.1559C16.2272 14.5951 16.8228 14.8418 17.4439 14.8418H23.7449V10.1581H17.4439ZM15.4272 10.4833C15.9621 9.94844 16.6875 9.64794 17.4439 9.64794H24.2551V15.352H17.4439C16.6875 15.352 15.9621 15.0516 15.4272 14.5167C14.8923 13.9818 14.5919 13.2564 14.5919 12.5C14.5919 11.7436 14.8923 11.0182 15.4272 10.4833ZM21.5204 15.5816H24.2551V21.4031C24.2551 21.7776 24.1814 22.1484 24.038 22.4945C23.8947 22.8405 23.6846 23.1549 23.4198 23.4197C23.155 23.6846 22.8406 23.8947 22.4945 24.038C22.1485 24.1813 21.7776 24.2551 21.4031 24.2551H19.8067L20.3707 23.8012C20.7293 23.5127 21.0187 23.1475 21.2177 22.7325C21.4166 22.3174 21.5201 21.8631 21.5204 21.4029V15.5816ZM22.0306 16.0918V21.4031C22.0302 21.9395 21.9096 22.4693 21.6777 22.953C21.5404 23.2395 21.3661 23.5056 21.1599 23.7449H21.4031C21.7106 23.7449 22.0152 23.6843 22.2993 23.5666C22.5834 23.4489 22.8416 23.2764 23.059 23.059C23.2765 22.8415 23.449 22.5833 23.5667 22.2992C23.6844 22.0151 23.7449 21.7106 23.7449 21.4031V16.0918H22.0306Z" fill="white"/>
</g>
<defs>
<clipPath id="clip0_6715_62446">
<rect width="25" height="25" fill="white"/>
</clipPath>
</defs>
</svg>
