<svg width="24" height="24" viewBox="0 0 24 24" fill="none" xmlns="http://www.w3.org/2000/svg">
<path fill-rule="evenodd" clip-rule="evenodd" d="M15.5093 10.4666C15.0854 10.4666 14.7593 10.7927 14.7593 11.2166V12.7166C14.7593 13.1404 15.0854 13.4666 15.5093 13.4666H19.0093C19.4331 13.4666 19.7593 13.1404 19.7593 12.7166V11.2166C19.7593 10.7927 19.4331 10.4666 19.0093 10.4666H15.5093ZM13.7593 11.2166C13.7593 10.2404 14.5331 9.46655 15.5093 9.46655H19.0093C19.9854 9.46655 20.7593 10.2404 20.7593 11.2166V12.7166C20.7593 13.6927 19.9854 14.4666 19.0093 14.4666H15.5093C14.5331 14.4666 13.7593 13.6927 13.7593 12.7166V11.2166Z" fill="white"/>
<path fill-rule="evenodd" clip-rule="evenodd" d="M3.4668 7.32532C3.4668 6.34917 4.24065 5.57532 5.2168 5.57532H16.4668C17.4429 5.57532 18.2168 6.34917 18.2168 7.32532V8.45032C18.2168 8.72646 17.9929 8.95032 17.7168 8.95032C17.4407 8.95032 17.2168 8.72646 17.2168 8.45032V7.32532C17.2168 6.90146 16.8907 6.57532 16.4668 6.57532H5.2168C4.79294 6.57532 4.4668 6.90146 4.4668 7.32532V16.5753C4.4668 16.9992 4.79294 17.3253 5.2168 17.3253H16.4668C16.8907 17.3253 17.2168 16.9992 17.2168 16.5753V15.4503C17.2168 15.1742 17.4407 14.9503 17.7168 14.9503C17.9929 14.9503 18.2168 15.1742 18.2168 15.4503V16.5753C18.2168 17.5515 17.4429 18.3253 16.4668 18.3253H5.2168C4.24065 18.3253 3.4668 17.5515 3.4668 16.5753V7.32532Z" fill="white"/>
<path fill-rule="evenodd" clip-rule="evenodd" d="M18.5293 6.07532C18.5293 5.79917 18.7532 5.57532 19.0293 5.57532C20.0054 5.57532 20.7793 6.34917 20.7793 7.32532V16.5753C20.7793 17.5515 20.0054 18.3253 19.0293 18.3253C18.7532 18.3253 18.5293 18.1015 18.5293 17.8253C18.5293 17.5492 18.7532 17.3253 19.0293 17.3253C19.4532 17.3253 19.7793 16.9992 19.7793 16.5753V7.32532C19.7793 6.90146 19.4532 6.57532 19.0293 6.57532C18.7532 6.57532 18.5293 6.35146 18.5293 6.07532Z" fill="white"/>
</svg>
