<svg width="35" height="35" viewBox="0 0 35 35" fill="none" xmlns="http://www.w3.org/2000/svg">
<path opacity="0.7" d="M17.5 35C7.85638 35 0 27.1436 0 17.5C0 7.85639 7.85638 0 17.5 0C27.1436 0 35 7.85639 35 17.5C35 27.1436 27.1436 35 17.5 35Z" fill="white"/>
<path d="M17.5 35C7.85638 35 0 27.1436 0 17.5C0 7.85638 7.85638 0 17.5 0C27.1436 0 35 7.85638 35 17.5C35 27.1436 27.1436 35 17.5 35ZM17.5 1.67553C8.78723 1.67553 1.67553 8.78724 1.67553 17.5C1.67553 26.2128 8.78723 33.3245 17.5 33.3245C26.2128 33.3245 33.3245 26.2128 33.3245 17.5C33.3245 8.78724 26.2128 1.67553 17.5 1.67553Z" fill="#373765"/>
<g clip-path="url(#clip0_5217_33196)">
<path d="M9.70249 16.7667L24.7333 16.7667C25.0498 16.7667 25.3135 17.0365 25.3135 17.3602C25.3135 17.6839 25.0498 17.9536 24.7333 17.9536L9.70249 17.9536C9.38605 17.9536 9.12235 17.6839 9.12235 17.3602C9.12235 17.0365 9.38605 16.7667 9.70249 16.7667Z" fill="#373765"/>
<path d="M16.1103 10.2117C16.2685 10.2117 16.4004 10.2656 16.5322 10.4005C16.7695 10.6433 16.7695 11.0209 16.5322 11.2637L10.5462 17.3871L16.5322 23.4835C16.7695 23.7263 16.7695 24.1039 16.5322 24.3467C16.2949 24.5895 15.9257 24.5895 15.6884 24.3467L9.28048 17.7917C9.04315 17.549 9.04315 17.1713 9.28048 16.9285L15.6884 10.3735C15.7939 10.2656 15.9521 10.2117 16.1103 10.2117Z" fill="#373765"/>
</g>
<defs>
<clipPath id="clip0_5217_33196">
<rect width="16.2175" height="14.2969" fill="white" transform="translate(25.3398 24.5088) rotate(-180)"/>
</clipPath>
</defs>
</svg>
