<svg width="156" height="207" viewBox="0 0 156 207" fill="none" xmlns="http://www.w3.org/2000/svg">
<g opacity="0.6" clip-path="url(#clip0_5217_32837)">
<path opacity="0.3" d="M114.635 92.2298C114.635 28.5989 63.3448 -23 0.0947571 -23C-0.135239 -23 -0.36525 -23 -0.36525 -23L-0.365252 34.1521C-0.135256 34.1521 0.0947547 34.1521 0.0947547 34.1521C31.8348 34.1521 57.5948 60.0673 57.5948 91.9985C57.5948 123.93 31.8348 149.845 0.0947499 149.845C-0.135246 149.845 -0.365257 149.845 -0.365257 149.845L-0.365259 206.997C-0.135263 206.997 0.0947475 206.997 0.0947475 206.997C63.3448 207.46 114.635 155.861 114.635 92.2298Z" fill="#5ED9D1"/>
<path d="M141.012 54.3547C141.012 55.4605 141.904 56.357 143.003 56.357C144.103 56.357 144.994 55.4605 144.994 54.3547C144.994 53.249 144.103 52.3525 143.003 52.3525C141.904 52.3525 141.012 53.249 141.012 54.3547Z" fill="#5ED9D1"/>
<path d="M143.003 74.6851C141.931 74.6851 141.012 73.761 141.012 72.6829C141.012 71.6048 141.931 70.6807 143.003 70.6807C144.075 70.6807 144.994 71.6048 144.994 72.6829C144.994 73.761 144.075 74.6851 143.003 74.6851Z" fill="#5ED9D1"/>
<path d="M143.003 93.0137C141.931 93.0137 141.012 92.0896 141.012 91.0115C141.012 89.9334 141.931 89.0093 143.003 89.0093C144.075 89.0093 144.994 89.9334 144.994 91.0115C144.994 92.0896 144.075 93.0137 143.003 93.0137Z" fill="#5ED9D1"/>
<path d="M141.012 109.493C141.012 110.599 141.904 111.496 143.003 111.496C144.103 111.496 144.994 110.599 144.994 109.493C144.994 108.388 144.103 107.491 143.003 107.491C141.904 107.491 141.012 108.388 141.012 109.493Z" fill="#5ED9D1"/>
<path d="M143.003 129.822C141.931 129.822 141.012 128.898 141.012 127.82C141.012 126.741 141.931 125.817 143.003 125.817C144.075 125.817 144.994 126.741 144.994 127.82C144.994 128.898 144.075 129.822 143.003 129.822Z" fill="#5ED9D1"/>
<path d="M121.868 54.3547C121.868 55.4605 122.76 56.357 123.859 56.357C124.959 56.357 125.85 55.4605 125.85 54.3547C125.85 53.249 124.959 52.3525 123.859 52.3525C122.76 52.3525 121.868 53.249 121.868 54.3547Z" fill="#5ED9D1"/>
<path d="M123.859 74.6851C122.787 74.6851 121.868 73.761 121.868 72.6829C121.868 71.6048 122.787 70.6807 123.859 70.6807C124.931 70.6807 125.85 71.6048 125.85 72.6829C125.697 73.761 124.931 74.6851 123.859 74.6851Z" fill="#5ED9D1"/>
<path d="M123.859 93.0137C122.787 93.0137 121.868 92.0896 121.868 91.0115C121.868 89.9334 122.787 89.0093 123.859 89.0093C124.931 89.0093 125.85 89.9334 125.85 91.0115C125.697 92.0896 124.931 93.0137 123.859 93.0137Z" fill="#5ED9D1"/>
<path d="M121.868 109.493C121.868 110.599 122.76 111.496 123.859 111.496C124.959 111.496 125.85 110.599 125.85 109.493C125.85 108.388 124.959 107.491 123.859 107.491C122.76 107.491 121.868 108.388 121.868 109.493Z" fill="#5ED9D1"/>
<path d="M123.859 129.822C122.787 129.822 121.868 128.898 121.868 127.82C121.868 126.741 122.787 125.817 123.859 125.817C124.931 125.817 125.85 126.741 125.85 127.82C125.697 128.898 124.931 129.822 123.859 129.822Z" fill="#5ED9D1"/>
<path d="M104.562 56.2031C103.49 56.2031 102.571 55.279 102.571 54.2009C102.571 53.1228 103.49 52.1987 104.562 52.1987C105.634 52.1987 106.553 53.1228 106.553 54.2009C106.553 55.4331 105.634 56.2031 104.562 56.2031Z" fill="#5ED9D1"/>
<path d="M104.562 74.6851C103.49 74.6851 102.571 73.761 102.571 72.6829C102.571 71.6048 103.49 70.6807 104.562 70.6807C105.634 70.6807 106.553 71.6048 106.553 72.6829C106.553 73.761 105.634 74.6851 104.562 74.6851Z" fill="#5ED9D1"/>
<path d="M104.562 93.0132C103.49 93.0132 102.571 92.0891 102.571 91.011C102.571 89.9329 103.49 89.0088 104.562 89.0088C105.634 89.0088 106.553 89.9329 106.553 91.011C106.553 92.0891 105.634 93.0132 104.562 93.0132Z" fill="#5ED9D1"/>
<path d="M104.562 111.342C103.49 111.342 102.571 110.418 102.571 109.34C102.571 108.262 103.49 107.338 104.562 107.338C105.634 107.338 106.553 108.262 106.553 109.34C106.553 110.418 105.634 111.342 104.562 111.342Z" fill="#5ED9D1"/>
<path d="M104.562 129.824C103.49 129.824 102.571 128.9 102.571 127.822C102.571 126.743 103.49 125.819 104.562 125.819C105.634 125.819 106.553 126.743 106.553 127.822C106.553 128.9 105.634 129.824 104.562 129.824Z" fill="#5ED9D1"/>
<path d="M83.2736 54.3548C83.2736 55.4605 84.165 56.357 85.2646 56.357C86.3642 56.357 87.2556 55.4605 87.2556 54.3548C87.2556 53.249 86.3642 52.3525 85.2646 52.3525C84.165 52.3525 83.2736 53.249 83.2736 54.3548Z" fill="#5ED9D1"/>
<path d="M85.2646 74.6851C84.1926 74.6851 83.2736 73.761 83.2736 72.6829C83.2736 71.6048 84.1926 70.6807 85.2646 70.6807C86.3367 70.6807 87.2556 71.6048 87.2556 72.6829C87.2556 73.761 86.3367 74.6851 85.2646 74.6851Z" fill="#5ED9D1"/>
<path d="M85.2646 93.0137C84.1926 93.0137 83.2736 92.0896 83.2736 91.0115C83.2736 89.9334 84.1926 89.0093 85.2646 89.0093C86.3367 89.0093 87.2556 89.9334 87.2556 91.0115C87.2556 92.0896 86.3367 93.0137 85.2646 93.0137Z" fill="#5ED9D1"/>
<path d="M83.2736 109.493C83.2736 110.599 84.165 111.496 85.2646 111.496C86.3642 111.496 87.2556 110.599 87.2556 109.493C87.2556 108.388 86.3642 107.491 85.2646 107.491C84.165 107.491 83.2736 108.388 83.2736 109.493Z" fill="#5ED9D1"/>
<path d="M85.2646 129.822C84.1925 129.822 83.2736 128.898 83.2736 127.82C83.2736 126.741 84.1925 125.817 85.2646 125.817C86.3367 125.817 87.2556 126.741 87.2556 127.82C87.2556 128.898 86.3367 129.822 85.2646 129.822Z" fill="#5ED9D1"/>
</g>
<defs>
<clipPath id="clip0_5217_32837">
<rect width="230" height="155.635" fill="white" transform="translate(155.635 -23) rotate(90)"/>
</clipPath>
</defs>
</svg>
