<svg width="156" height="207" viewBox="0 0 156 207" fill="none" xmlns="http://www.w3.org/2000/svg">
<g opacity="0.6" clip-path="url(#clip0_5217_32864)">
<path opacity="0.3" d="M41.3652 92.2298C41.3652 28.5989 92.6552 -23 155.905 -23C156.135 -23 156.365 -23 156.365 -23L156.365 34.1521C156.135 34.1521 155.905 34.1521 155.905 34.1521C124.165 34.1521 98.4052 60.0673 98.4052 91.9985C98.4052 123.93 124.165 149.845 155.905 149.845C156.135 149.845 156.365 149.845 156.365 149.845L156.365 206.997C156.135 206.997 155.905 206.997 155.905 206.997C92.6552 207.46 41.3652 155.861 41.3652 92.2298Z" fill="#5ED9D1"/>
<path d="M14.9876 54.3547C14.9876 55.4605 14.0962 56.357 12.9966 56.357C11.897 56.357 11.0056 55.4605 11.0056 54.3547C11.0056 53.249 11.897 52.3525 12.9966 52.3525C14.0962 52.3525 14.9876 53.249 14.9876 54.3547Z" fill="#5ED9D1"/>
<path d="M12.9966 74.6851C14.0687 74.6851 14.9876 73.761 14.9876 72.6829C14.9876 71.6048 14.0687 70.6807 12.9966 70.6807C11.9245 70.6807 11.0056 71.6048 11.0056 72.6829C11.0056 73.761 11.9245 74.6851 12.9966 74.6851Z" fill="#5ED9D1"/>
<path d="M12.9966 93.0137C14.0687 93.0137 14.9876 92.0896 14.9876 91.0115C14.9876 89.9334 14.0687 89.0093 12.9966 89.0093C11.9245 89.0093 11.0056 89.9334 11.0056 91.0115C11.0056 92.0896 11.9245 93.0137 12.9966 93.0137Z" fill="#5ED9D1"/>
<path d="M14.9876 109.493C14.9876 110.599 14.0962 111.496 12.9966 111.496C11.897 111.496 11.0056 110.599 11.0056 109.493C11.0056 108.388 11.897 107.491 12.9966 107.491C14.0962 107.491 14.9876 108.388 14.9876 109.493Z" fill="#5ED9D1"/>
<path d="M12.9966 129.822C14.0687 129.822 14.9876 128.898 14.9876 127.82C14.9876 126.741 14.0687 125.817 12.9966 125.817C11.9245 125.817 11.0056 126.741 11.0056 127.82C11.0056 128.898 11.9245 129.822 12.9966 129.822Z" fill="#5ED9D1"/>
<path d="M34.1316 54.3547C34.1316 55.4605 33.2402 56.357 32.1406 56.357C31.0411 56.357 30.1497 55.4605 30.1497 54.3547C30.1497 53.249 31.0411 52.3525 32.1406 52.3525C33.2402 52.3525 34.1316 53.249 34.1316 54.3547Z" fill="#5ED9D1"/>
<path d="M32.1406 74.6851C33.2127 74.6851 34.1316 73.761 34.1316 72.6829C34.1316 71.6048 33.2127 70.6807 32.1406 70.6807C31.0686 70.6807 30.1497 71.6048 30.1497 72.6829C30.3028 73.761 31.0686 74.6851 32.1406 74.6851Z" fill="#5ED9D1"/>
<path d="M32.1406 93.0137C33.2127 93.0137 34.1316 92.0896 34.1316 91.0115C34.1316 89.9334 33.2127 89.0093 32.1406 89.0093C31.0686 89.0093 30.1497 89.9334 30.1497 91.0115C30.3028 92.0896 31.0686 93.0137 32.1406 93.0137Z" fill="#5ED9D1"/>
<path d="M34.1316 109.493C34.1316 110.599 33.2402 111.496 32.1406 111.496C31.0411 111.496 30.1497 110.599 30.1497 109.493C30.1497 108.388 31.0411 107.491 32.1406 107.491C33.2402 107.491 34.1316 108.388 34.1316 109.493Z" fill="#5ED9D1"/>
<path d="M32.1406 129.822C33.2127 129.822 34.1316 128.898 34.1316 127.82C34.1316 126.741 33.2127 125.817 32.1406 125.817C31.0686 125.817 30.1497 126.741 30.1497 127.82C30.3028 128.898 31.0686 129.822 32.1406 129.822Z" fill="#5ED9D1"/>
<path d="M51.438 56.2031C52.5101 56.2031 53.429 55.279 53.429 54.2009C53.429 53.1228 52.5101 52.1987 51.438 52.1987C50.3659 52.1987 49.447 53.1228 49.447 54.2009C49.447 55.4331 50.3659 56.2031 51.438 56.2031Z" fill="#5ED9D1"/>
<path d="M51.438 74.6851C52.5101 74.6851 53.429 73.761 53.429 72.6829C53.429 71.6048 52.5101 70.6807 51.438 70.6807C50.3659 70.6807 49.447 71.6048 49.447 72.6829C49.447 73.761 50.3659 74.6851 51.438 74.6851Z" fill="#5ED9D1"/>
<path d="M51.438 93.0132C52.5101 93.0132 53.429 92.0891 53.429 91.011C53.429 89.9329 52.5101 89.0088 51.438 89.0088C50.3659 89.0088 49.447 89.9329 49.447 91.011C49.447 92.0891 50.3659 93.0132 51.438 93.0132Z" fill="#5ED9D1"/>
<path d="M51.438 111.342C52.5101 111.342 53.429 110.418 53.429 109.34C53.429 108.262 52.5101 107.338 51.438 107.338C50.3659 107.338 49.447 108.262 49.447 109.34C49.447 110.418 50.3659 111.342 51.438 111.342Z" fill="#5ED9D1"/>
<path d="M51.438 129.824C52.5101 129.824 53.429 128.9 53.429 127.822C53.429 126.743 52.5101 125.819 51.438 125.819C50.3659 125.819 49.447 126.743 49.447 127.822C49.447 128.9 50.3659 129.824 51.438 129.824Z" fill="#5ED9D1"/>
<path d="M72.7264 54.3548C72.7264 55.4605 71.835 56.357 70.7354 56.357C69.6358 56.357 68.7444 55.4605 68.7444 54.3548C68.7444 53.249 69.6358 52.3525 70.7354 52.3525C71.835 52.3525 72.7264 53.249 72.7264 54.3548Z" fill="#5ED9D1"/>
<path d="M70.7354 74.6851C71.8074 74.6851 72.7264 73.761 72.7264 72.6829C72.7264 71.6048 71.8074 70.6807 70.7354 70.6807C69.6633 70.6807 68.7444 71.6048 68.7444 72.6829C68.7444 73.761 69.6633 74.6851 70.7354 74.6851Z" fill="#5ED9D1"/>
<path d="M70.7354 93.0137C71.8074 93.0137 72.7264 92.0896 72.7264 91.0115C72.7264 89.9334 71.8074 89.0093 70.7354 89.0093C69.6633 89.0093 68.7444 89.9334 68.7444 91.0115C68.7444 92.0896 69.6633 93.0137 70.7354 93.0137Z" fill="#5ED9D1"/>
<path d="M72.7264 109.493C72.7264 110.599 71.835 111.496 70.7354 111.496C69.6358 111.496 68.7444 110.599 68.7444 109.493C68.7444 108.388 69.6358 107.491 70.7354 107.491C71.835 107.491 72.7264 108.388 72.7264 109.493Z" fill="#5ED9D1"/>
<path d="M70.7354 129.822C71.8075 129.822 72.7264 128.898 72.7264 127.82C72.7264 126.741 71.8075 125.817 70.7354 125.817C69.6633 125.817 68.7444 126.741 68.7444 127.82C68.7444 128.898 69.6633 129.822 70.7354 129.822Z" fill="#5ED9D1"/>
</g>
<defs>
<clipPath id="clip0_5217_32864">
<rect width="230" height="155.635" fill="white" transform="matrix(4.3609e-08 1 1 -4.3814e-08 0.365234 -23)"/>
</clipPath>
</defs>
</svg>
