<svg width="33" height="33" viewBox="0 0 33 33" fill="none" xmlns="http://www.w3.org/2000/svg">
<path fill-rule="evenodd" clip-rule="evenodd" d="M16.6012 6.00359C10.7076 5.97066 5.87731 10.6776 5.84446 16.5582L5.84443 16.562C5.77865 22.4493 10.5149 27.2823 16.3988 27.3152L16.4026 27.3152C22.2897 27.381 27.1227 22.6447 27.1555 16.7606L27.1556 16.7568C27.2213 10.8695 22.4851 6.03646 16.6012 6.00359ZM4.46949 16.5486C4.5077 9.89645 9.96973 4.59152 16.6089 4.62861C23.2577 4.66576 28.6037 10.1247 28.5305 16.7702C28.4923 23.4182 23.034 28.7634 16.3892 28.6902C9.74129 28.652 4.39629 23.1935 4.46949 16.5486Z" fill="white"/>
<path fill-rule="evenodd" clip-rule="evenodd" d="M16.5 5.59277C16.8544 5.59277 17.1416 5.88004 17.1416 6.2344V28.0495C17.1416 28.4039 16.8544 28.6912 16.5 28.6912C16.1457 28.6912 15.8584 28.4039 15.8584 28.0495V6.2344C15.8584 5.88004 16.1457 5.59277 16.5 5.59277Z" fill="white"/>
<path fill-rule="evenodd" clip-rule="evenodd" d="M4.93042 16.6598C4.93042 16.3049 5.21819 16.0171 5.57317 16.0171H27.4266C27.7816 16.0171 28.0694 16.3049 28.0694 16.6598C28.0694 17.0148 27.7816 17.3026 27.4266 17.3026H5.57317C5.21819 17.3026 4.93042 17.0148 4.93042 16.6598Z" fill="white"/>
<path fill-rule="evenodd" clip-rule="evenodd" d="M12.2328 8.98891C11.0723 10.8678 10.3334 13.5043 10.3334 16.4507C10.3334 19.3972 11.0723 22.0337 12.2328 23.9126C13.3996 25.8016 14.9262 26.8367 16.5 26.8367C18.0738 26.8367 19.6004 25.8016 20.7672 23.9126C21.9277 22.0337 22.6667 19.3972 22.6667 16.4507C22.6667 13.5043 21.9277 10.8678 20.7672 8.98891C19.6004 7.09987 18.0738 6.06484 16.5 6.06484C14.9262 6.06484 13.3996 7.09986 12.2328 8.98891ZM11.1283 8.3067C12.4283 6.20185 14.3096 4.7666 16.5 4.7666C18.6904 4.7666 20.5717 6.20185 21.8718 8.3067C23.1781 10.4217 23.9649 13.3027 23.9649 16.4507C23.9649 19.5988 23.1781 22.4798 21.8718 24.5948C20.5717 26.6996 18.6904 28.1349 16.5 28.1349C14.3096 28.1349 12.4283 26.6996 11.1283 24.5948C9.82196 22.4798 9.03516 19.5988 9.03516 16.4507C9.03516 13.3027 9.82196 10.4217 11.1283 8.3067Z" fill="white"/>
</svg>
