<svg width="48" height="48" viewBox="0 0 48 48" fill="none" xmlns="http://www.w3.org/2000/svg">
<path fill-rule="evenodd" clip-rule="evenodd" d="M24.1489 8.43199C15.4136 8.38319 8.24981 15.3604 8.20109 24.0825L8.20105 24.0864C8.10353 32.8153 15.1258 39.982 23.8512 40.0307L23.8551 40.0307C32.5837 40.1283 39.7503 33.1059 39.799 24.3802L39.799 24.3763C39.8966 15.6474 32.8743 8.48074 24.1489 8.43199ZM6.80112 24.0727C6.8553 14.565 14.6623 6.97897 24.1567 7.03201C33.661 7.08511 41.3041 14.889 41.199 24.39C41.1448 33.8935 33.3416 41.5358 23.8414 41.4307C14.3381 41.3765 6.69604 33.573 6.80112 24.0727Z" fill="#171753"/>
<path fill-rule="evenodd" clip-rule="evenodd" d="M24 7.23291C24.3866 7.23291 24.7 7.533 24.7 7.90317V40.4587C24.7 40.8289 24.3866 41.129 24 41.129C23.6134 41.129 23.3 40.8289 23.3 40.4587V7.90317C23.3 7.533 23.6134 7.23291 24 7.23291Z" fill="#171753"/>
<path fill-rule="evenodd" clip-rule="evenodd" d="M7.14844 24.2317C7.14844 23.8451 7.44681 23.5317 7.81488 23.5317H40.185C40.5531 23.5317 40.8515 23.8451 40.8515 24.2317C40.8515 24.6183 40.5531 24.9317 40.185 24.9317H7.81488C7.44681 24.9317 7.14844 24.6183 7.14844 24.2317Z" fill="#171753"/>
<path fill-rule="evenodd" clip-rule="evenodd" d="M17.171 13.1073C15.3495 15.9226 14.2 19.854 14.2 24.2317C14.2 28.6095 15.3495 32.5409 17.171 35.3562C18.9992 38.182 21.433 39.7925 24 39.7925C26.567 39.7925 29.0008 38.182 30.8291 35.3562C32.6506 32.5409 33.8 28.6095 33.8 24.2317C33.8 19.854 32.6506 15.9226 30.8291 13.1073C29.0008 10.2815 26.567 8.67098 24 8.67098C21.433 8.67098 18.9992 10.2815 17.171 13.1073ZM15.9799 12.4049C17.9519 9.35698 20.7681 7.33447 24 7.33447C27.232 7.33447 30.0482 9.35698 32.0202 12.4049C33.999 15.4634 35.2001 19.6465 35.2001 24.2317C35.2001 28.817 33.999 33.0001 32.0202 36.0585C30.0482 39.1065 27.232 41.129 24 41.129C20.7681 41.129 17.9519 39.1065 15.9799 36.0585C14.0011 33.0001 12.8 28.817 12.8 24.2317C12.8 19.6465 14.0011 15.4634 15.9799 12.4049Z" fill="#171753"/>
</svg>
