<svg width="33" height="33" viewBox="0 0 33 33" fill="none" xmlns="http://www.w3.org/2000/svg">
<g clip-path="url(#clip0_3207_15505)">
<circle cx="16.3555" cy="16.5" r="16" fill="#9BE7C4"/>
<mask id="mask0_3207_15505" style="mask-type:alpha" maskUnits="userSpaceOnUse" x="0" y="0" width="33" height="33">
<circle cx="16.3555" cy="16.5" r="16" fill="#9BE7C4"/>
</mask>
<g mask="url(#mask0_3207_15505)">
<path d="M16.2635 31.4912C15.4254 30.9989 14.6923 30.3144 14.1243 29.4814C12.2585 26.8836 11.4575 23.6014 11.9063 20.4251C12.7433 21.2374 13.8535 21.6253 14.9445 21.4867C14.942 19.9694 14.3685 18.497 13.3602 17.4046C13.2894 17.3281 13.2185 17.2516 13.1464 17.1798C14.6112 13.9661 16.1606 8.36768 11.8621 6.85964C8.33812 5.62301 5.33614 11.0402 4.27759 13.8511C4.14621 14.2025 4.02703 14.5546 3.92169 14.9106C3.21656 15.172 2.58795 15.6157 2.09014 16.2069C1.13757 17.2869 0.642629 18.7527 0.714801 20.2692C1.62795 20.4072 2.54649 20.1644 3.27913 19.5952C3.34357 22.6661 4.32367 25.6671 6.0754 28.1468C8.40186 31.6972 12.2262 33.7557 16.1782 33.5803C16.5361 34.2292 17.0241 34.7847 17.6006 35.2079C18.7886 36.1161 20.2015 36.6042 21.6321 36.6032C21.7013 35.6292 21.0843 34.4775 19.869 33.542C19.6047 33.3381 19.3294 33.1561 19.0403 32.9976C19.3579 32.9802 19.6727 32.9372 19.9817 32.8703C21.4092 32.5556 22.3578 31.77 22.613 30.8419C21.2916 30.1926 19.8282 30.0059 18.4364 30.308C17.6126 30.4501 16.8534 30.8631 16.2635 31.4912ZM11.9101 29.0447C9.55666 27.8228 7.81465 25.5245 7.18482 22.8029C6.33962 19.5732 7.06998 16.1587 9.11678 13.7545C7.81973 16.2768 7.39615 19.244 7.91977 22.1351C8.48366 24.8436 9.89345 27.2844 11.9101 29.0447Z" fill="#237B75"/>
<path d="M19.5055 2.31797C20.1917 3.00641 20.7275 3.8542 21.0662 4.80389C22.2135 7.78942 22.1574 11.1675 20.919 14.1266C20.3149 13.129 19.3392 12.4726 18.2487 12.3304C17.8668 13.7989 18.0489 15.3686 18.7478 16.6807C18.7969 16.7726 18.8461 16.8645 18.8977 16.9523C16.667 19.6904 13.7506 24.7141 17.5274 27.2614C20.6234 29.3499 24.8991 24.8692 26.6348 22.4179C26.8509 22.1113 27.0553 21.8007 27.2474 21.4831C27.9957 21.4086 28.7162 21.1385 29.3475 20.6926C30.5424 19.889 31.3923 18.5963 31.7065 17.1109C30.858 16.7462 29.9079 16.7486 29.055 17.1137C29.7702 14.1266 29.5818 10.9752 28.515 8.13277C27.1632 4.10905 23.9846 1.14935 20.1169 0.318504C19.935 -0.399922 19.6035 -1.06078 19.153 -1.61617C18.2336 -2.79559 16.9903 -3.6255 15.606 -3.98673C15.2925 -3.06197 15.5978 -1.79157 16.5367 -0.578834C16.7408 -0.314732 16.961 -0.068964 17.2006 0.157588C16.8889 0.093986 16.5735 0.055892 16.2576 0.0424317C14.797 -0.0145904 13.6804 0.505304 13.1985 1.33855C14.3124 2.3012 15.6809 2.85233 17.1038 2.91246C17.9368 2.98354 18.7758 2.77623 19.5055 2.31797ZM23.0977 5.78691C25.0651 7.56481 26.1684 10.2293 26.0887 13.0217C26.0887 16.3602 24.5176 19.4785 21.9288 21.2862C23.8222 19.1744 24.9832 16.4111 25.2086 13.4817C25.3488 10.7187 24.603 8.00042 23.0977 5.78691Z" fill="#237B75"/>
</g>
</g>
<defs>
<clipPath id="clip0_3207_15505">
<rect width="32" height="32" fill="white" transform="translate(0.355469 0.5)"/>
</clipPath>
</defs>
</svg>
