<svg width="33" height="33" viewBox="0 0 33 33" fill="none" xmlns="http://www.w3.org/2000/svg">
<g clip-path="url(#clip0_3207_15500)">
<circle cx="16.3555" cy="16.5" r="16" fill="#FFC78F"/>
<mask id="mask0_3207_15500" style="mask-type:alpha" maskUnits="userSpaceOnUse" x="0" y="0" width="33" height="33">
<circle cx="16.3555" cy="16.5" r="16" fill="#C4C4C4"/>
</mask>
<g mask="url(#mask0_3207_15500)">
<path fill-rule="evenodd" clip-rule="evenodd" d="M35.7337 48.4046C32.6186 41.2238 28.1969 35.6184 22.4631 31.5933C24.1238 33.9586 23.0325 36.3108 19.194 38.655C16.9968 35.6647 16.2799 32.1545 17.0384 28.1242C13.4626 26.2277 10.5897 24.358 8.43014 22.5106C8.62987 23.804 9.05662 24.8345 9.70598 25.5918C10.0352 25.9782 10.4294 26.2882 10.8833 26.5263C11.2401 26.7033 11.5108 26.8903 11.695 27.0922C11.8707 27.2685 11.9797 27.466 12.0173 27.6793C12.0185 27.7447 12.0249 27.8054 12.0261 27.8708C12.0082 28.1712 11.869 28.4795 11.608 28.8057C11.5693 28.8637 11.5065 28.9052 11.4244 28.9305C11.3737 28.9375 11.3327 28.9501 11.2964 28.9681C11.2312 28.9642 11.176 28.9609 11.1362 28.9535C11.0456 28.9531 10.9663 28.9333 10.9032 28.8944C10.8802 28.8578 10.8879 28.8131 10.9266 28.7551C11.33 28.1509 11.1878 27.6651 10.5052 27.2977C10.4276 27.2479 10.335 27.1971 10.2324 27.1458C10.1781 27.1275 10.1242 27.1042 10.0755 27.0762C8.81715 26.4886 7.8617 25.5472 7.20946 24.247C7.02152 23.8539 6.8507 23.4266 6.69643 22.9752C6.40287 22.1587 6.16369 21.1896 5.9783 20.0781C5.94087 20.0306 5.90314 19.9881 5.86571 19.9407C3.68454 17.273 3.34658 14.499 4.85151 11.6237C6.33962 8.77762 8.32485 7.13204 10.8123 6.68726C11.62 6.55951 12.5204 6.56793 13.5135 6.70751C13.5811 6.67133 13.6737 6.63665 13.7861 6.60817C14.8646 6.24528 15.835 6.00661 16.6971 5.89717C17.1747 5.82009 17.6296 5.78689 18.0514 5.80198C19.5123 5.77846 20.7914 6.18635 21.8782 7.03505C21.93 7.09342 21.9828 7.13676 22.0265 7.16449C22.1125 7.23997 22.1845 7.29954 22.2473 7.34349C22.9057 7.77971 23.4093 7.68911 23.7534 7.06638C23.7777 6.99747 23.8143 6.97452 23.8739 6.98813C23.9281 7.00643 23.9856 7.05509 24.0463 7.13408C24.0584 7.18505 24.076 7.22631 24.099 7.26286C24.1111 7.31383 24.1235 7.35979 24.1355 7.41076C24.1452 7.50179 24.1357 7.57661 24.1165 7.64582C23.9475 8.03275 23.7308 8.2912 23.4611 8.42588C23.4079 8.47297 23.356 8.50003 23.3053 8.50706C23.0996 8.58023 22.8784 8.5771 22.6365 8.49736C22.369 8.42615 22.0762 8.27301 21.753 8.03767C21.3378 7.74157 20.8869 7.53882 20.4009 7.4194C19.4343 7.17085 18.3369 7.26124 17.1035 7.69028C18.4478 8.18748 19.9082 8.84738 21.49 9.66527C23.0753 10.5085 24.6814 11.5942 26.3083 12.9223C28.9899 10.9916 32.8548 11.1615 37.903 13.4323C36.8061 15.7941 34.6754 17.0089 31.5054 17.0864C39.3276 24.3215 42.8034 34.147 41.9233 46.5522C45.1701 48.2281 47.626 51.1836 49.2913 55.4136C46.6463 55.5475 43.7736 54.7733 40.6684 53.0857C38.9595 55.2452 36.3602 56.3015 32.8711 56.2443L35.7337 48.4046ZM29.7422 24.8861C26.1765 20.7087 21.1498 18.0774 16.4134 17.9208C20.7158 19.0265 24.924 21.5436 28.2996 25.0262C31.4016 28.372 33.4975 32.3864 34.2408 36.3806C34.4688 32.5549 32.8088 28.3201 29.7422 24.8861Z" fill="#FF4141"/>
</g>
</g>
<defs>
<clipPath id="clip0_3207_15500">
<rect width="32" height="32" fill="white" transform="translate(0.355469 0.5)"/>
</clipPath>
</defs>
</svg>
