<svg width="33" height="33" viewBox="0 0 33 33" fill="none" xmlns="http://www.w3.org/2000/svg">
<g clip-path="url(#clip0_3207_15511)">
<circle cx="16.3555" cy="16.5" r="16" fill="#FFA6A6"/>
<mask id="mask0_3207_15511" style="mask-type:alpha" maskUnits="userSpaceOnUse" x="0" y="0" width="33" height="33">
<circle cx="16.3555" cy="16.5" r="16" fill="#C4C4C4"/>
</mask>
<g mask="url(#mask0_3207_15511)">
<path fill-rule="evenodd" clip-rule="evenodd" d="M-9.35455 24.7711C-1.72396 25.1896 5.1022 23.7787 11.1221 20.5318C8.3313 20.948 6.75464 18.9673 6.38547 14.5916C9.95638 13.9801 13.3342 14.8882 16.5215 17.3117C19.7399 15.0186 22.6278 13.3275 25.1844 12.2493C23.9679 11.8585 22.8818 11.7807 21.9368 12.0167C21.4555 12.1353 21.0127 12.344 20.6064 12.6362C20.2959 12.8703 20.0144 13.0249 19.7576 13.0975C19.5269 13.1739 19.3069 13.1828 19.1042 13.1224C19.0466 13.0948 18.9908 13.0739 18.9332 13.0463C18.6787 12.8994 18.4704 12.6432 18.2996 12.2728C18.2659 12.2137 18.2572 12.1407 18.271 12.058C18.287 12.0106 18.2939 11.9693 18.2941 11.9298C18.326 11.8746 18.3529 11.8278 18.3768 11.7963C18.4167 11.7174 18.4687 11.6568 18.5302 11.6187C18.5722 11.6146 18.6079 11.6409 18.6416 11.7C18.9928 12.3162 19.4791 12.4044 20.0982 11.9689C20.1756 11.923 20.2603 11.8643 20.35 11.7972C20.3897 11.7578 20.4336 11.7209 20.4794 11.6906C21.5423 10.8488 22.7817 10.426 24.2019 10.4248C24.6272 10.4325 25.0749 10.4701 25.5365 10.5327C26.3776 10.6332 27.3282 10.8479 28.3797 11.1718C28.4375 11.1598 28.491 11.1454 28.5488 11.1335C31.8311 10.395 34.4007 11.3122 36.2533 13.8826C38.0878 16.4256 38.6569 18.878 37.9582 21.244C37.7167 22.0051 37.3159 22.7874 36.7601 23.5935C36.7621 23.6683 36.7519 23.7644 36.7276 23.875C36.5732 24.9751 36.3575 25.9266 36.0763 26.7271C35.9348 27.1778 35.765 27.5895 35.5675 27.9512C34.9497 29.2368 34.0346 30.1753 32.8187 30.7533C32.745 30.7731 32.6841 30.8002 32.6408 30.8262C32.5373 30.8683 32.4539 30.9051 32.3881 30.9408C31.7195 31.325 31.5785 31.8042 31.9718 32.3768C32.0214 32.4281 32.0254 32.4701 31.9875 32.5161C31.9478 32.5555 31.8802 32.5844 31.7847 32.6029C31.7349 32.5912 31.6912 32.5886 31.6492 32.5927C31.5995 32.5809 31.5539 32.5716 31.5042 32.5599C31.4204 32.5285 31.3593 32.4876 31.3072 32.4405C31.0433 32.1239 30.9124 31.8218 30.9126 31.5274C30.8947 31.4605 30.8938 31.4033 30.9098 31.3559C30.9358 31.1444 31.0353 30.9526 31.2106 30.7763C31.3896 30.5739 31.6513 30.3851 31.998 30.2058C32.4379 29.9728 32.812 29.6677 33.1287 29.2955C33.7681 28.5603 34.1687 27.5627 34.3332 26.2984C33.3116 27.2547 32.0973 28.2413 30.692 29.2649C29.263 30.2805 27.6132 31.2083 25.7427 32.0482C26.2565 35.2332 24.4191 38.5332 20.2305 41.9483C18.6478 39.9585 18.5183 37.5674 19.8361 34.7659C10.101 38.4334 0.00371628 37.1741 -10.4422 30.9846C-13.3243 33.0868 -16.9778 33.9394 -21.3987 33.5448C-20.3597 31.1771 -18.4283 29.0073 -15.598 27.0338C-16.7366 24.5981 -16.5228 21.8671 -14.9481 18.8459L-9.35455 24.7711ZM13.7969 29.818C19.0023 28.5305 23.4963 25.2917 25.7028 21.225C22.8574 24.4981 18.8207 27.0721 14.305 28.4973C10.0283 29.7434 5.60756 29.8189 1.79555 28.7224C5.03604 30.5933 9.45866 30.9946 13.7969 29.818Z" fill="#BEF0ED"/>
</g>
</g>
<defs>
<clipPath id="clip0_3207_15511">
<rect width="32" height="32" fill="white" transform="translate(0.355469 0.5)"/>
</clipPath>
</defs>
</svg>
