<svg width="33" height="33" viewBox="0 0 33 33" fill="none" xmlns="http://www.w3.org/2000/svg">
<g clip-path="url(#clip0_3207_15516)">
<circle cx="16.3555" cy="16.5" r="16" fill="#FF4141"/>
<mask id="mask0_3207_15516" style="mask-type:alpha" maskUnits="userSpaceOnUse" x="0" y="0" width="33" height="33">
<circle cx="16.3555" cy="16.5" r="16" fill="#C4C4C4"/>
</mask>
<g mask="url(#mask0_3207_15516)">
<path fill-rule="evenodd" clip-rule="evenodd" d="M34.7997 4.60622C28.3482 5.96119 22.9754 8.66082 18.6843 12.7103C20.9168 11.7404 22.6727 13.0387 23.9573 16.6024C21.1184 17.9091 18.1011 17.9066 14.9043 16.5989C12.7345 19.2281 10.7058 21.282 8.81631 22.7511C9.91717 22.8052 10.8396 22.6275 11.5742 22.2199C11.9488 22.0136 12.2712 21.7408 12.5444 21.4067C12.7509 21.1423 12.951 20.9506 13.1487 20.8328C13.3239 20.7176 13.5053 20.6611 13.6876 20.6662C13.7418 20.6763 13.7929 20.6812 13.8471 20.6914C14.0919 20.757 14.3227 20.9239 14.5477 21.1945C14.589 21.2362 14.6126 21.2951 14.6195 21.367C14.6167 21.4101 14.6202 21.4461 14.6289 21.479C14.6147 21.5322 14.6026 21.5771 14.5898 21.6087C14.5741 21.6834 14.5444 21.7455 14.5016 21.791C14.4675 21.8037 14.4319 21.7898 14.3906 21.7481C13.9604 21.3131 13.5355 21.3481 13.1169 21.8492C13.0627 21.9047 13.0052 21.9726 12.9454 22.0485C12.9211 22.0902 12.8928 22.1308 12.8614 22.1662C12.1638 23.105 11.2254 23.7339 10.0423 24.0521C9.68619 24.1406 9.30477 24.2092 8.90623 24.2601C8.18291 24.3642 7.34293 24.3975 6.39447 24.3624C6.34898 24.3852 6.30757 24.4092 6.26209 24.432C3.69205 25.7802 1.34622 25.5896 -0.771313 23.8615C-2.86764 22.1522 -3.88939 20.2358 -3.83546 18.1084C-3.80418 17.4203 -3.6449 16.679 -3.36169 15.8832C-3.3801 15.8213 -3.39304 15.739 -3.39751 15.6414C-3.51443 14.6903 -3.54714 13.8493 -3.49157 13.1195C-3.47433 12.7124 -3.42475 12.3315 -3.34093 11.986C-3.11315 10.7768 -2.56019 9.7905 -1.6761 9.03748C-1.61916 9.00455 -1.57447 8.96834 -1.54421 8.93703C-1.46737 8.87878 -1.40605 8.8295 -1.35916 8.78512C-0.887849 8.3157 -0.877383 7.88487 -1.33294 7.49562C-1.38569 7.46396 -1.39843 7.42988 -1.37712 7.38303C-1.35284 7.34135 -1.30297 7.30216 -1.22752 7.26543C-1.18343 7.26411 -1.1464 7.25651 -1.11236 7.24373C-1.06827 7.2424 -1.02825 7.23999 -0.98416 7.23866C-0.907419 7.24608 -0.847298 7.26656 -0.79345 7.29413C-0.502817 7.49903 -0.326255 7.72156 -0.260771 7.96687C-0.230913 8.01868 -0.217377 8.0661 -0.220165 8.10916C-0.194592 8.29121 -0.234608 8.47321 -0.341317 8.65925C-0.445339 8.86791 -0.621231 9.0836 -0.870076 9.31039C-1.18462 9.60281 -1.42819 9.94051 -1.60896 10.3213C-1.97757 11.0767 -2.08869 11.9974 -1.94341 13.0876C-1.30575 12.0627 -0.514203 10.9695 0.428238 9.80281C1.39218 8.63755 2.55966 7.49616 3.9307 6.37865C2.79152 3.83952 3.58574 0.679592 6.31334 -3.10113C8.07634 -1.7965 8.71806 0.166941 8.24557 2.79546C15.5384 -2.43391 24.2329 -3.63903 34.3187 -0.813892C36.2508 -3.20901 39.1047 -4.73514 42.8764 -5.39336C42.5393 -3.18848 41.4145 -0.949378 39.4967 1.32694C40.9893 3.10224 41.4209 5.42549 40.7834 8.29451L34.7997 4.60622Z" fill="#FFEE81"/>
<path d="M12.3488 30.3899C13.2393 30.5609 14.1747 30.5326 15.0858 30.2985C17.9933 29.6267 20.5759 27.8194 22.2173 25.3167C21.1305 25.3705 20.1135 24.9588 19.4341 24.1899C20.3702 23.1278 21.6789 22.4489 23.0584 22.3042C23.1551 22.2942 23.2519 22.2842 23.3467 22.2783C24.299 19.1237 26.6605 14.2455 30.6021 15.8356C33.8336 17.1389 32.6018 22.7846 31.6128 25.4067C31.4885 25.7338 31.3552 26.0541 31.2098 26.3684C31.5431 26.9859 31.7104 27.684 31.6953 28.405C31.6979 29.7485 31.1422 31.0807 30.1577 32.0992C29.4327 31.6336 28.9384 30.8978 28.7754 30.0477C26.8391 32.1604 24.3041 33.6603 21.5493 34.3197C17.7322 35.3756 13.784 34.4633 11.122 31.9067C10.4715 32.1411 9.78748 32.23 9.1228 32.1716C7.73077 32.0766 6.43989 31.5486 5.43774 30.6669C5.98906 29.9416 7.13076 29.5143 8.55871 29.607C8.86948 29.6269 9.1745 29.6689 9.47479 29.7358C9.26284 29.528 9.06868 29.304 8.89335 29.0668C8.08655 27.9672 7.90547 26.8324 8.29811 26.0247C9.6241 26.3833 10.7648 27.1537 11.5543 28.2225C12.0442 28.8294 12.3221 29.5864 12.3488 30.3899Z" fill="#FFEE81"/>
</g>
</g>
<defs>
<clipPath id="clip0_3207_15516">
<rect width="32" height="32" fill="white" transform="translate(0.355469 0.5)"/>
</clipPath>
</defs>
</svg>
