<svg width="33" height="33" viewBox="0 0 33 33" fill="none" xmlns="http://www.w3.org/2000/svg">
<g clip-path="url(#clip0_3207_15495)">
<circle cx="16.3555" cy="16.5" r="16" fill="#5ED9D1"/>
<mask id="mask0_3207_15495" style="mask-type:alpha" maskUnits="userSpaceOnUse" x="0" y="0" width="33" height="33">
<circle cx="16.3555" cy="16.5" r="16" fill="#C4C4C4"/>
</mask>
<g mask="url(#mask0_3207_15495)">
<path d="M26.7248 36.4832C25.5698 35.8047 24.5595 34.8614 23.7766 33.7134C21.2052 30.1332 20.1014 25.6097 20.7199 21.2323C21.8734 22.3517 23.4034 22.8863 24.907 22.6954C24.9036 20.6042 24.1132 18.5749 22.7236 17.0694C22.626 16.964 22.5283 16.8586 22.4289 16.7596C24.4477 12.3306 26.5831 4.61501 20.6589 2.53668C15.8023 0.832376 11.665 8.29819 10.2062 12.1722C10.0251 12.6563 9.86084 13.1417 9.71567 13.6322C8.74388 13.9926 7.87755 14.6041 7.19147 15.4189C5.87867 16.9073 5.19655 18.9273 5.29602 21.0174C6.5545 21.2076 7.82041 20.8729 8.83011 20.0885C8.91892 24.3207 10.2697 28.4566 12.6839 31.8741C15.8901 36.7671 21.1608 39.6041 26.6073 39.3624C27.1006 40.2567 27.7731 41.0222 28.5675 41.6055C30.2049 42.8572 32.1521 43.5299 34.1238 43.5285C34.2191 42.1861 33.3687 40.5989 31.6938 39.3096C31.3296 39.0286 30.9502 38.7778 30.5517 38.5594C30.9895 38.5354 31.4233 38.4761 31.8491 38.3839C33.8164 37.9502 35.1238 36.8675 35.4755 35.5884C33.6545 34.6936 31.6376 34.4363 29.7195 34.8526C28.5841 35.0485 27.5378 35.6176 26.7248 36.4832ZM20.725 33.1116C17.4816 31.4276 15.0808 28.2601 14.2128 24.5093C13.048 20.0582 14.0546 15.3524 16.8754 12.039C15.0878 15.5152 14.5041 19.6045 15.2257 23.5889C16.0029 27.3217 17.9458 30.6856 20.725 33.1116Z" fill="#171753"/>
</g>
</g>
<defs>
<clipPath id="clip0_3207_15495">
<rect width="32" height="32" fill="white" transform="translate(0.355469 0.5)"/>
</clipPath>
</defs>
</svg>
